<svg xmlns="http://www.w3.org/2000/svg" xmlns:xlink="http://www.w3.org/1999/xlink" viewBox="0 0 1920 765.05"><defs><style>.cls-1,.cls-5{fill:none;}.cls-2{fill:#595b5b;}.cls-3{fill:#9e9e9e;}.cls-4{fill:#c4c4c4;}.cls-5{stroke:#fff;stroke-width:11.34px;stroke-dasharray:56.69;}.cls-5,.cls-9{stroke-miterlimit:10;}.cls-6{fill:#16a0da;}.cls-7{fill:#d9f9f3;}.cls-8{fill:#ccc5a8;}.cls-9{fill:#18b7a0;stroke:#18b7a0;stroke-width:1.04px;}.cls-10{fill:#eae5d8;}.cls-11{fill:#f2cda3;}.cls-12{fill:#aaa6a5;opacity:0.4;isolation:isolate;}.cls-13{fill:#d8ba8b;}.cls-14{clip-path:url(#clip-path);}.cls-15{fill:#b2b2b2;}.cls-16{fill:#94c85b;}.cls-17{fill:#84af4b;}.cls-18{fill:#695020;}.cls-19{fill:#b4cb34;}.cls-20{fill:#aab72c;}</style><clipPath id="clip-path"><rect class="cls-1" x="1249.95" y="226.06" width="351.42" height="94"/></clipPath></defs><title>Asset 3grad-3</title><g id="Layer_2" data-name="Layer 2"><g id="Layer_1-2" data-name="Layer 1"><rect class="cls-2" y="555.05" shape-rendering="crispEdges" width="1930" height="210"/><rect class="cls-3" y="542.05" width="1930" height="46"/><rect id="rub_plocnika" data-name="rub plocnika" class="cls-4" y="585.05" width="1930" height="4"/><line id="dashed_line" data-name="dashed line" class="cls-5" x1="25.13" y1="726.59" x2="1895" y2="726.59"/><rect class="cls-6" x="158.31" y="81.32" width="119.51" height="30.73"/><rect class="cls-6" x="148.42" y="95.2" width="139.28" height="466.85"/><rect class="cls-7" x="228.97" y="350.93" width="45" height="61.45"/><rect class="cls-7" x="165.22" y="350.93" width="45" height="61.45"/><rect class="cls-7" x="228.97" y="425.27" width="45" height="61.45"/><rect class="cls-7" x="165.22" y="425.27" width="45" height="61.45"/><rect class="cls-7" x="228.97" y="276.59" width="45" height="61.45"/><rect class="cls-7" x="165.22" y="276.59" width="45" height="61.45"/><rect class="cls-7" x="228.97" y="202.25" width="45" height="61.45"/><rect class="cls-7" x="165.22" y="202.25" width="45" height="61.45"/><rect class="cls-7" x="228.97" y="127.91" width="45" height="61.45"/><rect class="cls-7" x="165.22" y="127.91" width="45" height="61.45"/><rect class="cls-8" x="130.76" y="310.11" width="351.42" height="253"/><rect class="cls-7" x="322.43" y="332.36" width="45" height="62"/><rect class="cls-7" x="322.43" y="406.61" width="45" height="62"/><rect class="cls-7" x="402.78" y="332.36" width="45" height="62"/><rect class="cls-7" x="402.78" y="406.61" width="45" height="62"/><rect class="cls-7" x="241.8" y="332.36" width="45" height="62"/><rect class="cls-7" x="241.8" y="406.61" width="45" height="62"/><rect class="cls-7" x="161.72" y="332.36" width="45" height="62"/><rect class="cls-7" x="161.72" y="406.61" width="45" height="62"/><rect class="cls-7" x="322.43" y="479.55" width="45" height="62"/><rect class="cls-7" x="402.78" y="479.55" width="45" height="62"/><rect class="cls-7" x="241.8" y="479.55" width="45" height="62"/><rect class="cls-7" x="161.72" y="480.61" width="45" height="62"/><rect class="cls-8" x="149.08" y="284.92" width="312.41" height="33.39"/><rect class="cls-9" x="1535.57" y="85.05" width="139.28" height="471"/><rect class="cls-7" x="1615.61" y="339.05" width="45" height="62"/><rect class="cls-7" x="1551.87" y="339.05" width="45" height="62"/><rect class="cls-7" x="1615.61" y="414.05" width="45" height="62"/><rect class="cls-7" x="1551.87" y="414.05" width="45" height="62"/><rect class="cls-7" x="1615.61" y="264.05" width="45" height="62"/><rect class="cls-7" x="1551.87" y="264.05" width="45" height="62"/><rect class="cls-7" x="1615.61" y="189.05" width="45" height="62"/><rect class="cls-7" x="1551.87" y="189.05" width="45" height="62"/><rect class="cls-7" x="1615.61" y="114.05" width="45" height="62"/><rect class="cls-7" x="1551.87" y="114.05" width="45" height="62"/><rect class="cls-9" x="558.13" y="31.63" width="155.08" height="524.42"/><rect class="cls-7" x="647.24" y="314.44" width="50.1" height="69.03"/><rect class="cls-7" x="576.27" y="314.44" width="50.1" height="69.03"/><rect class="cls-7" x="647.24" y="397.94" width="50.1" height="69.03"/><rect class="cls-7" x="576.27" y="397.94" width="50.1" height="69.03"/><rect class="cls-7" x="647.24" y="230.93" width="50.1" height="69.03"/><rect class="cls-7" x="576.27" y="230.93" width="50.1" height="69.03"/><rect class="cls-7" x="647.24" y="147.42" width="50.1" height="69.03"/><rect class="cls-7" x="576.27" y="147.42" width="50.1" height="69.03"/><rect class="cls-7" x="647.24" y="63.92" width="50.1" height="69.03"/><rect class="cls-7" x="576.27" y="63.92" width="50.1" height="69.03"/><rect class="cls-10" x="1657.39" y="183.05" width="146.78" height="373"/><rect class="cls-7" x="1741.25" y="443.05" width="45" height="62"/><rect class="cls-7" x="1675.08" y="443.05" width="45" height="62"/><rect class="cls-7" x="1741.25" y="368.05" width="45" height="62"/><rect class="cls-7" x="1675.08" y="368.05" width="45" height="62"/><rect class="cls-7" x="1741.25" y="293.05" width="45" height="62"/><rect class="cls-7" x="1675.08" y="293.05" width="45" height="62"/><rect class="cls-7" x="1741.25" y="218.05" width="45" height="62"/><rect class="cls-7" x="1675.08" y="218.05" width="45" height="62"/><rect class="cls-11" x="1703.04" y="313.06" width="189.32" height="253"/><rect class="cls-7" x="1813.39" y="335.3" width="45" height="62"/><rect class="cls-7" x="1813.39" y="409.55" width="45" height="62"/><rect class="cls-7" x="1733.31" y="335.3" width="45" height="62"/><rect class="cls-7" x="1733.31" y="409.55" width="45" height="62"/><rect class="cls-7" x="1813.39" y="483.55" width="45" height="62"/><rect class="cls-7" x="1733.31" y="483.55" width="45" height="62"/><rect class="cls-11" x="1721.34" y="289.56" width="151.23" height="30"/><polygon class="cls-12" points="322.13 570.05 186.06 570.05 186.06 67.23 322.13 570.05"/><g id="zgrada_1" data-name="zgrada 1"><rect class="cls-13" x="28.56" y="66.69" width="157.51" height="503.36"/><rect class="cls-7" x="120.6" y="331.76" width="42.96" height="51.04"/><rect class="cls-7" x="57.42" y="331.76" width="42.96" height="51.04"/><rect class="cls-7" x="120.6" y="393.5" width="42.96" height="51.04"/><rect class="cls-7" x="57.42" y="393.5" width="42.96" height="51.04"/><rect class="cls-7" x="120.6" y="455.24" width="42.96" height="51.04"/><rect class="cls-7" x="57.42" y="455.24" width="42.96" height="51.04"/><rect class="cls-7" x="120.6" y="270.03" width="42.96" height="51.04"/><rect class="cls-7" x="57.42" y="270.03" width="42.96" height="51.04"/><rect class="cls-7" x="120.6" y="208.29" width="42.96" height="51.04"/><rect class="cls-7" x="57.42" y="208.29" width="42.96" height="51.04"/><rect class="cls-7" x="120.6" y="146.56" width="42.96" height="51.04"/><rect class="cls-7" x="57.42" y="146.56" width="42.96" height="51.04"/><rect class="cls-7" x="120.6" y="82.35" width="42.96" height="51.04"/><rect class="cls-7" x="57.42" y="82.35" width="42.96" height="51.04"/><rect class="cls-13" x="53.87" y="48.05" width="111.43" height="24.23"/></g><rect class="cls-10" x="1068.86" y="169.05" width="111.43" height="24"/><rect class="cls-10" x="1050.97" y="183.05" width="146.78" height="373"/><rect class="cls-7" x="1134.83" y="443.05" width="45" height="62"/><rect class="cls-7" x="1068.65" y="443.05" width="45" height="62"/><rect class="cls-7" x="1134.83" y="368.05" width="45" height="62"/><rect class="cls-7" x="1068.65" y="368.05" width="45" height="62"/><rect class="cls-7" x="1134.83" y="293.05" width="45" height="62"/><rect class="cls-7" x="1068.65" y="293.05" width="45" height="62"/><rect class="cls-7" x="1134.83" y="218.05" width="45" height="62"/><rect class="cls-7" x="1068.65" y="218.05" width="45" height="62"/><rect class="cls-10" x="655.55" y="125.55" width="139.65" height="26.86"/><rect class="cls-10" x="627.77" y="138.54" width="183.96" height="417.51"/><rect class="cls-7" x="732.87" y="429.57" width="56.4" height="69.4"/><rect class="cls-7" x="649.92" y="429.57" width="56.4" height="69.4"/><rect class="cls-7" x="732.87" y="345.62" width="56.4" height="69.4"/><rect class="cls-7" x="649.92" y="345.62" width="56.4" height="69.4"/><rect class="cls-7" x="732.87" y="261.67" width="56.4" height="69.4"/><rect class="cls-7" x="649.92" y="261.67" width="56.4" height="69.4"/><rect class="cls-7" x="732.87" y="177.72" width="56.4" height="69.4"/><rect class="cls-7" x="649.92" y="177.72" width="56.4" height="69.4"/><g id="zgrada_7" data-name="zgrada 7"><rect class="cls-11" x="1250.26" y="313.06" width="351.42" height="253"/><rect class="cls-7" x="1443.37" y="335.3" width="45" height="62"/><rect class="cls-7" x="1443.37" y="409.55" width="45" height="62"/><rect class="cls-7" x="1523.74" y="335.3" width="45" height="62"/><rect class="cls-7" x="1523.74" y="409.55" width="45" height="62"/><rect class="cls-7" x="1362.76" y="335.3" width="45" height="62"/><rect class="cls-7" x="1362.76" y="409.55" width="45" height="62"/><rect class="cls-7" x="1282.66" y="335.3" width="45" height="62"/><rect class="cls-7" x="1282.66" y="409.55" width="45" height="62"/><rect class="cls-7" x="1443.37" y="483.55" width="45" height="62"/><rect class="cls-7" x="1523.74" y="483.55" width="45" height="62"/><rect class="cls-7" x="1282.66" y="483.55" width="45" height="62"/><rect class="cls-11" x="1249.95" y="226.06" width="351.42" height="94"/><g class="cls-14"><path class="cls-11" d="M1596.32,382.31c.27-64.78-71.42-117.41-160.11-117.54s-160.81,52.26-161.07,117S1596.05,447.05,1596.32,382.31Z"/></g><polygon class="cls-7" points="1364.73 307.56 1437.08 307.56 1461.69 238.56 1389.35 238.56 1364.73 307.56"/><polygon class="cls-7" points="1486.94 307.56 1414.6 307.56 1389.98 238.56 1462.33 238.56 1486.94 307.56"/><polygon class="cls-7" points="1582.44 307.56 1511.22 307.56 1486.99 238.56 1582.44 307.56"/><polygon class="cls-7" points="1269.23 307.56 1340.45 307.56 1364.68 238.56 1269.23 307.56"/><rect class="cls-7" x="1361.37" y="483.05" width="45" height="62"/><rect class="cls-11" x="1278.87" y="209.06" width="284.99" height="24"/></g><polygon class="cls-12" points="1782.77 566.06 1601.37 566.06 1601.37 226.06 1782.77 566.06"/><rect class="cls-8" x="920.26" y="85.05" width="139.28" height="471"/><rect class="cls-7" x="998.47" y="339.05" width="45" height="62"/><rect class="cls-7" x="934.72" y="339.05" width="45" height="62"/><rect class="cls-7" x="998.47" y="414.05" width="45" height="62"/><rect class="cls-7" x="934.72" y="414.05" width="45" height="62"/><rect class="cls-7" x="998.47" y="264.05" width="45" height="62"/><rect class="cls-7" x="934.72" y="264.05" width="45" height="62"/><rect class="cls-7" x="998.47" y="189.05" width="45" height="62"/><rect class="cls-7" x="934.72" y="189.05" width="45" height="62"/><rect class="cls-7" x="998.47" y="114.05" width="45" height="62"/><rect class="cls-7" x="934.72" y="114.05" width="45" height="62"/><rect class="cls-15" x="835.19" y="76.01" width="95.73" height="457.13"/><rect class="cls-15" x="889.89" y="394.65" width="29.35" height="75.98"/><rect class="cls-15" x="846.72" y="394.65" width="29.35" height="75.98"/><rect class="cls-15" x="889.89" y="302.73" width="29.35" height="75.98"/><rect class="cls-15" x="846.72" y="302.73" width="29.35" height="75.98"/><rect class="cls-15" x="889.89" y="210.82" width="29.35" height="75.98"/><rect class="cls-15" x="846.72" y="210.82" width="29.35" height="75.98"/><rect class="cls-15" x="889.89" y="118.9" width="29.35" height="75.98"/><rect class="cls-15" x="846.72" y="118.9" width="29.35" height="75.98"/><rect class="cls-13" x="765.98" width="165" height="556.05"/><rect class="cls-7" x="861.63" y="287.8" width="45" height="56.38"/><rect class="cls-7" x="795.44" y="287.8" width="45" height="56.38"/><rect class="cls-7" x="861.63" y="356" width="45" height="56.38"/><rect class="cls-7" x="795.44" y="356" width="45" height="56.38"/><rect class="cls-7" x="861.63" y="424.2" width="45" height="56.38"/><rect class="cls-7" x="795.44" y="424.2" width="45" height="56.38"/><rect class="cls-7" x="861.63" y="219.6" width="45" height="56.38"/><rect class="cls-7" x="795.44" y="219.6" width="45" height="56.38"/><rect class="cls-7" x="861.63" y="151.4" width="45" height="56.38"/><rect class="cls-7" x="795.44" y="151.4" width="45" height="56.38"/><rect class="cls-7" x="861.63" y="83.2" width="45" height="56.38"/><rect class="cls-7" x="795.44" y="83.2" width="45" height="56.38"/><polygon class="cls-12" points="1064.58 561.05 931.72 561.05 930.97 82.05 1064.58 561.05"/><path class="cls-16" d="M1320.64,540.14s-16.72-5.63-20.63-17.72.26-29.27,15.65-35.18,35,4.3,36,20.94-9.42,27.91-23.1,32Z"/><path class="cls-17" d="M1351.66,508.19c-.48-7.65-4.87-13.94-11-17.93h0c7.78,12.26,1.27,35.21-14.65,39.28-15.67,4-24.17-3.35-24.42-3.58,5.6,9.64,19,14.17,19,14.17h7.91C1342.24,536.11,1352.71,524.84,1351.66,508.19Z"/><path class="cls-18" d="M1322,578.38s1.19-41.73.85-43.17-4.59-8-4.59-8,5.44,6,5.95,3.5,1.53-21.18,1.53-21.18.34,18.92,1.7,18.71,7-7.61,7-7.61S1328,530.5,1328,534.2s.51,44.2.51,44.2Z"/><path class="cls-17" d="M1279.09,580.93s-5.44-5.44-2.61-12.07,11.3-5.58,11.3-5.58-2.47-7.5,6.92-10.56,14.48,6.82,14.48,6.82.49-4.94,4.8-4.59,2.68,6.35.92,7.63c0,0,4.87-4.52,7.91-.64s-4.59,4.59-4.59,4.59,6.78-1.09,9,3a4.21,4.21,0,0,1-1.25,5.82l-.3.18s5-2,6.36.64-6.85,4.45-6.85,4.45Z"/><path class="cls-16" d="M1279.79,570.92c2.55-3.77,11.83-4.39,11.83-4.39s-2.47-4.74.87-7.93,12.16-1.45,14.71,3c0,0,3-1.74,5.07-1.45s2,5.07,2,5.07.65-2.32,3.37-1.45-.26,3.88-.26,3.88,4.43-.11,6.46,2.65-1.16,6.81-1.16,6.81,6-2.27,6.86,2h0c1.69-.77,3.09-1.81,2.47-3-1.34-2.61-6.36-.64-6.36-.64a4.21,4.21,0,0,0,1.73-5.7l-.18-.3c-1.85-3.42-7-3.16-8.53-3,1.57-.22,6.74-1.22,4.15-4.54s-6.63-.43-7.66.42c1.66-1.61,2.94-7.08-1.17-7.41-4.31-.35-4.8,4.59-4.8,4.59s-5.08-9.89-14.48-6.82-6.92,10.56-6.92,10.56-8.47-1.06-11.3,5.58,2.61,12.07,2.61,12.07S1277.25,574.69,1279.79,570.92Z"/><path class="cls-17" d="M1340.11,578.5s-5.44-5.44-2.61-12.07,11.3-5.58,11.3-5.58-2.47-7.5,6.92-10.56,14.48,6.82,14.48,6.82.49-4.94,4.8-4.59,2.68,6.35.92,7.63c0,0,4.87-4.52,7.91-.64s-4.59,4.59-4.59,4.59,6.78-1.09,9,3a4.21,4.21,0,0,1-1.25,5.82l-.3.18s5-2,6.36.64-6.85,4.45-6.85,4.45Z"/><path class="cls-16" d="M1340.82,568.49c2.55-3.77,11.83-4.39,11.83-4.39s-2.47-4.74.87-7.93,12.16-1.45,14.71,3c0,0,3-1.74,5.07-1.45s2,5.07,2,5.07.65-2.32,3.37-1.45-.26,3.88-.26,3.88,4.43-.11,6.46,2.65-1.16,6.81-1.16,6.81,6-2.27,6.86,2h0c1.69-.77,3.09-1.81,2.47-3-1.34-2.61-6.36-.64-6.36-.64a4.21,4.21,0,0,0,1.73-5.7l-.18-.3c-1.85-3.42-7-3.16-8.53-3,1.57-.22,6.74-1.22,4.15-4.54s-6.63-.43-7.66.42c1.66-1.61,2.94-7.08-1.17-7.41-4.31-.35-4.8,4.59-4.8,4.59s-5.08-9.89-14.48-6.82-6.92,10.56-6.92,10.56-8.47-1.06-11.3,5.58,2.61,12.07,2.61,12.07S1338.26,572.26,1340.82,568.49Z"/><path class="cls-17" d="M1311.87,582.89s-5.44-5.44-2.61-12.07,11.3-5.58,11.3-5.58-2.47-7.5,6.92-10.56S1342,561.5,1342,561.5s.49-4.94,4.8-4.59,2.68,6.35.92,7.63c0,0,4.87-4.52,7.91-.64s-4.59,4.59-4.59,4.59,6.78-1.09,9,3a4.21,4.21,0,0,1-1.25,5.82l-.3.18s5-2,6.36.64-6.85,4.45-6.85,4.45Z"/><path class="cls-16" d="M1312.59,572.88c2.55-3.77,11.83-4.39,11.83-4.39s-2.47-4.74.87-7.93,12.16-1.45,14.71,3c0,0,3-1.74,5.07-1.45s2,5.07,2,5.07.65-2.32,3.37-1.45-.26,3.88-.26,3.88,4.43-.11,6.46,2.65-1.16,6.81-1.16,6.81,6-2.27,6.86,2h0c1.69-.77,3.09-1.81,2.47-3-1.34-2.61-6.36-.64-6.36-.64a4.21,4.21,0,0,0,1.73-5.7l-.18-.3c-1.85-3.42-7-3.16-8.53-3,1.57-.22,6.74-1.22,4.15-4.54s-6.63-.43-7.66.42c1.66-1.61,2.94-7.08-1.17-7.41-4.31-.35-4.8,4.59-4.8,4.59s-5.08-9.89-14.48-6.82-6.92,10.56-6.92,10.56-8.47-1.06-11.3,5.58,2.61,12.07,2.61,12.07S1310,576.65,1312.59,572.88Z"/><path class="cls-17" d="M1416.63,581.31s-5.44-5.44-2.61-12.07,11.3-5.58,11.3-5.58-2.47-7.5,6.92-10.56,14.48,6.82,14.48,6.82.49-4.94,4.8-4.59,2.68,6.35.92,7.63c0,0,4.87-4.52,7.91-.64s-4.59,4.59-4.59,4.59,6.78-1.09,9,3a4.21,4.21,0,0,1-1.25,5.82l-.3.18s5-2,6.36.64-6.85,4.45-6.85,4.45Z"/><path class="cls-16" d="M1417.36,571.3c2.55-3.77,11.83-4.39,11.83-4.39s-2.47-4.74.87-7.93,12.16-1.45,14.71,3c0,0,3-1.74,5.07-1.45s2,5.07,2,5.07.65-2.32,3.37-1.45-.27,3.9-.27,3.9,4.43-.11,6.46,2.65-1.16,6.81-1.16,6.81,6-2.27,6.86,2h0c1.69-.77,3.09-1.81,2.47-3-1.34-2.61-6.36-.64-6.36-.64a4.21,4.21,0,0,0,1.73-5.7l-.18-.3c-1.85-3.42-7-3.16-8.53-3,1.57-.22,6.74-1.22,4.15-4.54s-6.63-.43-7.66.42c1.66-1.61,2.94-7.08-1.17-7.41-4.31-.35-4.8,4.59-4.8,4.59s-5.08-9.89-14.48-6.82-6.92,10.56-6.92,10.56-8.47-1.06-11.3,5.58,2.61,12.07,2.61,12.07S1414.79,575.05,1417.36,571.3Z"/><path class="cls-17" d="M1398.68,585.05s-4.61-4.61-2.21-10.24,9.58-4.73,9.58-4.73-2.1-6.36,5.87-9,12.27,5.78,12.27,5.78.42-4.19,4.07-3.89,2.27,5.39.78,6.47c0,0,4.13-3.83,6.7-.54s-3.89,3.89-3.89,3.89,5.75-.92,7.6,2.5a3.57,3.57,0,0,1-1,4.94l-.27.16s4.25-1.68,5.39.54-5.81,3.77-5.81,3.77Z"/><path class="cls-16" d="M1399.28,576.56c2.16-3.2,10-3.73,10-3.73s-2.09-4,.74-6.72,10.31-1.23,12.47,2.58c0,0,2.51-1.47,4.3-1.23s1.66,4.3,1.66,4.3a2,2,0,0,1,2.57-1.35l.29.12c2.3.74-.22,3.29-.22,3.29s3.75-.09,5.47,2.24-1,5.78-1,5.78,5.12-1.92,5.81,1.68h0c1.43-.65,2.62-1.53,2.1-2.55-1.14-2.21-5.39-.54-5.39-.54a3.57,3.57,0,0,0,1.48-4.83l-.16-.27c-1.57-2.9-5.93-2.68-7.23-2.55,1.33-.19,5.72-1,3.52-3.85s-5.62-.36-6.49.36c1.41-1.37,2.49-6-1-6.28-3.65-.3-4.07,3.89-4.07,3.89s-4.31-8.38-12.27-5.78-5.87,9-5.87,9-7.18-.9-9.58,4.73,2.21,10.24,2.21,10.24S1397.12,579.76,1399.28,576.56Z"/><path class="cls-17" d="M1473.11,581.31s-5.44-5.44-2.61-12.07,11.3-5.58,11.3-5.58-2.47-7.5,6.92-10.56,14.48,6.82,14.48,6.82.49-4.94,4.8-4.59,2.68,6.35.92,7.63c0,0,4.87-4.52,7.91-.64s-4.59,4.59-4.59,4.59,6.78-1.09,9,3a4.21,4.21,0,0,1-1.25,5.82l-.3.18s5-2,6.36.64-6.85,4.45-6.85,4.45Z"/><path class="cls-16" d="M1473.82,571.3c2.55-3.77,11.83-4.39,11.83-4.39s-2.47-4.74.87-7.93,12.16-1.45,14.71,3c0,0,3-1.74,5.07-1.45s2,5.07,2,5.07.65-2.32,3.37-1.45-.26,3.88-.26,3.88,4.43-.11,6.46,2.65-1.16,6.81-1.16,6.81,6-2.27,6.86,2h0c1.69-.77,3.09-1.81,2.47-3-1.34-2.61-6.36-.64-6.36-.64a4.21,4.21,0,0,0,1.73-5.7l-.18-.3c-1.85-3.42-7-3.16-8.53-3,1.57-.22,6.74-1.22,4.15-4.54s-6.63-.43-7.66.42c1.66-1.61,2.94-7.08-1.17-7.41-4.31-.35-4.8,4.59-4.8,4.59s-5.08-9.89-14.48-6.82-6.92,10.56-6.92,10.56-8.47-1.06-11.3,5.58,2.61,12.07,2.61,12.07S1471.25,575.05,1473.82,571.3Z"/><path class="cls-17" d="M1438.61,584.28s-5.22-5.22-2.51-11.59,10.85-5.36,10.85-5.36-2.37-7.2,6.64-10.14,13.9,6.55,13.9,6.55.47-4.74,4.61-4.41,2.58,6.1.88,7.32c0,0,4.68-4.34,7.59-.61s-4.41,4.41-4.41,4.41,6.51-1,8.61,2.83a4,4,0,0,1-1.11,5.55l-.38.22s4.81-1.9,6.1.61-6.58,4.27-6.58,4.27Z"/><path class="cls-16" d="M1439.29,574.67c2.45-3.62,11.36-4.22,11.36-4.22s-2.37-4.55.83-7.61,11.68-1.39,14.12,2.92c0,0,2.85-1.67,4.87-1.39s1.89,4.87,1.89,4.87.63-2.23,3.24-1.39-.25,3.72-.25,3.72,4.25-.1,6.2,2.54-1.11,6.54-1.11,6.54,5.79-2.18,6.58,1.9h0c1.62-.74,3-1.73,2.37-2.89-1.29-2.51-6.1-.61-6.1-.61a4,4,0,0,0,1.49-5.77c-1.78-3.28-6.72-3-8.19-2.88,1.51-.21,6.47-1.18,4-4.36s-6.37-.41-7.35.4c1.59-1.55,2.82-6.79-1.12-7.12-4.14-.34-4.61,4.41-4.61,4.41s-4.88-9.49-13.9-6.55-6.64,10.14-6.64,10.14-8.13-1-10.85,5.36,2.51,11.59,2.51,11.59S1436.84,578.29,1439.29,574.67Z"/><path class="cls-17" d="M1363.85,584.85s-5.44-5.44-2.61-12.07,11.3-5.58,11.3-5.58-2.47-7.5,6.92-10.56,14.48,6.82,14.48,6.82.49-4.94,4.8-4.59,2.68,6.35.92,7.63c0,0,4.87-4.52,7.91-.64s-4.59,4.59-4.59,4.59,6.78-1.09,9,3a4.21,4.21,0,0,1-1.25,5.82l-.3.18s5-2,6.36.64-6.85,4.45-6.85,4.45Z"/><path class="cls-16" d="M1364.55,574.85c2.55-3.77,11.83-4.39,11.83-4.39s-2.47-4.74.87-7.93,12.16-1.45,14.71,3c0,0,3-1.74,5.07-1.45s2,5.07,2,5.07.65-2.32,3.37-1.45-.26,3.88-.26,3.88,4.43-.11,6.46,2.65-1.16,6.81-1.16,6.81,6-2.27,6.86,2h0c1.69-.77,3.09-1.81,2.47-3-1.34-2.61-6.36-.64-6.36-.64a4.21,4.21,0,0,0,1.73-5.7l-.18-.3c-1.85-3.42-7-3.16-8.53-3,1.57-.22,6.74-1.22,4.15-4.54s-6.63-.43-7.66.42c1.66-1.61,2.94-7.08-1.17-7.41-4.31-.35-4.8,4.59-4.8,4.59s-5.08-9.89-14.48-6.82-6.92,10.56-6.92,10.56-8.47-1.06-11.3,5.58,2.61,12.07,2.61,12.07S1362,578.61,1364.55,574.85Z"/><path class="cls-19" d="M1149.23,528.27s-8.8,6.32-14.65-2.19c0,0-9.75,2.43-11.94-6.56,0,0-11.7-1-11.21-10,0,0-14.13-6.81-4.87-19.69,0,0-9-8,1.22-17,0,0-7.8-11.67,5.85-15.07,0,0,1.22-13.86,14.87-10.7,0,0,3.65-11.67,16.82-7.29,0,0,11.82-8.77,18.52,2.92,0,0,12.92-1.7,15.35,9,0,0,12.43,1.7,11.21,14.1,0,0,9.54,8.75,3.45,19.21,0,0,6.08,17.41-7.1,19a12,12,0,0,1-7.38,11.11s-1.39,9.31-9.68,7.85c0,0-6.34,7-11,3.16Z"/><path class="cls-20" d="M1190.37,465.79c1.22-12.4-11.21-14.1-11.21-14.1,6.19,26.73-8.93,60.94-32.41,64s-35.34-6.12-35.34-6.12c-.49,9,11.21,10,11.21,10,2.19,9,11.94,6.56,11.94,6.56,5.85,8.51,14.65,2.19,14.65,2.19l9.47-2.19c4.63,3.89,11-3.16,11-3.16,8.28,1.46,9.68-7.85,9.68-7.85a12,12,0,0,0,7.38-11.11c13.18-1.55,7.1-19,7.1-19C1199.93,474.54,1190.37,465.79,1190.37,465.79Z"/><path class="cls-18" d="M1134.57,505.84s13.65,1.41,14.62,8.48-1.46,64.06-1.46,64.06h14.62s-6.34-64.07-4.14-68.71,9.26-7.27,9.26-7.27-8-.2-10.72,2.22-6.09,3-9.75,2.42S1139.68,505.44,1134.57,505.84Z"/><path class="cls-16" d="M1033.93,538.53s-16.78-5.65-20.71-17.79.26-29.38,15.71-35.31,35.09,4.31,36.14,21-9.46,28-23.19,32.07Z"/><path class="cls-17" d="M1065.08,506.46c-.48-7.68-4.89-14-11-18h0c7.81,12.31,1.27,35.35-14.71,39.43-15.73,4-24.26-3.36-24.52-3.59,5.62,9.68,19.1,14.23,19.1,14.23h8C1055.62,534.48,1066.12,523.17,1065.08,506.46Z"/><path class="cls-18" d="M1035.29,576.92s1.2-41.89.85-43.34-4.61-8-4.61-8,5.46,6,6,3.51,1.54-21.26,1.54-21.26.34,19,1.71,18.78,7-7.64,7-7.64-6.49,9.91-6.49,13.62.51,44.37.51,44.37Z"/><path class="cls-17" d="M1209.93,580.58s5.44-5.44,2.61-12.07-11.3-5.58-11.3-5.58,2.47-7.5-6.92-10.56-14.48,6.82-14.48,6.82-.49-4.94-4.8-4.59-2.68,6.35-.92,7.63c0,0-4.87-4.52-7.91-.64s4.59,4.59,4.59,4.59-6.78-1.09-9,3a4.21,4.21,0,0,0,1.25,5.82l.3.18s-5-2-6.36.64,6.85,4.45,6.85,4.45Z"/><path class="cls-16" d="M1209.24,570.58c-2.55-3.77-11.83-4.39-11.83-4.39s2.47-4.74-.87-7.93-12.16-1.45-14.71,3c0,0-3-1.74-5.07-1.45s-2,5.07-2,5.07-.65-2.32-3.37-1.45.26,3.88.26,3.88-4.43-.11-6.46,2.65,1.16,6.81,1.16,6.81-6-2.27-6.86,2h0c-1.69-.77-3.09-1.81-2.47-3,1.34-2.61,6.36-.64,6.36-.64a4.21,4.21,0,0,1-1.73-5.7l.18-.3c1.85-3.42,7-3.16,8.53-3-1.57-.22-6.74-1.22-4.15-4.54s6.63-.43,7.66.42c-1.66-1.61-2.94-7.08,1.17-7.41,4.31-.35,4.8,4.59,4.8,4.59s5.08-9.89,14.48-6.82,6.92,10.56,6.92,10.56,8.47-1.06,11.3,5.58-2.61,12.07-2.61,12.07S1211.78,574.34,1209.24,570.58Z"/><path class="cls-17" d="M1148.93,578.15s5.44-5.44,2.61-12.07-11.3-5.58-11.3-5.58,2.47-7.5-6.92-10.56-14.48,6.82-14.48,6.82-.49-4.94-4.8-4.59-2.68,6.35-.92,7.63c0,0-4.87-4.52-7.91-.64s4.59,4.59,4.59,4.59-6.78-1.09-9,3a4.21,4.21,0,0,0,1.25,5.82l.3.18s-5-2-6.36.64,6.85,4.45,6.85,4.45Z"/><path class="cls-16" d="M1148.22,568.14c-2.55-3.77-11.83-4.39-11.83-4.39s2.47-4.74-.87-7.93-12.16-1.45-14.71,3c0,0-3-1.74-5.07-1.45s-2,5.07-2,5.07-.65-2.32-3.37-1.45.26,3.88.26,3.88-4.43-.11-6.46,2.65,1.16,6.81,1.16,6.81-6-2.27-6.86,2h0c-1.69-.77-3.09-1.81-2.47-3,1.34-2.61,6.36-.64,6.36-.64a4.21,4.21,0,0,1-1.73-5.7l.18-.3c1.85-3.42,7-3.16,8.53-3-1.57-.22-6.74-1.22-4.15-4.54s6.63-.43,7.66.42c-1.66-1.61-2.94-7.08,1.17-7.41,4.31-.35,4.8,4.59,4.8,4.59s5.08-9.89,14.48-6.82,6.92,10.56,6.92,10.56,8.47-1.06,11.3,5.58-2.58,12.08-2.58,12.08S1150.76,571.91,1148.22,568.14Z"/><path class="cls-17" d="M1177.15,582.55s5.44-5.44,2.61-12.07-11.3-5.58-11.3-5.58,2.47-7.5-6.92-10.56-14.48,6.82-14.48,6.82-.49-4.94-4.8-4.59-2.68,6.35-.92,7.63c0,0-4.87-4.52-7.91-.64s4.59,4.59,4.59,4.59-6.78-1.09-9,3a4.21,4.21,0,0,0,1.25,5.82l.3.18s-5-2-6.36.64,6.85,4.45,6.85,4.45Z"/><path class="cls-16" d="M1176.45,572.54c-2.55-3.77-11.83-4.39-11.83-4.39s2.47-4.74-.87-7.93-12.16-1.45-14.71,3c0,0-3-1.74-5.07-1.45s-2,5.07-2,5.07-.65-2.32-3.37-1.45.26,3.88.26,3.88-4.43-.11-6.46,2.65,1.16,6.81,1.16,6.81-6-2.27-6.86,2h0c-1.69-.77-3.09-1.81-2.47-3,1.34-2.61,6.36-.64,6.36-.64a4.21,4.21,0,0,1-1.73-5.7l.18-.3c1.85-3.42,7-3.16,8.53-3-1.57-.22-6.74-1.22-4.15-4.54s6.63-.43,7.66.42c-1.66-1.61-2.94-7.08,1.17-7.41,4.31-.35,4.8,4.59,4.8,4.59s5.08-9.89,14.48-6.82,6.92,10.56,6.92,10.56,8.47-1.06,11.3,5.58-2.61,12.07-2.61,12.07S1179,576.31,1176.45,572.54Z"/><path class="cls-17" d="M1072.39,581s5.44-5.44,2.61-12.07-11.3-5.58-11.3-5.58,2.47-7.5-6.92-10.56-14.48,6.82-14.48,6.82-.49-4.94-4.8-4.59-2.68,6.35-.92,7.63c0,0-4.87-4.52-7.91-.64s4.59,4.59,4.59,4.59-6.78-1.09-9,3a4.21,4.21,0,0,0,1.25,5.82l.3.18s-5-2-6.36.64,6.85,4.45,6.85,4.45Z"/><path class="cls-16" d="M1071.68,571c-2.55-3.77-11.83-4.39-11.83-4.39s2.47-4.74-.87-7.93-12.16-1.45-14.71,3c0,0-3-1.74-5.07-1.45s-2,5.07-2,5.07-.65-2.32-3.37-1.45.26,3.88.26,3.88-4.43-.11-6.46,2.65,1.16,6.81,1.16,6.81-6-2.27-6.86,2h0c-1.69-.77-3.09-1.81-2.47-3,1.34-2.61,6.36-.64,6.36-.64a4.21,4.21,0,0,1-1.73-5.7l.18-.3c1.85-3.42,7-3.16,8.53-3-1.57-.22-6.74-1.22-4.15-4.54s6.63-.43,7.66.42c-1.66-1.61-2.94-7.08,1.17-7.41,4.31-.35,4.8,4.59,4.8,4.59s5.08-9.89,14.48-6.82,6.92,10.56,6.92,10.56,8.47-1.06,11.3,5.58-2.61,12.07-2.61,12.07S1074.24,574.73,1071.68,571Z"/><path class="cls-17" d="M1090.36,584.71s4.61-4.61,2.21-10.24-9.58-4.73-9.58-4.73,2.1-6.36-5.87-9-12.27,5.78-12.27,5.78-.42-4.19-4.07-3.89-2.27,5.39-.78,6.47c0,0-4.13-3.83-6.7-.54s3.89,3.89,3.89,3.89-5.75-.92-7.6,2.5a3.57,3.57,0,0,0,1.07,4.93l.28.17s-4.25-1.68-5.39.54,5.81,3.77,5.81,3.77Z"/><path class="cls-16" d="M1089.75,576.22c-2.16-3.2-10-3.73-10-3.73s2.09-4-.74-6.72-10.31-1.23-12.47,2.58c0,0-2.51-1.47-4.3-1.23s-1.66,4.3-1.66,4.3a2,2,0,0,0-2.57-1.35l-.29.12c-2.3.74.22,3.29.22,3.29s-3.75-.09-5.47,2.24,1,5.78,1,5.78-5.12-1.92-5.81,1.68h0c-1.43-.65-2.62-1.53-2.1-2.55,1.14-2.21,5.39-.54,5.39-.54a3.57,3.57,0,0,1-1.48-4.83l.16-.27c1.57-2.9,5.93-2.68,7.23-2.55-1.33-.19-5.72-1-3.52-3.85s5.62-.36,6.49.36c-1.41-1.37-2.49-6,1-6.28,3.65-.3,4.07,3.89,4.07,3.89s4.31-8.38,12.27-5.78,5.87,9,5.87,9,7.18-.9,9.58,4.73-2.21,10.24-2.21,10.24S1091.93,579.41,1089.75,576.22Z"/><path class="cls-17" d="M1011.38,577.92s5.44-5.44,2.61-12.07-11.3-5.58-11.3-5.58,2.47-7.5-6.92-10.56-14.48,6.82-14.48,6.82-.49-4.94-4.8-4.59-2.68,6.35-.92,7.63c0,0-4.87-4.52-7.91-.64s4.59,4.59,4.59,4.59-6.78-1.09-9,3a4.21,4.21,0,0,0,1.25,5.82l.3.18s-5-2-6.36.64,6.85,4.45,6.85,4.45Z"/><path class="cls-16" d="M1010.66,567.91c-2.55-3.77-11.83-4.39-11.83-4.39s2.47-4.74-.87-7.93-12.16-1.45-14.71,3c0,0-3-1.74-5.07-1.45s-2,5.07-2,5.07-.65-2.32-3.37-1.45.26,3.88.26,3.88-4.43-.11-6.46,2.65,1.16,6.81,1.16,6.81-6-2.27-6.86,2h0c-1.69-.77-3.09-1.81-2.47-3,1.34-2.61,6.36-.64,6.36-.64a4.21,4.21,0,0,1-1.73-5.7l.18-.3c1.85-3.42,7-3.16,8.53-3-1.57-.22-6.74-1.22-4.15-4.54s6.63-.43,7.66.42c-1.66-1.61-2.94-7.08,1.17-7.41,4.31-.35,4.8,4.59,4.8,4.59s5.08-9.89,14.48-6.82,6.92,10.56,6.92,10.56,8.47-1.06,11.3,5.58-2.61,12.07-2.61,12.07S1013.22,571.68,1010.66,567.91Z"/><path class="cls-17" d="M1050.42,583.94s5.22-5.22,2.51-11.59-10.85-5.36-10.85-5.36,2.37-7.2-6.64-10.14-13.9,6.55-13.9,6.55-.47-4.74-4.61-4.41-2.58,6.1-.88,7.32c0,0-4.68-4.34-7.59-.61s4.41,4.41,4.41,4.41-6.51-1-8.61,2.83a4,4,0,0,0,1.11,5.55l.38.22s-4.81-1.9-6.1.61,6.58,4.27,6.58,4.27Z"/><path class="cls-16" d="M1049.75,574.33c-2.45-3.62-11.36-4.22-11.36-4.22s2.37-4.55-.83-7.61-11.68-1.39-14.12,2.92c0,0-2.85-1.67-4.87-1.39s-1.89,4.87-1.89,4.87-.63-2.23-3.24-1.39.25,3.72.25,3.72-4.25-.1-6.2,2.54,1.11,6.54,1.11,6.54-5.79-2.18-6.58,1.9h0c-1.62-.74-3-1.73-2.37-2.89,1.29-2.51,6.1-.61,6.1-.61a4,4,0,0,1-1.49-5.77c1.78-3.28,6.72-3,8.19-2.88-1.51-.21-6.47-1.18-4-4.36s6.37-.41,7.35.4c-1.59-1.55-2.82-6.79,1.12-7.12,4.14-.34,4.61,4.41,4.61,4.41s4.88-9.49,13.9-6.55,6.64,10.14,6.64,10.14,8.13-1,10.85,5.36-2.51,11.59-2.51,11.59S1052.2,577.94,1049.75,574.33Z"/><path class="cls-17" d="M1125.2,584.51s5.44-5.44,2.61-12.07-11.3-5.58-11.3-5.58,2.47-7.5-6.92-10.56-14.48,6.82-14.48,6.82-.49-4.94-4.8-4.59-2.68,6.35-.92,7.63c0,0-4.87-4.52-7.91-.64s4.59,4.59,4.59,4.59-6.78-1.09-9,3a4.21,4.21,0,0,0,1.25,5.82l.3.18s-5-2-6.36.64,6.85,4.45,6.85,4.45Z"/><path class="cls-16" d="M1124.49,574.5c-2.55-3.77-11.83-4.39-11.83-4.39s2.47-4.74-.87-7.93-12.16-1.45-14.71,3c0,0-3-1.74-5.07-1.45s-2,5.07-2,5.07-.65-2.32-3.37-1.45.26,3.88.26,3.88-4.43-.11-6.46,2.65,1.16,6.81,1.16,6.81-6-2.27-6.86,2h0c-1.69-.77-3.09-1.81-2.47-3,1.34-2.61,6.36-.64,6.36-.64a4.21,4.21,0,0,1-1.73-5.7l.18-.3c1.85-3.42,7-3.16,8.53-3-1.57-.22-6.74-1.22-4.15-4.54s6.63-.43,7.66.42c-1.66-1.61-2.94-7.08,1.17-7.41,4.31-.35,4.8,4.59,4.8,4.59s5.08-9.89,14.48-6.82,6.92,10.56,6.92,10.56,8.47-1.06,11.3,5.58-2.61,12.07-2.61,12.07S1127,578.27,1124.49,574.5Z"/><path class="cls-19" d="M802.2,535.24s-7.47,5.36-12.42-1.85c0,0-8.27,2.06-10.13-5.57,0,0-9.92-.82-9.51-8.45,0,0-12-5.77-4.13-16.7,0,0-7.65-6.8,1-14.43,0,0-6.61-9.9,5-12.78,0,0,1-11.75,12.61-9.07,0,0,3.1-9.9,14.26-6.19,0,0,10-7.44,15.71,2.47,0,0,11-1.44,13,7.63,0,0,10.54,1.44,9.51,12,0,0,8.09,7.42,2.92,16.29,0,0,5.15,14.77-6,16.08a10.13,10.13,0,0,1-6.28,9.38s-1.18,7.89-8.21,6.66c0,0-5.37,6-9.3,2.68Z"/><path class="cls-20" d="M837.09,482.26c1-10.51-9.51-12-9.51-12,5.25,22.67-7.57,51.68-27.49,54.26s-30-5.19-30-5.19c-.41,7.63,9.51,8.45,9.51,8.45,1.86,7.63,10.13,5.57,10.13,5.57,5,7.22,12.42,1.85,12.42,1.85l8-1.85c3.93,3.3,9.3-2.68,9.3-2.68,7,1.24,8.21-6.66,8.21-6.66a10.13,10.13,0,0,0,6.26-9.43c11.18-1.32,6-16.08,6-16.08C845.18,489.68,837.09,482.26,837.09,482.26Z"/><path class="cls-18" d="M789.77,516.22s11.57,1.2,12.4,7.19-1.23,54.33-1.23,54.33h12.4s-5.37-54.33-3.51-58.27,7.85-6.16,7.85-6.16-6.82-.17-9.09,1.88a9.49,9.49,0,0,1-8.27,2.06C797.21,516.74,794.1,515.88,789.77,516.22Z"/><path class="cls-16" d="M828.66,535.23s-15.77-5.31-19.47-16.72.25-27.61,14.77-33.19,33,4,34,19.76-8.89,26.33-21.79,30.14Z"/><path class="cls-17" d="M857.93,505.05c-.45-7.22-4.6-13.15-10.35-16.91h0c7.34,11.57,1.19,33.22-13.82,37.06-14.83,3.85-22.83-3.15-23.06-3.34,5.29,9.1,18,13.37,18,13.37h7.47C849,531.43,858.93,520.8,857.93,505.05Z"/><path class="cls-18" d="M829.93,571.31s1.12-39.37.8-40.73S826.4,523,826.4,523s5.13,5.62,5.61,3.3,1.44-20,1.44-20,.32,17.84,1.6,17.65,6.58-7.18,6.58-7.18-6.09,9.31-6.09,12.8.48,41.7.48,41.7Z"/><path class="cls-17" d="M930,580.58s5.44-5.44,2.61-12.07-11.3-5.58-11.3-5.58,2.47-7.5-6.92-10.56-14.48,6.82-14.48,6.82-.49-4.94-4.8-4.59-2.68,6.35-.92,7.63c0,0-4.87-4.52-7.91-.64s4.59,4.59,4.59,4.59-6.78-1.09-9,3a4.21,4.21,0,0,0,1.25,5.82l.3.18s-5-2-6.36.64,6.85,4.45,6.85,4.45Z"/><path class="cls-16" d="M929.32,570.58c-2.55-3.77-11.83-4.39-11.83-4.39s2.47-4.74-.87-7.93-12.16-1.45-14.71,3c0,0-3-1.74-5.07-1.45s-2,5.07-2,5.07-.65-2.32-3.37-1.45.26,3.88.26,3.88-4.43-.11-6.46,2.65,1.16,6.81,1.16,6.81-6-2.27-6.86,2h0c-1.69-.77-3.09-1.81-2.47-3,1.34-2.61,6.36-.64,6.36-.64a4.21,4.21,0,0,1-1.73-5.7l.18-.3c1.85-3.42,7-3.16,8.53-3-1.57-.22-6.74-1.22-4.15-4.54s6.63-.43,7.66.42c-1.66-1.61-2.94-7.08,1.17-7.41,4.31-.35,4.8,4.59,4.8,4.59s5.08-9.89,14.48-6.82,6.92,10.56,6.92,10.56,8.47-1.06,11.3,5.58S930,580.58,930,580.58,931.86,574.34,929.32,570.58Z"/><path class="cls-17" d="M869,578.15s5.44-5.44,2.61-12.07-11.3-5.58-11.3-5.58,2.47-7.5-6.92-10.56-14.46,6.82-14.46,6.82-.49-4.94-4.8-4.59-2.68,6.35-.92,7.63c0,0-4.87-4.52-7.91-.64s4.63,4.59,4.63,4.59-6.78-1.09-9,3a4.21,4.21,0,0,0,1.25,5.82l.3.18s-5-2-6.36.64,6.85,4.45,6.85,4.45Z"/><path class="cls-16" d="M868.29,568.14c-2.55-3.77-11.83-4.39-11.83-4.39s2.47-4.74-.87-7.93-12.16-1.45-14.71,3c0,0-3-1.74-5.07-1.45s-2,5.07-2,5.07-.65-2.32-3.37-1.45.26,3.88.26,3.88-4.43-.11-6.46,2.65,1.16,6.81,1.16,6.81-6-2.27-6.86,2h0c-1.69-.77-3.09-1.81-2.47-3,1.34-2.61,6.36-.64,6.36-.64a4.21,4.21,0,0,1-1.73-5.7l.18-.3c1.85-3.42,7-3.16,8.53-3-1.57-.22-6.74-1.22-4.15-4.54s6.63-.43,7.66.42c-1.66-1.61-2.94-7.08,1.17-7.41,4.31-.35,4.8,4.59,4.8,4.59s5.08-9.89,14.48-6.82,6.92,10.56,6.92,10.56,8.47-1.06,11.3,5.58S869,578.14,869,578.14,870.84,571.91,868.29,568.14Z"/><path class="cls-17" d="M897.23,582.55s5.44-5.44,2.61-12.07-11.3-5.58-11.3-5.58,2.47-7.5-6.92-10.56-14.48,6.82-14.48,6.82-.49-4.94-4.8-4.59-2.68,6.35-.92,7.63c0,0-4.87-4.52-7.91-.64s4.59,4.59,4.59,4.59-6.78-1.09-9,3a4.21,4.21,0,0,0,1.25,5.82l.3.18s-5-2-6.36.64,6.85,4.45,6.85,4.45Z"/><path class="cls-16" d="M896.53,572.54c-2.55-3.77-11.83-4.39-11.83-4.39s2.47-4.74-.87-7.93-12.16-1.45-14.71,3c0,0-3-1.74-5.07-1.45s-2,5.07-2,5.07-.65-2.32-3.37-1.45.26,3.88.26,3.88-4.43-.11-6.46,2.65,1.16,6.81,1.16,6.81-6-2.27-6.86,2h0c-1.69-.77-3.09-1.81-2.47-3,1.34-2.61,6.36-.64,6.36-.64a4.21,4.21,0,0,1-1.73-5.7l.18-.3c1.85-3.42,7-3.16,8.53-3-1.57-.22-6.74-1.22-4.15-4.54s6.63-.43,7.66.42c-1.66-1.61-2.94-7.08,1.17-7.41,4.31-.35,4.8,4.59,4.8,4.59s5.08-9.89,14.48-6.82,6.92,10.56,6.92,10.56,8.47-1.06,11.3,5.58-2.61,12.07-2.61,12.07S899.08,576.31,896.53,572.54Z"/><path class="cls-17" d="M792.47,581s5.44-5.44,2.61-12.07-11.3-5.58-11.3-5.58,2.47-7.5-6.92-10.56-14.48,6.82-14.48,6.82-.49-4.94-4.8-4.59-2.68,6.35-.92,7.63c0,0-4.87-4.52-7.91-.64s4.59,4.59,4.59,4.59-6.78-1.09-9,3a4.21,4.21,0,0,0,1.25,5.82l.3.18s-5-2-6.36.64,6.85,4.45,6.85,4.45Z"/><path class="cls-16" d="M791.76,571c-2.55-3.77-11.83-4.39-11.83-4.39s2.47-4.74-.87-7.93-12.16-1.45-14.71,3c0,0-3-1.74-5.07-1.45s-2,5.07-2,5.07-.65-2.32-3.37-1.45.26,3.88.26,3.88-4.43-.11-6.46,2.65,1.16,6.81,1.16,6.81-6-2.27-6.86,2h0c-1.69-.77-3.09-1.81-2.47-3,1.34-2.61,6.36-.64,6.36-.64a4.21,4.21,0,0,1-1.73-5.7l.18-.3c1.85-3.42,7-3.16,8.53-3-1.57-.22-6.74-1.22-4.15-4.54s6.63-.43,7.66.42c-1.66-1.61-2.94-7.08,1.17-7.41,4.31-.35,4.8,4.59,4.8,4.59s5.08-9.89,14.48-6.82,6.92,10.56,6.92,10.56,8.47-1.06,11.3,5.58S792.44,581,792.44,581,794.32,574.73,791.76,571Z"/><path class="cls-17" d="M810.42,584.71s4.61-4.61,2.21-10.24-9.58-4.73-9.58-4.73,2.1-6.36-5.87-9-12.25,5.83-12.25,5.83-.42-4.19-4.07-3.89-2.27,5.39-.78,6.47c0,0-4.13-3.83-6.7-.54s3.89,3.89,3.89,3.89-5.75-.92-7.6,2.5a3.57,3.57,0,0,0,1.07,4.93l.19.12s-4.25-1.68-5.39.54,5.81,3.77,5.81,3.77Z"/><path class="cls-16" d="M809.83,576.22c-2.16-3.2-10-3.73-10-3.73s2.09-4-.74-6.72-10.31-1.23-12.47,2.58c0,0-2.51-1.47-4.3-1.23s-1.66,4.3-1.66,4.3a2.05,2.05,0,0,0-2.57-1.35l-.29.12c-2.3.74.22,3.29.22,3.29s-3.75-.09-5.47,2.24,1,5.78,1,5.78-5.12-1.92-5.81,1.68h0c-1.43-.65-2.62-1.53-2.1-2.55,1.14-2.21,5.39-.54,5.39-.54a3.57,3.57,0,0,1-1.48-4.83l.16-.27c1.57-2.9,5.93-2.68,7.23-2.55-1.33-.19-5.72-1-3.52-3.85s5.62-.36,6.49.36c-1.41-1.37-2.49-6,1-6.28,3.65-.3,4.07,3.89,4.07,3.89s4.31-8.38,12.27-5.78,5.87,9,5.87,9,7.18-.9,9.58,4.73-2.21,10.24-2.21,10.24S812,579.41,809.83,576.22Z"/><path class="cls-17" d="M745.15,581.48s5.44-5.44,2.61-12.07-11.3-5.58-11.3-5.58,2.47-7.5-6.92-10.56-14.47,6.78-14.47,6.78-.49-4.94-4.8-4.59-2.68,6.35-.92,7.63c0,0-4.87-4.52-7.91-.64s4.6,4.6,4.6,4.6-6.78-1.09-9,3a4.21,4.21,0,0,0,1.25,5.82l.3.18s-5-2-6.36.64,6.85,4.45,6.85,4.45Z"/><path class="cls-16" d="M744.43,571.47c-2.55-3.77-11.83-4.39-11.83-4.39s2.47-4.74-.87-7.93-12.16-1.45-14.71,3c0,0-3-1.74-5.07-1.45s-2,5.07-2,5.07-.65-2.32-3.37-1.45.26,3.88.26,3.88-4.43-.11-6.46,2.65,1.16,6.81,1.16,6.81-6-2.27-6.86,2h0c-1.69-.77-3.09-1.81-2.47-3,1.34-2.61,6.36-.64,6.36-.64a4.21,4.21,0,0,1-1.73-5.7l.18-.3c1.85-3.42,7-3.16,8.53-3-1.57-.22-6.74-1.22-4.15-4.54s6.63-.43,7.66.42c-1.66-1.61-2.94-7.08,1.17-7.41,4.31-.35,4.8,4.59,4.8,4.59s5.08-9.89,14.48-6.82,6.92,10.56,6.92,10.56,8.47-1.06,11.3,5.58-2.61,12.07-2.61,12.07S747,575.24,744.43,571.47Z"/><path class="cls-17" d="M770.51,583.94s5.22-5.22,2.51-11.59S762.17,567,762.17,567s2.37-7.2-6.64-10.14-13.9,6.55-13.9,6.55-.47-4.74-4.61-4.41-2.58,6.1-.88,7.32c0,0-4.68-4.34-7.59-.61s4.41,4.41,4.41,4.41-6.51-1-8.61,2.83a4,4,0,0,0,1.11,5.55l.38.22s-4.81-1.9-6.1.61,6.58,4.27,6.58,4.27Z"/><path class="cls-16" d="M769.82,574.33c-2.45-3.62-11.36-4.22-11.36-4.22s2.37-4.55-.83-7.61-11.68-1.39-14.12,2.92c0,0-2.85-1.67-4.87-1.39s-1.89,4.87-1.89,4.87-.63-2.23-3.24-1.39.25,3.72.25,3.72-4.25-.1-6.2,2.54,1.11,6.54,1.11,6.54-5.79-2.18-6.58,1.9h0c-1.62-.74-3-1.73-2.37-2.89,1.29-2.51,6.1-.61,6.1-.61a4,4,0,0,1-1.49-5.77c1.78-3.28,6.72-3,8.19-2.88-1.51-.21-6.47-1.18-4-4.36s6.37-.41,7.35.4c-1.59-1.55-2.82-6.79,1.12-7.12,4.14-.34,4.61,4.41,4.61,4.41s4.88-9.49,13.9-6.55S762.13,567,762.13,567s8.13-1,10.85,5.36-2.51,11.59-2.51,11.59S772.28,577.94,769.82,574.33Z"/><path class="cls-17" d="M845.27,584.51s5.44-5.44,2.61-12.07-11.3-5.58-11.3-5.58,2.47-7.5-6.92-10.56-14.48,6.82-14.48,6.82-.49-4.94-4.8-4.59-2.68,6.35-.92,7.63c0,0-4.87-4.52-7.91-.64s4.59,4.59,4.59,4.59-6.78-1.09-9,3a4.21,4.21,0,0,0,1.25,5.82l.3.18s-5-2-6.36.64,6.85,4.45,6.85,4.45Z"/><path class="cls-16" d="M844.55,574.5c-2.55-3.77-11.83-4.39-11.83-4.39s2.47-4.74-.87-7.93-12.16-1.45-14.71,3c0,0-3-1.74-5.07-1.45s-2,5.07-2,5.07-.65-2.32-3.37-1.45.26,3.88.26,3.88-4.43-.11-6.46,2.65,1.16,6.81,1.16,6.81-6-2.27-6.86,2h0c-1.69-.77-3.09-1.81-2.47-3,1.34-2.61,6.36-.64,6.36-.64a4.21,4.21,0,0,1-1.73-5.7l.18-.3c1.85-3.42,7-3.16,8.53-3-1.57-.22-6.74-1.22-4.15-4.54s6.63-.43,7.66.42c-1.66-1.61-2.94-7.08,1.17-7.41,4.31-.35,4.8,4.59,4.8,4.59s5.08-9.89,14.48-6.82,6.92,10.56,6.92,10.56,8.47-1.06,11.3,5.58-2.61,12.07-2.61,12.07S847.11,578.27,844.55,574.5Z"/><path class="cls-19" d="M567.46,517.25s-10.07,7.24-16.76-2.5c0,0-11.15,2.78-13.66-7.51,0,0-13.39-1.11-12.83-11.41,0,0-16.17-7.79-5.57-22.53,0,0-10.32-9.18,1.39-19.47,0,0-8.92-13.35,6.69-17.25,0,0,1.4-15.86,17-12.24,0,0,4.18-13.35,19.24-8.35,0,0,13.53-10,21.19,3.34,0,0,14.78-2,17.57,10.29,0,0,14.22,2,12.83,16.14,0,0,10.92,10,4,22,0,0,7,19.92-8.13,21.7a13.67,13.67,0,0,1-8.43,12.69s-1.6,10.65-11.07,9c0,0-7.25,8.07-12.55,3.62Z"/><path class="cls-20" d="M614.54,445.76c1.4-14.19-12.83-16.14-12.83-16.14,7.08,30.59-10.21,69.73-37.09,73.21s-40.44-7-40.44-7c-.56,10.29,12.83,11.41,12.83,11.41,2.51,10.29,13.66,7.51,13.66,7.51,6.69,9.74,16.76,2.5,16.76,2.5l10.84-2.5c5.3,4.45,12.55-3.62,12.55-3.62,9.48,1.67,11.07-9,11.07-9a13.67,13.67,0,0,0,8.44-12.72c15.08-1.78,8.13-21.7,8.13-21.7C625.47,455.78,614.54,445.76,614.54,445.76Z"/><path class="cls-18" d="M550.7,491.59s15.61,1.62,16.73,9.7-1.67,73.3-1.67,73.3h16.73s-7.25-73.3-4.74-78.62,10.6-8.32,10.6-8.32-9.2-.23-12.27,2.54-7,3.46-11.15,2.77S556.55,491.13,550.7,491.59Z"/><path class="cls-19" d="M345.08,536.81s-7.19,5.17-12-1.79c0,0-8,2-9.76-5.36,0,0-9.56-.79-9.16-8.14,0,0-11.54-5.56-4-16.09,0,0-7.37-6.55,1-13.9,0,0-6.37-9.53,4.78-12.31,0,0,1-11.32,12.14-8.74,0,0,3-9.53,13.74-6,0,0,9.66-7.16,15.13,2.38,0,0,10.55-1.39,12.54,7.35,0,0,10.15,1.39,9.16,11.52,0,0,7.79,7.15,2.82,15.69,0,0,5,14.22-5.8,15.49a9.76,9.76,0,0,1-6,9.08s-1.14,7.6-7.91,6.41c0,0-5.18,5.76-9,2.58Z"/><path class="cls-20" d="M378.7,485.77c1-10.13-9.16-11.52-9.16-11.52,5,21.84-7.29,49.78-26.48,52.27s-28.87-5-28.87-5c-.4,7.35,9.16,8.14,9.16,8.14,1.79,7.35,9.76,5.36,9.76,5.36,4.78,7,12,1.79,12,1.79l7.74-1.79c3.78,3.18,9-2.58,9-2.58,6.77,1.19,7.91-6.41,7.91-6.41a9.76,9.76,0,0,0,6-9.08c10.77-1.27,5.8-15.49,5.8-15.49C386.48,492.92,378.7,485.77,378.7,485.77Z"/><path class="cls-18" d="M333.11,518.48s11.15,1.15,11.94,6.93-1.19,52.33-1.19,52.33H355.8s-5.18-52.33-3.38-56.12,7.56-5.94,7.56-5.94-6.57-.16-8.76,1.81a9.14,9.14,0,0,1-8,2C340.27,519,337.29,518.16,333.11,518.48Z"/><path class="cls-16" d="M319.3,546.37s-15.8-5.32-19.5-16.74.25-27.65,14.79-33.24,33,4.06,34,19.79-8.9,26.38-21.83,30.19Z"/><path class="cls-17" d="M348.61,516.19c-.45-7.23-4.6-13.17-10.37-16.94h0c7.35,11.59,1.2,33.27-13.84,37.12-14.81,3.79-22.83-3.16-23.08-3.38,5.29,9.11,18,13.39,18,13.39h7.48C339.7,542.56,349.6,531.92,348.61,516.19Z"/><path class="cls-18" d="M320.58,582.51s1.12-39.43.8-40.79-4.34-7.58-4.34-7.58,5.14,5.63,5.62,3.3,1.45-20,1.45-20,.32,17.87,1.61,17.68,6.59-7.19,6.59-7.19-6.1,9.33-6.1,12.82.48,41.76.48,41.76Z"/><path class="cls-17" d="M629.36,579.86s5.44-5.44,2.61-12.07-11.3-5.58-11.3-5.58,2.47-7.5-6.92-10.56-14.48,6.82-14.48,6.82-.49-4.94-4.8-4.59-2.68,6.35-.92,7.63c0,0-4.87-4.52-7.91-.64s4.59,4.59,4.59,4.59-6.78-1.09-9,3a4.21,4.21,0,0,0,1.25,5.82l.3.18s-5-2-6.36.64,6.85,4.45,6.85,4.45Z"/><path class="cls-16" d="M628.65,569.85c-2.55-3.77-11.83-4.39-11.83-4.39s2.47-4.74-.87-7.93-12.16-1.45-14.71,3c0,0-3-1.74-5.07-1.45s-2,5.07-2,5.07-.65-2.32-3.37-1.45.26,3.88.26,3.88-4.43-.11-6.46,2.65,1.16,6.81,1.16,6.81-6-2.27-6.86,2h0c-1.69-.77-3.09-1.81-2.47-3,1.34-2.61,6.36-.64,6.36-.64a4.21,4.21,0,0,1-1.73-5.7l.18-.3c1.85-3.42,7-3.16,8.53-3-1.57-.22-6.74-1.22-4.15-4.54s6.63-.43,7.66.42c-1.66-1.61-2.94-7.08,1.17-7.41,4.31-.35,4.8,4.59,4.8,4.59s5.08-9.89,14.48-6.82,6.92,10.56,6.92,10.56,8.47-1.06,11.3,5.58-2.61,12.07-2.61,12.07S631.21,573.62,628.65,569.85Z"/><path class="cls-17" d="M568.34,577.43s5.44-5.44,2.61-12.07-11.3-5.58-11.3-5.58,2.47-7.5-6.92-10.56-14.47,6.83-14.47,6.83-.49-4.94-4.8-4.59-2.68,6.35-.92,7.63c0,0-4.87-4.52-7.91-.64s4.6,4.6,4.6,4.6-6.78-1.09-9,3a4.21,4.21,0,0,0,1.25,5.82l.3.18s-5-2-6.36.64,6.85,4.45,6.85,4.45Z"/><path class="cls-16" d="M567.64,567.42c-2.55-3.77-11.83-4.39-11.83-4.39s2.47-4.74-.87-7.93-12.16-1.45-14.71,3c0,0-3-1.74-5.07-1.45s-2,5.07-2,5.07-.65-2.32-3.37-1.45.26,3.88.26,3.88-4.43-.11-6.46,2.65,1.16,6.81,1.16,6.81-6-2.27-6.86,2h0c-1.69-.77-3.09-1.81-2.47-3,1.34-2.61,6.36-.64,6.36-.64a4.21,4.21,0,0,1-1.73-5.7l.18-.3c1.85-3.42,7-3.16,8.53-3-1.57-.22-6.74-1.22-4.15-4.54s6.63-.43,7.66.42c-1.66-1.61-2.94-7.08,1.17-7.41,4.31-.35,4.8,4.59,4.8,4.59s5.08-9.89,14.48-6.82,6.92,10.56,6.92,10.56,8.47-1.06,11.3,5.58-2.61,12.07-2.61,12.07S570.2,571.18,567.64,567.42Z"/><path class="cls-17" d="M596.58,581.82s5.44-5.44,2.61-12.07-11.3-5.58-11.3-5.58,2.47-7.5-6.92-10.56-14.48,6.82-14.48,6.82-.49-4.94-4.8-4.59-2.68,6.35-.92,7.63c0,0-4.87-4.52-7.91-.64s4.59,4.59,4.59,4.59-6.78-1.09-9,3a4.21,4.21,0,0,0,1.25,5.82l.3.18s-5-2-6.36.64,6.85,4.45,6.85,4.45Z"/><path class="cls-16" d="M595.86,571.81C593.32,568,584,567.42,584,567.42s2.47-4.74-.87-7.93-12.16-1.45-14.71,3c0,0-3-1.74-5.07-1.45s-2,5.07-2,5.07-.65-2.32-3.37-1.45.26,3.88.26,3.88-4.43-.11-6.46,2.65S553,578,553,578s-6-2.27-6.86,2h0c-1.69-.77-3.09-1.81-2.47-3,1.34-2.61,6.36-.64,6.36-.64a4.21,4.21,0,0,1-1.73-5.7l.18-.3c1.85-3.42,7-3.16,8.53-3-1.57-.22-6.74-1.22-4.15-4.54s6.63-.43,7.66.42c-1.66-1.61-2.94-7.08,1.17-7.41,4.31-.35,4.8,4.59,4.8,4.59s5.08-9.89,14.48-6.82,7,10.57,7,10.57,8.47-1.06,11.3,5.58-2.61,12.07-2.61,12.07S598.42,575.58,595.86,571.81Z"/><path class="cls-17" d="M491.82,580.24s5.44-5.44,2.61-12.07-11.3-5.58-11.3-5.58,2.47-7.5-6.92-10.56-14.48,6.82-14.48,6.82-.49-4.94-4.8-4.59-2.68,6.35-.92,7.63c0,0-4.87-4.52-7.91-.64s4.59,4.59,4.59,4.59-6.78-1.09-9,3a4.21,4.21,0,0,0,1.25,5.82l.3.18s-5-2-6.36.64,6.85,4.45,6.85,4.45Z"/><path class="cls-16" d="M491.11,570.23c-2.55-3.77-11.83-4.39-11.83-4.39s2.47-4.74-.87-7.93-12.16-1.45-14.71,3c0,0-3-1.74-5.07-1.45s-2,5.07-2,5.07-.65-2.32-3.37-1.45.26,3.88.26,3.88-4.43-.11-6.46,2.65,1.16,6.81,1.16,6.81-6-2.27-6.86,2h0c-1.69-.77-3.09-1.81-2.47-3,1.34-2.61,6.36-.64,6.36-.64a4.21,4.21,0,0,1-1.73-5.7l.18-.3c1.85-3.42,7-3.16,8.53-3-1.57-.22-6.74-1.22-4.15-4.54s6.63-.43,7.66.42c-1.66-1.61-2.94-7.08,1.17-7.41,4.31-.35,4.8,4.59,4.8,4.59s5.08-9.89,14.48-6.82,6.92,10.56,6.92,10.56,8.47-1.06,11.3,5.58-2.61,12.07-2.61,12.07S493.65,574.05,491.11,570.23Z"/><path class="cls-17" d="M509.77,584s4.61-4.61,2.21-10.24S502.4,569,502.4,569s2.1-6.36-5.87-9-12.27,5.78-12.27,5.78-.42-4.19-4.07-3.89-2.27,5.39-.78,6.47c0,0-4.13-3.83-6.7-.54s3.89,3.89,3.89,3.89-5.75-.92-7.6,2.5a3.57,3.57,0,0,0,1,4.94l.27.16s-4.25-1.68-5.39.54,5.81,3.77,5.81,3.77Z"/><path class="cls-16" d="M509.17,575.49c-2.16-3.2-10-3.73-10-3.73s2.09-4-.74-6.72-10.31-1.23-12.47,2.58c0,0-2.51-1.47-4.3-1.23s-1.66,4.3-1.66,4.3a2,2,0,0,0-2.57-1.35l-.29.12c-2.3.74.22,3.29.22,3.29s-3.75-.09-5.47,2.24,1,5.78,1,5.78-5.12-1.92-5.81,1.68h0c-1.43-.65-2.62-1.53-2.1-2.55,1.14-2.21,5.39-.54,5.39-.54a3.57,3.57,0,0,1-1.48-4.83l.16-.27c1.57-2.9,5.93-2.68,7.23-2.55-1.33-.19-5.72-1-3.52-3.85s5.62-.36,6.49.36c-1.41-1.37-2.49-6,1-6.28,3.65-.3,4.07,3.89,4.07,3.89s4.31-8.38,12.27-5.78,5.87,9,5.87,9,7.18-.9,9.58,4.73S509.83,584,509.83,584,511.33,578.69,509.17,575.49Z"/><path class="cls-17" d="M430.79,577.19s5.44-5.44,2.61-12.07-11.3-5.58-11.3-5.58,2.47-7.5-6.92-10.56-14.48,6.82-14.48,6.82-.49-4.94-4.8-4.59-2.68,6.35-.92,7.63c0,0-4.87-4.52-7.91-.64s4.59,4.59,4.59,4.59-6.78-1.09-9,3a4.21,4.21,0,0,0,1.25,5.82l.3.18s-5-2-6.36.64,6.85,4.45,6.85,4.45Z"/><path class="cls-16" d="M430.08,567.18c-2.55-3.77-11.83-4.39-11.83-4.39s2.47-4.74-.87-7.93-12.16-1.45-14.71,3c0,0-3-1.74-5.07-1.45s-2,5.07-2,5.07-.65-2.32-3.37-1.45.26,3.88.26,3.88-4.43-.11-6.46,2.65,1.16,6.81,1.16,6.81-6-2.27-6.86,2h0c-1.69-.77-3.09-1.81-2.47-3,1.34-2.61,6.36-.64,6.36-.64a4.21,4.21,0,0,1-1.73-5.7l.18-.3c1.85-3.42,7-3.16,8.53-3-1.57-.22-6.74-1.22-4.15-4.54s6.63-.43,7.66.42c-1.66-1.61-2.94-7.08,1.17-7.41,4.31-.35,4.8,4.59,4.8,4.59s5.08-9.89,14.48-6.82,6.92,10.56,6.92,10.56,8.47-1.06,11.3,5.58-2.61,12.07-2.61,12.07S432.64,571,430.08,567.18Z"/><path class="cls-17" d="M469.85,583.21s5.22-5.22,2.51-11.59-10.85-5.36-10.85-5.36,2.37-7.2-6.64-10.14-13.9,6.55-13.9,6.55-.47-4.74-4.61-4.41-2.58,6.1-.88,7.32c0,0-4.68-4.34-7.59-.61s4.41,4.41,4.41,4.41-6.51-1-8.61,2.83a4,4,0,0,0,1.11,5.55l.38.22s-4.81-1.9-6.1.61,6.58,4.27,6.58,4.27Z"/><path class="cls-16" d="M469.17,573.6c-2.45-3.62-11.36-4.22-11.36-4.22s2.37-4.55-.83-7.61-11.68-1.39-14.12,2.92c0,0-2.85-1.67-4.87-1.39s-1.89,4.87-1.89,4.87-.63-2.23-3.24-1.39.25,3.72.25,3.72-4.25-.1-6.2,2.54,1.11,6.54,1.11,6.54-5.79-2.18-6.58,1.9h0c-1.62-.74-3-1.73-2.37-2.89,1.29-2.51,6.1-.61,6.1-.61a4,4,0,0,1-1.49-5.77c1.78-3.28,6.72-3,8.19-2.88-1.51-.21-6.47-1.18-4-4.36s6.37-.41,7.35.4c-1.59-1.55-2.82-6.79,1.12-7.12,4.14-.34,4.61,4.41,4.61,4.41s4.88-9.49,13.9-6.55,6.64,10.14,6.64,10.14,8.13-1,10.85,5.36-2.51,11.59-2.51,11.59S471.61,577.22,469.17,573.6Z"/><path class="cls-17" d="M544.61,583.78s5.44-5.44,2.61-12.07-11.3-5.58-11.3-5.58,2.47-7.5-6.92-10.56-14.48,6.82-14.48,6.82-.49-4.94-4.8-4.59-2.68,6.35-.92,7.63c0,0-4.87-4.52-7.91-.64s4.59,4.59,4.59,4.59-6.78-1.09-9,3a4.21,4.21,0,0,0,1.25,5.82l.3.18s-5-2-6.36.64,6.85,4.45,6.85,4.45Z"/><path class="cls-16" d="M543.93,573.78c-2.55-3.77-11.83-4.39-11.83-4.39s2.47-4.74-.87-7.93-12.16-1.45-14.71,3c0,0-3-1.74-5.07-1.45s-2,5.07-2,5.07-.65-2.32-3.37-1.45.26,3.88.26,3.88-4.43-.11-6.46,2.65S501,580,501,580s-6-2.27-6.86,2h0c-1.69-.77-3.09-1.81-2.47-3,1.34-2.61,6.36-.64,6.36-.64a4.21,4.21,0,0,1-1.73-5.7l.18-.3c1.85-3.42,7-3.16,8.53-3-1.57-.22-6.74-1.22-4.15-4.54s6.63-.43,7.66.42c-1.66-1.61-2.94-7.08,1.17-7.41,4.31-.35,4.8,4.59,4.8,4.59s5.08-9.89,14.48-6.82,6.92,10.56,6.92,10.56,8.47-1.06,11.3,5.58-2.61,12.07-2.61,12.07S546.46,577.54,543.93,573.78Z"/><path class="cls-17" d="M215.4,581.05s-5.47-5.39-2.61-12,11.3-5.58,11.3-5.58-2.47-7.5,6.92-10.56,14.48,6.82,14.48,6.82.49-4.94,4.8-4.59,2.68,6.35.92,7.63c0,0,4.87-4.52,7.91-.64s-4.59,4.59-4.59,4.59,6.78-1.09,9,3a4.21,4.21,0,0,1-1.25,5.82l-.3.18s5-2,6.36.64-6.85,4.45-6.85,4.45Z"/><path class="cls-16" d="M216.11,571.05c2.55-3.77,11.83-4.39,11.83-4.39s-2.47-4.74.87-7.93,12.16-1.45,14.71,3c0,0,3-1.74,5.07-1.45s2,5.07,2,5.07.65-2.32,3.37-1.45-.26,3.88-.26,3.88,4.43-.11,6.46,2.65-1.16,6.81-1.16,6.81,6-2.27,6.86,2h0c1.69-.77,3.09-1.81,2.47-3-1.34-2.61-6.36-.64-6.36-.64a4.21,4.21,0,0,0,1.73-5.7l-.18-.3c-1.85-3.42-7-3.16-8.53-3,1.57-.22,6.74-1.22,4.15-4.54s-6.63-.43-7.66.42c1.66-1.61,2.94-7.08-1.17-7.41-4.31-.35-4.8,4.59-4.8,4.59s-5.08-9.89-14.48-6.82-6.92,10.56-6.92,10.56-8.47-1.06-11.3,5.58,2.59,12.07,2.59,12.07S213.57,574.85,216.11,571.05Z"/><path class="cls-17" d="M276.42,578.66s-5.44-5.44-2.61-12.07,11.3-5.58,11.3-5.58-2.47-7.5,6.92-10.56,14.48,6.82,14.48,6.82.49-4.94,4.8-4.59,2.68,6.35.92,7.63c0,0,4.87-4.52,7.91-.64s-4.59,4.59-4.59,4.59,6.78-1.09,9,3a4.21,4.21,0,0,1-1.25,5.82l-.3.18s5-2,6.36.64-6.85,4.45-6.85,4.45Z"/><path class="cls-16" d="M277.14,568.65c2.55-3.77,11.83-4.39,11.83-4.39s-2.47-4.74.87-7.93,12.16-1.45,14.71,3c0,0,3-1.74,5.07-1.45s2,5.07,2,5.07.65-2.32,3.37-1.45-.26,3.88-.26,3.88,4.43-.11,6.46,2.65-1.16,6.81-1.16,6.81,6-2.27,6.86,2h0c1.69-.77,3.09-1.81,2.47-3-1.34-2.61-6.36-.64-6.36-.64a4.21,4.21,0,0,0,1.73-5.7l-.18-.3c-1.85-3.42-7-3.16-8.53-3,1.57-.22,6.74-1.22,4.15-4.54s-6.63-.43-7.66.42c1.66-1.61,2.94-7.08-1.17-7.41-4.31-.35-4.8,4.59-4.8,4.59s-5.08-9.89-14.48-6.82-6.94,10.61-6.94,10.61-8.47-1.06-11.3,5.58,2.61,12.07,2.61,12.07S274.58,572.42,277.14,568.65Z"/><path class="cls-17" d="M248.19,583.05s-5.44-5.44-2.61-12.07,11.3-5.58,11.3-5.58-2.47-7.5,6.92-10.56,14.48,6.82,14.48,6.82.49-4.94,4.8-4.59,2.68,6.35.92,7.63c0,0,4.87-4.52,7.91-.64s-4.59,4.59-4.59,4.59,6.78-1.09,9,3a4.21,4.21,0,0,1-1.25,5.82l-.3.18s5-2,6.36.64-6.85,4.45-6.85,4.45Z"/><path class="cls-16" d="M248.93,573.05c2.55-3.77,11.83-4.39,11.83-4.39s-2.47-4.74.87-7.93,12.16-1.45,14.71,3c0,0,3-1.74,5.07-1.45s2,5.07,2,5.07.65-2.32,3.37-1.45-.26,3.88-.26,3.88,4.43-.11,6.46,2.65-1.16,6.81-1.16,6.81,6-2.27,6.86,2h0c1.69-.77,3.09-1.81,2.47-3-1.34-2.61-6.36-.64-6.36-.64a4.21,4.21,0,0,0,1.73-5.7l-.18-.3c-1.85-3.42-7-3.16-8.53-3,1.57-.22,6.74-1.22,4.15-4.54s-6.63-.43-7.66.42c1.66-1.61,2.94-7.08-1.17-7.41-4.31-.35-4.8,4.59-4.8,4.59s-5.08-9.89-14.48-6.82-6.92,10.56-6.92,10.56-8.47-1.06-11.3,5.58,2.56,12.07,2.56,12.07S246.35,576.82,248.93,573.05Z"/><path class="cls-17" d="M352.93,581.48s-5.44-5.44-2.61-12.07,11.3-5.58,11.3-5.58-2.47-7.5,6.92-10.56S383,560.05,383,560.05s.49-4.94,4.8-4.59,2.68,6.35.92,7.63c0,0,4.87-4.52,7.91-.64s-4.59,4.59-4.59,4.59,6.78-1.09,9,3a4.21,4.21,0,0,1-1.25,5.82l-.3.18s5-2,6.36.64-6.85,4.45-6.85,4.45Z"/><path class="cls-16" d="M353.67,571.47c2.55-3.77,11.83-4.39,11.83-4.39s-2.47-4.74.87-7.93,12.16-1.45,14.71,3c0,0,3-1.74,5.07-1.45s2,5.07,2,5.07.65-2.32,3.37-1.45-.26,3.88-.26,3.88,4.43-.11,6.46,2.65-1.16,6.81-1.16,6.81,6-2.27,6.86,2h0c1.69-.77,3.09-1.81,2.47-3-1.34-2.61-6.36-.64-6.36-.64a4.21,4.21,0,0,0,1.73-5.7l-.18-.3c-1.85-3.42-7-3.16-8.53-3,1.57-.22,6.74-1.22,4.15-4.54s-6.63-.43-7.66.42c1.66-1.61,2.94-7.08-1.17-7.41-4.31-.35-4.8,4.59-4.8,4.59s-5.08-9.89-14.48-6.82-6.92,10.56-6.92,10.56-8.47-1.06-11.3,5.58,2.56,12.08,2.56,12.08S351.11,575.24,353.67,571.47Z"/><path class="cls-17" d="M335,585.22s-4.61-4.61-2.21-10.24,9.58-4.73,9.58-4.73-2.1-6.36,5.87-9,12.26,5.8,12.26,5.8.42-4.19,4.07-3.89,2.27,5.39.78,6.47c0,0,4.13-3.83,6.7-.54s-3.89,3.89-3.89,3.89,5.75-.92,7.6,2.5a3.57,3.57,0,0,1-1,4.94l-.27.16s4.25-1.68,5.39.54-5.81,3.77-5.81,3.77Z"/><path class="cls-16" d="M335.61,576.73c2.16-3.2,10-3.73,10-3.73s-2.09-4,.74-6.72,10.31-1.23,12.47,2.58c0,0,2.51-1.47,4.3-1.23s1.66,4.3,1.66,4.3a2,2,0,0,1,2.57-1.35l.29.12c2.3.74-.22,3.29-.22,3.29s3.75-.09,5.47,2.24-1,5.78-1,5.78,5.12-1.92,5.81,1.68h0c1.43-.65,2.62-1.53,2.1-2.55-1.14-2.21-5.39-.54-5.39-.54a3.57,3.57,0,0,0,1.48-4.83l-.16-.27c-1.57-2.9-5.93-2.68-7.23-2.55,1.33-.19,5.72-1,3.52-3.85s-5.62-.36-6.49.36c1.41-1.37,2.49-6-1-6.28-3.65-.3-4.07,3.89-4.07,3.89s-4.31-8.38-12.27-5.78-5.87,9-5.87,9-7.18-.9-9.58,4.73,2.21,10.24,2.21,10.24S333.45,579.92,335.61,576.73Z"/><path class="cls-17" d="M413.93,578.43s-5.44-5.44-2.61-12.07,11.3-5.58,11.3-5.58-2.47-7.5,6.92-10.56,14.51,6.83,14.51,6.83.49-4.94,4.8-4.59,2.68,6.35.92,7.63c0,0,4.87-4.52,7.91-.64S453.1,564,453.1,564s6.78-1.09,9,3a4.21,4.21,0,0,1-1.25,5.82l-.3.18s5-2,6.36.64-6.85,4.45-6.85,4.45Z"/><path class="cls-16" d="M414.68,568.42c2.55-3.77,11.83-4.39,11.83-4.39s-2.47-4.74.87-7.93,12.16-1.45,14.71,3c0,0,3-1.74,5.07-1.45s2,5.07,2,5.07.65-2.32,3.37-1.45-.26,3.88-.26,3.88,4.43-.11,6.46,2.65-1.16,6.81-1.16,6.81,6-2.27,6.86,2h0c1.69-.77,3.09-1.81,2.47-3-1.34-2.61-6.36-.64-6.36-.64a4.21,4.21,0,0,0,1.73-5.7l-.18-.3c-1.85-3.42-7-3.16-8.53-3,1.57-.22,6.74-1.22,4.15-4.54s-6.63-.43-7.66.42c1.66-1.61,2.94-7.08-1.17-7.41-4.31-.35-4.8,4.59-4.8,4.59s-5.08-9.89-14.48-6.82-6.92,10.56-6.92,10.56-8.47-1.06-11.3,5.58,2.55,12.08,2.55,12.08S412.14,572.19,414.68,568.42Z"/><path class="cls-17" d="M374.93,584.45s-5.22-5.22-2.51-11.59,10.85-5.36,10.85-5.36-2.37-7.2,6.64-10.14,13.9,6.55,13.9,6.55.47-4.74,4.61-4.41,2.58,6.1.88,7.32c0,0,4.68-4.34,7.59-.61s-4.41,4.41-4.41,4.41,6.51-1,8.61,2.83A4,4,0,0,1,420,579l-.38.22s4.81-1.9,6.1.61-6.58,4.27-6.58,4.27Z"/><path class="cls-16" d="M375.61,574.84c2.45-3.62,11.36-4.22,11.36-4.22s-2.37-4.55.83-7.61,11.68-1.39,14.12,2.92c0,0,2.85-1.67,4.87-1.39s1.89,4.87,1.89,4.87.63-2.23,3.24-1.39-.25,3.72-.25,3.72,4.25-.1,6.2,2.54-1.11,6.54-1.11,6.54,5.79-2.18,6.58,1.9h0c1.62-.74,3-1.73,2.37-2.89-1.29-2.51-6.1-.61-6.1-.61a4,4,0,0,0,1.49-5.77c-1.78-3.28-6.72-3-8.19-2.88,1.51-.21,6.47-1.18,4-4.36s-6.37-.41-7.35.4c1.59-1.55,2.82-6.79-1.12-7.12-4.14-.34-4.61,4.41-4.61,4.41s-4.88-9.49-13.9-6.55-6.64,10.14-6.64,10.14-8.13-1-10.85,5.36,2.5,11.6,2.5,11.6S373.15,578.45,375.61,574.84Z"/><path class="cls-17" d="M300.15,585.05s-5.44-5.44-2.61-12.07,11.3-5.58,11.3-5.58-2.47-7.5,6.92-10.56,14.48,6.82,14.48,6.82.49-4.94,4.8-4.59,2.68,6.35.92,7.63c0,0,4.87-4.52,7.91-.64s-4.59,4.59-4.59,4.59,6.78-1.09,9,3a4.21,4.21,0,0,1-1.25,5.82l-.3.18s5-2,6.36.64-6.85,4.45-6.85,4.45Z"/><path class="cls-16" d="M300.88,575.05c2.55-3.77,11.83-4.39,11.83-4.39s-2.47-4.74.87-7.93,12.16-1.45,14.71,3c0,0,3-1.74,5.07-1.45s2,5.07,2,5.07.65-2.32,3.37-1.45-.26,3.88-.26,3.88,4.43-.11,6.46,2.65-1.16,6.81-1.16,6.81,6-2.27,6.86,2h0c1.69-.77,3.09-1.81,2.47-3-1.34-2.61-6.36-.64-6.36-.64a4.21,4.21,0,0,0,1.73-5.7l-.18-.3c-1.85-3.42-7-3.16-8.53-3,1.57-.22,6.74-1.22,4.15-4.54s-6.63-.43-7.66.42c1.66-1.61,2.94-7.08-1.17-7.41-4.31-.35-4.8,4.59-4.8,4.59s-5.08-9.89-14.48-6.82-6.92,10.56-6.92,10.56-8.47-1.06-11.3,5.58,2.58,12.07,2.58,12.07S298.32,578.78,300.88,575.05Z"/><path class="cls-16" d="M1584.85,532.16s-20.8-7-25.67-22,.32-36.41,19.47-43.75,43.48,5.34,44.78,26-11.72,34.72-28.73,39.74Z"/><path class="cls-17" d="M1623.42,492.42c-.6-9.52-6.06-17.34-13.65-22.3h0c9.68,15.26,1.57,43.8-18.23,48.86-19.49,5-30.06-4.17-30.38-4.45,7,12,23.67,17.63,23.67,17.63h9.84C1611.71,527.14,1624.73,513.13,1623.42,492.42Z"/><path class="cls-18" d="M1586.51,579.73s1.48-51.91,1.06-53.7-5.71-10-5.71-10,6.77,7.42,7.4,4.35,1.9-26.34,1.9-26.34.42,23.53,2.11,23.27,8.67-9.46,8.67-9.46-8,12.28-8,16.88.64,55,.64,55Z"/><path class="cls-17" d="M1577.78,583.13s-5.44-5.44-2.61-12.07,11.3-5.58,11.3-5.58-2.47-7.5,6.92-10.56,14.48,6.82,14.48,6.82.49-4.94,4.8-4.59,2.68,6.35.92,7.63c0,0,4.87-4.52,7.91-.64s-4.59,4.59-4.59,4.59,6.78-1.09,9,3a4.21,4.21,0,0,1-1.25,5.82l-.3.18s5-2,6.36.64-6.85,4.45-6.85,4.45Z"/><path class="cls-16" d="M1578.5,573.12c2.55-3.77,11.83-4.39,11.83-4.39s-2.47-4.74.87-7.93,12.16-1.45,14.71,3c0,0,3-1.74,5.07-1.45s2,5.07,2,5.07.65-2.32,3.37-1.45-.26,3.88-.26,3.88,4.43-.11,6.46,2.65-1.16,6.81-1.16,6.81,6-2.27,6.86,2h0c1.69-.77,3.09-1.81,2.47-3-1.34-2.61-6.36-.64-6.36-.64a4.21,4.21,0,0,0,1.73-5.7l-.18-.3c-1.85-3.42-7-3.16-8.53-3,1.57-.22,6.74-1.22,4.15-4.54s-6.63-.43-7.66.42c1.66-1.61,2.94-7.08-1.17-7.41-4.31-.35-4.8,4.59-4.8,4.59s-5.08-9.89-14.48-6.82-6.92,10.56-6.92,10.56-8.47-1.06-11.3,5.58,2.61,12.07,2.61,12.07S1575.93,576.89,1578.5,573.12Z"/><path class="cls-17" d="M1638.8,580.69s-5.44-5.44-2.61-12.07,11.3-5.58,11.3-5.58-2.47-7.5,6.92-10.56,14.48,6.82,14.48,6.82.49-4.94,4.8-4.59,2.68,6.35.92,7.63c0,0,4.87-4.52,7.91-.64s-4.59,4.59-4.59,4.59,6.78-1.09,9,3a4.21,4.21,0,0,1-1.25,5.82l-.3.18s5-2,6.36.64-6.85,4.45-6.85,4.45Z"/><path class="cls-16" d="M1639.51,570.68c2.55-3.77,11.83-4.39,11.83-4.39s-2.47-4.74.87-7.93,12.16-1.45,14.71,3c0,0,3-1.74,5.07-1.45s2,5.07,2,5.07.65-2.32,3.37-1.45-.26,3.88-.26,3.88,4.43-.11,6.46,2.65-1.16,6.81-1.16,6.81,6-2.27,6.86,2h0c1.69-.77,3.09-1.81,2.47-3-1.34-2.61-6.36-.64-6.36-.64a4.21,4.21,0,0,0,1.73-5.7l-.18-.3c-1.85-3.42-7-3.16-8.53-3,1.57-.22,6.74-1.22,4.15-4.54s-6.63-.43-7.66.42c1.66-1.61,2.94-7.08-1.17-7.41-4.31-.35-4.8,4.59-4.8,4.59s-5.08-9.89-14.48-6.82-6.92,10.56-6.92,10.56-8.47-1.06-11.3,5.58,2.61,12.07,2.61,12.07S1636.93,574.45,1639.51,570.68Z"/><path class="cls-17" d="M1610.58,585.05s-5.44-5.4-2.64-12,11.3-5.58,11.3-5.58-2.47-7.5,6.92-10.56,14.48,6.82,14.48,6.82.49-4.94,4.8-4.59,2.68,6.35.92,7.63c0,0,4.87-4.52,7.91-.64s-4.59,4.59-4.59,4.59,6.78-1.09,9,3a4.21,4.21,0,0,1-1.25,5.82l-.3.18s5-2,6.36.64-6.85,4.45-6.85,4.45Z"/><path class="cls-16" d="M1611.28,575.05c2.55-3.77,11.83-4.39,11.83-4.39s-2.47-4.74.87-7.93,12.16-1.45,14.71,3c0,0,3-1.74,5.07-1.45s2,5.07,2,5.07.65-2.32,3.37-1.45-.26,3.88-.26,3.88,4.43-.11,6.46,2.65-1.16,6.81-1.16,6.81,6-2.27,6.86,2h0c1.69-.77,3.09-1.81,2.47-3-1.34-2.61-6.36-.64-6.36-.64a4.21,4.21,0,0,0,1.73-5.7l-.18-.3c-1.85-3.42-7-3.16-8.53-3,1.57-.22,6.74-1.22,4.15-4.54s-6.63-.43-7.66.42c1.66-1.61,2.94-7.08-1.17-7.41-4.31-.35-4.8,4.59-4.8,4.59s-5.08-9.89-14.48-6.82-6.92,10.56-6.92,10.56-8.47-1.06-11.3,5.58,2.61,12.07,2.61,12.07S1608.74,578.85,1611.28,575.05Z"/></g></g></svg>