<svg xmlns="http://www.w3.org/2000/svg" viewBox="0 0 40.58 39.21"><defs><style>.cls-1{fill:#16a0da;}</style></defs><title>Pocetak strijelica</title><g id="Layer_2" data-name="Layer 2"><g id="Opening_1" data-name="Opening 1"><path class="cls-1" d="M23.46,37.95,39.38,21.06a4.51,4.51,0,0,0,0-6.11,3.91,3.91,0,0,0-5.76,0L20.29,29.09,7,14.94a3.91,3.91,0,0,0-5.76,0,4.51,4.51,0,0,0,0,6.11L17.11,37.95a3.93,3.93,0,0,0,3.17,1.25A3.93,3.93,0,0,0,23.46,37.95Z"/><path class="cls-1" d="M20.29,19a4,4,0,0,0,2.88-1.27L32.94,7.38a4.51,4.51,0,0,0,0-6.11,3.91,3.91,0,0,0-5.76,0L20.29,8.57,13.4,1.27a3.91,3.91,0,0,0-5.76,0A4.45,4.45,0,0,0,6.45,4.32,4.45,4.45,0,0,0,7.64,7.38l9.77,10.36A4,4,0,0,0,20.29,19Z"/></g></g></svg>