<?xml version="1.0" encoding="utf-8"?>
<!-- Generator: Adobe Illustrator 21.1.0, SVG Export Plug-In . SVG Version: 6.00 Build 0)  -->
<svg version="1.1" id="Layer_1" xmlns="http://www.w3.org/2000/svg" xmlns:xlink="http://www.w3.org/1999/xlink" x="0px" y="0px"
	 viewBox="0 0 314.2 58" style="enable-background:new 0 0 314.2 58;" xml:space="preserve">
<style type="text/css">
	.st0{fill:url(#SVGID_1_);}
	.st1{fill:#16A0DA;}
	.st2{fill:#18B7A0;}
	.st3{fill:#18B7A2;}
	.st4{fill:#18B6A2;}
	.st5{fill:#18B7A1;}
	.st6{fill:url(#SVGID_2_);}
	.st7{enable-background:new    ;}
	.st8{fill:#999999;}
</style>
<title>Asset 3Wine360-logo</title>
<g>
	
		<linearGradient id="SVGID_1_" gradientUnits="userSpaceOnUse" x1="-3.040605e-03" y1="32.9114" x2="126.93" y2="32.9114" gradientTransform="matrix(1 0 0 -1 0 59.3201)">
		<stop  offset="0" style="stop-color:#18B89E"/>
		<stop  offset="1" style="stop-color:#16A0DB"/>
	</linearGradient>
	<path class="st0" d="M25.5,33.7c-5.3,0-9.6,4.3-9.6,9.5s4.3,9.6,9.5,9.6s9.6-4.3,9.6-9.5c0,0,0,0,0,0C35,38,30.7,33.7,25.5,33.7z
		 M101.9,33.7c-5.3,0-9.6,4.3-9.6,9.5c0,5.3,4.3,9.6,9.5,9.6c5.3,0,9.6-4.3,9.6-9.5c0,0,0,0,0,0C111.5,38,107.2,33.7,101.9,33.7z
		 M126.9,24.3v-4h-4v-4h-4V13c-1.4-0.4-2.8-0.7-4.2-1s-2.7-0.6-4-0.9c-4.2-1.2-8.4-2.8-12.5-4.3c-5.4-2.2-10.9-4-16.5-5.4
		C71.2-1,60.2-0.3,49.9,3.3C46,4.8,42.2,6.5,38.5,8.6c-1.5,0.8-3.1,1.6-4.6,2.4c-5.4,2.7-11.3,4.3-17,5.8c-1,0.3-2.1,0.5-3.3,0.7
		C9,18.4,3.9,19.4,1.1,23.2l0,0c-1.7,2.3-1,4.6-0.3,6.7l0.1,0.2c0.7,2.3,1.3,4.6,1.8,6.9c0.1,0.4,0.2,1,0.2,1.7
		c0.2,2.2,0.5,4.8,2.1,6s4.3,1.1,7,1.1h0.6c0.1,0,0.2,0,0.3,0c0.1,0,0.1,0,0.2,0h0.1c0.6,0,1-0.5,0.9-1.1c0,0,0,0,0,0
		c0-0.3-0.1-1-0.1-1.4C14.2,37,19.5,32,25.8,32.2c6,0.2,10.9,5,11.1,11.1c0,0.2,0,0.4,0,0.6c0,0.4,0.2,0.8,0.6,1l0,0l0.2,0h0.1h0.1
		c7.4,0,14.8,0,22.2,0h15.3h14.1c0.6,0,1-0.4,1-1c0-0.1,0-0.2-0.1-0.3c0-0.1,0.1-0.2,0.1-0.3c-0.2-6.3,4.8-11.6,11.1-11.8
		c6.3-0.2,11.6,4.8,11.8,11.1c0,0.2,0,0.5,0,0.7c0,0,0,0.1,0,0.1c-0.1,0.5,0.3,1.1,0.8,1.2c0.3,0,0.5,0,0.7-0.2
		c4-2.4,7.2-5.8,9.3-10v-0.1H123v-10L126.9,24.3z M67.9,22.6c-1,0.5-2.2,0.7-3.3,0.7c-1.1,0-2.2-0.2-3.1-0.7
		c-0.5-0.2-0.7-0.8-0.5-1.4c0.2-0.5,0.8-0.7,1.4-0.5c1.5,0.6,3.2,0.6,4.7,0c0.5-0.2,1.1,0,1.4,0.5C68.6,21.7,68.4,22.3,67.9,22.6
		L67.9,22.6z M72.9,14.9c0,1.4-1.2,2.6-2.7,2.5H39.5c-1.2,0-2.3-0.8-2.6-2c-0.3-1.1,0.3-2.3,1.3-2.8c7.2-3.7,20.9-9.7,32-8.5
		c1.5,0.1,2.6,1.4,2.6,2.9V14.9z M97.7,15.5c-0.6,1.2-1.8,1.9-3.1,1.9H77.8c-1.7,0.1-3.2-1.2-3.4-2.9V7.1c0-0.8,0.4-1.5,0.9-2
		c0.8-0.7,1.8-1,2.9-0.9c10.5,1.2,16.2,5.3,19,8.5C97.9,13.5,98.2,14.6,97.7,15.5L97.7,15.5z M107.7,22.2l-1.2-3.7l3.7-1.1l1.2,3.7
		L107.7,22.2z M111.7,28.2l-0.3-2.3l2.3-0.3l0.3,2.3L111.7,28.2z M116.4,24.4l-1.2-3.9l2.1-0.6l1.2,3.9L116.4,24.4z"/>
	
		<rect x="136.5" y="25.9" transform="matrix(0.9583 -0.2857 0.2857 0.9583 -2.2568 40.4848)" class="st1" width="2.2" height="4.1"/>
	<rect x="134.7" y="6.8" transform="matrix(0.866 -0.5 0.5 0.866 14.3997 69.4425)" class="st1" width="4.1" height="2.2"/>
	<rect x="139.6" y="23.7" transform="matrix(0.9942 -0.108 0.108 0.9942 -1.8637 15.3528)" class="st2" width="2.4" height="2.4"/>
	
		<rect x="135.1" y="12.5" transform="matrix(0.1833 -0.9831 0.9831 0.1833 97.722 146.4844)" class="st3" width="3.9" height="3.9"/>
	<rect x="119.9" y="10.7" class="st3" width="3.9" height="2.9"/>
	
		<rect x="128.2" y="8.8" transform="matrix(0.1833 -0.9831 0.9831 0.1833 95.3347 136.1767)" class="st4" width="2.9" height="3.9"/>
	<rect x="131.7" y="28.6" transform="matrix(0.8432 -0.5376 0.5376 0.8432 4.324 76.1973)" class="st2" width="2.2" height="4.1"/>
	<rect x="123.8" y="15" class="st5" width="3.9" height="3.9"/>
	<rect x="130.5" y="22" transform="matrix(0.2677 -0.9635 0.9635 0.2677 73.9003 145.1647)" class="st3" width="3.9" height="3.9"/>
	<rect x="125" y="26" class="st1" width="3.9" height="3.9"/>
	
		<rect x="129.2" y="15.2" transform="matrix(0.3659 -0.9307 0.9307 0.3659 67.1807 132.955)" class="st1" width="3.9" height="3.9"/>
	
		<rect x="138.7" y="18.2" transform="matrix(0.1833 -0.9831 0.9831 0.1833 95.4769 154.3716)" class="st1" width="3.9" height="3.1"/>
	
		<linearGradient id="SVGID_2_" gradientUnits="userSpaceOnUse" x1="135.43" y1="37.9264" x2="336.02" y2="37.9264" gradientTransform="matrix(1 0 0 -1 0 59.3201)">
		<stop  offset="0" style="stop-color:#18B89E"/>
		<stop  offset="1" style="stop-color:#16A0DB"/>
	</linearGradient>
	<path class="st6" d="M166.4,38.8h7.6V14.2h-7.6V38.8z M172.1,3.8c-0.6-0.4-1.3-0.5-2-0.5c-0.7,0-1.4,0.2-2,0.5
		c-0.6,0.4-1.1,0.9-1.5,1.5c-0.3,0.6-0.5,1.3-0.5,2c0,1.4,0.8,2.8,2,3.5c1.2,0.7,2.8,0.7,4,0c0.6-0.4,1.1-0.8,1.4-1.4
		c0.4-0.6,0.5-1.3,0.5-2c0-0.7-0.2-1.4-0.5-2C173.2,4.7,172.7,4.2,172.1,3.8L172.1,3.8z M163.3,24c-1-1.4-2.4-2.5-4.1-3.2v-0.1
		c2.9-1.2,4.7-4,4.6-7.1c0.1-1.9-0.6-3.8-1.8-5.2c-1.4-1.4-3.1-2.4-5-2.8c-2.3-0.6-4.6-0.9-6.9-0.8h-10v2h5.3v3.9h-2.4v3.3h2v3.2
		h-1.5v5.7h3V28h-3.7v6.2h2.1v4.5h7.4c4.3,0,7.5-0.9,9.6-2.6c2.1-1.7,3.2-4.2,3.2-6.9c0-1-0.1-1.9-0.4-2.8
		C164.2,25.6,163.8,24.8,163.3,24L163.3,24z M152.4,6.6l1.1,1.9l-3.5,2l-1.1-1.9L152.4,6.6z M148.8,11.4h1.9c1.1,0,2.2,0.2,3.1,0.8
		c0.9,0.6,1.4,1.6,1.3,2.6c0.1,1-0.3,1.9-1,2.6c-0.9,0.7-2,1-3.1,0.9h-2.2L148.8,11.4z M145.9,34.9l-1.2-3.9l2.1-0.6l1.1,3.9
		L145.9,34.9z M147.8,20.6l2.3-0.3l0.3,2.3l-2.3,0.3L147.8,20.6z M151.1,32h-2.3v-7.1h2.2c1.3-0.1,2.6,0.2,3.8,0.7
		c1,0.6,1.5,1.8,1.3,2.9C156.1,30.9,154.5,32,151.1,32z M187.9,28.8v-8.1h3.4l1.7-6.6h-5.1V4.8h-7.6v9.4h-3.3l-1.7,6.6h5.1v8.7
		c-0.1,1.9,0.3,3.9,1.2,5.6c0.8,1.5,2,2.6,3.5,3.3c1.8,0.8,3.7,1.2,5.7,1.1c0.4,0,0.8,0,1.2-0.1l2.2-7.6c-0.6,0.2-1.3,0.3-2,0.3
		C189.3,32.1,187.9,31,187.9,28.8L187.9,28.8z M283.1,16.9c-1.3-1.2-2.7-2.1-4.3-2.7c-1.6-0.7-3.3-1-5.1-1c-1.7,0-3.5,0.4-5.1,1
		c-1.6,0.6-3.1,1.6-4.3,2.8c-1.3,1.2-2.3,2.6-3,4.2c-0.7,1.6-1.1,3.4-1.1,5.2c0,2.4,0.6,4.7,1.9,6.7c1.2,2,2.9,3.6,5,4.7
		c2,1.1,4.3,1.7,6.6,1.7c1.7,0,3.5-0.3,5.1-1c1.3-0.5,2.5-1.3,3.6-2.2l-4.1-5.9v0.1l-0.1,0.1l-0.1,0.1l0,0c-2.3,2.4-6.1,2.4-8.5,0.1
		c0,0-0.1-0.1-0.1-0.1c-1-0.9-1.6-2.2-1.8-3.5h16.5l0,0h3v-0.4c0-0.1,0-0.2,0-0.3v-0.2c0-3.5-1.4-6.9-4-9.4L283.1,16.9z M269,22.5
		c0.5-0.6,1.1-1.1,1.7-1.5c1.9-1.1,4.1-1.1,6,0c0.6,0.4,1.2,0.9,1.7,1.5L269,22.5z M201.6,38.7h8.3V25h8.7l-1.9-7.2h-6.7v-5.9h12.2
		V4.7h-20.6V38.7z M305.1,32.1c-2.7,0-4.1-1.1-4.1-3.3v-8.1h3.4l1.7-6.6h-5.1V4.8h-7.6v9.4h-3.3l-1.7,6.6h5v8.7
		c-0.1,1.9,0.3,3.9,1.2,5.6c0.8,1.5,2,2.6,3.5,3.3c1.8,0.8,3.7,1.2,5.7,1.1c0.4,0,0.8,0,1.2-0.1l2.2-7.6
		C306.5,32.1,305.8,32.1,305.1,32.1z M255,16.9c-1.3-1.2-2.7-2.1-4.3-2.7c-1.6-0.7-3.3-1-5.1-1c-1.7,0-3.5,0.4-5.1,1
		c-1.6,0.6-3.1,1.6-4.3,2.8c-1.3,1.2-2.3,2.6-3,4.2c-0.7,1.6-1.1,3.4-1.1,5.2c0,2.4,0.6,4.7,1.9,6.7c1.2,2,2.9,3.6,5,4.7
		c2,1.1,4.3,1.7,6.6,1.7c1.7,0,3.5-0.3,5.1-1c1.3-0.5,2.5-1.3,3.6-2.2l-4.1-5.9v0.1l-0.1,0.1l-0.1,0.1l0,0c-2.3,2.4-6.1,2.4-8.5,0.1
		c0,0-0.1-0.1-0.1-0.1c-1-0.9-1.6-2.2-1.8-3.5H256l0,0h3v-0.4c0-0.1,0-0.2,0-0.3v-0.2C259,22.7,257.6,19.3,255,16.9L255,16.9z
		 M240.9,22.5c0.5-0.6,1.1-1.1,1.7-1.5c1.9-1.1,4.1-1.1,6,0c0.6,0.4,1.2,0.9,1.7,1.5L240.9,22.5z M223.3,38.8l7.6-0.1V4.7h-7.6V38.8
		z"/>
	<g>
		<g class="st7">
			<path class="st8" d="M178.6,47.2h1.3c0.1,0,0.3,0,0.3,0.1c0.1,0.1,0.2,0.2,0.2,0.3l1.5,5.1c0,0.1,0.1,0.3,0.1,0.4
				c0,0.1,0.1,0.3,0.1,0.5c0-0.2,0.1-0.3,0.1-0.5c0-0.1,0.1-0.3,0.1-0.4l1.7-5.1c0-0.1,0.1-0.2,0.2-0.2c0.1-0.1,0.2-0.1,0.3-0.1h0.5
				c0.1,0,0.3,0,0.3,0.1c0.1,0.1,0.2,0.2,0.2,0.3l1.7,5.1c0.1,0.3,0.2,0.5,0.2,0.8c0-0.2,0.1-0.3,0.1-0.4c0-0.1,0.1-0.3,0.1-0.4
				l1.5-5.1c0-0.1,0.1-0.2,0.2-0.3s0.2-0.1,0.3-0.1h1.3l-2.7,8.6h-1.4l-1.9-5.9c0-0.1,0-0.2-0.1-0.2s-0.1-0.2-0.1-0.3
				c0,0.1,0,0.2-0.1,0.3s-0.1,0.2-0.1,0.2l-1.9,5.9h-1.4L178.6,47.2z"/>
		</g>
		<path class="st8" d="M194,49.6c0.4,0,0.7,0.1,1.1,0.2c0.3,0.1,0.6,0.3,0.8,0.5c0.2,0.2,0.4,0.5,0.5,0.9c0.1,0.3,0.2,0.7,0.2,1.2
			c0,0.1,0,0.2,0,0.3s0,0.1-0.1,0.2c0,0-0.1,0.1-0.1,0.1c0,0-0.1,0-0.2,0h-3.8c0,0.6,0.2,1.1,0.5,1.4c0.3,0.3,0.7,0.4,1.2,0.4
			c0.2,0,0.4,0,0.6-0.1c0.2-0.1,0.3-0.1,0.5-0.2c0.1-0.1,0.2-0.1,0.3-0.2s0.2-0.1,0.3-0.1c0.1,0,0.1,0,0.2,0c0,0,0.1,0.1,0.1,0.1
			l0.4,0.5c-0.2,0.2-0.3,0.3-0.5,0.5c-0.2,0.1-0.4,0.2-0.6,0.3c-0.2,0.1-0.4,0.1-0.7,0.2c-0.2,0-0.4,0-0.7,0c-0.4,0-0.8-0.1-1.2-0.2
			c-0.4-0.1-0.7-0.3-0.9-0.6c-0.3-0.3-0.5-0.6-0.6-1c-0.2-0.4-0.2-0.9-0.2-1.4c0-0.4,0.1-0.8,0.2-1.2c0.1-0.4,0.3-0.7,0.6-1
			c0.3-0.3,0.6-0.5,0.9-0.6C193.1,49.7,193.5,49.6,194,49.6z M194,50.7c-0.4,0-0.8,0.1-1,0.4c-0.2,0.2-0.4,0.6-0.5,1h2.8
			c0-0.2,0-0.4-0.1-0.5c-0.1-0.2-0.1-0.3-0.2-0.4c-0.1-0.1-0.2-0.2-0.4-0.3S194.2,50.7,194,50.7z"/>
		<path class="st8" d="M204.4,55.8c-0.2,0-0.3-0.1-0.4-0.3l-0.1-0.6c-0.1,0.1-0.3,0.3-0.4,0.4c-0.1,0.1-0.3,0.2-0.4,0.3
			s-0.3,0.1-0.5,0.2c-0.2,0-0.4,0.1-0.6,0.1c-0.3,0-0.6-0.1-0.9-0.2c-0.3-0.1-0.5-0.3-0.7-0.6c-0.2-0.3-0.4-0.6-0.5-1
			c-0.1-0.4-0.2-0.8-0.2-1.3c0-0.5,0.1-0.9,0.2-1.3c0.1-0.4,0.3-0.7,0.5-1c0.2-0.3,0.5-0.5,0.8-0.7s0.7-0.2,1.1-0.2
			c0.3,0,0.6,0.1,0.9,0.2c0.2,0.1,0.5,0.3,0.6,0.4V47h1.5v8.8H204.4z M202.4,54.7c0.3,0,0.6-0.1,0.8-0.2c0.2-0.1,0.4-0.3,0.6-0.5
			v-2.7c-0.2-0.2-0.3-0.3-0.5-0.4c-0.2-0.1-0.4-0.1-0.6-0.1c-0.2,0-0.4,0-0.6,0.1c-0.2,0.1-0.3,0.2-0.5,0.4
			c-0.1,0.2-0.2,0.4-0.3,0.6s-0.1,0.6-0.1,0.9c0,0.4,0,0.7,0.1,0.9s0.1,0.4,0.2,0.6c0.1,0.2,0.2,0.3,0.4,0.3S202.2,54.7,202.4,54.7z
			"/>
		<path class="st8" d="M209.4,49.6c0.5,0,0.9,0.1,1.2,0.2c0.4,0.1,0.7,0.4,0.9,0.6c0.3,0.3,0.5,0.6,0.6,1s0.2,0.8,0.2,1.3
			c0,0.5-0.1,0.9-0.2,1.3c-0.1,0.4-0.3,0.7-0.6,1c-0.3,0.3-0.6,0.5-0.9,0.6c-0.4,0.1-0.8,0.2-1.2,0.2c-0.5,0-0.9-0.1-1.2-0.2
			c-0.4-0.1-0.7-0.4-1-0.6c-0.3-0.3-0.5-0.6-0.6-1c-0.1-0.4-0.2-0.8-0.2-1.3c0-0.5,0.1-0.9,0.2-1.3s0.3-0.7,0.6-1s0.6-0.5,1-0.6
			C208.6,49.7,209,49.6,209.4,49.6z M209.4,54.8c0.5,0,0.9-0.2,1.1-0.5s0.4-0.8,0.4-1.5s-0.1-1.2-0.4-1.5c-0.2-0.3-0.6-0.5-1.1-0.5
			c-0.5,0-0.9,0.2-1.1,0.5c-0.2,0.3-0.4,0.8-0.4,1.5s0.1,1.1,0.4,1.5S208.9,54.8,209.4,54.8z"/>
		<path class="st8" d="M217.7,48c0,0.1,0,0.2-0.1,0.4c-0.1,0.1-0.1,0.2-0.2,0.3c-0.1,0.1-0.2,0.1-0.3,0.2c-0.1,0-0.2,0.1-0.4,0.1
			c-0.1,0-0.2,0-0.4-0.1c-0.1,0-0.2-0.1-0.3-0.2s-0.1-0.2-0.2-0.3c0-0.1-0.1-0.2-0.1-0.4c0-0.1,0-0.3,0.1-0.4c0-0.1,0.1-0.2,0.2-0.3
			s0.2-0.1,0.3-0.2c0.1,0,0.2-0.1,0.4-0.1c0.1,0,0.3,0,0.4,0.1c0.1,0,0.2,0.1,0.3,0.2c0.1,0.1,0.2,0.2,0.2,0.3
			C217.6,47.7,217.7,47.8,217.7,48z M217.4,49.7v6.1H216v-6.1H217.4z"/>
		<path class="st8" d="M221.1,55.9c-0.5,0-0.9-0.1-1.2-0.4c-0.3-0.3-0.4-0.7-0.4-1.2v-3.4h-0.6c-0.1,0-0.1,0-0.2-0.1
			c-0.1-0.1-0.1-0.1-0.1-0.2v-0.6l1-0.2l0.3-1.7c0-0.1,0.1-0.1,0.1-0.2c0.1,0,0.1-0.1,0.2-0.1h0.8v1.9h1.6v1h-1.6v3.3
			c0,0.2,0,0.3,0.1,0.4s0.2,0.2,0.4,0.2c0.1,0,0.2,0,0.2,0c0.1,0,0.1,0,0.2-0.1c0,0,0.1,0,0.1-0.1c0,0,0.1,0,0.1,0c0,0,0.1,0,0.1,0
			c0,0,0.1,0.1,0.1,0.1l0.4,0.7c-0.2,0.2-0.5,0.3-0.7,0.4C221.7,55.9,221.4,55.9,221.1,55.9z"/>
		<path class="st8" d="M227.5,49.7V56c0,0.3,0,0.5-0.1,0.7c-0.1,0.2-0.2,0.4-0.3,0.6c-0.2,0.2-0.4,0.3-0.6,0.4s-0.5,0.2-0.9,0.2
			c-0.1,0-0.3,0-0.4,0c-0.1,0-0.2,0-0.4-0.1l0-0.8c0-0.1,0-0.1,0.1-0.2c0.1,0,0.2,0,0.3,0c0.1,0,0.3,0,0.4,0c0.1,0,0.2-0.1,0.2-0.1
			c0.1-0.1,0.1-0.2,0.1-0.3c0-0.1,0-0.2,0-0.4v-6.3H227.5z M227.7,48c0,0.1,0,0.2-0.1,0.4c-0.1,0.1-0.1,0.2-0.2,0.3
			s-0.2,0.1-0.3,0.2c-0.1,0-0.2,0.1-0.4,0.1c-0.1,0-0.2,0-0.4-0.1c-0.1,0-0.2-0.1-0.3-0.2s-0.1-0.2-0.2-0.3c0-0.1-0.1-0.2-0.1-0.4
			c0-0.1,0-0.3,0.1-0.4c0-0.1,0.1-0.2,0.2-0.3s0.2-0.1,0.3-0.2c0.1,0,0.2-0.1,0.4-0.1c0.1,0,0.3,0,0.4,0.1c0.1,0,0.2,0.1,0.3,0.2
			s0.2,0.2,0.2,0.3C227.7,47.7,227.7,47.8,227.7,48z"/>
		<path class="st8" d="M230.5,49.7v3.9c0,0.4,0.1,0.7,0.3,0.9c0.2,0.2,0.4,0.3,0.8,0.3c0.3,0,0.5-0.1,0.7-0.2
			c0.2-0.1,0.4-0.3,0.6-0.5v-4.4h1.5v6.1h-0.9c-0.2,0-0.3-0.1-0.4-0.3l-0.1-0.5c-0.1,0.1-0.3,0.2-0.4,0.3c-0.1,0.1-0.3,0.2-0.4,0.3
			s-0.3,0.1-0.5,0.2c-0.2,0-0.4,0.1-0.6,0.1c-0.3,0-0.6-0.1-0.9-0.2c-0.3-0.1-0.5-0.3-0.6-0.5c-0.2-0.2-0.3-0.4-0.4-0.7
			c-0.1-0.3-0.1-0.6-0.1-0.9v-3.9H230.5z"/>
		<path class="st8" d="M239.5,50.9c0,0.1-0.1,0.1-0.1,0.1c0,0-0.1,0-0.2,0c-0.1,0-0.1,0-0.2-0.1c-0.1,0-0.2-0.1-0.3-0.1
			s-0.2-0.1-0.4-0.1c-0.1,0-0.3-0.1-0.5-0.1c-0.3,0-0.5,0.1-0.7,0.2c-0.2,0.1-0.2,0.3-0.2,0.5c0,0.1,0,0.2,0.1,0.3s0.2,0.2,0.3,0.2
			s0.3,0.1,0.5,0.2c0.2,0.1,0.4,0.1,0.5,0.2c0.2,0.1,0.4,0.1,0.5,0.2s0.3,0.2,0.5,0.3c0.1,0.1,0.3,0.3,0.3,0.4s0.1,0.4,0.1,0.6
			c0,0.3-0.1,0.6-0.2,0.8c-0.1,0.2-0.3,0.5-0.5,0.6c-0.2,0.2-0.5,0.3-0.8,0.4c-0.3,0.1-0.6,0.2-1,0.2c-0.2,0-0.4,0-0.6-0.1
			c-0.2,0-0.4-0.1-0.6-0.2c-0.2-0.1-0.4-0.1-0.5-0.2s-0.3-0.2-0.4-0.3l0.3-0.6c0-0.1,0.1-0.1,0.2-0.2c0.1,0,0.1-0.1,0.2-0.1
			s0.2,0,0.3,0.1c0.1,0.1,0.2,0.1,0.3,0.2c0.1,0.1,0.2,0.1,0.4,0.2c0.1,0.1,0.3,0.1,0.5,0.1c0.2,0,0.3,0,0.4-0.1
			c0.1,0,0.2-0.1,0.3-0.2s0.1-0.1,0.2-0.2c0-0.1,0.1-0.2,0.1-0.3c0-0.1,0-0.3-0.1-0.4c-0.1-0.1-0.2-0.2-0.3-0.2
			c-0.1-0.1-0.3-0.1-0.5-0.2c-0.2-0.1-0.4-0.1-0.6-0.2c-0.2-0.1-0.4-0.1-0.6-0.2c-0.2-0.1-0.3-0.2-0.5-0.3c-0.1-0.1-0.3-0.3-0.3-0.5
			c-0.1-0.2-0.1-0.4-0.1-0.7c0-0.2,0-0.5,0.1-0.7c0.1-0.2,0.2-0.4,0.4-0.6c0.2-0.2,0.4-0.3,0.7-0.4c0.3-0.1,0.6-0.2,1-0.2
			c0.4,0,0.8,0.1,1.1,0.2c0.3,0.1,0.6,0.3,0.9,0.5L239.5,50.9z"/>
		<path class="st8" d="M243.1,55.9c-0.5,0-0.9-0.1-1.2-0.4c-0.3-0.3-0.4-0.7-0.4-1.2v-3.4h-0.6c-0.1,0-0.1,0-0.2-0.1
			c-0.1-0.1-0.1-0.1-0.1-0.2v-0.6l1-0.2l0.3-1.7c0-0.1,0.1-0.1,0.1-0.2c0.1,0,0.1-0.1,0.2-0.1h0.8v1.9h1.6v1h-1.6v3.3
			c0,0.2,0,0.3,0.1,0.4s0.2,0.2,0.4,0.2c0.1,0,0.2,0,0.2,0c0.1,0,0.1,0,0.2-0.1c0,0,0.1,0,0.1-0.1c0,0,0.1,0,0.1,0c0,0,0.1,0,0.1,0
			c0,0,0.1,0.1,0.1,0.1l0.4,0.7c-0.2,0.2-0.5,0.3-0.7,0.4C243.7,55.9,243.4,55.9,243.1,55.9z"/>
		<path class="st8" d="M252.7,55.8h-0.7c-0.1,0-0.2,0-0.3-0.1c-0.1,0-0.1-0.1-0.2-0.3l-0.1-0.4c-0.2,0.1-0.3,0.3-0.5,0.4
			c-0.1,0.1-0.3,0.2-0.5,0.3c-0.2,0.1-0.3,0.1-0.5,0.2c-0.2,0-0.4,0.1-0.6,0.1c-0.3,0-0.5,0-0.7-0.1s-0.4-0.2-0.6-0.3
			s-0.3-0.3-0.4-0.5c-0.1-0.2-0.1-0.4-0.1-0.7c0-0.2,0.1-0.5,0.2-0.7c0.1-0.2,0.3-0.4,0.6-0.6c0.3-0.2,0.7-0.3,1.1-0.4
			c0.5-0.1,1-0.2,1.7-0.2V52c0-0.4-0.1-0.7-0.3-0.9s-0.4-0.3-0.8-0.3c-0.2,0-0.4,0-0.6,0.1c-0.2,0.1-0.3,0.1-0.4,0.2
			s-0.2,0.1-0.3,0.2s-0.2,0.1-0.3,0.1c-0.1,0-0.2,0-0.3-0.1c-0.1-0.1-0.1-0.1-0.2-0.2l-0.3-0.5c0.7-0.6,1.5-1,2.5-1
			c0.4,0,0.7,0.1,1,0.2c0.3,0.1,0.5,0.3,0.7,0.5c0.2,0.2,0.3,0.5,0.4,0.7c0.1,0.3,0.2,0.6,0.2,0.9V55.8z M249.9,54.9
			c0.2,0,0.3,0,0.4,0c0.1,0,0.2-0.1,0.4-0.1c0.1-0.1,0.2-0.1,0.3-0.2c0.1-0.1,0.2-0.2,0.3-0.3v-1c-0.4,0-0.8,0-1.1,0.1
			c-0.3,0.1-0.5,0.1-0.7,0.2c-0.2,0.1-0.3,0.2-0.4,0.3c-0.1,0.1-0.1,0.2-0.1,0.4c0,0.3,0.1,0.4,0.2,0.6
			C249.4,54.8,249.6,54.9,249.9,54.9z"/>
		<path class="st8" d="M256.5,55.8v-8.6h3c0.6,0,1,0.1,1.4,0.2c0.4,0.1,0.7,0.3,1,0.5s0.4,0.4,0.6,0.7c0.1,0.3,0.2,0.6,0.2,0.9
			c0,0.2,0,0.4-0.1,0.6c-0.1,0.2-0.2,0.4-0.3,0.5c-0.1,0.2-0.3,0.3-0.5,0.4c-0.2,0.1-0.4,0.2-0.7,0.3c1.2,0.3,1.8,0.9,1.8,1.9
			c0,0.4-0.1,0.7-0.2,1c-0.1,0.3-0.3,0.6-0.6,0.8c-0.3,0.2-0.6,0.4-1,0.5c-0.4,0.1-0.8,0.2-1.3,0.2H256.5z M258.1,50.9h1.3
			c0.5,0,1-0.1,1.2-0.3c0.3-0.2,0.4-0.5,0.4-0.9c0-0.4-0.1-0.8-0.4-1s-0.6-0.3-1.2-0.3h-1.4V50.9z M258.1,52.1v2.5h1.6
			c0.3,0,0.5,0,0.7-0.1c0.2-0.1,0.4-0.2,0.5-0.3c0.1-0.1,0.2-0.3,0.3-0.4c0.1-0.2,0.1-0.3,0.1-0.5c0-0.2,0-0.4-0.1-0.5
			c-0.1-0.1-0.2-0.3-0.3-0.4c-0.1-0.1-0.3-0.2-0.5-0.2c-0.2-0.1-0.4-0.1-0.7-0.1H258.1z"/>
		<path class="st8" d="M266,48c0,0.1,0,0.2-0.1,0.4c-0.1,0.1-0.1,0.2-0.2,0.3c-0.1,0.1-0.2,0.1-0.3,0.2c-0.1,0-0.2,0.1-0.4,0.1
			c-0.1,0-0.2,0-0.4-0.1c-0.1,0-0.2-0.1-0.3-0.2s-0.1-0.2-0.2-0.3c0-0.1-0.1-0.2-0.1-0.4c0-0.1,0-0.3,0.1-0.4c0-0.1,0.1-0.2,0.2-0.3
			s0.2-0.1,0.3-0.2c0.1,0,0.2-0.1,0.4-0.1c0.1,0,0.3,0,0.4,0.1c0.1,0,0.2,0.1,0.3,0.2c0.1,0.1,0.2,0.2,0.2,0.3
			C265.9,47.7,266,47.8,266,48z M265.7,49.7v6.1h-1.5v-6.1H265.7z"/>
		<path class="st8" d="M269.4,55.9c-0.5,0-0.9-0.1-1.2-0.4c-0.3-0.3-0.4-0.7-0.4-1.2v-3.4h-0.6c-0.1,0-0.1,0-0.2-0.1
			c-0.1-0.1-0.1-0.1-0.1-0.2v-0.6l1-0.2l0.3-1.7c0-0.1,0.1-0.1,0.1-0.2c0.1,0,0.1-0.1,0.2-0.1h0.8v1.9h1.6v1h-1.6v3.3
			c0,0.2,0,0.3,0.1,0.4s0.2,0.2,0.4,0.2c0.1,0,0.2,0,0.2,0c0.1,0,0.1,0,0.2-0.1c0,0,0.1,0,0.1-0.1c0,0,0.1,0,0.1,0c0,0,0.1,0,0.1,0
			s0.1,0.1,0.1,0.1l0.4,0.7c-0.2,0.2-0.5,0.3-0.7,0.4C270,55.9,269.7,55.9,269.4,55.9z"/>
		<path class="st8" d="M274.3,55.8V47h1.5v3.5c0.2-0.3,0.5-0.5,0.8-0.6c0.3-0.2,0.7-0.2,1.1-0.2c0.3,0,0.6,0.1,0.9,0.2
			c0.3,0.1,0.5,0.3,0.7,0.6c0.2,0.3,0.4,0.6,0.5,1c0.1,0.4,0.2,0.8,0.2,1.3c0,0.5-0.1,0.9-0.2,1.3c-0.1,0.4-0.3,0.7-0.5,1
			s-0.5,0.5-0.8,0.7s-0.7,0.2-1.1,0.2c-0.2,0-0.4,0-0.5-0.1c-0.2,0-0.3-0.1-0.4-0.2c-0.1-0.1-0.2-0.1-0.4-0.2
			c-0.1-0.1-0.2-0.2-0.3-0.3l-0.1,0.4c0,0.1-0.1,0.2-0.1,0.2c-0.1,0-0.1,0.1-0.2,0.1H274.3z M277.1,50.8c-0.3,0-0.6,0.1-0.8,0.2
			c-0.2,0.1-0.4,0.3-0.6,0.5v2.7c0.2,0.2,0.3,0.3,0.5,0.4s0.4,0.1,0.6,0.1c0.2,0,0.4,0,0.6-0.1s0.3-0.2,0.5-0.4
			c0.1-0.2,0.2-0.4,0.3-0.6c0.1-0.3,0.1-0.6,0.1-0.9c0-0.4,0-0.7-0.1-0.9c-0.1-0.2-0.1-0.4-0.2-0.6c-0.1-0.2-0.2-0.3-0.4-0.3
			C277.5,50.8,277.3,50.8,277.1,50.8z"/>
		<path class="st8" d="M283.5,49.6c0.4,0,0.7,0.1,1.1,0.2c0.3,0.1,0.6,0.3,0.8,0.5c0.2,0.2,0.4,0.5,0.5,0.9c0.1,0.3,0.2,0.7,0.2,1.2
			c0,0.1,0,0.2,0,0.3s0,0.1-0.1,0.2c0,0-0.1,0.1-0.1,0.1c0,0-0.1,0-0.2,0h-3.8c0,0.6,0.2,1.1,0.5,1.4c0.3,0.3,0.7,0.4,1.2,0.4
			c0.2,0,0.4,0,0.6-0.1c0.2-0.1,0.3-0.1,0.5-0.2c0.1-0.1,0.2-0.1,0.3-0.2s0.2-0.1,0.3-0.1c0.1,0,0.1,0,0.2,0c0,0,0.1,0.1,0.1,0.1
			l0.4,0.5c-0.2,0.2-0.3,0.3-0.5,0.5c-0.2,0.1-0.4,0.2-0.6,0.3c-0.2,0.1-0.4,0.1-0.7,0.2c-0.2,0-0.4,0-0.7,0c-0.4,0-0.8-0.1-1.2-0.2
			c-0.4-0.1-0.7-0.3-0.9-0.6c-0.3-0.3-0.5-0.6-0.6-1c-0.2-0.4-0.2-0.9-0.2-1.4c0-0.4,0.1-0.8,0.2-1.2c0.1-0.4,0.3-0.7,0.6-1
			c0.3-0.3,0.6-0.5,0.9-0.6C282.7,49.7,283.1,49.6,283.5,49.6z M283.6,50.7c-0.4,0-0.8,0.1-1,0.4c-0.2,0.2-0.4,0.6-0.5,1h2.8
			c0-0.2,0-0.4-0.1-0.5c-0.1-0.2-0.1-0.3-0.2-0.4c-0.1-0.1-0.2-0.2-0.4-0.3S283.8,50.7,283.6,50.7z"/>
		<path class="st8" d="M289.4,55.9c-0.5,0-0.9-0.1-1.2-0.4c-0.3-0.3-0.4-0.7-0.4-1.2v-3.4h-0.6c-0.1,0-0.1,0-0.2-0.1
			c-0.1-0.1-0.1-0.1-0.1-0.2v-0.6l1-0.2l0.3-1.7c0-0.1,0.1-0.1,0.1-0.2c0.1,0,0.1-0.1,0.2-0.1h0.8v1.9h1.6v1h-1.6v3.3
			c0,0.2,0,0.3,0.1,0.4s0.2,0.2,0.4,0.2c0.1,0,0.2,0,0.2,0c0.1,0,0.1,0,0.2-0.1c0,0,0.1,0,0.1-0.1c0,0,0.1,0,0.1,0c0,0,0.1,0,0.1,0
			s0.1,0.1,0.1,0.1l0.4,0.7c-0.2,0.2-0.5,0.3-0.7,0.4C290,55.9,289.7,55.9,289.4,55.9z"/>
		<path class="st8" d="M294,55.9c-0.5,0-0.9-0.1-1.2-0.4c-0.3-0.3-0.4-0.7-0.4-1.2v-3.4h-0.6c-0.1,0-0.1,0-0.2-0.1
			c-0.1-0.1-0.1-0.1-0.1-0.2v-0.6l1-0.2l0.3-1.7c0-0.1,0.1-0.1,0.1-0.2c0.1,0,0.1-0.1,0.2-0.1h0.8v1.9h1.6v1h-1.6v3.3
			c0,0.2,0,0.3,0.1,0.4s0.2,0.2,0.4,0.2c0.1,0,0.2,0,0.2,0c0.1,0,0.1,0,0.2-0.1c0,0,0.1,0,0.1-0.1c0,0,0.1,0,0.1,0c0,0,0.1,0,0.1,0
			s0.1,0.1,0.1,0.1l0.4,0.7c-0.2,0.2-0.5,0.3-0.7,0.4C294.5,55.9,294.3,55.9,294,55.9z"/>
		<path class="st8" d="M299.1,49.6c0.4,0,0.7,0.1,1.1,0.2c0.3,0.1,0.6,0.3,0.8,0.5c0.2,0.2,0.4,0.5,0.5,0.9c0.1,0.3,0.2,0.7,0.2,1.2
			c0,0.1,0,0.2,0,0.3s0,0.1-0.1,0.2c0,0-0.1,0.1-0.1,0.1c0,0-0.1,0-0.2,0h-3.8c0,0.6,0.2,1.1,0.5,1.4c0.3,0.3,0.7,0.4,1.2,0.4
			c0.2,0,0.4,0,0.6-0.1c0.2-0.1,0.3-0.1,0.5-0.2c0.1-0.1,0.2-0.1,0.3-0.2s0.2-0.1,0.3-0.1c0.1,0,0.1,0,0.2,0c0,0,0.1,0.1,0.1,0.1
			l0.4,0.5c-0.2,0.2-0.3,0.3-0.5,0.5c-0.2,0.1-0.4,0.2-0.6,0.3c-0.2,0.1-0.4,0.1-0.7,0.2c-0.2,0-0.4,0-0.7,0c-0.4,0-0.8-0.1-1.2-0.2
			c-0.4-0.1-0.7-0.3-0.9-0.6c-0.3-0.3-0.5-0.6-0.6-1c-0.2-0.4-0.2-0.9-0.2-1.4c0-0.4,0.1-0.8,0.2-1.2c0.1-0.4,0.3-0.7,0.6-1
			c0.3-0.3,0.6-0.5,0.9-0.6C298.2,49.7,298.6,49.6,299.1,49.6z M299.1,50.7c-0.4,0-0.8,0.1-1,0.4c-0.2,0.2-0.4,0.6-0.5,1h2.8
			c0-0.2,0-0.4-0.1-0.5c-0.1-0.2-0.1-0.3-0.2-0.4c-0.1-0.1-0.2-0.2-0.4-0.3S299.3,50.7,299.1,50.7z"/>
		<g class="st7">
			<path class="st8" d="M302.9,55.8v-6.1h0.9c0.2,0,0.3,0,0.3,0.1s0.1,0.2,0.1,0.3l0.1,0.7c0.2-0.4,0.5-0.7,0.8-0.9
				c0.3-0.2,0.6-0.3,1-0.3c0.3,0,0.5,0.1,0.7,0.2l-0.2,1.1c0,0.1,0,0.1-0.1,0.2c0,0-0.1,0-0.2,0c-0.1,0-0.1,0-0.2,0
				c-0.1,0-0.2,0-0.4,0c-0.3,0-0.6,0.1-0.8,0.3c-0.2,0.2-0.4,0.4-0.6,0.7v3.8H302.9z"/>
		</g>
		<g class="st7">
			<path class="st8" d="M306.6,55c0-0.1,0-0.2,0.1-0.3c0-0.1,0.1-0.2,0.2-0.3s0.2-0.1,0.3-0.2c0.1,0,0.2-0.1,0.4-0.1
				c0.1,0,0.2,0,0.3,0.1c0.1,0,0.2,0.1,0.3,0.2s0.1,0.2,0.2,0.3c0,0.1,0.1,0.2,0.1,0.3c0,0.1,0,0.2-0.1,0.4c0,0.1-0.1,0.2-0.2,0.3
				s-0.2,0.1-0.3,0.2c-0.1,0-0.2,0.1-0.3,0.1c-0.1,0-0.2,0-0.4-0.1c-0.1,0-0.2-0.1-0.3-0.2s-0.1-0.2-0.2-0.3
				C306.6,55.2,306.6,55.1,306.6,55z"/>
			<path class="st8" d="M309.3,55c0-0.1,0-0.2,0.1-0.3c0-0.1,0.1-0.2,0.2-0.3s0.2-0.1,0.3-0.2c0.1,0,0.2-0.1,0.4-0.1
				c0.1,0,0.2,0,0.3,0.1c0.1,0,0.2,0.1,0.3,0.2s0.1,0.2,0.2,0.3s0.1,0.2,0.1,0.3c0,0.1,0,0.2-0.1,0.4c0,0.1-0.1,0.2-0.2,0.3
				s-0.2,0.1-0.3,0.2c-0.1,0-0.2,0.1-0.3,0.1c-0.1,0-0.2,0-0.4-0.1c-0.1,0-0.2-0.1-0.3-0.2s-0.1-0.2-0.2-0.3
				C309.3,55.2,309.3,55.1,309.3,55z"/>
			<path class="st8" d="M312,55c0-0.1,0-0.2,0.1-0.3c0-0.1,0.1-0.2,0.2-0.3s0.2-0.1,0.3-0.2c0.1,0,0.2-0.1,0.4-0.1
				c0.1,0,0.2,0,0.3,0.1c0.1,0,0.2,0.1,0.3,0.2s0.1,0.2,0.2,0.3c0,0.1,0.1,0.2,0.1,0.3c0,0.1,0,0.2-0.1,0.4c0,0.1-0.1,0.2-0.2,0.3
				s-0.2,0.1-0.3,0.2c-0.1,0-0.2,0.1-0.3,0.1c-0.1,0-0.2,0-0.4-0.1c-0.1,0-0.2-0.1-0.3-0.2s-0.1-0.2-0.2-0.3
				C312,55.2,312,55.1,312,55z"/>
		</g>
	</g>
</g>
</svg>
