<svg xmlns="http://www.w3.org/2000/svg" xmlns:xlink="http://www.w3.org/1999/xlink" viewBox="0 0 36.79 36.79"><defs><style>.cls-1{isolation:isolate;}.cls-2{mix-blend-mode:multiply;}.cls-3{fill:#fff;opacity:0;}.cls-4{fill:#fdfdfd;opacity:0.02;}.cls-5{fill:#fafafa;opacity:0.04;}.cls-6{fill:#f8f8f8;opacity:0.06;}.cls-7{fill:#f5f5f5;opacity:0.08;}.cls-8{fill:#f3f3f3;opacity:0.1;}.cls-9{fill:#f0f0f1;opacity:0.12;}.cls-10{fill:#eee;opacity:0.14;}.cls-11{fill:#ebebec;opacity:0.16;}.cls-12{fill:#e9e9e9;opacity:0.18;}.cls-13{fill:#e6e6e7;opacity:0.2;}.cls-14{fill:#e4e4e5;opacity:0.22;}.cls-15{fill:#e1e2e2;opacity:0.24;}.cls-16{fill:#dfdfe0;opacity:0.25;}.cls-17{fill:#dcddde;opacity:0.27;}.cls-18{fill:#dadadb;opacity:0.29;}.cls-19{fill:#d7d8d9;opacity:0.31;}.cls-20{fill:#d5d5d6;opacity:0.33;}.cls-21{fill:#d2d3d4;opacity:0.35;}.cls-22{fill:#d0d0d2;opacity:0.37;}.cls-23{fill:#cdcecf;opacity:0.39;}.cls-24{fill:#cbcccd;opacity:0.41;}.cls-25{fill:#c8c9ca;opacity:0.43;}.cls-26{fill:#c6c7c8;opacity:0.45;}.cls-27{fill:#c3c4c6;opacity:0.47;}.cls-28{fill:#c1c2c3;opacity:0.49;}.cls-29{fill:#bebfc1;opacity:0.51;}.cls-30{fill:#bcbdbe;opacity:0.53;}.cls-31{fill:#b9babc;opacity:0.55;}.cls-32{fill:#b7b8ba;opacity:0.57;}.cls-33{fill:#b4b5b7;opacity:0.59;}.cls-34{fill:#b2b3b5;opacity:0.61;}.cls-35{fill:#afb1b2;opacity:0.63;}.cls-36{fill:#adaeb0;opacity:0.65;}.cls-37{fill:#aaacae;opacity:0.67;}.cls-38{fill:#a8a9ab;opacity:0.69;}.cls-39{fill:#a5a7a9;opacity:0.71;}.cls-40{fill:#a3a4a6;opacity:0.73;}.cls-41{fill:#a0a2a4;opacity:0.75;}.cls-42{fill:#9e9fa2;opacity:0.76;}.cls-43{fill:#9b9d9f;opacity:0.78;}.cls-44{fill:#999b9d;opacity:0.8;}.cls-45{fill:#96989b;opacity:0.82;}.cls-46{fill:#949698;opacity:0.84;}.cls-47{fill:#919396;opacity:0.86;}.cls-48{fill:#8f9193;opacity:0.88;}.cls-49{fill:#8c8e91;opacity:0.9;}.cls-50{fill:#8a8c8f;opacity:0.92;}.cls-51{fill:#87898c;opacity:0.94;}.cls-52{fill:#85878a;opacity:0.96;}.cls-53{fill:#828487;opacity:0.98;}.cls-54{fill:#808285;}.cls-55{fill:url(#linear-gradient);}.cls-56{fill:url(#linear-gradient-2);}.cls-57{fill:#18b7a0;stroke:#18b7a0;stroke-miterlimit:10;}</style><linearGradient id="linear-gradient" x1="-1.04" y1="18.28" x2="33.13" y2="18.28" gradientTransform="translate(1.05 -1.2) rotate(0.03)" gradientUnits="userSpaceOnUse"><stop offset="0" stop-color="#fff"/><stop offset="1" stop-color="#d1d3d4"/></linearGradient><linearGradient id="linear-gradient-2" x1="-0.58" y1="18.28" x2="32.68" y2="18.28" gradientTransform="translate(1.05 -1.2) rotate(0.03)" gradientUnits="userSpaceOnUse"><stop offset="0" stop-color="#d1d3d4"/><stop offset="1" stop-color="#fff"/></linearGradient></defs><title>gumb</title><g class="cls-1"><g id="Layer_2" data-name="Layer 2"><g id="Layer_18" data-name="Layer 18"><g class="cls-2"><path class="cls-3" d="M19.71,7.69a1.54,1.54,0,1,1,1.54-1.54A1.54,1.54,0,0,1,19.71,7.69Zm0-5.07A17.08,17.08,0,1,0,36.79,19.71,17.08,17.08,0,0,0,19.71,2.62Z"/><path class="cls-4" d="M19.66,7.64A1.54,1.54,0,1,1,21.19,6.1,1.54,1.54,0,0,1,19.66,7.64Zm0-5.06A17.08,17.08,0,1,0,36.73,19.66,17.07,17.07,0,0,0,19.66,2.58Z"/><path class="cls-5" d="M19.6,7.59A1.54,1.54,0,1,1,21.14,6,1.54,1.54,0,0,1,19.6,7.59Zm0-5.05A17.08,17.08,0,1,0,36.68,19.61,17.06,17.06,0,0,0,19.61,2.53Z"/><path class="cls-6" d="M19.55,7.53A1.54,1.54,0,1,1,21.09,6,1.54,1.54,0,0,1,19.55,7.53Zm0-5A17.07,17.07,0,1,0,36.63,19.56,17,17,0,0,0,19.56,2.49Z"/><path class="cls-7" d="M19.5,7.48A1.54,1.54,0,1,1,21,5.95,1.54,1.54,0,0,1,19.5,7.48Zm0-5A17.07,17.07,0,1,0,36.58,19.51,17,17,0,0,0,19.5,2.44Z"/><path class="cls-8" d="M19.45,7.43A1.54,1.54,0,1,1,21,5.9,1.54,1.54,0,0,1,19.45,7.43Zm0-5A17.07,17.07,0,1,0,36.53,19.46,17,17,0,0,0,19.45,2.4Z"/><path class="cls-9" d="M19.4,7.38a1.54,1.54,0,1,1,1.54-1.54A1.54,1.54,0,0,1,19.4,7.38Zm0-5A17.06,17.06,0,1,0,36.48,19.4,17,17,0,0,0,19.4,2.35Z"/><path class="cls-10" d="M19.35,7.33a1.54,1.54,0,1,1,1.54-1.54A1.54,1.54,0,0,1,19.35,7.33Zm0-5a17.06,17.06,0,1,0,17.08,17A17,17,0,0,0,19.35,2.31Z"/><path class="cls-11" d="M19.3,7.28a1.54,1.54,0,1,1,1.54-1.54A1.54,1.54,0,0,1,19.3,7.28Zm0-5a17.06,17.06,0,1,0,17.08,17A17,17,0,0,0,19.3,2.26Z"/><path class="cls-12" d="M19.25,7.23a1.54,1.54,0,1,1,1.54-1.54A1.54,1.54,0,0,1,19.25,7.23Zm0-5a17.05,17.05,0,1,0,17.08,17A17,17,0,0,0,19.25,2.22Z"/><path class="cls-13" d="M19.19,7.18a1.54,1.54,0,1,1,1.54-1.54A1.54,1.54,0,0,1,19.19,7.18Zm0-5a17.05,17.05,0,1,0,17.08,17A17,17,0,0,0,19.2,2.17Z"/><path class="cls-14" d="M19.14,7.12a1.54,1.54,0,1,1,1.54-1.54A1.54,1.54,0,0,1,19.14,7.12Zm0-5a17,17,0,1,0,17.08,17A17,17,0,0,0,19.15,2.13Z"/><path class="cls-15" d="M19.09,7.07a1.54,1.54,0,1,1,1.54-1.54A1.54,1.54,0,0,1,19.09,7.07Zm0-5a17,17,0,1,0,17.08,17A16.95,16.95,0,0,0,19.09,2.08Z"/><path class="cls-16" d="M19,7a1.54,1.54,0,1,1,1.54-1.54A1.54,1.54,0,0,1,19,7Zm0-5A17,17,0,1,0,36.12,19,16.94,16.94,0,0,0,19,2Z"/><path class="cls-17" d="M19,7a1.54,1.54,0,1,1,1.54-1.54A1.54,1.54,0,0,1,19,7Zm0-5A17,17,0,1,0,36.07,19,16.92,16.92,0,0,0,19,2Z"/><path class="cls-18" d="M18.94,6.92a1.54,1.54,0,1,1,1.54-1.54A1.54,1.54,0,0,1,18.94,6.92Zm0-5a17,17,0,0,0,0,34.07A17,17,0,1,0,18.94,2Z"/><path class="cls-19" d="M18.89,6.87a1.54,1.54,0,1,1,1.54-1.54A1.54,1.54,0,0,1,18.89,6.87Zm0-5a17,17,0,0,0,0,34.06,17,17,0,1,0,0-34.06Z"/><path class="cls-20" d="M18.83,6.82a1.54,1.54,0,1,1,1.54-1.54A1.54,1.54,0,0,1,18.83,6.82Zm0-5a17,17,0,0,0,0,34.05,17,17,0,1,0,0-34.05Z"/><path class="cls-21" d="M18.78,6.76a1.54,1.54,0,1,1,1.54-1.54A1.54,1.54,0,0,1,18.78,6.76Zm0-4.95a17,17,0,0,0,0,34,17,17,0,1,0,0-34Z"/><path class="cls-22" d="M18.73,6.71a1.54,1.54,0,1,1,1.54-1.54A1.54,1.54,0,0,1,18.73,6.71Zm0-4.94a16.87,16.87,0,0,0-17,16.95,17,17,0,1,0,17-16.95Z"/><path class="cls-23" d="M18.68,6.66a1.54,1.54,0,1,1,1.54-1.54A1.54,1.54,0,0,1,18.68,6.66Zm0-4.93a16.86,16.86,0,0,0-17,16.94,17,17,0,1,0,17-16.94Z"/><path class="cls-24" d="M18.63,6.61a1.54,1.54,0,1,1,1.54-1.54A1.54,1.54,0,0,1,18.63,6.61Zm0-4.93a16.84,16.84,0,0,0-17,16.94,17,17,0,1,0,17-16.94Z"/><path class="cls-25" d="M18.58,6.56A1.54,1.54,0,1,1,20.12,5,1.54,1.54,0,0,1,18.58,6.56Zm0-4.92A16.83,16.83,0,0,0,1.64,18.57,17,17,0,1,0,18.58,1.64Z"/><path class="cls-26" d="M18.53,6.51A1.54,1.54,0,1,1,20.07,5,1.54,1.54,0,0,1,18.53,6.51Zm0-4.91A16.82,16.82,0,0,0,1.59,18.52,17,17,0,1,0,18.53,1.59Z"/><path class="cls-27" d="M18.48,6.46A1.54,1.54,0,1,1,20,4.92,1.54,1.54,0,0,1,18.48,6.46Zm0-4.91A16.81,16.81,0,0,0,1.55,18.46,17,17,0,1,0,18.48,1.55Z"/><path class="cls-28" d="M18.42,6.4A1.54,1.54,0,1,1,20,4.87,1.54,1.54,0,0,1,18.42,6.4Zm0-4.9A16.8,16.8,0,0,0,1.5,18.41,17,17,0,1,0,18.43,1.5Z"/><path class="cls-29" d="M18.37,6.35a1.54,1.54,0,1,1,1.54-1.54A1.54,1.54,0,0,1,18.37,6.35Zm0-4.89A16.79,16.79,0,0,0,1.46,18.36,17,17,0,1,0,18.37,1.46Z"/><path class="cls-30" d="M18.32,6.3a1.54,1.54,0,1,1,1.54-1.54A1.54,1.54,0,0,1,18.32,6.3Zm0-4.89A16.78,16.78,0,0,0,1.41,18.31,17,17,0,1,0,18.32,1.41Z"/><path class="cls-31" d="M18.27,6.25a1.54,1.54,0,1,1,1.54-1.54A1.54,1.54,0,0,1,18.27,6.25Zm0-4.88A16.77,16.77,0,0,0,1.37,18.26,17,17,0,1,0,18.27,1.37Z"/><path class="cls-32" d="M18.22,6.2a1.54,1.54,0,1,1,1.54-1.54A1.54,1.54,0,0,1,18.22,6.2Zm0-4.87A16.75,16.75,0,0,0,1.32,18.21,17,17,0,1,0,18.22,1.32Z"/><path class="cls-33" d="M18.17,6.15a1.54,1.54,0,1,1,1.54-1.54A1.54,1.54,0,0,1,18.17,6.15Zm0-4.87A16.74,16.74,0,0,0,1.28,18.16,16.91,16.91,0,0,0,18.15,35.25,17.08,17.08,0,0,0,35.25,18.17,16.91,16.91,0,0,0,18.17,1.28Z"/><path class="cls-34" d="M18.12,6.1a1.54,1.54,0,1,1,1.54-1.54A1.54,1.54,0,0,1,18.12,6.1Zm0-4.86A16.73,16.73,0,0,0,1.23,18.1,16.91,16.91,0,0,0,18.1,35.2,17.08,17.08,0,0,0,35.19,18.12,16.91,16.91,0,0,0,18.12,1.24Z"/><path class="cls-35" d="M18.06,6A1.54,1.54,0,1,1,19.6,4.51,1.54,1.54,0,0,1,18.06,6Zm0-4.85A16.72,16.72,0,0,0,1.19,18.05,16.9,16.9,0,0,0,18.05,35.14,17.08,17.08,0,0,0,35.14,18.07,16.9,16.9,0,0,0,18.07,1.19Z"/><path class="cls-36" d="M18,6a1.54,1.54,0,1,1,1.54-1.54A1.54,1.54,0,0,1,18,6Zm0-4.85A16.71,16.71,0,0,0,1.15,18,16.9,16.9,0,0,0,18,35.09,17.08,17.08,0,0,0,35.09,18,16.9,16.9,0,0,0,18,1.15Z"/><path class="cls-37" d="M18,5.94A1.54,1.54,0,1,1,19.5,4.4,1.54,1.54,0,0,1,18,5.94ZM18,1.1A16.7,16.7,0,0,0,1.1,17.95,16.89,16.89,0,0,0,17.95,35,17.08,17.08,0,0,0,35,18,16.89,16.89,0,0,0,18,1.1Z"/><path class="cls-38" d="M17.91,5.89a1.54,1.54,0,1,1,1.54-1.54A1.54,1.54,0,0,1,17.91,5.89Zm0-4.83A16.69,16.69,0,0,0,1.06,17.9,16.89,16.89,0,0,0,17.9,35,17.08,17.08,0,0,0,35,17.91,16.89,16.89,0,0,0,17.91,1.06Z"/><path class="cls-39" d="M17.86,5.84A1.54,1.54,0,1,1,19.4,4.3,1.54,1.54,0,0,1,17.86,5.84Zm0-4.83A16.68,16.68,0,0,0,1,17.85,16.88,16.88,0,0,0,17.85,34.94,17.08,17.08,0,0,0,34.94,17.86,16.88,16.88,0,0,0,17.86,1Z"/><path class="cls-40" d="M17.81,5.79a1.54,1.54,0,1,1,1.54-1.54A1.54,1.54,0,0,1,17.81,5.79Zm0-4.82A16.66,16.66,0,0,0,1,17.8,16.87,16.87,0,0,0,17.8,34.89,17.08,17.08,0,0,0,34.89,17.81,16.87,16.87,0,0,0,17.81,1Z"/><path class="cls-41" d="M17.76,5.74A1.54,1.54,0,1,1,19.29,4.2,1.54,1.54,0,0,1,17.76,5.74Zm0-4.81A16.65,16.65,0,0,0,.92,17.74,16.87,16.87,0,0,0,17.74,34.84,17.08,17.08,0,0,0,34.84,17.76,16.87,16.87,0,0,0,17.76.92Z"/><path class="cls-42" d="M17.71,5.68a1.54,1.54,0,1,1,1.54-1.54A1.54,1.54,0,0,1,17.71,5.68Zm0-4.81A16.64,16.64,0,0,0,.88,17.69,16.86,16.86,0,0,0,17.69,34.78,17.08,17.08,0,0,0,34.78,17.71,16.86,16.86,0,0,0,17.71.88Z"/><path class="cls-43" d="M17.65,5.63A1.54,1.54,0,1,1,19.19,4.1,1.54,1.54,0,0,1,17.65,5.63Zm0-4.8A16.63,16.63,0,0,0,.83,17.64,16.86,16.86,0,0,0,17.64,34.73,17.08,17.08,0,0,0,34.73,17.66,16.86,16.86,0,0,0,17.66.83Z"/><path class="cls-44" d="M17.6,5.58A1.54,1.54,0,1,1,19.14,4,1.54,1.54,0,0,1,17.6,5.58Zm0-4.79A16.62,16.62,0,0,0,.79,17.59a16.85,16.85,0,0,0,16.8,17.09A17.08,17.08,0,0,0,34.68,17.61,16.85,16.85,0,0,0,17.6.79Z"/><path class="cls-45" d="M17.55,5.53A1.54,1.54,0,1,1,19.09,4,1.54,1.54,0,0,1,17.55,5.53Zm0-4.79A16.61,16.61,0,0,0,.74,17.54,16.85,16.85,0,0,0,17.54,34.63,17.08,17.08,0,0,0,34.63,17.55,16.85,16.85,0,0,0,17.55.74Z"/><path class="cls-46" d="M17.5,5.48A1.54,1.54,0,1,1,19,3.94,1.54,1.54,0,0,1,17.5,5.48ZM17.5.7A16.6,16.6,0,0,0,.7,17.49,16.84,16.84,0,0,0,17.49,34.58,17.08,17.08,0,0,0,34.58,17.5,16.84,16.84,0,0,0,17.5.7Z"/><path class="cls-47" d="M17.45,5.43A1.54,1.54,0,1,1,19,3.89,1.54,1.54,0,0,1,17.45,5.43Zm0-4.77A16.59,16.59,0,0,0,.65,17.44,16.83,16.83,0,0,0,17.44,34.53,17.08,17.08,0,0,0,34.53,17.45,16.83,16.83,0,0,0,17.45.65Z"/><path class="cls-48" d="M17.4,5.38a1.54,1.54,0,1,1,1.54-1.54A1.54,1.54,0,0,1,17.4,5.38Zm0-4.77A16.57,16.57,0,0,0,.61,17.38,16.83,16.83,0,0,0,17.38,34.48,17.08,17.08,0,0,0,34.48,17.4,16.83,16.83,0,0,0,17.4.61Z"/><path class="cls-49" d="M17.35,5.33a1.54,1.54,0,1,1,1.54-1.54A1.54,1.54,0,0,1,17.35,5.33Zm0-4.76A16.56,16.56,0,0,0,.56,17.33,16.82,16.82,0,0,0,17.33,34.42,17.08,17.08,0,0,0,34.42,17.35,16.82,16.82,0,0,0,17.35.57Z"/><path class="cls-50" d="M17.29,5.27a1.54,1.54,0,1,1,1.54-1.54A1.54,1.54,0,0,1,17.29,5.27Zm0-4.75A16.55,16.55,0,0,0,.52,17.28,16.82,16.82,0,0,0,17.28,34.37,17.08,17.08,0,0,0,34.37,17.3,16.82,16.82,0,0,0,17.3.52Z"/><path class="cls-51" d="M17.24,5.22a1.54,1.54,0,1,1,1.54-1.54A1.54,1.54,0,0,1,17.24,5.22Zm0-4.75A16.54,16.54,0,0,0,.48,17.23,16.81,16.81,0,0,0,17.23,34.32,17.08,17.08,0,0,0,34.32,17.25,16.81,16.81,0,0,0,17.25.48Z"/><path class="cls-52" d="M17.19,5.17a1.54,1.54,0,1,1,1.54-1.54A1.54,1.54,0,0,1,17.19,5.17Zm0-4.74A16.53,16.53,0,0,0,.43,17.18,16.81,16.81,0,0,0,17.18,34.27,17.08,17.08,0,0,0,34.27,17.19,16.81,16.81,0,0,0,17.19.43Z"/><path class="cls-53" d="M17.14,5.12a1.54,1.54,0,1,1,1.54-1.54A1.54,1.54,0,0,1,17.14,5.12Zm0-4.73A16.52,16.52,0,0,0,.39,17.13,16.8,16.8,0,0,0,17.13,34.22,17.08,17.08,0,0,0,34.22,17.14,16.8,16.8,0,0,0,17.14.39Z"/><path class="cls-54" d="M17.09,5.07a1.54,1.54,0,1,1,1.54-1.54A1.54,1.54,0,0,1,17.09,5.07Zm0-4.73A16.51,16.51,0,0,0,.34,17.08,16.8,16.8,0,0,0,17.08,34.17,17.08,17.08,0,0,0,34.17,17.09,16.8,16.8,0,0,0,17.09.34Z"/></g><path class="cls-55" d="M17.09,0A17.08,17.08,0,1,0,34.17,17.09,17.08,17.08,0,0,0,17.09,0Zm0,5.07a1.54,1.54,0,1,1,1.54-1.54A1.54,1.54,0,0,1,17.09,5.07Z"/><path class="cls-56" d="M17.08,33.71A16.63,16.63,0,1,1,33.71,17.09,16.65,16.65,0,0,1,17.08,33.71Zm0-32.17a2,2,0,1,0,2,2A2,2,0,0,0,17.09,1.54Z"/><path class="cls-57" d="M17.58,1C10.61,1,5,7,5,14.28s5.64,13.27,12.6,13.28,12.61-5.94,12.62-13.26S24.54,1,17.58,1Zm.29,4a1.37,1.37,0,0,1-1.33-1.41,1.34,1.34,0,1,1,2.67,0A1.37,1.37,0,0,1,17.87,5Z"/><ellipse class="cls-57" cx="18.17" cy="4.27" rx="2.45" ry="2.72"/></g></g></g></svg>