<svg xmlns="http://www.w3.org/2000/svg" xmlns:xlink="http://www.w3.org/1999/xlink" viewBox="0 0 455.03 188.2"><defs><style>.cls-1,.cls-10{fill:#515759;}.cls-2{fill:#02c0af;}.cls-3,.cls-4{fill:none;stroke:#4f5858;}.cls-3{stroke-linecap:round;stroke-linejoin:round;stroke-width:0.5px;}.cls-4{stroke-miterlimit:10;stroke-width:0.7px;}.cls-5{fill:#474e4b;}.cls-24,.cls-6{fill:#fff;}.cls-6{opacity:0.38;}.cls-10,.cls-24,.cls-6{isolation:isolate;}.cls-7{fill:#00a68e;}.cls-8{fill:#00b39e;}.cls-9{fill:url(#linear-gradient);}.cls-10{opacity:0.28;}.cls-11{fill:#4f5858;}.cls-12{fill:#373a35;}.cls-13{fill:#c3c4c7;}.cls-14{fill:#85898c;}.cls-15{fill:#acb1b5;}.cls-16{fill:#8b9298;}.cls-17{fill:#8dd5ef;}.cls-18{fill:url(#linear-gradient-2);}.cls-19{fill:url(#linear-gradient-3);}.cls-20{fill:#3d4642;}.cls-21{fill:url(#linear-gradient-4);}.cls-22{fill:#d92828;}.cls-23{fill:#b4eeff;}.cls-24{opacity:0.5;}</style><linearGradient id="linear-gradient" x1="223.05" y1="89.95" x2="226.83" y2="33.29" gradientTransform="matrix(1, 0, 0, -1, 0, 187.91)" gradientUnits="userSpaceOnUse"><stop offset="0" stop-color="#c3c4c7"/><stop offset="1" stop-color="#02c0af" stop-opacity="0"/></linearGradient><linearGradient id="linear-gradient-2" x1="127.17" y1="155.25" x2="187.77" y2="155.25" gradientTransform="matrix(1, 0, 0, -1, 0, 187.91)" gradientUnits="userSpaceOnUse"><stop offset="0.24" stop-color="#fff" stop-opacity="0.3"/><stop offset="1" stop-color="#8dd5ef" stop-opacity="0.4"/></linearGradient><linearGradient id="linear-gradient-3" x1="199.33" y1="148.63" x2="323.79" y2="148.63" gradientTransform="matrix(1, 0, 0, -1, 0, 187.91)" gradientUnits="userSpaceOnUse"><stop offset="0.22" stop-color="#fff" stop-opacity="0.3"/><stop offset="1" stop-color="#8dd5ef" stop-opacity="0.4"/></linearGradient><linearGradient id="linear-gradient-4" x1="-1.62" y1="106.29" x2="11.74" y2="106.29" gradientTransform="matrix(0.99, -0.03, 0.03, -0.87, 0.28, 188.32)" gradientUnits="userSpaceOnUse"><stop offset="0.18" stop-color="#83181e"/><stop offset="1" stop-color="#ac1e1d"/></linearGradient></defs><title>Asset 2zadnje-auto-svg</title><g id="Layer_2" data-name="Layer 2"><g id="Layer_1-2" data-name="Layer 1"><g id="baza_sjene" data-name="baza sjene"><path class="cls-1" d="M50.57,154.86c14.92-4.59,51.09-17.44,85.24,1.11.54.3,1.13-.68,1.61-1.07,2.76-2.25,11.49-10.87,8.28-27.93-3.8-20.16-21.55-36.57-52.38-33.87-30.39,2.67-56.17,26.4-44.7,60.56a1.52,1.52,0,0,0,1.75,1.25Z"/><path class="cls-1" d="M321.65,156.12s52.94-18.32,85.51,2.89c.58.22.39.08.9-.27,2.93-2,12.32-9.92,10.47-27.18C416.34,111.16,400,93.39,369,93.64c-30.5.25-58.09,21.85-49.36,56.82C319.85,151.36,321.65,156.12,321.65,156.12Z"/><path class="cls-2" d="M451.29,80.72h0C441.21,67.72,423,64.13,407,61c-4.24-.83-8.23-1.63-11.86-2.55-20.06-5.11-41.3-10.83-60.31-20.1-5.5-2.68-11-5.56-16.4-8.35-12.93-6.72-26.3-13.68-40.56-18.6A214.55,214.55,0,0,0,164.71,4.61C144.37,8.93,124.85,16.25,106,23.33c-14.37,5.39-29.24,11-44.24,15.11-4.56,1.26-9.39,2.28-14,3.28-8.35,1.79-17,3.63-25,6.91C12.46,52.81,5.19,59.53,2.6,67.11v.1l-.09.21c-.06.21-.07.29-.1.4h0C.53,73.91,1.59,80,2.75,85.36S5.4,96,7.09,101.28v.15a175.62,175.62,0,0,0,7,18.35c7.09,15.77,21.69,28.4,33,34.94a3.67,3.67,0,0,0,5-1.24,7.86,7.86,0,0,0,.51-2.81c0-21.92,18.19-39.75,40.53-39.75s40.53,17.82,40.53,39.75v2.14a3.62,3.62,0,0,0,3.63,3.59c16.4.06,33.18.09,50.06.09,18.18,0,36.44,0,54.39-.06,26.17,0,52.48-.07,78.69,0h.46l.36-.06a2.29,2.29,0,0,0,.6-.18,3.57,3.57,0,0,0,2.27-3.47v-2c0-21.92,18.18-39.75,40.53-39.75s40.53,17.82,40.53,39.75c0,1.36-.07,3.66-.18,4.77a3.58,3.58,0,0,0,3.27,3.87h4c9.89,0,20-.32,25.14-4,5.59-4,6.66-13.33,7.51-20.81.27-2.26.51-4.41.84-5.87,1.79-8,4-16.07,6.42-23.89l.22-.69C454.75,96.78,457.35,88.57,451.29,80.72Z"/><path class="cls-3" d="M349.74,49.06c1.73,3.74,7.2,10.27,9.58,11.83s10.49,3.75,16.68,5.67,41,11.3,43.8,13.73"/><path class="cls-3" d="M86.21,52.34C84,55.58,77.67,60.87,75.11,62S64.3,63.86,58,64.71,16.21,69,13,70.85"/><path class="cls-4" d="M190.24,66.57c-3.8,8-8.22,19.6-6.49,51.93s4.66,36.13,9.66,36.56,118.92-.3,120.66-.37c1.38-2.75,3.8-16.88,4.49-39.7s-.24-40.17-1.62-44.32Z"/><ellipse class="cls-5" cx="434.04" cy="132.56" rx="8.05" ry="3.1" transform="translate(261.38 552.26) rotate(-84.62)"/><path class="cls-6" d="M432.94,125.88h-.07a14.67,14.67,0,0,0-1.9,6.38,13.85,13.85,0,0,0,.83,7c1.74,0,3.39-2.77,3.73-6.37S434.72,126,432.94,125.88Z"/><path class="cls-5" d="M439.24,140.57c-2.43,1.12-11.36,3.89-13.37,4.66a35.65,35.65,0,0,0-1.69,5.55c2.62-.15,12.19-1.22,16.19-2.61h0C438.79,145.87,438.66,143.36,439.24,140.57Z"/><path class="cls-7" d="M215.11,88.41c0-3.51,2.31-9.12,11.4-9.12s10.26,6.09,10.17,9.32-1.84,9.63-10.32,8.86S215.11,93.11,215.11,88.41Z"/><path class="cls-8" d="M205.86,88.07c-.13,1.38.77,3.08,4.31,2.77,6.29-.55,24.84.58,28,1.23,3,.62,5.55-4.37,1.69-5.55s-15.4-1.33-21.11-1.39C209.56,85.06,206.17,84.68,205.86,88.07Z"/><circle class="cls-3" cx="85.37" cy="85.94" r="10.64"/><path class="cls-7" d="M74.74,83.26c1.21,0,3.54.11,3.54,2,0,2.17-1.67,2.78-3.34,2.79C73.85,87.45,74.12,84.15,74.74,83.26Z"/><path class="cls-9" d="M323,127.8c-36.88-2.92-165-8.9-198.41-9.31-1.27,0-5.58,1.5-4.63,2.34,9.91,8.88,12.26,18.61,12.76,20.73a54.28,54.28,0,0,1,1.12,12c0,1.13,1.84,2.67,3,2.7,18.91.5,59.41.19,81.54.17,24.48,0,81.58-.11,102.65-.11a3.88,3.88,0,0,0,3.18-3.16l.12-6c.08-4.06,2.25-11.36,5.49-17.13C330.31,129,329.43,128.31,323,127.8Z"/><path class="cls-10" d="M139.46,156.39c2.16-26.19-20-50.23-44.68-50.23S49.25,127.84,50.13,155a3.68,3.68,0,0,0,2.54-2.88c-.46-6,1.61-18.51,9.1-26.55,6.74-9.5,21.38-14.52,30.24-14.52,20.26-.64,32.55,11.94,37.9,22.65,4.13,8.27,3.52,19.87,4,20.2a3.82,3.82,0,0,0,1.55,1.92C136.26,156.56,138.14,156.41,139.46,156.39Z"/><path class="cls-10" d="M411,159.32c2.16-26.19-19.82-52.85-44.5-52.85s-45.73,22.5-44.85,49.7a3.54,3.54,0,0,0,2.43-3.6c-.46-6,1.92-18.61,9.4-26.64,6.74-9.5,21.38-14.52,30.24-14.52,20.26-.64,32.41,12,37.77,22.74,4.13,8.27,3.16,21.72,3.49,22.32a3.55,3.55,0,0,0,1.82,2.42A8.68,8.68,0,0,0,411,159.32Z"/><path class="cls-11" d="M337.18,44.16l-10.47,8.25a.25.25,0,0,1-.34,0h0a.25.25,0,0,1,0-.34L336.62,44Z"/></g><circle class="cls-12" cx="93.45" cy="151.79" r="36.41" transform="translate(-61.45 239.99) rotate(-88.04)"/><circle class="cls-13" cx="93.45" cy="151.79" r="25.36" transform="translate(-61.45 239.99) rotate(-88.04)"/><path class="cls-14" d="M99.17,148.23l12.07-6a2.19,2.19,0,0,0,.85-3.19A22.51,22.51,0,0,0,101,130.4,2.2,2.2,0,0,0,98,132l-2.79,13.18a2.73,2.73,0,0,0,3.93,3ZM92,145.12l-2-13.33a2.2,2.2,0,0,0-2.5-1.85l-.27.06a22.51,22.51,0,0,0-11.65,7.91A2.19,2.19,0,0,0,76,141l.24.16,11.67,6.77A2.73,2.73,0,0,0,92,145.12Zm-1.22,12.56L84.53,169.6a2.19,2.19,0,0,0,.91,3l.26.12a22.49,22.49,0,0,0,14.11.48,2.19,2.19,0,0,0,1.37-3l-5.45-12.32a2.73,2.73,0,0,0-5-.16Zm22.7-7.69-13.4,1.4A2.73,2.73,0,0,0,98.44,156l9.41,9.65a2.19,2.19,0,0,0,3.1,0l.18-.2a22.36,22.36,0,0,0,4.8-13.13v-.17a2.19,2.19,0,0,0-2.15-2.23l-.3,0Zm-26.65,1-13.29-2.22a2.18,2.18,0,0,0-2.55,2h0a22.36,22.36,0,0,0,4,13.55,2.19,2.19,0,0,0,3.05.54l.22-.18,10-9a2.73,2.73,0,0,0-1.46-4.7Z"/><circle class="cls-15" cx="93.45" cy="151.79" r="1.82" transform="translate(-61.08 240.65) rotate(-88.28)"/><circle class="cls-16" cx="93.46" cy="154.88" r="0.85" transform="translate(-64.52 243) rotate(-88.04)"/><circle class="cls-16" cx="96.54" cy="152.73" r="0.85" transform="translate(-79.91 191.61) rotate(-70.13)"/><circle class="cls-16" cx="95.27" cy="149" r="0.85" transform="translate(-80.87 133.05) rotate(-52.23)"/><circle class="cls-16" cx="91.64" cy="149.12" r="0.85" transform="translate(-67.73 76.76) rotate(-34.01)"/><circle class="cls-16" cx="90.28" cy="152.53" r="0.85" transform="translate(-39.46 31.76) rotate(-16.43)"/><circle class="cls-12" cx="364.45" cy="151.79" r="36.41" transform="translate(200.28 510.83) rotate(-88.04)"/><circle class="cls-13" cx="364.45" cy="151.79" r="25.36" transform="translate(200.28 510.83) rotate(-88.04)"/><path class="cls-14" d="M370.17,148.23l12.07-6a2.19,2.19,0,0,0,.85-3.19A22.51,22.51,0,0,0,372,130.4,2.2,2.2,0,0,0,369,132l-2.79,13.18a2.73,2.73,0,0,0,3.93,3ZM363,145.12l-2-13.33a2.2,2.2,0,0,0-2.5-1.85l-.27.06a22.51,22.51,0,0,0-11.65,7.91A2.19,2.19,0,0,0,347,141l.24.16,11.67,6.77a2.73,2.73,0,0,0,4.09-2.79Zm-1.22,12.56-6.28,11.92a2.19,2.19,0,0,0,.91,3l.26.12a22.49,22.49,0,0,0,14.11.48,2.19,2.19,0,0,0,1.37-3l-5.45-12.32a2.73,2.73,0,0,0-5-.16Zm22.7-7.69-13.4,1.4a2.73,2.73,0,0,0-1.67,4.62l9.41,9.65a2.19,2.19,0,0,0,3.1,0l.18-.2a22.36,22.36,0,0,0,4.8-13.13v-.17a2.19,2.19,0,0,0-2.15-2.23l-.3,0Zm-26.65,1-13.29-2.22a2.18,2.18,0,0,0-2.55,2h0a22.36,22.36,0,0,0,4,13.55,2.19,2.19,0,0,0,3.05.54l.22-.18,10-9a2.73,2.73,0,0,0-1.46-4.7Z"/><circle class="cls-15" cx="364.45" cy="151.79" r="1.82" transform="translate(201.8 511.52) rotate(-88.28)"/><circle class="cls-16" cx="364.46" cy="154.88" r="0.85" transform="translate(197.21 513.84) rotate(-88.04)"/><circle class="cls-16" cx="367.54" cy="152.73" r="0.85" transform="translate(98.98 446.48) rotate(-70.13)"/><circle class="cls-16" cx="366.27" cy="149" r="0.85" transform="translate(24.15 347.27) rotate(-52.23)"/><circle class="cls-16" cx="362.64" cy="149.12" r="0.85" transform="translate(-21.38 228.33) rotate(-34.01)"/><circle class="cls-16" cx="361.28" cy="152.53" r="0.85" transform="translate(-28.39 108.41) rotate(-16.43)"/><g id="prozori_i_retrovizor" data-name="prozori i retrovizor"><path class="cls-11" d="M331.1,62c-1.22,5.56-5.45,9.24-10.51,9.12L197.4,68.34C191.55,68.21,186.87,62.7,187,56l.63-37.54c.12-6.91-49.54-11.26,10.76-13.22C243.16,3.79,297.48,30.33,326,48.51A12.61,12.61,0,0,1,331.1,62Z"/><path class="cls-11" d="M192.44,55c-.13,7.49,52.76,14.78-14.38,13.28l-70.87-1.6a14.16,14.16,0,0,1-13.08-9,13.07,13.07,0,0,1,2.26-13.18C108.83,29.74,133,11.15,177.21,6.45a14.66,14.66,0,0,1,12,4.31A13.34,13.34,0,0,1,193,20.29Z"/><path class="cls-17" d="M187.13,52.21C187,58.33,181.6,63.21,175,63L115.25,61.7a12,12,0,0,1-11-7.39,10.4,10.4,0,0,1,1.9-10.76c10.5-12,30.83-27.22,68.15-31A12.61,12.61,0,0,1,184.39,16a10.72,10.72,0,0,1,3.21,7.81Z"/><path class="cls-17" d="M323.48,58.95a9.28,9.28,0,0,1-9.3,7.4L205,63.89a9.7,9.7,0,0,1-9.24-10l.51-30.54a10.77,10.77,0,0,1,9.52-10.74C245.29,8.84,293.64,33.15,318.93,48A9.91,9.91,0,0,1,323.48,58.95Z"/><path class="cls-18" d="M187.29,52.46c-.07,4.42-71.66-20.57-58.51-26.86,10.88-5.21,17-9.54,45.53-13.18A12.37,12.37,0,0,1,184.52,16a10.82,10.82,0,0,1,3.24,7.88Z"/><path class="cls-19" d="M323.48,58.95a9.28,9.28,0,0,1-9.3,7.4S221.27,46.07,199.73,17.87c-1.45-1.9,1.06-4.11,6.14-5.29C245.29,8.84,293.64,33.15,318.93,48A9.91,9.91,0,0,1,323.48,58.95Z"/><polygon class="cls-11" points="324 67.24 313.96 69.05 309.67 41.11 323.67 50.47 324 67.24"/><path class="cls-2" d="M292.18,54.11c.72-1.07,5.77-5.33,11.11-5.39s16.62,2.83,21.38,6.37c.54,1.81-1.6,7.07-5.35,11.46-4.69,1.87-20.64.6-26.57-.3C290.79,64.67,290.72,58.42,292.18,54.11Z"/><path class="cls-20" d="M293.23,61a53.25,53.25,0,0,1,.08-6.72c.15-1.08,4-3.92,6.88-5a17.81,17.81,0,0,0-8,4.92c-1.46,4.3-1.38,10.55.57,12.13,5.92.91,21.88,2.17,26.57.3A29.59,29.59,0,0,0,322,62.8C313.32,62.91,295.4,62,293.23,61Z"/></g><g id="svjetla"><path class="cls-21" d="M14.39,87.11c2,8-.46,16.13-3.68,16.89-1.69.4-4.76-1.13-5.8-4.08A98,98,0,0,1,2,90"/><path class="cls-22" d="M2,90C1,86.3-.23,81.23,0,78.42c.4-3.26,2.88-5.34,4.63-5.41,2.75-.13,7.65,5.93,9.73,14.17"/><path class="cls-23" d="M428.34,88.93c2.52,3.37,8.74,7.27,10.63,5.37s-1.09-7.24-3.61-10.61-6.13-4.94-8.07-3.49S425.83,85.56,428.34,88.93Z"/><path class="cls-23" d="M442.94,93.13c-5-8.81-6.18-12.81-4.51-13.79s10.67,4.58,13,14.57c.74,3.09,0,7.31-2.31,6.77S444.57,96,442.94,93.13Z"/><path class="cls-24" d="M426.2,82.08a2.67,2.67,0,0,1,.9-1c2.16-1.35,6,.85,8.49,4.9,2.07,3.32,2.64,6.85,1.6,8.76-2.66-.26-6.88-3.2-8.85-5.84C426.58,86.57,425.83,83.94,426.2,82.08Z"/><path class="cls-24" d="M442.94,93.13c-3.7-6.48-5.29-10.35-5.22-12.34,3.72.8,9.34,6.85,10.71,11.8.93,3.36.26,6-.77,7.28C445.87,98.4,444.22,95.37,442.94,93.13Z"/></g><g id="vjetrobran"><path class="cls-17" d="M340,45.6a40.29,40.29,0,0,0,2.17-3.87C334.53,39.62,291.84,11.95,255.45,5c-5.09-1-6.52-1.49-7.32-1.37-.49.07-.06,1-.2,1.91a.76.76,0,0,0,.44.87C271.42,14,286.56,18.77,340,45.6Z"/><path class="cls-11" d="M342.13,41.62c-.28,1.56-3.39,2.92-1.88,4.08a27.12,27.12,0,0,0,12.18,3.75c2,0,5.24-.75,5.74-1.61C349.89,44.71,342.89,41.82,342.13,41.62Z"/><circle class="cls-5" cx="344.92" cy="44.88" r="1.62"/><path class="cls-20" d="M344.92,44.38A1.14,1.14,0,0,0,343.78,46c.48.82,2.76,1.94,3.33,1.67S346.58,44.39,344.92,44.38Z"/></g></g></g></svg>