<svg xmlns="http://www.w3.org/2000/svg" viewBox="0 0 518.77 548.82"><defs><style>.cls-1,.cls-3{fill:#ebd065;}.cls-2,.cls-9{fill:#cbb659;}.cls-2,.cls-3,.cls-6,.cls-8{fill-rule:evenodd;}.cls-4{fill:#a6a7a7;}.cls-5{fill:#b3b3b3;}.cls-6,.cls-7{fill:#4d4d4d;}.cls-10,.cls-8{fill:#4e5a7d;}</style></defs><title>Asset 48dizalica</title><g id="Layer_2" data-name="Layer 2"><g id="Radiona"><path class="cls-1" d="M3.74,500.46V461.88a13.18,13.18,0,0,1,13.08-13.24H25a16.94,16.94,0,0,0,16.82-17v-40.1c0-9.7-3.78-17-8.78-17-2.06,0-5-5.16-5-13.24V335.92c0-7.78,4.59-19,10-24.49l.43-.44v-5.35l-3.08,3.11C29.29,315,24.3,327.14,24.3,335.92v25.34c0,9.7,3.78,17,8.78,17,2.06,0,5,5.16,5,13.24v40.1A13.18,13.18,0,0,1,25,444.86H16.82A16.94,16.94,0,0,0,0,461.88v38.58a16.94,16.94,0,0,0,16.82,17H60.93V513.7H16.82A13.18,13.18,0,0,1,3.74,500.46Z"/><path class="cls-1" d="M32.9,163h-15A16.94,16.94,0,0,1,1.13,146V80.19c0-9.39,7.21-17,16.07-17h14.2V67H17.2C10.4,67,4.87,72.89,4.87,80.19V146a13.18,13.18,0,0,0,13.08,13.24h15Z"/><path class="cls-2" d="M432.26,41.38c0,.74-.36,1.34-.81,1.34H416.27c-.45,0-.81-.6-.81-1.34h0c0-.74.36-1.34.81-1.34h15.18c.45,0,.81.6.81,1.34Z"/><path class="cls-3" d="M432.44,29.8a1.77,1.77,0,0,1-.42,1.77l-15.42,11c-.41.29-.89,0-1.06-.7h0a1.77,1.77,0,0,1,.42-1.77l15.42-11c.41-.29.89,0,1.07.7Z"/><path class="cls-2" d="M432.26,52.38c0,.74-.36,1.34-.81,1.34H416.27c-.45,0-.81-.6-.81-1.34h0c0-.74.36-1.34.81-1.34h15.18c.45,0,.81.6.81,1.34Z"/><path class="cls-3" d="M432.44,40.8a1.77,1.77,0,0,1-.42,1.77l-15.42,11c-.41.29-.89,0-1.06-.7h0a1.77,1.77,0,0,1,.42-1.77l15.42-11c.41-.29.89,0,1.07.7Z"/><path class="cls-2" d="M432.26,63.5c0,.74-.36,1.34-.81,1.34H416.27c-.45,0-.81-.6-.81-1.34h0c0-.74.36-1.34.81-1.34h15.18c.45,0,.81.6.81,1.34Z"/><path class="cls-3" d="M432.44,51.92a1.77,1.77,0,0,1-.42,1.77l-15.42,11c-.41.29-.89,0-1.06-.7h0a1.77,1.77,0,0,1,.42-1.77l15.42-11c.41-.29.89,0,1.07.7Z"/><path class="cls-2" d="M432.26,74.62c0,.74-.36,1.34-.81,1.34H416.27c-.45,0-.81-.6-.81-1.34h0c0-.74.36-1.34.81-1.34h15.18c.45,0,.81.6.81,1.34Z"/><path class="cls-3" d="M432.44,63a1.77,1.77,0,0,1-.42,1.77l-15.42,11c-.41.29-.89,0-1.06-.7h0a1.77,1.77,0,0,1,.42-1.77l15.42-11c.41-.29.89,0,1.07.7Z"/><path class="cls-2" d="M432.26,85.74c0,.74-.36,1.34-.81,1.34H416.27c-.45,0-.81-.6-.81-1.34h0c0-.74.36-1.34.81-1.34h15.18c.45,0,.81.6.81,1.34Z"/><path class="cls-3" d="M432.44,74.16a1.77,1.77,0,0,1-.42,1.77L416.59,87c-.41.29-.89,0-1.06-.7h0a1.77,1.77,0,0,1,.42-1.77l15.42-11c.41-.29.89,0,1.07.7Z"/><path class="cls-2" d="M432.26,96.86c0,.74-.36,1.34-.81,1.34H416.27c-.45,0-.81-.6-.81-1.34h0c0-.74.36-1.34.81-1.34h15.18c.45,0,.81.6.81,1.34Z"/><path class="cls-3" d="M432.44,85.28a1.77,1.77,0,0,1-.42,1.77l-15.42,11c-.41.29-.89,0-1.06-.7h0a1.77,1.77,0,0,1,.42-1.77l15.42-11c.41-.29.89,0,1.07.7Z"/><path class="cls-2" d="M432.26,108c0,.74-.36,1.34-.81,1.34H416.27c-.45,0-.81-.6-.81-1.34h0c0-.74.36-1.34.81-1.34h15.18c.45,0,.81.6.81,1.34Z"/><path class="cls-3" d="M432.44,96.41a1.77,1.77,0,0,1-.42,1.77l-15.42,11c-.41.29-.89,0-1.06-.7h0a1.77,1.77,0,0,1,.42-1.77l15.42-11c.41-.29.89,0,1.07.7Z"/><path class="cls-2" d="M432.26,119.11c0,.74-.36,1.34-.81,1.34H416.27c-.45,0-.81-.6-.81-1.34h0c0-.74.36-1.34.81-1.34h15.18c.45,0,.81.6.81,1.34Z"/><path class="cls-3" d="M432.44,107.53a1.77,1.77,0,0,1-.42,1.77l-15.42,11c-.41.29-.89,0-1.06-.7h0a1.77,1.77,0,0,1,.42-1.77l15.42-11c.41-.29.89,0,1.07.7Z"/><path class="cls-2" d="M432.26,130.23c0,.74-.36,1.34-.81,1.34H416.27c-.45,0-.81-.6-.81-1.34h0c0-.74.36-1.34.81-1.34h15.18c.45,0,.81.6.81,1.34Z"/><path class="cls-3" d="M432.44,118.65a1.77,1.77,0,0,1-.42,1.77l-15.42,11c-.41.29-.89,0-1.06-.7h0a1.77,1.77,0,0,1,.42-1.77l15.42-11c.41-.29.89,0,1.07.7Z"/><path class="cls-2" d="M432.26,141.35c0,.74-.36,1.34-.81,1.34H416.27c-.45,0-.81-.6-.81-1.34h0c0-.74.36-1.34.81-1.34h15.18c.45,0,.81.6.81,1.34Z"/><path class="cls-3" d="M432.44,129.77a1.77,1.77,0,0,1-.42,1.77l-15.42,11c-.41.29-.89,0-1.06-.7h0a1.77,1.77,0,0,1,.42-1.77l15.42-11c.41-.29.89,0,1.07.7Z"/><path class="cls-2" d="M432.26,152.47c0,.74-.36,1.34-.81,1.34H416.27c-.45,0-.81-.6-.81-1.34h0c0-.74.36-1.34.81-1.34h15.18c.45,0,.81.6.81,1.34Z"/><path class="cls-3" d="M432.44,140.89a1.77,1.77,0,0,1-.42,1.77l-15.42,11c-.41.29-.89,0-1.06-.7h0a1.77,1.77,0,0,1,.42-1.77l15.42-11c.41-.29.89,0,1.07.7Z"/><path class="cls-2" d="M432.26,163.6c0,.74-.36,1.34-.81,1.34H416.27c-.45,0-.81-.6-.81-1.34h0c0-.74.36-1.34.81-1.34h15.18c.45,0,.81.6.81,1.34Z"/><path class="cls-3" d="M432.44,152a1.77,1.77,0,0,1-.42,1.77l-15.42,11c-.41.29-.89,0-1.06-.7h0a1.77,1.77,0,0,1,.42-1.77l15.42-11c.41-.29.89,0,1.07.7Z"/><path class="cls-3" d="M432.44,163.14a1.77,1.77,0,0,1-.42,1.77l-15.42,11c-.41.29-.89,0-1.06-.7h0a1.77,1.77,0,0,1,.42-1.77l15.42-11c.41-.3.89,0,1.07.7Z"/><rect class="cls-4" x="417.13" y="182.09" width="1.08" height="17.97"/><rect class="cls-5" x="414.25" y="182.58" width="7.19" height="3.67"/><path class="cls-6" d="M421.44,184.41v-9.29c0-1.35-1.61-2.45-3.59-2.45s-3.59,1.09-3.59,2.45v9.29Z"/><ellipse class="cls-4" cx="417.76" cy="174.45" rx="1.35" ry="0.92"/><rect class="cls-7" x="83.65" y="534.29" width="435.12" height="13.62"/><rect class="cls-7" x="286.14" y="101.65" width="43.55" height="440.3"/><polygon class="cls-8" points="507.81 14.36 38.79 14.36 24.77 14.36 24.77 22.3 24.77 545.41 38.79 545.41 38.79 22.3 507.81 22.3 507.81 14.36"/><path class="cls-6" d="M.95,548.82H99.6C89.08,501.23,24.14,500.88.95,502.32Z"/><ellipse class="cls-1" cx="29.54" cy="525.55" rx="9.53" ry="9.64"/><path class="cls-2" d="M231.16,46.17c0,1-.5,1.86-1.12,1.86H209c-.62,0-1.12-.83-1.12-1.86h0c0-1,.5-1.86,1.12-1.86h21c.62,0,1.12.83,1.12,1.86Z"/><path class="cls-3" d="M231.4,30.11a2.46,2.46,0,0,1-.59,2.45L209.43,47.88c-.57.41-1.23,0-1.48-1h0a2.46,2.46,0,0,1,.59-2.45l21.38-15.32c.57-.41,1.23,0,1.48,1Z"/><path class="cls-2" d="M231.16,61.42c0,1-.5,1.86-1.12,1.86H209c-.62,0-1.12-.83-1.12-1.86h0c0-1,.5-1.86,1.12-1.86h21c.62,0,1.12.83,1.12,1.86Z"/><path class="cls-3" d="M231.4,45.36a2.46,2.46,0,0,1-.59,2.45L209.43,63.13c-.57.41-1.23,0-1.48-1h0a2.46,2.46,0,0,1,.59-2.45l21.38-15.32c.57-.41,1.23,0,1.48,1Z"/><path class="cls-2" d="M231.16,76.84c0,1-.5,1.86-1.12,1.86H209c-.62,0-1.12-.83-1.12-1.86h0c0-1,.5-1.86,1.12-1.86h21c.62,0,1.12.83,1.12,1.86Z"/><path class="cls-3" d="M231.4,60.78a2.46,2.46,0,0,1-.59,2.45L209.43,78.55c-.57.41-1.23,0-1.48-1h0a2.46,2.46,0,0,1,.59-2.45l21.38-15.32c.57-.41,1.23,0,1.48,1Z"/><path class="cls-2" d="M231.16,92.26c0,1-.5,1.86-1.12,1.86H209c-.62,0-1.12-.83-1.12-1.86h0c0-1,.5-1.86,1.12-1.86h21c.62,0,1.12.83,1.12,1.86Z"/><path class="cls-3" d="M231.4,76.2a2.46,2.46,0,0,1-.59,2.45L209.43,94c-.57.41-1.23,0-1.48-1h0a2.46,2.46,0,0,1,.59-2.45l21.38-15.32c.57-.41,1.23,0,1.48,1Z"/><path class="cls-2" d="M231.16,107.68c0,1-.5,1.86-1.12,1.86H209c-.62,0-1.12-.83-1.12-1.86h0c0-1,.5-1.86,1.12-1.86h21c.62,0,1.12.83,1.12,1.86Z"/><path class="cls-3" d="M231.4,91.62a2.46,2.46,0,0,1-.59,2.45l-21.38,15.32c-.57.41-1.23,0-1.48-1h0a2.46,2.46,0,0,1,.59-2.45l21.38-15.32c.57-.41,1.23,0,1.48,1Z"/><path class="cls-2" d="M231.16,123.1c0,1-.5,1.86-1.12,1.86H209c-.62,0-1.12-.83-1.12-1.86h0c0-1,.5-1.86,1.12-1.86h21c.62,0,1.12.83,1.12,1.86Z"/><path class="cls-3" d="M231.4,107a2.46,2.46,0,0,1-.59,2.45l-21.38,15.32c-.57.41-1.23,0-1.48-1h0a2.46,2.46,0,0,1,.59-2.45l21.38-15.32c.57-.41,1.23,0,1.48,1Z"/><path class="cls-2" d="M231.16,138.52c0,1-.5,1.86-1.12,1.86H209c-.62,0-1.12-.83-1.12-1.86h0c0-1,.5-1.86,1.12-1.86h21c.62,0,1.12.83,1.12,1.86Z"/><path class="cls-3" d="M231.4,122.46a2.46,2.46,0,0,1-.59,2.45l-21.38,15.32c-.57.41-1.23,0-1.48-1h0a2.46,2.46,0,0,1,.59-2.45l21.38-15.32c.57-.41,1.23,0,1.48,1Z"/><path class="cls-2" d="M231.16,153.94c0,1-.5,1.86-1.12,1.86H209c-.62,0-1.12-.83-1.12-1.86h0c0-1,.5-1.86,1.12-1.86h21c.62,0,1.12.83,1.12,1.86Z"/><path class="cls-3" d="M231.4,137.88a2.46,2.46,0,0,1-.59,2.45l-21.38,15.32c-.57.41-1.23,0-1.48-1h0a2.46,2.46,0,0,1,.59-2.45l21.38-15.32c.57-.41,1.23,0,1.48,1Z"/><path class="cls-2" d="M231.16,169.36c0,1-.5,1.86-1.12,1.86H209c-.62,0-1.12-.83-1.12-1.86h0c0-1,.5-1.86,1.12-1.86h21c.62,0,1.12.83,1.12,1.86Z"/><path class="cls-3" d="M231.4,153.3a2.46,2.46,0,0,1-.59,2.45l-21.38,15.32c-.57.41-1.23,0-1.48-1h0a2.46,2.46,0,0,1,.59-2.45l21.38-15.32c.57-.41,1.23,0,1.48,1Z"/><path class="cls-2" d="M231.16,184.78c0,1-.5,1.86-1.12,1.86H209c-.62,0-1.12-.83-1.12-1.86h0c0-1,.5-1.86,1.12-1.86h21c.62,0,1.12.83,1.12,1.86Z"/><path class="cls-3" d="M231.4,168.72a2.46,2.46,0,0,1-.59,2.45l-21.38,15.32c-.57.41-1.23,0-1.48-1h0a2.46,2.46,0,0,1,.59-2.45l21.38-15.32c.57-.41,1.23,0,1.48,1Z"/><path class="cls-2" d="M231.16,200.2c0,1-.5,1.86-1.12,1.86H209c-.62,0-1.12-.83-1.12-1.86h0c0-1,.5-1.86,1.12-1.86h21c.62,0,1.12.83,1.12,1.86Z"/><path class="cls-3" d="M231.4,184.14a2.46,2.46,0,0,1-.59,2.45l-21.38,15.32c-.57.41-1.23,0-1.48-1h0a2.46,2.46,0,0,1,.59-2.45l21.38-15.32c.57-.41,1.23,0,1.48,1Z"/><path class="cls-2" d="M231.16,215.62c0,1-.5,1.86-1.12,1.86H209c-.62,0-1.12-.84-1.12-1.86h0c0-1,.5-1.86,1.12-1.86h21c.62,0,1.12.84,1.12,1.86Z"/><path class="cls-3" d="M231.4,199.56a2.45,2.45,0,0,1-.59,2.45l-21.38,15.32c-.57.41-1.23,0-1.48-1h0a2.46,2.46,0,0,1,.59-2.45l21.38-15.32c.57-.41,1.23,0,1.48,1Z"/><path class="cls-3" d="M231.4,215a2.46,2.46,0,0,1-.59,2.45l-21.38,15.32c-.57.41-1.23,0-1.48-1h0a2.46,2.46,0,0,1,.59-2.45L229.93,214c.57-.41,1.23,0,1.48,1Z"/><path class="cls-8" d="M178.84,21.72c4,13.21,22.76,23.2,45.3,23.2s41.28-10,45.3-23.2Z"/><ellipse class="cls-9" cx="223.64" cy="33.57" rx="7.23" ry="7.31"/><path class="cls-8" d="M388.81,20.2c3.23,10.62,18.31,18.66,36.43,18.66s33.2-8,36.43-18.66Z"/><ellipse class="cls-9" cx="424.85" cy="29.73" rx="5.81" ry="5.88"/><rect class="cls-4" x="223.62" y="247.85" width="1.5" height="37.07"/><rect class="cls-5" x="219.63" y="248.86" width="9.97" height="7.57"/><path class="cls-6" d="M229.6,252.64V233.48a5,5,0,1,0-10,0v19.16Z"/><ellipse class="cls-4" cx="224.49" cy="232.09" rx="1.87" ry="1.89"/><ellipse class="cls-1" cx="34.4" cy="21.94" rx="21.68" ry="21.94"/><ellipse class="cls-10" cx="34.4" cy="21.94" rx="10.47" ry="10.59"/></g></g></svg>