<svg xmlns="http://www.w3.org/2000/svg" viewBox="0 0 1920 564.32"><defs><style>.cls-1{fill:#b2b2b2;}</style></defs><title>Asset 2</title><g id="Layer_2" data-name="Layer 2"><g id="Grad"><rect class="cls-1" x="1037.03" y="119.9" width="83.44" height="28.14"/><rect class="cls-1" x="1025.71" y="136.69" width="107.4" height="427.62"/><rect class="cls-1" x="1086.02" y="367.3" width="34.7" height="56.29"/><rect class="cls-1" x="1036.86" y="367.3" width="34.7" height="56.29"/><rect class="cls-1" x="1086.02" y="435.39" width="34.7" height="56.29"/><rect class="cls-1" x="1036.86" y="435.39" width="34.7" height="56.29"/><rect class="cls-1" x="1086.02" y="299.21" width="34.7" height="56.29"/><rect class="cls-1" x="1036.86" y="299.21" width="34.7" height="56.29"/><rect class="cls-1" x="1086.02" y="231.12" width="34.7" height="56.29"/><rect class="cls-1" x="1036.86" y="231.12" width="34.7" height="56.29"/><rect class="cls-1" x="1086.02" y="163.02" width="34.7" height="56.29"/><rect class="cls-1" x="1036.86" y="163.02" width="34.7" height="56.29"/><rect class="cls-1" x="120.34" y="44.4" width="83.44" height="32.93"/><rect class="cls-1" x="109.01" y="64.04" width="107.4" height="500.27"/><rect class="cls-1" x="169.33" y="333.83" width="34.7" height="65.85"/><rect class="cls-1" x="120.17" y="333.83" width="34.7" height="65.85"/><rect class="cls-1" x="169.33" y="413.49" width="34.7" height="65.85"/><rect class="cls-1" x="120.17" y="413.49" width="34.7" height="65.85"/><rect class="cls-1" x="169.33" y="254.17" width="34.7" height="65.85"/><rect class="cls-1" x="120.17" y="254.17" width="34.7" height="65.85"/><rect class="cls-1" x="169.33" y="174.51" width="34.7" height="65.85"/><rect class="cls-1" x="120.17" y="174.51" width="34.7" height="65.85"/><rect class="cls-1" x="169.33" y="94.85" width="34.7" height="65.85"/><rect class="cls-1" x="120.17" y="94.85" width="34.7" height="65.85"/><rect class="cls-1" x="1351.23" y="119.9" width="83.44" height="28.14"/><rect class="cls-1" x="1339.91" y="136.69" width="107.4" height="427.62"/><rect class="cls-1" x="1400.22" y="367.3" width="34.7" height="56.29"/><rect class="cls-1" x="1351.06" y="367.3" width="34.7" height="56.29"/><rect class="cls-1" x="1400.22" y="435.39" width="34.7" height="56.29"/><rect class="cls-1" x="1351.06" y="435.39" width="34.7" height="56.29"/><rect class="cls-1" x="1400.22" y="299.21" width="34.7" height="56.29"/><rect class="cls-1" x="1351.06" y="299.21" width="34.7" height="56.29"/><rect class="cls-1" x="1400.22" y="231.12" width="34.7" height="56.29"/><rect class="cls-1" x="1351.06" y="231.12" width="34.7" height="56.29"/><rect class="cls-1" x="1400.22" y="163.02" width="34.7" height="56.29"/><rect class="cls-1" x="1351.06" y="163.02" width="34.7" height="56.29"/><rect class="cls-1" x="1152.04" y="229.71" width="85.92" height="20.52"/><rect class="cls-1" x="1138.24" y="239.54" width="113.19" height="318.89"/><rect class="cls-1" x="1202.91" y="461.83" width="34.7" height="53.01"/><rect class="cls-1" x="1151.87" y="461.83" width="34.7" height="53.01"/><rect class="cls-1" x="1202.91" y="397.71" width="34.7" height="53.01"/><rect class="cls-1" x="1151.87" y="397.71" width="34.7" height="53.01"/><rect class="cls-1" x="1202.91" y="333.58" width="34.7" height="53.01"/><rect class="cls-1" x="1151.87" y="333.58" width="34.7" height="53.01"/><rect class="cls-1" x="1202.91" y="269.46" width="34.7" height="53.01"/><rect class="cls-1" x="1151.87" y="269.46" width="34.7" height="53.01"/><rect class="cls-1" x="919.43" y="206.38" width="92.24" height="22.06"/><rect class="cls-1" x="904.61" y="217.87" width="121.51" height="342.84"/><rect class="cls-1" x="974.03" y="456.85" width="37.25" height="56.99"/><rect class="cls-1" x="919.25" y="456.85" width="37.25" height="56.99"/><rect class="cls-1" x="974.03" y="387.91" width="37.25" height="56.99"/><rect class="cls-1" x="919.25" y="387.91" width="37.25" height="56.99"/><rect class="cls-1" x="974.03" y="318.98" width="37.25" height="56.99"/><rect class="cls-1" x="919.25" y="318.98" width="37.25" height="56.99"/><rect class="cls-1" x="974.03" y="250.04" width="37.25" height="56.99"/><rect class="cls-1" x="919.25" y="250.04" width="37.25" height="56.99"/><rect class="cls-1" x="1043.14" y="235.59" width="85.92" height="20.52"/><rect class="cls-1" x="1029.34" y="245.42" width="113.19" height="318.89"/><rect class="cls-1" x="1094.01" y="467.71" width="34.7" height="53.01"/><rect class="cls-1" x="1042.97" y="467.71" width="34.7" height="53.01"/><rect class="cls-1" x="1094.01" y="403.59" width="34.7" height="53.01"/><rect class="cls-1" x="1042.97" y="403.59" width="34.7" height="53.01"/><rect class="cls-1" x="1094.01" y="339.47" width="34.7" height="53.01"/><rect class="cls-1" x="1042.97" y="339.47" width="34.7" height="53.01"/><rect class="cls-1" x="1094.01" y="275.35" width="34.7" height="53.01"/><rect class="cls-1" x="1042.97" y="275.35" width="34.7" height="53.01"/><rect class="cls-1" x="459.44" y="242.4" width="85.92" height="18.27"/><rect class="cls-1" x="445.64" y="251.15" width="113.19" height="283.9"/><rect class="cls-1" x="510.31" y="449.05" width="34.7" height="47.19"/><rect class="cls-1" x="459.27" y="449.05" width="34.7" height="47.19"/><rect class="cls-1" x="510.31" y="391.96" width="34.7" height="47.19"/><rect class="cls-1" x="459.27" y="391.96" width="34.7" height="47.19"/><rect class="cls-1" x="510.31" y="334.88" width="34.7" height="47.19"/><rect class="cls-1" x="459.27" y="334.88" width="34.7" height="47.19"/><rect class="cls-1" x="510.31" y="277.79" width="34.7" height="47.19"/><rect class="cls-1" x="459.27" y="277.79" width="34.7" height="47.19"/><rect class="cls-1" x="236.58" y="234.98" width="92.24" height="19.64"/><rect class="cls-1" x="221.77" y="245.21" width="121.51" height="305.23"/><rect class="cls-1" x="291.19" y="457.96" width="37.25" height="50.73"/><rect class="cls-1" x="236.4" y="457.96" width="37.25" height="50.73"/><rect class="cls-1" x="291.19" y="396.59" width="37.25" height="50.73"/><rect class="cls-1" x="236.4" y="396.59" width="37.25" height="50.73"/><rect class="cls-1" x="291.19" y="335.22" width="37.25" height="50.73"/><rect class="cls-1" x="236.4" y="335.22" width="37.25" height="50.73"/><rect class="cls-1" x="291.19" y="273.85" width="37.25" height="50.73"/><rect class="cls-1" x="236.4" y="273.85" width="37.25" height="50.73"/><rect class="cls-1" x="350.54" y="271.66" width="85.92" height="18.27"/><rect class="cls-1" x="336.74" y="280.41" width="113.19" height="283.9"/><rect class="cls-1" x="401.41" y="478.31" width="34.7" height="47.19"/><rect class="cls-1" x="350.37" y="478.31" width="34.7" height="47.19"/><rect class="cls-1" x="401.41" y="421.22" width="34.7" height="47.19"/><rect class="cls-1" x="350.37" y="421.22" width="34.7" height="47.19"/><rect class="cls-1" x="401.41" y="364.14" width="34.7" height="47.19"/><rect class="cls-1" x="350.37" y="364.14" width="34.7" height="47.19"/><rect class="cls-1" x="401.41" y="307.05" width="34.7" height="47.19"/><rect class="cls-1" x="350.37" y="307.05" width="34.7" height="47.19"/><rect class="cls-1" x="1820.61" y="191.32" width="85.92" height="23.28"/><rect class="cls-1" x="1806.81" y="202.48" width="113.19" height="361.84"/><rect class="cls-1" x="1871.48" y="454.7" width="34.7" height="60.14"/><rect class="cls-1" x="1820.45" y="454.7" width="34.7" height="60.14"/><rect class="cls-1" x="1871.48" y="381.94" width="34.7" height="60.14"/><rect class="cls-1" x="1820.45" y="381.94" width="34.7" height="60.14"/><rect class="cls-1" x="1871.48" y="309.19" width="34.7" height="60.14"/><rect class="cls-1" x="1820.45" y="309.19" width="34.7" height="60.14"/><rect class="cls-1" x="1871.48" y="236.43" width="34.7" height="60.14"/><rect class="cls-1" x="1820.45" y="236.43" width="34.7" height="60.14"/><rect class="cls-1" x="1600.5" y="106.61" width="92.24" height="28.5"/><rect class="cls-1" x="1585.68" y="121.45" width="121.51" height="442.86"/><rect class="cls-1" x="1655.11" y="430.15" width="37.25" height="73.61"/><rect class="cls-1" x="1600.32" y="430.15" width="37.25" height="73.61"/><rect class="cls-1" x="1655.11" y="341.1" width="37.25" height="73.61"/><rect class="cls-1" x="1600.32" y="341.1" width="37.25" height="73.61"/><rect class="cls-1" x="1655.11" y="252.06" width="37.25" height="73.61"/><rect class="cls-1" x="1600.32" y="252.06" width="37.25" height="73.61"/><rect class="cls-1" x="1655.11" y="163.01" width="37.25" height="73.61"/><rect class="cls-1" x="1600.32" y="163.01" width="37.25" height="73.61"/><rect class="cls-1" x="14.82" width="92.24" height="35.13"/><rect class="cls-1" y="18.3" width="121.51" height="546.02"/><rect class="cls-1" x="69.42" y="398.9" width="37.25" height="90.76"/><rect class="cls-1" x="14.63" y="398.9" width="37.25" height="90.76"/><rect class="cls-1" x="69.42" y="289.11" width="37.25" height="90.76"/><rect class="cls-1" x="14.63" y="289.11" width="37.25" height="90.76"/><rect class="cls-1" x="69.42" y="179.32" width="37.25" height="90.76"/><rect class="cls-1" x="14.63" y="179.32" width="37.25" height="90.76"/><rect class="cls-1" x="69.42" y="69.53" width="37.25" height="90.76"/><rect class="cls-1" x="14.63" y="69.53" width="37.25" height="90.76"/><rect class="cls-1" x="1721.53" y="139.69" width="85.92" height="26.5"/><rect class="cls-1" x="1707.73" y="152.39" width="113.19" height="411.93"/><rect class="cls-1" x="1772.4" y="439.52" width="34.7" height="68.47"/><rect class="cls-1" x="1721.36" y="439.52" width="34.7" height="68.47"/><rect class="cls-1" x="1772.4" y="356.7" width="34.7" height="68.47"/><rect class="cls-1" x="1721.36" y="356.7" width="34.7" height="68.47"/><rect class="cls-1" x="1772.4" y="273.87" width="34.7" height="68.47"/><rect class="cls-1" x="1721.36" y="273.87" width="34.7" height="68.47"/><rect class="cls-1" x="1772.4" y="191.04" width="34.7" height="68.47"/><rect class="cls-1" x="1721.36" y="191.04" width="34.7" height="68.47"/><rect class="cls-1" x="464.82" y="253.24" width="187.83" height="19.37"/><rect class="cls-1" x="434.65" y="263.33" width="247.43" height="300.99"/><rect class="cls-1" x="576.02" y="473.13" width="75.85" height="50.03"/><rect class="cls-1" x="464.45" y="473.13" width="75.85" height="50.03"/><rect class="cls-1" x="576.02" y="412.61" width="75.85" height="50.03"/><rect class="cls-1" x="464.45" y="412.61" width="75.85" height="50.03"/><rect class="cls-1" x="576.02" y="352.09" width="75.85" height="50.03"/><rect class="cls-1" x="464.45" y="352.09" width="75.85" height="50.03"/><rect class="cls-1" x="576.02" y="291.57" width="75.85" height="50.03"/><rect class="cls-1" x="464.45" y="291.57" width="75.85" height="50.03"/><rect class="cls-1" x="679.77" y="171.99" width="89.66" height="392.03" transform="translate(1449.2 736.01) rotate(-180)"/><rect class="cls-1" x="695.33" y="374.9" width="24.45" height="39.75" transform="translate(1415.11 789.55) rotate(-180)"/><rect class="cls-1" x="731.29" y="374.9" width="24.45" height="39.75" transform="translate(1487.04 789.55) rotate(-180)"/><rect class="cls-1" x="695.33" y="422.98" width="24.45" height="39.75" transform="translate(1415.11 885.71) rotate(-180)"/><rect class="cls-1" x="731.29" y="422.98" width="24.45" height="39.75" transform="translate(1487.04 885.71) rotate(-180)"/><rect class="cls-1" x="695.33" y="471.06" width="24.45" height="39.75" transform="translate(1415.11 981.87) rotate(-180)"/><rect class="cls-1" x="731.29" y="471.06" width="24.45" height="39.75" transform="translate(1487.04 981.87) rotate(-180)"/><rect class="cls-1" x="695.33" y="326.82" width="24.45" height="39.75" transform="translate(1415.11 693.38) rotate(-180)"/><rect class="cls-1" x="731.29" y="326.82" width="24.45" height="39.75" transform="translate(1487.04 693.38) rotate(-180)"/><rect class="cls-1" x="695.33" y="278.74" width="24.45" height="39.75" transform="translate(1415.11 597.22) rotate(-180)"/><rect class="cls-1" x="731.29" y="278.74" width="24.45" height="39.75" transform="translate(1487.04 597.22) rotate(-180)"/><rect class="cls-1" x="695.33" y="230.65" width="24.45" height="39.75" transform="translate(1415.11 501.05) rotate(-180)"/><rect class="cls-1" x="731.29" y="230.65" width="24.45" height="39.75" transform="translate(1487.04 501.05) rotate(-180)"/><rect class="cls-1" x="695.33" y="180.65" width="24.45" height="39.75" transform="translate(1415.11 401.04) rotate(-180)"/><rect class="cls-1" x="731.29" y="180.65" width="24.45" height="39.75" transform="translate(1487.04 401.04) rotate(-180)"/><polygon class="cls-1" points="769.6 73.27 769.6 171.99 679.94 171.99 769.6 73.27"/><rect class="cls-1" x="1251.52" y="172.29" width="89.66" height="392.03"/><rect class="cls-1" x="1301.16" y="375.19" width="24.45" height="39.75"/><rect class="cls-1" x="1265.2" y="375.19" width="24.45" height="39.75"/><rect class="cls-1" x="1301.16" y="423.28" width="24.45" height="39.75"/><rect class="cls-1" x="1265.2" y="423.28" width="24.45" height="39.75"/><rect class="cls-1" x="1301.16" y="471.36" width="24.45" height="39.75"/><rect class="cls-1" x="1265.2" y="471.36" width="24.45" height="39.75"/><rect class="cls-1" x="1301.16" y="327.11" width="24.45" height="39.75"/><rect class="cls-1" x="1265.2" y="327.11" width="24.45" height="39.75"/><rect class="cls-1" x="1301.16" y="279.03" width="24.45" height="39.75"/><rect class="cls-1" x="1265.2" y="279.03" width="24.45" height="39.75"/><rect class="cls-1" x="1301.16" y="230.95" width="24.45" height="39.75"/><rect class="cls-1" x="1265.2" y="230.95" width="24.45" height="39.75"/><rect class="cls-1" x="1301.16" y="180.94" width="24.45" height="39.75"/><rect class="cls-1" x="1265.2" y="180.94" width="24.45" height="39.75"/><polygon class="cls-1" points="1251.35 73.56 1251.35 172.29 1341 172.29 1251.35 73.56"/><rect class="cls-1" x="237.92" y="123.48" width="89.66" height="440.84"/><rect class="cls-1" x="287.56" y="351.65" width="24.45" height="44.7"/><rect class="cls-1" x="251.6" y="351.65" width="24.45" height="44.7"/><rect class="cls-1" x="287.56" y="405.71" width="24.45" height="44.7"/><rect class="cls-1" x="251.6" y="405.71" width="24.45" height="44.7"/><rect class="cls-1" x="287.56" y="459.78" width="24.45" height="44.7"/><rect class="cls-1" x="251.6" y="459.78" width="24.45" height="44.7"/><rect class="cls-1" x="287.56" y="297.58" width="24.45" height="44.7"/><rect class="cls-1" x="251.6" y="297.58" width="24.45" height="44.7"/><rect class="cls-1" x="287.56" y="243.51" width="24.45" height="44.7"/><rect class="cls-1" x="251.6" y="243.51" width="24.45" height="44.7"/><rect class="cls-1" x="287.56" y="189.44" width="24.45" height="44.7"/><rect class="cls-1" x="251.6" y="189.44" width="24.45" height="44.7"/><rect class="cls-1" x="287.56" y="133.21" width="24.45" height="44.7"/><rect class="cls-1" x="251.6" y="133.21" width="24.45" height="44.7"/><polygon class="cls-1" points="237.74 12.46 237.74 123.48 327.4 123.48 237.74 12.46"/><rect class="cls-1" x="426.51" y="225.13" width="75.89" height="21.12"/><rect class="cls-1" x="414.32" y="236.12" width="99.96" height="328.19"/><rect class="cls-1" x="471.43" y="464.89" width="30.65" height="54.55"/><rect class="cls-1" x="426.36" y="464.89" width="30.65" height="54.55"/><rect class="cls-1" x="471.43" y="398.9" width="30.65" height="54.55"/><rect class="cls-1" x="426.36" y="398.9" width="30.65" height="54.55"/><rect class="cls-1" x="471.43" y="332.91" width="30.65" height="54.55"/><rect class="cls-1" x="426.36" y="332.91" width="30.65" height="54.55"/><rect class="cls-1" x="471.43" y="266.92" width="30.65" height="54.55"/><rect class="cls-1" x="426.36" y="266.92" width="30.65" height="54.55"/></g></g></svg>