<svg xmlns="http://www.w3.org/2000/svg" xmlns:xlink="http://www.w3.org/1999/xlink" viewBox="0 0 1435 1104.37"><defs><style>.cls-1{fill:none;}.cls-2{isolation:isolate;}.cls-3{fill:#e5bb9e;}.cls-4{fill:#c4c4c4;}.cls-5{fill:#f7d7c1;}.cls-6{fill:#cca89a;}.cls-7{fill:#d9f9f3;}.cls-14,.cls-8{fill:#fff;}.cls-8{opacity:0.5;}.cls-9{fill:#ccc;mix-blend-mode:multiply;}.cls-10{fill:#13917c;}.cls-11{fill:#5c1826;}.cls-12{fill:#18b7a0;}.cls-13{fill:#f7cb6f;}.cls-15{fill:#1784aa;}.cls-16,.cls-17{fill:#16a0da;}.cls-16{stroke:#18b7a0;stroke-miterlimit:10;}.cls-18{fill:url(#linear-gradient);}.cls-19{fill:#18b7a2;}.cls-20{fill:#18b6a2;}.cls-21{fill:#18b7a1;}.cls-22{clip-path:url(#clip-path);}.cls-23{fill:#17abbf;}.cls-24{fill:#17abc0;}.cls-25{fill:#17aac1;}.cls-26{fill:#17aac2;}.cls-27{fill:#17adba;}.cls-28{fill:#17acbb;}.cls-29{fill:#17acbd;}.cls-30{fill:#17acbe;}.cls-31{fill:#17aac3;}.cls-32{fill:#17a9c4;}.cls-33{fill:#17a9c5;}.cls-34{fill:#17a8c6;}.cls-35{fill:#17a8c7;}.cls-36{fill:#17a8c8;}.cls-37{fill:#17a7c9;}.cls-38{fill:#17afb5;}.cls-39{fill:#17aeb6;}.cls-40{fill:#17aeb7;}.cls-41{fill:#17aeb8;}.cls-42{fill:#17adb9;}.cls-43{fill:#17a7ca;}.cls-44{fill:#17a6cb;}.cls-45{fill:#17a6cc;}.cls-46{fill:#16a6cd;}.cls-47{fill:#16a5ce;}.cls-48{fill:#16a5cf;}.cls-49{fill:#16a4d0;}.cls-50{fill:#16a4d1;}.cls-51{fill:#16a4d2;}.cls-52{fill:#16a3d3;}.cls-53{fill:#16a3d4;}.cls-54{fill:#16a2d5;}.cls-55{fill:#17b1b0;}.cls-56{fill:#17b0b1;}.cls-57{fill:#17b0b2;}.cls-58{fill:#17b0b3;}.cls-59{fill:#17afb4;}.cls-60{fill:#18b5a6;}.cls-61{fill:#18b4a7;}.cls-62{fill:#18b4a8;}.cls-63{fill:#18b4a9;}.cls-64{fill:#18b3aa;}.cls-65{fill:#18b3ab;}.cls-66{fill:#18b2ac;}.cls-67{fill:#18b2ad;}.cls-68{fill:#17b2ae;}.cls-69{fill:#17b1af;}.cls-70{fill:#18b6a3;}.cls-71{fill:#18b6a4;}.cls-72{fill:#18b5a5;}.cls-73{fill:#18b89f;}.cls-74{fill:#999;}</style><linearGradient id="linear-gradient" x1="508.52" y1="68.55" x2="616.09" y2="174.64" gradientTransform="translate(10)" gradientUnits="userSpaceOnUse"><stop offset="0" stop-color="#18b89e"/><stop offset="1" stop-color="#16a0db"/></linearGradient><clipPath id="clip-path"><path class="cls-1" d="M733.77,136.25h11.91V98l-11.91,0ZM729,113.32a13.88,13.88,0,0,0-6.35-5v-.19a11.68,11.68,0,0,0,7.21-11.09,11.29,11.29,0,0,0-3-8.18,16.43,16.43,0,0,0-7.81-4.41,41.62,41.62,0,0,0-10.76-1.31H692.76v3.05H701v6.06h-3.8v5.17h3.14v5.06H698v9h4.65v8h-5.84v9.7H700v7h11.47q10,0,15-4.07a13.12,13.12,0,0,0,4.93-10.68,15.05,15.05,0,0,0-.64-4.41A13.83,13.83,0,0,0,729,113.32ZM712,86l1.68,2.9-5.52,3.19-1.68-2.9Zm-5.63,7.56h3a9.49,9.49,0,0,1,4.86,1.2,4.36,4.36,0,0,1,2,4,5,5,0,0,1-1.61,4,6.91,6.91,0,0,1-4.78,1.46h-3.44Zm-4.52,36.69-1.82-6.11,3.29-1,1.82,6.11Zm3-22.41,3.65-.4.4,3.65-3.65.4ZM710,125.76h-3.62V114.7h3.44a12.55,12.55,0,0,1,5.9,1.12q2.09,1.12,2.09,4.52Q717.82,125.76,710,125.76Zm57.37-5V108.13h5.27l2.65-10.23h-7.92V83.25l-11.91-.07V97.89h-5.19l-2.69,10.23h7.88v13.59a18.58,18.58,0,0,0,1.83,8.78,11.64,11.64,0,0,0,5.42,5.19,20.34,20.34,0,0,0,8.89,1.72,11.65,11.65,0,0,0,1.83-.15l3.44-11.88a8,8,0,0,1-3.14.48Q767.38,125.87,767.38,120.79ZM742.66,81.72a6.15,6.15,0,0,0-3.14-.82,6,6,0,0,0-3.1.82A6.65,6.65,0,0,0,734.14,84a6.14,6.14,0,0,0-.82,3.14,6.39,6.39,0,0,0,3.1,5.45,6.21,6.21,0,0,0,6.24,0,6.44,6.44,0,0,0,2.24-2.24,6.47,6.47,0,0,0,0-6.31A6.35,6.35,0,0,0,742.66,81.72Zm173.27,20.47a20.71,20.71,0,0,0-6.76-4.26,21.5,21.5,0,0,0-7.92-1.49,21.79,21.79,0,0,0-8,1.49,20.51,20.51,0,0,0-6.72,4.29,20.14,20.14,0,0,0-4.63,6.5,20.29,20.29,0,0,0,1.23,18.56,20.31,20.31,0,0,0,7.73,7.36,21,21,0,0,0,10.35,2.65,21.5,21.5,0,0,0,7.92-1.49,22.33,22.33,0,0,0,5.6-3.4l-6.42-9.19-.07.11-.11.11-.11.15-.07.07a9.38,9.38,0,0,1-13.45,0,9.34,9.34,0,0,1-2.73-5.42h25.7v-.07h4.63l.07-.63a2.51,2.51,0,0,0,0-.41v-.34a19.91,19.91,0,0,0-6.31-14.6Zm-22,8.63a11.09,11.09,0,0,1,2.61-2.32,9.36,9.36,0,0,1,9.41,0,11.09,11.09,0,0,1,2.61,2.32ZM788.67,136.1l13,0v-21.4h13.52l-3-11.17h-10.5V94.42h19.09V83.18H788.67Zm161.57-10.23q-6.35,0-6.35-5.08V108.13h5.27l2.65-10.23H943.9V83.25L932,83.18V97.89h-5.19l-2.69,10.23H932v13.59a18.58,18.58,0,0,0,1.83,8.78,11.64,11.64,0,0,0,5.42,5.19,20.34,20.34,0,0,0,8.89,1.72,11.65,11.65,0,0,0,1.83-.15l3.44-11.88A8,8,0,0,1,950.25,125.87ZM822.62,136.25l11.91-.15v-53l-11.91,0Zm49.45-34.06a20.71,20.71,0,0,0-6.76-4.26,21.5,21.5,0,0,0-7.92-1.49,21.79,21.79,0,0,0-8,1.49,20.51,20.51,0,0,0-6.72,4.29,20.14,20.14,0,0,0-4.63,6.5,20.29,20.29,0,0,0,1.23,18.56,20.31,20.31,0,0,0,7.73,7.36,21,21,0,0,0,10.35,2.65,21.5,21.5,0,0,0,7.92-1.49,22.33,22.33,0,0,0,5.6-3.4l-6.42-9.19-.07.11-.11.11-.11.15-.07.07a9.38,9.38,0,0,1-13.45,0,9.34,9.34,0,0,1-2.73-5.42h25.7v-.07h4.63l.07-.63a2.51,2.51,0,0,0,0-.41v-.34a19.91,19.91,0,0,0-6.31-14.6Zm-22,8.63a11.09,11.09,0,0,1,2.61-2.32,9.36,9.36,0,0,1,9.41,0,11.09,11.09,0,0,1,2.61,2.32Z"/></clipPath></defs><title>Benzinska</title><g class="cls-2"><g id="Layer_2" data-name="Layer 2"><g id="Benza_2" data-name="Benza 2"><rect class="cls-3" x="192" y="146.37" width="1078" height="691"/><polygon class="cls-4" points="1435 1100.37 18 1104.37 192 828.37 1270 828.37 1435 1100.37"/><polygon class="cls-5" points="1434 344.37 1 344.37 197.64 128.37 1259.14 128.37 1434 344.37"/><rect class="cls-3" x="2" y="359.07" width="40" height="745.3"/><rect class="cls-3" x="1385" y="359.07" width="40" height="745.3"/><polygon class="cls-6" points="58 1078.45 42 1104.37 39 359.07 59 359.07 58 1078.45"/><polygon class="cls-6" points="1370 1074.75 1386 1100.67 1389 355.37 1369 355.37 1370 1074.75"/><rect class="cls-4" x="218" y="360.37" width="341" height="384"/><rect class="cls-7" x="225" y="365.37" width="327" height="369"/><polygon class="cls-8" points="552 734.37 225 365.37 552 365.37 552 734.37"/><rect class="cls-4" x="625" y="447.37" width="210" height="382"/><rect class="cls-7" x="635.02" y="459.37" width="187.95" height="369"/><polygon class="cls-8" points="822.98 828.37 635.02 459.37 822.98 459.37 822.98 828.37"/><rect class="cls-4" x="893" y="356.37" width="341" height="384"/><rect class="cls-7" x="900" y="361.37" width="327" height="369"/><polygon class="cls-8" points="1227 730.37 900 361.37 1227 361.37 1227 730.37"/><rect class="cls-4" x="625" y="649.37" width="207" height="10"/><path class="cls-9" d="M483.79,757.29l8.35-49.51,40.67,47.36a28.53,28.53,0,0,1-4.47,2.08h-24Z"/><rect class="cls-6" y="344.37" width="1433" height="14"/><path class="cls-10" d="M521.85,695.1c4.25,0,7,2,6.75,6.75l-1.93,164c-.26,4.71-6.37,13.51-10.61,13.51l-100.33-2.89c-4.25,0-5.08,2.13-4.82-2.58l-1-168.83c.26-4.71,12.15-10.92,16.4-10.92"/><path class="cls-11" d="M525.06,758.26c-11,0-15.15-13.83-15.32-14.42a2.25,2.25,0,0,1,1.16-2.75,1.81,1.81,0,0,1,2.37,1.35c.06.19,3.56,11.5,11.8,11.5h.06c9.7-.07,15.85,0,15.9,0a2.19,2.19,0,0,1,0,4.33h0c-.07,0-6.17-.07-15.84,0Z"/><path class="cls-11" d="M520.3,756.41a1.37,1.37,0,0,1-1.21-.8,1.77,1.77,0,0,1,.5-2.22c1.45-1,5.13-4.2,4.85-7.38a1.58,1.58,0,0,1,1.26-1.77,1.47,1.47,0,0,1,1.53,1.46c.5,5.91-6,10.32-6.23,10.5A1.22,1.22,0,0,1,520.3,756.41Z"/><path class="cls-11" d="M541.56,873.83a12.51,12.51,0,0,1-6.51-1.88c-5.43-3.3-10.69-12-9.14-26.36,3.46-32.09-12.72-38.4-13.41-38.66l2.28-8.8c1,.33,23.32,8.46,19,48.59-1,9.74,1.87,15.22,5,17.09,2.43,1.48,5.12,1,7.38-1.36,5.57-5.76,8.2-21.84-1.14-49.64-4.49-13.35-7.24-24.85-9.46-34.08-5.29-22.09-7.52-29.11-19.26-29.8l.41-9.18c18,1.07,21.37,15.17,26.49,36.52,2.17,9,4.86,20.29,9.2,33.2,13.6,40.49,2.7,56-1,59.82A13.7,13.7,0,0,1,541.56,873.83Z"/><path class="cls-11" d="M545,761.35a2.56,2.56,0,0,1-1.73-.7l-18.85-17.15h-28a3.28,3.28,0,0,1,0-6.49h29a2.57,2.57,0,0,1,1.73.69l19.61,17.86a3.61,3.61,0,0,1,.48,4.56A2.69,2.69,0,0,1,545,761.35Z"/><path class="cls-12" d="M520.74,871.24c0,4.29-3,7.81-6.75,7.81H415.15c-3.71,0-6.75-3.52-6.75-7.81V709.49c0-4.29,3-7.81,6.75-7.81H514c3.71,0,6.75,3.52,6.75,7.81Z"/><path class="cls-13" d="M501,717.75H428.15c-3.71,0-6.74,3.51-6.74,7.81v47.22c0,4.3,3,7.81,6.74,7.81h31.66l11.71-38.49a1,1,0,0,1,1.19-.74,1.17,1.17,0,0,1,.76,1.3L468.9,780.6H501c3.71,0,6.75-3.51,6.75-7.81V725.56C507.74,721.26,504.71,717.75,501,717.75Z"/><path class="cls-11" d="M472.71,741.37a1,1,0,0,0-1.19.74L459.81,780.6h9.09l4.57-37.93A1.17,1.17,0,0,0,472.71,741.37Z"/><path class="cls-11" d="M434.76,750a1.22,1.22,0,0,1-.86-.37,80,80,0,0,0-7.14-6.14,1.73,1.73,0,0,1-.39-2.17,1.24,1.24,0,0,1,1.87-.46,83.81,83.81,0,0,1,7.38,6.35,1.74,1.74,0,0,1,.18,2.2A1.29,1.29,0,0,1,434.76,750Z"/><path class="cls-11" d="M449.67,744.34a1.37,1.37,0,0,1-1.25-1q-1.81-5-3.62-9.86a1.66,1.66,0,0,1,.7-2.05,1.29,1.29,0,0,1,1.77.81q1.82,4.9,3.64,9.89a1.66,1.66,0,0,1-.72,2A1.25,1.25,0,0,1,449.67,744.34Z"/><path class="cls-11" d="M464.57,742.62a1.47,1.47,0,0,1-1.35-1.56V730.2a1.36,1.36,0,1,1,2.69,0v10.85A1.47,1.47,0,0,1,464.57,742.62Z"/><path class="cls-11" d="M479.48,744.46a1.17,1.17,0,0,1-.53-.12,1.67,1.67,0,0,1-.72-2q1.81-5,3.64-9.86a1.28,1.28,0,0,1,1.77-.81,1.66,1.66,0,0,1,.71,2.05q-1.82,4.87-3.62,9.83A1.35,1.35,0,0,1,479.48,744.46Z"/><path class="cls-11" d="M494.38,750.28a1.27,1.27,0,0,1-1-.57,1.73,1.73,0,0,1,.19-2.2,79,79,0,0,1,7.38-6.26,1.25,1.25,0,0,1,1.86.48,1.72,1.72,0,0,1-.42,2.16,76.13,76.13,0,0,0-7.12,6A1.23,1.23,0,0,1,494.38,750.28Z"/><path class="cls-11" d="M464.92,864.05c-9.58,0-17.38-9-17.38-20.13,0-9.58,12.12-33.71,14.55-38.45l2.83-5.55,2.84,5.55c2.43,4.74,14.54,28.88,14.54,38.45C482.31,855,474.51,864.05,464.92,864.05Z"/><path class="cls-13" d="M479,843.92c0,9-6.31,16.31-14.08,16.31s-14.08-7.3-14.08-16.31,14.08-36.5,14.08-36.5S479,834.9,479,843.92Z"/><path class="cls-14" d="M460,828s0,.12,0,.34-.09.56-.17,1c-.16.82-.44,2-.71,3.33-.14.68-.29,1.42-.41,2.2s-.25,1.59-.32,2.43a26.79,26.79,0,0,0,0,5.17,13.91,13.91,0,0,0,.49,2.46c.25.78.49,1.52.74,2.22l.66,2.08c.22.66.44,1.31.67,1.91.1.3.21.6.33.88s.21.55.3.81c.22.49.37,1,.53,1.37.31.77.46,1.29.46,1.29h0a.26.26,0,0,1-.14.32.2.2,0,0,1-.12,0,7.78,7.78,0,0,1-1.17-.48,11.52,11.52,0,0,1-1.25-.78,10.43,10.43,0,0,1-1.44-1.32,12,12,0,0,1-2.6-4.49,13.55,13.55,0,0,1-.51-3c0-1-.08-2.09,0-3.12a25.5,25.5,0,0,1,.9-5.83,36.65,36.65,0,0,1,1.63-4.63c.55-1.3,1.05-2.33,1.38-3.06.17-.37.29-.64.37-.84s.11-.31.11-.31a.19.19,0,0,1,.26-.13A.23.23,0,0,1,460,828Z"/><path class="cls-10" d="M1051.85,695.1c4.25,0,7,2,6.75,6.75l-1.93,164c-.26,4.71-6.37,13.51-10.61,13.51l-100.33-2.89c-4.25,0-5.08,2.13-4.82-2.58l-1-168.83c.26-4.71,12.15-10.92,16.4-10.92"/><path class="cls-11" d="M1055.06,758.26c-11,0-15.15-13.83-15.32-14.42a2.25,2.25,0,0,1,1.16-2.75,1.81,1.81,0,0,1,2.37,1.35c.06.19,3.56,11.5,11.8,11.5h.06c9.7-.07,15.85,0,15.9,0a2.19,2.19,0,0,1,0,4.33h0c-.07,0-6.17-.07-15.84,0Z"/><path class="cls-11" d="M1050.3,756.41a1.37,1.37,0,0,1-1.21-.8,1.77,1.77,0,0,1,.5-2.22c1.45-1,5.13-4.2,4.85-7.38a1.58,1.58,0,0,1,1.26-1.77,1.47,1.47,0,0,1,1.53,1.46c.5,5.91-6,10.32-6.23,10.5A1.22,1.22,0,0,1,1050.3,756.41Z"/><path class="cls-11" d="M1071.56,873.83a12.51,12.51,0,0,1-6.51-1.88c-5.43-3.3-10.69-12-9.14-26.36,3.46-32.09-12.72-38.4-13.41-38.66l2.28-8.8c1,.33,23.32,8.46,19,48.59-1,9.74,1.87,15.22,5,17.09,2.43,1.48,5.12,1,7.38-1.36,5.57-5.76,8.2-21.84-1.14-49.64-4.49-13.35-7.24-24.85-9.46-34.08-5.29-22.09-7.52-29.11-19.26-29.8l.41-9.18c18,1.07,21.37,15.17,26.49,36.52,2.17,9,4.86,20.29,9.2,33.2,13.6,40.49,2.7,56-1,59.82A13.7,13.7,0,0,1,1071.56,873.83Z"/><path class="cls-11" d="M1075,761.35a2.56,2.56,0,0,1-1.73-.7l-18.85-17.15h-28a3.28,3.28,0,0,1,0-6.49h29a2.57,2.57,0,0,1,1.73.69l19.61,17.86a3.61,3.61,0,0,1,.48,4.56A2.69,2.69,0,0,1,1075,761.35Z"/><path class="cls-12" d="M1050.74,871.24c0,4.29-3,7.81-6.75,7.81H945.15c-3.71,0-6.75-3.52-6.75-7.81V709.49c0-4.29,3-7.81,6.75-7.81H1044c3.71,0,6.75,3.52,6.75,7.81Z"/><path class="cls-13" d="M1031,717.75H958.15c-3.71,0-6.74,3.51-6.74,7.81v47.22c0,4.3,3,7.81,6.74,7.81h31.66l11.71-38.49a1,1,0,0,1,1.19-.74,1.17,1.17,0,0,1,.76,1.3L998.9,780.6H1031c3.71,0,6.75-3.51,6.75-7.81V725.56C1037.74,721.26,1034.71,717.75,1031,717.75Z"/><path class="cls-11" d="M1002.71,741.37a1,1,0,0,0-1.19.74L989.81,780.6h9.09l4.57-37.93A1.17,1.17,0,0,0,1002.71,741.37Z"/><path class="cls-11" d="M964.76,750a1.22,1.22,0,0,1-.86-.37,80,80,0,0,0-7.14-6.14,1.73,1.73,0,0,1-.39-2.17,1.24,1.24,0,0,1,1.87-.46,83.81,83.81,0,0,1,7.38,6.35,1.74,1.74,0,0,1,.18,2.2A1.29,1.29,0,0,1,964.76,750Z"/><path class="cls-11" d="M979.67,744.34a1.37,1.37,0,0,1-1.25-1q-1.81-5-3.62-9.86a1.66,1.66,0,0,1,.7-2.05,1.29,1.29,0,0,1,1.77.81q1.82,4.9,3.64,9.89a1.66,1.66,0,0,1-.72,2A1.25,1.25,0,0,1,979.67,744.34Z"/><path class="cls-11" d="M994.57,742.62a1.47,1.47,0,0,1-1.35-1.56V730.2a1.36,1.36,0,1,1,2.69,0v10.85A1.47,1.47,0,0,1,994.57,742.62Z"/><path class="cls-11" d="M1009.48,744.46a1.17,1.17,0,0,1-.53-.12,1.67,1.67,0,0,1-.72-2q1.81-5,3.64-9.86a1.28,1.28,0,0,1,1.77-.81,1.66,1.66,0,0,1,.71,2.05q-1.82,4.87-3.62,9.83A1.35,1.35,0,0,1,1009.48,744.46Z"/><path class="cls-11" d="M1024.38,750.28a1.27,1.27,0,0,1-1-.57,1.73,1.73,0,0,1,.19-2.2,79,79,0,0,1,7.38-6.26,1.25,1.25,0,0,1,1.86.48,1.72,1.72,0,0,1-.42,2.16,76.13,76.13,0,0,0-7.12,6A1.23,1.23,0,0,1,1024.38,750.28Z"/><path class="cls-11" d="M994.92,864.05c-9.58,0-17.38-9-17.38-20.13,0-9.58,12.12-33.71,14.55-38.45l2.83-5.55,2.84,5.55c2.43,4.74,14.54,28.88,14.54,38.45C1012.31,855,1004.51,864.05,994.92,864.05Z"/><path class="cls-13" d="M1009,843.92c0,9-6.31,16.31-14.08,16.31s-14.08-7.3-14.08-16.31,14.08-36.5,14.08-36.5S1009,834.9,1009,843.92Z"/><path class="cls-14" d="M990,828s0,.12,0,.34-.09.56-.17,1c-.16.82-.44,2-.71,3.33-.14.68-.29,1.42-.41,2.2s-.25,1.59-.32,2.43a26.79,26.79,0,0,0,0,5.17,13.91,13.91,0,0,0,.49,2.46c.25.78.49,1.52.74,2.22l.66,2.08c.22.66.44,1.31.67,1.91.1.3.21.6.33.88s.21.55.3.81c.22.49.37,1,.53,1.37.31.77.46,1.29.46,1.29h0a.26.26,0,0,1-.14.32.2.2,0,0,1-.12,0,7.78,7.78,0,0,1-1.17-.48,11.52,11.52,0,0,1-1.25-.78,10.43,10.43,0,0,1-1.44-1.32,12,12,0,0,1-2.6-4.49,13.55,13.55,0,0,1-.51-3c0-1-.08-2.09,0-3.12a25.5,25.5,0,0,1,.9-5.83,36.65,36.65,0,0,1,1.63-4.63c.55-1.3,1.05-2.33,1.38-3.06.17-.37.29-.64.37-.84s.11-.31.11-.31a.19.19,0,0,1,.26-.13A.23.23,0,0,1,990,828Z"/><polygon class="cls-15" points="907.94 276.01 902.58 281.37 897.22 227.03 907.94 227.03 907.94 276.01"/><ellipse class="cls-15" cx="727.71" cy="130.22" rx="333.29" ry="124.36"/><polygon class="cls-15" points="535.24 272.95 529.88 278.31 524.52 223.97 535.24 223.97 535.24 272.95"/><ellipse class="cls-16" cx="719.29" cy="124.86" rx="333.29" ry="124.36"/><rect class="cls-17" x="891.87" y="227.8" width="10.71" height="53.57"/><rect class="cls-17" x="517.63" y="222.44" width="12.24" height="55.87"/><ellipse class="cls-14" cx="718.97" cy="125.24" rx="310.71" ry="112.5"/><path class="cls-18" d="M633.25,128.4a14.89,14.89,0,1,0,14.89,14.9A14.91,14.91,0,0,0,633.25,128.4ZM514,128.4a14.89,14.89,0,1,0,14.9,14.9A14.91,14.91,0,0,0,514,128.4Zm158.36-14.74v-6.31H666V101.1h-6.28v-5c-2.17-.61-4.36-1.11-6.52-1.58s-4.17-.91-6.17-1.47c-6.59-1.86-13.12-4.36-19.44-6.77-8.29-3.17-16.86-6.45-25.8-8.39a92.53,92.53,0,0,0-49.7,3,132,132,0,0,0-17.82,8.33c-2.36,1.25-4.79,2.54-7.21,3.74-8.35,4.15-17.67,6.72-26.49,9-1.59.41-3.35.77-5.21,1.14-7.05,1.42-15.05,3-19.48,8.85h0c-2.66,3.52-1.52,7.2-.51,10.44l.1.31c1.08,3.5,2,7.11,2.82,10.7.14.66.25,1.62.37,2.63.37,3.35.85,7.52,3.3,9.32,2.26,1.67,6.7,1.8,11,1.81h.88a1.8,1.8,0,0,0,.42-.06,1.32,1.32,0,0,0,.33.06h.14a1.6,1.6,0,0,0,1.45-1.73c0-.5-.08-1.53-.08-2.14a17.81,17.81,0,1,1,35.62,0q0,.44,0,.89a1.61,1.61,0,0,0,1,1.56h0l.24.08.16,0h.2c11.52,0,23.08,0,34.58,0l23.9,0c7.42,0,14.79,0,22,0a1.61,1.61,0,0,0,1.59-1.61,1.67,1.67,0,0,0-.09-.48,1.47,1.47,0,0,0,.09-.48,17.81,17.81,0,1,1,35.62,0,1.29,1.29,0,0,0,0,.22,1.59,1.59,0,0,0,2.4,1.59c4.95-2.93,11.36-8.59,14.48-15.66l.05-.13h-1.84V113.66ZM580.23,111a12.83,12.83,0,0,1-5.2,1.09,11.33,11.33,0,0,1-4.9-1.08,1.6,1.6,0,1,1,1.36-2.89,9.35,9.35,0,0,0,7.34,0,1.6,1.6,0,0,1,1.39,2.88Zm7.72-12a4.05,4.05,0,0,1-4.13,4h-48a4,4,0,0,1-4-3.06,3.85,3.85,0,0,1,2.08-4.37c11.22-5.74,32.64-15.09,49.93-13.22a4.5,4.5,0,0,1,4.1,4.41Zm38.78,1a5.25,5.25,0,0,1-4.9,2.9H595.56c-2.89,0-5.24-2-5.24-4.51V86.86a4.19,4.19,0,0,1,1.47-3.14,5.8,5.8,0,0,1,4.47-1.34c16.37,1.89,25.19,8.24,29.71,13.24A4,4,0,0,1,626.73,100Zm15.62,10.34-1.8-5.79,5.79-1.8,1.8,5.79Zm6.19,9.47-.4-3.65,3.65-.4.4,3.65Zm7.27-6L654,107.7l3.29-1,1.82,6.11Z"/><rect class="cls-17" x="685.79" y="117.72" width="6.37" height="3.43" transform="translate(606.55 -574.94) rotate(73.4)"/><rect class="cls-17" x="684.43" y="86.35" width="6.37" height="3.35" transform="translate(1327.13 -179.54) rotate(150)"/><rect class="cls-12" x="692.07" y="112.78" width="3.67" height="3.67" transform="translate(-8.32 75.6) rotate(-6.2)"/><rect class="cls-19" x="684.96" y="95.27" width="6.06" height="6.06" transform="translate(29.67 -124.42) rotate(10.56)"/><rect class="cls-19" x="661.25" y="92.49" width="6.09" height="4.55"/><rect class="cls-20" x="673.41" y="90.22" width="6.09" height="4.55" transform="translate(28.41 -122.4) rotate(10.56)"/><rect class="cls-12" x="678.2" y="121.94" width="6.37" height="3.43" transform="translate(943.48 764.66) rotate(-122.52)"/><rect class="cls-21" x="667.34" y="99.19" width="6.06" height="6.06"/><rect class="cls-19" x="677.85" y="110.14" width="6.06" height="6.06" transform="translate(55.15 -178.15) rotate(15.53)"/><rect class="cls-17" x="669.29" y="116.4" width="6.06" height="6.06"/><rect class="cls-17" x="675.81" y="99.55" width="6.09" height="6.09" transform="translate(84.59 -241.24) rotate(21.46)"/><rect class="cls-17" x="691.19" y="103.53" width="4.9" height="6.06" transform="translate(31.27 -125.31) rotate(10.56)"/><g class="cls-22"><polygon class="cls-23" points="852.88 107.23 850.08 110.07 850.08 107.23 852.88 107.23"/><polygon class="cls-24" points="858.8 107.23 855.26 110.82 850.08 110.82 850.08 110.07 852.88 107.23 858.8 107.23"/><polygon class="cls-25" points="864.04 107.23 864.39 107.57 861.18 110.82 855.26 110.82 858.8 107.23 864.04 107.23"/><polygon class="cls-26" points="864.39 107.57 864.72 107.89 864.72 110.82 861.18 110.82 864.39 107.57"/><polygon class="cls-27" points="839.83 96.44 836.41 99.91 836.41 96.44 839.83 96.44"/><polygon class="cls-28" points="845.76 96.44 836.41 105.92 836.41 99.91 839.83 96.44 845.76 96.44"/><polygon class="cls-29" points="851.68 96.44 836.41 111.92 836.41 105.92 845.76 96.44 851.68 96.44"/><polygon class="cls-30" points="857.6 96.44 836.41 117.93 836.41 111.92 851.68 96.44 857.6 96.44"/><polygon class="cls-23" points="863.52 96.44 836.41 123.93 836.41 117.93 857.6 96.44 863.52 96.44"/><polygon class="cls-24" points="869.17 96.44 869.31 96.58 837.16 129.17 836.41 128.42 836.41 123.93 863.52 96.44 869.17 96.44"/><rect class="cls-25" x="831.85" y="112.24" width="45.78" height="4.22" transform="translate(173.16 642.65) rotate(-45.4)"/><rect class="cls-26" x="834.85" y="115.21" width="45.78" height="4.22" transform="translate(171.94 645.67) rotate(-45.4)"/><polygon class="cls-31" points="875.31 102.5 878.31 105.46 846.91 137.3 845.4 137.3 843.17 135.09 875.31 102.5"/><polygon class="cls-32" points="878.31 105.46 878.39 105.53 878.39 111.39 852.84 137.3 846.91 137.3 878.31 105.46"/><polygon class="cls-33" points="878.39 117.39 858.76 137.3 852.84 137.3 878.39 111.39 878.39 117.39"/><polygon class="cls-34" points="878.39 123.4 864.68 137.3 858.76 137.3 878.39 117.39 878.39 123.4"/><polygon class="cls-35" points="878.39 129.4 870.6 137.3 864.68 137.3 878.39 123.4 878.39 129.4"/><polygon class="cls-36" points="878.39 135.41 876.52 137.3 870.6 137.3 878.39 129.4 878.39 135.41"/><polygon class="cls-37" points="876.52 137.3 878.39 135.41 878.39 137.3 876.52 137.3"/><polygon class="cls-38" points="823.34 83.14 822.62 83.86 822.62 83.14 823.34 83.14"/><polygon class="cls-39" points="829.26 83.14 822.62 89.87 822.62 83.86 823.34 83.14 829.26 83.14"/><polygon class="cls-40" points="834.54 83.79 822.62 95.87 822.62 89.87 829.26 83.14 834.54 83.14 834.54 83.79"/><polygon class="cls-41" points="834.54 89.8 822.62 101.88 822.62 95.87 834.54 83.79 834.54 89.8"/><polygon class="cls-42" points="834.54 95.8 822.62 107.88 822.62 101.88 834.54 89.8 834.54 95.8"/><polygon class="cls-27" points="834.54 101.81 822.62 113.89 822.62 107.88 834.54 95.8 834.54 101.81"/><polygon class="cls-28" points="834.54 107.81 822.62 119.89 822.62 113.89 834.54 101.81 834.54 107.81"/><polygon class="cls-29" points="834.54 113.82 822.62 125.9 822.62 119.89 834.54 107.81 834.54 113.82"/><polygon class="cls-30" points="834.54 119.82 822.62 131.9 822.62 125.9 834.54 113.82 834.54 119.82"/><polygon class="cls-23" points="834.54 125.83 824.26 136.25 822.62 136.25 822.62 131.9 834.54 119.82 834.54 125.83"/><polygon class="cls-24" points="834.54 131.83 830.18 136.25 824.26 136.25 834.54 125.83 834.54 131.83"/><polygon class="cls-25" points="830.18 136.25 834.54 131.83 834.54 136.25 830.18 136.25"/><polygon class="cls-36" points="929.89 83.18 924.1 89.05 924.1 83.18 929.89 83.18"/><polygon class="cls-37" points="935.81 83.18 924.1 95.05 924.1 89.05 929.89 83.18 935.81 83.18"/><polygon class="cls-43" points="941.74 83.18 924.1 101.06 924.1 95.05 935.81 83.18 941.74 83.18"/><polygon class="cls-44" points="946.62 83.18 947.15 83.69 924.1 107.06 924.1 101.06 941.74 83.18 946.62 83.18"/><polygon class="cls-45" points="947.15 83.69 950.15 86.66 924.1 113.07 924.1 107.06 947.15 83.69"/><polygon class="cls-46" points="950.15 86.66 953.15 89.62 924.1 119.07 924.1 113.07 950.15 86.66"/><polygon class="cls-47" points="953.15 89.62 953.38 89.84 953.38 95.39 924.24 124.94 924.1 124.8 924.1 119.07 953.15 89.62"/><polygon class="cls-48" points="953.38 101.39 927.25 127.9 924.24 124.94 953.38 95.39 953.38 101.39"/><polygon class="cls-49" points="953.38 107.39 930.25 130.86 927.25 127.9 953.38 101.39 953.38 107.39"/><polygon class="cls-50" points="953.38 113.4 933.25 133.82 930.25 130.86 953.38 107.39 953.38 113.4"/><polygon class="cls-51" points="953.38 119.41 936.25 136.78 933.25 133.82 953.38 113.4 953.38 119.41"/><polygon class="cls-52" points="953.38 125.41 941.55 137.41 936.89 137.41 936.25 136.78 953.38 119.41 953.38 125.41"/><polygon class="cls-53" points="953.38 131.41 947.48 137.41 941.55 137.41 953.38 125.41 953.38 131.41"/><polygon class="cls-54" points="947.48 137.41 953.38 131.41 953.38 137.41 947.48 137.41"/><polygon class="cls-55" points="793.69 83.18 788.67 88.27 788.67 83.18 793.69 83.18"/><polygon class="cls-56" points="799.61 83.18 788.67 94.27 788.67 88.27 793.69 83.18 799.61 83.18"/><polygon class="cls-57" points="805.53 83.18 788.67 100.28 788.67 94.27 799.61 83.18 805.53 83.18"/><polygon class="cls-58" points="811.46 83.18 788.67 106.28 788.67 100.28 805.53 83.18 811.46 83.18"/><polygon class="cls-59" points="817.38 83.18 788.67 112.29 788.67 106.28 811.46 83.18 817.38 83.18"/><polygon class="cls-38" points="820.76 85.76 788.67 118.29 788.67 112.29 817.38 83.18 820.76 83.18 820.76 85.76"/><polygon class="cls-39" points="820.76 91.76 788.67 124.3 788.67 118.29 820.76 85.76 820.76 91.76"/><polygon class="cls-40" points="820.76 97.77 788.67 130.3 788.67 124.3 820.76 91.76 820.76 97.77"/><polygon class="cls-41" points="820.76 103.77 788.84 136.14 788.67 136.14 788.67 130.3 820.76 97.77 820.76 103.77"/><polygon class="cls-42" points="820.76 109.78 794.76 136.14 788.84 136.14 820.76 103.77 820.76 109.78"/><polygon class="cls-27" points="820.76 115.78 800.68 136.14 794.76 136.14 820.76 109.78 820.76 115.78"/><polygon class="cls-28" points="820.76 121.79 806.6 136.14 800.68 136.14 820.76 115.78 820.76 121.79"/><polygon class="cls-29" points="820.76 127.79 812.53 136.14 806.6 136.14 820.76 121.79 820.76 127.79"/><polygon class="cls-30" points="820.76 133.8 818.45 136.14 812.53 136.14 820.76 127.79 820.76 133.8"/><polygon class="cls-23" points="818.45 136.14 820.76 133.8 820.76 136.14 818.45 136.14"/><polygon class="cls-34" points="894.33 107.23 893.92 107.64 893.92 107.23 894.33 107.23"/><polygon class="cls-35" points="900.25 107.23 896.72 110.82 893.92 110.82 893.92 107.64 894.33 107.23 900.25 107.23"/><polygon class="cls-36" points="906.17 107.23 902.64 110.82 896.72 110.82 900.25 107.23 906.17 107.23"/><polygon class="cls-37" points="907.89 107.23 908.57 107.89 908.57 110.81 908.56 110.82 902.64 110.82 906.17 107.23 907.89 107.23"/><polygon class="cls-43" points="908.56 110.82 908.57 110.81 908.57 110.82 908.56 110.82"/><polygon class="cls-26" points="881.29 96.44 880.25 97.48 880.25 96.44 881.29 96.44"/><polygon class="cls-31" points="887.21 96.44 880.25 103.49 880.25 97.48 881.29 96.44 887.21 96.44"/><polygon class="cls-32" points="893.13 96.44 880.25 109.49 880.25 103.49 887.21 96.44 893.13 96.44"/><polygon class="cls-33" points="899.05 96.44 880.25 115.5 880.25 109.49 893.13 96.44 899.05 96.44"/><polygon class="cls-34" points="904.97 96.44 880.25 121.5 880.25 115.5 899.05 96.44 904.97 96.44"/><polygon class="cls-35" points="910.9 96.44 880.25 127.51 880.25 121.5 904.97 96.44 910.9 96.44"/><polygon class="cls-36" points="913.01 96.44 914.94 98.34 882.8 130.93 880.25 128.42 880.25 127.51 910.9 96.44 913.01 96.44"/><rect class="cls-37" x="877.48" y="114.01" width="45.78" height="4.22" transform="translate(185.5 675.67) rotate(-45.4)"/><rect class="cls-43" x="880.48" y="116.97" width="45.78" height="4.22" transform="translate(184.28 678.69) rotate(-45.4)"/><polygon class="cls-44" points="920.95 104.26 922.24 105.53 922.24 108.96 894.29 137.3 889.25 137.3 888.8 136.85 920.95 104.26"/><polygon class="cls-45" points="922.24 114.96 900.21 137.3 894.29 137.3 922.24 108.96 922.24 114.96"/><polygon class="cls-46" points="922.24 120.97 906.13 137.3 900.21 137.3 922.24 114.96 922.24 120.97"/><polygon class="cls-47" points="922.24 126.97 912.05 137.3 906.13 137.3 922.24 120.97 922.24 126.97"/><polygon class="cls-48" points="922.24 132.98 917.98 137.3 912.05 137.3 922.24 126.97 922.24 132.98"/><polygon class="cls-49" points="917.98 137.3 922.24 132.98 922.24 137.3 917.98 137.3"/><polygon class="cls-60" points="736.72 80.9 733.32 84.35 733.32 80.9 736.72 80.9"/><polygon class="cls-61" points="742.64 80.9 733.32 90.35 733.32 84.35 736.72 80.9 742.64 80.9"/><polygon class="cls-62" points="744.99 80.9 745.72 81.62 745.72 83.78 736.23 93.41 734.09 93.41 733.32 92.66 733.32 90.35 742.64 80.9 744.99 80.9"/><polygon class="cls-63" points="745.72 89.79 742.15 93.41 736.23 93.41 745.72 83.78 745.72 89.79"/><polygon class="cls-64" points="742.15 93.41 745.72 89.79 745.72 93.41 742.15 93.41"/><polygon class="cls-63" points="752.24 83.18 747.59 87.89 747.59 83.18 752.24 83.18"/><polygon class="cls-64" points="758.16 83.18 747.59 93.9 747.59 87.89 752.24 83.18 758.16 83.18"/><polygon class="cls-65" points="764.08 83.18 747.59 99.9 747.59 93.9 758.16 83.18 764.08 83.18"/><polygon class="cls-66" points="770 83.18 747.59 105.91 747.59 99.9 764.08 83.18 770 83.18"/><polygon class="cls-67" points="770.11 83.18 773.06 86.08 747.59 111.91 747.59 105.91 770 83.18 770.11 83.18"/><polygon class="cls-68" points="773.06 86.08 776.06 89.05 747.59 117.92 747.59 111.91 773.06 86.08"/><polygon class="cls-69" points="776.06 89.05 776.87 89.84 776.87 94.23 747.59 123.92 747.59 117.92 776.06 89.05"/><polygon class="cls-55" points="776.87 100.23 750.15 127.33 747.59 124.8 747.59 123.92 776.87 94.23 776.87 100.23"/><polygon class="cls-56" points="776.87 106.24 753.16 130.29 750.15 127.33 776.87 100.23 776.87 106.24"/><polygon class="cls-57" points="776.87 112.24 756.16 133.25 753.16 130.29 776.87 106.24 776.87 112.24"/><polygon class="cls-58" points="776.87 118.25 759.16 136.21 756.16 133.25 776.87 112.24 776.87 118.25"/><polygon class="cls-59" points="776.87 124.25 763.9 137.41 760.38 137.41 759.16 136.21 776.87 118.25 776.87 124.25"/><polygon class="cls-38" points="776.87 130.26 769.82 137.41 763.9 137.41 776.87 124.25 776.87 130.26"/><polygon class="cls-39" points="776.87 136.26 775.74 137.41 769.82 137.41 776.87 130.26 776.87 136.26"/><polygon class="cls-40" points="775.74 137.41 776.87 136.26 776.87 137.41 775.74 137.41"/><polygon class="cls-61" points="709.31 114.7 706.39 117.66 706.39 114.7 709.31 114.7"/><polygon class="cls-62" points="715.23 114.7 706.39 123.66 706.39 117.66 709.31 114.7 715.23 114.7"/><polygon class="cls-63" points="717.82 118.08 710.25 125.76 706.39 125.76 706.39 123.66 715.23 114.7 717.82 114.7 717.82 118.08"/><polygon class="cls-64" points="717.82 124.08 716.17 125.76 710.25 125.76 717.82 118.08 717.82 124.08"/><polygon class="cls-65" points="716.17 125.76 717.82 124.08 717.82 125.76 716.17 125.76"/><polygon class="cls-60" points="708.88 109.14 706.56 111.49 704.83 111.49 704.83 107.44 708.88 107.44 708.88 109.14"/><polygon class="cls-61" points="706.56 111.49 708.88 109.14 708.88 111.49 706.56 111.49"/><polygon class="cls-61" points="700.97 123.16 700.05 124.09 700.05 123.16 700.97 123.16"/><polygon class="cls-62" points="705.16 124.91 700.05 130.09 700.05 124.09 700.97 123.16 705.16 123.16 705.16 124.91"/><polygon class="cls-63" points="700.05 130.09 705.16 124.91 705.16 130.25 700.05 130.25 700.05 130.09"/><polygon class="cls-70" points="706.47 93.56 706.39 93.64 706.39 93.56 706.47 93.56"/><polygon class="cls-71" points="712.39 93.56 706.39 99.64 706.39 93.64 706.47 93.56 712.39 93.56"/><polygon class="cls-72" points="716.22 95.69 707.74 104.28 706.39 104.28 706.39 99.64 712.39 93.56 716.22 93.56 716.22 95.69"/><polygon class="cls-60" points="716.22 101.69 713.66 104.28 707.74 104.28 716.22 95.69 716.22 101.69"/><polygon class="cls-61" points="713.66 104.28 716.22 101.69 716.22 104.28 713.66 104.28"/><polygon class="cls-20" points="708 86 706.5 87.52 706.5 86 708 86"/><polygon class="cls-70" points="713.7 86.23 707.92 92.09 706.5 92.09 706.5 87.52 708 86 713.7 86 713.7 86.23"/><polygon class="cls-71" points="707.92 92.09 713.7 86.23 713.7 92.09 707.92 92.09"/><polygon class="cls-73" points="693.02 83.18 692.76 83.44 692.76 83.18 693.02 83.18"/><polygon class="cls-12" points="698.94 83.18 692.76 89.45 692.76 83.44 693.02 83.18 698.94 83.18"/><polygon class="cls-21" points="704.87 83.18 692.76 95.45 692.76 89.45 698.94 83.18 704.87 83.18"/><polygon class="cls-20" points="710.79 83.18 692.76 101.46 692.76 95.45 704.87 83.18 710.79 83.18"/><polygon class="cls-70" points="716.71 83.18 692.76 107.46 692.76 101.46 710.79 83.18 716.71 83.18"/><polygon class="cls-71" points="722.63 83.18 692.76 113.47 692.76 107.46 716.71 83.18 722.63 83.18"/><polygon class="cls-72" points="724.01 83.18 726.31 85.45 692.76 119.47 692.76 113.47 722.63 83.18 724.01 83.18"/><polygon class="cls-60" points="726.31 85.45 729.31 88.41 692.76 125.48 692.76 119.47 726.31 85.45"/><polygon class="cls-61" points="729.31 88.41 731.45 90.52 731.45 92.24 692.76 131.48 692.76 125.48 729.31 88.41"/><polygon class="cls-62" points="731.45 98.25 695.62 134.59 692.76 131.76 692.76 131.48 731.45 92.24 731.45 98.25"/><polygon class="cls-63" points="731.45 104.25 699.98 136.18 697.23 136.18 695.62 134.59 731.45 98.25 731.45 104.25"/><polygon class="cls-64" points="731.45 110.26 705.9 136.18 699.98 136.18 731.45 104.25 731.45 110.26"/><polygon class="cls-65" points="731.45 116.26 711.82 136.18 705.9 136.18 731.45 110.26 731.45 116.26"/><polygon class="cls-66" points="731.45 122.27 717.74 136.18 711.82 136.18 731.45 116.26 731.45 122.27"/><polygon class="cls-67" points="731.45 128.27 723.66 136.18 717.74 136.18 731.45 122.27 731.45 128.27"/><polygon class="cls-68" points="731.45 134.28 729.58 136.18 723.66 136.18 731.45 128.27 731.45 134.28"/><polygon class="cls-69" points="729.58 136.18 731.45 134.28 731.45 136.18 729.58 136.18"/><polygon class="cls-63" points="737.65 97.97 733.77 101.91 733.77 97.97 737.65 97.97"/><polygon class="cls-64" points="743.58 97.97 733.77 107.91 733.77 101.91 737.65 97.97 743.58 97.97"/><polygon class="cls-65" points="745.68 101.83 733.77 113.92 733.77 107.91 743.58 97.97 745.68 97.97 745.68 101.83"/><polygon class="cls-66" points="745.68 107.84 733.77 119.92 733.77 113.92 745.68 101.83 745.68 107.84"/><polygon class="cls-67" points="745.68 113.84 733.77 125.93 733.77 119.92 745.68 107.84 745.68 113.84"/><polygon class="cls-68" points="745.68 119.85 733.77 131.93 733.77 125.93 745.68 113.84 745.68 119.85"/><polygon class="cls-69" points="745.68 125.85 735.43 136.25 733.77 136.25 733.77 131.93 745.68 119.85 745.68 125.85"/><polygon class="cls-55" points="745.68 131.86 741.35 136.25 735.43 136.25 745.68 125.85 745.68 131.86"/><polygon class="cls-56" points="741.35 136.25 745.68 131.86 745.68 136.25 741.35 136.25"/></g><path class="cls-74" d="M752.82,149.48h2.09a.92.92,0,0,1,.54.15.73.73,0,0,1,.29.41l2.28,8q.08.3.15.64t.13.74q.07-.39.16-.74t.19-.64l2.63-8a.88.88,0,0,1,.29-.39.82.82,0,0,1,.53-.18h.73a.9.9,0,0,1,.54.15.79.79,0,0,1,.3.41l2.61,8a10.76,10.76,0,0,1,.35,1.31q.06-.36.13-.69c0-.22.09-.43.14-.62l2.28-8a.75.75,0,0,1,.29-.4.87.87,0,0,1,.54-.17h2l-4.16,13.38h-2.25l-2.92-9.14-.12-.38c0-.14-.08-.28-.12-.44,0,.15-.08.3-.12.44l-.12.38-3,9.14H757Z"/><path class="cls-74" d="M776.84,153.22a4.61,4.61,0,0,1,1.65.29,3.63,3.63,0,0,1,1.3.84,3.84,3.84,0,0,1,.85,1.35,5.1,5.1,0,0,1,.31,1.83,3.32,3.32,0,0,1,0,.43.7.7,0,0,1-.08.27.34.34,0,0,1-.16.14.69.69,0,0,1-.26,0h-5.87a3.27,3.27,0,0,0,.79,2.15,2.45,2.45,0,0,0,1.81.68,3.14,3.14,0,0,0,1-.13,4.51,4.51,0,0,0,.7-.29l.53-.29a.88.88,0,0,1,.44-.13.49.49,0,0,1,.24.06.52.52,0,0,1,.18.16l.67.83a3.8,3.8,0,0,1-.85.74,4.72,4.72,0,0,1-1,.48,5.29,5.29,0,0,1-1,.25,7.39,7.39,0,0,1-1,.07,5.07,5.07,0,0,1-1.84-.33,4.11,4.11,0,0,1-1.48-1,4.55,4.55,0,0,1-1-1.59,6.15,6.15,0,0,1-.36-2.2,5.24,5.24,0,0,1,.31-1.83,4.39,4.39,0,0,1,.9-1.49,4.25,4.25,0,0,1,1.43-1A4.72,4.72,0,0,1,776.84,153.22Zm0,1.64a2.11,2.11,0,0,0-1.56.56,2.78,2.78,0,0,0-.72,1.6h4.29a2.83,2.83,0,0,0-.12-.84,1.93,1.93,0,0,0-.37-.69,1.77,1.77,0,0,0-.63-.47A2.16,2.16,0,0,0,776.89,154.86Z"/><path class="cls-74" d="M793.07,162.86a.56.56,0,0,1-.58-.42l-.19-.92a5.7,5.7,0,0,1-.62.6,4,4,0,0,1-.7.46,3.7,3.7,0,0,1-.8.3,3.92,3.92,0,0,1-.93.11,3.1,3.1,0,0,1-2.54-1.26,4.49,4.49,0,0,1-.72-1.52,7.67,7.67,0,0,1-.25-2.07,6.48,6.48,0,0,1,.29-2,4.79,4.79,0,0,1,.82-1.57,3.84,3.84,0,0,1,1.29-1,3.72,3.72,0,0,1,1.68-.37,3.29,3.29,0,0,1,1.36.25,3.58,3.58,0,0,1,1,.68v-5h2.29v13.75Zm-3-1.67a2.34,2.34,0,0,0,1.21-.3,3.62,3.62,0,0,0,.94-.84v-4.26a2.25,2.25,0,0,0-.85-.67,2.5,2.5,0,0,0-1-.19,2.21,2.21,0,0,0-.94.19,1.83,1.83,0,0,0-.71.59,2.89,2.89,0,0,0-.45,1,5.7,5.7,0,0,0-.16,1.43,6.29,6.29,0,0,0,.13,1.41,2.78,2.78,0,0,0,.38.94,1.46,1.46,0,0,0,.61.53A1.94,1.94,0,0,0,790,161.18Z"/><path class="cls-74" d="M801,153.22a5.21,5.21,0,0,1,1.93.34,4.16,4.16,0,0,1,1.48,1,4.3,4.3,0,0,1,.94,1.54,6.36,6.36,0,0,1,0,4.06,4.4,4.4,0,0,1-.94,1.55,4.1,4.1,0,0,1-1.48,1,5.61,5.61,0,0,1-3.86,0,4.15,4.15,0,0,1-1.48-1,4.43,4.43,0,0,1-1-1.55,6.29,6.29,0,0,1,0-4.06,4.33,4.33,0,0,1,1-1.54,4.2,4.2,0,0,1,1.48-1A5.26,5.26,0,0,1,801,153.22Zm0,8a2,2,0,0,0,1.75-.8,4,4,0,0,0,.57-2.33,4,4,0,0,0-.57-2.34A2,2,0,0,0,801,155a2,2,0,0,0-1.78.81,4,4,0,0,0-.57,2.34,4,4,0,0,0,.57,2.33A2,2,0,0,0,801,161.24Z"/><path class="cls-74" d="M813.8,150.6a1.3,1.3,0,0,1-.12.56,1.51,1.51,0,0,1-.79.76,1.44,1.44,0,0,1-.57.12,1.38,1.38,0,0,1-.56-.12,1.48,1.48,0,0,1-.77-.76,1.35,1.35,0,0,1-.12-.56,1.46,1.46,0,0,1,.43-1,1.48,1.48,0,0,1,.46-.31,1.38,1.38,0,0,1,.56-.12,1.44,1.44,0,0,1,.57.12,1.51,1.51,0,0,1,.47.31,1.47,1.47,0,0,1,.32.46A1.38,1.38,0,0,1,813.8,150.6Zm-.34,2.77v9.49h-2.29v-9.49Z"/><path class="cls-74" d="M819.16,163a2.5,2.5,0,0,1-1.9-.7,2.68,2.68,0,0,1-.67-1.93v-5.3h-1a.44.44,0,0,1-.45-.48v-.91l1.53-.25.48-2.59a.46.46,0,0,1,.17-.29.55.55,0,0,1,.34-.1h1.18v3h2.5v1.63h-2.5v5.15a1,1,0,0,0,.22.69.75.75,0,0,0,.59.25,1.08,1.08,0,0,0,.36-.05l.25-.11.19-.11a.32.32,0,0,1,.17-.05.26.26,0,0,1,.17.05.77.77,0,0,1,.14.15l.68,1.11a3.47,3.47,0,0,1-1.15.63A4.29,4.29,0,0,1,819.16,163Z"/><path class="cls-74" d="M829.21,153.37v9.82a4.06,4.06,0,0,1-.16,1.17,2.56,2.56,0,0,1-.52,1,2.43,2.43,0,0,1-.93.65,3.74,3.74,0,0,1-1.41.24,4,4,0,0,1-.6,0A3.48,3.48,0,0,1,825,166l.07-1.23a.27.27,0,0,1,.15-.24,1.37,1.37,0,0,1,.46-.05,2.07,2.07,0,0,0,.58-.07.82.82,0,0,0,.38-.22.86.86,0,0,0,.2-.4,2.69,2.69,0,0,0,.06-.62v-9.82Zm.34-2.77a1.3,1.3,0,0,1-.12.56,1.51,1.51,0,0,1-.79.76,1.44,1.44,0,0,1-.57.12,1.38,1.38,0,0,1-.56-.12,1.48,1.48,0,0,1-.77-.76,1.35,1.35,0,0,1-.12-.56,1.46,1.46,0,0,1,.43-1,1.48,1.48,0,0,1,.46-.31,1.38,1.38,0,0,1,.56-.12,1.44,1.44,0,0,1,.57.12,1.51,1.51,0,0,1,.47.31,1.47,1.47,0,0,1,.32.46A1.38,1.38,0,0,1,829.55,150.6Z"/><path class="cls-74" d="M833.84,153.37v6a2,2,0,0,0,.4,1.35,1.49,1.49,0,0,0,1.21.48,2.41,2.41,0,0,0,1.11-.26,3.86,3.86,0,0,0,1-.73v-6.87h2.29v9.49h-1.4a.56.56,0,0,1-.58-.42l-.16-.76a6.63,6.63,0,0,1-.61.54,3.67,3.67,0,0,1-.67.42,3.73,3.73,0,0,1-.77.27,3.87,3.87,0,0,1-.88.1,3.37,3.37,0,0,1-1.37-.26,2.76,2.76,0,0,1-1-.75,3.27,3.27,0,0,1-.62-1.14,4.85,4.85,0,0,1-.21-1.46v-6Z"/><path class="cls-74" d="M847.91,155.22a.61.61,0,0,1-.19.21.5.5,0,0,1-.26.06.82.82,0,0,1-.36-.09l-.44-.21a4.15,4.15,0,0,0-.57-.21,2.74,2.74,0,0,0-.75-.09,1.76,1.76,0,0,0-1.06.29.89.89,0,0,0-.39.75.71.71,0,0,0,.2.51,1.79,1.79,0,0,0,.53.37,5.22,5.22,0,0,0,.75.28l.85.27q.44.15.85.34a3,3,0,0,1,.74.48,2.12,2.12,0,0,1,.73,1.68,3.15,3.15,0,0,1-.25,1.26,2.77,2.77,0,0,1-.73,1,3.4,3.4,0,0,1-1.19.66,5.54,5.54,0,0,1-2.58.15,5.57,5.57,0,0,1-.9-.25,4.93,4.93,0,0,1-.8-.37,3.84,3.84,0,0,1-.64-.46L842,161a.75.75,0,0,1,.24-.24.68.68,0,0,1,.35-.08.75.75,0,0,1,.4.12l.44.26a4,4,0,0,0,.59.26,2.6,2.6,0,0,0,.86.12,2.23,2.23,0,0,0,.7-.1,1.48,1.48,0,0,0,.48-.25,1,1,0,0,0,.28-.37,1.09,1.09,0,0,0,.09-.43.77.77,0,0,0-.2-.55,1.77,1.77,0,0,0-.53-.37,5,5,0,0,0-.75-.28l-.86-.27a7.82,7.82,0,0,1-.86-.35,2.92,2.92,0,0,1-.75-.5,2.28,2.28,0,0,1-.53-.75,2.61,2.61,0,0,1-.2-1.07,2.73,2.73,0,0,1,.23-1.11,2.59,2.59,0,0,1,.68-.92,3.37,3.37,0,0,1,1.12-.63,4.68,4.68,0,0,1,1.55-.24,4.73,4.73,0,0,1,1.79.32,4,4,0,0,1,1.34.85Z"/><path class="cls-74" d="M853.48,163a2.5,2.5,0,0,1-1.9-.7,2.68,2.68,0,0,1-.67-1.93v-5.3h-1a.44.44,0,0,1-.45-.48v-.91l1.53-.25.48-2.59a.46.46,0,0,1,.17-.29.55.55,0,0,1,.34-.1h1.18v3h2.5v1.63h-2.5v5.15a1,1,0,0,0,.22.69.75.75,0,0,0,.59.25,1.08,1.08,0,0,0,.36-.05l.25-.11.19-.11a.32.32,0,0,1,.17-.05.26.26,0,0,1,.17.05.77.77,0,0,1,.14.15l.68,1.11a3.47,3.47,0,0,1-1.15.63A4.29,4.29,0,0,1,853.48,163Z"/><path class="cls-74" d="M868.53,162.86h-1a1.11,1.11,0,0,1-.51-.1.63.63,0,0,1-.28-.39l-.2-.68a7.86,7.86,0,0,1-.71.57,4.3,4.3,0,0,1-.72.41,3.59,3.59,0,0,1-.79.25,4.71,4.71,0,0,1-.92.08,3.62,3.62,0,0,1-1.11-.16,2.4,2.4,0,0,1-.87-.49,2.22,2.22,0,0,1-.57-.81,2.88,2.88,0,0,1-.2-1.12,2.22,2.22,0,0,1,.28-1.06,2.65,2.65,0,0,1,.94-.95,6,6,0,0,1,1.75-.7,11.13,11.13,0,0,1,2.71-.28v-.56a2.13,2.13,0,0,0-.4-1.42,1.47,1.47,0,0,0-1.17-.46,2.83,2.83,0,0,0-.93.13,3.63,3.63,0,0,0-.64.29l-.5.29a1,1,0,0,1-.51.13.66.66,0,0,1-.4-.12.93.93,0,0,1-.27-.3l-.42-.73a5.64,5.64,0,0,1,4-1.5,3.83,3.83,0,0,1,1.49.27,3.16,3.16,0,0,1,1.11.76,3.25,3.25,0,0,1,.69,1.16,4.46,4.46,0,0,1,.24,1.48Zm-4.44-1.43a3.09,3.09,0,0,0,.65-.06,2.53,2.53,0,0,0,.56-.19,3,3,0,0,0,.51-.31,4.61,4.61,0,0,0,.5-.44v-1.59a9.3,9.3,0,0,0-1.67.13,4.49,4.49,0,0,0-1.08.32,1.39,1.39,0,0,0-.58.46,1,1,0,0,0-.17.57,1,1,0,0,0,.36.87A1.53,1.53,0,0,0,864.09,161.43Z"/><path class="cls-74" d="M874.48,162.86V149.48h4.62a8.77,8.77,0,0,1,2.24.25,4.28,4.28,0,0,1,1.53.71,2.77,2.77,0,0,1,.87,1.12A3.77,3.77,0,0,1,884,153a2.93,2.93,0,0,1-.14.9,2.62,2.62,0,0,1-.43.8,3.23,3.23,0,0,1-.74.68,4.5,4.5,0,0,1-1.07.52q2.76.62,2.76,3a3.79,3.79,0,0,1-.32,1.57,3.48,3.48,0,0,1-.94,1.24,4.51,4.51,0,0,1-1.53.82,6.68,6.68,0,0,1-2.07.3Zm2.49-7.59h2a3.34,3.34,0,0,0,1.93-.46,1.67,1.67,0,0,0,.66-1.47,1.74,1.74,0,0,0-.59-1.49,3.09,3.09,0,0,0-1.85-.44H877Zm0,1.72v3.92h2.53a3.49,3.49,0,0,0,1.16-.17,2,2,0,0,0,.75-.44,1.63,1.63,0,0,0,.41-.65,2.44,2.44,0,0,0,.12-.79,2.1,2.1,0,0,0-.14-.78,1.48,1.48,0,0,0-.44-.59,2,2,0,0,0-.76-.37,4.2,4.2,0,0,0-1.12-.13Z"/><path class="cls-74" d="M889.19,150.6a1.3,1.3,0,0,1-.12.56,1.51,1.51,0,0,1-.79.76,1.44,1.44,0,0,1-.57.12,1.38,1.38,0,0,1-.56-.12,1.48,1.48,0,0,1-.77-.76,1.35,1.35,0,0,1-.12-.56,1.46,1.46,0,0,1,.43-1,1.48,1.48,0,0,1,.46-.31,1.38,1.38,0,0,1,.56-.12,1.44,1.44,0,0,1,.57.12,1.51,1.51,0,0,1,.47.31,1.47,1.47,0,0,1,.32.46A1.38,1.38,0,0,1,889.19,150.6Zm-.34,2.77v9.49h-2.29v-9.49Z"/><path class="cls-74" d="M894.54,163a2.5,2.5,0,0,1-1.9-.7,2.68,2.68,0,0,1-.67-1.93v-5.3h-1a.44.44,0,0,1-.45-.48v-.91l1.53-.25.48-2.59a.46.46,0,0,1,.17-.29.55.55,0,0,1,.34-.1h1.18v3h2.5v1.63h-2.5v5.15a1,1,0,0,0,.22.69.75.75,0,0,0,.59.25,1.08,1.08,0,0,0,.36-.05l.25-.11.19-.11a.32.32,0,0,1,.17-.05.26.26,0,0,1,.17.05.77.77,0,0,1,.14.15l.68,1.11a3.47,3.47,0,0,1-1.15.63A4.29,4.29,0,0,1,894.54,163Z"/><path class="cls-74" d="M902.19,162.86V149.11h2.29v5.42a4.49,4.49,0,0,1,1.28-1,3.67,3.67,0,0,1,1.67-.36,3.08,3.08,0,0,1,2.53,1.25,4.45,4.45,0,0,1,.72,1.51,7.61,7.61,0,0,1,.25,2.06,6.5,6.5,0,0,1-.29,2,4.8,4.8,0,0,1-.82,1.57,3.7,3.7,0,0,1-3,1.42,3.36,3.36,0,0,1-.8-.09,2.8,2.8,0,0,1-.66-.24,2.85,2.85,0,0,1-.55-.38,4.84,4.84,0,0,1-.48-.5l-.1.64a.58.58,0,0,1-.19.34.59.59,0,0,1-.37.1Zm4.44-7.86a2.33,2.33,0,0,0-1.22.3,3.53,3.53,0,0,0-.94.85v4.26a2.19,2.19,0,0,0,.85.67,2.59,2.59,0,0,0,1,.19,2.19,2.19,0,0,0,.94-.19,1.84,1.84,0,0,0,.71-.59,2.93,2.93,0,0,0,.45-1,5.75,5.75,0,0,0,.16-1.43,6.36,6.36,0,0,0-.13-1.41,2.72,2.72,0,0,0-.38-.94,1.52,1.52,0,0,0-.61-.53A1.9,1.9,0,0,0,906.63,155Z"/><path class="cls-74" d="M916.63,153.22a4.61,4.61,0,0,1,1.65.29,3.63,3.63,0,0,1,1.3.84,3.84,3.84,0,0,1,.85,1.35,5.1,5.1,0,0,1,.31,1.83,3.32,3.32,0,0,1,0,.43.7.7,0,0,1-.08.27.34.34,0,0,1-.16.14.69.69,0,0,1-.26,0h-5.87a3.27,3.27,0,0,0,.79,2.15,2.45,2.45,0,0,0,1.81.68,3.14,3.14,0,0,0,1-.13,4.51,4.51,0,0,0,.7-.29l.53-.29a.88.88,0,0,1,.44-.13.49.49,0,0,1,.24.06.52.52,0,0,1,.18.16l.67.83a3.8,3.8,0,0,1-.85.74,4.72,4.72,0,0,1-1,.48,5.29,5.29,0,0,1-1,.25,7.39,7.39,0,0,1-1,.07,5.07,5.07,0,0,1-1.84-.33,4.11,4.11,0,0,1-1.48-1,4.55,4.55,0,0,1-1-1.59,6.15,6.15,0,0,1-.36-2.2,5.24,5.24,0,0,1,.31-1.83,4.39,4.39,0,0,1,.9-1.49,4.25,4.25,0,0,1,1.43-1A4.72,4.72,0,0,1,916.63,153.22Zm0,1.64a2.11,2.11,0,0,0-1.56.56,2.78,2.78,0,0,0-.72,1.6h4.29a2.83,2.83,0,0,0-.12-.84,1.93,1.93,0,0,0-.37-.69,1.77,1.77,0,0,0-.63-.47A2.16,2.16,0,0,0,916.68,154.86Z"/><path class="cls-74" d="M925.72,163a2.5,2.5,0,0,1-1.9-.7,2.68,2.68,0,0,1-.67-1.93v-5.3h-1a.44.44,0,0,1-.45-.48v-.91l1.53-.25.48-2.59a.46.46,0,0,1,.17-.29.55.55,0,0,1,.34-.1h1.18v3h2.5v1.63h-2.5v5.15a1,1,0,0,0,.22.69.75.75,0,0,0,.59.25,1.08,1.08,0,0,0,.36-.05l.25-.11.19-.11a.32.32,0,0,1,.17-.05.26.26,0,0,1,.17.05.77.77,0,0,1,.14.15l.68,1.11a3.47,3.47,0,0,1-1.15.63A4.29,4.29,0,0,1,925.72,163Z"/><path class="cls-74" d="M932.88,163a2.5,2.5,0,0,1-1.9-.7,2.68,2.68,0,0,1-.67-1.93v-5.3h-1a.44.44,0,0,1-.45-.48v-.91l1.53-.25.48-2.59a.46.46,0,0,1,.17-.29.55.55,0,0,1,.34-.1h1.18v3h2.5v1.63h-2.5v5.15a1,1,0,0,0,.22.69.75.75,0,0,0,.59.25,1.08,1.08,0,0,0,.36-.05L934,161l.19-.11a.32.32,0,0,1,.17-.05.26.26,0,0,1,.17.05.77.77,0,0,1,.14.15l.68,1.11a3.47,3.47,0,0,1-1.15.63A4.29,4.29,0,0,1,932.88,163Z"/><path class="cls-74" d="M940.85,153.22a4.61,4.61,0,0,1,1.65.29,3.63,3.63,0,0,1,1.3.84,3.84,3.84,0,0,1,.85,1.35,5.1,5.1,0,0,1,.31,1.83,3.32,3.32,0,0,1,0,.43.7.7,0,0,1-.08.27.34.34,0,0,1-.16.14.69.69,0,0,1-.26,0h-5.87a3.27,3.27,0,0,0,.79,2.15,2.45,2.45,0,0,0,1.81.68,3.14,3.14,0,0,0,1-.13,4.51,4.51,0,0,0,.7-.29l.53-.29a.88.88,0,0,1,.44-.13.49.49,0,0,1,.24.06.52.52,0,0,1,.18.16l.67.83a3.8,3.8,0,0,1-.85.74,4.72,4.72,0,0,1-1,.48,5.29,5.29,0,0,1-1,.25,7.39,7.39,0,0,1-1,.07,5.07,5.07,0,0,1-1.84-.33,4.11,4.11,0,0,1-1.48-1,4.55,4.55,0,0,1-1-1.59,6.15,6.15,0,0,1-.36-2.2,5.24,5.24,0,0,1,.31-1.83,4.39,4.39,0,0,1,.9-1.49,4.25,4.25,0,0,1,1.43-1A4.72,4.72,0,0,1,940.85,153.22Zm0,1.64a2.11,2.11,0,0,0-1.56.56,2.78,2.78,0,0,0-.72,1.6h4.29a2.83,2.83,0,0,0-.12-.84,1.93,1.93,0,0,0-.37-.69,1.77,1.77,0,0,0-.63-.47A2.16,2.16,0,0,0,940.89,154.86Z"/><path class="cls-74" d="M946.81,162.86v-9.49h1.34a.72.72,0,0,1,.49.13.75.75,0,0,1,.18.44l.14,1.15a4.51,4.51,0,0,1,1.19-1.39,2.51,2.51,0,0,1,1.54-.51,2,2,0,0,1,1.17.32l-.3,1.71a.35.35,0,0,1-.12.24.41.41,0,0,1-.25.07,1.56,1.56,0,0,1-.38-.07,2.54,2.54,0,0,0-.64-.06,1.94,1.94,0,0,0-1.22.39,3,3,0,0,0-.86,1.15v5.91Z"/><path class="cls-74" d="M952.57,161.6a1.42,1.42,0,0,1,.11-.55,1.3,1.3,0,0,1,.3-.44,1.44,1.44,0,0,1,.45-.3,1.39,1.39,0,0,1,.56-.11,1.38,1.38,0,0,1,.55.11,1.37,1.37,0,0,1,.74.74,1.41,1.41,0,0,1,0,1.1,1.42,1.42,0,0,1-.3.44,1.36,1.36,0,0,1-.44.29,1.42,1.42,0,0,1-.55.11,1.44,1.44,0,0,1-.56-.11,1.39,1.39,0,0,1-.45-.29,1.32,1.32,0,0,1-.3-.44A1.41,1.41,0,0,1,952.57,161.6Z"/><path class="cls-74" d="M956.73,161.6a1.42,1.42,0,0,1,.11-.55,1.3,1.3,0,0,1,.3-.44,1.44,1.44,0,0,1,.45-.3,1.39,1.39,0,0,1,.56-.11,1.38,1.38,0,0,1,.55.11,1.37,1.37,0,0,1,.74.74,1.41,1.41,0,0,1,0,1.1,1.42,1.42,0,0,1-.3.44,1.36,1.36,0,0,1-.44.29,1.42,1.42,0,0,1-.55.11,1.44,1.44,0,0,1-.56-.11,1.39,1.39,0,0,1-.45-.29,1.32,1.32,0,0,1-.3-.44A1.41,1.41,0,0,1,956.73,161.6Z"/><path class="cls-74" d="M960.9,161.6a1.42,1.42,0,0,1,.11-.55,1.3,1.3,0,0,1,.3-.44,1.44,1.44,0,0,1,.45-.3,1.39,1.39,0,0,1,.56-.11,1.38,1.38,0,0,1,.55.11,1.37,1.37,0,0,1,.74.74,1.41,1.41,0,0,1,0,1.1,1.42,1.42,0,0,1-.3.44,1.36,1.36,0,0,1-.44.29,1.42,1.42,0,0,1-.55.11,1.44,1.44,0,0,1-.56-.11,1.39,1.39,0,0,1-.45-.29,1.32,1.32,0,0,1-.3-.44A1.41,1.41,0,0,1,960.9,161.6Z"/></g></g></g></svg>