<svg xmlns="http://www.w3.org/2000/svg" xmlns:xlink="http://www.w3.org/1999/xlink" viewBox="0 0 1203.72 890.34" style="zoom: 1;"><defs><style>.cls-1{fill:none;}.cls-2{clip-path:url(#clip-path);}.cls-3{fill:#e5bb9e;}.cls-4{fill:#cca89a;}.cls-5{fill:#f7d7c1;}.cls-6{fill:#1784aa;}.cls-7,.cls-8{fill:#16a0da;}.cls-7{stroke:#18b7a0;stroke-miterlimit:10;stroke-width:0.84px;}.cls-9{fill:#fff;}.cls-10{fill:url(#linear-gradient);}.cls-11{fill:#18b7a0;}.cls-12{fill:#18b7a2;}.cls-13{fill:#18b6a2;}.cls-14{fill:#18b7a1;}.cls-15{clip-path:url(#clip-path-2);}.cls-16{fill:#17abbf;}.cls-17{fill:#17abc0;}.cls-18{fill:#17aac1;}.cls-19{fill:#17aac2;}.cls-20{fill:#17adba;}.cls-21{fill:#17acbb;}.cls-22{fill:#17acbd;}.cls-23{fill:#17acbe;}.cls-24{fill:#17aac3;}.cls-25{fill:#17a9c4;}.cls-26{fill:#17a9c5;}.cls-27{fill:#17a8c6;}.cls-28{fill:#17a8c7;}.cls-29{fill:#17a8c8;}.cls-30{fill:#17a7c9;}.cls-31{fill:#17afb5;}.cls-32{fill:#17aeb6;}.cls-33{fill:#17aeb7;}.cls-34{fill:#17aeb8;}.cls-35{fill:#17adb9;}.cls-36{fill:#17a7ca;}.cls-37{fill:#17a6cb;}.cls-38{fill:#17a6cc;}.cls-39{fill:#16a6cd;}.cls-40{fill:#16a5ce;}.cls-41{fill:#16a5cf;}.cls-42{fill:#16a4d0;}.cls-43{fill:#16a4d1;}.cls-44{fill:#16a4d2;}.cls-45{fill:#16a3d3;}.cls-46{fill:#16a3d4;}.cls-47{fill:#16a2d5;}.cls-48{fill:#17b1b0;}.cls-49{fill:#17b0b1;}.cls-50{fill:#17b0b2;}.cls-51{fill:#17b0b3;}.cls-52{fill:#17afb4;}.cls-53{fill:#18b5a6;}.cls-54{fill:#18b4a7;}.cls-55{fill:#18b4a8;}.cls-56{fill:#18b4a9;}.cls-57{fill:#18b3aa;}.cls-58{fill:#18b3ab;}.cls-59{fill:#18b2ac;}.cls-60{fill:#18b2ad;}.cls-61{fill:#17b2ae;}.cls-62{fill:#17b1af;}.cls-63{fill:#18b6a3;}.cls-64{fill:#18b6a4;}.cls-65{fill:#18b5a5;}.cls-66{fill:#18b89f;}.cls-67{fill:#999;}</style><clipPath id="clip-path" transform="translate(-33.7 -34.59)"><rect class="cls-1" width="1275.08" height="1013.92"/></clipPath><linearGradient id="linear-gradient" x1="459.11" y1="70.17" x2="549.62" y2="159.43" gradientTransform="translate(6 23.16)" gradientUnits="userSpaceOnUse"><stop offset="0" stop-color="#18b89e"/><stop offset="1" stop-color="#16a0db"/></linearGradient><clipPath id="clip-path-2" transform="translate(-33.7 -34.59)"><path class="cls-1" d="M646,150.4h10V117.86l-10,0Zm-4-19.49a11.69,11.69,0,0,0-5.33-4.22v-.16a9.85,9.85,0,0,0,4.42-3.68,10.11,10.11,0,0,0,1.63-5.75,9.67,9.67,0,0,0-2.48-7,13.77,13.77,0,0,0-6.56-3.75,34.57,34.57,0,0,0-9-1.11H611.54v2.6h6.91V113h-3.19v4.39h2.64v4.3h-2v7.61h3.91v6.82h-4.91v8.25h2.75v5.93h9.64q8.44,0,12.61-3.46a11.2,11.2,0,0,0,4.14-9.08,12.94,12.94,0,0,0-.53-3.75A11.82,11.82,0,0,0,642,130.91Zm-14.25-23.22,1.41,2.47-4.63,2.71-1.41-2.47ZM623,114.11h2.48a7.9,7.9,0,0,1,4.08,1,3.72,3.72,0,0,1,1.69,3.43A4.3,4.3,0,0,1,629.9,122a5.76,5.76,0,0,1-4,1.24H623Zm-3.8,31.18-1.53-5.19,2.76-.83,1.53,5.19Zm2.49-19,3.06-.34.33,3.1-3.06.34ZM626,141.48h-3v-9.4h2.89a10.44,10.44,0,0,1,5,1q1.76,1,1.76,3.84Q632.59,141.48,626,141.48Zm48.19-4.22V126.49h4.42l2.23-8.7h-6.65V105.35l-10-.06v12.51h-4.36l-2.26,8.7h6.62V138a16,16,0,0,0,1.54,7.46,9.83,9.83,0,0,0,4.55,4.41,16.91,16.91,0,0,0,7.47,1.46,9.67,9.67,0,0,0,1.54-.13l2.89-10.1a6.61,6.61,0,0,1-2.64.41Q674.23,141.57,674.23,137.26ZM653.46,104a5.12,5.12,0,0,0-2.64-.7,5,5,0,0,0-2.6.7A5.62,5.62,0,0,0,646.3,106a5.27,5.27,0,0,0-.69,2.67,5.45,5.45,0,0,0,2.6,4.63,5.16,5.16,0,0,0,5.24,0,5.44,5.44,0,0,0,1.88-1.91,5.56,5.56,0,0,0,0-5.36A5.37,5.37,0,0,0,653.46,104ZM799,121.44a17.37,17.37,0,0,0-5.68-3.62,17.87,17.87,0,0,0-6.65-1.27,18.11,18.11,0,0,0-6.68,1.27,17.69,17.69,0,0,0-9.54,9.17,17.43,17.43,0,0,0,1,15.78A17.15,17.15,0,0,0,778,149a17.46,17.46,0,0,0,8.69,2.25,17.87,17.87,0,0,0,6.65-1.27,18.71,18.71,0,0,0,4.71-2.89l-5.4-7.81-.06.1-.09.09-.09.13-.06.06a7.82,7.82,0,0,1-11.29,0,8,8,0,0,1-2.29-4.6h21.58V135h3.89l.06-.54a2.15,2.15,0,0,0,0-.35v-.29a16.84,16.84,0,0,0-1.41-6.86A16.6,16.6,0,0,0,799,121.44Zm-18.48,7.33a9.35,9.35,0,0,1,2.2-2,7.78,7.78,0,0,1,7.91,0,9.35,9.35,0,0,1,2.2,2Zm-88.41,21.49,10.92,0V132.11h11.36l-2.54-9.49H703v-7.78h16v-9.56H692.11Zm135.72-8.7q-5.33,0-5.33-4.32V126.49h4.42l2.23-8.7H822.5V105.35l-10-.06v12.51h-4.36l-2.26,8.7h6.62V138a16,16,0,0,0,1.54,7.46,9.83,9.83,0,0,0,4.55,4.41,16.91,16.91,0,0,0,7.47,1.46,9.67,9.67,0,0,0,1.54-.13l2.89-10.1A6.61,6.61,0,0,1,827.83,141.57Zm-107.2,8.83,10-.13v-45l-10,0Zm41.54-29a17.37,17.37,0,0,0-5.68-3.62,17.87,17.87,0,0,0-6.65-1.27,18.11,18.11,0,0,0-6.68,1.27,17.69,17.69,0,0,0-9.54,9.17,17.43,17.43,0,0,0,1,15.78,17.15,17.15,0,0,0,6.49,6.25,17.46,17.46,0,0,0,8.69,2.25,17.87,17.87,0,0,0,6.65-1.27,18.71,18.71,0,0,0,4.71-2.89l-5.4-7.81-.06.1-.09.09-.09.13-.06.06a7.82,7.82,0,0,1-11.29,0,8,8,0,0,1-2.29-4.6h21.58V135h3.89l.06-.54a2.15,2.15,0,0,0,0-.35v-.29a16.84,16.84,0,0,0-1.41-6.86A16.6,16.6,0,0,0,762.17,121.44Zm-18.48,7.33a9.35,9.35,0,0,1,2.2-2,7.78,7.78,0,0,1,7.91,0,9.35,9.35,0,0,1,2.2,2Z"/></clipPath></defs><title>Asset 46benza-krov-stupovi</title><g id="Layer_2" data-name="Layer 2"><g id="Benza_2" data-name="Benza 2"><g class="cls-2"><polygon class="cls-5" points="1203.72 310.86 0 310.86 155.94 168.19 1047.6 168.19 1203.72 310.86"/><rect class="cls-4" y="310.86" width="1203.72" height="20.48"/><polygon class="cls-6" points="758.59 234.61 754.09 239.16 749.59 192.97 758.59 192.97 758.59 234.61"/><ellipse class="cls-6" cx="607.2" cy="110.68" rx="279.96" ry="105.71"/><polygon class="cls-6" points="445.52 232 441.02 236.56 436.52 190.37 445.52 190.37 445.52 232"/><ellipse class="cls-7" cx="600.13" cy="106.13" rx="279.96" ry="105.71"/><rect class="cls-8" x="745.09" y="193.62" width="9" height="45.54"/><rect class="cls-8" x="430.74" y="189.07" width="10.29" height="47.49"/><ellipse class="cls-9" cx="599.86" cy="106.46" rx="261" ry="95.63"/><path class="cls-10" d="M594.37,131.19v-5.37h-5.29v-5.31h-5.27v-4.28c-1.82-.52-3.66-.95-5.48-1.35s-3.51-.77-5.19-1.25c-5.53-1.58-11-3.7-16.33-5.76-7-2.69-14.17-5.48-21.67-7.13a76.86,76.86,0,0,0-41.75,2.57,110.38,110.38,0,0,0-15,7.08c-2,1.06-4,2.16-6.05,3.18-7,3.53-14.84,5.71-22.25,7.65-1.34.35-2.81.65-4.38,1-5.93,1.21-12.65,2.58-16.37,7.52h0c-2.24,3-1.28,6.12-.43,8.87l.08.26c.91,3,1.71,6,2.37,9.1.12.56.21,1.38.31,2.24.31,2.85.71,6.39,2.77,7.93,1.9,1.42,5.63,1.53,9.28,1.54h.74a1.5,1.5,0,0,0,.35-.05,1.09,1.09,0,0,0,.28.05h.12a1.35,1.35,0,0,0,1.22-1.47c0-.42-.07-1.3-.07-1.82a15,15,0,1,1,29.92,0q0,.38,0,.75a1.37,1.37,0,0,0,.84,1.32h0l.2.07.13,0h.17c9.67,0,19.39,0,29,0l20.08,0c6.23,0,12.42,0,18.48,0a1.36,1.36,0,0,0,1.34-1.37,1.43,1.43,0,0,0-.07-.41,1.27,1.27,0,0,0,.07-.41,15,15,0,1,1,29.92,0,1.08,1.08,0,0,0,0,.19,1.36,1.36,0,0,0,.17.88,1.33,1.33,0,0,0,1.84.47c4.16-2.49,9.54-7.3,12.16-13.31l0-.11H589.2V131.19ZM517,128.93a10.68,10.68,0,0,1-4.37.93,9.42,9.42,0,0,1-4.11-.92,1.37,1.37,0,0,1-.64-1.81,1.33,1.33,0,0,1,1.79-.64,7.77,7.77,0,0,0,6.16,0,1.34,1.34,0,0,1,1.79.63A1.37,1.37,0,0,1,517,128.93Zm6.48-10.24a3.42,3.42,0,0,1-3.47,3.36H479.75a3.39,3.39,0,0,1-3.38-2.6,3.28,3.28,0,0,1,1.75-3.71c9.43-4.88,27.42-12.82,41.94-11.24a3.81,3.81,0,0,1,3.45,3.75Zm32.58.89a4.4,4.4,0,0,1-4.12,2.47H529.9a4.16,4.16,0,0,1-4.4-3.84v-9.8a3.58,3.58,0,0,1,1.23-2.67,4.84,4.84,0,0,1,3.76-1.14c13.75,1.61,21.16,7,25,11.25A3.42,3.42,0,0,1,556.08,119.59Zm13.12,8.79-1.51-4.92,4.86-1.53,1.51,4.92Zm5.2,8-.33-3.1,3.06-.34.33,3.1Zm6.1-5.11L579,126.13l2.76-.83,1.53,5.19Zm-18.94,12.4a12.66,12.66,0,1,0,12.51,12.66A12.6,12.6,0,0,0,561.56,143.72Zm-100.2,0a12.66,12.66,0,1,0,12.51,12.66A12.6,12.6,0,0,0,461.35,143.72Z" transform="translate(-33.7 -34.59)"/><polygon class="cls-8" points="576.81 103.69 575.28 98.51 572.52 99.34 574.05 104.53 576.81 103.69"/><polygon class="cls-8" points="571.91 77.41 576.55 74.7 575.14 72.23 570.5 74.94 571.91 77.41"/><polygon class="cls-11" points="580.5 98.8 577.44 99.14 577.1 96.04 580.17 95.7 580.5 98.8"/><polygon class="cls-12" points="575.88 86.56 570.87 85.61 571.8 80.55 576.81 81.49 575.88 86.56"/><rect class="cls-12" x="551.38" y="78.61" width="5.11" height="3.87"/><polygon class="cls-13" points="567.01 77.19 561.98 76.24 561.28 80.04 566.31 80.99 567.01 77.19"/><polygon class="cls-11" points="565.64 103.6 568.51 108.17 570.94 106.6 568.07 102.03 565.64 103.6"/><rect class="cls-14" x="556.49" y="84.31" width="5.09" height="5.15"/><polygon class="cls-12" points="569.64 99.36 564.73 97.98 566.09 93.02 571 94.4 569.64 99.36"/><rect class="cls-8" x="558.13" y="98.94" width="5.09" height="5.15"/><polygon class="cls-8" points="567.6 90.56 562.84 88.66 564.71 83.85 569.47 85.74 567.6 90.56"/><polygon class="cls-8" points="580.13 93.48 576.09 92.72 577.02 87.66 581.07 88.42 580.13 93.48"/><g class="cls-15"><polygon class="cls-16" points="712.34 91.14 709.99 93.56 709.99 91.14 712.34 91.14"/><polygon class="cls-17" points="717.31 91.14 714.35 94.19 709.99 94.19 709.99 93.56 712.34 91.14 717.31 91.14"/><polygon class="cls-18" points="721.72 91.14 722.01 91.43 719.32 94.19 714.35 94.19 717.31 91.14 721.72 91.14"/><polygon class="cls-19" points="722.01 91.43 722.29 91.71 722.29 94.19 719.32 94.19 722.01 91.43"/><polygon class="cls-20" points="701.38 81.97 698.5 84.92 698.5 81.97 701.38 81.97"/><polygon class="cls-21" points="706.36 81.97 698.5 90.03 698.5 84.92 701.38 81.97 706.36 81.97"/><polygon class="cls-22" points="711.33 81.97 698.5 95.13 698.5 90.03 706.36 81.97 711.33 81.97"/><polygon class="cls-23" points="716.31 81.97 698.5 100.24 698.5 95.13 711.33 81.97 716.31 81.97"/><polygon class="cls-16" points="721.28 81.97 698.5 105.34 698.5 100.24 716.31 81.97 721.28 81.97"/><polygon class="cls-17" points="726.02 81.97 726.14 82.09 699.14 109.79 698.5 109.16 698.5 105.34 721.28 81.97 726.02 81.97"/><polygon class="cls-18" points="726.14 82.09 728.66 84.6 701.66 112.31 699.14 109.79 726.14 82.09"/><polygon class="cls-19" points="728.66 84.6 731.18 87.12 704.18 114.83 701.66 112.31 728.66 84.6"/><polygon class="cls-24" points="731.18 87.12 733.71 89.64 707.33 116.7 706.06 116.7 704.18 114.83 731.18 87.12"/><polygon class="cls-25" points="733.71 89.64 733.77 89.7 733.77 94.68 712.31 116.7 707.33 116.7 733.71 89.64"/><polygon class="cls-26" points="733.77 99.78 717.28 116.7 712.31 116.7 733.77 94.68 733.77 99.78"/><polygon class="cls-27" points="733.77 104.89 722.25 116.7 717.28 116.7 733.77 99.78 733.77 104.89"/><polygon class="cls-28" points="733.77 109.99 727.23 116.7 722.25 116.7 733.77 104.89 733.77 109.99"/><polygon class="cls-29" points="733.77 115.09 732.2 116.7 727.23 116.7 733.77 109.99 733.77 115.09"/><polygon class="cls-30" points="732.2 116.7 733.77 115.09 733.77 116.7 732.2 116.7"/><polygon class="cls-31" points="687.53 70.67 686.93 71.28 686.93 70.67 687.53 70.67"/><polygon class="cls-32" points="692.5 70.67 686.93 76.39 686.93 71.28 687.53 70.67 692.5 70.67"/><polygon class="cls-33" points="696.94 71.22 686.93 81.49 686.93 76.39 692.5 70.67 696.94 70.67 696.94 71.22"/><polygon class="cls-34" points="696.94 76.32 686.93 86.59 686.93 81.49 696.94 71.22 696.94 76.32"/><polygon class="cls-35" points="696.94 81.43 686.93 91.7 686.93 86.59 696.94 76.32 696.94 81.43"/><polygon class="cls-20" points="696.94 86.53 686.93 96.8 686.93 91.7 696.94 81.43 696.94 86.53"/><polygon class="cls-21" points="696.94 91.64 686.93 101.91 686.93 96.8 696.94 86.53 696.94 91.64"/><polygon class="cls-22" points="696.94 96.74 686.93 107.01 686.93 101.91 696.94 91.64 696.94 96.74"/><polygon class="cls-23" points="696.94 101.84 686.93 112.11 686.93 107.01 696.94 96.74 696.94 101.84"/><polygon class="cls-16" points="696.94 106.95 688.3 115.81 686.93 115.81 686.93 112.11 696.94 101.84 696.94 106.95"/><polygon class="cls-17" points="696.94 112.05 693.27 115.81 688.3 115.81 696.94 106.95 696.94 112.05"/><polygon class="cls-18" points="693.27 115.81 696.94 112.05 696.94 115.81 693.27 115.81"/><polygon class="cls-29" points="777.03 70.7 772.17 75.69 772.17 70.7 777.03 70.7"/><polygon class="cls-30" points="782.01 70.7 772.17 80.79 772.17 75.69 777.03 70.7 782.01 70.7"/><polygon class="cls-36" points="786.98 70.7 772.17 85.9 772.17 80.79 782.01 70.7 786.98 70.7"/><polygon class="cls-37" points="791.09 70.7 791.53 71.14 772.17 91 772.17 85.9 786.98 70.7 791.09 70.7"/><polygon class="cls-38" points="791.53 71.14 794.05 73.65 772.17 96.11 772.17 91 791.53 71.14"/><polygon class="cls-39" points="794.05 73.65 796.57 76.17 772.17 101.21 772.17 96.11 794.05 73.65"/><polygon class="cls-40" points="796.57 76.17 796.77 76.37 796.77 81.07 772.29 106.19 772.17 106.08 772.17 101.21 796.57 76.17"/><polygon class="cls-41" points="796.77 86.18 774.81 108.71 772.29 106.19 796.77 81.07 796.77 86.18"/><polygon class="cls-42" points="796.77 91.28 777.33 111.23 774.81 108.71 796.77 86.18 796.77 91.28"/><polygon class="cls-43" points="796.77 96.39 779.85 113.74 777.33 111.23 796.77 91.28 796.77 96.39"/><polygon class="cls-44" points="796.77 101.49 782.38 116.26 779.85 113.74 796.77 96.39 796.77 101.49"/><polygon class="cls-45" points="796.77 106.6 786.83 116.79 782.91 116.79 782.38 116.26 796.77 101.49 796.77 106.6"/><polygon class="cls-46" points="796.77 111.7 791.8 116.79 786.83 116.79 796.77 106.6 796.77 111.7"/><polygon class="cls-47" points="791.8 116.79 796.77 111.7 796.77 116.79 791.8 116.79"/><polygon class="cls-48" points="662.63 70.7 658.41 75.02 658.41 70.7 662.63 70.7"/><polygon class="cls-49" points="667.6 70.7 658.41 80.13 658.41 75.02 662.63 70.7 667.6 70.7"/><polygon class="cls-50" points="672.57 70.7 658.41 85.23 658.41 80.13 667.6 70.7 672.57 70.7"/><polygon class="cls-51" points="677.55 70.7 658.41 90.34 658.41 85.23 672.57 70.7 677.55 70.7"/><polygon class="cls-52" points="682.52 70.7 658.41 95.44 658.41 90.34 677.55 70.7 682.52 70.7"/><polygon class="cls-31" points="685.36 72.89 658.41 100.55 658.41 95.44 682.52 70.7 685.36 70.7 685.36 72.89"/><polygon class="cls-32" points="685.36 78 658.41 105.65 658.41 100.55 685.36 72.89 685.36 78"/><polygon class="cls-33" points="685.36 83.1 658.41 110.75 658.41 105.65 685.36 78 685.36 83.1"/><polygon class="cls-34" points="685.36 88.2 658.55 115.72 658.41 115.72 658.41 110.75 685.36 83.1 685.36 88.2"/><polygon class="cls-35" points="685.36 93.31 663.52 115.72 658.55 115.72 685.36 88.2 685.36 93.31"/><polygon class="cls-20" points="685.36 98.41 668.5 115.72 663.52 115.72 685.36 93.31 685.36 98.41"/><polygon class="cls-21" points="685.36 103.52 673.47 115.72 668.5 115.72 685.36 98.41 685.36 103.52"/><polygon class="cls-22" points="685.36 108.62 678.45 115.72 673.47 115.72 685.36 103.52 685.36 108.62"/><polygon class="cls-23" points="685.36 113.72 683.42 115.72 678.45 115.72 685.36 108.62 685.36 113.72"/><polygon class="cls-16" points="683.42 115.72 685.36 113.72 685.36 115.72 683.42 115.72"/><polygon class="cls-27" points="747.16 91.14 746.82 91.49 746.82 91.14 747.16 91.14"/><polygon class="cls-28" points="752.13 91.14 749.16 94.19 746.82 94.19 746.82 91.49 747.16 91.14 752.13 91.14"/><polygon class="cls-29" points="757.11 91.14 754.14 94.19 749.16 94.19 752.13 91.14 757.11 91.14"/><polygon class="cls-30" points="758.55 91.14 759.12 91.71 759.12 94.19 759.11 94.19 754.14 94.19 757.11 91.14 758.55 91.14"/><polygon class="cls-36" points="759.11 94.19 759.12 94.19 759.12 94.19 759.11 94.19"/><polygon class="cls-19" points="736.21 81.97 735.34 82.86 735.34 81.97 736.21 81.97"/><polygon class="cls-24" points="741.18 81.97 735.34 87.96 735.34 82.86 736.21 81.97 741.18 81.97"/><polygon class="cls-25" points="746.15 81.97 735.34 93.07 735.34 87.96 741.18 81.97 746.15 81.97"/><polygon class="cls-26" points="751.13 81.97 735.34 98.17 735.34 93.07 746.15 81.97 751.13 81.97"/><polygon class="cls-27" points="756.1 81.97 735.34 103.28 735.34 98.17 751.13 81.97 756.1 81.97"/><polygon class="cls-28" points="761.08 81.97 735.34 108.38 735.34 103.28 756.1 81.97 761.08 81.97"/><polygon class="cls-29" points="762.86 81.97 764.48 83.58 737.48 111.29 735.34 109.16 735.34 108.38 761.08 81.97 762.86 81.97"/><polygon class="cls-30" points="764.48 83.58 767 86.1 740 113.81 737.48 111.29 764.48 83.58"/><polygon class="cls-36" points="767 86.1 769.52 88.62 742.52 116.32 740 113.81 767 86.1"/><polygon class="cls-37" points="769.52 88.62 770.6 89.7 770.6 92.61 747.13 116.7 742.9 116.7 742.52 116.32 769.52 88.62"/><polygon class="cls-38" points="770.6 97.72 752.1 116.7 747.13 116.7 770.6 92.61 770.6 97.72"/><polygon class="cls-39" points="770.6 102.82 757.08 116.7 752.1 116.7 770.6 97.72 770.6 102.82"/><polygon class="cls-40" points="770.6 107.92 762.05 116.7 757.08 116.7 770.6 102.82 770.6 107.92"/><polygon class="cls-41" points="770.6 113.03 767.02 116.7 762.05 116.7 770.6 107.92 770.6 113.03"/><polygon class="cls-42" points="767.02 116.7 770.6 113.03 770.6 116.7 767.02 116.7"/><polygon class="cls-53" points="614.77 68.76 611.91 71.69 611.91 68.76 614.77 68.76"/><polygon class="cls-54" points="619.74 68.76 611.91 76.8 611.91 71.69 614.77 68.76 619.74 68.76"/><polygon class="cls-55" points="621.72 68.76 622.33 69.37 622.33 71.21 614.35 79.4 612.56 79.4 611.91 78.75 611.91 76.8 619.74 68.76 621.72 68.76"/><polygon class="cls-56" points="622.33 76.32 619.33 79.4 614.35 79.4 622.33 71.21 622.33 76.32"/><polygon class="cls-57" points="619.33 79.4 622.33 76.32 622.33 79.4 619.33 79.4"/><polygon class="cls-56" points="627.8 70.7 623.9 74.71 623.9 70.7 627.8 70.7"/><polygon class="cls-57" points="632.78 70.7 623.9 79.81 623.9 74.71 627.8 70.7 632.78 70.7"/><polygon class="cls-58" points="637.75 70.7 623.9 84.91 623.9 79.81 632.78 70.7 637.75 70.7"/><polygon class="cls-59" points="642.73 70.7 623.9 90.02 623.9 84.91 637.75 70.7 642.73 70.7"/><polygon class="cls-60" points="642.82 70.7 645.29 73.17 623.9 95.12 623.9 90.02 642.73 70.7 642.82 70.7"/><polygon class="cls-61" points="645.29 73.17 647.82 75.69 623.9 100.23 623.9 95.12 645.29 73.17"/><polygon class="cls-62" points="647.82 75.69 648.5 76.37 648.5 80.09 623.9 105.33 623.9 100.23 647.82 75.69"/><polygon class="cls-48" points="648.5 85.2 626.05 108.22 623.9 106.08 623.9 105.33 648.5 80.09 648.5 85.2"/><polygon class="cls-49" points="648.5 90.3 628.58 110.74 626.05 108.22 648.5 85.2 648.5 90.3"/><polygon class="cls-50" points="648.5 95.41 631.1 113.26 628.58 110.74 648.5 90.3 648.5 95.41"/><polygon class="cls-51" points="648.5 100.51 633.62 115.78 631.1 113.26 648.5 95.41 648.5 100.51"/><polygon class="cls-52" points="648.5 105.61 637.6 116.79 634.64 116.79 633.62 115.78 648.5 100.51 648.5 105.61"/><polygon class="cls-31" points="648.5 110.72 642.57 116.79 637.6 116.79 648.5 105.61 648.5 110.72"/><polygon class="cls-32" points="648.5 115.82 647.55 116.79 642.57 116.79 648.5 110.72 648.5 115.82"/><polygon class="cls-33" points="647.55 116.79 648.5 115.82 648.5 116.79 647.55 116.79"/><polygon class="cls-54" points="591.74 97.49 589.29 100.01 589.29 97.49 591.74 97.49"/><polygon class="cls-55" points="596.72 97.49 589.29 105.11 589.29 100.01 591.74 97.49 596.72 97.49"/><polygon class="cls-56" points="598.89 100.36 592.53 106.89 589.29 106.89 589.29 105.11 596.72 97.49 598.89 97.49 598.89 100.36"/><polygon class="cls-57" points="598.89 105.47 597.51 106.89 592.53 106.89 598.89 100.36 598.89 105.47"/><polygon class="cls-58" points="597.51 106.89 598.89 105.47 598.89 106.89 597.51 106.89"/><polygon class="cls-53" points="591.38 92.76 589.43 94.76 587.98 94.76 587.98 91.33 591.38 91.33 591.38 92.76"/><polygon class="cls-54" points="589.43 94.76 591.38 92.76 591.38 94.76 589.43 94.76"/><polygon class="cls-54" points="584.74 104.68 583.97 105.47 583.97 104.68 584.74 104.68"/><polygon class="cls-55" points="588.26 106.17 583.97 110.58 583.97 105.47 584.74 104.68 588.26 104.68 588.26 106.17"/><polygon class="cls-56" points="583.97 110.58 588.26 106.17 588.26 110.71 583.97 110.71 583.97 110.58"/><polygon class="cls-63" points="589.36 79.52 589.29 79.59 589.29 79.52 589.36 79.52"/><polygon class="cls-64" points="594.33 79.52 589.29 84.69 589.29 79.59 589.36 79.52 594.33 79.52"/><polygon class="cls-65" points="597.54 81.33 590.43 88.64 589.29 88.64 589.29 84.69 594.33 79.52 597.54 79.52 597.54 81.33"/><polygon class="cls-53" points="597.54 86.44 595.4 88.64 590.43 88.64 597.54 81.33 597.54 86.44"/><polygon class="cls-54" points="595.4 88.64 597.54 86.44 597.54 88.64 595.4 88.64"/><polygon class="cls-13" points="590.65 73.1 589.39 74.39 589.39 73.1 590.65 73.1"/><polygon class="cls-63" points="595.43 73.29 590.58 78.27 589.39 78.27 589.39 74.39 590.65 73.1 595.43 73.1 595.43 73.29"/><polygon class="cls-64" points="590.58 78.27 595.43 73.29 595.43 78.27 590.58 78.27"/><polygon class="cls-66" points="578.06 70.7 577.84 70.92 577.84 70.7 578.06 70.7"/><polygon class="cls-11" points="583.04 70.7 577.84 76.03 577.84 70.92 578.06 70.7 583.04 70.7"/><polygon class="cls-14" points="588.01 70.7 577.84 81.13 577.84 76.03 583.04 70.7 588.01 70.7"/><polygon class="cls-13" points="592.98 70.7 577.84 86.24 577.84 81.13 588.01 70.7 592.98 70.7"/><polygon class="cls-63" points="597.96 70.7 577.84 91.34 577.84 86.24 592.98 70.7 597.96 70.7"/><polygon class="cls-64" points="602.93 70.7 577.84 96.44 577.84 91.34 597.96 70.7 602.93 70.7"/><polygon class="cls-65" points="604.09 70.7 606.02 72.63 577.84 101.55 577.84 96.44 602.93 70.7 604.09 70.7"/><polygon class="cls-53" points="606.02 72.63 608.55 75.15 577.84 106.65 577.84 101.55 606.02 72.63"/><polygon class="cls-54" points="608.55 75.15 610.35 76.94 610.35 78.41 577.84 111.76 577.84 106.65 608.55 75.15"/><polygon class="cls-55" points="610.35 83.51 580.25 114.4 577.84 112 577.84 111.76 610.35 78.41 610.35 83.51"/><polygon class="cls-56" points="610.35 88.61 583.9 115.75 581.6 115.75 580.25 114.4 610.35 83.51 610.35 88.61"/><polygon class="cls-57" points="610.35 93.72 588.88 115.75 583.9 115.75 610.35 88.61 610.35 93.72"/><polygon class="cls-58" points="610.35 98.82 593.85 115.75 588.88 115.75 610.35 93.72 610.35 98.82"/><polygon class="cls-59" points="610.35 103.93 598.83 115.75 593.85 115.75 610.35 98.82 610.35 103.93"/><polygon class="cls-60" points="610.35 109.03 603.8 115.75 598.83 115.75 610.35 103.93 610.35 109.03"/><polygon class="cls-61" points="610.35 114.14 608.77 115.75 603.8 115.75 610.35 109.03 610.35 114.14"/><polygon class="cls-62" points="608.77 115.75 610.35 114.14 610.35 115.75 608.77 115.75"/><polygon class="cls-56" points="615.55 83.27 612.29 86.62 612.29 83.27 615.55 83.27"/><polygon class="cls-57" points="620.53 83.27 612.29 91.72 612.29 86.62 615.55 83.27 620.53 83.27"/><polygon class="cls-58" points="622.3 86.56 612.29 96.83 612.29 91.72 620.53 83.27 622.3 83.27 622.3 86.56"/><polygon class="cls-59" points="622.3 91.66 612.29 101.93 612.29 96.83 622.3 86.56 622.3 91.66"/><polygon class="cls-60" points="622.3 96.77 612.29 107.03 612.29 101.93 622.3 91.66 622.3 96.77"/><polygon class="cls-61" points="622.3 101.87 612.29 112.14 612.29 107.03 622.3 96.77 622.3 101.87"/><polygon class="cls-62" points="622.3 106.97 613.69 115.81 612.29 115.81 612.29 112.14 622.3 101.87 622.3 106.97"/><polygon class="cls-48" points="622.3 112.08 618.66 115.81 613.69 115.81 622.3 106.97 622.3 112.08"/><polygon class="cls-49" points="618.66 115.81 622.3 112.08 622.3 115.81 618.66 115.81"/></g><path class="cls-67" d="M662,161.64h1.76a.77.77,0,0,1,.45.13.62.62,0,0,1,.24.35l1.91,6.8q.07.25.13.55t.11.63q.06-.33.14-.63t.16-.55l2.21-6.8a.75.75,0,0,1,.25-.33.68.68,0,0,1,.45-.15h.61a.75.75,0,0,1,.45.13.67.67,0,0,1,.25.35l2.19,6.8a9.23,9.23,0,0,1,.3,1.12q.05-.31.11-.59c0-.19.08-.36.12-.53l1.91-6.8a.64.64,0,0,1,.24-.34.73.73,0,0,1,.45-.14h1.64L674.59,173H672.7l-2.46-7.77-.1-.32c0-.12-.07-.24-.1-.37,0,.13-.06.25-.1.37l-.1.32L667.38,173h-1.89Z" transform="translate(-33.7 -34.59)"/><path class="cls-67" d="M682.17,164.82a3.83,3.83,0,0,1,1.39.24,3,3,0,0,1,1.09.71,3.27,3.27,0,0,1,.72,1.15,4.38,4.38,0,0,1,.26,1.55,2.85,2.85,0,0,1,0,.37.6.6,0,0,1-.07.23.29.29,0,0,1-.14.12.57.57,0,0,1-.22,0h-4.93a2.8,2.8,0,0,0,.66,1.82,2,2,0,0,0,1.52.58,2.61,2.61,0,0,0,.8-.11,3.77,3.77,0,0,0,.59-.24l.44-.24a.74.74,0,0,1,.37-.11.41.41,0,0,1,.2,0,.44.44,0,0,1,.15.13l.56.71a3.21,3.21,0,0,1-.72.63,4,4,0,0,1-.83.41,4.4,4.4,0,0,1-.88.22,6.14,6.14,0,0,1-.87.06,4.21,4.21,0,0,1-1.55-.28,3.45,3.45,0,0,1-1.24-.83,3.88,3.88,0,0,1-.83-1.35,5.28,5.28,0,0,1-.3-1.87,4.5,4.5,0,0,1,.26-1.55,3.74,3.74,0,0,1,.76-1.27,3.57,3.57,0,0,1,1.21-.85A3.92,3.92,0,0,1,682.17,164.82Zm0,1.39a1.76,1.76,0,0,0-1.31.48,2.38,2.38,0,0,0-.61,1.36h3.61a2.44,2.44,0,0,0-.1-.71,1.65,1.65,0,0,0-.31-.59,1.49,1.49,0,0,0-.53-.4A1.79,1.79,0,0,0,682.21,166.21Z" transform="translate(-33.7 -34.59)"/><path class="cls-67" d="M695.8,173a.47.47,0,0,1-.49-.35l-.16-.78a4.81,4.81,0,0,1-.52.51,3.32,3.32,0,0,1-.59.39,3.08,3.08,0,0,1-.68.26,3.25,3.25,0,0,1-.78.09,2.61,2.61,0,0,1-1.2-.28,2.67,2.67,0,0,1-.94-.8,3.84,3.84,0,0,1-.61-1.29,6.59,6.59,0,0,1-.21-1.76,5.57,5.57,0,0,1,.24-1.67,4.09,4.09,0,0,1,.69-1.34,3.23,3.23,0,0,1,1.08-.88,3.09,3.09,0,0,1,1.41-.32,2.74,2.74,0,0,1,1.14.22,3,3,0,0,1,.85.58v-4.26H697V173Zm-2.56-1.42a2,2,0,0,0,1-.25,3.05,3.05,0,0,0,.79-.72V167a1.89,1.89,0,0,0-.71-.57,2.07,2.07,0,0,0-.83-.17,1.84,1.84,0,0,0-.79.17,1.54,1.54,0,0,0-.6.5,2.47,2.47,0,0,0-.38.85,4.9,4.9,0,0,0-.13,1.22,5.41,5.41,0,0,0,.11,1.2,2.38,2.38,0,0,0,.32.8,1.23,1.23,0,0,0,.51.45A1.61,1.61,0,0,0,693.24,171.59Z" transform="translate(-33.7 -34.59)"/><path class="cls-67" d="M702.45,164.82a4.33,4.33,0,0,1,1.62.29,3.49,3.49,0,0,1,1.24.83,3.66,3.66,0,0,1,.79,1.31,5.46,5.46,0,0,1,0,3.45,3.75,3.75,0,0,1-.79,1.31,3.44,3.44,0,0,1-1.24.83,4.66,4.66,0,0,1-3.25,0,3.48,3.48,0,0,1-1.25-.83,3.77,3.77,0,0,1-.8-1.31,5.4,5.4,0,0,1,0-3.45,3.69,3.69,0,0,1,.8-1.31,3.53,3.53,0,0,1,1.25-.83A4.37,4.37,0,0,1,702.45,164.82Zm0,6.82a1.68,1.68,0,0,0,1.47-.68,3.42,3.42,0,0,0,.48-2,3.46,3.46,0,0,0-.48-2,1.67,1.67,0,0,0-1.47-.68A1.7,1.7,0,0,0,701,167a3.45,3.45,0,0,0-.48,2,3.4,3.4,0,0,0,.48,2A1.7,1.7,0,0,0,702.45,171.64Z" transform="translate(-33.7 -34.59)"/><path class="cls-67" d="M713.22,162.59a1.11,1.11,0,0,1-.1.47,1.29,1.29,0,0,1-.27.39,1.27,1.27,0,0,1-.39.26,1.19,1.19,0,0,1-.48.1,1.15,1.15,0,0,1-.47-.1,1.24,1.24,0,0,1-.38-.26,1.27,1.27,0,0,1-.26-.39,1.16,1.16,0,0,1-.1-.47,1.24,1.24,0,0,1,.74-1.14,1.15,1.15,0,0,1,.47-.1,1.19,1.19,0,0,1,.48.1,1.27,1.27,0,0,1,.39.26,1.25,1.25,0,0,1,.27.39A1.19,1.19,0,0,1,713.22,162.59Zm-.29,2.35V173H711v-8.07Z" transform="translate(-33.7 -34.59)"/><path class="cls-67" d="M717.72,173.14a2.08,2.08,0,0,1-1.59-.59,2.29,2.29,0,0,1-.56-1.64V166.4h-.81a.38.38,0,0,1-.27-.1.39.39,0,0,1-.11-.31v-.77l1.28-.21.4-2.2a.39.39,0,0,1,.14-.24.46.46,0,0,1,.28-.09h1V165h2.1v1.38h-2.1v4.37a.87.87,0,0,0,.19.59.63.63,0,0,0,.5.21.9.9,0,0,0,.3,0l.21-.09.16-.09a.26.26,0,0,1,.14,0,.22.22,0,0,1,.14,0,.65.65,0,0,1,.12.13l.58.94a2.9,2.9,0,0,1-1,.54A3.56,3.56,0,0,1,717.72,173.14Z" transform="translate(-33.7 -34.59)"/><path class="cls-67" d="M726.16,164.95v8.34a3.49,3.49,0,0,1-.14,1,2.18,2.18,0,0,1-.43.81,2,2,0,0,1-.78.55,3.11,3.11,0,0,1-1.19.2,3.36,3.36,0,0,1-.5,0,2.89,2.89,0,0,1-.47-.11l.06-1a.23.23,0,0,1,.12-.2,1.14,1.14,0,0,1,.39,0,1.72,1.72,0,0,0,.49-.06.69.69,0,0,0,.32-.19.74.74,0,0,0,.17-.34,2.31,2.31,0,0,0,.05-.53v-8.34Zm.29-2.35a1.11,1.11,0,0,1-.1.47,1.29,1.29,0,0,1-.27.39,1.27,1.27,0,0,1-.39.26,1.19,1.19,0,0,1-.48.1,1.15,1.15,0,0,1-.47-.1,1.24,1.24,0,0,1-.38-.26,1.27,1.27,0,0,1-.26-.39,1.16,1.16,0,0,1-.1-.47,1.24,1.24,0,0,1,.74-1.14,1.15,1.15,0,0,1,.47-.1,1.19,1.19,0,0,1,.48.1,1.27,1.27,0,0,1,.39.26,1.25,1.25,0,0,1,.27.39A1.19,1.19,0,0,1,726.45,162.59Z" transform="translate(-33.7 -34.59)"/><path class="cls-67" d="M730.05,164.95v5.13a1.74,1.74,0,0,0,.34,1.14,1.24,1.24,0,0,0,1,.4,2,2,0,0,0,.93-.22,3.24,3.24,0,0,0,.82-.62v-5.84h1.92V173h-1.17a.47.47,0,0,1-.49-.35l-.13-.64a5.59,5.59,0,0,1-.51.46,3.06,3.06,0,0,1-1.21.58,3.21,3.21,0,0,1-.74.08,2.8,2.8,0,0,1-1.15-.22,2.32,2.32,0,0,1-.84-.63,2.79,2.79,0,0,1-.52-1,4.17,4.17,0,0,1-.17-1.24v-5.13Z" transform="translate(-33.7 -34.59)"/><path class="cls-67" d="M741.87,166.52a.52.52,0,0,1-.16.18.42.42,0,0,1-.22.05.68.68,0,0,1-.3-.08l-.37-.18a3.46,3.46,0,0,0-.48-.18,2.28,2.28,0,0,0-.63-.08,1.46,1.46,0,0,0-.89.24.76.76,0,0,0-.33.64.61.61,0,0,0,.17.44,1.51,1.51,0,0,0,.44.31,4.36,4.36,0,0,0,.63.24l.71.23q.37.13.72.29a2.48,2.48,0,0,1,.63.41,1.81,1.81,0,0,1,.61,1.43,2.7,2.7,0,0,1-.21,1.07,2.35,2.35,0,0,1-.61.85,2.85,2.85,0,0,1-1,.56,4.6,4.6,0,0,1-2.17.13,4.63,4.63,0,0,1-.75-.21,4.12,4.12,0,0,1-.67-.31,3.23,3.23,0,0,1-.54-.39l.44-.74a.64.64,0,0,1,.2-.2.56.56,0,0,1,.3-.07.62.62,0,0,1,.34.1l.37.22a3.31,3.31,0,0,0,.49.22,2.16,2.16,0,0,0,.72.1,1.85,1.85,0,0,0,.59-.08,1.24,1.24,0,0,0,.4-.22.81.81,0,0,0,.23-.31.94.94,0,0,0,.07-.37.66.66,0,0,0-.17-.46A1.48,1.48,0,0,0,740,170a4.21,4.21,0,0,0-.63-.24l-.72-.23a6.52,6.52,0,0,1-.72-.29,2.45,2.45,0,0,1-.63-.43,1.94,1.94,0,0,1-.44-.64,2.24,2.24,0,0,1-.17-.91,2.34,2.34,0,0,1,.19-.94,2.2,2.2,0,0,1,.57-.78,2.83,2.83,0,0,1,.94-.54,3.89,3.89,0,0,1,1.3-.2,3.94,3.94,0,0,1,1.5.28,3.39,3.39,0,0,1,1.13.72Z" transform="translate(-33.7 -34.59)"/><path class="cls-67" d="M746.55,173.14a2.08,2.08,0,0,1-1.59-.59,2.29,2.29,0,0,1-.56-1.64V166.4h-.81a.38.38,0,0,1-.27-.1.39.39,0,0,1-.11-.31v-.77l1.28-.21.4-2.2a.39.39,0,0,1,.14-.24.46.46,0,0,1,.28-.09h1V165h2.1v1.38h-2.1v4.37a.87.87,0,0,0,.19.59.63.63,0,0,0,.5.21.9.9,0,0,0,.3,0l.21-.09.16-.09a.26.26,0,0,1,.14,0,.22.22,0,0,1,.14,0,.65.65,0,0,1,.12.13l.58.94a2.9,2.9,0,0,1-1,.54A3.56,3.56,0,0,1,746.55,173.14Z" transform="translate(-33.7 -34.59)"/><path class="cls-67" d="M759.19,173h-.86a.93.93,0,0,1-.43-.08.54.54,0,0,1-.23-.33l-.17-.57a6.62,6.62,0,0,1-.59.48,3.6,3.6,0,0,1-.6.35,3,3,0,0,1-.66.21,3.91,3.91,0,0,1-.78.07,3,3,0,0,1-.93-.14,2,2,0,0,1-.73-.41,1.89,1.89,0,0,1-.48-.69,2.47,2.47,0,0,1-.17-1,1.9,1.9,0,0,1,.24-.9,2.24,2.24,0,0,1,.79-.8,5,5,0,0,1,1.47-.6,9.25,9.25,0,0,1,2.28-.24v-.48a1.82,1.82,0,0,0-.34-1.21,1.23,1.23,0,0,0-1-.39,2.35,2.35,0,0,0-.78.11,3,3,0,0,0-.54.25l-.42.25a.85.85,0,0,1-.43.11.55.55,0,0,1-.33-.1.79.79,0,0,1-.23-.25l-.35-.62a4.71,4.71,0,0,1,3.32-1.27,3.18,3.18,0,0,1,1.25.23,2.65,2.65,0,0,1,.93.64,2.77,2.77,0,0,1,.58,1,3.83,3.83,0,0,1,.2,1.26Zm-3.73-1.21a2.57,2.57,0,0,0,.54-.05,2.11,2.11,0,0,0,.47-.16,2.51,2.51,0,0,0,.43-.27,3.89,3.89,0,0,0,.42-.38v-1.35a7.72,7.72,0,0,0-1.4.11,3.73,3.73,0,0,0-.91.27,1.17,1.17,0,0,0-.49.39.87.87,0,0,0-.14.48.86.86,0,0,0,.3.74A1.28,1.28,0,0,0,755.46,171.8Z" transform="translate(-33.7 -34.59)"/><path class="cls-67" d="M764.19,173V161.64h3.88a7.29,7.29,0,0,1,1.89.21,3.58,3.58,0,0,1,1.28.61,2.35,2.35,0,0,1,.73,1,3.23,3.23,0,0,1,.23,1.26,2.52,2.52,0,0,1-.12.77,2.24,2.24,0,0,1-.36.68,2.73,2.73,0,0,1-.62.58,3.76,3.76,0,0,1-.9.44q2.32.53,2.32,2.53a3.26,3.26,0,0,1-.27,1.34,3,3,0,0,1-.79,1.06,3.77,3.77,0,0,1-1.28.7,5.55,5.55,0,0,1-1.74.25Zm2.09-6.45H768a2.78,2.78,0,0,0,1.62-.39,1.43,1.43,0,0,0,.55-1.25,1.49,1.49,0,0,0-.5-1.27,2.57,2.57,0,0,0-1.55-.38h-1.79Zm0,1.46v3.34h2.12a2.9,2.9,0,0,0,1-.14,1.7,1.7,0,0,0,.63-.38,1.39,1.39,0,0,0,.34-.55,2.09,2.09,0,0,0,.1-.67,1.8,1.8,0,0,0-.12-.66,1.25,1.25,0,0,0-.37-.5,1.71,1.71,0,0,0-.64-.32,3.49,3.49,0,0,0-.94-.11Z" transform="translate(-33.7 -34.59)"/><path class="cls-67" d="M776.54,162.59a1.11,1.11,0,0,1-.1.47,1.29,1.29,0,0,1-.27.39,1.27,1.27,0,0,1-.39.26,1.19,1.19,0,0,1-.48.1,1.15,1.15,0,0,1-.47-.1,1.24,1.24,0,0,1-.38-.26,1.27,1.27,0,0,1-.26-.39,1.16,1.16,0,0,1-.1-.47,1.24,1.24,0,0,1,.74-1.14,1.15,1.15,0,0,1,.47-.1,1.19,1.19,0,0,1,.48.1,1.27,1.27,0,0,1,.39.26,1.25,1.25,0,0,1,.27.39A1.19,1.19,0,0,1,776.54,162.59Zm-.29,2.35V173h-1.92v-8.07Z" transform="translate(-33.7 -34.59)"/><path class="cls-67" d="M781,173.14a2.08,2.08,0,0,1-1.59-.59,2.29,2.29,0,0,1-.56-1.64V166.4h-.81a.38.38,0,0,1-.27-.1.39.39,0,0,1-.11-.31v-.77L779,165l.4-2.2a.39.39,0,0,1,.14-.24.46.46,0,0,1,.28-.09h1V165h2.1v1.38h-2.1v4.37a.87.87,0,0,0,.19.59.63.63,0,0,0,.5.21.9.9,0,0,0,.3,0l.21-.09.16-.09a.26.26,0,0,1,.14,0,.22.22,0,0,1,.14,0,.65.65,0,0,1,.12.13l.58.94a2.9,2.9,0,0,1-1,.54A3.56,3.56,0,0,1,781,173.14Z" transform="translate(-33.7 -34.59)"/><path class="cls-67" d="M787.46,173V161.33h1.92v4.61a3.77,3.77,0,0,1,1.07-.81,3.05,3.05,0,0,1,1.4-.3,2.62,2.62,0,0,1,1.19.27,2.66,2.66,0,0,1,.93.79,3.81,3.81,0,0,1,.61,1.28,6.54,6.54,0,0,1,.21,1.75,5.59,5.59,0,0,1-.24,1.67,4.1,4.1,0,0,1-.69,1.34,3.17,3.17,0,0,1-1.08.88,3.12,3.12,0,0,1-1.42.32,2.79,2.79,0,0,1-.67-.08,2.34,2.34,0,0,1-.55-.21,2.39,2.39,0,0,1-.46-.33,4.1,4.1,0,0,1-.41-.43l-.09.54a.42.42,0,0,1-.47.38Zm3.73-6.69a1.94,1.94,0,0,0-1,.26,3,3,0,0,0-.79.72v3.62a1.84,1.84,0,0,0,.71.57,2.15,2.15,0,0,0,.84.16,1.82,1.82,0,0,0,.79-.16,1.55,1.55,0,0,0,.59-.5,2.51,2.51,0,0,0,.38-.85,4.94,4.94,0,0,0,.13-1.22,5.47,5.47,0,0,0-.11-1.2,2.33,2.33,0,0,0-.32-.8,1.28,1.28,0,0,0-.51-.45A1.58,1.58,0,0,0,791.19,166.33Z" transform="translate(-33.7 -34.59)"/><path class="cls-67" d="M799.59,164.82a3.83,3.83,0,0,1,1.39.24,3,3,0,0,1,1.09.71,3.27,3.27,0,0,1,.72,1.15,4.38,4.38,0,0,1,.26,1.55,2.85,2.85,0,0,1,0,.37.6.6,0,0,1-.07.23.29.29,0,0,1-.14.12.57.57,0,0,1-.22,0h-4.93a2.8,2.8,0,0,0,.66,1.82,2,2,0,0,0,1.52.58,2.61,2.61,0,0,0,.8-.11,3.77,3.77,0,0,0,.59-.24l.44-.24a.74.74,0,0,1,.37-.11.41.41,0,0,1,.2,0,.44.44,0,0,1,.15.13l.56.71a3.21,3.21,0,0,1-.72.63,4,4,0,0,1-.83.41,4.4,4.4,0,0,1-.88.22,6.14,6.14,0,0,1-.87.06,4.21,4.21,0,0,1-1.55-.28,3.45,3.45,0,0,1-1.24-.83,3.88,3.88,0,0,1-.83-1.35,5.28,5.28,0,0,1-.3-1.87,4.5,4.5,0,0,1,.26-1.55,3.74,3.74,0,0,1,.76-1.27,3.57,3.57,0,0,1,1.21-.85A3.92,3.92,0,0,1,799.59,164.82Zm0,1.39a1.76,1.76,0,0,0-1.31.48,2.38,2.38,0,0,0-.61,1.36h3.61a2.44,2.44,0,0,0-.1-.71,1.65,1.65,0,0,0-.31-.59,1.49,1.49,0,0,0-.53-.4A1.79,1.79,0,0,0,799.63,166.21Z" transform="translate(-33.7 -34.59)"/><path class="cls-67" d="M807.23,173.14a2.08,2.08,0,0,1-1.59-.59,2.29,2.29,0,0,1-.56-1.64V166.4h-.81a.38.38,0,0,1-.27-.1.39.39,0,0,1-.11-.31v-.77l1.28-.21.4-2.2a.39.39,0,0,1,.14-.24.46.46,0,0,1,.28-.09h1V165h2.1v1.38H807v4.37a.87.87,0,0,0,.19.59.63.63,0,0,0,.5.21.9.9,0,0,0,.3,0l.21-.09.16-.09a.26.26,0,0,1,.14,0,.22.22,0,0,1,.14,0,.65.65,0,0,1,.12.13l.58.94a2.9,2.9,0,0,1-1,.54A3.56,3.56,0,0,1,807.23,173.14Z" transform="translate(-33.7 -34.59)"/><path class="cls-67" d="M813.24,173.14a2.08,2.08,0,0,1-1.59-.59,2.29,2.29,0,0,1-.56-1.64V166.4h-.81a.38.38,0,0,1-.27-.1.39.39,0,0,1-.11-.31v-.77l1.28-.21.4-2.2a.39.39,0,0,1,.14-.24.46.46,0,0,1,.28-.09h1V165h2.1v1.38H813v4.37a.87.87,0,0,0,.19.59.63.63,0,0,0,.5.21.9.9,0,0,0,.3,0l.21-.09.16-.09a.26.26,0,0,1,.14,0,.22.22,0,0,1,.14,0,.65.65,0,0,1,.12.13l.58.94a2.9,2.9,0,0,1-1,.54A3.56,3.56,0,0,1,813.24,173.14Z" transform="translate(-33.7 -34.59)"/><path class="cls-67" d="M819.93,164.82a3.83,3.83,0,0,1,1.39.24,3,3,0,0,1,1.09.71,3.27,3.27,0,0,1,.72,1.15,4.38,4.38,0,0,1,.26,1.55,2.85,2.85,0,0,1,0,.37.6.6,0,0,1-.07.23.29.29,0,0,1-.14.12.57.57,0,0,1-.22,0H818a2.8,2.8,0,0,0,.66,1.82,2,2,0,0,0,1.52.58,2.61,2.61,0,0,0,.8-.11,3.77,3.77,0,0,0,.59-.24L822,171a.74.74,0,0,1,.37-.11.41.41,0,0,1,.2,0,.44.44,0,0,1,.15.13l.56.71a3.21,3.21,0,0,1-.72.63,4,4,0,0,1-.83.41,4.4,4.4,0,0,1-.88.22,6.14,6.14,0,0,1-.87.06,4.21,4.21,0,0,1-1.55-.28,3.45,3.45,0,0,1-1.24-.83,3.88,3.88,0,0,1-.83-1.35,5.28,5.28,0,0,1-.3-1.87,4.5,4.5,0,0,1,.26-1.55,3.74,3.74,0,0,1,.76-1.27,3.57,3.57,0,0,1,1.21-.85A3.92,3.92,0,0,1,819.93,164.82Zm0,1.39a1.76,1.76,0,0,0-1.31.48,2.38,2.38,0,0,0-.61,1.36h3.61a2.44,2.44,0,0,0-.1-.71,1.65,1.65,0,0,0-.31-.59,1.49,1.49,0,0,0-.53-.4A1.79,1.79,0,0,0,820,166.21Z" transform="translate(-33.7 -34.59)"/><path class="cls-67" d="M824.95,173v-8.07h1.13a.6.6,0,0,1,.41.11.64.64,0,0,1,.15.38l.12,1a3.82,3.82,0,0,1,1-1.18,2.09,2.09,0,0,1,1.29-.43,1.65,1.65,0,0,1,1,.28l-.25,1.46a.3.3,0,0,1-.1.2.34.34,0,0,1-.21.06,1.3,1.3,0,0,1-.32-.06,2.11,2.11,0,0,0-.54-.05,1.61,1.61,0,0,0-1,.33,2.57,2.57,0,0,0-.72,1v5Z" transform="translate(-33.7 -34.59)"/><path class="cls-67" d="M829.78,171.95a1.22,1.22,0,0,1,.09-.46,1.1,1.1,0,0,1,.25-.38,1.21,1.21,0,0,1,.38-.25,1.16,1.16,0,0,1,.47-.09,1.14,1.14,0,0,1,.46.09,1.2,1.2,0,0,1,.62,1.56,1.21,1.21,0,0,1-.25.37,1.14,1.14,0,0,1-.37.25,1.18,1.18,0,0,1-.46.09,1.2,1.2,0,0,1-.47-.09,1.17,1.17,0,0,1-.38-.25,1.12,1.12,0,0,1-.25-.37A1.21,1.21,0,0,1,829.78,171.95Z" transform="translate(-33.7 -34.59)"/><path class="cls-67" d="M833.28,171.95a1.22,1.22,0,0,1,.09-.46,1.1,1.1,0,0,1,.25-.38,1.21,1.21,0,0,1,.38-.25,1.16,1.16,0,0,1,.47-.09,1.14,1.14,0,0,1,.46.09,1.2,1.2,0,0,1,.62,1.56,1.21,1.21,0,0,1-.25.37,1.14,1.14,0,0,1-.37.25,1.18,1.18,0,0,1-.46.09A1.2,1.2,0,0,1,834,173a1.17,1.17,0,0,1-.38-.25,1.12,1.12,0,0,1-.25-.37A1.21,1.21,0,0,1,833.28,171.95Z" transform="translate(-33.7 -34.59)"/><path class="cls-67" d="M836.78,171.95a1.22,1.22,0,0,1,.09-.46,1.1,1.1,0,0,1,.25-.38,1.21,1.21,0,0,1,.38-.25,1.16,1.16,0,0,1,.47-.09,1.14,1.14,0,0,1,.46.09,1.2,1.2,0,0,1,.62,1.56,1.21,1.21,0,0,1-.25.37,1.14,1.14,0,0,1-.37.25,1.18,1.18,0,0,1-.46.09,1.2,1.2,0,0,1-.47-.09,1.17,1.17,0,0,1-.38-.25,1.12,1.12,0,0,1-.25-.37A1.21,1.21,0,0,1,836.78,171.95Z" transform="translate(-33.7 -34.59)"/></g></g></g></svg>