<svg xmlns="http://www.w3.org/2000/svg" xmlns:xlink="http://www.w3.org/1999/xlink" viewBox="0 0 1151.43 734.49"><defs><style>.cls-1{fill:none;}.cls-2{isolation:isolate;}.cls-3{clip-path:url(#clip-path);}.cls-4{clip-path:url(#clip-path-2);}.cls-5{fill:#c4c4c4;}.cls-6{fill:#e5bb9e;}.cls-7{fill:#d9f9f3;}.cls-14,.cls-8{fill:#fff;}.cls-8{opacity:0.5;}.cls-9{fill:#5c1826;}.cls-10{fill:#ccc;mix-blend-mode:multiply;}.cls-11{fill:#13917c;}.cls-12{fill:#18b7a0;}.cls-13{fill:#f7cb6f;}</style><clipPath id="clip-path" transform="translate(-109.87 -237.44)"><rect class="cls-1" x="47.88" width="1275.08" height="1013.92"/></clipPath><clipPath id="clip-path-2" transform="translate(-109.87 -237.44)"><rect class="cls-1" y="341.74" width="1424.84" height="707.05"/></clipPath></defs><title>Asset 47benza-ostatak</title><g class="cls-2"><g id="Layer_2" data-name="Layer 2"><g id="Benza_2" data-name="Benza 2"><g class="cls-3"><g class="cls-4"><polygon class="cls-5" points="1028.43 484.49 741.88 484.49 409.56 484.49 123 484.49 0 734.49 409.56 734.49 741.88 734.49 1151.43 734.49 1028.43 484.49"/><rect class="cls-6" x="122.91" width="905.52" height="485.75"/><rect class="cls-5" x="144.75" y="80.3" width="286.44" height="326.4"/><rect class="cls-7" x="150.63" y="84.55" width="274.68" height="313.65"/><polygon class="cls-8" points="425.31 398.2 150.63 84.55 425.31 84.55 425.31 398.2"/><rect class="cls-5" x="486.63" y="195.49" width="176.4" height="290.26"/><rect class="cls-7" x="495.05" y="204.61" width="157.88" height="280.38"/><polygon class="cls-8" points="652.93 478.21 495.05 204.39 652.93 204.39 652.93 478.21"/><rect class="cls-5" x="711.75" y="76.9" width="286.44" height="326.4"/><rect class="cls-7" x="717.63" y="81.15" width="274.68" height="313.65"/><polygon class="cls-8" points="992.31 394.8 717.63 81.15 992.31 81.15 992.31 394.8"/><rect class="cls-5" x="486.63" y="345.38" width="173.88" height="7.42"/><path class="cls-9" d="M957.76,655.94c-9.2,0-12.73-11.76-12.87-12.26a1.92,1.92,0,0,1,1-2.33,1.52,1.52,0,0,1,2,1.14c0,.16,3,9.77,9.91,9.77h.05c8.15-.06,13.31,0,13.36,0a1.86,1.86,0,0,1,0,3.68h0c-.06,0-5.18-.06-13.31,0Z" transform="translate(-109.87 -237.44)"/><path class="cls-9" d="M953.76,654.37a1.15,1.15,0,0,1-1-.68,1.52,1.52,0,0,1,.42-1.89c1.22-.83,4.31-3.57,4.08-6.28a1.34,1.34,0,0,1,1.06-1.5,1.24,1.24,0,0,1,1.28,1.24c.42,5-5,8.77-5.23,8.92A1,1,0,0,1,953.76,654.37Z" transform="translate(-109.87 -237.44)"/><path class="cls-9" d="M974.51,658.57a2.13,2.13,0,0,1-1.45-.59l-15.83-14.58h-23.5a2.79,2.79,0,0,1,0-5.52H958a2.15,2.15,0,0,1,1.45.58L976,653.64a3.1,3.1,0,0,1,.4,3.88A2.25,2.25,0,0,1,974.51,658.57Z" transform="translate(-109.87 -237.44)"/><path class="cls-10" d="M477.89,655.12l7-42.08,34.16,40.26a23.84,23.84,0,0,1-3.75,1.77H495.18Z" transform="translate(-109.87 -237.44)"/><path class="cls-11" d="M509.86,602.26c3.57,0,5.89,1.74,5.67,5.74l-1.62,139.4c-.22,4-5.35,11.48-8.91,11.48l-84.28-2.46c-3.57,0-4.27,1.81-4.05-2.19l-.81-143.5c.22-4,10.21-9.29,13.78-9.29" transform="translate(-109.87 -237.44)"/><path class="cls-9" d="M512.56,655.94c-9.2,0-12.73-11.76-12.87-12.26a1.92,1.92,0,0,1,1-2.33,1.52,1.52,0,0,1,2,1.14c0,.16,3,9.77,9.91,9.77h.05c8.15-.06,13.31,0,13.36,0a1.86,1.86,0,0,1,0,3.68h0c-.06,0-5.18-.06-13.31,0Z" transform="translate(-109.87 -237.44)"/><path class="cls-9" d="M508.56,654.37a1.15,1.15,0,0,1-1-.68,1.52,1.52,0,0,1,.42-1.89c1.22-.83,4.31-3.57,4.08-6.28a1.34,1.34,0,0,1,1.06-1.5,1.24,1.24,0,0,1,1.28,1.24c.42,5-5,8.77-5.23,8.92A1,1,0,0,1,508.56,654.37Z" transform="translate(-109.87 -237.44)"/><path class="cls-9" d="M526.41,754.18a10.41,10.41,0,0,1-5.47-1.6c-4.56-2.81-9-10.17-7.67-22.41,2.91-27.27-10.69-32.64-11.26-32.86l1.91-7.48c.8.28,19.59,7.19,16,41.3-.88,8.28,1.57,12.93,4.17,14.52,2,1.26,4.3.83,6.2-1.16,4.68-4.9,6.89-18.56-1-42.19-3.77-11.35-6.08-21.12-7.94-29C516.9,654.57,515,648.6,505.17,648l.34-7.8c15.12.91,18,12.9,22.25,31,1.82,7.68,4.08,17.24,7.73,28.22,11.42,34.42,2.27,47.61-.81,50.84A11.45,11.45,0,0,1,526.41,754.18Z" transform="translate(-109.87 -237.44)"/><path class="cls-9" d="M529.31,658.57a2.13,2.13,0,0,1-1.45-.59L512,643.39h-23.5a2.79,2.79,0,0,1,0-5.52h24.32a2.15,2.15,0,0,1,1.45.58l16.47,15.18a3.1,3.1,0,0,1,.4,3.88A2.25,2.25,0,0,1,529.31,658.57Z" transform="translate(-109.87 -237.44)"/><path class="cls-12" d="M508.92,752c0,3.65-2.55,6.64-5.67,6.64h-83c-3.12,0-5.67-3-5.67-6.64V614.49c0-3.65,2.55-6.64,5.67-6.64h83c3.12,0,5.67,3,5.67,6.64Z" transform="translate(-109.87 -237.44)"/><path class="cls-13" d="M492.34,621.51H431.15c-3.12,0-5.66,3-5.66,6.64v40.14c0,3.66,2.55,6.64,5.66,6.64h26.59l9.84-32.71a.83.83,0,0,1,1-.63,1,1,0,0,1,.64,1.1l-3.84,32.24h27c3.12,0,5.67-3,5.67-6.64V628.15C498,624.49,495.46,621.51,492.34,621.51Z" transform="translate(-109.87 -237.44)"/><path class="cls-9" d="M468.58,641.58a.83.83,0,0,0-1,.63l-9.84,32.71h7.64l3.84-32.24A1,1,0,0,0,468.58,641.58Z" transform="translate(-109.87 -237.44)"/><path class="cls-9" d="M436.7,648.93a1,1,0,0,1-.72-.31,67.4,67.4,0,0,0-6-5.22,1.48,1.48,0,0,1-.33-1.84,1,1,0,0,1,1.57-.39,70.64,70.64,0,0,1,6.2,5.4,1.49,1.49,0,0,1,.15,1.87A1.08,1.08,0,0,1,436.7,648.93Z" transform="translate(-109.87 -237.44)"/><path class="cls-9" d="M449.22,644.11a1.15,1.15,0,0,1-1-.81q-1.52-4.23-3-8.38a1.42,1.42,0,0,1,.59-1.74,1.08,1.08,0,0,1,1.49.69q1.53,4.17,3.06,8.4a1.42,1.42,0,0,1-.61,1.74A1,1,0,0,1,449.22,644.11Z" transform="translate(-109.87 -237.44)"/><path class="cls-9" d="M461.74,642.65a1.24,1.24,0,0,1-1.14-1.33v-9.23a1.15,1.15,0,1,1,2.26,0v9.23A1.24,1.24,0,0,1,461.74,642.65Z" transform="translate(-109.87 -237.44)"/><path class="cls-9" d="M474.27,644.21a1,1,0,0,1-.44-.1,1.42,1.42,0,0,1-.61-1.74q1.52-4.22,3.06-8.38a1.07,1.07,0,0,1,1.49-.69,1.42,1.42,0,0,1,.59,1.75q-1.53,4.14-3,8.35A1.14,1.14,0,0,1,474.27,644.21Z" transform="translate(-109.87 -237.44)"/><path class="cls-9" d="M486.79,649.16a1.06,1.06,0,0,1-.88-.49,1.48,1.48,0,0,1,.16-1.87,66.53,66.53,0,0,1,6.2-5.32,1,1,0,0,1,1.57.41,1.48,1.48,0,0,1-.35,1.84,64.15,64.15,0,0,0-6,5.13A1,1,0,0,1,486.79,649.16Z" transform="translate(-109.87 -237.44)"/><path class="cls-9" d="M462,745.86c-8,0-14.6-7.68-14.6-17.11,0-8.14,10.18-28.66,12.22-32.69l2.38-4.72,2.39,4.72c2,4,12.21,24.54,12.21,32.69C476.64,738.19,470.1,745.86,462,745.86Z" transform="translate(-109.87 -237.44)"/><path class="cls-13" d="M473.87,728.75c0,7.66-5.3,13.87-11.83,13.87s-11.83-6.21-11.83-13.87,11.83-31,11.83-31S473.87,721.09,473.87,728.75Z" transform="translate(-109.87 -237.44)"/><path class="cls-14" d="M457.87,715.19s0,.1,0,.29-.07.48-.14.83c-.14.7-.37,1.67-.6,2.83-.12.58-.24,1.21-.34,1.87s-.21,1.35-.27,2.07a23,23,0,0,0,0,4.39,12,12,0,0,0,.41,2.09c.21.66.41,1.29.62,1.89l.55,1.76c.19.56.37,1.11.57,1.62.08.26.18.51.27.75s.18.47.26.69c.18.42.31.84.45,1.17.26.66.39,1.09.39,1.09h0a.22.22,0,0,1-.11.27.16.16,0,0,1-.1,0,6.49,6.49,0,0,1-1-.41,9.66,9.66,0,0,1-1-.67,8.8,8.8,0,0,1-1.21-1.13,10.23,10.23,0,0,1-2.18-3.81,11.65,11.65,0,0,1-.43-2.58c0-.89-.06-1.78,0-2.65a21.91,21.91,0,0,1,.76-5,31.4,31.4,0,0,1,1.37-3.93c.46-1.1.88-2,1.16-2.6.14-.31.24-.54.31-.71s.09-.26.09-.26a.16.16,0,0,1,.22-.11A.19.19,0,0,1,457.87,715.19Z" transform="translate(-109.87 -237.44)"/><path class="cls-11" d="M955.06,602.26c3.57,0,5.89,1.74,5.67,5.74l-1.62,139.4c-.22,4-5.35,11.48-8.91,11.48l-84.28-2.46c-3.57,0-4.27,1.81-4.05-2.19l-.81-143.5c.22-4,10.21-9.29,13.78-9.29" transform="translate(-109.87 -237.44)"/><path class="cls-9" d="M971.61,754.18a10.41,10.41,0,0,1-5.47-1.6c-4.56-2.81-9-10.17-7.67-22.41,2.91-27.27-10.69-32.64-11.26-32.86l1.91-7.48c.8.28,19.59,7.19,16,41.3-.88,8.28,1.57,12.93,4.17,14.52,2,1.26,4.3.83,6.2-1.16,4.68-4.9,6.89-18.56-1-42.19-3.77-11.35-6.08-21.12-7.94-29-4.44-18.77-6.32-24.74-16.17-25.33l.34-7.8c15.12.91,18,12.9,22.25,31,1.82,7.68,4.08,17.24,7.73,28.22,11.42,34.42,2.27,47.61-.81,50.84A11.45,11.45,0,0,1,971.61,754.18Z" transform="translate(-109.87 -237.44)"/><path class="cls-12" d="M954.12,752c0,3.65-2.55,6.64-5.67,6.64h-83c-3.12,0-5.67-3-5.67-6.64V614.49c0-3.65,2.55-6.64,5.67-6.64h83c3.12,0,5.67,3,5.67,6.64Z" transform="translate(-109.87 -237.44)"/><path class="cls-13" d="M937.54,621.51H876.35c-3.12,0-5.66,3-5.66,6.64v40.14c0,3.66,2.55,6.64,5.66,6.64h26.59l9.84-32.71a.83.83,0,0,1,1-.63,1,1,0,0,1,.64,1.1l-3.84,32.24h27c3.12,0,5.67-3,5.67-6.64V628.15C943.21,624.49,940.66,621.51,937.54,621.51Z" transform="translate(-109.87 -237.44)"/><path class="cls-9" d="M913.78,641.58a.83.83,0,0,0-1,.63l-9.84,32.71h7.64l3.84-32.24A1,1,0,0,0,913.78,641.58Z" transform="translate(-109.87 -237.44)"/><path class="cls-9" d="M881.9,648.93a1,1,0,0,1-.72-.31,67.4,67.4,0,0,0-6-5.22,1.48,1.48,0,0,1-.33-1.84,1,1,0,0,1,1.57-.39,70.64,70.64,0,0,1,6.2,5.4,1.49,1.49,0,0,1,.15,1.87A1.08,1.08,0,0,1,881.9,648.93Z" transform="translate(-109.87 -237.44)"/><path class="cls-9" d="M894.42,644.11a1.15,1.15,0,0,1-1-.81q-1.52-4.23-3-8.38a1.42,1.42,0,0,1,.59-1.74,1.08,1.08,0,0,1,1.49.69q1.53,4.17,3.06,8.4a1.42,1.42,0,0,1-.61,1.74A1,1,0,0,1,894.42,644.11Z" transform="translate(-109.87 -237.44)"/><path class="cls-9" d="M906.94,642.65a1.24,1.24,0,0,1-1.14-1.33v-9.23a1.15,1.15,0,1,1,2.26,0v9.23A1.24,1.24,0,0,1,906.94,642.65Z" transform="translate(-109.87 -237.44)"/><path class="cls-9" d="M919.47,644.21a1,1,0,0,1-.44-.1,1.42,1.42,0,0,1-.61-1.74q1.52-4.22,3.06-8.38a1.07,1.07,0,0,1,1.49-.69,1.42,1.42,0,0,1,.59,1.75q-1.53,4.14-3,8.35A1.14,1.14,0,0,1,919.47,644.21Z" transform="translate(-109.87 -237.44)"/><path class="cls-9" d="M932,649.16a1.06,1.06,0,0,1-.88-.49,1.48,1.48,0,0,1,.16-1.87,66.53,66.53,0,0,1,6.2-5.32,1,1,0,0,1,1.57.41,1.48,1.48,0,0,1-.35,1.84,64.15,64.15,0,0,0-6,5.13A1,1,0,0,1,932,649.16Z" transform="translate(-109.87 -237.44)"/><path class="cls-9" d="M907.24,745.86c-8,0-14.6-7.68-14.6-17.11,0-8.14,10.18-28.66,12.22-32.69l2.38-4.72,2.39,4.72c2,4,12.21,24.54,12.21,32.69C921.84,738.19,915.3,745.86,907.24,745.86Z" transform="translate(-109.87 -237.44)"/><path class="cls-13" d="M919.07,728.75c0,7.66-5.3,13.87-11.83,13.87s-11.83-6.21-11.83-13.87,11.83-31,11.83-31S919.07,721.09,919.07,728.75Z" transform="translate(-109.87 -237.44)"/><path class="cls-14" d="M903.07,715.19s0,.1,0,.29-.07.48-.14.83c-.14.7-.37,1.67-.6,2.83-.12.58-.24,1.21-.34,1.87s-.21,1.35-.27,2.07a23,23,0,0,0,0,4.39,12,12,0,0,0,.41,2.09c.21.66.41,1.29.62,1.89l.55,1.76c.19.56.37,1.11.57,1.62.08.26.18.51.27.75s.18.47.26.69c.18.42.31.84.45,1.17.26.66.39,1.09.39,1.09h0a.22.22,0,0,1-.11.27.16.16,0,0,1-.1,0,6.49,6.49,0,0,1-1-.41,9.66,9.66,0,0,1-1-.67,8.8,8.8,0,0,1-1.21-1.13,10.23,10.23,0,0,1-2.18-3.81,11.65,11.65,0,0,1-.43-2.58c0-.89-.06-1.78,0-2.65a21.91,21.91,0,0,1,.76-5,31.4,31.4,0,0,1,1.37-3.93c.46-1.1.88-2,1.16-2.6.14-.31.24-.54.31-.71s.09-.26.09-.26A.16.16,0,0,1,903,715,.19.19,0,0,1,903.07,715.19Z" transform="translate(-109.87 -237.44)"/></g></g></g></g></g></svg>