<svg xmlns="http://www.w3.org/2000/svg" xmlns:xlink="http://www.w3.org/1999/xlink" viewBox="0 0 298.62 259" style="zoom: 1;"><defs><style>.cls-1{isolation:isolate;}.cls-2{fill:url(#linear-gradient);}.cls-3,.cls-4{fill:#231f20;}.cls-3{opacity:0.3;}.cls-3,.cls-4,.cls-6{mix-blend-mode:overlay;}.cls-4{opacity:0.6;}.cls-5{fill:#fff;}.cls-6{opacity:0.4;}.cls-7{font-size:34.46px;fill:#18b7a0;font-family:Montserrat-SemiBold, Montserrat;font-weight:700;}.cls-8{font-size:26.44px;}.cls-9{letter-spacing:-0.02em;}.cls-10{letter-spacing:-0.05em;}</style><linearGradient id="linear-gradient" y1="129.5" x2="298.62" y2="129.5" gradientUnits="userSpaceOnUse"><stop offset="0" stop-color="#18b89e"/><stop offset="1" stop-color="#16a0db"/></linearGradient></defs><title>Tekst 1</title><g class="cls-1"><g id="Layer_2" data-name="Layer 2"><g id="Garaza"><path class="cls-2" d="M156.84,258.72C110.3,266.18-18.84,121,2.32,61.35s167.55-85,259.82-33.9C361.17,82.26,235.67,246.1,156.84,258.72Z"/><path class="cls-3" d="M232.06,62.31C284.19,82,254.4,187.07,216.4,213.11c-40,27.42-172.31,15.23-177.77-87.08C36.14,79.57,119,19.62,232.06,62.31Z"/><path class="cls-4" d="M232.06,57.62C284.19,77.3,254.4,182.38,216.4,208.41c-40,27.42-172.31,15.23-177.77-87.08C36.14,74.87,119,14.93,232.06,57.62Z"/><path class="cls-5" d="M232.06,51.94c52.13,19.68,22.34,124.76-15.66,150.79-40,27.42-172.31,15.23-177.77-87.08C36.14,69.2,119,9.25,232.06,51.94Z"/><path class="cls-5" d="M232.06,49c52.13,19.68,22.34,124.76-15.66,150.79-40,27.42-172.31,15.23-177.77-87.08C36.14,66.23,119,6.29,232.06,49Z"/><g class="cls-6"><path class="cls-5" d="M163.23,212.77c-29.65,0-59.2-8.29-81.08-22.76-27-17.85-42.2-44.58-43.94-77.3C37.4,97.62,45.64,81,60.81,67.07,83.73,46.05,118.57,34,156.41,34c24.58,0,50.09,4.93,75.82,14.64,15,5.66,24.45,18.93,27.32,38.37,5.66,38.36-15.58,94.35-42.88,113.06C204.87,208.14,185.39,212.77,163.23,212.77Zm-6.82-178c-37.61,0-72.23,12-95,32.84-15,13.77-23.17,30.21-22.37,45.1,3.67,68.63,65,99.35,124.18,99.35,22,0,41.26-4.57,52.91-12.55,27.11-18.57,48.19-74.23,42.57-112.38-2.83-19.16-12.1-32.23-26.81-37.79C206.27,39.65,180.87,34.74,156.41,34.74Z"/></g></g></g></g></svg>