<?xml version="1.0" encoding="utf-8"?>
<!-- Generator: Adobe Illustrator 16.0.2, SVG Export Plug-In . SVG Version: 6.00 Build 0)  -->
<!DOCTYPE svg PUBLIC "-//W3C//DTD SVG 1.1//EN" "http://www.w3.org/Graphics/SVG/1.1/DTD/svg11.dtd">
<svg version="1.1" id="Layer_1" xmlns="http://www.w3.org/2000/svg" xmlns:xlink="http://www.w3.org/1999/xlink" x="0px" y="0px"
	 width="541.65px" height="78.65px" viewBox="0 0 541.65 78.65" enable-background="new 0 0 541.65 78.65" xml:space="preserve">
<g opacity="0.3">
	<g>
		<defs>
			<rect id="SVGID_1_" x="0.175" y="0.06" width="541.646" height="78.654"/>
		</defs>
		<clipPath id="SVGID_2_">
			<use xlink:href="#SVGID_1_"  overflow="visible"/>
		</clipPath>
		<g opacity="0.1938" clip-path="url(#SVGID_2_)">
			<g>
				<defs>
					<rect id="SVGID_3_" x="0.175" y="0.06" width="62.003" height="78.654"/>
				</defs>
				<clipPath id="SVGID_4_">
					<use xlink:href="#SVGID_3_"  overflow="visible"/>
				</clipPath>
				<path clip-path="url(#SVGID_4_)" fill="#B4B4B4" d="M62.179,0.06H0.175v78.654h62.004
					c-9.214-12.232-14.271-25.484-14.271-39.327S52.965,12.292,62.179,0.06"/>
			</g>
		</g>
		<g opacity="0.1938" clip-path="url(#SVGID_2_)">
			<g>
				<defs>
					<rect id="SVGID_5_" x="479.82" y="0.06" width="62" height="78.654"/>
				</defs>
				<clipPath id="SVGID_6_">
					<use xlink:href="#SVGID_5_"  overflow="visible"/>
				</clipPath>
				<path clip-path="url(#SVGID_6_)" fill="#B4B4B4" d="M541.825,78.714V0.06h-62.008c9.218,12.232,14.274,25.484,14.274,39.327
					s-5.057,27.095-14.274,39.327H541.825z"/>
			</g>
		</g>
		<g opacity="0.1938" clip-path="url(#SVGID_2_)">
			<g>
				<defs>
					<rect id="SVGID_7_" x="406.689" y="0.06" width="87.4" height="78.654"/>
				</defs>
				<clipPath id="SVGID_8_">
					<use xlink:href="#SVGID_7_"  overflow="visible"/>
				</clipPath>
				<path clip-path="url(#SVGID_8_)" fill="#B4B4B4" d="M479.817,0.06h-73.129c13.425,11.562,21.121,24.993,21.121,39.327
					c0,14.331-7.696,27.766-21.121,39.327h73.129c9.218-12.232,14.274-25.484,14.274-39.327S489.035,12.292,479.817,0.06"/>
			</g>
		</g>
		<g opacity="0.4626" clip-path="url(#SVGID_2_)">
			<g>
				<defs>
					<rect id="SVGID_9_" x="406.689" y="0.06" width="87.4" height="78.654"/>
				</defs>
				<clipPath id="SVGID_10_">
					<use xlink:href="#SVGID_9_"  overflow="visible"/>
				</clipPath>
				<path clip-path="url(#SVGID_10_)" fill="#B4B4B4" d="M479.817,0.06h-73.129c13.425,11.562,21.121,24.993,21.121,39.327
					c0,14.331-7.696,27.766-21.121,39.327h73.129c9.218-12.232,14.274-25.484,14.274-39.327S489.035,12.292,479.817,0.06"/>
			</g>
		</g>
		<g opacity="0.1938" clip-path="url(#SVGID_2_)">
			<g>
				<defs>
					<rect id="SVGID_11_" x="47.908" y="0.06" width="87.404" height="78.654"/>
				</defs>
				<clipPath id="SVGID_12_">
					<use xlink:href="#SVGID_11_"  overflow="visible"/>
				</clipPath>
				<path clip-path="url(#SVGID_12_)" fill="#B4B4B4" d="M135.312,0.06H62.179c-9.214,12.232-14.27,25.484-14.27,39.327
					s5.056,27.095,14.27,39.327h73.133c-13.43-11.562-21.121-24.996-21.121-39.327C114.19,25.053,121.881,11.621,135.312,0.06"/>
			</g>
		</g>
		<g opacity="0.4626" clip-path="url(#SVGID_2_)">
			<g>
				<defs>
					<rect id="SVGID_13_" x="47.908" y="0.06" width="87.404" height="78.654"/>
				</defs>
				<clipPath id="SVGID_14_">
					<use xlink:href="#SVGID_13_"  overflow="visible"/>
				</clipPath>
				<path clip-path="url(#SVGID_14_)" fill="#B4B4B4" d="M135.312,0.06H62.179c-9.214,12.232-14.27,25.484-14.27,39.327
					s5.056,27.095,14.27,39.327h73.133c-13.43-11.562-21.121-24.996-21.121-39.327C114.19,25.053,121.881,11.621,135.312,0.06"/>
			</g>
		</g>
		<g opacity="0.1938" clip-path="url(#SVGID_2_)">
			<g>
				<defs>
					<rect id="SVGID_15_" x="114.191" y="0.06" width="111.987" height="78.654"/>
				</defs>
				<clipPath id="SVGID_16_">
					<use xlink:href="#SVGID_15_"  overflow="visible"/>
				</clipPath>
				<path clip-path="url(#SVGID_16_)" fill="#B4B4B4" d="M180.469,39.387c0-16.844,18.415-31.531,45.709-39.327h-90.866
					c-13.43,11.562-21.121,24.993-21.121,39.327c0,14.332,7.691,27.766,21.121,39.327h90.866
					C198.884,70.915,180.469,56.23,180.469,39.387"/>
			</g>
		</g>
		<g opacity="0.4626" clip-path="url(#SVGID_2_)">
			<g>
				<defs>
					<rect id="SVGID_17_" x="114.191" y="0.06" width="111.987" height="78.654"/>
				</defs>
				<clipPath id="SVGID_18_">
					<use xlink:href="#SVGID_17_"  overflow="visible"/>
				</clipPath>
				<path clip-path="url(#SVGID_18_)" fill="#CDCCCC" d="M180.469,39.387c0-16.844,18.415-31.531,45.709-39.327h-90.866
					c-13.43,11.562-21.121,24.993-21.121,39.327c0,14.332,7.691,27.766,21.121,39.327h90.866
					C198.884,70.915,180.469,56.23,180.469,39.387"/>
			</g>
		</g>
		<g opacity="0.7313" clip-path="url(#SVGID_2_)">
			<g>
				<defs>
					<rect id="SVGID_19_" x="114.191" y="0.06" width="111.987" height="78.654"/>
				</defs>
				<clipPath id="SVGID_20_">
					<use xlink:href="#SVGID_19_"  overflow="visible"/>
				</clipPath>
				<path clip-path="url(#SVGID_20_)" fill="#E6E6E6" d="M180.469,39.387c0-16.844,18.415-31.531,45.709-39.327h-90.866
					c-13.43,11.562-21.121,24.993-21.121,39.327c0,14.332,7.691,27.766,21.121,39.327h90.866
					C198.884,70.915,180.469,56.23,180.469,39.387"/>
			</g>
		</g>
		<g opacity="0.1938" clip-path="url(#SVGID_2_)">
			<g>
				<defs>
					<rect id="SVGID_21_" x="315.82" y="0.06" width="111.99" height="78.654"/>
				</defs>
				<clipPath id="SVGID_22_">
					<use xlink:href="#SVGID_21_"  overflow="visible"/>
				</clipPath>
				<path clip-path="url(#SVGID_22_)" fill="#B4B4B4" d="M406.688,0.06h-90.866c27.294,7.796,45.704,22.483,45.704,39.327
					s-18.41,31.528-45.704,39.327h90.866c13.425-11.562,21.121-24.996,21.121-39.327C427.81,25.053,420.113,11.621,406.688,0.06"/>
			</g>
		</g>
		<g opacity="0.4626" clip-path="url(#SVGID_2_)">
			<g>
				<defs>
					<rect id="SVGID_23_" x="315.82" y="0.06" width="111.99" height="78.654"/>
				</defs>
				<clipPath id="SVGID_24_">
					<use xlink:href="#SVGID_23_"  overflow="visible"/>
				</clipPath>
				<path clip-path="url(#SVGID_24_)" fill="#CDCCCC" d="M406.688,0.06h-90.866c27.294,7.796,45.704,22.483,45.704,39.327
					s-18.41,31.528-45.704,39.327h90.866c13.425-11.562,21.121-24.996,21.121-39.327C427.81,25.053,420.113,11.621,406.688,0.06"/>
			</g>
		</g>
		<g opacity="0.7313" clip-path="url(#SVGID_2_)">
			<g>
				<defs>
					<rect id="SVGID_25_" x="315.82" y="0.06" width="111.99" height="78.654"/>
				</defs>
				<clipPath id="SVGID_26_">
					<use xlink:href="#SVGID_25_"  overflow="visible"/>
				</clipPath>
				<path clip-path="url(#SVGID_26_)" fill="#E6E6E6" d="M406.688,0.06h-90.866c27.294,7.796,45.704,22.483,45.704,39.327
					s-18.41,31.528-45.704,39.327h90.866c13.425-11.562,21.121-24.996,21.121-39.327C427.81,25.053,420.113,11.621,406.688,0.06"/>
			</g>
		</g>
		<path clip-path="url(#SVGID_2_)" fill="#FFFFFF" d="M361.526,39.387c0-16.844-18.41-31.531-45.704-39.327h-89.645
			c-27.294,7.796-45.709,22.483-45.709,39.327s18.415,31.528,45.709,39.327h89.645C343.116,70.915,361.526,56.23,361.526,39.387"/>
	</g>
</g>
</svg>
