<svg xmlns="http://www.w3.org/2000/svg" xmlns:xlink="http://www.w3.org/1999/xlink" viewBox="0 0 444.56 448.34"><defs><style>.cls-1{isolation:isolate;}.cls-2{opacity:0.38;fill:url(#linear-gradient);}.cls-3{fill:url(#linear-gradient-2);}.cls-4,.cls-5{fill:#231f20;}.cls-4{opacity:0.3;}.cls-4,.cls-5,.cls-7{mix-blend-mode:overlay;}.cls-5{opacity:0.6;}.cls-6{fill:#fff;}.cls-7{opacity:0.4;}</style><linearGradient id="linear-gradient" x1="18.92" y1="421.06" x2="445.28" y2="-37.79" gradientUnits="userSpaceOnUse"><stop offset="0" stop-color="#b1b7c2"/><stop offset="1" stop-color="#fff"/></linearGradient><linearGradient id="linear-gradient-2" x1="-66.4" y1="479.34" x2="336.28" y2="80.88" gradientUnits="userSpaceOnUse"><stop offset="0" stop-color="#18b89e"/><stop offset="1" stop-color="#16a0db"/></linearGradient></defs><title>Asset 61za-pocetak</title><g class="cls-1"><g id="Layer_2" data-name="Layer 2"><g id="Opening_1" data-name="Opening 1"><path class="cls-2" d="M114.48,9.26c47-49.19,317.17,108.61,329.68,216.19s-269.36,278-350.23,205.44C23.74,367.92-13.11,142.92,114.48,9.26Z"/><path class="cls-3" d="M221.18,441.92C155.56,453.35-26.56,230.67,3.28,139.1s236.29-130.36,366.41-52C509.34,171.18,332.35,422.55,221.18,441.92Z"/><path class="cls-4" d="M327.26,128c73.51,31.71,31.51,201-22.08,243-56.45,44.18-243,24.54-250.7-140.32C51,155.77,167.78,59.17,327.26,128Z"/><path class="cls-5" d="M327.26,120.4c73.51,31.71,31.51,201-22.08,243-56.45,44.18-243,24.54-250.7-140.32C51,148.21,167.78,51.61,327.26,120.4Z"/><path class="cls-6" d="M327.26,111.26c73.51,31.71,31.51,201-22.08,243-56.45,44.18-243,24.54-250.7-140.32C51,139.06,167.78,42.46,327.26,111.26Z"/><path class="cls-6" d="M327.26,106.48c73.51,31.71,31.51,201-22.08,243-56.45,44.18-243,24.54-250.7-140.32C51,134.28,167.78,37.68,327.26,106.48Z"/><g class="cls-7"><path class="cls-6" d="M230.2,370.41c-41.81,0-83.49-13.37-114.34-36.67-38.08-28.76-59.51-71.83-62-124.56C52.74,184.86,64.36,158,85.76,135.62c32.31-33.86,81.45-53.28,134.82-53.28,34.66,0,70.64,7.94,106.92,23.59,21.16,9.13,34.48,30.51,38.53,61.83,8,61.81-22,152-60.48,182.18C288.92,363,261.45,370.41,230.2,370.41ZM220.58,83.53c-53,0-101.87,19.29-134,52.91C65.45,158.64,54,185.13,55.08,209.12c5.17,110.6,91.68,160.1,175.12,160.1,31,0,58.19-7.37,74.61-20.23,38.23-29.92,68-119.62,60-181.08C360.85,137,347.78,116,327,107,290.89,91.44,255.08,83.53,220.58,83.53Z"/></g></g></g></g></svg>