<svg xmlns="http://www.w3.org/2000/svg" viewBox="0 0 1897.2 628.08"><defs><style>.cls-1{fill:#c2c6c6;}</style></defs><title>Asset 4</title><g id="Layer_2" data-name="Layer 2"><g id="Grad"><rect class="cls-1" x="1331.16" y="146.61" width="237.14" height="27.89" transform="translate(2899.45 321.11) rotate(-180)"/><rect class="cls-1" x="1294" y="161.13" width="312.38" height="433.47" transform="translate(2900.38 755.74) rotate(-180)"/><rect class="cls-1" x="1332.13" y="463.29" width="95.77" height="72.05" transform="translate(2760.03 998.63) rotate(-180)"/><rect class="cls-1" x="1472.99" y="463.29" width="95.77" height="72.05" transform="translate(3041.75 998.63) rotate(-180)"/><rect class="cls-1" x="1332.13" y="376.13" width="95.77" height="72.05" transform="translate(2760.03 824.31) rotate(-180)"/><rect class="cls-1" x="1472.99" y="376.13" width="95.77" height="72.05" transform="translate(3041.75 824.31) rotate(-180)"/><rect class="cls-1" x="1332.13" y="288.97" width="95.77" height="72.05" transform="translate(2760.03 649.99) rotate(-180)"/><rect class="cls-1" x="1472.99" y="288.97" width="95.77" height="72.05" transform="translate(3041.75 649.99) rotate(-180)"/><rect class="cls-1" x="1332.13" y="201.81" width="95.77" height="72.05" transform="translate(2760.03 475.67) rotate(-180)"/><rect class="cls-1" x="1472.99" y="201.81" width="95.77" height="72.05" transform="translate(3041.75 475.67) rotate(-180)"/><rect class="cls-1" x="1669.68" y="170.85" width="87.3" height="27.68" transform="translate(3426.66 369.37) rotate(-180)"/><rect class="cls-1" x="1656" y="185.26" width="115" height="430.12" transform="translate(3427 800.65) rotate(-180)"/><rect class="cls-1" x="1670.04" y="485.08" width="35.26" height="71.49" transform="translate(3375.33 1041.66) rotate(-180)"/><rect class="cls-1" x="1721.89" y="485.08" width="35.26" height="71.49" transform="translate(3479.04 1041.66) rotate(-180)"/><rect class="cls-1" x="1670.04" y="398.6" width="35.26" height="71.49" transform="translate(3375.33 868.69) rotate(-180)"/><rect class="cls-1" x="1721.89" y="398.6" width="35.26" height="71.49" transform="translate(3479.04 868.69) rotate(-180)"/><rect class="cls-1" x="1670.04" y="312.11" width="35.26" height="71.49" transform="translate(3375.33 695.71) rotate(-180)"/><rect class="cls-1" x="1721.89" y="312.11" width="35.26" height="71.49" transform="translate(3479.04 695.71) rotate(-180)"/><rect class="cls-1" x="1670.04" y="225.62" width="35.26" height="71.49" transform="translate(3375.33 522.74) rotate(-180)"/><rect class="cls-1" x="1721.89" y="225.62" width="35.26" height="71.49" transform="translate(3479.04 522.74) rotate(-180)"/><rect class="cls-1" x="424.75" y="194" width="113.29" height="26.87" transform="translate(962.79 414.87) rotate(-180)"/><rect class="cls-1" x="407" y="207.99" width="149.24" height="417.53" transform="translate(963.24 833.52) rotate(-180)"/><rect class="cls-1" x="425.22" y="499.03" width="45.75" height="69.4" transform="translate(896.19 1067.47) rotate(-180)"/><rect class="cls-1" x="492.51" y="499.03" width="45.75" height="69.4" transform="translate(1030.78 1067.47) rotate(-180)"/><rect class="cls-1" x="425.22" y="415.08" width="45.75" height="69.4" transform="translate(896.19 899.56) rotate(-180)"/><rect class="cls-1" x="492.51" y="415.08" width="45.75" height="69.4" transform="translate(1030.78 899.56) rotate(-180)"/><rect class="cls-1" x="425.22" y="331.13" width="45.75" height="69.4" transform="translate(896.19 731.65) rotate(-180)"/><rect class="cls-1" x="492.51" y="331.13" width="45.75" height="69.4" transform="translate(1030.78 731.65) rotate(-180)"/><rect class="cls-1" x="425.22" y="247.17" width="45.75" height="69.4" transform="translate(896.19 563.74) rotate(-180)"/><rect class="cls-1" x="492.51" y="247.17" width="45.75" height="69.4" transform="translate(1030.78 563.74) rotate(-180)"/><rect class="cls-1" x="923.15" y="92" width="154.1" height="32.58" transform="translate(2000.39 216.58) rotate(-180)"/><rect class="cls-1" x="899" y="108.97" width="203" height="506.42" transform="translate(2001 724.36) rotate(-180)"/><rect class="cls-1" x="923.78" y="461.97" width="62.23" height="84.18" transform="translate(1909.79 1008.11) rotate(-180)"/><rect class="cls-1" x="1015.32" y="461.97" width="62.23" height="84.18" transform="translate(2092.87 1008.11) rotate(-180)"/><rect class="cls-1" x="923.78" y="360.14" width="62.23" height="84.18" transform="translate(1909.79 804.46) rotate(-180)"/><rect class="cls-1" x="1015.32" y="360.14" width="62.23" height="84.18" transform="translate(2092.87 804.46) rotate(-180)"/><rect class="cls-1" x="923.78" y="258.32" width="62.23" height="84.18" transform="translate(1909.79 600.81) rotate(-180)"/><rect class="cls-1" x="1015.32" y="258.32" width="62.23" height="84.18" transform="translate(2092.87 600.81) rotate(-180)"/><rect class="cls-1" x="923.78" y="156.49" width="62.23" height="84.18" transform="translate(1909.79 397.16) rotate(-180)"/><rect class="cls-1" x="1015.32" y="156.49" width="62.23" height="84.18" transform="translate(2092.87 397.16) rotate(-180)"/><rect class="cls-1" x="679.12" y="137" width="141.2" height="26.59" transform="translate(1499.45 300.59) rotate(-180)"/><rect class="cls-1" x="657" y="150.85" width="186" height="413.24" transform="translate(1500 714.93) rotate(-180)"/><rect class="cls-1" x="679.71" y="438.9" width="57.02" height="68.69" transform="translate(1416.43 946.48) rotate(-180)"/><rect class="cls-1" x="763.58" y="438.9" width="57.02" height="68.69" transform="translate(1584.18 946.48) rotate(-180)"/><rect class="cls-1" x="679.71" y="355.8" width="57.02" height="68.69" transform="translate(1416.43 780.3) rotate(-180)"/><rect class="cls-1" x="763.58" y="355.8" width="57.02" height="68.69" transform="translate(1584.18 780.3) rotate(-180)"/><rect class="cls-1" x="679.71" y="272.71" width="57.02" height="68.69" transform="translate(1416.43 614.12) rotate(-180)"/><rect class="cls-1" x="763.58" y="272.71" width="57.02" height="68.69" transform="translate(1584.18 614.12) rotate(-180)"/><rect class="cls-1" x="679.71" y="189.62" width="57.02" height="68.69" transform="translate(1416.43 447.94) rotate(-180)"/><rect class="cls-1" x="763.58" y="189.62" width="57.02" height="68.69" transform="translate(1584.18 447.94) rotate(-180)"/><polygon class="cls-1" points="1802 180 1802 391 1897.2 391 1802 180"/><rect class="cls-1" x="19.86" width="126.77" height="30.69" transform="translate(166.5 30.69) rotate(-180)"/><rect class="cls-1" y="15.99" width="167" height="477.03" transform="translate(167 509.01) rotate(-180)"/><rect class="cls-1" x="20.39" y="348.5" width="51.2" height="79.29" transform="translate(91.97 776.3) rotate(-180)"/><rect class="cls-1" x="95.69" y="348.5" width="51.2" height="79.29" transform="translate(242.58 776.3) rotate(-180)"/><rect class="cls-1" x="20.39" y="252.59" width="51.2" height="79.29" transform="translate(91.97 584.46) rotate(-180)"/><rect class="cls-1" x="95.69" y="252.59" width="51.2" height="79.29" transform="translate(242.58 584.46) rotate(-180)"/><rect class="cls-1" x="20.39" y="156.67" width="51.2" height="79.29" transform="translate(91.97 392.63) rotate(-180)"/><rect class="cls-1" x="95.69" y="156.67" width="51.2" height="79.29" transform="translate(242.58 392.63) rotate(-180)"/><rect class="cls-1" x="20.39" y="60.75" width="51.2" height="79.29" transform="translate(91.97 200.79) rotate(-180)"/><rect class="cls-1" x="95.69" y="60.75" width="51.2" height="79.29" transform="translate(242.58 200.79) rotate(-180)"/><rect class="cls-1" x="59.16" y="180.08" width="237.14" height="27.89" transform="translate(355.45 388.06) rotate(-180)"/><rect class="cls-1" x="22" y="194.61" width="312.38" height="433.47" transform="translate(356.38 822.7) rotate(-180)"/><rect class="cls-1" x="60.13" y="496.76" width="95.77" height="72.05" transform="translate(216.03 1065.58) rotate(-180)"/><rect class="cls-1" x="200.99" y="496.76" width="95.77" height="72.05" transform="translate(497.75 1065.58) rotate(-180)"/><rect class="cls-1" x="60.13" y="409.6" width="95.77" height="72.05" transform="translate(216.03 891.26) rotate(-180)"/><rect class="cls-1" x="200.99" y="409.6" width="95.77" height="72.05" transform="translate(497.75 891.26) rotate(-180)"/><rect class="cls-1" x="60.13" y="322.45" width="95.77" height="72.05" transform="translate(216.03 716.94) rotate(-180)"/><rect class="cls-1" x="200.99" y="322.45" width="95.77" height="72.05" transform="translate(497.75 716.94) rotate(-180)"/><rect class="cls-1" x="60.13" y="235.29" width="95.77" height="72.05" transform="translate(216.03 542.62) rotate(-180)"/><rect class="cls-1" x="200.99" y="235.29" width="95.77" height="72.05" transform="translate(497.75 542.62) rotate(-180)"/></g></g></svg>