<?xml version="1.0" encoding="utf-8"?>
<!-- Generator: Adobe Illustrator 22.0.1, SVG Export Plug-In . SVG Version: 6.00 Build 0)  -->
<svg version="1.1" id="Layer_1" xmlns="http://www.w3.org/2000/svg" xmlns:xlink="http://www.w3.org/1999/xlink" x="0px" y="0px"
	 viewBox="0 0 600 300" style="enable-background:new 0 0 600 300;" xml:space="preserve">
<style type="text/css">
	.st0{fill:#6D6C6C;}
	.st1{fill:#595B5B;}
	.st2{fill:#FFFFFF;}
	.st3{fill:#C4C4C4;}
	.st4{fill:#F4D5C1;}
	.st5{fill:#F0C2A2;}
	.st6{fill:#D9F9F3;}
	.st7{opacity:0.6;fill:#FAFFFE;enable-background:new    ;}
	.st8{fill:#515759;}
	.st9{fill:#373A35;}
	.st10{fill:#C3C4C7;}
	.st11{fill:#85898C;}
	.st12{fill:#ACB1B5;}
	.st13{fill:#8B9298;}
	.st14{fill:#02C0AF;}
	.st15{opacity:0.53;fill:#8DD5EF;enable-background:new    ;}
	.st16{fill:#4F5858;}
	.st17{fill:none;stroke:#4F5858;stroke-width:0.5;stroke-linecap:round;stroke-linejoin:round;}
	.st18{fill:none;stroke:#4F5858;stroke-width:0.7;stroke-miterlimit:10;}
	.st19{fill:#474E4B;}
	.st20{opacity:0.38;fill:#FFFFFF;enable-background:new    ;}
	.st21{fill:#8DD5EF;}
	.st22{fill:#00A68E;}
	.st23{fill:#00B39E;}
	.st24{fill:url(#SVGID_1_);}
	.st25{fill:#D92828;}
	.st26{fill:url(#SVGID_2_);}
	.st27{fill:url(#SVGID_3_);}
	.st28{fill:#3D4642;}
	.st29{fill:url(#SVGID_4_);}
	.st30{opacity:0.28;fill:#515759;enable-background:new    ;}
	.st31{fill:#B4EEFF;}
	.st32{opacity:0.5;fill:#FFFFFF;enable-background:new    ;}
	.st33{fill:url(#SVGID_5_);}
	.st34{fill:url(#SVGID_6_);}
	.st35{fill:url(#SVGID_7_);}
	.st36{fill:url(#SVGID_8_);}
	.st37{fill:url(#SVGID_9_);}
	.st38{fill:url(#SVGID_10_);}
	.st39{fill:url(#SVGID_11_);}
	.st40{fill:url(#SVGID_12_);}
	.st41{fill:none;}
	.st42{fill:url(#SVGID_13_);}
	.st43{fill:url(#SVGID_14_);}
	.st44{fill:url(#SVGID_15_);}
	.st45{fill:url(#SVGID_16_);}
	.st46{fill:url(#SVGID_17_);}
	.st47{fill:url(#SVGID_18_);}
	.st48{fill:url(#SVGID_19_);}
	.st49{fill:url(#SVGID_20_);}
</style>
<g>
	<g>
		<polygon class="st41" points="580.1,112.3 389.8,300.2 389.8,300.2 581.3,112.1 601,112.1 601,0.2 1,0.2 1,112.6 		"/>
		<polygon class="st0" points="389.8,300.2 601,300.2 601,112.1 581.3,112.1 		"/>
		<polygon class="st1" points="1,112.6 1,300.2 389.8,300.2 580.1,112.3 		"/>
	</g>
	<polygon class="st3" points="581.3,112.1 390.7,300 382.5,300 573,112.1 	"/>
	<rect x="82.2" y="177.2" class="st2" width="378.7" height="7.4"/>
	<rect x="52" y="226.8" class="st2" width="376.1" height="7.2"/>
	<path class="st8" d="M181.2,148.2c9.1-5.9,35.3-12.1,59,0.7c0.4,0.2,0.8-0.5,1.1-0.7c1.9-1.6,8-7.5,5.7-19.4
		c-2.6-14-14.9-25.4-36.3-23.5c-21.1,1.9-39,18.3-31,42C179.9,148,180.7,148.6,181.2,148.2z"/>
	<path class="st8" d="M369.2,149.1c10-6.7,36.7-12.7,59.3,2c0.4,0.2,0.3,0.1,0.6-0.2c2-1.4,8.5-6.9,7.3-18.9
		c-1.5-14.2-12.9-26.5-34.4-26.3c-21.1,0.2-40.3,15.2-34.2,39.4C367.9,145.8,368.7,149.4,369.2,149.1z"/>
	
		<ellipse transform="matrix(3.420226e-02 -0.9994 0.9994 3.420226e-02 239.4757 539.8211)" class="st9" cx="399" cy="146" rx="25.3" ry="25.3"/>
	<circle class="st10" cx="399" cy="146" r="17.6"/>
	<path class="st11" d="M403.1,143.7l8.4-4.1c0.8-0.4,1.1-1.3,0.7-2l-0.1-0.1c-1.9-2.8-4.6-4.9-7.7-6c-0.8-0.3-1.7,0.1-1.9,0.9
		c0,0.1,0,0.1-0.1,0.2l-1.9,9.1c-0.2,1,0.5,2,1.5,2.2C402.3,143.9,402.7,143.9,403.1,143.7z M398.1,141.5l-1.4-9.2
		c-0.1-0.8-0.9-1.4-1.7-1.3c-0.1,0-0.1,0-0.2,0c-3.2,0.9-6,2.9-8.1,5.5c-0.5,0.7-0.4,1.6,0.3,2.1c0.1,0,0.1,0.1,0.2,0.1l8.1,4.7
		c0.9,0.5,2.1,0.2,2.6-0.7C398.1,142.4,398.1,141.9,398.1,141.5L398.1,141.5z M397.2,150.3l-4.4,8.3c-0.4,0.7-0.1,1.7,0.6,2.1
		c0.1,0,0.1,0.1,0.2,0.1c3.1,1.2,6.6,1.3,9.8,0.3c0.8-0.2,1.3-1.1,1-1.9c0-0.1,0-0.1-0.1-0.2l-3.8-8.5c-0.4-1-1.5-1.4-2.5-1
		C397.8,149.6,397.4,149.9,397.2,150.3L397.2,150.3z M413,144.9l-9.3,1c-1,0.1-1.8,1-1.7,2.1c0,0.4,0.2,0.8,0.5,1.1l6.6,6.7
		c0.6,0.6,1.5,0.6,2.1,0l0.1-0.1c2.1-2.6,3.2-5.8,3.3-9.1v-0.1c0-0.8-0.6-1.5-1.5-1.5C413.1,144.9,413.1,144.9,413,144.9L413,144.9z
		 M394.5,145.6l-9.2-1.5c-0.8-0.1-1.6,0.4-1.8,1.2c0,0.1,0,0.1,0,0.2l0,0c-0.1,3.3,0.8,6.6,2.8,9.4c0.5,0.7,1.4,0.8,2.1,0.4
		c0.1,0,0.1-0.1,0.1-0.1l6.9-6.3c0.8-0.7,0.8-1.9,0.1-2.7C395.3,145.9,394.9,145.7,394.5,145.6L394.5,145.6z"/>
	<circle class="st12" cx="399" cy="146" r="1.3"/>
	
		<ellipse transform="matrix(3.420229e-02 -0.9994 0.9994 3.420229e-02 237.2084 541.9088)" class="st13" cx="399" cy="148.2" rx="0.6" ry="0.6"/>
	
		<ellipse transform="matrix(0.3399 -0.9405 0.9405 0.3399 126.7477 474.3953)" class="st13" cx="401.3" cy="146.9" rx="0.6" ry="0.6"/>
	
		<ellipse transform="matrix(0.6125 -0.7905 0.7905 0.6125 41.1183 372.5342)" class="st13" cx="400.5" cy="144.3" rx="0.6" ry="0.6"/>
	<ellipse transform="matrix(0.8258 -0.564 0.564 0.8258 -12.003 249.4642)" class="st13" cx="397.8" cy="144.2" rx="0.6" ry="0.6"/>
	
		<ellipse transform="matrix(0.9592 -0.2828 0.2828 0.9592 -25.271 118.2156)" class="st13" cx="396.9" cy="146.6" rx="0.6" ry="0.6"/>
	<path class="st14" d="M459.1,96.8L459.1,96.8c-7-9-19.6-11.5-30.8-13.7c-2.9-0.6-5.7-1.1-8.2-1.8c-13.9-3.5-28.6-7.5-41.8-13.9
		c-3.8-1.9-7.7-3.9-11.4-5.8c-9-4.7-18.2-9.5-28.1-12.9c-25.3-8.6-52.4-10.2-78.5-4.7c-14.1,3-27.7,8.1-40.7,13
		c-10,3.7-20.3,7.6-30.7,10.5c-3.2,0.9-6.5,1.6-9.7,2.3c-5.8,1.2-11.8,2.5-17.4,4.8c-7.1,2.9-12.1,7.6-13.9,12.8v0.1l-0.1,0.1
		c0,0.1-0.1,0.2-0.1,0.3l0,0c-1.3,4.2-0.5,8.5,0.3,12.2s1.8,7.4,3,11v0.1c1.4,4.3,3,8.6,4.9,12.8c4.9,10.9,15,19.7,22.9,24.2
		c1.2,0.7,2.7,0.3,3.5-0.9c0.3-0.5,0.4-1,0.3-1.6c0-0.1,0-0.2,0-0.3c0-15.2,12.6-27.6,28.1-27.6s28.1,12.4,28.1,27.6v1.5
		c0,1.4,1.1,2.5,2.5,2.5c11.4,0,23,0.1,34.7,0.1c12.6,0,25.3,0,37.7,0c18.2,0,36.4-0.1,54.6,0h0.3h0.2c0.1,0,0.4-0.1,0.4-0.1
		c1-0.4,1.6-1.3,1.6-2.4c0-0.5,0-0.9,0-1.4c0-15.2,12.6-27.6,28.1-27.6s28.1,12.4,28.1,27.6c0,0.9-0.1,2.5-0.1,3.3
		c-0.1,1.4,0.9,2.6,2.3,2.7l0,0h2.7c6.9,0,13.8-0.2,17.4-2.8c3.9-2.8,4.6-9.2,5.2-14.4c0.2-1.6,0.3-3.1,0.6-4.1
		c1.2-5.6,2.7-11.1,4.5-16.6l0.2-0.5C461.5,107.9,463.3,102.2,459.1,96.8z"/>
	<path class="st15" d="M382,72.4c0.6-0.9,1.1-1.8,1.5-2.7c-4.3-2-12-5.7-15.5-7.4c-9.2-4.7-18.4-10.3-28.8-13.4
		c-8.3-2.5-11-3.6-15.9-4.7c-3.5-0.8-4.5-0.9-5.1-0.9c-0.3,0.1,0,0.7-0.1,1.3c-0.1,0.2,0.1,0.5,0.3,0.6
		C334.4,50.5,344.9,53.8,382,72.4z"/>
	<path class="st16" d="M375.7,83.8c-0.9,3.9-3.8,6.4-7.3,6.3l-85.5-1.9c-4.1-0.1-7.3-3.9-7.2-8.5l0.4-26c0.1-4.8-34.4-7.8,7.5-9.2
		c31-1,68.7,17.4,88.5,30C375.2,76.5,376.6,80.3,375.7,83.8z"/>
	<path class="st16" d="M279.6,79c-0.1,5.2,36.6,10.3-10,9.2l-49.2-1.1c-4,0-7.6-2.5-9.1-6.3c-1.2-3.1-0.6-6.6,1.6-9.1
		c8.6-10.2,25.4-23.1,56.1-26.4c3.1-0.3,6.2,0.8,8.3,3c1.7,1.8,2.7,4.2,2.6,6.6L279.6,79z"/>
	<path class="st17" d="M388.7,74.8c1.2,2.6,5,7.1,6.7,8.2s7.3,2.6,11.6,3.9c4.3,1.3,28.4,7.8,30.4,9.5"/>
	<path class="st17" d="M205.8,77.1c-1.6,2.2-5.9,5.9-7.7,6.7c-1.8,0.8-7.5,1.3-11.9,1.9c-4.4,0.6-29,3-31.1,4.3"/>
	<path class="st18" d="M278,87c-2.6,5.6-5.7,13.6-4.5,36s3.2,25.1,6.7,25.4s82.5-0.2,83.7-0.3c1-1.9,2.6-11.7,3.1-27.5
		s-0.2-27.9-1.1-30.7L278,87z"/>
	
		<ellipse transform="matrix(9.376025e-02 -0.9956 0.9956 9.376025e-02 273.0735 565.4104)" class="st19" cx="447.1" cy="132.7" rx="5.6" ry="2.1"/>
	<path class="st20" d="M446.4,128.1L446.4,128.1c-0.8,1.4-1.3,2.9-1.4,4.4c-0.2,1.6,0,3.3,0.6,4.8c1.2,0,2.4-1.9,2.6-4.4
		C448.4,130.5,447.6,128.2,446.4,128.1z"/>
	<path class="st19" d="M450.8,138.3c-1.7,0.8-7.9,2.7-9.3,3.2c-0.5,1.2-0.9,2.5-1.2,3.8c1.8-0.1,8.5-0.8,11.2-1.8l0,0
		C450.5,142,450.4,140.2,450.8,138.3z"/>
	<path class="st21" d="M275.9,77c-0.1,4.2-3.8,7.6-8.4,7.5L226,83.6c-3.3,0-6.4-2-7.7-5.1c-1-2.5-0.5-5.4,1.3-7.5
		c7.3-8.4,21.4-18.9,47.3-21.5c2.6-0.3,5.2,0.6,7,2.4c1.5,1.4,2.3,3.4,2.2,5.4L275.9,77z"/>
	<path class="st21" d="M370.5,81.7c-0.6,3-3.4,5.2-6.4,5.1l-75.7-1.7c-3.7-0.2-6.5-3.3-6.4-7l0.4-21.2c0-3.8,2.8-7,6.6-7.5
		c27.4-2.6,60.9,14.3,78.4,24.6C369.9,75.6,371.2,78.7,370.5,81.7z"/>
	<path class="st22" d="M295.3,102.1c0-2.4,1.6-6.3,7.9-6.3s7.1,4.2,7.1,6.5c0,2.3-1.3,6.7-7.2,6.1S295.3,105.4,295.3,102.1z"/>
	<path class="st23" d="M288.9,101.9c-0.1,1,0.5,2.1,3,1.9c4.4-0.4,17.2,0.4,19.5,0.9c2.1,0.4,3.8-3,1.2-3.8
		c-2.7-0.8-10.7-0.9-14.6-1C291.4,99.8,289.1,99.5,288.9,101.9z"/>
	
		<linearGradient id="SVGID_1_" gradientUnits="userSpaceOnUse" x1="-97.151" y1="-1903.0336" x2="-87.8823" y2="-1903.0336" gradientTransform="matrix(0.99 -3.000000e-02 -3.000000e-02 0.87 185.0453 1760.0594)">
		<stop  offset="0.18" style="stop-color:#83181E"/>
		<stop  offset="1" style="stop-color:#AC1E1D"/>
	</linearGradient>
	<path class="st24" d="M156,101.2c1.4,5.6-0.3,11.2-2.6,11.7c-1.2,0.3-3.3-0.8-4-2.8c-0.7-1.9-1.4-4.3-2-6.9"/>
	<path class="st25" d="M147.4,103.3c-0.6-2.6-1.6-6.1-1.3-8.1c0.2-2.3,2-3.7,3.2-3.8c1.9-0.1,5.3,4.1,6.7,9.8"/>
	
		<linearGradient id="SVGID_2_" gradientUnits="userSpaceOnUse" x1="234.2859" y1="-892.4932" x2="276.3347" y2="-892.4932" gradientTransform="matrix(1 0 0 1 0 956)">
		<stop  offset="0.24" style="stop-color:#FFFFFF;stop-opacity:0.3"/>
		<stop  offset="1" style="stop-color:#8DD5EF;stop-opacity:0.4"/>
	</linearGradient>
	<path class="st26" d="M276,77.2c-0.1,3.1-49.7-14.3-40.6-18.6c7.5-3.6,11.8-6.6,31.6-9.1c2.6-0.3,5.2,0.6,7.1,2.5
		c1.5,1.4,2.3,3.4,2.3,5.5L276,77.2z"/>
	
		<linearGradient id="SVGID_3_" gradientUnits="userSpaceOnUse" x1="284.3029" y1="-887.9312" x2="370.6724" y2="-887.9312" gradientTransform="matrix(1 0 0 1 0 956)">
		<stop  offset="0.22" style="stop-color:#FFFFFF;stop-opacity:0.3"/>
		<stop  offset="1" style="stop-color:#8DD5EF;stop-opacity:0.4"/>
	</linearGradient>
	<path class="st27" d="M370.5,81.7c-0.6,3-3.4,5.2-6.4,5.1c0,0-64.5-14.1-79.4-33.6c-1-1.3,0.7-2.8,4.3-3.6
		c27.4-2.6,60.9,14.3,78.4,24.6C369.9,75.6,371.2,78.7,370.5,81.7z"/>
	<polygon class="st16" points="370.8,87.4 363.8,88.7 360.9,69.3 370.6,75.8 	"/>
	<path class="st14" d="M348.7,78.3c0.5-0.7,4-3.7,7.7-3.7s11.5,2,14.8,4.4c0.4,1.3-1.1,4.9-3.7,7.9c-3.3,1.3-14.3,0.4-18.4-0.2
		C347.8,85.7,347.7,81.3,348.7,78.3z"/>
	<path class="st28" d="M349.5,83.1c-0.1-1.6-0.1-3.1,0.1-4.7c0.1-0.7,2.8-2.7,4.8-3.5c-2.1,0.6-4,1.8-5.6,3.4c-1,3-1,7.3,0.4,8.4
		c4.1,0.6,15.2,1.5,18.4,0.2c0.7-0.8,1.3-1.7,1.9-2.6C363.4,84.4,351,83.8,349.5,83.1z"/>
	<circle class="st17" cx="205.3" cy="100.4" r="7.4"/>
	<path class="st22" d="M197.9,98.5c0.8,0,2.5,0.1,2.5,1.4c0,1.5-1.2,1.9-2.3,1.9C197.3,101.5,197.4,99.1,197.9,98.5z"/>
	<circle class="st9" cx="210.8" cy="146" r="25.3"/>
	<circle class="st10" cx="210.8" cy="146" r="17.6"/>
	<path class="st11" d="M214.8,143.7l8.4-4.1c0.8-0.4,1.1-1.3,0.7-2l-0.1-0.1c-1.9-2.8-4.6-4.9-7.7-6c-0.8-0.3-1.7,0.1-1.9,0.9
		c0,0.1,0,0.1-0.1,0.2l-1.9,9.1c-0.2,1,0.5,2,1.5,2.2C214,143.9,214.5,143.9,214.8,143.7z M209.9,141.5l-1.4-9.2
		c-0.1-0.8-0.9-1.4-1.7-1.3c-0.1,0-0.1,0-0.2,0c-3.2,0.9-6,2.9-8.1,5.5c-0.5,0.7-0.4,1.6,0.3,2.1c0.1,0,0.1,0.1,0.2,0.1l8.1,4.7
		c0.9,0.5,2.1,0.2,2.6-0.7C209.8,142.3,209.9,141.9,209.9,141.5L209.9,141.5z M209,150.3l-4.4,8.3c-0.4,0.7-0.1,1.7,0.6,2.1
		c0.1,0,0.1,0.1,0.2,0.1c3.1,1.2,6.6,1.3,9.8,0.3c0.8-0.2,1.3-1.1,1-1.9c0-0.1,0-0.1-0.1-0.2l-3.8-8.5c-0.4-1-1.5-1.4-2.5-1
		C209.5,149.6,209.2,149.9,209,150.3L209,150.3z M224.8,144.9l-9.3,1c-1,0.1-1.8,1-1.7,2.1c0,0.4,0.2,0.8,0.5,1.1l6.6,6.7
		c0.6,0.6,1.5,0.6,2.1,0l0.1-0.1c2.1-2.6,3.2-5.8,3.3-9.1v-0.1c0-0.8-0.6-1.5-1.5-1.5C224.9,144.9,224.8,144.9,224.8,144.9
		L224.8,144.9z M206.3,145.6l-9.2-1.5c-0.8-0.1-1.6,0.4-1.8,1.2c0,0.1,0,0.1,0,0.2l0,0c-0.1,3.3,0.8,6.6,2.8,9.4
		c0.5,0.7,1.4,0.8,2.1,0.4c0.1,0,0.1-0.1,0.1-0.1l6.9-6.3c0.8-0.7,0.8-1.9,0.1-2.7C207.1,145.9,206.7,145.7,206.3,145.6L206.3,145.6
		z"/>
	<circle class="st12" cx="210.8" cy="146" r="1.3"/>
	<circle class="st13" cx="210.7" cy="148.3" r="0.6"/>
	<circle class="st13" cx="213" cy="146.9" r="0.6"/>
	<circle class="st13" cx="212.3" cy="144.3" r="0.6"/>
	<circle class="st13" cx="209.6" cy="144.1" r="0.6"/>
	<circle class="st13" cx="208.7" cy="146.7" r="0.6"/>
	
		<linearGradient id="SVGID_4_" gradientUnits="userSpaceOnUse" x1="300.7809" y1="-847.2502" x2="303.3969" y2="-807.9385" gradientTransform="matrix(1 0 0 1 0 956)">
		<stop  offset="0" style="stop-color:#C3C4C7"/>
		<stop  offset="1" style="stop-color:#02C0AF;stop-opacity:0"/>
	</linearGradient>
	<path class="st29" d="M370.1,129.5c-25.6-2-114.5-6.2-137.7-6.5c-0.9,0-3.9,1-3.2,1.6c6.9,6.2,8.5,12.9,8.9,14.4
		c0.6,2.7,0.8,5.5,0.8,8.3c0,0.8,1.3,1.9,2.1,1.9c13.1,0.3,41.2,0.1,56.6,0.1c17,0,56.6-0.1,71.2-0.1c1.1-0.2,2-1.1,2.2-2.2l0.1-4.2
		c0.1-2.8,1.6-7.9,3.8-11.9C375.2,130.3,374.6,129.8,370.1,129.5z"/>
	<path class="st30" d="M242.8,149.3c1.5-18.2-13.8-34.8-31-34.8s-31.6,15.1-31,33.9c1.6,0.2,1.2-0.5,1.8-2
		c-0.3-4.2,1.1-12.8,6.3-18.4c4.7-6.6,14.8-10.1,21-10.1c14.1-0.4,22.6,8.3,26.3,15.7c2.9,5.7,2.4,13.8,2.8,14
		c0.2,0.6,0.6,1,1.1,1.3C240.6,149.4,241.9,149.3,242.8,149.3z"/>
	<path class="st30" d="M431.2,151.3c1.5-18.2-13.8-36.7-30.9-36.7s-31.7,15.6-31.1,34.5c1.1-0.3,1.8-1.4,1.7-2.5
		c-0.3-4.2,1.3-12.9,6.6-18.5c4.7-6.6,14.8-10.1,21-10.1c14.1-0.4,22.5,8.4,26.2,15.8c2.9,5.7,2.2,15.1,2.4,15.5
		c0.2,0.7,0.6,1.3,1.3,1.7C429.3,151.3,430.3,151.4,431.2,151.3z"/>
	<path class="st31" d="M443.2,102.5c1.7,2.3,6.1,5,7.4,3.7c1.3-1.3-0.7-5-2.5-7.4c-1.8-2.3-4.3-3.4-5.6-2.4S441.5,100.1,443.2,102.5
		z"/>
	<path class="st31" d="M453.3,105.4c-3.5-6.1-4.3-8.9-3.1-9.6c1.2-0.7,7.4,3.2,9.1,10.1c0.5,2.1,0,5.1-1.6,4.7
		S454.5,107.4,453.3,105.4z"/>
	<path class="st32" d="M441.7,97.7c0.1-0.3,0.4-0.5,0.6-0.7c1.5-0.9,4.1,0.6,5.9,3.4c1.5,2.3,1.8,4.8,1.1,6.1
		c-1.8-0.2-4.8-2.2-6.1-4.1C442,100.8,441.5,99,441.7,97.7z"/>
	<path class="st32" d="M453.3,105.4c-2.6-4.5-3.6-7.2-3.6-8.6c2.6,0.6,6.5,4.8,7.4,8.2c0.6,2.3,0.2,4.2-0.5,5
		C455.4,109.1,454.2,106.9,453.3,105.4z"/>
	<path class="st16" d="M383.4,69.7c-0.2,1.1-2.4,2-1.3,2.8c2.6,1.5,5.5,2.4,8.4,2.6c1.4,0,3.6-0.5,4-1.1
		C388.8,71.8,383.9,69.8,383.4,69.7z"/>
	<path class="st16" d="M380,71.5l-7.3,5.7c-0.1,0.1-0.2,0.1-0.2,0l0,0l0,0c-0.1-0.1-0.1-0.2,0-0.2l0,0l7.1-5.6L380,71.5z"/>
	<circle class="st19" cx="385.3" cy="71.9" r="1.1"/>
	<path class="st28" d="M385.3,71.6c-0.4,0-0.8,0.3-0.9,0.7c0,0.1,0,0.3,0.1,0.4c0.3,0.6,1.9,1.3,2.3,1.2
		C387.2,73.7,386.5,71.6,385.3,71.6z"/>
	
		<ellipse transform="matrix(9.376025e-02 -0.9956 0.9956 9.376025e-02 -35.3301 226.6634)" class="st19" cx="106.8" cy="132.7" rx="5.6" ry="2.1"/>
	<path class="st20" d="M106.1,128.1L106.1,128.1c-0.8,1.4-1.3,2.9-1.4,4.4c-0.2,1.6,0,3.3,0.6,4.8c1.2,0,2.4-1.9,2.6-4.4
		C108.1,130.5,107.3,128.2,106.1,128.1z"/>
	<path class="st19" d="M110.5,138.3c-1.7,0.8-7.9,2.7-9.3,3.2c-0.5,1.2-0.9,2.5-1.2,3.8c1.8-0.1,8.5-0.8,11.2-1.8l0,0
		C110.2,142,110.1,140.2,110.5,138.3z"/>
	<path class="st8" d="M118.1,199.9c9.5-6.2,37.1-12.7,62,0.8c0.4,0.2,0.8-0.5,1.2-0.8c2-1.6,8.4-7.9,6-20.4
		c-2.8-14.7-15.7-26.6-38.2-24.7c-22.1,1.9-40.9,19.2-32.6,44.1C116.8,199.6,117.5,200.2,118.1,199.9z"/>
	<path class="st8" d="M315.5,200.8c10.5-7.1,38.6-13.3,62.3,2.1c0.4,0.2,0.3,0.1,0.7-0.2c2.1-1.5,9-7.2,7.6-19.8
		c-1.6-14.9-13.5-27.8-36.1-27.6c-22.2,0.2-42.3,15.9-36,41.4C314.2,197.3,315,201.2,315.5,200.8z"/>
	<ellipse class="st9" cx="346.9" cy="197.5" rx="26.5" ry="26.5"/>
	<circle class="st10" cx="346.9" cy="197.5" r="18.5"/>
	<path class="st11" d="M351.1,195.1l8.8-4.4c0.8-0.4,1.1-1.3,0.7-2.1c0-0.1-0.1-0.1-0.1-0.2c-2-2.9-4.8-5.1-8.1-6.3
		c-0.8-0.3-1.8,0.1-2,1c0,0.1,0,0.1-0.1,0.2l-2.1,9.6c-0.2,1.1,0.4,2.1,1.5,2.4C350.2,195.4,350.7,195.3,351.1,195.1z M345.9,192.8
		l-1.5-9.7c-0.1-0.9-0.9-1.5-1.8-1.3c-0.1,0-0.1,0-0.2,0c-3.4,1-6.3,3-8.5,5.8c-0.5,0.7-0.4,1.7,0.3,2.2c0.1,0,0.1,0.1,0.2,0.1
		l8.5,4.9c1,0.6,2.2,0.2,2.7-0.7C345.9,193.7,346,193.3,345.9,192.8z M345,202l-4.6,8.7c-0.4,0.8-0.1,1.7,0.7,2.2
		c0.1,0,0.1,0.1,0.2,0.1c3.3,1.2,6.9,1.3,10.3,0.3c0.8-0.3,1.3-1.1,1.1-2c0-0.1,0-0.1-0.1-0.2l-4-9c-0.4-1-1.6-1.5-2.6-1
		C345.5,201.3,345.2,201.6,345,202z M361.5,196.4l-9.8,1c-1.1,0.1-1.9,1.1-1.8,2.2c0,0.4,0.2,0.9,0.6,1.2l6.9,7
		c0.6,0.6,1.6,0.6,2.3,0l0.1-0.1c2.2-2.7,3.4-6.1,3.5-9.6V198c0-0.9-0.7-1.6-1.6-1.6C361.7,196.4,361.6,196.4,361.5,196.4
		L361.5,196.4z M342.1,197.1l-9.7-1.6c-0.9-0.2-1.7,0.4-1.8,1.3c0,0.1,0,0.1,0,0.2l0,0c-0.1,3.5,0.9,7,2.9,9.9
		c0.5,0.7,1.5,0.9,2.2,0.4c0.1,0,0.1-0.1,0.2-0.1l7.3-6.6c0.8-0.7,0.9-2,0.1-2.8C343,197.4,342.6,197.2,342.1,197.1L342.1,197.1z"/>
	
		<ellipse transform="matrix(3.420231e-02 -0.9994 0.9994 3.420231e-02 137.6341 537.4036)" class="st12" cx="346.9" cy="197.5" rx="1.3" ry="1.3"/>
	<circle class="st13" cx="346.8" cy="199.9" r="0.6"/>
	<circle class="st13" cx="349.2" cy="198.4" r="0.6"/>
	<circle class="st13" cx="348.4" cy="195.7" r="0.6"/>
	<circle class="st13" cx="345.6" cy="195.6" r="0.6"/>
	<circle class="st13" cx="344.6" cy="198.2" r="0.6"/>
	<path class="st14" d="M410,145.8L410,145.8c-7.3-9.5-20.6-12.1-32.3-14.4c-3.1-0.6-6-1.2-8.6-1.9c-14.6-3.7-30.1-7.9-43.9-14.6
		c-4-2-8-4.1-12-6.1c-9.4-4.9-19.2-10-29.6-13.6c-26.5-9-55-10.7-82.4-4.9c-14.8,3.1-29,8.5-42.8,13.6c-10.5,3.9-21.3,8-32.2,11
		c-3.3,0.9-6.8,1.7-10.2,2.4c-6.1,1.3-12.4,2.6-18.2,5c-7.4,3-12.7,7.9-14.6,13.5v0.2l-0.1,0.2c0,0.2-0.1,0.2-0.1,0.3l0,0
		c-1.3,4.4-0.6,8.9,0.3,12.8c0.8,3.9,1.9,7.8,3.2,11.6v0.1c1.4,4.5,3.2,9,5.1,13.4c5.2,11.5,15.8,20.7,24,25.5
		c1.3,0.7,2.9,0.3,3.6-0.9c0.3-0.5,0.4-1.1,0.3-1.7c0-0.1,0-0.2,0-0.4c0-16,13.3-29,29.5-29c16.3,0,29.6,13,29.6,28.9v1.6
		c0,1.5,1.2,2.6,2.6,2.6c12,0,24.2,0.1,36.5,0.1c13.2,0,26.6,0,39.6,0c19.1,0,38.2-0.1,57.3,0h0.3h0.3c0.1,0,0.4-0.1,0.4-0.1
		c1-0.4,1.7-1.4,1.7-2.5c0-0.5,0-1,0-1.5c0-16,13.2-29,29.5-29s29.5,13,29.5,28.9c0,1-0.1,2.7-0.1,3.5c-0.1,1.4,0.9,2.7,2.4,2.8l0,0
		h2.9c7.2,0,14.6-0.2,18.3-2.9c4.1-2.9,4.9-9.7,5.5-15.2c0.2-1.6,0.4-3.2,0.6-4.3c1.3-5.8,2.9-11.7,4.7-17.4l0.2-0.5
		C412.5,157.5,414.4,151.6,410,145.8z"/>
	<path class="st15" d="M329,120.2c0.6-0.9,1.1-1.9,1.6-2.8c-4.5-2.1-12.6-5.9-16.3-7.8c-9.6-4.9-19.3-10.8-30.2-14
		c-8.7-2.6-11.5-3.8-16.7-5c-3.7-0.8-4.7-1-5.3-0.9c-0.4,0.1,0,0.7-0.1,1.4c-0.1,0.3,0.1,0.5,0.3,0.6C279,97.2,290,100.7,329,120.2z
		"/>
	<path class="st16" d="M322.4,132.2c-0.9,4.1-4,6.7-7.7,6.6l-89.8-2c-4.3-0.1-7.7-4.1-7.6-9l0.5-27.4c0.1-5-36.1-8.2,7.8-9.6
		c32.6-1.1,72.2,18.3,93,31.5C321.9,124.6,323.3,128.5,322.4,132.2z"/>
	<path class="st16" d="M221.4,127.1c-0.1,5.5,38.4,10.8-10.5,9.7l-51.6-1.2c-4.2,0-8-2.6-9.5-6.6c-1.3-3.3-0.6-6.9,1.6-9.6
		c9.1-10.8,26.7-24.3,58.9-27.7c3.2-0.3,6.5,0.8,8.7,3.1c1.8,1.9,2.8,4.4,2.8,7L221.4,127.1z"/>
	<path class="st17" d="M336,122.8c1.3,2.7,5.2,7.5,7,8.6c1.7,1.1,7.6,2.7,12.2,4.1c4.5,1.4,29.8,8.2,31.9,10"/>
	<path class="st17" d="M144,125.2c-1.6,2.4-6.2,6.2-8.1,7s-7.9,1.4-12.5,2c-4.6,0.6-30.4,3.1-32.7,4.5"/>
	<path class="st18" d="M219.8,135.5c-2.8,5.8-6,14.3-4.7,37.8s3.4,26.3,7,26.6s86.7-0.2,87.9-0.3c1-2,2.8-12.3,3.3-28.9
		s-0.2-29.3-1.2-32.3L219.8,135.5z"/>
	
		<ellipse transform="matrix(9.376025e-02 -0.9956 0.9956 9.376025e-02 177.3202 562.0917)" class="st19" cx="397.4" cy="183.6" rx="5.9" ry="2.3"/>
	<path class="st20" d="M396.6,178.7L396.6,178.7c-0.9,1.4-1.3,3-1.4,4.6c-0.2,1.7,0,3.5,0.6,5.1c1.3,0,2.5-2,2.7-4.6
		C398.8,181.2,397.9,178.9,396.6,178.7z"/>
	<path class="st19" d="M401.2,189.4c-1.8,0.8-8.3,2.8-9.7,3.4c-0.5,1.3-0.9,2.7-1.2,4c1.9-0.1,8.9-0.9,11.8-1.9l0,0
		C400.9,193.3,400.8,191.5,401.2,189.4z"/>
	<path class="st21" d="M217.5,125.1c-0.1,4.5-4,8-8.8,7.9l-43.5-1c-3.5,0-6.7-2.1-8-5.4c-1.1-2.7-0.5-5.7,1.4-7.8
		c7.7-8.8,22.5-19.8,49.7-22.6c2.7-0.3,5.4,0.7,7.4,2.6c1.5,1.5,2.4,3.6,2.3,5.7L217.5,125.1z"/>
	<path class="st21" d="M316.9,130c-0.7,3.2-3.5,5.5-6.8,5.4l-79.5-1.8c-3.9-0.2-6.9-3.4-6.7-7.3l0.4-22.3c0-4,3-7.4,6.9-7.8
		c28.7-2.7,64,15,82.4,25.8C316.3,123.6,317.7,126.9,316.9,130z"/>
	<path class="st22" d="M237.9,151.4c0-2.6,1.7-6.6,8.3-6.6s7.5,4.4,7.4,6.8c-0.1,2.4-1.3,7-7.5,6.5
		C239.9,157.5,237.9,154.9,237.9,151.4z"/>
	<path class="st23" d="M231.2,151.2c-0.1,1,0.6,2.2,3.1,2c4.6-0.4,18.1,0.4,20.4,0.9c2.2,0.5,4-3.2,1.2-4c-2.8-0.9-11.2-1-15.4-1
		C233.9,149,231.4,148.7,231.2,151.2z"/>
	
		<linearGradient id="SVGID_5_" gradientUnits="userSpaceOnUse" x1="-160.7202" y1="-1848.2098" x2="-150.9924" y2="-1848.2098" gradientTransform="matrix(0.99 -3.000000e-02 -3.000000e-02 0.87 185.0453 1760.0594)">
		<stop  offset="0.18" style="stop-color:#83181E"/>
		<stop  offset="1" style="stop-color:#AC1E1D"/>
	</linearGradient>
	<path class="st33" d="M91.6,150.5c1.5,5.8-0.3,11.8-2.7,12.3c-1.2,0.3-3.5-0.8-4.2-3c-0.7-2-1.5-4.5-2.1-7.2"/>
	<path class="st25" d="M82.6,152.6c-0.7-2.7-1.6-6.4-1.4-8.5c0.3-2.4,2.1-3.9,3.3-4c2-0.1,5.6,4.3,7.1,10.3"/>
	
		<linearGradient id="SVGID_6_" gradientUnits="userSpaceOnUse" x1="173.8201" y1="-845.2394" x2="218.0094" y2="-845.2394" gradientTransform="matrix(1 0 0 1 0 956)">
		<stop  offset="0.24" style="stop-color:#FFFFFF;stop-opacity:0.3"/>
		<stop  offset="1" style="stop-color:#8DD5EF;stop-opacity:0.4"/>
	</linearGradient>
	<path class="st34" d="M217.6,125.2c-0.1,3.2-52.2-15-42.6-19.6c7.9-3.8,12.4-7,33.2-9.6c2.8-0.3,5.5,0.6,7.5,2.6
		c1.5,1.5,2.4,3.6,2.4,5.7L217.6,125.2z"/>
	
		<linearGradient id="SVGID_7_" gradientUnits="userSpaceOnUse" x1="226.3903" y1="-840.3354" x2="317.1245" y2="-840.3354" gradientTransform="matrix(1 0 0 1 0 956)">
		<stop  offset="0.22" style="stop-color:#FFFFFF;stop-opacity:0.3"/>
		<stop  offset="1" style="stop-color:#8DD5EF;stop-opacity:0.4"/>
	</linearGradient>
	<path class="st35" d="M316.9,130c-0.7,3.2-3.5,5.5-6.8,5.4c0,0-67.7-14.8-83.4-35.3c-1.1-1.4,0.8-3,4.5-3.9
		c28.7-2.7,64,15,82.4,25.8C316.3,123.6,317.7,126.9,316.9,130z"/>
	<polygon class="st16" points="317.2,136 309.9,137.3 306.8,117 317,123.8 	"/>
	<path class="st14" d="M294.1,126.4c0.5-0.8,4.2-3.9,8.1-3.9s12.1,2.1,15.6,4.6c0.4,1.3-1.2,5.2-3.9,8.4c-3.4,1.4-15,0.4-19.4-0.2
		C293.1,134.1,293,129.6,294.1,126.4z"/>
	<path class="st28" d="M294.8,131.4c-0.1-1.6-0.1-3.3,0.1-4.9c0.1-0.8,2.9-2.9,5-3.7c-2.2,0.7-4.2,1.9-5.8,3.6
		c-1.1,3.1-1,7.7,0.4,8.8c4.3,0.7,15.9,1.6,19.4,0.2c0.7-0.9,1.4-1.8,2-2.7C309.5,132.9,296.4,132.2,294.8,131.4z"/>
	<circle class="st17" cx="143.4" cy="149.6" r="7.8"/>
	<path class="st22" d="M135.6,147.7c0.9,0,2.6,0.1,2.6,1.5c0,1.6-1.2,2-2.4,2C135,150.7,135.2,148.3,135.6,147.7z"/>
	<circle class="st9" cx="149.2" cy="197.5" r="26.5"/>
	<circle class="st10" cx="149.2" cy="197.5" r="18.5"/>
	<path class="st11" d="M153.4,195.1l8.8-4.4c0.8-0.4,1.1-1.3,0.7-2.1c0-0.1-0.1-0.1-0.1-0.2c-2-2.9-4.8-5.1-8.1-6.3
		c-0.8-0.3-1.8,0.1-2,1c0,0.1,0,0.1-0.1,0.2l-2,9.6c-0.2,1.1,0.4,2.1,1.5,2.4C152.5,195.4,153,195.3,153.4,195.1z M148.2,192.8
		l-1.5-9.7c-0.1-0.9-0.9-1.5-1.8-1.3c-0.1,0-0.1,0-0.2,0c-3.4,1-6.4,3-8.5,5.8c-0.5,0.7-0.4,1.7,0.3,2.2c0.1,0,0.1,0.1,0.2,0.1
		l8.5,4.9c0.9,0.6,2.2,0.2,2.7-0.7C148.2,193.8,148.3,193.3,148.2,192.8z M147.3,202l-4.6,8.7c-0.4,0.8-0.1,1.7,0.7,2.2
		c0.1,0,0.1,0.1,0.2,0.1c3.3,1.2,6.9,1.3,10.3,0.3c0.8-0.3,1.3-1.1,1.1-2c0-0.1,0-0.1-0.1-0.2l-4-9c-0.4-1-1.6-1.5-2.6-1
		C147.9,201.3,147.5,201.6,147.3,202z M163.8,196.4l-9.8,1c-1.1,0.1-1.9,1.1-1.8,2.2c0,0.4,0.2,0.9,0.6,1.2l6.9,7
		c0.6,0.6,1.6,0.6,2.3,0l0.1-0.1c2.2-2.7,3.4-6.1,3.5-9.6V198c0-0.9-0.7-1.6-1.6-1.6C164,196.4,163.9,196.4,163.8,196.4L163.8,196.4
		z M144.4,197.1l-9.7-1.6c-0.9-0.2-1.7,0.4-1.8,1.3c0,0.1,0,0.1,0,0.2l0,0c-0.1,3.5,0.9,7,2.9,9.9c0.5,0.7,1.5,0.9,2.2,0.4
		c0.1,0,0.1-0.1,0.2-0.1l7.3-6.6c0.8-0.8,0.8-2,0.1-2.8C145.3,197.4,144.9,197.2,144.4,197.1L144.4,197.1z"/>
	<circle class="st12" cx="149.2" cy="197.5" r="1.3"/>
	<circle class="st13" cx="149.1" cy="199.9" r="0.6"/>
	<circle class="st13" cx="151.5" cy="198.4" r="0.6"/>
	<circle class="st13" cx="150.7" cy="195.7" r="0.6"/>
	<circle class="st13" cx="147.9" cy="195.6" r="0.6"/>
	<circle class="st13" cx="146.9" cy="198.2" r="0.6"/>
	
		<linearGradient id="SVGID_8_" gradientUnits="userSpaceOnUse" x1="243.6406" y1="-797.596" x2="246.395" y2="-756.3095" gradientTransform="matrix(1 0 0 1 0 956)">
		<stop  offset="0" style="stop-color:#C3C4C7"/>
		<stop  offset="1" style="stop-color:#02C0AF;stop-opacity:0"/>
	</linearGradient>
	<path class="st36" d="M316.5,180.1c-26.9-2.1-120.2-6.5-144.6-6.8c-0.9,0-4.1,1.1-3.4,1.7c7.2,6.5,8.9,13.6,9.3,15.1
		c0.6,2.9,0.9,5.8,0.8,8.7c0,0.8,1.3,1.9,2.2,2c13.8,0.4,43.3,0.1,59.4,0.1c17.8,0,59.4-0.1,74.8-0.1c1.2-0.2,2.1-1.1,2.3-2.3
		l0.1-4.4c0.1-3,1.6-8.3,4-12.5C321.8,181,321.2,180.5,316.5,180.1z"/>
	<path class="st30" d="M182.8,201c1.6-19.1-14.6-36.6-32.6-36.6S117,180.2,117.7,200c1.7,0.2,1.2-0.5,1.8-2.1
		c-0.3-4.4,1.2-13.5,6.6-19.3c4.9-6.9,15.6-10.6,22-10.6c14.8-0.5,23.7,8.7,27.6,16.5c3,6,2.6,14.5,2.9,14.7
		c0.2,0.6,0.6,1.1,1.1,1.4C180.4,201.1,181.8,201,182.8,201z"/>
	<path class="st30" d="M380.7,203.1c1.6-19.1-14.4-38.5-32.4-38.5S315,181,315.6,200.8c1.1-0.4,1.8-1.4,1.8-2.6
		c-0.3-4.4,1.4-13.6,6.8-19.4c4.9-6.9,15.6-10.6,22-10.6c14.8-0.5,23.6,8.7,27.5,16.6c3,6,2.3,15.8,2.5,16.3
		c0.2,0.8,0.6,1.4,1.3,1.8C378.6,203.3,379.7,203.1,380.7,203.1z"/>
	<path class="st31" d="M393.3,151.8c1.8,2.5,6.4,5.3,7.7,3.9s-0.8-5.3-2.6-7.7c-1.8-2.5-4.5-3.6-5.9-2.5
		C391.1,146.5,391.4,149.4,393.3,151.8z"/>
	<path class="st31" d="M403.9,154.9c-3.6-6.4-4.5-9.3-3.3-10s7.8,3.3,9.5,10.6c0.5,2.3,0,5.3-1.7,4.9
		C406.8,160,405.1,157,403.9,154.9z"/>
	<path class="st32" d="M391.7,146.8c0.2-0.3,0.4-0.5,0.7-0.7c1.6-1,4.4,0.6,6.2,3.6c1.5,2.4,1.9,5,1.2,6.4c-1.9-0.2-5-2.3-6.4-4.3
		C392,150.1,391.4,148.2,391.7,146.8z"/>
	<path class="st32" d="M403.9,154.9c-2.7-4.7-3.9-7.5-3.8-9c2.7,0.6,6.8,5,7.8,8.6c0.7,2.4,0.2,4.4-0.6,5.3
		C406,158.7,404.8,156.5,403.9,154.9z"/>
	<path class="st16" d="M330.5,117.4c-0.2,1.1-2.5,2.1-1.4,3c1.2,0.9,5.8,2.8,8.9,2.7c1.5,0,3.8-0.5,4.2-1.2
		C336.1,119.6,331,117.5,330.5,117.4z"/>
	<path class="st16" d="M326.8,119.2l-7.6,6c-0.1,0.1-0.2,0.1-0.2,0l0,0c-0.1-0.1-0.1-0.2,0-0.2l7.5-5.9L326.8,119.2z"/>
	<circle class="st19" cx="332.5" cy="119.7" r="1.2"/>
	<path class="st28" d="M332.5,119.4c-0.5,0-0.9,0.3-0.9,0.7c0,0.2,0,0.3,0.1,0.5c0.3,0.6,2,1.4,2.4,1.2
		C334.5,121.6,333.7,119.4,332.5,119.4z"/>
</g>
</svg>
