<svg xmlns="http://www.w3.org/2000/svg" xmlns:xlink="http://www.w3.org/1999/xlink" viewBox="0 0 1930 1067.05"><defs><style>.cls-1{isolation:isolate;}.cls-2{fill:#595b5b;}.cls-3{fill:#9e9e9e;}.cls-4{fill:#6d6c6c;}.cls-5{fill:#c4c4c4;}.cls-24,.cls-36,.cls-6{fill:#fff;}.cls-7{fill:#f4d5c1;}.cls-8{fill:#f0c2a2;}.cls-9{fill:#d9f9f3;}.cls-10{fill:#fafffe;opacity:0.6;}.cls-11,.cls-21,.cls-22{fill:none;}.cls-12,.cls-34{fill:#515759;}.cls-13{fill:#373a35;}.cls-14{fill:#c3c4c7;}.cls-15{fill:#85898c;}.cls-16{fill:#acb1b5;}.cls-17{fill:#8b9298;}.cls-18{fill:#02c0af;}.cls-19,.cls-25{fill:#8dd5ef;}.cls-19{opacity:0.53;}.cls-20{fill:#4f5858;}.cls-21,.cls-22{stroke:#4f5858;}.cls-21{stroke-linecap:round;stroke-linejoin:round;stroke-width:0.5px;}.cls-22{stroke-miterlimit:10;stroke-width:0.7px;}.cls-23{fill:#474e4b;}.cls-24{opacity:0.38;mix-blend-mode:soft-light;}.cls-26{fill:#00a68e;}.cls-27{fill:#00b39e;}.cls-28{fill:url(#linear-gradient);}.cls-29{fill:#d92828;}.cls-30{fill:url(#linear-gradient-2);}.cls-31{fill:url(#linear-gradient-3);}.cls-32{fill:#3d4642;}.cls-33,.cls-40,.cls-44{mix-blend-mode:multiply;}.cls-33{fill:url(#linear-gradient-4);}.cls-34{opacity:0.28;}.cls-35{fill:#b4eeff;}.cls-36{opacity:0.5;}.cls-37{fill:url(#linear-gradient-5);}.cls-38{fill:url(#linear-gradient-6);}.cls-39{fill:url(#linear-gradient-7);}.cls-40{fill:url(#linear-gradient-8);}.cls-41{fill:url(#linear-gradient-9);}.cls-42{fill:url(#linear-gradient-10);}.cls-43{fill:url(#linear-gradient-11);}.cls-44{fill:url(#linear-gradient-12);}</style><linearGradient id="linear-gradient" x1="108.95" y1="-17.68" x2="122.31" y2="-17.68" gradientTransform="matrix(0.99, -0.03, -0.03, 0.87, 207.56, 877.1)" gradientUnits="userSpaceOnUse"><stop offset="0.18" stop-color="#83181e"/><stop offset="1" stop-color="#ac1e1d"/></linearGradient><linearGradient id="linear-gradient-2" x1="441.63" y1="795.09" x2="502.24" y2="795.09" gradientUnits="userSpaceOnUse"><stop offset="0.24" stop-color="#fff" stop-opacity="0.3"/><stop offset="1" stop-color="#8dd5ef" stop-opacity="0.4"/></linearGradient><linearGradient id="linear-gradient-3" x1="513.79" y1="801.72" x2="638.24" y2="801.72" gradientUnits="userSpaceOnUse"><stop offset="0.22" stop-color="#fff" stop-opacity="0.3"/><stop offset="1" stop-color="#8dd5ef" stop-opacity="0.4"/></linearGradient><linearGradient id="linear-gradient-4" x1="537.5" y1="860.4" x2="541.28" y2="917.06" gradientUnits="userSpaceOnUse"><stop offset="0" stop-color="#c3c4c7"/><stop offset="1" stop-color="#02c0af" stop-opacity="0"/></linearGradient><linearGradient id="linear-gradient-5" x1="622.91" y1="-12.96" x2="636.27" y2="-12.96" xlink:href="#linear-gradient"/><linearGradient id="linear-gradient-6" x1="951.63" y1="783.09" x2="1012.24" y2="783.09" xlink:href="#linear-gradient-2"/><linearGradient id="linear-gradient-7" x1="1023.79" y1="789.72" x2="1148.24" y2="789.72" xlink:href="#linear-gradient-3"/><linearGradient id="linear-gradient-8" x1="1047.5" y1="848.4" x2="1051.28" y2="905.06" xlink:href="#linear-gradient-4"/><linearGradient id="linear-gradient-9" x1="536.55" y1="59.99" x2="549.91" y2="59.99" xlink:href="#linear-gradient"/><linearGradient id="linear-gradient-10" x1="863.63" y1="849.09" x2="924.24" y2="849.09" xlink:href="#linear-gradient-2"/><linearGradient id="linear-gradient-11" x1="935.79" y1="855.72" x2="1060.24" y2="855.72" xlink:href="#linear-gradient-3"/><linearGradient id="linear-gradient-12" x1="959.5" y1="914.4" x2="963.28" y2="971.06" xlink:href="#linear-gradient-4"/></defs><title>parking</title><g class="cls-1"><g id="Layer_2" data-name="Layer 2"><g id="Cesta"><rect class="cls-2" x="8" y="827" width="1920" height="214"/><rect class="cls-3" x="10" y="818" width="1920" height="46"/><rect class="cls-4" x="23" y="819" width="1907" height="4"/><rect class="cls-5" x="10" y="861" width="1920" height="4"/></g><g id="Layer_25" data-name="Layer 25"><rect class="cls-4" x="1382" y="876" width="538" height="167"/></g><g id="Parking"><polygon class="cls-2" points="0 1022 1505 1038 1648 879 208.34 879 0 1022"/><polygon class="cls-6" points="859.5 882.53 674.07 1067.05 668.37 1061.36 853.8 876.85 859.5 882.53"/><rect class="cls-6" x="256" y="954.13" width="1001" height="10.13" transform="translate(1513 1918.39) rotate(-180)"/><rect class="cls-6" x="176" y="1022.15" width="994" height="9.89" transform="translate(1346 2054.18) rotate(-180)"/><rect class="cls-5" x="1463.04" y="936.69" width="275.17" height="4.72" transform="translate(3396.43 471.24) rotate(135)"/><polygon class="cls-7" points="1926.99 100 1614.34 100 1637.23 0.01 1901.92 0.01 1926.99 100"/><rect class="cls-8" x="1615.51" y="100" width="311.49" height="880"/><rect class="cls-5" x="1676" y="672" width="89" height="133"/><rect class="cls-9" x="1681" y="677.5" width="80" height="123"/><polygon class="cls-10" points="1760 799.5 1680 676.5 1760 676.5 1760 799.5"/><rect class="cls-5" x="1801" y="672" width="89" height="133"/><rect class="cls-9" x="1806" y="677.5" width="80" height="123"/><polygon class="cls-10" points="1885 800 1805 677 1885 677 1885 800"/><rect class="cls-5" x="1676" y="464" width="89" height="133"/><rect class="cls-9" x="1681" y="468.5" width="80" height="123"/><polygon class="cls-10" points="1760 591.5 1680 468.5 1760 468.5 1760 591.5"/><rect class="cls-5" x="1801" y="464" width="89" height="133"/><rect class="cls-9" x="1806" y="468.5" width="80" height="123"/><polygon class="cls-10" points="1885 592 1805 469 1885 469 1885 592"/><rect class="cls-5" x="1676" y="254" width="89" height="133"/><rect class="cls-9" x="1681" y="259.5" width="80" height="123"/><polygon class="cls-10" points="1760 382.5 1680 259.5 1760 259.5 1760 382.5"/><rect class="cls-5" x="1802" y="254" width="89" height="133"/><rect class="cls-9" x="1806" y="259.5" width="80" height="123"/><polygon class="cls-10" points="1885 383 1805 260 1885 260 1885 383"/><rect class="cls-11" x="1603" width="194" height="1019"/><rect class="cls-5" x="1609" y="826" width="7" height="156"/></g><g id="Auto"><path class="cls-12" d="M365.19,917.32c13.1-8.5,50.94-17.46,85.09,1.1.54.3,1.13-.68,1.61-1.07,2.76-2.25,11.49-10.87,8.28-27.93-3.8-20.16-21.55-36.57-52.38-33.87-30.39,2.67-56.17,26.4-44.7,60.56C363.38,917,364.41,917.82,365.19,917.32Z"/><path class="cls-12" d="M636.12,918.56c14.44-9.71,52.94-18.32,85.51,2.89.58.22.39.08.9-.27,2.93-2,12.32-9.92,10.47-27.18-2.19-20.4-18.58-38.17-49.53-37.92-30.5.25-58.09,21.85-49.36,56.82C634.32,913.8,635.35,919.08,636.12,918.56Z"/><circle class="cls-13" cx="679.23" cy="914.14" r="36.41" transform="translate(-257.65 1561.64) rotate(-88.04)"/><circle class="cls-14" cx="679.23" cy="914.14" r="25.36" transform="translate(-257.65 1561.64) rotate(-88.04)"/><path class="cls-15" d="M684.95,910.77l12.07-6a2.19,2.19,0,0,0,.85-3.19A22.51,22.51,0,0,0,686.74,893a2.2,2.2,0,0,0-2.88,1.62l-2.79,13.18A2.73,2.73,0,0,0,684.95,910.77Zm-7.17-3.11-2-13.33a2.2,2.2,0,0,0-2.77-1.79,22.51,22.51,0,0,0-11.64,7.95,2.19,2.19,0,0,0,.66,3.23l11.68,6.71A2.73,2.73,0,0,0,677.78,907.66Zm-1.22,12.56-6.28,11.92a2.19,2.19,0,0,0,1.17,3.08,22.49,22.49,0,0,0,14.11.48,2.19,2.19,0,0,0,1.37-3l-5.45-12.32A2.73,2.73,0,0,0,676.56,920.22Zm22.7-7.69-13.4,1.4a2.73,2.73,0,0,0-1.67,4.62l9.41,9.65a2.19,2.19,0,0,0,3.28-.16,22.36,22.36,0,0,0,4.8-13.13v-.17A2.19,2.19,0,0,0,699.27,912.53Zm-26.65,1-13.29-2.22a2.18,2.18,0,0,0-2.55,2v0a22.36,22.36,0,0,0,4,13.55,2.19,2.19,0,0,0,3.27.36l10-9A2.73,2.73,0,0,0,672.62,913.52Z"/><circle class="cls-16" cx="679.23" cy="914.14" r="1.82" transform="translate(-257.65 1561.64) rotate(-88.04)"/><circle class="cls-17" cx="679.11" cy="917.43" r="0.85" transform="translate(-261.05 1564.71) rotate(-88.04)"/><circle class="cls-17" cx="682.33" cy="915.26" r="0.85" transform="translate(-410.33 1245.96) rotate(-70.13)"/><circle class="cls-17" cx="681.25" cy="911.53" r="0.85" transform="translate(-456.56 891.79) rotate(-52.23)"/><circle class="cls-17" cx="677.37" cy="911.42" r="0.85" transform="translate(-396 540.76) rotate(-34.33)"/><circle class="cls-17" cx="676.07" cy="915.07" r="0.85" transform="translate(-231.22 228.59) rotate(-16.43)"/><path class="cls-18" d="M765.76,843.16h0c-10.08-13-28.29-16.59-44.34-19.76-4.24-.83-8.23-1.63-11.86-2.55-20.07-5.08-41.26-10.81-60.28-20.08-5.5-2.68-11-5.56-16.4-8.35-12.93-6.72-26.3-13.68-40.56-18.6a214.55,214.55,0,0,0-113.12-6.75c-20.34,4.32-39.86,11.64-58.72,18.72-14.37,5.39-29.24,11-44.24,15.11-4.56,1.26-9.39,2.28-14.05,3.28-8.35,1.79-17,3.63-25,6.91-10.22,4.17-17.49,10.9-20.07,18.48l0,.1-.09.21c-.06.21-.07.29-.1.4h0c-1.82,6.06-.76,12.21.4,17.52s2.64,10.66,4.33,15.92l0,.15a175.62,175.62,0,0,0,7,18.35c7.09,15.77,21.69,28.4,32.95,34.94a3.67,3.67,0,0,0,5-1.24,3.47,3.47,0,0,0,.46-2.31,2.81,2.81,0,0,0,0-.5c0-21.92,18.19-39.75,40.53-39.75s40.53,17.82,40.53,39.75v2.14a3.62,3.62,0,0,0,3.63,3.59c16.4.06,33.18.09,50.06.09,18.18,0,36.44,0,54.39-.06,26.17,0,52.48-.07,78.69,0l.46,0,.36-.06c.19,0,.6-.18.6-.18a3.57,3.57,0,0,0,2.27-3.47q0-1,0-2c0-21.92,18.18-39.75,40.53-39.75s40.53,17.82,40.53,39.75c0,1.36-.07,3.66-.18,4.77a3.58,3.58,0,0,0,3.3,3.87h4c9.89,0,20-.32,25.14-4,5.59-4,6.66-13.33,7.51-20.81.27-2.26.51-4.41.84-5.87,1.79-8,4-16.07,6.42-23.89l.22-.69C769.22,859.23,771.82,851,765.76,843.16Z"/><path class="cls-19" d="M654.59,808a39.76,39.76,0,0,0,2.17-3.87c-6.18-2.83-17.34-8.15-22.37-10.73-13.21-6.79-26.51-14.8-41.49-19.27-12-3.57-15.85-5.26-22.91-6.83-5.06-1.13-6.51-1.37-7.32-1.25-.49.07-.06,1-.2,1.91a.76.76,0,0,0,.44.87C586,776.43,601.1,781.17,654.59,808Z"/><path class="cls-20" d="M645.57,824.45c-1.22,5.56-5.45,9.24-10.51,9.12l-123.18-2.78c-5.85-.13-10.53-5.65-10.42-12.3l.63-37.54c.12-6.91-49.54-11.26,10.76-13.22,44.74-1.46,99.06,25.08,127.59,43.26A12.61,12.61,0,0,1,645.57,824.45Z"/><path class="cls-20" d="M506.91,817.46c-.13,7.49,52.76,14.78-14.38,13.28l-70.87-1.6a14.16,14.16,0,0,1-13.08-9,13.07,13.07,0,0,1,2.26-13.18c12.46-14.77,36.58-33.36,80.84-38.06a14.66,14.66,0,0,1,12,4.31,13.34,13.34,0,0,1,3.81,9.56Z"/><path class="cls-21" d="M664.21,811.5c1.73,3.74,7.2,10.27,9.58,11.83s10.49,3.75,16.68,5.67,40.95,11.3,43.8,13.73"/><path class="cls-21" d="M400.68,814.78c-2.23,3.24-8.54,8.53-11.1,9.62s-10.81,1.9-17.16,2.75-41.74,4.29-44.88,6.13"/><path class="cls-22" d="M504.71,829c-3.8,8-8.22,19.6-6.49,51.93s4.66,36.13,9.66,36.56,118.92-.3,120.66-.37c1.38-2.75,3.8-16.88,4.49-39.7s-.24-40.17-1.62-44.32Z"/><ellipse class="cls-23" cx="748.52" cy="895" rx="8.05" ry="3.1" transform="translate(-212.72 1556.29) rotate(-84.62)"/><path class="cls-24" d="M747.41,888.32h-.07a14.67,14.67,0,0,0-1.9,6.38,13.85,13.85,0,0,0,.83,7c1.74,0,3.39-2.77,3.73-6.37S749.19,888.49,747.41,888.32Z"/><path class="cls-23" d="M753.71,903c-2.43,1.12-11.36,3.89-13.37,4.66a35.65,35.65,0,0,0-1.69,5.55c2.62-.15,12.19-1.22,16.19-2.61h0C753.26,908.31,753.13,905.8,753.71,903Z"/><path class="cls-25" d="M501.6,814.65c-.1,6.12-5.53,11-12.12,10.84l-59.76-1.35a12,12,0,0,1-11-7.39,10.4,10.4,0,0,1,1.9-10.76c10.5-12.05,30.83-27.22,68.15-31a12.61,12.61,0,0,1,10.13,3.52,10.72,10.72,0,0,1,3.21,7.81Z"/><path class="cls-25" d="M638,821.39a9.28,9.28,0,0,1-9.3,7.4l-109.11-2.47a9.7,9.7,0,0,1-9.24-10l.51-30.54A10.77,10.77,0,0,1,520.34,775c39.42-3.74,87.77,20.57,113.07,35.41A9.91,9.91,0,0,1,638,821.39Z"/><path class="cls-26" d="M529.58,850.85c0-3.51,2.31-9.12,11.4-9.12s10.26,6.09,10.17,9.32-1.84,9.63-10.32,8.86S529.58,855.55,529.58,850.85Z"/><path class="cls-27" d="M520.33,850.51c-.13,1.38.77,3.08,4.31,2.77,6.29-.55,24.84.58,28,1.23,3,.62,5.55-4.37,1.69-5.55s-15.4-1.33-21.11-1.39C524,847.5,520.64,847.12,520.33,850.51Z"/><path class="cls-28" d="M328.86,849.55c2,8-.46,16.13-3.68,16.89-1.69.4-4.76-1.13-5.8-4.08-1-2.76-2-6.18-2.91-9.92"/><path class="cls-29" d="M316.48,852.49c-.94-3.75-2.24-8.82-1.94-11.63.35-3.26,2.83-5.34,4.58-5.43,2.75-.13,7.65,5.93,9.73,14.17"/><path class="cls-30" d="M501.76,814.9c-.07,4.42-71.66-20.57-58.51-26.86,10.88-5.21,17-9.54,45.53-13.18A12.37,12.37,0,0,1,499,778.41a10.82,10.82,0,0,1,3.24,7.88Z"/><path class="cls-31" d="M638,821.39a9.28,9.28,0,0,1-9.3,7.4s-92.92-20.28-114.46-48.48c-1.45-1.9,1.06-4.11,6.14-5.29,39.42-3.74,87.77,20.57,113.07,35.41A9.91,9.91,0,0,1,638,821.39Z"/><polygon class="cls-20" points="638.46 829.68 628.43 831.5 624.13 803.55 638.13 812.91 638.46 829.68"/><path class="cls-18" d="M606.65,816.55c.72-1.07,5.77-5.33,11.11-5.39s16.62,2.83,21.38,6.37c.54,1.81-1.6,7.07-5.35,11.46-4.69,1.87-20.64.6-26.57-.3C605.26,827.11,605.19,820.86,606.65,816.55Z"/><path class="cls-32" d="M607.7,823.41a53.25,53.25,0,0,1,.08-6.72c.15-1.08,4-3.92,6.88-5.05a17.81,17.81,0,0,0-8,4.92c-1.46,4.3-1.38,10.55.57,12.13,5.92.91,21.88,2.17,26.57.3a29.59,29.59,0,0,0,2.71-3.74C627.79,825.35,609.87,824.41,607.7,823.41Z"/><circle class="cls-21" cx="399.84" cy="848.38" r="10.64"/><path class="cls-26" d="M389.21,845.7c1.21,0,3.54.11,3.54,2,0,2.17-1.67,2.78-3.34,2.79C388.32,849.89,388.59,846.59,389.21,845.7Z"/><circle class="cls-13" cx="407.91" cy="914.14" r="36.41" transform="translate(-519.67 1290.49) rotate(-88.04)"/><circle class="cls-14" cx="407.91" cy="914.14" r="25.36" transform="translate(-519.67 1290.49) rotate(-88.04)"/><path class="cls-15" d="M413.64,910.77l12.07-6a2.19,2.19,0,0,0,.85-3.19A22.51,22.51,0,0,0,415.43,893a2.2,2.2,0,0,0-2.88,1.62l-2.79,13.18A2.73,2.73,0,0,0,413.64,910.77Zm-7.17-3.11-2-13.33a2.2,2.2,0,0,0-2.77-1.79,22.51,22.51,0,0,0-11.64,7.95,2.19,2.19,0,0,0,.66,3.23l11.68,6.71A2.73,2.73,0,0,0,406.47,907.66Zm-1.22,12.56L399,932.14a2.19,2.19,0,0,0,1.17,3.08,22.49,22.49,0,0,0,14.11.48,2.19,2.19,0,0,0,1.37-3l-5.45-12.32A2.73,2.73,0,0,0,405.25,920.22Zm22.7-7.69-13.4,1.4a2.73,2.73,0,0,0-1.67,4.62l9.41,9.65a2.19,2.19,0,0,0,3.28-.16,22.36,22.36,0,0,0,4.8-13.13v-.17A2.19,2.19,0,0,0,428,912.53Zm-26.65,1L388,911.3a2.18,2.18,0,0,0-2.55,2v0a22.36,22.36,0,0,0,4,13.55,2.19,2.19,0,0,0,3.27.36l10-9A2.73,2.73,0,0,0,401.3,913.52Z"/><circle class="cls-16" cx="407.91" cy="914.14" r="1.82" transform="translate(-519.67 1290.49) rotate(-88.04)"/><circle class="cls-17" cx="407.8" cy="917.43" r="0.85" transform="translate(-523.07 1293.56) rotate(-88.04)"/><circle class="cls-17" cx="411.01" cy="915.26" r="0.85" transform="translate(-589.45 990.79) rotate(-70.13)"/><circle class="cls-17" cx="409.93" cy="911.53" r="0.85" transform="translate(-561.71 677.32) rotate(-52.23)"/><circle class="cls-17" cx="406.05" cy="911.42" r="0.85" transform="translate(-443.26 387.75) rotate(-34.33)"/><circle class="cls-17" cx="404.75" cy="915.07" r="0.85" transform="translate(-242.3 151.85) rotate(-16.43)"/><path class="cls-33" d="M637.44,890.24c-36.88-2.92-165-8.9-198.41-9.31-1.27,0-5.58,1.5-4.63,2.34,9.91,8.88,12.26,18.61,12.76,20.73a54.28,54.28,0,0,1,1.12,12c0,1.13,1.84,2.67,3,2.7,18.91.5,59.41.19,81.54.17,24.48,0,81.58-.11,102.65-.11a3.88,3.88,0,0,0,3.18-3.16l.12-6c.08-4.06,2.25-11.36,5.49-17.13C644.78,891.42,643.9,890.75,637.44,890.24Z"/><path class="cls-34" d="M453.93,918.83c2.16-26.19-20-50.23-44.68-50.23s-45.53,21.72-44.64,48.92c2.29.27,1.71-.75,2.53-2.91-.46-6,1.61-18.51,9.1-26.55,6.74-9.5,21.38-14.52,30.24-14.52,20.26-.64,32.55,11.94,37.9,22.65,4.13,8.27,3.52,19.87,4,20.2a3.82,3.82,0,0,0,1.55,1.92C450.73,919,452.61,918.86,453.93,918.83Z"/><path class="cls-34" d="M725.52,921.76c2.16-26.19-19.82-52.85-44.5-52.85s-45.73,22.5-44.85,49.7a3.54,3.54,0,0,0,2.43-3.6c-.46-6,1.92-18.61,9.4-26.64,6.74-9.5,21.38-14.52,30.24-14.52,20.26-.64,32.41,12,37.77,22.74,4.13,8.27,3.16,21.72,3.49,22.32a3.55,3.55,0,0,0,1.82,2.42C722.71,922,724.21,921.78,725.52,921.76Z"/><path class="cls-35" d="M742.81,851.38c2.52,3.37,8.74,7.27,10.63,5.37s-1.09-7.24-3.61-10.61-6.13-4.94-8.07-3.49S740.3,848,742.81,851.38Z"/><path class="cls-35" d="M757.41,855.57c-5-8.81-6.18-12.81-4.51-13.79s10.67,4.58,13.05,14.57c.74,3.09,0,7.31-2.31,6.77S759,858.43,757.41,855.57Z"/><path class="cls-36" d="M740.67,844.52a2.67,2.67,0,0,1,.9-1c2.16-1.35,6,.85,8.49,4.9,2.07,3.32,2.64,6.85,1.6,8.76-2.66-.26-6.88-3.2-8.85-5.84C741,849,740.3,846.38,740.67,844.52Z"/><path class="cls-36" d="M757.41,855.57c-3.7-6.48-5.29-10.35-5.22-12.34,3.72.8,9.34,6.85,10.71,11.8.93,3.36.26,6-.77,7.28C760.34,860.84,758.69,857.81,757.41,855.57Z"/><path class="cls-20" d="M656.6,804.06c-.28,1.56-3.39,2.92-1.88,4.08,1.68,1.29,8,3.78,12.18,3.75,2,0,5.24-.75,5.74-1.61C664.36,807.15,657.36,804.27,656.6,804.06Z"/><path class="cls-20" d="M651.65,806.6l-10.47,8.25a.25.25,0,0,1-.34,0h0a.25.25,0,0,1,0-.34l10.25-8.1Z"/><circle class="cls-23" cx="659.39" cy="807.32" r="1.62"/><path class="cls-32" d="M659.39,806.82a1.14,1.14,0,0,0-1.14,1.64c.48.82,2.76,1.94,3.33,1.67S661,806.83,659.39,806.82Z"/><path class="cls-12" d="M875.19,905.32c13.1-8.5,50.94-17.46,85.09,1.1.54.3,1.13-.68,1.61-1.07,2.76-2.25,11.49-10.87,8.28-27.93-3.8-20.16-21.55-36.57-52.38-33.87-30.39,2.67-56.17,26.4-44.7,60.56C873.38,905,874.41,905.82,875.19,905.32Z"/><path class="cls-12" d="M1146.12,906.56c14.44-9.71,52.94-18.32,85.51,2.89.58.22.39.08.9-.27,2.93-2,12.32-9.92,10.47-27.18-2.19-20.4-18.58-38.17-49.53-37.92-30.5.25-58.09,21.85-49.36,56.82C1144.32,901.8,1145.35,907.08,1146.12,906.56Z"/><circle class="cls-13" cx="1189.23" cy="902.14" r="36.41" transform="translate(246.87 2059.75) rotate(-88.04)"/><circle class="cls-14" cx="1189.23" cy="902.14" r="25.36" transform="matrix(0.03, -1, 1, 0.03, 246.87, 2059.75)"/><path class="cls-15" d="M1194.95,898.77l12.07-6a2.19,2.19,0,0,0,.85-3.19,22.51,22.51,0,0,0-11.13-8.64,2.2,2.2,0,0,0-2.88,1.62l-2.79,13.18A2.73,2.73,0,0,0,1194.95,898.77Zm-7.17-3.11-2-13.33a2.2,2.2,0,0,0-2.77-1.79,22.51,22.51,0,0,0-11.64,7.95,2.19,2.19,0,0,0,.66,3.23l11.68,6.71A2.73,2.73,0,0,0,1187.78,895.66Zm-1.22,12.56-6.28,11.92a2.19,2.19,0,0,0,1.17,3.08,22.49,22.49,0,0,0,14.11.48,2.19,2.19,0,0,0,1.37-3l-5.45-12.32A2.73,2.73,0,0,0,1186.56,908.22Zm22.7-7.69-13.4,1.4a2.73,2.73,0,0,0-1.67,4.62l9.41,9.65a2.19,2.19,0,0,0,3.28-.16,22.36,22.36,0,0,0,4.8-13.13v-.17A2.19,2.19,0,0,0,1209.27,900.53Zm-26.65,1-13.29-2.22a2.18,2.18,0,0,0-2.55,2v0a22.36,22.36,0,0,0,4,13.55,2.19,2.19,0,0,0,3.27.36l10-9A2.73,2.73,0,0,0,1182.62,901.52Z"/><circle class="cls-16" cx="1189.23" cy="902.14" r="1.82" transform="translate(246.87 2059.75) rotate(-88.04)"/><circle class="cls-17" cx="1189.11" cy="905.43" r="0.85" transform="translate(243.47 2062.82) rotate(-88.04)"/><circle class="cls-17" cx="1192.33" cy="903.26" r="0.85" transform="translate(-62.36 1717.68) rotate(-70.13)"/><circle class="cls-17" cx="1191.25" cy="899.53" r="0.85" transform="translate(-249.42 1290.3) rotate(-52.23)"/><circle class="cls-17" cx="1187.37" cy="899.42" r="0.85" transform="translate(-300.4 826.28) rotate(-34.33)"/><circle class="cls-17" cx="1186.07" cy="903.07" r="0.85" transform="translate(-207 372.36) rotate(-16.43)"/><path class="cls-18" d="M1275.76,831.16h0c-10.08-13-28.29-16.59-44.34-19.76-4.24-.83-8.23-1.63-11.86-2.55-20.07-5.08-41.26-10.81-60.28-20.08-5.5-2.68-11-5.56-16.4-8.35-12.93-6.72-26.3-13.68-40.56-18.6a214.55,214.55,0,0,0-113.12-6.75c-20.34,4.32-39.86,11.64-58.72,18.72-14.37,5.39-29.24,11-44.24,15.11-4.56,1.26-9.39,2.28-14.05,3.28-8.35,1.79-17,3.63-25,6.91-10.22,4.17-17.49,10.9-20.07,18.48l0,.1-.09.21c-.06.21-.07.29-.1.4h0c-1.82,6.06-.76,12.21.4,17.52s2.64,10.66,4.33,15.92l0,.15a175.62,175.62,0,0,0,7,18.35c7.09,15.77,21.69,28.4,32.95,34.94a3.67,3.67,0,0,0,5-1.24,3.47,3.47,0,0,0,.46-2.31,2.81,2.81,0,0,0,0-.5c0-21.92,18.19-39.75,40.53-39.75s40.53,17.82,40.53,39.75v2.14a3.62,3.62,0,0,0,3.63,3.59c16.4.06,33.18.09,50.06.09,18.18,0,36.44,0,54.39-.06,26.17,0,52.48-.07,78.69,0l.46,0,.36-.06c.19,0,.6-.18.6-.18a3.57,3.57,0,0,0,2.27-3.47q0-1,0-2c0-21.92,18.18-39.75,40.53-39.75s40.53,17.82,40.53,39.75c0,1.36-.07,3.66-.18,4.77a3.58,3.58,0,0,0,3.3,3.87h4c9.89,0,20-.32,25.14-4,5.59-4,6.66-13.33,7.51-20.81.27-2.26.51-4.41.84-5.87,1.79-8,4-16.07,6.42-23.89l.22-.69C1279.22,847.23,1281.82,839,1275.76,831.16Z"/><path class="cls-19" d="M1164.59,796a39.76,39.76,0,0,0,2.17-3.87c-6.18-2.83-17.34-8.15-22.37-10.73-13.21-6.79-26.51-14.8-41.49-19.27-12-3.57-15.85-5.26-22.91-6.83-5.06-1.13-6.51-1.37-7.32-1.25-.49.07-.06,1-.2,1.91a.76.76,0,0,0,.44.87C1096,764.43,1111.1,769.17,1164.59,796Z"/><path class="cls-20" d="M1155.57,812.45c-1.22,5.56-5.45,9.24-10.51,9.12l-123.18-2.78c-5.85-.13-10.53-5.65-10.42-12.3l.63-37.54c.12-6.91-49.54-11.26,10.76-13.22,44.74-1.46,99.06,25.08,127.59,43.26A12.61,12.61,0,0,1,1155.57,812.45Z"/><path class="cls-20" d="M1016.91,805.46c-.13,7.49,52.76,14.78-14.38,13.28l-70.87-1.6a14.16,14.16,0,0,1-13.08-9,13.07,13.07,0,0,1,2.26-13.18c12.46-14.77,36.58-33.36,80.84-38.06a14.66,14.66,0,0,1,12,4.31,13.34,13.34,0,0,1,3.81,9.56Z"/><path class="cls-21" d="M1174.21,799.5c1.73,3.74,7.2,10.27,9.58,11.83s10.49,3.75,16.68,5.67,40.95,11.3,43.8,13.73"/><path class="cls-21" d="M910.68,802.78c-2.23,3.24-8.54,8.53-11.1,9.62s-10.81,1.9-17.16,2.75-41.74,4.29-44.88,6.13"/><path class="cls-22" d="M1014.71,817c-3.8,8-8.22,19.6-6.49,51.93s4.66,36.13,9.66,36.56,118.92-.3,120.66-.37c1.38-2.75,3.8-16.88,4.49-39.7s-.24-40.17-1.62-44.32Z"/><ellipse class="cls-23" cx="1258.52" cy="883" rx="8.05" ry="3.1" transform="translate(261.4 2053.17) rotate(-84.62)"/><path class="cls-24" d="M1257.41,876.32h-.07a14.67,14.67,0,0,0-1.9,6.38,13.85,13.85,0,0,0,.83,7c1.74,0,3.39-2.77,3.73-6.37S1259.19,876.49,1257.41,876.32Z"/><path class="cls-23" d="M1263.71,891c-2.43,1.12-11.36,3.89-13.37,4.66a35.65,35.65,0,0,0-1.69,5.55c2.62-.15,12.19-1.22,16.19-2.61h0C1263.26,896.31,1263.13,893.8,1263.71,891Z"/><path class="cls-25" d="M1011.6,802.65c-.1,6.12-5.53,11-12.12,10.84l-59.76-1.35a12,12,0,0,1-11-7.39,10.4,10.4,0,0,1,1.9-10.76c10.5-12.05,30.83-27.22,68.15-31a12.61,12.61,0,0,1,10.13,3.52,10.72,10.72,0,0,1,3.21,7.81Z"/><path class="cls-25" d="M1148,809.39a9.28,9.28,0,0,1-9.3,7.4l-109.11-2.47a9.7,9.7,0,0,1-9.24-10l.51-30.54a10.77,10.77,0,0,1,9.52-10.74c39.42-3.74,87.77,20.57,113.07,35.41A9.91,9.91,0,0,1,1148,809.39Z"/><path class="cls-26" d="M1039.58,838.85c0-3.51,2.31-9.12,11.4-9.12s10.26,6.09,10.17,9.32-1.84,9.63-10.32,8.86S1039.58,843.55,1039.58,838.85Z"/><path class="cls-27" d="M1030.33,838.51c-.13,1.38.77,3.08,4.31,2.77,6.29-.55,24.84.58,28,1.23,3,.62,5.55-4.37,1.69-5.55s-15.4-1.33-21.11-1.39C1034,835.5,1030.64,835.12,1030.33,838.51Z"/><path class="cls-37" d="M838.86,837.55c2,8-.46,16.13-3.68,16.89-1.69.4-4.76-1.13-5.8-4.08-1-2.76-2-6.18-2.91-9.92"/><path class="cls-29" d="M826.48,840.49c-.94-3.75-2.24-8.82-1.94-11.63.35-3.26,2.83-5.34,4.58-5.43,2.75-.13,7.65,5.93,9.73,14.17"/><path class="cls-38" d="M1011.76,802.9c-.07,4.42-71.66-20.57-58.51-26.86,10.88-5.21,17-9.54,45.53-13.18a12.37,12.37,0,0,1,10.22,3.55,10.82,10.82,0,0,1,3.24,7.88Z"/><path class="cls-39" d="M1148,809.39a9.28,9.28,0,0,1-9.3,7.4s-92.92-20.28-114.46-48.48c-1.45-1.9,1.06-4.11,6.14-5.29,39.42-3.74,87.77,20.57,113.07,35.41A9.91,9.91,0,0,1,1148,809.39Z"/><polygon class="cls-20" points="1148.46 817.68 1138.43 819.5 1134.13 791.55 1148.13 800.91 1148.46 817.68"/><path class="cls-18" d="M1116.65,804.55c.72-1.07,5.77-5.33,11.11-5.39s16.62,2.83,21.38,6.37c.54,1.81-1.6,7.07-5.35,11.46-4.69,1.87-20.64.6-26.57-.3C1115.26,815.11,1115.19,808.86,1116.65,804.55Z"/><path class="cls-32" d="M1117.7,811.41a53.25,53.25,0,0,1,.08-6.72c.15-1.08,4-3.92,6.88-5.05a17.81,17.81,0,0,0-8,4.92c-1.46,4.3-1.38,10.55.57,12.13,5.92.91,21.88,2.17,26.57.3a29.59,29.59,0,0,0,2.71-3.74C1137.79,813.35,1119.87,812.41,1117.7,811.41Z"/><circle class="cls-21" cx="909.84" cy="836.38" r="10.64"/><path class="cls-26" d="M899.21,833.7c1.21,0,3.54.11,3.54,2,0,2.17-1.67,2.78-3.34,2.79C898.32,837.89,898.59,834.59,899.21,833.7Z"/><circle class="cls-13" cx="917.91" cy="902.14" r="36.41" transform="translate(-15.15 1788.6) rotate(-88.04)"/><circle class="cls-14" cx="917.91" cy="902.14" r="25.36" transform="translate(-15.15 1788.6) rotate(-88.04)"/><path class="cls-15" d="M923.64,898.77l12.07-6a2.19,2.19,0,0,0,.85-3.19A22.51,22.51,0,0,0,925.43,881a2.2,2.2,0,0,0-2.88,1.62l-2.79,13.18A2.73,2.73,0,0,0,923.64,898.77Zm-7.17-3.11-2-13.33a2.2,2.2,0,0,0-2.77-1.79,22.51,22.51,0,0,0-11.64,7.95,2.19,2.19,0,0,0,.66,3.23l11.68,6.71A2.73,2.73,0,0,0,916.47,895.66Zm-1.22,12.56L909,920.14a2.19,2.19,0,0,0,1.17,3.08,22.49,22.49,0,0,0,14.11.48,2.19,2.19,0,0,0,1.37-3l-5.45-12.32A2.73,2.73,0,0,0,915.25,908.22Zm22.7-7.69-13.4,1.4a2.73,2.73,0,0,0-1.67,4.62l9.41,9.65a2.19,2.19,0,0,0,3.28-.16,22.36,22.36,0,0,0,4.8-13.13v-.17A2.19,2.19,0,0,0,938,900.53Zm-26.65,1L898,899.3a2.18,2.18,0,0,0-2.55,2v0a22.36,22.36,0,0,0,4,13.55,2.19,2.19,0,0,0,3.27.36l10-9A2.73,2.73,0,0,0,911.3,901.52Z"/><circle class="cls-16" cx="917.91" cy="902.14" r="1.82" transform="translate(-15.15 1788.6) rotate(-88.04)"/><circle class="cls-17" cx="917.8" cy="905.43" r="0.85" transform="translate(-18.55 1791.67) rotate(-88.04)"/><circle class="cls-17" cx="921.01" cy="903.26" r="0.85" transform="translate(-241.47 1462.52) rotate(-70.13)"/><circle class="cls-17" cx="919.93" cy="899.53" r="0.85" transform="translate(-354.57 1075.82) rotate(-52.23)"/><circle class="cls-17" cx="916.05" cy="899.42" r="0.85" transform="translate(-347.66 673.28) rotate(-34.33)"/><circle class="cls-17" cx="914.75" cy="903.07" r="0.85" transform="translate(-218.08 295.62) rotate(-16.43)"/><path class="cls-40" d="M1147.44,878.24c-36.88-2.92-165-8.9-198.41-9.31-1.27,0-5.58,1.5-4.63,2.34,9.91,8.88,12.26,18.61,12.76,20.73a54.28,54.28,0,0,1,1.12,12c0,1.13,1.84,2.67,3,2.7,18.91.5,59.41.19,81.54.17,24.48,0,81.58-.11,102.65-.11a3.88,3.88,0,0,0,3.18-3.16l.12-6c.08-4.06,2.25-11.36,5.49-17.13C1154.78,879.42,1153.9,878.75,1147.44,878.24Z"/><path class="cls-34" d="M963.93,906.83c2.16-26.19-20-50.23-44.68-50.23s-45.53,21.72-44.64,48.92c2.29.27,1.71-.75,2.53-2.91-.46-6,1.61-18.51,9.1-26.55,6.74-9.5,21.38-14.52,30.24-14.52,20.26-.64,32.55,11.94,37.9,22.65,4.13,8.27,3.52,19.87,4,20.2a3.82,3.82,0,0,0,1.55,1.92C960.73,907,962.61,906.86,963.93,906.83Z"/><path class="cls-34" d="M1235.52,909.76c2.16-26.19-19.82-52.85-44.5-52.85s-45.73,22.5-44.85,49.7a3.54,3.54,0,0,0,2.43-3.6c-.46-6,1.92-18.61,9.4-26.64,6.74-9.5,21.38-14.52,30.24-14.52,20.26-.64,32.41,12,37.77,22.74,4.13,8.27,3.16,21.72,3.49,22.32a3.55,3.55,0,0,0,1.82,2.42C1232.71,910,1234.21,909.78,1235.52,909.76Z"/><path class="cls-35" d="M1252.81,839.38c2.52,3.37,8.74,7.27,10.63,5.37s-1.09-7.24-3.61-10.61-6.13-4.94-8.07-3.49S1250.3,836,1252.81,839.38Z"/><path class="cls-35" d="M1267.41,843.57c-5-8.81-6.18-12.81-4.51-13.79s10.67,4.58,13.05,14.57c.74,3.09,0,7.31-2.31,6.77S1269,846.43,1267.41,843.57Z"/><path class="cls-36" d="M1250.67,832.52a2.67,2.67,0,0,1,.9-1c2.16-1.35,6,.85,8.49,4.9,2.07,3.32,2.64,6.85,1.6,8.76-2.66-.26-6.88-3.2-8.85-5.84C1251,837,1250.3,834.38,1250.67,832.52Z"/><path class="cls-36" d="M1267.41,843.57c-3.7-6.48-5.29-10.35-5.22-12.34,3.72.8,9.34,6.85,10.71,11.8.93,3.36.26,6-.77,7.28C1270.34,848.84,1268.69,845.81,1267.41,843.57Z"/><path class="cls-20" d="M1166.6,792.06c-.28,1.56-3.39,2.92-1.88,4.08,1.68,1.29,8,3.78,12.18,3.75,2,0,5.24-.75,5.74-1.61C1174.36,795.15,1167.36,792.27,1166.6,792.06Z"/><path class="cls-20" d="M1161.65,794.6l-10.47,8.25a.25.25,0,0,1-.34,0h0a.25.25,0,0,1,0-.34l10.25-8.1Z"/><circle class="cls-23" cx="1169.39" cy="795.32" r="1.62"/><path class="cls-32" d="M1169.39,794.82a1.14,1.14,0,0,0-1.14,1.64c.48.82,2.76,1.94,3.33,1.67S1171,794.83,1169.39,794.82Z"/><path class="cls-12" d="M787.19,971.32c13.1-8.5,50.94-17.46,85.09,1.1.54.3,1.13-.68,1.61-1.07,2.76-2.25,11.49-10.87,8.28-27.93-3.8-20.16-21.55-36.57-52.38-33.87-30.39,2.67-56.17,26.4-44.7,60.56C785.38,971,786.41,971.82,787.19,971.32Z"/><path class="cls-12" d="M1058.12,972.56c14.44-9.71,52.94-18.32,85.51,2.89.58.22.39.08.9-.27,2.93-2,12.32-9.92,10.47-27.18-2.19-20.4-18.58-38.17-49.53-37.92-30.5.25-58.09,21.85-49.36,56.82C1056.32,967.8,1057.35,973.08,1058.12,972.56Z"/><circle class="cls-13" cx="1101.23" cy="968.14" r="36.41" transform="translate(95.92 2035.54) rotate(-88.04)"/><circle class="cls-14" cx="1101.23" cy="968.14" r="25.36" transform="matrix(0.03, -1, 1, 0.03, 95.92, 2035.54)"/><path class="cls-15" d="M1106.95,964.77l12.07-6a2.19,2.19,0,0,0,.85-3.19,22.51,22.51,0,0,0-11.13-8.64,2.2,2.2,0,0,0-2.88,1.62l-2.79,13.18A2.73,2.73,0,0,0,1106.95,964.77Zm-7.17-3.11-2-13.33a2.2,2.2,0,0,0-2.77-1.79,22.51,22.51,0,0,0-11.64,7.95,2.19,2.19,0,0,0,.66,3.23l11.68,6.71A2.73,2.73,0,0,0,1099.78,961.66Zm-1.22,12.56-6.28,11.92a2.19,2.19,0,0,0,1.17,3.08,22.49,22.49,0,0,0,14.11.48,2.19,2.19,0,0,0,1.37-3l-5.45-12.32A2.73,2.73,0,0,0,1098.56,974.22Zm22.7-7.69-13.4,1.4a2.73,2.73,0,0,0-1.67,4.62l9.41,9.65a2.19,2.19,0,0,0,3.28-.16,22.36,22.36,0,0,0,4.8-13.13v-.17A2.19,2.19,0,0,0,1121.27,966.53Zm-26.65,1-13.29-2.22a2.18,2.18,0,0,0-2.55,2v0a22.36,22.36,0,0,0,4,13.55,2.19,2.19,0,0,0,3.27.36l10-9A2.73,2.73,0,0,0,1094.62,967.52Z"/><circle class="cls-16" cx="1101.23" cy="968.14" r="1.82" transform="translate(95.92 2035.54) rotate(-88.04)"/><circle class="cls-17" cx="1101.11" cy="971.43" r="0.85" transform="translate(92.52 2038.61) rotate(-88.04)"/><circle class="cls-17" cx="1104.33" cy="969.26" r="0.85" transform="translate(-182.52 1678.49) rotate(-70.13)"/><circle class="cls-17" cx="1103.25" cy="965.53" r="0.85" transform="translate(-335.7 1246.31) rotate(-52.23)"/><circle class="cls-17" cx="1099.37" cy="965.42" r="0.85" transform="translate(-352.95 788.15) rotate(-34.33)"/><circle class="cls-17" cx="1098.07" cy="969.07" r="0.85" transform="translate(-229.26 350.16) rotate(-16.43)"/><path class="cls-18" d="M1187.76,897.16h0c-10.08-13-28.29-16.59-44.34-19.76-4.24-.83-8.23-1.63-11.86-2.55-20.07-5.08-41.26-10.81-60.28-20.08-5.5-2.68-11-5.56-16.4-8.35-12.93-6.72-26.3-13.68-40.56-18.6a214.55,214.55,0,0,0-113.12-6.75c-20.34,4.32-39.86,11.64-58.72,18.72-14.37,5.39-29.24,11-44.24,15.11-4.56,1.26-9.39,2.28-14.05,3.28-8.35,1.79-17,3.63-25,6.91-10.22,4.17-17.49,10.9-20.07,18.48l0,.1-.09.21c-.06.21-.07.29-.1.4h0c-1.82,6.06-.76,12.21.4,17.52s2.64,10.66,4.33,15.92l0,.15a175.62,175.62,0,0,0,7,18.35c7.09,15.77,21.69,28.4,32.95,34.94a3.67,3.67,0,0,0,5-1.24,3.47,3.47,0,0,0,.46-2.31,2.81,2.81,0,0,0,0-.5c0-21.92,18.19-39.75,40.53-39.75s40.53,17.82,40.53,39.75v2.14a3.62,3.62,0,0,0,3.63,3.59c16.4.06,33.18.09,50.06.09,18.18,0,36.44,0,54.39-.06,26.17,0,52.48-.07,78.69,0l.46,0,.36-.06c.19,0,.6-.18.6-.18a3.57,3.57,0,0,0,2.27-3.47q0-1,0-2c0-21.92,18.18-39.75,40.53-39.75s40.53,17.82,40.53,39.75c0,1.36-.07,3.66-.18,4.77a3.58,3.58,0,0,0,3.3,3.87h4c9.89,0,20-.32,25.14-4,5.59-4,6.66-13.33,7.51-20.81.27-2.26.51-4.41.84-5.87,1.79-8,4-16.07,6.42-23.89l.22-.69C1191.22,913.23,1193.82,905,1187.76,897.16Z"/><path class="cls-19" d="M1076.59,862a39.76,39.76,0,0,0,2.17-3.87c-6.18-2.83-17.34-8.15-22.37-10.73-13.21-6.79-26.51-14.8-41.49-19.27-12-3.57-15.85-5.26-22.91-6.83-5.06-1.13-6.51-1.37-7.32-1.25-.49.07-.06,1-.2,1.91a.76.76,0,0,0,.44.87C1008,830.43,1023.1,835.17,1076.59,862Z"/><path class="cls-20" d="M1067.57,878.45c-1.22,5.56-5.45,9.24-10.51,9.12l-123.18-2.78c-5.85-.13-10.53-5.65-10.42-12.3l.63-37.54c.12-6.91-49.54-11.26,10.76-13.22,44.74-1.46,99.06,25.08,127.59,43.26A12.61,12.61,0,0,1,1067.57,878.45Z"/><path class="cls-20" d="M928.91,871.46c-.13,7.49,52.76,14.78-14.38,13.28l-70.87-1.6a14.16,14.16,0,0,1-13.08-9,13.07,13.07,0,0,1,2.26-13.18c12.46-14.77,36.58-33.36,80.84-38.06a14.66,14.66,0,0,1,12,4.31,13.34,13.34,0,0,1,3.81,9.56Z"/><path class="cls-21" d="M1086.21,865.5c1.73,3.74,7.2,10.27,9.58,11.83s10.49,3.75,16.68,5.67,40.95,11.3,43.8,13.73"/><path class="cls-21" d="M822.68,868.78c-2.23,3.24-8.54,8.53-11.1,9.62s-10.81,1.9-17.16,2.75-41.74,4.29-44.88,6.13"/><path class="cls-22" d="M926.71,883c-3.8,8-8.22,19.6-6.49,51.93s4.66,36.13,9.66,36.56,118.92-.3,120.66-.37c1.38-2.75,3.8-16.88,4.49-39.7s-.24-40.17-1.62-44.32Z"/><ellipse class="cls-23" cx="1170.52" cy="949" rx="8.05" ry="3.1" transform="translate(115.95 2025.37) rotate(-84.62)"/><path class="cls-24" d="M1169.41,942.32h-.07a14.67,14.67,0,0,0-1.9,6.38,13.85,13.85,0,0,0,.83,7c1.74,0,3.39-2.77,3.73-6.37S1171.19,942.49,1169.41,942.32Z"/><path class="cls-23" d="M1175.71,957c-2.43,1.12-11.36,3.89-13.37,4.66a35.65,35.65,0,0,0-1.69,5.55c2.62-.15,12.19-1.22,16.19-2.61h0C1175.26,962.31,1175.13,959.8,1175.71,957Z"/><path class="cls-25" d="M923.6,868.65c-.1,6.12-5.53,11-12.12,10.84l-59.76-1.35a12,12,0,0,1-11-7.39,10.4,10.4,0,0,1,1.9-10.76c10.5-12.05,30.83-27.22,68.15-31a12.61,12.61,0,0,1,10.13,3.52,10.72,10.72,0,0,1,3.21,7.81Z"/><path class="cls-25" d="M1060,875.39a9.28,9.28,0,0,1-9.3,7.4l-109.11-2.47a9.7,9.7,0,0,1-9.24-10l.51-30.54A10.77,10.77,0,0,1,942.34,829c39.42-3.74,87.77,20.57,113.07,35.41A9.91,9.91,0,0,1,1060,875.39Z"/><path class="cls-26" d="M951.58,904.85c0-3.51,2.31-9.12,11.4-9.12s10.26,6.09,10.17,9.32-1.84,9.63-10.32,8.86S951.58,909.55,951.58,904.85Z"/><path class="cls-27" d="M942.33,904.51c-.13,1.38.77,3.08,4.31,2.77,6.29-.55,24.84.58,28,1.23,3,.62,5.55-4.37,1.69-5.55s-15.4-1.33-21.11-1.39C946,901.5,942.64,901.12,942.33,904.51Z"/><path class="cls-41" d="M750.86,903.55c2,8-.46,16.13-3.68,16.89-1.69.4-4.76-1.13-5.8-4.08-1-2.76-2-6.18-2.91-9.92"/><path class="cls-29" d="M738.48,906.49c-.94-3.75-2.24-8.82-1.94-11.63.35-3.26,2.83-5.34,4.58-5.43,2.75-.13,7.65,5.93,9.73,14.17"/><path class="cls-42" d="M923.76,868.9c-.07,4.42-71.66-20.57-58.51-26.86,10.88-5.21,17-9.54,45.53-13.18A12.37,12.37,0,0,1,921,832.41a10.82,10.82,0,0,1,3.24,7.88Z"/><path class="cls-43" d="M1060,875.39a9.28,9.28,0,0,1-9.3,7.4s-92.92-20.28-114.46-48.48c-1.45-1.9,1.06-4.11,6.14-5.29,39.42-3.74,87.77,20.57,113.07,35.41A9.91,9.91,0,0,1,1060,875.39Z"/><polygon class="cls-20" points="1060.46 883.68 1050.43 885.5 1046.13 857.55 1060.13 866.91 1060.46 883.68"/><path class="cls-18" d="M1028.65,870.55c.72-1.07,5.77-5.33,11.11-5.39s16.62,2.83,21.38,6.37c.54,1.81-1.6,7.07-5.35,11.46-4.69,1.87-20.64.6-26.57-.3C1027.26,881.11,1027.19,874.86,1028.65,870.55Z"/><path class="cls-32" d="M1029.7,877.41a53.25,53.25,0,0,1,.08-6.72c.15-1.08,4-3.92,6.88-5.05a17.81,17.81,0,0,0-8,4.92c-1.46,4.3-1.38,10.55.57,12.13,5.92.91,21.88,2.17,26.57.3a29.59,29.59,0,0,0,2.71-3.74C1049.79,879.35,1031.87,878.41,1029.7,877.41Z"/><circle class="cls-21" cx="821.84" cy="902.38" r="10.64"/><path class="cls-26" d="M811.21,899.7c1.21,0,3.54.11,3.54,2,0,2.17-1.67,2.78-3.34,2.79C810.32,903.89,810.59,900.59,811.21,899.7Z"/><circle class="cls-13" cx="829.91" cy="968.14" r="36.41" transform="translate(-166.1 1764.39) rotate(-88.04)"/><circle class="cls-14" cx="829.91" cy="968.14" r="25.36" transform="translate(-166.1 1764.39) rotate(-88.04)"/><path class="cls-15" d="M835.64,964.77l12.07-6a2.19,2.19,0,0,0,.85-3.19A22.51,22.51,0,0,0,837.43,947a2.2,2.2,0,0,0-2.88,1.62l-2.79,13.18A2.73,2.73,0,0,0,835.64,964.77Zm-7.17-3.11-2-13.33a2.2,2.2,0,0,0-2.77-1.79,22.51,22.51,0,0,0-11.64,7.95,2.19,2.19,0,0,0,.66,3.23l11.68,6.71A2.73,2.73,0,0,0,828.47,961.66Zm-1.22,12.56L821,986.14a2.19,2.19,0,0,0,1.17,3.08,22.49,22.49,0,0,0,14.11.48,2.19,2.19,0,0,0,1.37-3l-5.45-12.32A2.73,2.73,0,0,0,827.25,974.22Zm22.7-7.69-13.4,1.4a2.73,2.73,0,0,0-1.67,4.62l9.41,9.65a2.19,2.19,0,0,0,3.28-.16,22.36,22.36,0,0,0,4.8-13.13v-.17A2.19,2.19,0,0,0,850,966.53Zm-26.65,1L810,965.3a2.18,2.18,0,0,0-2.55,2v0a22.36,22.36,0,0,0,4,13.55,2.19,2.19,0,0,0,3.27.36l10-9A2.73,2.73,0,0,0,823.3,967.52Z"/><circle class="cls-16" cx="829.91" cy="968.14" r="1.82" transform="translate(-166.1 1764.39) rotate(-88.04)"/><circle class="cls-17" cx="829.8" cy="971.43" r="0.85" transform="translate(-169.5 1767.46) rotate(-88.04)"/><circle class="cls-17" cx="833.01" cy="969.26" r="0.85" transform="translate(-361.64 1423.33) rotate(-70.13)"/><circle class="cls-17" cx="831.93" cy="965.53" r="0.85" transform="translate(-440.85 1031.84) rotate(-52.23)"/><circle class="cls-17" cx="828.05" cy="965.42" r="0.85" transform="translate(-400.21 635.15) rotate(-34.33)"/><circle class="cls-17" cx="826.75" cy="969.07" r="0.85" transform="translate(-240.34 273.42) rotate(-16.43)"/><path class="cls-44" d="M1059.44,944.24c-36.88-2.92-165-8.9-198.41-9.31-1.27,0-5.58,1.5-4.63,2.34,9.91,8.88,12.26,18.61,12.76,20.73a54.28,54.28,0,0,1,1.12,12c0,1.13,1.84,2.67,3,2.7,18.91.5,59.41.19,81.54.17,24.48,0,81.58-.11,102.65-.11a3.88,3.88,0,0,0,3.18-3.16l.12-6c.08-4.06,2.25-11.36,5.49-17.13C1066.78,945.42,1065.9,944.75,1059.44,944.24Z"/><path class="cls-34" d="M875.93,972.83c2.16-26.19-20-50.23-44.68-50.23s-45.53,21.72-44.64,48.92c2.29.27,1.71-.75,2.53-2.91-.46-6,1.61-18.51,9.1-26.55,6.74-9.5,21.38-14.52,30.24-14.52,20.26-.64,32.55,11.94,37.9,22.65,4.13,8.27,3.52,19.87,4,20.2a3.82,3.82,0,0,0,1.55,1.92C872.73,973,874.61,972.86,875.93,972.83Z"/><path class="cls-34" d="M1147.52,975.76c2.16-26.19-19.82-52.85-44.5-52.85s-45.73,22.5-44.85,49.7a3.54,3.54,0,0,0,2.43-3.6c-.46-6,1.92-18.61,9.4-26.64,6.74-9.5,21.38-14.52,30.24-14.52,20.26-.64,32.41,12,37.77,22.74,4.13,8.27,3.16,21.72,3.49,22.32a3.55,3.55,0,0,0,1.82,2.42C1144.71,976,1146.21,975.78,1147.52,975.76Z"/><path class="cls-35" d="M1164.81,905.38c2.52,3.37,8.74,7.27,10.63,5.37s-1.09-7.24-3.61-10.61-6.13-4.94-8.07-3.49S1162.3,902,1164.81,905.38Z"/><path class="cls-35" d="M1179.41,909.57c-5-8.81-6.18-12.81-4.51-13.79s10.67,4.58,13.05,14.57c.74,3.09,0,7.31-2.31,6.77S1181,912.43,1179.41,909.57Z"/><path class="cls-36" d="M1162.67,898.52a2.67,2.67,0,0,1,.9-1c2.16-1.35,6,.85,8.49,4.9,2.07,3.32,2.64,6.85,1.6,8.76-2.66-.26-6.88-3.2-8.85-5.84C1163,903,1162.3,900.38,1162.67,898.52Z"/><path class="cls-36" d="M1179.41,909.57c-3.7-6.48-5.29-10.35-5.22-12.34,3.72.8,9.34,6.85,10.71,11.8.93,3.36.26,6-.77,7.28C1182.34,914.84,1180.69,911.81,1179.41,909.57Z"/><path class="cls-20" d="M1078.6,858.06c-.28,1.56-3.39,2.92-1.88,4.08,1.68,1.29,8,3.78,12.18,3.75,2,0,5.24-.75,5.74-1.61C1086.36,861.15,1079.36,858.27,1078.6,858.06Z"/><path class="cls-20" d="M1073.65,860.6l-10.47,8.25a.25.25,0,0,1-.34,0h0a.25.25,0,0,1,0-.34l10.25-8.1Z"/><circle class="cls-23" cx="1081.39" cy="861.32" r="1.62"/><path class="cls-32" d="M1081.39,860.82a1.14,1.14,0,0,0-1.14,1.64c.48.82,2.76,1.94,3.33,1.67S1083,860.83,1081.39,860.82Z"/></g></g></g></svg>