<svg xmlns="http://www.w3.org/2000/svg" xmlns:xlink="http://www.w3.org/1999/xlink" viewBox="0 0 1937.67 970.39"><defs><style>.cls-1{isolation:isolate;}.cls-2{fill:#6d6c6c;}.cls-3{fill:#595b5b;}.cls-22,.cls-34,.cls-4{fill:#fff;}.cls-5{fill:#c4c4c4;}.cls-6{fill:#f4d5c1;}.cls-7{fill:#f0c2a2;}.cls-8{fill:#d9f9f3;}.cls-9{fill:#fafffe;opacity:0.6;}.cls-10,.cls-32{fill:#515759;}.cls-11{fill:#373a35;}.cls-12{fill:#c3c4c7;}.cls-13{fill:#85898c;}.cls-14{fill:#acb1b5;}.cls-15{fill:#8b9298;}.cls-16{fill:#02c0af;}.cls-17,.cls-23{fill:#8dd5ef;}.cls-17{opacity:0.53;}.cls-18{fill:#4f5858;}.cls-19,.cls-20{fill:none;stroke:#4f5858;}.cls-19{stroke-linecap:round;stroke-linejoin:round;stroke-width:0.5px;}.cls-20{stroke-miterlimit:10;stroke-width:0.7px;}.cls-21{fill:#474e4b;}.cls-22{opacity:0.38;mix-blend-mode:soft-light;}.cls-24{fill:#00a68e;}.cls-25{fill:#00b39e;}.cls-26{fill:url(#linear-gradient);}.cls-27{fill:#d92828;}.cls-28{fill:url(#linear-gradient-2);}.cls-29{fill:url(#linear-gradient-3);}.cls-30{fill:#3d4642;}.cls-31,.cls-38,.cls-42{mix-blend-mode:multiply;}.cls-31{fill:url(#linear-gradient-4);}.cls-32{opacity:0.28;}.cls-33{fill:#b4eeff;}.cls-34{opacity:0.5;}.cls-35{fill:url(#linear-gradient-5);}.cls-36{fill:url(#linear-gradient-6);}.cls-37{fill:url(#linear-gradient-7);}.cls-38{fill:url(#linear-gradient-8);}.cls-39{fill:url(#linear-gradient-9);}.cls-40{fill:url(#linear-gradient-10);}.cls-41{fill:url(#linear-gradient-11);}.cls-42{fill:url(#linear-gradient-12);}</style><linearGradient id="linear-gradient" x1="652.4" y1="-52.25" x2="665.12" y2="-52.25" gradientTransform="matrix(0.99, -0.03, -0.03, 0.87, 181.97, 768.99)" gradientUnits="userSpaceOnUse"><stop offset="0.18" stop-color="#83181e"/><stop offset="1" stop-color="#ac1e1d"/></linearGradient><linearGradient id="linear-gradient-2" x1="950.55" y1="643" x2="1008.25" y2="643" gradientUnits="userSpaceOnUse"><stop offset="0.24" stop-color="#fff" stop-opacity="0.3"/><stop offset="1" stop-color="#8dd5ef" stop-opacity="0.4"/></linearGradient><linearGradient id="linear-gradient-3" x1="1019.24" y1="649.31" x2="1137.74" y2="649.31" gradientUnits="userSpaceOnUse"><stop offset="0.22" stop-color="#fff" stop-opacity="0.3"/><stop offset="1" stop-color="#8dd5ef" stop-opacity="0.4"/></linearGradient><linearGradient id="linear-gradient-4" x1="1041.82" y1="705.18" x2="1045.41" y2="759.13" gradientUnits="userSpaceOnUse"><stop offset="0" stop-color="#c3c4c7"/><stop offset="1" stop-color="#02c0af" stop-opacity="0"/></linearGradient><linearGradient id="linear-gradient-5" x1="181.39" y1="-69.24" x2="194.11" y2="-69.24" xlink:href="#linear-gradient"/><linearGradient id="linear-gradient-6" x1="483.56" y1="643" x2="541.26" y2="643" xlink:href="#linear-gradient-2"/><linearGradient id="linear-gradient-7" x1="552.25" y1="649.31" x2="670.75" y2="649.31" xlink:href="#linear-gradient-3"/><linearGradient id="linear-gradient-8" x1="574.83" y1="705.18" x2="578.43" y2="759.13" xlink:href="#linear-gradient-4"/><linearGradient id="linear-gradient-9" x1="565.15" y1="23.02" x2="578.51" y2="23.02" xlink:href="#linear-gradient"/><linearGradient id="linear-gradient-10" x1="867.6" y1="708.01" x2="928.2" y2="708.01" xlink:href="#linear-gradient-2"/><linearGradient id="linear-gradient-11" x1="939.75" y1="714.64" x2="1064.21" y2="714.64" xlink:href="#linear-gradient-3"/><linearGradient id="linear-gradient-12" x1="963.46" y1="773.32" x2="967.24" y2="829.98" xlink:href="#linear-gradient-4"/></defs><title>Asset 54parking-zgrada</title><g class="cls-1"><g id="Layer_2" data-name="Layer 2"><g id="Parking"><polygon class="cls-2" points="1937.67 702 1426.81 709.72 1161.83 970 1929.48 970.39 1937.67 702"/><polygon class="cls-3" points="0 970 1161.83 970 1425.17 710 266.86 710.73 0 970"/><polygon class="cls-4" points="864.17 727.53 678.74 912.05 673.04 906.37 858.47 721.85 864.17 727.53"/><polygon class="cls-5" points="1426.81 709.72 1165.22 970.39 1154.03 970.21 1415.41 709.74 1426.81 709.72"/><rect class="cls-4" x="346.78" y="799.13" width="914.88" height="10.13" transform="translate(1608.45 1608.39) rotate(-180)"/><rect class="cls-4" x="273.67" y="867.15" width="908.48" height="9.89" transform="translate(1455.82 1744.18) rotate(-180)"/><polygon class="cls-6" points="1931.67 84.18 1669.44 84.18 1687.72 0 1910.56 0 1931.67 84.18"/><rect class="cls-7" x="1669.44" y="84.18" width="262.23" height="740.82"/><rect class="cls-5" x="1720.36" y="565.71" width="74.92" height="111.96"/><rect class="cls-8" x="1724.57" y="570.34" width="67.35" height="103.55"/><polygon class="cls-9" points="1791.08 673.05 1723.73 569.5 1791.08 569.5 1791.08 673.05"/><rect class="cls-5" x="1825.59" y="565.71" width="74.92" height="111.96"/><rect class="cls-8" x="1829.8" y="570.34" width="67.35" height="103.55"/><polygon class="cls-9" points="1896.31 673.47 1828.96 569.92 1896.31 569.92 1896.31 673.47"/><rect class="cls-5" x="1720.36" y="390.61" width="74.92" height="111.96"/><rect class="cls-8" x="1724.57" y="394.4" width="67.35" height="103.55"/><polygon class="cls-9" points="1791.08 497.94 1723.73 394.4 1791.08 394.4 1791.08 497.94"/><rect class="cls-5" x="1825.59" y="390.61" width="74.92" height="111.96"/><rect class="cls-8" x="1829.8" y="394.4" width="67.35" height="103.55"/><polygon class="cls-9" points="1896.31 498.37 1828.96 394.82 1896.31 394.82 1896.31 498.37"/><rect class="cls-5" x="1720.36" y="213.82" width="74.92" height="111.96"/><rect class="cls-8" x="1724.57" y="218.45" width="67.35" height="103.55"/><polygon class="cls-9" points="1791.08 322 1723.73 218.45 1791.08 218.45 1791.08 322"/><rect class="cls-5" x="1826.44" y="213.82" width="74.92" height="111.96"/><rect class="cls-8" x="1829.8" y="218.45" width="67.35" height="103.55"/><polygon class="cls-9" points="1896.31 322.42 1828.96 218.88 1896.31 218.88 1896.31 322.42"/></g><g id="Auto"><path class="cls-10" d="M877.76,759.37c12.47-8.1,48.5-16.62,81,1,.52.28,1.07-.65,1.53-1,2.63-2.14,10.94-10.35,7.88-26.59-3.62-19.2-20.51-34.82-49.87-32.24-28.93,2.54-53.48,25.13-42.56,57.66C876,759.05,877,759.85,877.76,759.37Z"/><path class="cls-10" d="M1135.71,760.55c13.75-9.24,50.4-17.44,81.41,2.75.56.21.37.08.85-.26,2.79-1.92,11.73-9.44,10-25.88-2.08-19.42-17.69-36.34-47.16-36.1-29,.24-55.3,20.81-47,54.1C1134,756,1135,761,1135.71,760.55Z"/><circle class="cls-11" cx="1176.76" cy="756.34" r="34.66" transform="translate(380.53 1906.49) rotate(-88.04)"/><circle class="cls-12" cx="1176.76" cy="756.34" r="24.15" transform="translate(380.53 1906.49) rotate(-88.04)"/><path class="cls-13" d="M1182.2,753.14l11.49-5.69a2.09,2.09,0,0,0,.81-3,21.43,21.43,0,0,0-10.6-8.23,2.09,2.09,0,0,0-2.74,1.54l-2.66,12.55A2.6,2.6,0,0,0,1182.2,753.14Zm-6.82-3-1.88-12.69a2.09,2.09,0,0,0-2.64-1.71,21.44,21.44,0,0,0-11.08,7.56,2.09,2.09,0,0,0,.62,3.08l11.12,6.39A2.6,2.6,0,0,0,1175.38,750.17Zm-1.16,12-6,11.35a2.09,2.09,0,0,0,1.11,2.93,21.41,21.41,0,0,0,13.43.46,2.09,2.09,0,0,0,1.31-2.85l-5.19-11.73A2.6,2.6,0,0,0,1174.22,762.13Zm21.62-7.32-12.76,1.33a2.6,2.6,0,0,0-1.59,4.4l9,9.18a2.08,2.08,0,0,0,3.12-.15,21.29,21.29,0,0,0,4.57-12.5v-.16A2.08,2.08,0,0,0,1195.83,754.81Zm-25.37.94-12.66-2.11a2.08,2.08,0,0,0-2.43,1.95v0a21.29,21.29,0,0,0,3.79,12.9,2.09,2.09,0,0,0,3.11.34l9.5-8.61A2.6,2.6,0,0,0,1170.46,755.75Z"/><circle class="cls-14" cx="1176.76" cy="756.34" r="1.74" transform="translate(380.53 1906.49) rotate(-88.04)"/><circle class="cls-15" cx="1176.65" cy="759.48" r="0.81" transform="translate(377.3 1909.41) rotate(-88.04)"/><circle class="cls-15" cx="1179.71" cy="757.41" r="0.81" transform="translate(66.48 1609.53) rotate(-70.13)"/><circle class="cls-15" cx="1178.68" cy="753.86" r="0.81" transform="translate(-139.14 1223.91) rotate(-52.23)"/><circle class="cls-15" cx="1174.99" cy="753.75" r="0.81" transform="translate(-220.41 793.93) rotate(-34.33)"/><circle class="cls-15" cx="1173.75" cy="757.23" r="0.81" transform="translate(-166.25 362.92) rotate(-16.43)"/><path class="cls-16" d="M1259.14,688.76h0c-9.6-12.37-26.93-15.8-42.22-18.81-4-.79-7.83-1.55-11.29-2.43-19.11-4.84-39.29-10.29-57.39-19.12-5.23-2.55-10.51-5.3-15.61-7.95-12.31-6.4-25-13-38.62-17.71a204.27,204.27,0,0,0-107.7-6.43c-19.37,4.11-38,11.08-55.91,17.82-13.68,5.13-27.84,10.43-42.12,14.39-4.34,1.2-8.94,2.18-13.38,3.12-7.95,1.7-16.17,3.46-23.82,6.58-9.73,4-16.65,10.37-19.11,17.6l0,.1-.09.2c-.06.2-.07.28-.1.38h0c-1.73,5.77-.73,11.63.38,16.68s2.52,10.15,4.12,15.16l0,.14A167.21,167.21,0,0,0,843,726c6.75,15,20.65,27,31.37,33.27a3.49,3.49,0,0,0,4.75-1.19,3.31,3.31,0,0,0,.44-2.2,2.68,2.68,0,0,0,0-.47c0-20.87,17.32-37.84,38.59-37.84s38.59,17,38.59,37.84v2a3.45,3.45,0,0,0,3.46,3.42c15.61.06,31.6.08,47.66.08,17.31,0,34.7,0,51.79-.06,24.91,0,50-.07,74.92,0l.44,0,.34-.06c.18,0,.57-.17.57-.17a3.4,3.4,0,0,0,2.16-3.3q0-.94,0-1.88c0-20.87,17.3-37.84,38.59-37.84s38.59,17,38.59,37.84c0,1.3-.07,3.49-.17,4.55a3.41,3.41,0,0,0,3.14,3.68H1222c9.41,0,19-.31,23.93-3.85,5.32-3.83,6.34-12.69,7.15-19.81.26-2.15.48-4.2.8-5.59,1.71-7.64,3.77-15.3,6.11-22.74l.21-.66C1262.44,704.06,1264.92,696.24,1259.14,688.76Z"/><path class="cls-17" d="M1153.29,655.28a37.86,37.86,0,0,0,2.07-3.68c-5.89-2.7-16.51-7.76-21.3-10.22-12.57-6.47-25.24-14.09-39.51-18.35-11.39-3.4-15.09-5-21.81-6.51-4.82-1.08-6.2-1.3-7-1.19-.47.07-.05,1-.19,1.82a.73.73,0,0,0,.42.83C1088,625.23,1102.37,629.74,1153.29,655.28Z"/><path class="cls-18" d="M1144.71,670.95c-1.17,5.3-5.19,8.79-10,8.68L1017.42,677c-5.57-.13-10-5.38-9.92-11.71l.6-35.74c.11-6.58-47.17-10.72,10.25-12.59,42.6-1.39,94.32,23.88,121.48,41.19A12,12,0,0,1,1144.71,670.95Z"/><path class="cls-18" d="M1012.7,664.3c-.12,7.13,50.24,14.07-13.69,12.64l-67.48-1.52a13.48,13.48,0,0,1-12.46-8.6,12.44,12.44,0,0,1,2.15-12.55c11.86-14.06,34.83-31.77,77-36.24a14,14,0,0,1,11.43,4.1,12.7,12.7,0,0,1,3.63,9.1Z"/><path class="cls-19" d="M1162.46,658.62c1.65,3.56,6.85,9.78,9.13,11.26s10,3.57,15.88,5.4,39,10.76,41.7,13.07"/><path class="cls-19" d="M911.55,661.74c-2.13,3.08-8.13,8.12-10.57,9.16s-10.29,1.81-16.34,2.62-39.74,4.09-42.73,5.84"/><path class="cls-20" d="M1010.6,675.29c-3.61,7.64-7.82,18.66-6.18,49.44s4.44,34.4,9.2,34.8,113.23-.29,114.88-.35c1.31-2.62,3.61-16.07,4.27-37.8s-.23-38.25-1.54-42.2Z"/><ellipse class="cls-21" cx="1242.73" cy="738.12" rx="7.66" ry="2.95" transform="translate(391.33 1906.16) rotate(-84.62)"/><path class="cls-22" d="M1241.67,731.76h-.07a14,14,0,0,0-1.81,6.08,13.19,13.19,0,0,0,.79,6.63c1.65,0,3.23-2.63,3.55-6.06S1243.36,731.92,1241.67,731.76Z"/><path class="cls-21" d="M1247.67,745.75c-2.31,1.06-10.82,3.7-12.73,4.44a33.94,33.94,0,0,0-1.61,5.28c2.49-.15,11.6-1.16,15.41-2.49h0C1247.24,750.79,1247.12,748.41,1247.67,745.75Z"/><path class="cls-23" d="M1007.64,661.62c-.1,5.82-5.27,10.46-11.54,10.32l-56.9-1.28a11.38,11.38,0,0,1-10.51-7,9.9,9.9,0,0,1,1.81-10.24c10-11.47,29.35-25.92,64.88-29.54a12,12,0,0,1,9.64,3.35,10.21,10.21,0,0,1,3.06,7.43Z"/><path class="cls-23" d="M1137.46,668a8.84,8.84,0,0,1-8.85,7l-103.88-2.35a9.23,9.23,0,0,1-8.8-9.54l.49-29.08a10.25,10.25,0,0,1,9.06-10.23c37.54-3.56,83.57,19.58,107.65,33.71A9.43,9.43,0,0,1,1137.46,668Z"/><path class="cls-24" d="M1034.28,696.09c0-3.34,2.2-8.68,10.85-8.68s9.77,5.8,9.68,8.87-1.76,9.17-9.83,8.44S1034.28,700.56,1034.28,696.09Z"/><path class="cls-25" d="M1025.47,695.77c-.12,1.31.73,2.93,4.11,2.64,6-.52,23.65.55,26.7,1.17,2.86.59,5.28-4.16,1.61-5.28s-14.67-1.27-20.1-1.32C1029,692.9,1025.77,692.54,1025.47,695.77Z"/><path class="cls-26" d="M843.17,694.85c1.93,7.64-.44,15.35-3.5,16.08-1.61.38-4.53-1.08-5.52-3.88-.93-2.63-1.91-5.89-2.77-9.44"/><path class="cls-27" d="M831.39,697.65c-.89-3.57-2.13-8.4-1.84-11.07.34-3.1,2.7-5.09,4.36-5.17,2.61-.12,7.28,5.65,9.26,13.5"/><path class="cls-28" d="M1007.79,661.86c-.07,4.21-68.23-19.58-55.71-25.58,10.36-5,16.18-9.09,43.35-12.55a11.78,11.78,0,0,1,9.73,3.38,10.3,10.3,0,0,1,3.09,7.5Z"/><path class="cls-29" d="M1137.46,668a8.84,8.84,0,0,1-8.85,7s-88.46-19.31-109-46.16c-1.38-1.81,1-3.91,5.85-5,37.54-3.56,83.57,19.58,107.65,33.71A9.43,9.43,0,0,1,1137.46,668Z"/><polygon class="cls-18" points="1137.94 675.93 1128.39 677.66 1124.3 651.05 1137.62 659.96 1137.94 675.93"/><path class="cls-16" d="M1107.65,663.43c.68-1,5.49-5.08,10.58-5.13s15.82,2.69,20.36,6.06c.52,1.72-1.53,6.73-5.1,10.91-4.47,1.78-19.66.57-25.3-.29C1106.34,673.48,1106.26,667.53,1107.65,663.43Z"/><path class="cls-30" d="M1108.66,670a50.7,50.7,0,0,1,.07-6.4c.15-1,3.81-3.73,6.55-4.81a17,17,0,0,0-7.62,4.68c-1.39,4.1-1.32,10,.54,11.55,5.64.86,20.83,2.07,25.3.29a28.17,28.17,0,0,0,2.58-3.57C1127.79,671.81,1110.72,670.91,1108.66,670Z"/><circle class="cls-19" cx="910.76" cy="693.74" r="10.13"/><path class="cls-24" d="M900.63,691.18c1.15,0,3.37.11,3.37,1.89,0,2.07-1.59,2.65-3.18,2.65C899.79,695.17,900,692,900.63,691.18Z"/><circle class="cls-11" cx="918.44" cy="756.34" r="34.66" transform="translate(131.07 1648.33) rotate(-88.04)"/><circle class="cls-12" cx="918.44" cy="756.34" r="24.15" transform="translate(131.07 1648.33) rotate(-88.04)"/><path class="cls-13" d="M923.89,753.14l11.49-5.69a2.09,2.09,0,0,0,.81-3,21.43,21.43,0,0,0-10.6-8.23,2.09,2.09,0,0,0-2.74,1.54l-2.66,12.55A2.6,2.6,0,0,0,923.89,753.14Zm-6.82-3-1.88-12.69a2.09,2.09,0,0,0-2.64-1.71,21.44,21.44,0,0,0-11.08,7.56,2.09,2.09,0,0,0,.62,3.08l11.12,6.39A2.6,2.6,0,0,0,917.06,750.17Zm-1.16,12-6,11.35a2.09,2.09,0,0,0,1.11,2.93,21.41,21.41,0,0,0,13.43.46,2.09,2.09,0,0,0,1.31-2.85l-5.19-11.73A2.6,2.6,0,0,0,915.9,762.13Zm21.62-7.32-12.76,1.33a2.6,2.6,0,0,0-1.59,4.4l9,9.18a2.08,2.08,0,0,0,3.12-.15,21.29,21.29,0,0,0,4.57-12.5v-.16A2.08,2.08,0,0,0,937.52,754.81Zm-25.37.94-12.66-2.11a2.08,2.08,0,0,0-2.43,1.95v0a21.29,21.29,0,0,0,3.79,12.9,2.09,2.09,0,0,0,3.11.34l9.5-8.61A2.6,2.6,0,0,0,912.15,755.75Z"/><circle class="cls-14" cx="918.44" cy="756.34" r="1.74" transform="translate(131.07 1648.33) rotate(-88.04)"/><circle class="cls-15" cx="918.33" cy="759.48" r="0.81" transform="translate(127.83 1651.25) rotate(-88.04)"/><circle class="cls-15" cx="921.39" cy="757.41" r="0.81" transform="translate(-104.05 1366.59) rotate(-70.13)"/><circle class="cls-15" cx="920.36" cy="753.86" r="0.81" transform="translate(-239.25 1019.71) rotate(-52.23)"/><circle class="cls-15" cx="916.67" cy="753.75" r="0.81" transform="translate(-265.4 648.25) rotate(-34.33)"/><circle class="cls-15" cx="915.43" cy="757.23" r="0.81" transform="translate(-176.8 289.85) rotate(-16.43)"/><path class="cls-31" d="M1137,733.59c-35.11-2.78-157.12-8.48-188.91-8.86-1.21,0-5.31,1.42-4.41,2.23,9.43,8.46,11.67,17.72,12.15,19.73a51.68,51.68,0,0,1,1.06,11.4c0,1.07,1.75,2.54,2.82,2.57,18,.48,56.57.18,77.63.16,23.31,0,77.67-.1,97.73-.1a3.7,3.7,0,0,0,3-3l.11-5.71c.08-3.87,2.14-10.81,5.22-16.31C1144,734.71,1143.12,734.08,1137,733.59Z"/><path class="cls-32" d="M962.25,760.81c2.05-24.94-19-47.82-42.54-47.82s-43.35,20.68-42.5,46.57c2.18.25,1.63-.71,2.41-2.77-.44-5.72,1.53-17.62,8.66-25.28,6.42-9,20.35-13.83,28.79-13.83,19.29-.61,31,11.37,36.09,21.56,3.94,7.87,3.36,18.92,3.78,19.23a3.63,3.63,0,0,0,1.47,1.83C959.2,761,961,760.83,962.25,760.81Z"/><path class="cls-32" d="M1220.84,763.6c2.05-24.94-18.87-50.32-42.37-50.32s-43.54,21.43-42.7,47.32a3.37,3.37,0,0,0,2.32-3.43c-.44-5.72,1.82-17.71,9-25.37,6.42-9,20.35-13.83,28.79-13.83,19.29-.61,30.86,11.46,36,21.65,3.94,7.87,3,20.68,3.33,21.25a3.38,3.38,0,0,0,1.74,2.3A8,8,0,0,0,1220.84,763.6Z"/><path class="cls-33" d="M1237.3,696.59c2.4,3.21,8.32,6.92,10.12,5.11s-1-6.89-3.43-10.1-5.84-4.7-7.68-3.32S1234.9,693.37,1237.3,696.59Z"/><path class="cls-33" d="M1251.19,700.58c-4.78-8.39-5.89-12.19-4.3-13.13s10.16,4.36,12.43,13.87c.7,2.94,0,7-2.2,6.45S1252.74,703.3,1251.19,700.58Z"/><path class="cls-34" d="M1235.26,690.06a2.55,2.55,0,0,1,.86-.93c2.06-1.28,5.68.81,8.08,4.67,2,3.16,2.51,6.52,1.52,8.34-2.53-.24-6.55-3-8.43-5.56C1235.61,694.33,1234.9,691.83,1235.26,690.06Z"/><path class="cls-34" d="M1251.19,700.58c-3.52-6.17-5-9.85-5-11.74,3.54.76,8.9,6.52,10.2,11.23.89,3.2.25,5.72-.73,6.93C1254,705.6,1252.41,702.71,1251.19,700.58Z"/><path class="cls-18" d="M1155.21,651.54c-.27,1.49-3.23,2.78-1.79,3.88A25.85,25.85,0,0,0,1165,659c1.88,0,5-.71,5.46-1.54C1162.6,654.48,1155.93,651.73,1155.21,651.54Z"/><path class="cls-18" d="M1150.5,654l-10,7.85a.23.23,0,0,1-.33,0h0a.23.23,0,0,1,0-.33l9.76-7.72Z"/><circle class="cls-21" cx="1157.86" cy="654.64" r="1.54"/><path class="cls-30" d="M1157.86,654.17a1.09,1.09,0,0,0-1.08,1.56c.46.78,2.62,1.85,3.17,1.59S1159.45,654.18,1157.86,654.17Z"/><path class="cls-10" d="M410.77,759.37c12.47-8.1,48.5-16.62,81,1,.52.28,1.07-.65,1.53-1,2.63-2.14,10.94-10.35,7.88-26.59-3.62-19.2-20.51-34.82-49.87-32.24-28.93,2.54-53.48,25.13-42.56,57.66C409,759.05,410,759.85,410.77,759.37Z"/><path class="cls-10" d="M668.72,760.55c13.75-9.24,50.4-17.44,81.41,2.75.56.21.37.08.85-.26,2.79-1.92,11.73-9.44,10-25.88-2.08-19.42-17.69-36.34-47.16-36.1-29,.24-55.3,20.81-47,54.1C667,756,668,761,668.72,760.55Z"/><circle class="cls-11" cx="709.77" cy="756.34" r="34.66" transform="translate(-70.45 1439.78) rotate(-88.04)"/><circle class="cls-12" cx="709.77" cy="756.34" r="24.15" transform="translate(-70.45 1439.78) rotate(-88.04)"/><path class="cls-13" d="M715.22,753.14l11.49-5.69a2.09,2.09,0,0,0,.81-3,21.43,21.43,0,0,0-10.6-8.23,2.09,2.09,0,0,0-2.74,1.54l-2.66,12.55A2.6,2.6,0,0,0,715.22,753.14Zm-6.82-3-1.88-12.69a2.09,2.09,0,0,0-2.64-1.71,21.44,21.44,0,0,0-11.08,7.56,2.09,2.09,0,0,0,.62,3.08l11.12,6.39A2.6,2.6,0,0,0,708.39,750.17Zm-1.16,12-6,11.35a2.09,2.09,0,0,0,1.11,2.93,21.41,21.41,0,0,0,13.43.46A2.09,2.09,0,0,0,717.1,774l-5.19-11.73A2.6,2.6,0,0,0,707.23,762.13Zm21.62-7.32-12.76,1.33a2.6,2.6,0,0,0-1.59,4.4l9,9.18a2.08,2.08,0,0,0,3.12-.15,21.29,21.29,0,0,0,4.57-12.5v-.16A2.08,2.08,0,0,0,728.85,754.81Zm-25.37.94-12.66-2.11a2.08,2.08,0,0,0-2.43,1.95v0a21.29,21.29,0,0,0,3.79,12.9,2.09,2.09,0,0,0,3.11.34l9.5-8.61A2.6,2.6,0,0,0,703.47,755.75Z"/><circle class="cls-14" cx="709.77" cy="756.34" r="1.74" transform="translate(-70.45 1439.78) rotate(-88.04)"/><circle class="cls-15" cx="709.66" cy="759.48" r="0.81" transform="translate(-73.69 1442.7) rotate(-88.04)"/><circle class="cls-15" cx="712.72" cy="757.41" r="0.81" transform="translate(-241.81 1170.33) rotate(-70.13)"/><circle class="cls-15" cx="711.69" cy="753.86" r="0.81" transform="translate(-320.12 854.75) rotate(-52.23)"/><circle class="cls-15" cx="708" cy="753.75" r="0.81" transform="translate(-301.75 530.57) rotate(-34.33)"/><circle class="cls-15" cx="706.76" cy="757.23" r="0.81" transform="matrix(0.96, -0.28, 0.28, 0.96, -185.32, 230.83)"/><path class="cls-16" d="M792.15,688.76h0c-9.6-12.37-26.93-15.8-42.22-18.81-4-.79-7.83-1.55-11.29-2.43-19.11-4.84-39.29-10.29-57.39-19.12-5.23-2.55-10.51-5.3-15.61-7.95-12.31-6.4-25-13-38.62-17.71a204.27,204.27,0,0,0-107.7-6.43c-19.37,4.11-38,11.08-55.91,17.82-13.68,5.13-27.84,10.43-42.12,14.39-4.34,1.2-8.94,2.18-13.38,3.12-7.95,1.7-16.17,3.46-23.82,6.58-9.73,4-16.65,10.37-19.11,17.6l0,.1-.09.2c-.06.2-.07.28-.1.38h0c-1.73,5.77-.73,11.63.38,16.68s2.52,10.15,4.12,15.16l0,.14A167.21,167.21,0,0,0,376,726c6.75,15,20.65,27,31.37,33.27A3.49,3.49,0,0,0,412.1,758a3.31,3.31,0,0,0,.44-2.2,2.68,2.68,0,0,0,0-.47c0-20.87,17.32-37.84,38.59-37.84s38.59,17,38.59,37.84v2a3.45,3.45,0,0,0,3.46,3.42c15.61.06,31.6.08,47.66.08,17.31,0,34.7,0,51.79-.06,24.91,0,50-.07,74.92,0l.44,0,.34-.06c.18,0,.57-.17.57-.17a3.4,3.4,0,0,0,2.16-3.3q0-.94,0-1.88c0-20.87,17.3-37.84,38.59-37.84s38.59,17,38.59,37.84c0,1.3-.07,3.49-.17,4.55a3.41,3.41,0,0,0,3.14,3.68h3.84c9.41,0,19-.31,23.93-3.85,5.32-3.83,6.34-12.69,7.15-19.81.26-2.15.48-4.2.8-5.59,1.71-7.64,3.77-15.3,6.11-22.74l.21-.66C795.45,704.06,797.93,696.24,792.15,688.76Z"/><path class="cls-17" d="M686.31,655.28a37.86,37.86,0,0,0,2.07-3.68c-5.89-2.7-16.51-7.76-21.3-10.22-12.57-6.47-25.24-14.09-39.51-18.35-11.39-3.4-15.09-5-21.81-6.51-4.82-1.08-6.2-1.3-7-1.19-.47.07-.05,1-.19,1.82a.73.73,0,0,0,.42.83C621,625.23,635.39,629.74,686.31,655.28Z"/><path class="cls-18" d="M677.72,670.95c-1.17,5.3-5.19,8.79-10,8.68L550.43,677c-5.57-.13-10-5.38-9.92-11.71l.6-35.74c.11-6.58-47.17-10.72,10.25-12.59,42.6-1.39,94.32,23.88,121.48,41.19A12,12,0,0,1,677.72,670.95Z"/><path class="cls-18" d="M545.71,664.3c-.12,7.13,50.24,14.07-13.69,12.64l-67.48-1.52a13.48,13.48,0,0,1-12.46-8.6,12.44,12.44,0,0,1,2.15-12.55c11.86-14.06,34.83-31.77,77-36.24a14,14,0,0,1,11.43,4.1,12.7,12.7,0,0,1,3.63,9.1Z"/><path class="cls-19" d="M695.47,658.62c1.65,3.56,6.85,9.78,9.13,11.26s10,3.57,15.88,5.4,39,10.76,41.7,13.07"/><path class="cls-19" d="M444.56,661.74c-2.13,3.08-8.13,8.12-10.57,9.16s-10.29,1.81-16.34,2.62-39.74,4.09-42.73,5.84"/><path class="cls-20" d="M543.62,675.29c-3.61,7.64-7.82,18.66-6.18,49.44s4.44,34.4,9.2,34.8,113.23-.29,114.88-.35c1.31-2.62,3.61-16.07,4.27-37.8s-.23-38.25-1.54-42.2Z"/><ellipse class="cls-21" cx="775.74" cy="738.12" rx="7.66" ry="2.95" transform="translate(-31.86 1441.23) rotate(-84.62)"/><path class="cls-22" d="M774.68,731.76h-.07a14,14,0,0,0-1.81,6.08,13.19,13.19,0,0,0,.79,6.63c1.65,0,3.23-2.63,3.55-6.06S776.37,731.92,774.68,731.76Z"/><path class="cls-21" d="M780.68,745.75c-2.31,1.06-10.82,3.7-12.73,4.44a33.94,33.94,0,0,0-1.61,5.28c2.49-.15,11.6-1.16,15.41-2.49h0C780.25,750.79,780.14,748.41,780.68,745.75Z"/><path class="cls-23" d="M540.65,661.62c-.1,5.82-5.27,10.46-11.54,10.32l-56.9-1.28a11.38,11.38,0,0,1-10.51-7,9.9,9.9,0,0,1,1.81-10.24c10-11.47,29.35-25.92,64.88-29.54a12,12,0,0,1,9.64,3.35,10.21,10.21,0,0,1,3.06,7.43Z"/><path class="cls-23" d="M670.47,668a8.84,8.84,0,0,1-8.85,7l-103.88-2.35a9.23,9.23,0,0,1-8.8-9.54l.49-29.08a10.25,10.25,0,0,1,9.06-10.23c37.54-3.56,83.57,19.58,107.65,33.71A9.43,9.43,0,0,1,670.47,668Z"/><path class="cls-24" d="M567.29,696.09c0-3.34,2.2-8.68,10.85-8.68s9.77,5.8,9.68,8.87-1.76,9.17-9.83,8.44S567.29,700.56,567.29,696.09Z"/><path class="cls-25" d="M558.49,695.77c-.12,1.31.73,2.93,4.11,2.64,6-.52,23.65.55,26.7,1.17,2.86.59,5.28-4.16,1.61-5.28S576.24,693,570.81,693C562,692.9,558.78,692.54,558.49,695.77Z"/><path class="cls-35" d="M376.18,694.85c1.93,7.64-.44,15.35-3.5,16.08-1.61.38-4.53-1.08-5.52-3.88-.93-2.63-1.91-5.89-2.77-9.44"/><path class="cls-27" d="M364.4,697.65c-.89-3.57-2.13-8.4-1.84-11.07.34-3.1,2.7-5.09,4.36-5.17,2.61-.12,7.28,5.65,9.26,13.5"/><path class="cls-36" d="M540.8,661.86c-.07,4.21-68.23-19.58-55.71-25.58,10.36-5,16.18-9.09,43.35-12.55a11.78,11.78,0,0,1,9.73,3.38,10.3,10.3,0,0,1,3.09,7.5Z"/><path class="cls-37" d="M670.47,668a8.84,8.84,0,0,1-8.85,7s-88.46-19.31-109-46.16c-1.38-1.81,1-3.91,5.85-5,37.54-3.56,83.57,19.58,107.65,33.71A9.43,9.43,0,0,1,670.47,668Z"/><polygon class="cls-18" points="670.96 675.93 661.41 677.66 657.32 651.05 670.64 659.96 670.96 675.93"/><path class="cls-16" d="M640.67,663.43c.68-1,5.49-5.08,10.58-5.13s15.82,2.69,20.36,6.06c.52,1.72-1.53,6.73-5.1,10.91-4.47,1.78-19.66.57-25.3-.29C639.35,673.48,639.27,667.53,640.67,663.43Z"/><path class="cls-30" d="M641.67,670a50.7,50.7,0,0,1,.07-6.4c.15-1,3.81-3.73,6.55-4.81a17,17,0,0,0-7.62,4.68c-1.39,4.1-1.32,10,.54,11.55,5.64.86,20.83,2.07,25.3.29a28.17,28.17,0,0,0,2.58-3.57C660.8,671.81,643.73,670.91,641.67,670Z"/><circle class="cls-19" cx="443.77" cy="693.74" r="10.13"/><path class="cls-24" d="M433.64,691.18c1.15,0,3.37.11,3.37,1.89,0,2.07-1.59,2.65-3.18,2.65C432.8,695.17,433.05,692,433.64,691.18Z"/><circle class="cls-11" cx="451.45" cy="756.34" r="34.66" transform="translate(-319.92 1181.61) rotate(-88.04)"/><circle class="cls-12" cx="451.45" cy="756.34" r="24.15" transform="translate(-319.92 1181.61) rotate(-88.04)"/><path class="cls-13" d="M456.9,753.14l11.49-5.69a2.09,2.09,0,0,0,.81-3,21.43,21.43,0,0,0-10.6-8.23,2.09,2.09,0,0,0-2.74,1.54l-2.66,12.55A2.6,2.6,0,0,0,456.9,753.14Zm-6.82-3-1.88-12.69a2.09,2.09,0,0,0-2.64-1.71,21.44,21.44,0,0,0-11.08,7.56,2.09,2.09,0,0,0,.62,3.08l11.12,6.39A2.6,2.6,0,0,0,450.08,750.17Zm-1.16,12-6,11.35a2.09,2.09,0,0,0,1.11,2.93,21.41,21.41,0,0,0,13.43.46,2.09,2.09,0,0,0,1.31-2.85l-5.19-11.73A2.6,2.6,0,0,0,448.91,762.13Zm21.62-7.32-12.76,1.33a2.6,2.6,0,0,0-1.59,4.4l9,9.18a2.08,2.08,0,0,0,3.12-.15,21.29,21.29,0,0,0,4.57-12.5v-.16A2.08,2.08,0,0,0,470.53,754.81Zm-25.37.94-12.66-2.11a2.08,2.08,0,0,0-2.43,1.95v0a21.29,21.29,0,0,0,3.79,12.9,2.09,2.09,0,0,0,3.11.34l9.5-8.61A2.6,2.6,0,0,0,445.16,755.75Z"/><circle class="cls-14" cx="451.45" cy="756.34" r="1.74" transform="translate(-319.92 1181.61) rotate(-88.04)"/><circle class="cls-15" cx="451.35" cy="759.48" r="0.81" transform="translate(-323.15 1184.53) rotate(-88.04)"/><circle class="cls-15" cx="454.4" cy="757.41" r="0.81" transform="translate(-412.35 927.39) rotate(-70.13)"/><circle class="cls-15" cx="453.37" cy="753.86" r="0.81" transform="translate(-420.23 650.55) rotate(-52.23)"/><circle class="cls-15" cx="449.68" cy="753.75" r="0.81" transform="translate(-346.75 384.89) rotate(-34.33)"/><circle class="cls-15" cx="448.44" cy="757.23" r="0.81" transform="translate(-195.87 157.76) rotate(-16.43)"/><path class="cls-38" d="M670,733.59c-35.11-2.78-157.12-8.48-188.91-8.86-1.21,0-5.31,1.42-4.41,2.23,9.43,8.46,11.67,17.72,12.15,19.73a51.68,51.68,0,0,1,1.06,11.4c0,1.07,1.75,2.54,2.82,2.57,18,.48,56.57.18,77.63.16,23.31,0,77.67-.1,97.73-.1a3.7,3.7,0,0,0,3-3l.11-5.71c.08-3.87,2.14-10.81,5.22-16.31C677,734.71,676.13,734.08,670,733.59Z"/><path class="cls-32" d="M495.26,760.81c2.05-24.94-19-47.82-42.54-47.82s-43.35,20.68-42.5,46.57c2.18.25,1.63-.71,2.41-2.77-.44-5.72,1.53-17.62,8.66-25.28,6.42-9,20.35-13.83,28.79-13.83,19.29-.61,31,11.37,36.09,21.56,3.94,7.87,3.36,18.92,3.78,19.23a3.63,3.63,0,0,0,1.47,1.83C492.22,761,494,760.83,495.26,760.81Z"/><path class="cls-32" d="M753.85,763.6c2.05-24.94-18.87-50.32-42.37-50.32s-43.54,21.43-42.7,47.32a3.37,3.37,0,0,0,2.32-3.43c-.44-5.72,1.82-17.71,9-25.37,6.42-9,20.35-13.83,28.79-13.83,19.29-.61,30.86,11.46,36,21.65,3.94,7.87,3,20.68,3.33,21.25a3.38,3.38,0,0,0,1.74,2.3A8,8,0,0,0,753.85,763.6Z"/><path class="cls-33" d="M770.31,696.59c2.4,3.21,8.32,6.92,10.12,5.11s-1-6.89-3.43-10.1-5.84-4.7-7.68-3.32S767.91,693.37,770.31,696.59Z"/><path class="cls-33" d="M784.2,700.58c-4.78-8.39-5.89-12.19-4.3-13.13s10.16,4.36,12.43,13.87c.7,2.94,0,7-2.2,6.45S785.76,703.3,784.2,700.58Z"/><path class="cls-34" d="M768.27,690.06a2.55,2.55,0,0,1,.86-.93c2.06-1.28,5.68.81,8.08,4.67,2,3.16,2.51,6.52,1.52,8.34-2.53-.24-6.55-3-8.43-5.56C768.63,694.33,767.91,691.83,768.27,690.06Z"/><path class="cls-34" d="M784.2,700.58c-3.52-6.17-5-9.85-5-11.74,3.54.76,8.9,6.52,10.2,11.23.89,3.2.25,5.72-.73,6.93C787,705.6,785.42,702.71,784.2,700.58Z"/><path class="cls-18" d="M688.23,651.54c-.27,1.49-3.23,2.78-1.79,3.88A25.85,25.85,0,0,0,698,659c1.88,0,5-.71,5.46-1.54C695.62,654.48,688.95,651.73,688.23,651.54Z"/><path class="cls-18" d="M683.51,654l-10,7.85a.23.23,0,0,1-.33,0h0a.23.23,0,0,1,0-.33l9.76-7.72Z"/><circle class="cls-21" cx="690.88" cy="654.64" r="1.54"/><path class="cls-30" d="M690.88,654.17a1.09,1.09,0,0,0-1.08,1.56c.46.78,2.62,1.85,3.17,1.59S692.46,654.18,690.88,654.17Z"/><path class="cls-10" d="M791.15,830.24c13.1-8.5,50.94-17.46,85.09,1.1.54.3,1.13-.68,1.61-1.07,2.76-2.25,11.49-10.87,8.28-27.93-3.8-20.16-21.55-36.57-52.38-33.87-30.39,2.67-56.17,26.4-44.7,60.56C789.34,829.91,790.37,830.74,791.15,830.24Z"/><path class="cls-10" d="M1062.08,831.48c14.44-9.71,52.94-18.32,85.51,2.89.58.22.39.08.9-.27,2.93-2,12.32-9.92,10.47-27.18-2.19-20.4-18.58-38.17-49.53-37.92-30.5.25-58.09,21.85-49.36,56.82C1060.28,826.72,1061.31,832,1062.08,831.48Z"/><circle class="cls-11" cx="1105.19" cy="827.06" r="36.41" transform="translate(240.74 1903.26) rotate(-88.04)"/><circle class="cls-12" cx="1105.19" cy="827.06" r="25.36" transform="translate(240.74 1903.26) rotate(-88.04)"/><path class="cls-13" d="M1110.91,823.69l12.07-6a2.19,2.19,0,0,0,.85-3.19,22.51,22.51,0,0,0-11.13-8.64,2.2,2.2,0,0,0-2.88,1.62L1107,820.68A2.73,2.73,0,0,0,1110.91,823.69Zm-7.17-3.11-2-13.33a2.2,2.2,0,0,0-2.77-1.79,22.51,22.51,0,0,0-11.64,7.95,2.19,2.19,0,0,0,.66,3.23l11.68,6.71A2.73,2.73,0,0,0,1103.74,820.58Zm-1.22,12.56-6.28,11.92a2.19,2.19,0,0,0,1.17,3.08,22.49,22.49,0,0,0,14.11.48,2.19,2.19,0,0,0,1.37-3l-5.45-12.32A2.73,2.73,0,0,0,1102.52,833.14Zm22.7-7.69-13.4,1.4a2.73,2.73,0,0,0-1.67,4.62l9.41,9.65a2.19,2.19,0,0,0,3.28-.16,22.36,22.36,0,0,0,4.8-13.13v-.17A2.19,2.19,0,0,0,1125.23,825.45Zm-26.65,1-13.29-2.22a2.18,2.18,0,0,0-2.55,2v0a22.36,22.36,0,0,0,4,13.55,2.19,2.19,0,0,0,3.27.36l10-9A2.73,2.73,0,0,0,1098.58,826.44Z"/><circle class="cls-14" cx="1105.19" cy="827.06" r="1.82" transform="translate(240.74 1903.26) rotate(-88.04)"/><circle class="cls-15" cx="1105.08" cy="830.35" r="0.85" transform="translate(237.34 1906.33) rotate(-88.04)"/><circle class="cls-15" cx="1108.29" cy="828.18" r="0.85" transform="translate(-47.22 1589.08) rotate(-70.13)"/><circle class="cls-15" cx="1107.21" cy="824.45" r="0.85" transform="translate(-222.64 1194.77) rotate(-52.23)"/><circle class="cls-15" cx="1103.33" cy="824.34" r="0.85" transform="translate(-272.69 765.81) rotate(-34.33)"/><circle class="cls-15" cx="1102.03" cy="827.99" r="0.85" transform="translate(-189.2 345.52) rotate(-16.43)"/><path class="cls-16" d="M1191.72,756.08h0c-10.08-13-28.29-16.59-44.34-19.76-4.24-.83-8.23-1.63-11.86-2.55-20.07-5.08-41.26-10.81-60.28-20.08-5.5-2.68-11-5.56-16.4-8.35-12.93-6.72-26.3-13.68-40.56-18.6A214.55,214.55,0,0,0,905.14,680c-20.34,4.32-39.86,11.64-58.72,18.72-14.37,5.39-29.24,11-44.24,15.11-4.56,1.26-9.39,2.28-14.05,3.28-8.35,1.79-17,3.63-25,6.91-10.22,4.17-17.49,10.9-20.07,18.48l0,.1-.09.21c-.06.21-.07.29-.1.4h0c-1.82,6.06-.76,12.21.4,17.52s2.64,10.66,4.33,15.92l0,.15a175.62,175.62,0,0,0,7,18.35c7.09,15.77,21.69,28.4,32.95,34.94a3.67,3.67,0,0,0,5-1.24,3.47,3.47,0,0,0,.46-2.31,2.81,2.81,0,0,0,0-.5c0-21.92,18.19-39.75,40.53-39.75S874.12,804.1,874.12,826v2.14a3.62,3.62,0,0,0,3.63,3.59c16.4.06,33.18.09,50.06.09,18.18,0,36.44,0,54.39-.06,26.17,0,52.48-.07,78.69,0l.46,0,.36-.06c.19,0,.6-.18.6-.18a3.57,3.57,0,0,0,2.27-3.47q0-1,0-2c0-21.92,18.18-39.75,40.53-39.75S1145.6,804.1,1145.6,826c0,1.36-.07,3.66-.18,4.77a3.58,3.58,0,0,0,3.3,3.87h4c9.89,0,20-.32,25.14-4,5.59-4,6.66-13.33,7.51-20.81.27-2.26.51-4.41.84-5.87,1.79-8,4-16.07,6.42-23.89l.22-.69C1195.19,772.15,1197.79,763.93,1191.72,756.08Z"/><path class="cls-17" d="M1080.55,720.92a39.76,39.76,0,0,0,2.17-3.87c-6.18-2.83-17.34-8.15-22.37-10.73-13.21-6.79-26.51-14.8-41.49-19.27-12-3.57-15.85-5.26-22.91-6.83-5.06-1.13-6.51-1.37-7.32-1.25-.49.07-.06,1-.2,1.91a.76.76,0,0,0,.44.87C1011.93,689.35,1027.07,694.09,1080.55,720.92Z"/><path class="cls-18" d="M1071.53,737.37c-1.22,5.56-5.45,9.24-10.51,9.12l-123.18-2.78c-5.85-.13-10.53-5.65-10.42-12.3l.63-37.54c.12-6.91-49.54-11.26,10.76-13.22,44.74-1.46,99.06,25.08,127.59,43.26A12.61,12.61,0,0,1,1071.53,737.37Z"/><path class="cls-18" d="M932.88,730.38c-.13,7.49,52.76,14.78-14.38,13.28l-70.87-1.6a14.16,14.16,0,0,1-13.08-9,13.07,13.07,0,0,1,2.26-13.18c12.46-14.77,36.58-33.36,80.84-38.06a14.66,14.66,0,0,1,12,4.31,13.34,13.34,0,0,1,3.81,9.56Z"/><path class="cls-19" d="M1090.17,724.42c1.73,3.74,7.2,10.27,9.58,11.83s10.49,3.75,16.68,5.67,40.95,11.3,43.8,13.73"/><path class="cls-19" d="M826.64,727.7c-2.23,3.24-8.54,8.53-11.1,9.62s-10.81,1.9-17.16,2.75-41.74,4.29-44.88,6.13"/><path class="cls-20" d="M930.68,741.93c-3.8,8-8.22,19.6-6.49,51.93s4.66,36.13,9.66,36.56,118.92-.3,120.66-.37c1.38-2.75,3.8-16.88,4.49-39.7s-.24-40.17-1.62-44.32Z"/><ellipse class="cls-21" cx="1174.48" cy="807.92" rx="8.05" ry="3.1" transform="translate(259.99 1901.47) rotate(-84.62)"/><path class="cls-22" d="M1173.37,801.24h-.07a14.67,14.67,0,0,0-1.9,6.38,13.85,13.85,0,0,0,.83,7c1.74,0,3.39-2.77,3.73-6.37S1175.15,801.41,1173.37,801.24Z"/><path class="cls-21" d="M1179.67,815.93c-2.43,1.12-11.36,3.89-13.37,4.66a35.65,35.65,0,0,0-1.69,5.55c2.62-.15,12.19-1.22,16.19-2.61h0C1179.22,821.23,1179.1,818.72,1179.67,815.93Z"/><path class="cls-23" d="M927.56,727.57c-.1,6.12-5.53,11-12.12,10.84l-59.76-1.35a12,12,0,0,1-11-7.39,10.4,10.4,0,0,1,1.9-10.76c10.5-12.05,30.83-27.22,68.15-31a12.61,12.61,0,0,1,10.13,3.52,10.72,10.72,0,0,1,3.21,7.81Z"/><path class="cls-23" d="M1063.92,734.31a9.28,9.28,0,0,1-9.3,7.4l-109.11-2.47a9.7,9.7,0,0,1-9.24-10l.51-30.54a10.77,10.77,0,0,1,9.52-10.74c39.42-3.74,87.77,20.57,113.07,35.41A9.91,9.91,0,0,1,1063.92,734.31Z"/><path class="cls-24" d="M955.54,763.77c0-3.51,2.31-9.12,11.4-9.12s10.26,6.09,10.17,9.32-1.84,9.63-10.32,8.86S955.54,768.47,955.54,763.77Z"/><path class="cls-25" d="M946.3,763.43c-.13,1.38.77,3.08,4.31,2.77,6.29-.55,24.84.58,28,1.23,3,.62,5.55-4.37,1.69-5.55s-15.4-1.33-21.11-1.39C950,760.42,946.6,760,946.3,763.43Z"/><path class="cls-39" d="M754.82,762.47c2,8-.46,16.13-3.68,16.89-1.69.4-4.76-1.13-5.8-4.08-1-2.76-2-6.18-2.91-9.92"/><path class="cls-27" d="M742.44,765.41c-.94-3.75-2.24-8.82-1.94-11.63.35-3.26,2.83-5.34,4.58-5.43,2.75-.13,7.65,5.93,9.73,14.17"/><path class="cls-40" d="M927.72,727.82c-.07,4.42-71.66-20.57-58.51-26.86,10.88-5.21,17-9.54,45.53-13.18A12.37,12.37,0,0,1,925,691.33a10.82,10.82,0,0,1,3.24,7.88Z"/><path class="cls-41" d="M1063.92,734.31a9.28,9.28,0,0,1-9.3,7.4s-92.92-20.28-114.46-48.48c-1.45-1.9,1.06-4.11,6.14-5.29,39.42-3.74,87.77,20.57,113.07,35.41A9.91,9.91,0,0,1,1063.92,734.31Z"/><polygon class="cls-18" points="1064.42 742.6 1054.39 744.42 1050.1 716.47 1064.09 725.83 1064.42 742.6"/><path class="cls-16" d="M1032.61,729.47c.72-1.07,5.77-5.33,11.11-5.39s16.62,2.83,21.38,6.37c.54,1.81-1.6,7.07-5.35,11.46-4.69,1.87-20.64.6-26.57-.3C1031.23,740,1031.15,733.78,1032.61,729.47Z"/><path class="cls-30" d="M1033.66,736.33a53.25,53.25,0,0,1,.08-6.72c.15-1.08,4-3.92,6.88-5.05a17.81,17.81,0,0,0-8,4.92c-1.46,4.3-1.38,10.55.57,12.13,5.92.91,21.88,2.17,26.57.3a29.59,29.59,0,0,0,2.71-3.74C1053.76,738.27,1035.83,737.33,1033.66,736.33Z"/><circle class="cls-19" cx="825.81" cy="761.3" r="10.64"/><path class="cls-24" d="M815.17,758.62c1.21,0,3.54.11,3.54,2,0,2.17-1.67,2.78-3.34,2.79C814.28,762.81,814.55,759.51,815.17,758.62Z"/><circle class="cls-11" cx="833.88" cy="827.06" r="36.41" transform="translate(-21.27 1632.1) rotate(-88.04)"/><circle class="cls-12" cx="833.88" cy="827.06" r="25.36" transform="translate(-21.27 1632.1) rotate(-88.04)"/><path class="cls-13" d="M839.6,823.69l12.07-6a2.19,2.19,0,0,0,.85-3.19,22.51,22.51,0,0,0-11.13-8.64,2.2,2.2,0,0,0-2.88,1.62l-2.79,13.18A2.73,2.73,0,0,0,839.6,823.69Zm-7.17-3.11-2-13.33a2.2,2.2,0,0,0-2.77-1.79A22.51,22.51,0,0,0,816,813.4a2.19,2.19,0,0,0,.66,3.23l11.68,6.71A2.73,2.73,0,0,0,832.43,820.58Zm-1.22,12.56-6.28,11.92a2.19,2.19,0,0,0,1.17,3.08,22.49,22.49,0,0,0,14.11.48,2.19,2.19,0,0,0,1.37-3l-5.45-12.32A2.73,2.73,0,0,0,831.21,833.14Zm22.7-7.69-13.4,1.4a2.73,2.73,0,0,0-1.67,4.62l9.41,9.65a2.19,2.19,0,0,0,3.28-.16,22.36,22.36,0,0,0,4.8-13.13v-.17A2.19,2.19,0,0,0,853.91,825.45Zm-26.65,1L814,824.22a2.18,2.18,0,0,0-2.55,2v0a22.36,22.36,0,0,0,4,13.55,2.19,2.19,0,0,0,3.27.36l10-9A2.73,2.73,0,0,0,827.26,826.44Z"/><circle class="cls-14" cx="833.88" cy="827.06" r="1.82" transform="translate(-21.27 1632.1) rotate(-88.04)"/><circle class="cls-15" cx="833.76" cy="830.35" r="0.85" transform="translate(-24.67 1635.17) rotate(-88.04)"/><circle class="cls-15" cx="836.98" cy="828.18" r="0.85" transform="translate(-226.34 1333.91) rotate(-70.13)"/><circle class="cls-15" cx="835.89" cy="824.45" r="0.85" transform="translate(-327.79 980.29) rotate(-52.23)"/><circle class="cls-15" cx="832.02" cy="824.34" r="0.85" transform="translate(-319.95 612.81) rotate(-34.33)"/><circle class="cls-15" cx="830.71" cy="827.99" r="0.85" transform="translate(-200.27 268.78) rotate(-16.43)"/><path class="cls-42" d="M1063.4,803.16c-36.88-2.92-165-8.9-198.41-9.31-1.27,0-5.58,1.5-4.63,2.34,9.91,8.88,12.26,18.61,12.76,20.73a54.28,54.28,0,0,1,1.12,12c0,1.13,1.84,2.67,3,2.7,18.91.5,59.41.19,81.54.17,24.48,0,81.58-.11,102.65-.11a3.88,3.88,0,0,0,3.18-3.16l.12-6c.08-4.06,2.25-11.36,5.49-17.13C1070.74,804.34,1069.86,803.67,1063.4,803.16Z"/><path class="cls-32" d="M879.89,831.75c2.16-26.19-20-50.23-44.68-50.23s-45.53,21.72-44.64,48.92c2.29.27,1.71-.75,2.53-2.91-.46-6,1.61-18.51,9.1-26.55,6.74-9.5,21.38-14.52,30.24-14.52,20.26-.64,32.55,11.94,37.9,22.65,4.13,8.27,3.52,19.87,4,20.2a3.82,3.82,0,0,0,1.55,1.92C876.69,831.92,878.58,831.78,879.89,831.75Z"/><path class="cls-32" d="M1151.49,834.68c2.16-26.19-19.82-52.85-44.5-52.85s-45.73,22.5-44.85,49.7a3.54,3.54,0,0,0,2.43-3.6c-.46-6,1.92-18.61,9.4-26.64,6.74-9.5,21.38-14.52,30.24-14.52,20.26-.64,32.41,12,37.77,22.74,4.13,8.27,3.16,21.72,3.49,22.32a3.55,3.55,0,0,0,1.82,2.42C1148.67,834.94,1150.17,834.71,1151.49,834.68Z"/><path class="cls-33" d="M1168.78,764.3c2.52,3.37,8.74,7.27,10.63,5.37s-1.09-7.24-3.61-10.61-6.13-4.94-8.07-3.49S1166.26,760.92,1168.78,764.3Z"/><path class="cls-33" d="M1183.37,768.49c-5-8.81-6.18-12.81-4.51-13.79s10.67,4.58,13.05,14.57c.74,3.09,0,7.31-2.31,6.77S1185,771.35,1183.37,768.49Z"/><path class="cls-34" d="M1166.64,757.44a2.67,2.67,0,0,1,.9-1c2.16-1.35,6,.85,8.49,4.9,2.07,3.32,2.64,6.85,1.6,8.76-2.66-.26-6.88-3.2-8.85-5.84C1167,761.93,1166.26,759.3,1166.64,757.44Z"/><path class="cls-34" d="M1183.37,768.49c-3.7-6.48-5.29-10.35-5.22-12.34,3.72.8,9.34,6.85,10.71,11.8.93,3.36.26,6-.77,7.28C1186.3,773.76,1184.65,770.73,1183.37,768.49Z"/><path class="cls-18" d="M1082.56,717c-.28,1.56-3.39,2.92-1.88,4.08,1.68,1.29,8,3.78,12.18,3.75,2,0,5.24-.75,5.74-1.61C1090.32,720.07,1083.32,717.19,1082.56,717Z"/><path class="cls-18" d="M1077.61,719.52l-10.47,8.25a.25.25,0,0,1-.34,0h0a.25.25,0,0,1,0-.34l10.25-8.1Z"/><circle class="cls-21" cx="1085.35" cy="720.24" r="1.62"/><path class="cls-30" d="M1085.35,719.74a1.14,1.14,0,0,0-1.14,1.64c.48.82,2.76,1.94,3.33,1.67S1087,719.75,1085.35,719.74Z"/></g></g></g></svg>