<svg xmlns="http://www.w3.org/2000/svg" xmlns:xlink="http://www.w3.org/1999/xlink" viewBox="0 0 1931.7 970.4"><defs><style>.cls-1{fill:#6d6c6c;}.cls-2{fill:#595b5b;}.cls-21,.cls-3,.cls-33{fill:#fff;}.cls-4{fill:#c4c4c4;}.cls-5{fill:#f4d5c1;}.cls-6{fill:#f0c2a2;}.cls-7{fill:#d9f9f3;}.cls-8{fill:#fafffe;opacity:0.6;}.cls-16,.cls-21,.cls-31,.cls-33,.cls-8{isolation:isolate;}.cls-31,.cls-9{fill:#515759;}.cls-10{fill:#373a35;}.cls-11{fill:#c3c4c7;}.cls-12{fill:#85898c;}.cls-13{fill:#acb1b5;}.cls-14{fill:#8b9298;}.cls-15{fill:#02c0af;}.cls-16,.cls-22{fill:#8dd5ef;}.cls-16{opacity:0.53;}.cls-17{fill:#4f5858;}.cls-18,.cls-19{fill:none;stroke:#4f5858;}.cls-18{stroke-linecap:round;stroke-linejoin:round;stroke-width:0.5px;}.cls-19{stroke-miterlimit:10;stroke-width:0.7px;}.cls-20{fill:#474e4b;}.cls-21{opacity:0.38;}.cls-23{fill:#00a68e;}.cls-24{fill:#00b39e;}.cls-25{fill:url(#linear-gradient);}.cls-26{fill:#d92828;}.cls-27{fill:url(#linear-gradient-2);}.cls-28{fill:url(#linear-gradient-3);}.cls-29{fill:#3d4642;}.cls-30{fill:url(#linear-gradient-4);}.cls-31{opacity:0.28;}.cls-32{fill:#b4eeff;}.cls-33{opacity:0.5;}.cls-34{fill:url(#linear-gradient-5);}.cls-35{fill:url(#linear-gradient-6);}.cls-36{fill:url(#linear-gradient-7);}.cls-37{fill:url(#linear-gradient-8);}.cls-38{fill:url(#linear-gradient-9);}.cls-39{fill:url(#linear-gradient-10);}.cls-40{fill:url(#linear-gradient-11);}.cls-41{fill:url(#linear-gradient-12);}</style><linearGradient id="linear-gradient" x1="598.62" y1="-42.38" x2="611.34" y2="-42.38" gradientTransform="matrix(-0.99, -0.03, 0.03, 0.87, 1696.25, 758.07)" gradientUnits="userSpaceOnUse"><stop offset="0.18" stop-color="#83181e"/><stop offset="1" stop-color="#ac1e1d"/></linearGradient><linearGradient id="linear-gradient-2" x1="950.57" y1="863.44" x2="1008.27" y2="863.44" gradientTransform="matrix(-1, 0, 0, 1, 1931.7, -220.38)" gradientUnits="userSpaceOnUse"><stop offset="0.24" stop-color="#fff" stop-opacity="0.3"/><stop offset="1" stop-color="#8dd5ef" stop-opacity="0.4"/></linearGradient><linearGradient id="linear-gradient-3" x1="1019.3" y1="869.59" x2="1137.77" y2="869.59" gradientTransform="matrix(-1, 0, 0, 1, 1931.7, -220.38)" gradientUnits="userSpaceOnUse"><stop offset="0.22" stop-color="#fff" stop-opacity="0.3"/><stop offset="1" stop-color="#8dd5ef" stop-opacity="0.4"/></linearGradient><linearGradient id="linear-gradient-4" x1="1041.85" y1="925.55" x2="1045.44" y2="979.5" gradientTransform="matrix(-1, 0, 0, 1, 1931.7, -220.38)" gradientUnits="userSpaceOnUse"><stop offset="0" stop-color="#c3c4c7"/><stop offset="1" stop-color="#02c0af" stop-opacity="0"/></linearGradient><linearGradient id="linear-gradient-5" x1="127.61" y1="-58.67" x2="140.33" y2="-58.67" xlink:href="#linear-gradient"/><linearGradient id="linear-gradient-6" x1="483.57" y1="863.44" x2="541.3" y2="863.44" xlink:href="#linear-gradient-2"/><linearGradient id="linear-gradient-7" x1="552.3" y1="869.59" x2="670.77" y2="869.59" xlink:href="#linear-gradient-3"/><linearGradient id="linear-gradient-8" x1="574.82" y1="925.56" x2="578.42" y2="979.51" xlink:href="#linear-gradient-4"/><linearGradient id="linear-gradient-9" x1="511.38" y1="32.89" x2="524.73" y2="32.89" xlink:href="#linear-gradient"/><linearGradient id="linear-gradient-10" x1="867.58" y1="928.33" x2="928.21" y2="928.33" xlink:href="#linear-gradient-2"/><linearGradient id="linear-gradient-11" x1="939.68" y1="934.99" x2="1064.21" y2="934.99" xlink:href="#linear-gradient-3"/><linearGradient id="linear-gradient-12" x1="963.48" y1="993.7" x2="967.26" y2="1050.36" xlink:href="#linear-gradient-4"/></defs><title>Asset 1</title><g id="Layer_2" data-name="Layer 2"><g id="Layer_1-2" data-name="Layer 1"><polygon class="cls-1" points="0 970.4 769.9 970 504.9 709.7 0 709.8 0 970.4"/><polygon class="cls-2" points="1664.8 710.7 506.5 710 769.9 970 1931.7 970 1664.8 710.7"/><polygon class="cls-3" points="1073.2 721.8 1258.7 906.4 1253 912 1067.5 727.5 1073.2 721.8"/><polygon class="cls-4" points="516.3 709.7 777.7 970.2 766.5 970.4 504.9 709.7 516.3 709.7"/><rect class="cls-3" x="670" y="799.1" width="914.9" height="10.1"/><rect class="cls-3" x="749.5" y="867.1" width="908.5" height="9.9"/><polygon class="cls-5" points="0.1 0 244 0 262.3 84.2 0 84.2 0.1 0"/><rect class="cls-6" x="0.1" y="84.2" width="262.2" height="740.8"/><rect class="cls-4" x="136.4" y="565.7" width="74.9" height="112"/><rect class="cls-7" x="139.8" y="570.3" width="67.3" height="103.5"/><polygon class="cls-8" points="140.6 569.5 208 569.5 140.6 673 140.6 569.5"/><rect class="cls-4" x="31.2" y="565.7" width="74.9" height="112"/><rect class="cls-7" x="34.6" y="570.3" width="67.3" height="103.5"/><polygon class="cls-8" points="35.4 569.9 102.7 569.9 35.4 673.5 35.4 569.9"/><rect class="cls-4" x="136.4" y="390.6" width="74.9" height="112"/><rect class="cls-7" x="139.8" y="394.4" width="67.3" height="103.6"/><polygon class="cls-8" points="140.6 394.4 208 394.4 140.6 497.9 140.6 394.4"/><rect class="cls-4" x="31.2" y="390.6" width="74.9" height="112"/><rect class="cls-7" x="34.6" y="394.4" width="67.3" height="103.6"/><polygon class="cls-8" points="35.4 394.8 102.7 394.8 35.4 498.4 35.4 394.8"/><rect class="cls-4" x="136.4" y="213.8" width="74.9" height="112"/><rect class="cls-7" x="139.8" y="218.4" width="67.3" height="103.6"/><polygon class="cls-8" points="140.6 218.4 208 218.4 140.6 322 140.6 218.4"/><rect class="cls-4" x="30.4" y="213.8" width="74.9" height="112"/><rect class="cls-7" x="34.6" y="218.4" width="67.3" height="103.6"/><polygon class="cls-8" points="35.4 218.9 102.7 218.9 35.4 322.4 35.4 218.9"/><g id="Auto"><path class="cls-9" d="M1056,758.3c10.9-32.6-13.7-55.2-42.6-57.7-29.4-2.6-46.3,13-49.9,32.2-3,16.3,5.3,24.5,7.9,26.6.4.3,1,1.3,1.5,1,32.5-17.6,68.5-9.1,81-1C1054.7,759.8,1055.7,759,1056,758.3Z"/><path class="cls-9" d="M798,755.1c8.3-33.3-18-53.9-47-54.1-29.5-.2-45.1,16.7-47.2,36.1-1.7,16.5,7.2,24,10,25.9.4.4.2.5.8.3,31-20.2,67.6-12,81.4-2.8C796.7,761,797.7,756,798,755.1Z"/><circle class="cls-10" cx="755.02" cy="756.28" r="34.7" transform="matrix(1, -0.03, 0.03, 1, -25.42, 26.27)"/><circle class="cls-11" cx="755" cy="756.3" r="24.2"/><path class="cls-12" d="M751.2,753.3a2.47,2.47,0,0,0,2.1-3l-2.7-12.5c0-.1-.1-.2-.1-.3a2.12,2.12,0,0,0-2.7-1.3,21.47,21.47,0,0,0-10.6,8.2c0,.1-.1.1-.1.2a2.12,2.12,0,0,0,.9,2.8l11.5,5.7A2,2,0,0,0,751.2,753.3Zm5.1-3.2a2.16,2.16,0,0,0,.5,1.7,2.53,2.53,0,0,0,3.5,1l11.1-6.4.2-.2a2.07,2.07,0,0,0,.4-2.9,21.46,21.46,0,0,0-11.1-7.6.37.37,0,0,0-.3-.1,2.22,2.22,0,0,0-2.4,1.8l-1.9,12.7Zm1.2,12a2.57,2.57,0,0,0-4.6.2L747.7,774a.35.35,0,0,0-.1.2,2.11,2.11,0,0,0,1.4,2.6,21.2,21.2,0,0,0,13.4-.5.35.35,0,0,1,.2-.1,2.12,2.12,0,0,0,.9-2.8l-6-11.3Zm-21.6-7.3a.37.37,0,0,1-.3-.1,2.09,2.09,0,0,0-2,2.1v.2a22,22,0,0,0,4.6,12.5l.2.2a2.05,2.05,0,0,0,2.9,0l9-9.2a2.62,2.62,0,0,0-1.6-4.4l-12.8-1.3Zm25.3,1a2.06,2.06,0,0,0-1.5.8,2.66,2.66,0,0,0,.2,3.7l9.5,8.6c.1.1.1.2.2.2a2.09,2.09,0,0,0,2.9-.5,21.25,21.25,0,0,0,3.8-12.9h0v-.3a2.12,2.12,0,0,0-2.4-1.7l-12.7,2.1Z"/><circle class="cls-13" cx="755" cy="756.3" r="1.7"/><circle class="cls-14" cx="755.16" cy="759.42" r="0.8" transform="translate(-25.53 26.27) rotate(-1.96)"/><circle class="cls-14" cx="751.87" cy="757.43" r="0.8" transform="translate(-212.68 300.64) rotate(-19.87)"/><circle class="cls-14" cx="752.99" cy="753.89" r="0.8" transform="translate(-303.98 619.15) rotate(-37.77)"/><circle class="cls-14" cx="756.69" cy="753.65" r="0.8" transform="translate(-292.42 953.46) rotate(-55.67)"/><circle class="cls-14" cx="758" cy="757.29" r="0.8" transform="translate(-182.74 1270.2) rotate(-73.57)"/><path class="cls-15" d="M671.4,711l.2.7c2.3,7.4,4.4,15.1,6.1,22.7.3,1.4.5,3.4.8,5.6.9,7.1,1.9,16,7.2,19.8,4.9,3.5,14.5,3.8,23.9,3.8h3.8a3.38,3.38,0,0,0,3.1-3.7c-.1-1-.2-3.2-.2-4.5,0-20.8,17.3-37.8,38.6-37.8s38.6,16.9,38.6,37.8v1.9a3.61,3.61,0,0,0,2.2,3.3,2,2,0,0,0,.6.2l.3.1h.4c24.9-.1,50,0,74.9,0,17.1.1,34.5.1,51.8.1,16.1,0,32.1,0,47.7-.1a3.46,3.46,0,0,0,3.5-3.4v-2c0-20.8,17.3-37.8,38.6-37.8s38.6,16.9,38.6,37.8v.5a2.85,2.85,0,0,0,.4,2.2,3.56,3.56,0,0,0,4.8,1.2c10.7-6.3,24.6-18.3,31.4-33.3a175.45,175.45,0,0,0,6.7-17.5v-.1c1.6-5,3-10.1,4.1-15.2s2.1-10.9.4-16.7h0a.76.76,0,0,0-.1-.4l-.1-.2v-.1c-2.4-7.2-9.4-13.6-19.1-17.6-7.6-3.1-15.8-4.9-23.8-6.6-4.5-.9-9.1-1.9-13.4-3.1-14.3-4-28.4-9.3-42.1-14.4-17.9-6.7-36.5-13.7-55.9-17.8a203.33,203.33,0,0,0-107.7,6.4c-13.6,4.7-26.3,11.3-38.6,17.7-5.1,2.7-10.4,5.5-15.6,8-18.1,8.8-38.3,14.3-57.4,19.1-3.5.9-7.3,1.6-11.3,2.4-15.3,3-32.6,6.4-42.2,18.8h0C666.8,696.2,669.3,704.1,671.4,711Z"/><path class="cls-16" d="M865.7,618a.68.68,0,0,0,.4-.8c-.1-.8.3-1.7-.2-1.8-.8-.1-2.2.1-7,1.2-6.7,1.5-10.4,3.1-21.8,6.5-14.3,4.2-26.9,11.8-39.5,18.3-4.8,2.4-15.4,7.5-21.3,10.2.7,1.3,1.3,2.5,2.1,3.7C829.3,629.7,843.7,625.2,865.7,618Z"/><path class="cls-17" d="M791.8,658.3c27.2-17.3,78.9-42.6,121.5-41.2,57.5,1.9,10.2,6,10.3,12.6l.6,35.7c.1,6.3-4.3,11.6-9.9,11.7L797,679.7c-4.8.1-8.8-3.4-10-8.7A11.79,11.79,0,0,1,791.8,658.3Z"/><path class="cls-17" d="M918.5,631.3a12.36,12.36,0,0,1,3.6-9.1,14.25,14.25,0,0,1,11.4-4.1c42.2,4.4,65.1,22.1,77,36.2a12.34,12.34,0,0,1,2.2,12.5,13.57,13.57,0,0,1-12.5,8.6l-67.5,1.5c-63.9,1.5-13.6-5.5-13.7-12.6Z"/><path class="cls-18" d="M702.5,688.4c2.7-2.3,35.8-11.3,41.7-13.1s13.6-3.9,15.9-5.4,7.4-7.7,9.1-11.3"/><path class="cls-18" d="M1089.8,679.3c-3-1.7-36.7-5-42.7-5.8s-13.8-1.5-16.3-2.6-8.5-6.1-10.6-9.2"/><path class="cls-19" d="M800.4,679.2c-1.3,3.9-2.2,20.5-1.5,42.2s3,35.2,4.3,37.8c1.7,0,110.1.7,114.9.3s7.6-4.1,9.2-34.8-2.6-41.8-6.2-49.4Z"/><ellipse class="cls-20" cx="688.99" cy="738.12" rx="3" ry="7.7" transform="translate(-66.17 67.85) rotate(-5.38)"/><path class="cls-21" d="M687.5,738.4c.4,3.5,1.9,6.1,3.6,6.1a13.55,13.55,0,0,0,.8-6.6,14.52,14.52,0,0,0-1.9-6.1h0C688.3,731.9,687.1,734.9,687.5,738.4Z"/><path class="cls-20" d="M682.9,753h0c3.8,1.3,12.9,2.3,15.4,2.5a32.38,32.38,0,0,0-1.6-5.3c-1.9-.7-10.4-3.3-12.7-4.4C684.6,748.4,684.5,750.8,682.9,753Z"/><path class="cls-22" d="M923.6,634.6a10.37,10.37,0,0,1,3.1-7.4,12,12,0,0,1,9.6-3.3c35.6,3.6,54.9,18,64.9,29.5a9.77,9.77,0,0,1,1.8,10.2,11.46,11.46,0,0,1-10.5,7l-56.9,1.3c-6.2.2-11.4-4.5-11.5-10.3Z"/><path class="cls-22" d="M798.4,657.6c24.1-14.1,70.2-37.3,107.7-33.7a10.27,10.27,0,0,1,9.1,10.2l.5,29.1a9.16,9.16,0,0,1-8.8,9.5L803,675a8.79,8.79,0,0,1-8.8-7A9.38,9.38,0,0,1,798.4,657.6Z"/><path class="cls-23" d="M886.7,704.7c-8,.8-9.7-5.3-9.8-8.4s1.1-8.9,9.7-8.9,10.8,5.4,10.8,8.7C897.4,700.6,894.7,703.9,886.7,704.7Z"/><path class="cls-24" d="M893.9,693c-5.4,0-16.4.2-20.1,1.3s-1.3,5.9,1.6,5.3,20.7-1.7,26.7-1.2c3.4.3,4.2-1.3,4.1-2.6C905.9,692.5,902.7,692.9,893.9,693Z"/><path class="cls-25" d="M1100.3,697.6c-.9,3.5-1.9,6.8-2.8,9.4-1,2.8-3.9,4.3-5.5,3.9-3.1-.8-5.4-8.5-3.5-16.1"/><path class="cls-26" d="M1088.4,694.9c2-7.8,6.7-13.6,9.3-13.5,1.7.1,4.1,2.1,4.4,5.2.3,2.7-.9,7.5-1.8,11.1"/><path class="cls-27" d="M923.5,634.7a10.6,10.6,0,0,1,3.1-7.5,11.62,11.62,0,0,1,9.7-3.4c27.1,3.4,32.9,7.5,43.3,12.5,12.5,6-55.6,29.8-55.7,25.6Z"/><path class="cls-28" d="M798.5,657.5c24.1-14.1,70.2-37.3,107.7-33.7,4.8,1.1,7.2,3.2,5.8,5C891.5,655.7,803,675,803,675a8.79,8.79,0,0,1-8.8-7A9.7,9.7,0,0,1,798.5,657.5Z"/><polygon class="cls-17" points="794.1 660 807.4 651 803.3 677.7 793.8 675.9 794.1 660"/><path class="cls-15" d="M823.4,675c-5.6.9-20.8,2.1-25.3.3-3.6-4.2-5.6-9.2-5.1-10.9,4.6-3.4,15.3-6.1,20.4-6.1s9.9,4.1,10.6,5.1C825.4,667.5,825.4,673.5,823.4,675Z"/><path class="cls-29" d="M795.5,671.7a23.59,23.59,0,0,0,2.6,3.6c4.5,1.8,19.7.6,25.3-.3,1.8-1.5,1.9-7.4.5-11.5a17.72,17.72,0,0,0-7.6-4.7c2.8,1.1,6.4,3.8,6.6,4.8a45.58,45.58,0,0,1,.1,6.4C821,670.9,803.9,671.8,795.5,671.7Z"/><circle class="cls-18" cx="1020.9" cy="693.7" r="10.1"/><path class="cls-23" d="M1030.9,695.8c-1.6,0-3.2-.6-3.2-2.7,0-1.8,2.2-1.9,3.4-1.9C1031.7,692,1031.9,695.2,1030.9,695.8Z"/><circle class="cls-10" cx="1013.3" cy="756.3" r="34.7"/><circle class="cls-11" cx="1013.3" cy="756.3" r="24.2"/><path class="cls-12" d="M1009.5,753.3a2.47,2.47,0,0,0,2.1-3l-2.7-12.5c0-.1-.1-.2-.1-.3a2.12,2.12,0,0,0-2.7-1.3,21.47,21.47,0,0,0-10.6,8.2c0,.1-.1.1-.1.2a2.12,2.12,0,0,0,.9,2.8l11.5,5.7A2,2,0,0,0,1009.5,753.3Zm5.1-3.2a2.62,2.62,0,0,0,.5,1.7,2.51,2.51,0,0,0,3.5,1l11.1-6.4.2-.2a2.07,2.07,0,0,0,.4-2.9,21.46,21.46,0,0,0-11.1-7.6.37.37,0,0,0-.3-.1,2.22,2.22,0,0,0-2.4,1.8l-1.9,12.7Zm1.2,12a2.57,2.57,0,0,0-4.6.2L1006,774a.35.35,0,0,0-.1.2,2.11,2.11,0,0,0,1.4,2.6,21.2,21.2,0,0,0,13.4-.5.35.35,0,0,1,.2-.1,2.12,2.12,0,0,0,.9-2.8l-6-11.3Zm-21.6-7.3a.37.37,0,0,1-.3-.1,2.09,2.09,0,0,0-2,2.1v.2a22,22,0,0,0,4.6,12.5l.2.2a2.05,2.05,0,0,0,2.9,0l9-9.2a2.62,2.62,0,0,0-1.6-4.4l-12.8-1.3Zm25.3,1a2.24,2.24,0,0,0-1.5.8,2.66,2.66,0,0,0,.2,3.7l9.5,8.6c.1.1.1.2.2.2a2.09,2.09,0,0,0,2.9-.5,21.25,21.25,0,0,0,3.8-12.9h0v-.3a2.12,2.12,0,0,0-2.4-1.7l-12.7,2.1Z"/><circle class="cls-13" cx="1013.3" cy="756.3" r="1.7"/><circle class="cls-14" cx="1013.4" cy="759.4" r="0.8"/><circle class="cls-14" cx="1010.3" cy="757.5" r="0.8"/><circle class="cls-14" cx="1011.3" cy="753.9" r="0.8"/><circle class="cls-14" cx="1015" cy="753.7" r="0.8"/><circle class="cls-14" cx="1016.3" cy="757.2" r="0.8"/><path class="cls-30" d="M788.3,735.7c3.1,5.5,5.1,12.4,5.2,16.3l.1,5.7a3.85,3.85,0,0,0,3,3c20,0,74.4.1,97.7.1,21,0,59.6.3,77.6-.2,1-.1,2.8-1.5,2.8-2.6a54.4,54.4,0,0,1,1.1-11.4A39.43,39.43,0,0,1,988,726.9c.9-.8-3.2-2.2-4.4-2.2-31.8.4-153.8,6.1-188.9,8.9C788.6,734.1,787.7,734.7,788.3,735.7Z"/><path class="cls-31" d="M973.1,760.3a3.35,3.35,0,0,0,1.5-1.8c.4-.3-.1-11.3,3.8-19.2,5.1-10.2,16.8-22.2,36.1-21.6,8.5,0,22.4,4.8,28.8,13.8,7.2,7.7,9.1,19.6,8.7,25.3.8,2.1.2,3.1,2.4,2.8.8-25.9-19-46.6-42.5-46.6s-44.5,22.9-42.5,47.8C970.7,760.8,972.5,761,973.1,760.3Z"/><path class="cls-31" d="M714.9,763.3a3.33,3.33,0,0,0,1.7-2.3c.3-.6-.6-13.4,3.3-21.3,5.1-10.2,16.7-22.3,36-21.7,8.5,0,22.4,4.8,28.8,13.8,7.2,7.7,9.4,19.7,9,25.4a3.33,3.33,0,0,0,2.3,3.4c.8-25.9-19.2-47.3-42.7-47.3s-44.5,25.4-42.4,50.3A11,11,0,0,0,714.9,763.3Z"/><path class="cls-32" d="M695.4,688.3c-1.9-1.4-5.3.1-7.7,3.3s-5.2,8.3-3.4,10.1,7.7-1.9,10.1-5.1S697.3,689.7,695.4,688.3Z"/><path class="cls-32" d="M674.6,707.9c-2.2.5-2.9-3.6-2.2-6.5,2.2-9.5,10.8-14.8,12.4-13.9s.5,4.7-4.3,13.1C679,703.3,676.8,707.4,674.6,707.9Z"/><path class="cls-33" d="M694.3,696.6c-1.8,2.6-5.9,5.4-8.4,5.6-1-1.8-.5-5.1,1.5-8.3,2.4-3.9,6-6,8.1-4.7a2,2,0,0,1,.9.9C696.8,691.8,696.1,694.3,694.3,696.6Z"/><path class="cls-33" d="M676,707c-1-1.2-1.6-3.7-.7-6.9,1.3-4.7,6.7-10.4,10.2-11.2,0,1.9-1.5,5.5-5,11.7C679.3,702.7,677.7,705.6,676,707Z"/><path class="cls-17" d="M761.2,657.5c.5.8,3.6,1.5,5.5,1.5a26.28,26.28,0,0,0,11.6-3.6c1.4-1.1-1.5-2.4-1.8-3.9C775.8,651.7,769.1,654.5,761.2,657.5Z"/><path class="cls-17" d="M781.7,653.8l9.8,7.7h0a.19.19,0,0,1,0,.3h0a.19.19,0,0,1-.3,0l-10-7.8Z"/><circle class="cls-20" cx="773.8" cy="654.6" r="1.5"/><path class="cls-29" d="M771.7,657.4c.6.2,2.7-.8,3.2-1.6a1.27,1.27,0,0,0,.1-.6,1.11,1.11,0,0,0-1.2-1C772.3,654.2,771.1,657.2,771.7,657.4Z"/><path class="cls-9" d="M1523,758.3c10.9-32.6-13.7-55.2-42.6-57.7-29.4-2.6-46.3,13-49.9,32.2-3,16.3,5.3,24.5,7.9,26.6.4.3,1,1.3,1.5,1,32.5-17.6,68.5-9.1,81-1C1521.7,759.8,1522.7,759,1523,758.3Z"/><path class="cls-9" d="M1265,755.1c8.3-33.3-18-53.9-47-54.1-29.5-.2-45.1,16.7-47.2,36.1-1.7,16.5,7.2,24,10,25.9.4.4.2.5.8.3,31-20.2,67.6-12,81.4-2.8C1263.7,761,1264.7,756,1265,755.1Z"/><circle class="cls-10" cx="1222" cy="756.3" r="34.7"/><circle class="cls-11" cx="1222" cy="756.3" r="24.2"/><path class="cls-12" d="M1218.2,753.3a2.47,2.47,0,0,0,2.1-3l-2.7-12.5c0-.1-.1-.2-.1-.3a2.12,2.12,0,0,0-2.7-1.3,21.47,21.47,0,0,0-10.6,8.2c0,.1-.1.1-.1.2a2.12,2.12,0,0,0,.9,2.8l11.5,5.7A2,2,0,0,0,1218.2,753.3Zm5.1-3.2a1.85,1.85,0,0,0,.5,1.7,2.51,2.51,0,0,0,3.5,1l11.1-6.4.2-.2a2.07,2.07,0,0,0,.4-2.9,21.46,21.46,0,0,0-11.1-7.6.37.37,0,0,0-.3-.1,2.22,2.22,0,0,0-2.4,1.8l-1.9,12.7Zm1.2,12a3.45,3.45,0,0,0-1.2-1.2,2.56,2.56,0,0,0-3.4,1.3l-5.2,11.7c0,.1-.1.2-.1.3a2.11,2.11,0,0,0,1.4,2.6,21.2,21.2,0,0,0,13.4-.5.35.35,0,0,1,.2-.1,2.12,2.12,0,0,0,.9-2.8l-6-11.3Zm-21.7-7.3a.37.37,0,0,1-.3-.1,2.09,2.09,0,0,0-2,2.1v.2a22,22,0,0,0,4.6,12.5l.2.2a2.05,2.05,0,0,0,2.9,0l9-9.2a2.62,2.62,0,0,0-1.6-4.4l-12.8-1.3Zm25.4,1a2.06,2.06,0,0,0-1.5.8,2.66,2.66,0,0,0,.2,3.7l9.5,8.6c.1.1.1.2.2.2a2.09,2.09,0,0,0,2.9-.5,21.25,21.25,0,0,0,3.8-12.9h0v-.3a2.12,2.12,0,0,0-2.4-1.7l-12.7,2.1Z"/><circle class="cls-13" cx="1222" cy="756.3" r="1.7"/><circle class="cls-14" cx="1222.1" cy="759.4" r="0.8"/><circle class="cls-14" cx="1218.9" cy="757.5" r="0.8"/><circle class="cls-14" cx="1220" cy="753.9" r="0.8"/><circle class="cls-14" cx="1223.7" cy="753.7" r="0.8"/><circle class="cls-14" cx="1226.5" cy="759.9" r="0.8"/><path class="cls-15" d="M1138.4,710.9l.2.7c2.3,7.4,4.4,15.1,6.1,22.7.3,1.4.5,3.4.8,5.6.9,7.1,1.9,16,7.2,19.8,4.9,3.5,14.5,3.8,23.9,3.8h3.8a3.38,3.38,0,0,0,3.1-3.7c-.1-1-.2-3.2-.2-4.5,0-20.8,17.3-37.8,38.6-37.8s38.6,16.9,38.6,37.8v1.9a3.61,3.61,0,0,0,2.2,3.3,2,2,0,0,0,.6.2l.3.1h.4c24.9-.1,50,0,74.9,0,17.1.1,34.5.1,51.8.1,16.1,0,32.1,0,47.7-.1a3.46,3.46,0,0,0,3.5-3.4v-2c0-20.8,17.3-37.8,38.6-37.8s38.6,16.9,38.6,37.8v.5a2.85,2.85,0,0,0,.4,2.2,3.42,3.42,0,0,0,4.7,1.3c10.8-6.3,24.6-18.3,31.4-33.3a154,154,0,0,0,6.7-17.5v-.1c1.6-5,3-10.1,4.1-15.2s2.1-10.9.4-16.7h0a.76.76,0,0,0-.1-.4l-.1-.2v-.1c-2.5-7.2-9.4-13.6-19.1-17.6-7.6-3.1-15.8-4.9-23.8-6.6-4.5-.9-9.1-1.9-13.4-3.1-14.3-4-28.4-9.3-42.1-14.4-17.9-6.7-36.5-13.7-55.9-17.8a203.33,203.33,0,0,0-107.7,6.4c-13.6,4.7-26.3,11.3-38.6,17.7-5.1,2.7-10.4,5.5-15.6,8-18.1,8.8-38.3,14.3-57.4,19.1-3.5.9-7.3,1.6-11.3,2.4-15.3,3-32.6,6.4-42.2,18.8h0C1133.8,696.2,1136.2,704.1,1138.4,710.9Z"/><path class="cls-16" d="M1332.7,618a.68.68,0,0,0,.4-.8c-.2-.8.3-1.7-.2-1.8-.8-.1-2.2.1-7,1.2-6.7,1.5-10.4,3.1-21.8,6.5-14.3,4.2-26.9,11.8-39.5,18.3-4.8,2.4-15.4,7.5-21.3,10.2.7,1.3,1.3,2.5,2.1,3.7C1296.3,629.7,1310.7,625.2,1332.7,618Z"/><path class="cls-17" d="M1258.8,658.2c27.2-17.3,78.9-42.6,121.5-41.2,57.5,1.9,10.2,6,10.3,12.6l.6,35.7c.1,6.3-4.3,11.6-9.9,11.7L1264,679.7c-4.8.1-8.8-3.4-10-8.7A12,12,0,0,1,1258.8,658.2Z"/><path class="cls-17" d="M1385.6,631.3a12.36,12.36,0,0,1,3.6-9.1,14.25,14.25,0,0,1,11.4-4.1c42.2,4.4,65.1,22.1,77,36.2a12.53,12.53,0,0,1,2.1,12.5,13.57,13.57,0,0,1-12.5,8.6l-67.5,1.5c-63.9,1.5-13.6-5.5-13.7-12.6Z"/><path class="cls-18" d="M1169.5,688.4c2.7-2.3,35.8-11.3,41.7-13.1s13.6-3.9,15.9-5.4,7.4-7.7,9.1-11.3"/><path class="cls-18" d="M1556.7,679.3c-3-1.7-36.7-5-42.7-5.8s-13.8-1.5-16.3-2.6-8.5-6.1-10.6-9.2"/><path class="cls-19" d="M1267.4,679.2c-1.3,3.9-2.2,20.5-1.5,42.2s3,35.2,4.3,37.8c1.7,0,110.1.7,114.9.3s7.6-4.1,9.2-34.8-2.6-41.8-6.2-49.4Z"/><ellipse class="cls-20" cx="1155.97" cy="738.15" rx="3" ry="7.7" transform="translate(-64.12 111.64) rotate(-5.38)"/><path class="cls-21" d="M1154.6,738.4c.3,3.5,1.8,6.1,3.5,6.1a13.55,13.55,0,0,0,.8-6.6,14.52,14.52,0,0,0-1.9-6.1h0C1155.3,731.9,1154.3,734.9,1154.6,738.4Z"/><path class="cls-20" d="M1149.9,753h0c3.8,1.3,12.9,2.3,15.4,2.5a32.38,32.38,0,0,0-1.6-5.3c-1.9-.7-10.4-3.3-12.7-4.4A8.68,8.68,0,0,1,1149.9,753Z"/><path class="cls-22" d="M1390.5,634.6a10.37,10.37,0,0,1,3.1-7.4,12,12,0,0,1,9.6-3.3c35.5,3.6,54.9,18,64.9,29.5a9.77,9.77,0,0,1,1.8,10.2,11.46,11.46,0,0,1-10.5,7l-56.9,1.3c-6.2.2-11.4-4.5-11.5-10.3Z"/><path class="cls-22" d="M1265.4,657.6c24.1-14.1,70.2-37.3,107.7-33.7a10.27,10.27,0,0,1,9.1,10.2l.5,29.1a9.16,9.16,0,0,1-8.8,9.5L1270,675a8.79,8.79,0,0,1-8.8-7A9.38,9.38,0,0,1,1265.4,657.6Z"/><path class="cls-23" d="M1353.7,704.7c-8,.8-9.7-5.3-9.8-8.4s1.1-8.9,9.7-8.9,10.8,5.4,10.8,8.7C1364.4,700.6,1361.7,703.9,1353.7,704.7Z"/><path class="cls-24" d="M1360.9,693c-5.4,0-16.4.2-20.1,1.3s-1.3,5.9,1.6,5.3,20.7-1.7,26.7-1.2c3.4.3,4.2-1.3,4.1-2.6C1372.9,692.5,1369.7,692.9,1360.9,693Z"/><path class="cls-34" d="M1567.3,697.6c-.9,3.5-1.9,6.8-2.8,9.4-1,2.8-3.9,4.3-5.5,3.9-3.1-.8-5.4-8.5-3.5-16.1"/><path class="cls-26" d="M1555.4,694.9c2-7.8,6.7-13.6,9.3-13.5,1.7.1,4.1,2.1,4.4,5.2.3,2.7-.9,7.5-1.8,11.1"/><path class="cls-35" d="M1390.4,634.7a10.6,10.6,0,0,1,3.1-7.5,11.62,11.62,0,0,1,9.7-3.4c27.2,3.4,33,7.5,43.4,12.5,12.5,6-55.6,29.8-55.7,25.6Z"/><path class="cls-36" d="M1265.5,657.5c24.1-14.1,70.2-37.3,107.7-33.7,4.8,1.1,7.2,3.2,5.8,5-20.5,26.9-109,46.2-109,46.2a8.79,8.79,0,0,1-8.8-7A9.7,9.7,0,0,1,1265.5,657.5Z"/><polygon class="cls-17" points="1261.1 660 1274.4 651 1270.3 677.7 1260.7 675.9 1261.1 660"/><path class="cls-15" d="M1290.4,675c-5.6.9-20.8,2.1-25.3.3-3.6-4.2-5.6-9.2-5.1-10.9,4.6-3.4,15.3-6.1,20.4-6.1s9.9,4.1,10.6,5.1C1292.4,667.5,1292.4,673.5,1290.4,675Z"/><path class="cls-29" d="M1262.6,671.7a23.59,23.59,0,0,0,2.6,3.6c4.5,1.8,19.7.6,25.3-.3,1.8-1.5,1.9-7.4.5-11.5a17.72,17.72,0,0,0-7.6-4.7c2.7,1.1,6.3,3.8,6.5,4.8a45.58,45.58,0,0,1,.1,6.4C1288,670.9,1270.9,671.8,1262.6,671.7Z"/><circle class="cls-18" cx="1487.9" cy="693.7" r="10.1"/><path class="cls-23" d="M1497.9,695.8c-1.6,0-3.2-.6-3.2-2.7,0-1.8,2.3-1.9,3.4-1.9C1498.7,692,1498.9,695.2,1497.9,695.8Z"/><circle class="cls-10" cx="1480.29" cy="756.32" r="34.7"/><ellipse class="cls-11" cx="1480.29" cy="756.32" rx="24.2" ry="24.1" transform="translate(-25 51.07) rotate(-1.96)"/><path class="cls-12" d="M1476.5,753.3a2.47,2.47,0,0,0,2.1-3l-2.7-12.5c0-.1-.1-.2-.1-.3a2.12,2.12,0,0,0-2.7-1.3,21.47,21.47,0,0,0-10.6,8.2c0,.1-.1.1-.1.2a2.12,2.12,0,0,0,.9,2.8l11.5,5.7A2,2,0,0,0,1476.5,753.3Zm5.1-3.2a2.16,2.16,0,0,0,.5,1.7,2.53,2.53,0,0,0,3.5,1l11.1-6.4.2-.2a2.07,2.07,0,0,0,.4-2.9,21.46,21.46,0,0,0-11.1-7.6.37.37,0,0,0-.3-.1,2.22,2.22,0,0,0-2.4,1.8l-1.9,12.7Zm1.2,12a2.57,2.57,0,0,0-4.6.2L1473,774a.35.35,0,0,0-.1.2,2.11,2.11,0,0,0,1.4,2.6,21.2,21.2,0,0,0,13.4-.5.35.35,0,0,1,.2-.1,2.12,2.12,0,0,0,.9-2.8l-6-11.3Zm-21.6-7.3a.37.37,0,0,1-.3-.1,2.09,2.09,0,0,0-2,2.1v.2a22,22,0,0,0,4.6,12.5l.2.2a2.05,2.05,0,0,0,2.9,0l9-9.2a2.62,2.62,0,0,0-1.6-4.4l-12.8-1.3Zm25.3,1a2.06,2.06,0,0,0-1.5.8,2.66,2.66,0,0,0,.2,3.7l9.5,8.6c.1.1.1.2.2.2a2.09,2.09,0,0,0,2.9-.5,21.25,21.25,0,0,0,3.8-12.9h0v-.3a2.12,2.12,0,0,0-2.4-1.7l-12.7,2.1Z"/><circle class="cls-13" cx="1480.3" cy="756.3" r="1.7"/><circle class="cls-14" cx="1480.4" cy="759.4" r="0.8"/><circle class="cls-14" cx="1477.3" cy="757.5" r="0.8"/><circle class="cls-14" cx="1478.3" cy="753.9" r="0.8"/><circle class="cls-14" cx="1482" cy="753.7" r="0.8"/><circle class="cls-14" cx="1483.3" cy="757.2" r="0.8"/><path class="cls-37" d="M1255.4,735.7c3.1,5.5,5.1,12.4,5.2,16.3l.1,5.7a3.85,3.85,0,0,0,3,3c20,0,74.4.1,97.7.1,21,0,59.6.3,77.6-.2,1-.1,2.8-1.5,2.8-2.6a54.4,54.4,0,0,1,1.1-11.4c.4-2,2.7-11.2,12.1-19.7.9-.8-3.2-2.2-4.4-2.2-31.8.4-153.8,6.1-188.9,8.9C1255.6,734.1,1254.7,734.7,1255.4,735.7Z"/><path class="cls-31" d="M1440.1,760.3a3.35,3.35,0,0,0,1.5-1.8c.4-.3-.1-11.3,3.8-19.2,5.1-10.2,16.8-22.2,36.1-21.6,8.4,0,22.4,4.8,28.8,13.8,7.2,7.7,9.1,19.6,8.7,25.3.8,2.1.2,3.1,2.4,2.8.9-25.9-19-46.6-42.5-46.6s-44.5,22.9-42.5,47.8C1437.7,760.8,1439.5,761,1440.1,760.3Z"/><path class="cls-31" d="M1181.9,763.3a3.33,3.33,0,0,0,1.7-2.3c.3-.6-.6-13.4,3.3-21.3,5.1-10.2,16.7-22.3,36-21.7,8.5,0,22.4,4.8,28.8,13.8,7.2,7.7,9.4,19.7,9,25.4a3.33,3.33,0,0,0,2.3,3.4c.8-25.9-19.2-47.3-42.7-47.3s-44.4,25.4-42.4,50.3A11,11,0,0,0,1181.9,763.3Z"/><path class="cls-32" d="M1162.4,688.3c-1.9-1.4-5.3.1-7.7,3.3s-5.2,8.3-3.4,10.1,7.7-1.9,10.1-5.1S1164.3,689.7,1162.4,688.3Z"/><path class="cls-32" d="M1141.6,707.9c-2.2.5-2.9-3.6-2.2-6.5,2.2-9.5,10.8-14.8,12.4-13.9s.5,4.7-4.3,13.1C1145.9,703.3,1143.8,707.4,1141.6,707.9Z"/><path class="cls-33" d="M1161.3,696.6c-1.9,2.6-5.9,5.4-8.4,5.6-1-1.8-.5-5.1,1.5-8.3,2.4-3.9,6-6,8.1-4.7a2,2,0,0,1,.9.9C1163.8,691.8,1163.1,694.3,1161.3,696.6Z"/><path class="cls-33" d="M1143,707c-1-1.2-1.6-3.7-.7-6.9,1.3-4.7,6.7-10.4,10.2-11.2,0,1.9-1.5,5.5-5,11.7C1146.3,702.7,1144.7,705.6,1143,707Z"/><path class="cls-17" d="M1228.2,657.5c.5.8,3.6,1.5,5.5,1.5a26.28,26.28,0,0,0,11.6-3.6c1.4-1.1-1.5-2.4-1.8-3.9C1242.7,651.7,1236.1,654.5,1228.2,657.5Z"/><path class="cls-17" d="M1248.7,653.8l9.8,7.7h0a.19.19,0,0,1,0,.3h0a.19.19,0,0,1-.3,0l-10-7.8Z"/><circle class="cls-20" cx="1240.8" cy="654.6" r="1.5"/><path class="cls-29" d="M1238.7,657.4c.6.2,2.7-.8,3.2-1.6a1.27,1.27,0,0,0,.1-.6,1.11,1.11,0,0,0-1.2-1C1239.2,654.2,1238.1,657.2,1238.7,657.4Z"/><path class="cls-9" d="M1142.6,829c11.5-34.2-14.3-57.9-44.7-60.6-30.9-2.7-48.6,13.7-52.4,33.9-3.2,17,5.5,25.6,8.3,27.9.5.4,1.1,1.4,1.6,1.1,34.2-18.6,72-9.6,85.1-1.1C1141.3,830.7,1142.4,829.9,1142.6,829Z"/><path class="cls-9" d="M871.6,825.8c8.7-35-18.9-56.5-49.4-56.8-30.9-.3-47.3,17.5-49.5,37.9-1.8,17.3,7.6,25.2,10.5,27.2.5.4.3.5.9.3,32.6-21.2,71.1-12.6,85.5-2.9C870.4,832,871.4,826.7,871.6,825.8Z"/><circle class="cls-10" cx="826.6" cy="827.04" r="36.4"/><circle class="cls-11" cx="826.6" cy="827" r="25.4"/><path class="cls-12" d="M822.5,823.9a2.66,2.66,0,0,0,2.1-3.2l-2.8-13.2c0-.1-.1-.2-.1-.3a2.23,2.23,0,0,0-2.8-1.3,22.47,22.47,0,0,0-11.1,8.6c0,.1-.1.2-.1.3a2.16,2.16,0,0,0,1,2.9l12.1,6A2.1,2.1,0,0,0,822.5,823.9Zm5.9-1.3a2.65,2.65,0,0,0,3.7,1l11.7-6.7c0-.1.1-.1.2-.2a2.32,2.32,0,0,0,.4-3.1,21.89,21.89,0,0,0-11.6-8,.37.37,0,0,0-.3-.1,2.16,2.16,0,0,0-2.5,1.8l-2,13.3A3.12,3.12,0,0,0,828.4,822.6Zm-.6,9.3a2.71,2.71,0,0,0-3.6,1.4l-5.4,12.3c0,.1-.1.2-.1.3a2.19,2.19,0,0,0,1.5,2.7,22.67,22.67,0,0,0,14.1-.5c.1,0,.2-.1.3-.1a2.18,2.18,0,0,0,.9-3l-6.3-11.9A3.33,3.33,0,0,0,827.8,831.9Zm-21.3-6.4a.19.19,0,0,0-.3,0,2.16,2.16,0,0,0-2.2,2.2v.2a22.63,22.63,0,0,0,4.8,13.1l.2.2a2.12,2.12,0,0,0,3.1,0l9.4-9.7a2.47,2.47,0,0,0,.8-1.6,2.7,2.7,0,0,0-2.4-3l-13.4-1.4Zm26.6,1a3.1,3.1,0,0,0-1.7.7,2.81,2.81,0,0,0,.2,3.9l10,9c0,.1.1.1.2.2a2.23,2.23,0,0,0,3.1-.5,21.69,21.69,0,0,0,4-13.5h0v-.2a2.16,2.16,0,0,0-2.5-1.8l-13.3,2.2Z"/><circle class="cls-13" cx="826.6" cy="827.04" r="1.8" transform="translate(-27.8 28.76) rotate(-1.96)"/><circle class="cls-14" cx="826.7" cy="830.3" r="0.8"/><circle class="cls-14" cx="823.4" cy="828.3" r="0.8"/><circle class="cls-14" cx="824.5" cy="824.5" r="0.8"/><circle class="cls-14" cx="828.4" cy="824.3" r="0.8"/><circle class="cls-14" cx="829.7" cy="828" r="0.8"/><path class="cls-15" d="M738.8,779.2l.2.7c2.4,7.8,4.6,15.9,6.4,23.9.3,1.5.5,3.6.8,5.9.8,7.5,1.9,16.8,7.5,20.8,5.1,3.7,15.2,4,25.1,4h4a3.59,3.59,0,0,0,3.3-3.9c-.1-1.1-.2-3.4-.2-4.8,0-21.9,18.2-39.7,40.5-39.7s40.5,17.9,40.5,39.8v2a3.72,3.72,0,0,0,2.3,3.5,2,2,0,0,0,.6.2l.4.1h.5c26.2-.1,52.5,0,78.7,0,18,.1,36.2.1,54.4.1,16.9,0,33.7,0,50.1-.1a3.59,3.59,0,0,0,3.6-3.6V826c0-21.9,18.3-39.7,40.6-39.7s40.5,17.9,40.5,39.8v.5a3.62,3.62,0,0,0,5.5,3.5c11.3-6.5,25.9-19.1,33-34.9a168.3,168.3,0,0,0,7-18.3v-.2c1.7-5.2,3.1-10.6,4.3-15.9s2.2-11.4.4-17.5h0a.76.76,0,0,0-.1-.4l-.1-.2v-.1c-2.6-7.6-9.9-14.3-20.1-18.5-8-3.3-16.7-5.1-25-6.9-4.6-1-9.4-2-14-3.3-15-4.1-29.8-9.7-44.2-15.1-18.8-7.1-38.4-14.4-58.7-18.7a214.23,214.23,0,0,0-113.1,6.7c-14.3,4.9-27.7,11.9-40.6,18.6-5.4,2.7-10.9,5.6-16.4,8.3-19,9.3-40.2,15-60.3,20.1-3.7.9-7.7,1.7-11.9,2.5-16,3.2-34.2,6.8-44.3,19.8h0C733.9,763.9,736.5,772.2,738.8,779.2Z"/><path class="cls-16" d="M942.8,681.7a.81.81,0,0,0,.4-.9c-.1-.9.3-1.8-.2-1.9-.8-.1-2.2.2-7.3,1.3-7.1,1.5-10.9,3.2-22.9,6.8-15,4.5-28.3,12.5-41.5,19.3-5.1,2.5-16.2,7.9-22.4,10.7a36.07,36.07,0,0,0,2.2,3.9C904.6,694.1,919.8,689.3,942.8,681.7Z"/><path class="cls-17" d="M865.3,724c28.5-18.2,82.9-44.8,127.6-43.3,60.3,1.9,10.7,6.3,10.8,13.2l.6,37.5c.1,6.6-4.6,12.2-10.4,12.3l-123.2,2.8c-5.1.1-9.3-3.5-10.5-9.1A12.36,12.36,0,0,1,865.3,724Z"/><path class="cls-17" d="M998.3,695.7a13.12,13.12,0,0,1,3.8-9.6,14.55,14.55,0,0,1,12-4.3c44.2,4.7,68.3,23.3,80.8,38.1a13,13,0,0,1,2.3,13.2,14.09,14.09,0,0,1-13.1,9l-70.9,1.6c-67.2,1.5-14.3-5.8-14.4-13.3Z"/><path class="cls-18" d="M771.4,755.6c2.9-2.4,37.6-11.8,43.8-13.7s14.3-4.2,16.7-5.7,7.9-8.1,9.6-11.8"/><path class="cls-18" d="M1178.3,746.2c-3.2-1.8-38.5-5.2-44.9-6.1s-14.6-1.7-17.2-2.8-8.9-6.4-11.1-9.6"/><path class="cls-19" d="M874.2,746c-1.4,4.1-2.3,21.5-1.6,44.3s3.1,36.9,4.5,39.7c1.8.1,115.7.9,120.7.4s8-4.3,9.7-36.6-2.7-43.9-6.5-51.9Z"/><ellipse class="cls-20" cx="757.24" cy="807.88" rx="3.1" ry="8.1" transform="translate(-72.41 74.56) rotate(-5.38)"/><path class="cls-21" d="M755.8,808.2c.3,3.6,2,6.4,3.7,6.4a15,15,0,0,0,.8-7,14.55,14.55,0,0,0-2-6.4h0C756.5,801.4,755.5,804.6,755.8,808.2Z"/><path class="cls-20" d="M750.9,823.5h0c4,1.4,13.6,2.4,16.2,2.6a38.59,38.59,0,0,0-1.7-5.5c-2-.8-11-3.6-13.4-4.7C752.6,818.7,752.5,821.2,750.9,823.5Z"/><path class="cls-22" d="M1003.6,699.2a10.57,10.57,0,0,1,3.2-7.8,12.64,12.64,0,0,1,10.1-3.5c37.4,3.8,57.7,19,68.2,31a10.42,10.42,0,0,1,1.9,10.8,12,12,0,0,1-11,7.4l-59.8,1.3c-6.6.2-12-4.7-12.1-10.8Z"/><path class="cls-22" d="M872.3,723.4c25.3-14.8,73.7-39.1,113.1-35.4a10.73,10.73,0,0,1,9.5,10.7l.5,30.5a9.61,9.61,0,0,1-9.2,10l-109.1,2.5a9.25,9.25,0,0,1-9.3-7.4A9.89,9.89,0,0,1,872.3,723.4Z"/><path class="cls-23" d="M964.9,772.9c-8.5.7-10.2-5.7-10.3-8.9s1.1-9.3,10.2-9.3,11.4,5.6,11.4,9.1C976.2,768.5,973.4,772.2,964.9,772.9Z"/><path class="cls-24" d="M972.5,760.5c-5.7.1-17.3.3-21.1,1.4s-1.3,6.1,1.7,5.5c3.2-.6,21.7-1.7,28-1.2,3.5.3,4.4-1.4,4.3-2.8C985.1,760,981.7,760.4,972.5,760.5Z"/><path class="cls-38" d="M1189.3,765.4a101.34,101.34,0,0,1-2.9,9.9c-1,3-4.1,4.5-5.8,4.1-3.2-.8-5.7-8.9-3.7-16.9"/><path class="cls-26" d="M1176.9,762.6c2-8.3,6.9-14.3,9.7-14.2,1.8.1,4.3,2.1,4.6,5.4.3,2.8-1,7.8-1.9,11.6"/><path class="cls-39" d="M1003.5,699.1a10.63,10.63,0,0,1,3.2-7.9,12.29,12.29,0,0,1,10.3-3.5c28.5,3.7,34.6,8,45.5,13.2,13.2,6.3-58.4,31.3-58.5,26.9Z"/><path class="cls-40" d="M872.4,723.3c25.3-14.8,73.7-39.1,113.1-35.4,5,1.2,7.6,3.4,6.1,5.3-21.6,28.2-114.5,48.5-114.5,48.5a9.25,9.25,0,0,1-9.3-7.4A10,10,0,0,1,872.4,723.3Z"/><polygon class="cls-17" points="867.6 725.8 881.6 716.5 877.3 744.4 867.3 742.6 867.6 725.8"/><path class="cls-15" d="M898.5,741.7c-6,.9-21.9,2.2-26.6.3-3.7-4.4-5.8-9.7-5.3-11.5,4.8-3.6,16.1-6.5,21.4-6.4s10.4,4.3,11.1,5.4C900.5,733.8,900.5,740,898.5,741.7Z"/><path class="cls-29" d="M869.1,738.2a31.76,31.76,0,0,0,2.7,3.7c4.7,1.9,20.7.6,26.6-.3,2-1.6,2.1-7.8.6-12.1a17.94,17.94,0,0,0-8-4.9c2.9,1.1,6.7,3.9,6.9,5a50,50,0,0,1,.1,6.7C895.9,737.3,877.9,738.3,869.1,738.2Z"/><circle class="cls-18" cx="1105.9" cy="761.3" r="10.6"/><path class="cls-23" d="M1116.3,763.4c-1.6,0-3.3-.6-3.3-2.8,0-1.9,2.3-2,3.5-2C1117.2,759.5,1117.4,762.8,1116.3,763.4Z"/><circle class="cls-10" cx="1097.9" cy="827" r="36.4"/><circle class="cls-11" cx="1097.9" cy="827" r="25.4"/><path class="cls-12" d="M1093.8,824a2.81,2.81,0,0,0,2.1-3.3l-2.8-13.2c0-.1-.1-.2-.1-.3a2.23,2.23,0,0,0-2.8-1.3,22.47,22.47,0,0,0-11.1,8.6c0,.1-.1.2-.1.3a2.16,2.16,0,0,0,1,2.9l12.1,6A3.61,3.61,0,0,0,1093.8,824Zm6-1.5a2.65,2.65,0,0,0,3.7,1l11.7-6.7c0-.1.1-.1.2-.2a2.32,2.32,0,0,0,.4-3.1,22.94,22.94,0,0,0-11.7-7.9.37.37,0,0,0-.3-.1,2.16,2.16,0,0,0-2.5,1.8l-2,13.3A2.4,2.4,0,0,0,1099.8,822.5Zm-.6,9.4a2.71,2.71,0,0,0-3.6,1.4l-5.5,12.3c0,.1-.1.2-.1.3a2.19,2.19,0,0,0,1.5,2.7,22.67,22.67,0,0,0,14.1-.5c.1,0,.2-.1.3-.1a2.18,2.18,0,0,0,.9-3l-6.3-11.9A3.74,3.74,0,0,0,1099.2,831.9Zm-21.4-6.4a.19.19,0,0,0-.3,0,2.16,2.16,0,0,0-2.2,2.2v.2a22.63,22.63,0,0,0,4.8,13.1l.2.2a2.12,2.12,0,0,0,3.1,0l9.4-9.7a2.47,2.47,0,0,0,.8-1.6,2.7,2.7,0,0,0-2.4-3l-13.4-1.4Zm26.6,1a2.57,2.57,0,0,0-1.6.7,2.72,2.72,0,0,0,.1,3.9l10,9c0,.1.1.1.2.2a2.23,2.23,0,0,0,3.1-.5,21.69,21.69,0,0,0,4-13.5h0v-.2a2.16,2.16,0,0,0-2.5-1.8l-13.3,2.2Z"/><circle class="cls-13" cx="1097.9" cy="827" r="1.8"/><circle class="cls-14" cx="1098" cy="830.3" r="0.8"/><circle class="cls-14" cx="1094.7" cy="828.2" r="0.8"/><circle class="cls-14" cx="1095.8" cy="824.5" r="0.8"/><circle class="cls-14" cx="1099.7" cy="824.3" r="0.8"/><circle class="cls-14" cx="1101" cy="828" r="0.8"/><path class="cls-41" d="M861.5,805.4c3.2,5.7,5.4,13,5.5,17.1l.1,6a3.93,3.93,0,0,0,3.2,3.2c21,0,78.1.1,102.6.1,22.1,0,62.6.3,81.5-.2,1.2,0,3-1.6,3-2.7a53.63,53.63,0,0,1,1.1-12c.5-2.1,2.9-11.8,12.8-20.7,1-.8-3.3-2.3-4.6-2.3-33.4.4-161.5,6.4-198.4,9.3C861.8,803.7,861,804.3,861.5,805.4Z"/><path class="cls-31" d="M1055.9,831.4a3.58,3.58,0,0,0,1.5-1.9c.5-.3-.1-11.9,4-20.2,5.4-10.8,17.6-23.3,37.9-22.7,8.8,0,23.5,5,30.2,14.5,7.5,8,9.6,20.5,9.1,26.5.8,2.1.2,3.2,2.5,2.9.9-27.2-19.9-48.9-44.6-48.9s-46.9,24-44.7,50.2C1053.1,831.8,1055,831.9,1055.9,831.4Z"/><path class="cls-31" d="M784.4,834.3a3.65,3.65,0,0,0,1.8-2.4c.3-.6-.6-14,3.5-22.3,5.4-10.7,17.5-23.3,37.8-22.7,8.8,0,23.5,5,30.2,14.5,7.5,8,9.9,20.6,9.4,26.6a3.58,3.58,0,0,0,2.4,3.6c.9-27.2-20.1-49.7-44.8-49.7s-46.7,26.6-44.5,52.8A10.2,10.2,0,0,0,784.4,834.3Z"/><path class="cls-32" d="M764,755.6c-2-1.4-5.6.1-8.1,3.5s-5.5,8.7-3.6,10.6,8.1-2,10.6-5.4S766,757,764,755.6Z"/><path class="cls-32" d="M742,776.1c-2.3.5-3-3.7-2.3-6.8,2.4-10,11.4-15.6,13.1-14.6s.5,5-4.5,13.8C746.7,771.3,744.3,775.6,742,776.1Z"/><path class="cls-33" d="M762.9,764.3c-1.9,2.6-6.1,5.5-8.8,5.8-1-2-.5-5.5,1.6-8.8,2.5-4.1,6.3-6.2,8.5-4.9a2.84,2.84,0,0,1,.9,1A9.69,9.69,0,0,1,762.9,764.3Z"/><path class="cls-33" d="M743.6,775.3c-1.1-1.3-1.7-3.9-.8-7.3,1.4-5,7-11,10.7-11.8.1,2-1.5,5.8-5.2,12.3C747,770.7,745.4,773.8,743.6,775.3Z"/><path class="cls-17" d="M833.1,723.3c.5.8,3.7,1.6,5.7,1.6a27.43,27.43,0,0,0,12.2-3.8c1.5-1.2-1.6-2.5-1.9-4.1C848.4,717.2,841.4,720.1,833.1,723.3Z"/><path class="cls-17" d="M854.6,719.4l10.3,8.1a.19.19,0,0,1,0,.3h0a.19.19,0,0,1-.3,0l-10.5-8.3Z"/><circle class="cls-20" cx="846.4" cy="720.2" r="1.6"/><path class="cls-29" d="M844.3,723c.5.2,2.8-.9,3.3-1.7a1.27,1.27,0,0,0,.1-.6,1.2,1.2,0,0,0-1.3-1C844.7,719.8,843.8,722.8,844.3,723Z"/></g></g></g></svg>