<svg xmlns="http://www.w3.org/2000/svg" xmlns:xlink="http://www.w3.org/1999/xlink" viewBox="0 0 1931.7 970.4"><defs><style>.cls-1{fill:#595b5b;}.cls-12,.cls-2,.cls-33{fill:#fff;}.cls-3{fill:#6d6c6c;}.cls-4{fill:#c4c4c4;}.cls-5{fill:#f4d5c1;}.cls-6{fill:#f0c2a2;}.cls-7{fill:#d9f9f3;}.cls-8{fill:#fafffe;opacity:0.6;}.cls-10,.cls-12,.cls-19,.cls-33,.cls-8{isolation:isolate;}.cls-10,.cls-9{fill:#515759;}.cls-10{opacity:0.28;}.cls-11{fill:#474e4b;}.cls-12{opacity:0.38;}.cls-13{fill:#373a35;}.cls-14{fill:#c3c4c7;}.cls-15{fill:#85898c;}.cls-16{fill:#acb1b5;}.cls-17{fill:#8b9298;}.cls-18{fill:#02c0af;}.cls-19,.cls-23{fill:#8dd5ef;}.cls-19{opacity:0.53;}.cls-20{fill:#4f5858;}.cls-21,.cls-22{fill:none;stroke:#4f5858;}.cls-21{stroke-linecap:round;stroke-linejoin:round;stroke-width:0.5px;}.cls-22{stroke-miterlimit:10;stroke-width:0.7px;}.cls-24{fill:#00a68e;}.cls-25{fill:#00b39e;}.cls-26{fill:url(#linear-gradient);}.cls-27{fill:#d92828;}.cls-28{fill:url(#linear-gradient-2);}.cls-29{fill:url(#linear-gradient-3);}.cls-30{fill:#3d4642;}.cls-31{fill:url(#linear-gradient-4);}.cls-32{fill:#b4eeff;}.cls-33{opacity:0.5;}</style><linearGradient id="linear-gradient" x1="511.38" y1="32.89" x2="524.73" y2="32.89" gradientTransform="matrix(0.99, -0.03, -0.03, 0.87, 235.45, 758.07)" gradientUnits="userSpaceOnUse"><stop offset="0.18" stop-color="#83181e"/><stop offset="1" stop-color="#ac1e1d"/></linearGradient><linearGradient id="linear-gradient-2" x1="867.58" y1="928.33" x2="928.21" y2="928.33" gradientTransform="translate(0 -220.38)" gradientUnits="userSpaceOnUse"><stop offset="0.24" stop-color="#fff" stop-opacity="0.3"/><stop offset="1" stop-color="#8dd5ef" stop-opacity="0.4"/></linearGradient><linearGradient id="linear-gradient-3" x1="939.68" y1="934.99" x2="1064.21" y2="934.99" gradientTransform="translate(0 -220.38)" gradientUnits="userSpaceOnUse"><stop offset="0.22" stop-color="#fff" stop-opacity="0.3"/><stop offset="1" stop-color="#8dd5ef" stop-opacity="0.4"/></linearGradient><linearGradient id="linear-gradient-4" x1="963.48" y1="993.7" x2="967.26" y2="1050.36" gradientTransform="translate(0 -220.38)" gradientUnits="userSpaceOnUse"><stop offset="0" stop-color="#c3c4c7"/><stop offset="1" stop-color="#02c0af" stop-opacity="0"/></linearGradient></defs><title>Asset 1</title><g id="Layer_2" data-name="Layer 2"><g id="Layer_1-2" data-name="Layer 1"><polygon class="cls-1" points="0 970 1165.2 970.4 1354 781.6 193.92 781.6 0 970"/><polygon class="cls-2" points="810.02 781.67 678.7 912 673 906.4 799.13 781.6 810.02 781.67"/><polygon class="cls-3" points="1931.7 781.65 1354 781.6 1165.2 970.4 1931.7 970.4 1931.7 781.65"/><polygon class="cls-4" points="1354 781.6 1165.2 970.4 1153.8 970.4 1342.6 781.6 1354 781.6"/><rect class="cls-2" x="346.8" y="799.1" width="914.9" height="10.1"/><rect class="cls-2" x="273.7" y="867.1" width="908.5" height="9.9"/><polygon class="cls-5" points="1931.7 84.2 1669.4 84.2 1687.7 0 1931.6 0 1931.7 84.2"/><rect class="cls-6" x="1669.4" y="84.2" width="262.2" height="740.8"/><rect class="cls-4" x="1720.4" y="565.7" width="74.9" height="112"/><rect class="cls-7" x="1724.6" y="570.3" width="67.3" height="103.5"/><polygon class="cls-8" points="1791.1 673 1723.7 569.5 1791.1 569.5 1791.1 673"/><rect class="cls-4" x="1825.6" y="565.7" width="74.9" height="112"/><rect class="cls-7" x="1829.8" y="570.3" width="67.3" height="103.5"/><polygon class="cls-8" points="1896.3 673.5 1829 569.9 1896.3 569.9 1896.3 673.5"/><rect class="cls-4" x="1720.4" y="390.6" width="74.9" height="112"/><rect class="cls-7" x="1724.6" y="394.4" width="67.3" height="103.6"/><polygon class="cls-8" points="1791.1 497.9 1723.7 394.4 1791.1 394.4 1791.1 497.9"/><rect class="cls-4" x="1825.6" y="390.6" width="74.9" height="112"/><rect class="cls-7" x="1829.8" y="394.4" width="67.3" height="103.6"/><polygon class="cls-8" points="1896.3 498.4 1829 394.8 1896.3 394.8 1896.3 498.4"/><rect class="cls-4" x="1720.4" y="213.8" width="74.9" height="112"/><rect class="cls-7" x="1724.6" y="218.4" width="67.3" height="103.6"/><polygon class="cls-8" points="1791.1 322 1723.7 218.4 1791.1 218.4 1791.1 322"/><rect class="cls-4" x="1826.4" y="213.8" width="74.9" height="112"/><rect class="cls-7" x="1829.8" y="218.4" width="67.3" height="103.6"/><polygon class="cls-8" points="1896.3 322.4 1829 218.9 1896.3 218.9 1896.3 322.4"/><path class="cls-9" d="M877.8,759.4c12.5-8.1,48.5-16.6,81,1,.5.3,1.1-.7,1.5-1,2.6-2.1,10.9-10.3,7.9-26.6-3.6-19.2-20.5-34.8-49.9-32.2-28.9,2.5-53.5,25.1-42.6,57.7C876,759,877,759.8,877.8,759.4Z"/><path class="cls-10" d="M962.3,760.8c2-24.9-19-47.8-42.5-47.8s-43.3,20.7-42.5,46.6c2.2.3,1.6-.7,2.4-2.8-.4-5.7,1.5-17.6,8.7-25.3,6.4-9,20.3-13.8,28.8-13.8,19.3-.6,31,11.4,36.1,21.6,3.9,7.9,3.4,18.9,3.8,19.2a3.35,3.35,0,0,0,1.5,1.8C959.2,761,961,760.8,962.3,760.8Z"/><ellipse class="cls-11" cx="775.73" cy="738.15" rx="7.7" ry="3" transform="translate(-31.9 1441.25) rotate(-84.62)"/><path class="cls-12" d="M774.7,731.8h0a14.52,14.52,0,0,0-1.9,6.1,13.55,13.55,0,0,0,.8,6.6c1.7,0,3.2-2.6,3.5-6.1S776.4,731.9,774.7,731.8Z"/><path class="cls-11" d="M780.7,745.8c-2.3,1.1-10.8,3.7-12.7,4.4a32.38,32.38,0,0,0-1.6,5.3c2.5-.2,11.6-1.2,15.4-2.5h0A8.68,8.68,0,0,1,780.7,745.8Z"/><path class="cls-9" d="M791.2,830.2c13.1-8.5,50.9-17.5,85.1,1.1.5.3,1.1-.7,1.6-1.1,2.8-2.3,11.5-10.9,8.3-27.9-3.8-20.2-21.5-36.6-52.4-33.9-30.4,2.7-56.2,26.4-44.7,60.6C789.3,829.9,790.4,830.7,791.2,830.2Z"/><path class="cls-9" d="M1062.1,831.5c14.4-9.7,52.9-18.3,85.5,2.9.6.2.4.1.9-.3,2.9-2,12.3-9.9,10.5-27.2-2.2-20.4-18.6-38.2-49.5-37.9-30.5.3-58.1,21.8-49.4,56.8C1060.3,826.7,1061.3,832,1062.1,831.5Z"/><circle class="cls-13" cx="1105.1" cy="827.04" r="36.4"/><circle class="cls-14" cx="1105.1" cy="827" r="25.4"/><path class="cls-15" d="M1110.9,823.7l12.1-6a2.16,2.16,0,0,0,1-2.9c0-.1-.1-.2-.1-.3a22.47,22.47,0,0,0-11.1-8.6,2.23,2.23,0,0,0-2.8,1.3c0,.1-.1.2-.1.3l-2.8,13.2a2.66,2.66,0,0,0,2.1,3.2A2.1,2.1,0,0,0,1110.9,823.7Zm-7.2-3.1-2-13.3a2.16,2.16,0,0,0-2.5-1.8.37.37,0,0,0-.3.1,21.89,21.89,0,0,0-11.6,8,2.32,2.32,0,0,0,.4,3.1c.1.1.2.1.2.2l11.7,6.7a2.65,2.65,0,0,0,3.7-1A3.12,3.12,0,0,0,1103.7,820.6Zm-1.2,12.5-6.3,11.9a2.18,2.18,0,0,0,.9,3c.1,0,.2.1.3.1a22.67,22.67,0,0,0,14.1.5,2.19,2.19,0,0,0,1.5-2.7c0-.1-.1-.2-.1-.3l-5.4-12.3a2.71,2.71,0,0,0-3.6-1.4A3.33,3.33,0,0,0,1102.5,833.1Zm22.7-7.6-13.4,1.4a2.7,2.7,0,0,0-2.4,3,2.47,2.47,0,0,0,.8,1.6l9.4,9.7a2.12,2.12,0,0,0,3.1,0l.2-.2a22.63,22.63,0,0,0,4.8-13.1v-.2a2.16,2.16,0,0,0-2.2-2.2.19.19,0,0,0-.3,0Zm-26.6,1-13.3-2.2a2.16,2.16,0,0,0-2.5,1.8v.2h0a21.69,21.69,0,0,0,4,13.5,2.23,2.23,0,0,0,3.1.5c.1-.1.2-.1.2-.2l10-9a2.81,2.81,0,0,0,.2-3.9,3.1,3.1,0,0,0-1.7-.7Z"/><circle class="cls-16" cx="1105.1" cy="827.04" r="1.8" transform="translate(240.75 1903.2) rotate(-88.04)"/><circle class="cls-17" cx="1105" cy="830.3" r="0.8"/><circle class="cls-17" cx="1108.3" cy="828.3" r="0.8"/><circle class="cls-17" cx="1107.2" cy="824.5" r="0.8"/><circle class="cls-17" cx="1103.3" cy="824.3" r="0.8"/><circle class="cls-17" cx="1102" cy="828" r="0.8"/><path class="cls-18" d="M1191.7,756.1h0c-10.1-13-28.3-16.6-44.3-19.8-4.2-.8-8.2-1.6-11.9-2.5-20.1-5.1-41.3-10.8-60.3-20.1-5.5-2.7-11-5.6-16.4-8.3-12.9-6.7-26.3-13.7-40.6-18.6a214.23,214.23,0,0,0-113.1-6.7c-20.3,4.3-39.9,11.6-58.7,18.7-14.4,5.4-29.2,11-44.2,15.1-4.6,1.3-9.4,2.3-14,3.3-8.3,1.8-17,3.6-25,6.9-10.2,4.2-17.5,10.9-20.1,18.5v.1l-.1.2a.76.76,0,0,0-.1.4h0c-1.8,6.1-.8,12.2.4,17.5s2.6,10.7,4.3,15.9v.2a168.3,168.3,0,0,0,7,18.3c7.1,15.8,21.7,28.4,33,34.9a3.62,3.62,0,0,0,5.5-3.5v-.5c0-21.9,18.2-39.8,40.5-39.8s40.6,17.8,40.6,39.7v2.1a3.59,3.59,0,0,0,3.6,3.6c16.4.1,33.2.1,50.1.1,18.2,0,36.4,0,54.4-.1,26.2,0,52.5-.1,78.7,0h.5l.4-.1a2,2,0,0,0,.6-.2,3.72,3.72,0,0,0,2.3-3.5v-2c0-21.9,18.2-39.8,40.5-39.8s40.5,17.8,40.5,39.7c0,1.4-.1,3.7-.2,4.8a3.59,3.59,0,0,0,3.3,3.9h4c9.9,0,20-.3,25.1-4,5.6-4,6.7-13.3,7.5-20.8.3-2.3.5-4.4.8-5.9,1.8-8,4-16.1,6.4-23.9l.2-.7C1195.2,772.2,1197.8,763.9,1191.7,756.1Z"/><path class="cls-19" d="M1080.6,720.9a36.07,36.07,0,0,0,2.2-3.9c-6.2-2.8-17.3-8.2-22.4-10.7-13.2-6.8-26.5-14.8-41.5-19.3-12-3.6-15.8-5.3-22.9-6.8-5.1-1.1-6.5-1.4-7.3-1.3-.5.1-.1,1-.2,1.9a.81.81,0,0,0,.4.9C1011.9,689.3,1027.1,694.1,1080.6,720.9Z"/><path class="cls-20" d="M1071.5,737.4c-1.2,5.6-5.4,9.2-10.5,9.1l-123.2-2.8c-5.8-.1-10.5-5.7-10.4-12.3l.6-37.5c.1-6.9-49.5-11.3,10.8-13.2,44.7-1.5,99.1,25.1,127.6,43.3A12.36,12.36,0,0,1,1071.5,737.4Z"/><path class="cls-20" d="M932.9,730.4c-.1,7.5,52.8,14.8-14.4,13.3l-70.9-1.6a14.09,14.09,0,0,1-13.1-9,13,13,0,0,1,2.3-13.2c12.5-14.8,36.6-33.4,80.8-38.1a14.55,14.55,0,0,1,12,4.3,13.12,13.12,0,0,1,3.8,9.6Z"/><path class="cls-21" d="M1090.2,724.4c1.7,3.7,7.2,10.3,9.6,11.8s10.5,3.8,16.7,5.7,40.9,11.3,43.8,13.7"/><path class="cls-21" d="M826.6,727.7c-2.2,3.2-8.5,8.5-11.1,9.6s-10.8,1.9-17.2,2.8-41.7,4.3-44.9,6.1"/><path class="cls-22" d="M930.7,741.9c-3.8,8-8.2,19.6-6.5,51.9s4.7,36.1,9.7,36.6,118.9-.3,120.7-.4c1.4-2.8,3.8-16.9,4.5-39.7s-.2-40.2-1.6-44.3Z"/><ellipse class="cls-11" cx="1174.46" cy="807.88" rx="8.1" ry="3.1" transform="translate(260.03 1901.42) rotate(-84.62)"/><path class="cls-12" d="M1173.4,801.2h0a14.55,14.55,0,0,0-2,6.4,15,15,0,0,0,.8,7c1.7,0,3.4-2.8,3.7-6.4S1175.2,801.4,1173.4,801.2Z"/><path class="cls-11" d="M1179.7,815.9c-2.4,1.1-11.4,3.9-13.4,4.7a38.59,38.59,0,0,0-1.7,5.5c2.6-.2,12.2-1.2,16.2-2.6h0C1179.2,821.2,1179.1,818.7,1179.7,815.9Z"/><path class="cls-23" d="M927.6,727.6c-.1,6.1-5.5,11-12.1,10.8l-59.8-1.3a12,12,0,0,1-11-7.4,10.42,10.42,0,0,1,1.9-10.8c10.5-12,30.8-27.2,68.2-31a12.64,12.64,0,0,1,10.1,3.5,10.57,10.57,0,0,1,3.2,7.8Z"/><path class="cls-23" d="M1063.9,734.3a9.25,9.25,0,0,1-9.3,7.4l-109.1-2.5a9.61,9.61,0,0,1-9.2-10l.5-30.5a10.73,10.73,0,0,1,9.5-10.7c39.4-3.7,87.8,20.6,113.1,35.4A9.89,9.89,0,0,1,1063.9,734.3Z"/><path class="cls-24" d="M955.5,763.8c0-3.5,2.3-9.1,11.4-9.1s10.3,6.1,10.2,9.3-1.8,9.6-10.3,8.9S955.5,768.5,955.5,763.8Z"/><path class="cls-25" d="M946.3,763.4c-.1,1.4.8,3.1,4.3,2.8,6.3-.5,24.8.6,28,1.2,3,.6,5.5-4.4,1.7-5.5s-15.4-1.3-21.1-1.4C950,760.4,946.6,760,946.3,763.4Z"/><path class="cls-26" d="M754.8,762.5c2,8-.5,16.1-3.7,16.9-1.7.4-4.8-1.1-5.8-4.1a101.34,101.34,0,0,1-2.9-9.9"/><path class="cls-27" d="M742.4,765.4c-.9-3.8-2.2-8.8-1.9-11.6.3-3.3,2.8-5.3,4.6-5.4,2.8-.1,7.7,5.9,9.7,14.2"/><path class="cls-28" d="M927.7,727.8c-.1,4.4-71.7-20.6-58.5-26.9,10.9-5.2,17-9.5,45.5-13.2a12.29,12.29,0,0,1,10.3,3.5,10.63,10.63,0,0,1,3.2,7.9Z"/><path class="cls-29" d="M1063.9,734.3a9.25,9.25,0,0,1-9.3,7.4s-92.9-20.3-114.5-48.5c-1.5-1.9,1.1-4.1,6.1-5.3,39.4-3.7,87.8,20.6,113.1,35.4A10,10,0,0,1,1063.9,734.3Z"/><polygon class="cls-20" points="1064.4 742.6 1054.4 744.4 1050.1 716.5 1064.1 725.8 1064.4 742.6"/><path class="cls-18" d="M1032.6,729.5c.7-1.1,5.8-5.3,11.1-5.4s16.6,2.8,21.4,6.4c.5,1.8-1.6,7.1-5.3,11.5-4.7,1.9-20.6.6-26.6-.3C1031.2,740,1031.2,733.8,1032.6,729.5Z"/><path class="cls-30" d="M1033.7,736.3a50,50,0,0,1,.1-6.7c.2-1.1,4-3.9,6.9-5a17.94,17.94,0,0,0-8,4.9c-1.5,4.3-1.4,10.5.6,12.1,5.9.9,21.9,2.2,26.6.3a31.76,31.76,0,0,0,2.7-3.7C1053.8,738.3,1035.8,737.3,1033.7,736.3Z"/><circle class="cls-21" cx="825.8" cy="761.3" r="10.6"/><path class="cls-24" d="M815.2,758.6c1.2,0,3.5.1,3.5,2,0,2.2-1.7,2.8-3.3,2.8C814.3,762.8,814.5,759.5,815.2,758.6Z"/><circle class="cls-13" cx="833.8" cy="827" r="36.4"/><circle class="cls-14" cx="833.8" cy="827" r="25.4"/><path class="cls-15" d="M839.6,823.7l12.1-6a2.16,2.16,0,0,0,1-2.9c0-.1-.1-.2-.1-.3a22.47,22.47,0,0,0-11.1-8.6,2.23,2.23,0,0,0-2.8,1.3c0,.1-.1.2-.1.3l-2.8,13.2a2.81,2.81,0,0,0,2.1,3.3A3.61,3.61,0,0,0,839.6,823.7Zm-7.2-3.1-2-13.3a2.16,2.16,0,0,0-2.5-1.8.37.37,0,0,0-.3.1,22.94,22.94,0,0,0-11.7,7.9,2.32,2.32,0,0,0,.4,3.1c.1.1.2.1.2.2l11.7,6.7a2.65,2.65,0,0,0,3.7-1A2.4,2.4,0,0,0,832.4,820.6Zm-1.2,12.5L824.9,845a2.18,2.18,0,0,0,.9,3c.1,0,.2.1.3.1a22.67,22.67,0,0,0,14.1.5,2.19,2.19,0,0,0,1.5-2.7c0-.1-.1-.2-.1-.3l-5.5-12.3a2.71,2.71,0,0,0-3.6-1.4A3.74,3.74,0,0,0,831.2,833.1Zm22.7-7.6-13.4,1.4a2.7,2.7,0,0,0-2.4,3,2.47,2.47,0,0,0,.8,1.6l9.4,9.7a2.12,2.12,0,0,0,3.1,0l.2-.2a22.63,22.63,0,0,0,4.8-13.1v-.2a2.16,2.16,0,0,0-2.2-2.2.19.19,0,0,0-.3,0Zm-26.6,1L814,824.3a2.16,2.16,0,0,0-2.5,1.8v.2h0a21.69,21.69,0,0,0,4,13.5,2.23,2.23,0,0,0,3.1.5c.1-.1.2-.1.2-.2l10-9a2.72,2.72,0,0,0,.1-3.9,2.57,2.57,0,0,0-1.6-.7Z"/><circle class="cls-16" cx="833.8" cy="827" r="1.8"/><circle class="cls-17" cx="833.7" cy="830.3" r="0.8"/><circle class="cls-17" cx="837" cy="828.2" r="0.8"/><circle class="cls-17" cx="835.9" cy="824.5" r="0.8"/><circle class="cls-17" cx="832" cy="824.3" r="0.8"/><circle class="cls-17" cx="830.7" cy="828" r="0.8"/><path class="cls-31" d="M1063.4,803.2c-36.9-2.9-165-8.9-198.4-9.3-1.3,0-5.6,1.5-4.6,2.3,9.9,8.9,12.3,18.6,12.8,20.7a53.63,53.63,0,0,1,1.1,12c0,1.1,1.8,2.7,3,2.7,18.9.5,59.4.2,81.5.2,24.5,0,81.6-.1,102.6-.1a3.93,3.93,0,0,0,3.2-3.2l.1-6c.1-4.1,2.3-11.4,5.5-17.1C1070.7,804.3,1069.9,803.7,1063.4,803.2Z"/><path class="cls-10" d="M879.9,831.8c2.2-26.2-20-50.2-44.7-50.2s-45.5,21.7-44.6,48.9c2.3.3,1.7-.8,2.5-2.9-.5-6,1.6-18.5,9.1-26.5,6.7-9.5,21.4-14.5,30.2-14.5,20.3-.6,32.5,11.9,37.9,22.7,4.1,8.3,3.5,19.9,4,20.2a3.58,3.58,0,0,0,1.5,1.9C876.7,831.9,878.6,831.8,879.9,831.8Z"/><path class="cls-10" d="M1151.5,834.7c2.2-26.2-19.8-52.8-44.5-52.8s-45.7,22.5-44.8,49.7a3.58,3.58,0,0,0,2.4-3.6c-.5-6,1.9-18.6,9.4-26.6,6.7-9.5,21.4-14.5,30.2-14.5,20.3-.6,32.4,12,37.8,22.7,4.1,8.3,3.2,21.7,3.5,22.3a3.65,3.65,0,0,0,1.8,2.4A10.2,10.2,0,0,0,1151.5,834.7Z"/><path class="cls-32" d="M1168.8,764.3c2.5,3.4,8.7,7.3,10.6,5.4s-1.1-7.2-3.6-10.6-6.1-4.9-8.1-3.5S1166.3,760.9,1168.8,764.3Z"/><path class="cls-32" d="M1183.4,768.5c-5-8.8-6.2-12.8-4.5-13.8s10.7,4.6,13.1,14.6c.7,3.1,0,7.3-2.3,6.8S1185,771.3,1183.4,768.5Z"/><path class="cls-33" d="M1166.6,757.4a2.84,2.84,0,0,1,.9-1c2.2-1.3,6,.8,8.5,4.9,2.1,3.3,2.6,6.8,1.6,8.8-2.7-.3-6.9-3.2-8.8-5.8A9.69,9.69,0,0,1,1166.6,757.4Z"/><path class="cls-33" d="M1183.4,768.5c-3.7-6.5-5.3-10.3-5.2-12.3,3.7.8,9.3,6.8,10.7,11.8.9,3.4.3,6-.8,7.3C1186.3,773.8,1184.7,770.7,1183.4,768.5Z"/><path class="cls-20" d="M1082.6,717c-.3,1.6-3.4,2.9-1.9,4.1a27.43,27.43,0,0,0,12.2,3.8c2,0,5.2-.8,5.7-1.6C1090.3,720.1,1083.3,717.2,1082.6,717Z"/><path class="cls-20" d="M1077.6,719.5l-10.5,8.3a.19.19,0,0,1-.3,0h0a.19.19,0,0,1,0-.3l10.3-8.1Z"/></g></g></svg>