<svg xmlns="http://www.w3.org/2000/svg" viewBox="0 0 1931.86 1080"><defs><style>.cls-1{fill:#b8eeff;}.cls-2{opacity:0.75;}.cls-3{fill:#fff;}</style></defs><title>Asset 8</title><g id="Layer_2" data-name="Layer 2"><g id="Nebo"><rect class="cls-1" x="11.86" width="1920" height="1080"/></g><g id="Cesta"><g class="cls-2"><ellipse class="cls-3" cx="241.12" cy="131.07" rx="137.38" ry="42.04"/><ellipse class="cls-3" cx="328.04" cy="163.1" rx="32.24" ry="23.02"/><ellipse class="cls-3" cx="227.1" cy="173.11" rx="37.85" ry="27.03"/><ellipse class="cls-3" cx="15.42" cy="225.16" rx="15.42"/><ellipse class="cls-3" cx="126.17" cy="155.09" rx="33.64" ry="24.02"/><ellipse class="cls-3" cx="167.52" cy="172.61" rx="41.35" ry="29.53"/><ellipse class="cls-3" cx="104.44" cy="126.56" rx="41.35" ry="29.53"/><ellipse class="cls-3" cx="277.57" cy="163.1" rx="50.47" ry="36.03"/><ellipse class="cls-3" cx="340.65" cy="116.05" rx="40.65" ry="29.03"/><ellipse class="cls-3" cx="204.67" cy="97.04" rx="40.65" ry="29.03"/><ellipse class="cls-3" cx="252.34" cy="83.02" rx="33.64" ry="24.02"/><ellipse class="cls-3" cx="300.7" cy="96.54" rx="38.55" ry="27.53"/><ellipse class="cls-3" cx="342.05" cy="143.08" rx="42.06" ry="30.03"/><ellipse class="cls-3" cx="154.2" cy="119.06" rx="50.47" ry="36.03"/></g><g class="cls-2"><ellipse class="cls-3" cx="455.53" cy="243.13" rx="112.41" ry="32.11"/><ellipse class="cls-3" cx="526.65" cy="267.59" rx="26.38" ry="17.59"/><ellipse class="cls-3" cx="444.06" cy="275.24" rx="30.97" ry="20.64"/><ellipse class="cls-3" cx="270.85" cy="315" rx="12.62"/><ellipse class="cls-3" cx="361.47" cy="261.48" rx="27.53" ry="18.35"/><ellipse class="cls-3" cx="395.31" cy="274.86" rx="33.84" ry="22.56"/><ellipse class="cls-3" cx="364.61" cy="237.5" rx="33.84" ry="22.56"/><ellipse class="cls-3" cx="485.35" cy="267.59" rx="41.29" ry="27.53"/><ellipse class="cls-3" cx="536.97" cy="231.66" rx="33.26" ry="22.17"/><ellipse class="cls-3" cx="425.7" cy="217.13" rx="33.26" ry="22.17"/><ellipse class="cls-3" cx="464.7" cy="206.42" rx="27.53" ry="18.35"/><ellipse class="cls-3" cx="504.28" cy="216.75" rx="31.54" ry="21.03"/><ellipse class="cls-3" cx="538.12" cy="252.3" rx="34.41" ry="22.94"/><ellipse class="cls-3" cx="384.41" cy="233.95" rx="41.29" ry="27.53"/></g><ellipse class="cls-3" cx="582.38" cy="173.28" rx="133.66" ry="38.04"/><ellipse class="cls-3" cx="497.82" cy="144.29" rx="31.37" ry="20.83"/><ellipse class="cls-3" cx="596.02" cy="135.24" rx="36.83" ry="24.45"/><ellipse class="cls-3" cx="801.97" cy="88.14" rx="15"/><ellipse class="cls-3" cx="694.22" cy="151.54" rx="32.73" ry="21.74"/><ellipse class="cls-3" cx="653.99" cy="135.69" rx="40.24" ry="26.72"/><ellipse class="cls-3" cx="694.54" cy="176.75" rx="40.24" ry="26.72"/><ellipse class="cls-3" cx="546.92" cy="144.29" rx="49.1" ry="32.61"/><ellipse class="cls-3" cx="485.54" cy="186.86" rx="39.55" ry="26.27"/><ellipse class="cls-3" cx="617.85" cy="204.07" rx="39.55" ry="26.27"/><ellipse class="cls-3" cx="571.47" cy="216.75" rx="32.73" ry="21.74"/><ellipse class="cls-3" cx="524.42" cy="204.52" rx="37.51" ry="24.91"/><ellipse class="cls-3" cx="484.18" cy="162.41" rx="40.92" ry="27.17"/><ellipse class="cls-3" cx="661.51" cy="184.15" rx="49.1" ry="32.61"/></g></g></svg>