<?xml version="1.0" encoding="UTF-8" standalone="no"?>
<!DOCTYPE svg PUBLIC "-//W3C//DTD SVG 1.1//EN" "http://www.w3.org/Graphics/SVG/1.1/DTD/svg11.dtd">
<svg version="1.1" xmlns="http://www.w3.org/2000/svg" xmlns:xlink="http://www.w3.org/1999/xlink" preserveAspectRatio="xMidYMid meet" viewBox="0 0 640 640" width="640" height="640"><defs><path d="M471.27 554.16L383.75 640.13L637.29 640.26L640 551.61L640 551.61L471.27 554.16Z" id="ckdmMg22y"></path><path d="M383.75 640.13L470.72 554.25L88.14 554.49L0 640.13L0 640.13L383.75 640.13Z" id="bMFbrTxWt"></path><path d="M224.18 620.99L222.3 619.11L283.55 558.17L285.43 560.04L285.43 560.04L224.18 620.99Z" id="d2htZLU1e2"></path><path d="M384.86 640.26L381.17 640.2L467.5 554.17L471.27 554.16L471.27 554.16L384.86 640.26Z" id="dhwvzDzIO"></path><path d="M114.54 587.04C114.54 587.04 114.54 587.04 114.54 587.04C114.54 585.03 114.54 583.91 114.54 583.69C114.54 583.69 114.54 583.69 114.54 583.69C295.85 583.69 396.58 583.69 416.72 583.69C416.72 583.69 416.72 583.69 416.72 583.69C416.72 585.7 416.72 586.81 416.72 587.04C416.72 587.04 416.72 587.04 416.72 587.04C235.41 587.04 134.69 587.04 114.54 587.04Z" id="b1DGpRPaX7"></path><path d="M90.39 609.42C90.39 609.42 90.39 609.42 90.39 609.42C90.39 607.46 90.39 606.37 90.39 606.15C90.39 606.15 90.39 606.15 90.39 606.15C270.43 606.15 370.45 606.15 390.46 606.15C390.46 606.15 390.46 606.15 390.46 606.15C390.46 608.11 390.46 609.2 390.46 609.42C390.46 609.42 390.46 609.42 390.46 609.42C210.42 609.42 110.4 609.42 90.39 609.42Z" id="d2glclqKG"></path><path d="M551.41 347.55L557.44 319.74L631.05 319.74L638.02 347.55L638.02 347.55L551.41 347.55Z" id="a1gvdHttZY"></path><path d="M638.02 347.55C638.02 347.55 638.02 347.55 638.02 347.55C638.02 494.36 638.02 575.92 638.02 592.24C638.02 592.24 638.02 592.24 638.02 592.24C586.05 592.24 557.18 592.24 551.41 592.24C551.41 592.24 551.41 592.24 551.41 592.24C551.41 445.42 551.41 363.86 551.41 347.55C551.41 347.55 551.41 347.55 551.41 347.55C603.37 347.55 632.24 347.55 638.02 347.55Z" id="c1FFKl3Smk"></path><path d="M592.97 506.59C592.97 506.59 592.97 506.59 592.97 506.59C592.97 528.78 592.97 541.11 592.97 543.57C592.97 543.57 592.97 543.57 592.97 543.57C578.12 543.57 569.87 543.57 568.22 543.57C568.22 543.57 568.22 543.57 568.22 543.57C568.22 521.39 568.22 509.06 568.22 506.59C568.22 506.59 568.22 506.59 568.22 506.59C583.07 506.59 591.32 506.59 592.97 506.59Z" id="a1f77Sosju"></path><path d="M591.86 508.12C591.86 508.12 591.86 508.12 591.86 508.12C591.86 528.64 591.86 540.04 591.86 542.32C591.86 542.32 591.86 542.32 591.86 542.32C578.51 542.32 571.1 542.32 569.61 542.32C569.61 542.32 569.61 542.32 569.61 542.32C569.61 521.8 569.61 510.4 569.61 508.12C569.61 508.12 569.61 508.12 569.61 508.12C582.96 508.12 590.38 508.12 591.86 508.12Z" id="aa6WobBrf"></path><path d="M569.34 507.85L591.58 507.85L591.58 542.05L591.58 542.05L569.34 507.85Z" id="c1vRK9Lsyj"></path><path d="M627.73 506.59C627.73 506.59 627.73 506.59 627.73 506.59C627.73 528.78 627.73 541.11 627.73 543.57C627.73 543.57 627.73 543.57 627.73 543.57C612.88 543.57 604.63 543.57 602.98 543.57C602.98 543.57 602.98 543.57 602.98 543.57C602.98 521.39 602.98 509.06 602.98 506.59C602.98 506.59 602.98 506.59 602.98 506.59C617.83 506.59 626.08 506.59 627.73 506.59Z" id="hFI4byVJo"></path><path d="M626.62 508.12C626.62 508.12 626.62 508.12 626.62 508.12C626.62 528.64 626.62 540.04 626.62 542.32C626.62 542.32 626.62 542.32 626.62 542.32C613.27 542.32 605.85 542.32 604.37 542.32C604.37 542.32 604.37 542.32 604.37 542.32C604.37 521.8 604.37 510.4 604.37 508.12C604.37 508.12 604.37 508.12 604.37 508.12C617.72 508.12 625.13 508.12 626.62 508.12Z" id="b2h09Z4KBs"></path><path d="M604.09 507.98L626.34 507.98L626.34 542.19L626.34 542.19L604.09 507.98Z" id="bsftOvap3"></path><path d="M592.97 448.76C592.97 448.76 592.97 448.76 592.97 448.76C592.97 470.95 592.97 483.27 592.97 485.74C592.97 485.74 592.97 485.74 592.97 485.74C578.12 485.74 569.87 485.74 568.22 485.74C568.22 485.74 568.22 485.74 568.22 485.74C568.22 463.55 568.22 451.22 568.22 448.76C568.22 448.76 568.22 448.76 568.22 448.76C583.07 448.76 591.32 448.76 592.97 448.76Z" id="a2ow6hooU"></path><path d="M591.86 450.01C591.86 450.01 591.86 450.01 591.86 450.01C591.86 470.53 591.86 481.93 591.86 484.21C591.86 484.21 591.86 484.21 591.86 484.21C578.51 484.21 571.1 484.21 569.61 484.21C569.61 484.21 569.61 484.21 569.61 484.21C569.61 463.69 569.61 452.29 569.61 450.01C569.61 450.01 569.61 450.01 569.61 450.01C582.96 450.01 590.38 450.01 591.86 450.01Z" id="d6av0LxH04"></path><path d="M569.34 450.01L591.58 450.01L591.58 484.21L591.58 484.21L569.34 450.01Z" id="a75WXX7qL"></path><path d="M627.73 448.76C627.73 448.76 627.73 448.76 627.73 448.76C627.73 470.95 627.73 483.27 627.73 485.74C627.73 485.74 627.73 485.74 627.73 485.74C612.88 485.74 604.63 485.74 602.98 485.74C602.98 485.74 602.98 485.74 602.98 485.74C602.98 463.55 602.98 451.22 602.98 448.76C602.98 448.76 602.98 448.76 602.98 448.76C617.83 448.76 626.08 448.76 627.73 448.76Z" id="d4aeOQKUTi"></path><path d="M626.62 450.01C626.62 450.01 626.62 450.01 626.62 450.01C626.62 470.53 626.62 481.93 626.62 484.21C626.62 484.21 626.62 484.21 626.62 484.21C613.27 484.21 605.85 484.21 604.37 484.21C604.37 484.21 604.37 484.21 604.37 484.21C604.37 463.69 604.37 452.29 604.37 450.01C604.37 450.01 604.37 450.01 604.37 450.01C617.72 450.01 625.13 450.01 626.62 450.01Z" id="cj1eDsHdK"></path><path d="M604.09 450.15L626.34 450.15L626.34 484.35L626.34 484.35L604.09 450.15Z" id="b2PfoX0KDm"></path><path d="M592.97 390.37C592.97 390.37 592.97 390.37 592.97 390.37C592.97 412.55 592.97 424.88 592.97 427.35C592.97 427.35 592.97 427.35 592.97 427.35C578.12 427.35 569.87 427.35 568.22 427.35C568.22 427.35 568.22 427.35 568.22 427.35C568.22 405.16 568.22 392.83 568.22 390.37C568.22 390.37 568.22 390.37 568.22 390.37C583.07 390.37 591.32 390.37 592.97 390.37Z" id="b6uhcHsDMP"></path><path d="M591.86 391.9C591.86 391.9 591.86 391.9 591.86 391.9C591.86 412.42 591.86 423.82 591.86 426.1C591.86 426.1 591.86 426.1 591.86 426.1C578.51 426.1 571.1 426.1 569.61 426.1C569.61 426.1 569.61 426.1 569.61 426.1C569.61 405.58 569.61 394.18 569.61 391.9C569.61 391.9 569.61 391.9 569.61 391.9C582.96 391.9 590.38 391.9 591.86 391.9Z" id="aauSHvF997"></path><path d="M569.34 391.9L591.58 391.9L591.58 426.1L591.58 426.1L569.34 391.9Z" id="a1jOF4eZTt"></path><path d="M628.01 390.37C628.01 390.37 628.01 390.37 628.01 390.37C628.01 412.55 628.01 424.88 628.01 427.35C628.01 427.35 628.01 427.35 628.01 427.35C613.16 427.35 604.91 427.35 603.26 427.35C603.26 427.35 603.26 427.35 603.26 427.35C603.26 405.16 603.26 392.83 603.26 390.37C603.26 390.37 603.26 390.37 603.26 390.37C618.11 390.37 626.36 390.37 628.01 390.37Z" id="h6qPMRZum"></path><path d="M626.62 391.9C626.62 391.9 626.62 391.9 626.62 391.9C626.62 412.42 626.62 423.82 626.62 426.1C626.62 426.1 626.62 426.1 626.62 426.1C613.27 426.1 605.85 426.1 604.37 426.1C604.37 426.1 604.37 426.1 604.37 426.1C604.37 405.58 604.37 394.18 604.37 391.9C604.37 391.9 604.37 391.9 604.37 391.9C617.72 391.9 625.13 391.9 626.62 391.9Z" id="a6yyuJB06E"></path><path d="M604.09 392.04L626.34 392.04L626.34 426.24L626.34 426.24L604.09 392.04Z" id="a7OrF2Qks"></path><path d="M316.67 570.89C316.84 570.98 317.03 570.67 317.18 570.56C318.05 569.85 320.79 567.14 319.78 561.78C318.58 555.43 313.01 550.27 303.31 551.13C293.75 551.97 285.64 559.43 289.25 570.17C289.34 570.45 289.67 570.72 289.92 570.56C294.04 567.88 305.94 565.07 316.67 570.89Z" id="c2bPZwljb"></path><path d="M402.01 571.86C402.19 571.93 402.13 571.88 402.29 571.77C403.21 571.14 406.16 568.65 405.59 563.22C404.9 556.81 399.75 551.22 390.01 551.3C380.44 551.38 371.75 558.17 374.49 569.17C374.55 569.45 374.88 571.1 375.12 570.95C379.66 567.9 391.76 565.19 402.01 571.86Z" id="ahujfc2PG"></path><path d="M377.21 569.15C376.99 575.47 381.94 580.76 388.26 580.98C394.58 581.2 399.87 576.25 400.09 569.93C400.31 563.61 395.36 558.31 389.04 558.1C382.72 557.88 377.42 562.83 377.21 569.15Z" id="a3ebjLL3tl"></path><path d="M380.68 569.27C380.53 573.67 383.97 577.36 388.38 577.51C392.78 577.66 396.47 574.22 396.62 569.81C396.77 565.41 393.32 561.72 388.92 561.57C384.52 561.42 380.83 564.86 380.68 569.27Z" id="c1LKrFCh1"></path><path d="M392.07 563.37L393 563.99L393.83 564.75L394.54 565.63L394.55 565.65L394.55 565.66L394.56 565.68L394.57 565.69L394.65 565.96L394.61 566.22L394.48 566.45L394.27 566.62L390.47 568.5L390.34 568.55L390.21 568.58L390.07 568.59L389.93 568.57L389.61 568.44L389.38 568.21L389.25 567.91L389.25 567.57L390.13 563.42L390.13 563.4L390.14 563.38L390.15 563.35L390.15 563.33L390.29 563.1L390.51 562.94L390.76 562.87L391.03 562.91L392.07 563.37Z" id="c4eCLrM6Bq"></path><path d="M388.07 569.52C388.06 569.84 388.31 570.1 388.63 570.11C388.95 570.13 389.21 569.88 389.22 569.56C389.23 569.24 388.99 568.98 388.67 568.97C388.35 568.95 388.08 569.2 388.07 569.52Z" id="b1lsV7FgZO"></path><path d="M388.35 570.57C388.34 570.71 388.46 570.84 388.61 570.84C388.76 570.85 388.88 570.73 388.88 570.59C388.89 570.44 388.77 570.31 388.63 570.31C388.48 570.3 388.35 570.42 388.35 570.57Z" id="a2z6jgePy"></path><path d="M389.42 569.85C389.37 569.98 389.44 570.14 389.58 570.19C389.72 570.24 389.87 570.17 389.92 570.03C389.97 569.89 389.9 569.73 389.76 569.68C389.62 569.63 389.47 569.71 389.42 569.85Z" id="gV8uv66Hu"></path><path d="M389.11 568.6C389.02 568.71 389.04 568.88 389.15 568.97C389.27 569.06 389.44 569.04 389.53 568.92C389.62 568.81 389.6 568.64 389.48 568.55C389.36 568.46 389.2 568.48 389.11 568.6Z" id="a1X1qHBuux"></path><path d="M387.94 568.48C387.82 568.56 387.79 568.73 387.87 568.85C387.95 568.97 388.12 569 388.24 568.92C388.36 568.83 388.39 568.67 388.31 568.55C388.23 568.42 388.06 568.39 387.94 568.48Z" id="baQ6oCbXZ"></path><path d="M387.61 569.6C387.46 569.64 387.38 569.79 387.43 569.93C387.47 570.07 387.62 570.15 387.76 570.11C387.9 570.07 387.98 569.92 387.94 569.78C387.9 569.64 387.75 569.56 387.61 569.6Z" id="a1SZ7H2Zpt"></path><path d="M415.89 547.24C412.72 543.15 406.99 542.02 401.94 541.02C400.62 540.76 399.35 540.51 398.21 540.22C391.9 538.62 385.23 536.82 379.26 533.91C377.53 533.06 375.78 532.16 374.1 531.28C370.03 529.17 365.84 526.99 361.34 525.43C349.89 521.55 337.61 520.81 325.77 523.31C319.37 524.66 313.22 526.97 307.31 529.19C302.79 530.89 298.11 532.64 293.39 533.95C291.96 534.34 290.44 534.67 288.97 534.98C286.35 535.54 283.63 536.12 281.11 537.15C277.89 538.47 275.61 540.57 274.79 542.96C274.79 542.96 274.79 542.98 274.79 543C274.78 543.03 274.77 543.06 274.76 543.06C274.74 543.13 274.74 543.15 274.73 543.19C274.73 543.19 274.73 543.19 274.73 543.19C274.16 545.09 274.49 547.03 274.86 548.7C275.22 550.36 275.69 552.05 276.22 553.7C276.22 553.71 276.22 553.74 276.22 553.75C276.85 555.72 277.59 557.65 278.44 559.54C280.67 564.49 285.26 568.45 288.8 570.53C289.34 570.84 290.04 570.67 290.37 570.13C290.5 569.91 290.55 569.66 290.51 569.41C290.52 569.35 290.52 569.3 290.51 569.25C290.51 562.36 296.23 556.75 303.26 556.75C310.28 556.75 316.01 562.37 316.01 569.25C316.01 569.32 316.01 569.84 316.01 569.91C316.01 570.54 316.52 571.04 317.15 571.04C322.3 571.06 327.59 571.07 332.89 571.07C338.61 571.07 344.35 571.07 350 571.05C358.22 571.05 366.51 571.02 374.74 571.05C374.75 571.05 374.8 571.05 374.89 571.05C374.95 571.04 374.99 571.03 375 571.03C375.06 571.03 375.19 570.97 375.19 570.97C375.63 570.8 375.92 570.36 375.9 569.88C375.9 569.57 375.9 569.32 375.9 569.26C375.9 562.37 381.61 556.76 388.65 556.76C395.68 556.76 401.39 562.38 401.39 569.26C401.39 569.69 401.37 570.41 401.34 570.76C401.29 571.38 401.75 571.93 402.37 571.98C402.37 571.98 402.37 571.98 402.37 571.98C402.5 571.98 403.49 571.98 403.62 571.98C406.73 571.98 409.89 571.88 411.52 570.71C413.28 569.44 413.62 566.52 413.88 564.16C413.97 563.45 414.04 562.78 414.15 562.32C414.71 559.79 415.39 557.26 416.17 554.81C416.17 554.78 416.23 554.61 416.24 554.59C416.98 552.29 417.79 549.71 415.89 547.24C415.89 547.24 415.89 547.24 415.89 547.24Z" id="a4z2f2XE3"></path><path d="M381.61 534.96C379.66 534.07 376.15 532.4 374.57 531.59C370.42 529.45 366.24 526.93 361.52 525.53C357.76 524.4 356.54 523.87 354.32 523.38C352.73 523.02 352.27 522.95 352.01 522.98C351.85 523.01 351.99 523.31 351.94 523.58C351.92 523.7 351.98 523.81 352.08 523.86C359.36 526.25 364.11 527.74 380.92 536.18C381.17 535.79 381.4 535.38 381.61 534.96Z" id="a18b6ui3QL"></path><path d="M374.79 544.22C370.91 544.13 339.92 543.44 336.05 543.35C334.21 543.31 332.74 541.57 332.77 539.48C332.79 538.3 332.95 528.86 332.97 527.68C333.01 525.51 317.39 524.14 336.35 523.52C350.42 523.06 367.51 531.41 376.48 537.13C377.85 538.06 378.49 539.75 378.09 541.35C377.7 543.1 376.38 544.26 374.79 544.22Z" id="a2yNCxckS2"></path><path d="M334.49 539.16C334.45 541.51 351.08 543.8 329.97 543.33C327.74 543.28 309.91 542.88 307.68 542.83C305.85 542.82 304.22 541.69 303.56 539.99C303.02 538.58 303.29 536.99 304.27 535.84C308.19 531.2 315.78 525.35 329.71 523.87C331.1 523.73 332.49 524.23 333.48 525.23C334.27 526.03 334.7 527.11 334.68 528.23C334.64 530.42 334.53 536.97 334.49 539.16Z" id="g4rKrWZqup"></path><path d="M383.95 537.28C384.5 538.46 386.22 540.51 386.97 541C387.72 541.49 390.27 542.18 392.21 542.78C394.16 543.39 405.1 546.34 405.99 547.1" id="c1hwxGSwsO"></path><path d="M301.08 538.31C300.38 539.33 298.39 540.99 297.59 541.34C296.78 541.68 294.19 541.94 292.19 542.2C290.19 542.47 279.07 543.55 278.08 544.13" id="bsKufShSC"></path><path d="M333.79 542.79C332.6 545.31 331.21 548.95 331.75 559.12C332.3 569.28 333.22 570.48 334.79 570.61C336.36 570.74 372.19 570.52 372.74 570.5C373.17 569.63 373.93 565.19 374.15 558.01C374.36 550.83 374.07 545.38 373.64 544.07C365.67 543.82 341.76 543.04 333.79 542.79Z" id="erAOPrKQ5"></path><path d="M410.7 561.02C411.23 561.07 411.56 562.24 411.43 563.63C411.3 565.02 410.76 566.11 410.22 566.06C409.69 566.01 409.36 564.84 409.49 563.45C409.62 562.05 410.16 560.97 410.7 561.02Z" id="g33N4FPb8i"></path><path d="M410.09 561.44C409.74 562.05 409.54 562.74 409.49 563.45C409.39 564.19 409.48 564.94 409.76 565.64C410.3 565.64 410.82 564.77 410.93 563.64C411.03 562.5 410.67 561.49 410.12 561.44C410.11 561.44 410.09 561.44 410.09 561.44Z" id="b3wSpy8yVu"></path><path d="M407.89 567.53C407.67 568.09 407.49 568.68 407.36 569.27C408.18 569.22 411.19 568.89 412.45 568.45C412.45 568.45 412.45 568.45 412.45 568.45C411.96 567.72 411.92 566.94 412.1 566.06C411.33 566.41 408.52 567.28 407.89 567.53Z" id="bDuVHodio"></path><path d="M332.82 538.27C332.78 540.19 331.08 541.73 329.01 541.68C327.13 541.64 312.09 541.3 310.21 541.26C308.69 541.26 307.32 540.35 306.74 538.95C306.28 537.8 306.52 536.49 307.34 535.56C310.64 531.78 317.03 527 328.77 525.81C329.94 525.68 331.11 526.09 331.95 526.91C332.61 527.56 332.98 528.45 332.96 529.37C332.93 531.15 332.85 536.49 332.82 538.27Z" id="a5uKTNBoSq"></path><path d="M372.77 542.69C369.34 542.61 341.89 541.99 338.46 541.92C336.79 541.84 335.5 540.43 335.56 538.76C335.57 537.8 335.7 530.12 335.72 529.16C335.71 527.44 337 525.98 338.71 525.78C351.11 524.6 366.31 532.25 374.27 536.91C375.46 537.62 376.05 539.03 375.7 540.38C375.4 541.75 374.18 542.72 372.77 542.69Z" id="b1bfcfceMs"></path><path d="M345.2 546.79C348.06 546.79 348.43 548.71 348.4 549.72C348.37 550.73 347.82 552.75 345.15 552.51C342.48 552.27 341.62 551.13 341.62 549.66C341.62 548.55 342.34 546.79 345.2 546.79Z" id="l6kM2fsfUU"></path><path d="M340.06 550.42C342.05 550.25 347.88 550.61 348.88 550.81C349.83 551 350.63 549.44 349.41 549.07C348.2 548.7 344.57 548.65 342.78 548.63C339.87 548.6 338.81 548.48 338.71 549.55C338.67 549.98 338.95 550.52 340.06 550.42Z" id="c1OsaarmJF"></path><path d="M278.49 549.25C279.13 551.77 278.35 554.32 277.34 554.56C276.81 554.68 275.84 554.2 275.51 553.28C275.21 552.41 274.88 551.33 274.6 550.16" id="b2Sm5t4nIB"></path><linearGradient id="gradientj1tEVgOvZp" gradientUnits="userSpaceOnUse" x1="273.95" y1="552.26" x2="278.11" y2="552.13"><stop style="stop-color: #83181e;stop-opacity: 1" offset="18%"></stop><stop style="stop-color: #ac1e1d;stop-opacity: 1" offset="100%"></stop></linearGradient><path d="M274.6 550.17C274.31 548.99 273.9 547.4 274 546.52C274.11 545.49 274.89 544.83 275.44 544.81C276.3 544.77 277.84 546.67 278.49 549.27" id="c1BGorMVkM"></path><path d="M332.87 538.35C332.84 539.74 310.33 531.88 314.47 529.9C317.89 528.25 319.81 526.9 328.78 525.76C329.97 525.62 331.15 526.03 332 526.87C332.66 527.52 333.03 528.42 333.02 529.35C332.99 531.15 332.9 536.55 332.87 538.35Z" id="b4ksjzz92m"></path><linearGradient id="gradiente2BbP8d6Tg" gradientUnits="userSpaceOnUse" x1="313.96" y1="532.12" x2="333.02" y2="532.12"><stop style="stop-color: #ffffff;stop-opacity: 0.3" offset="24%"></stop><stop style="stop-color: #8dd5ef;stop-opacity: 0.4" offset="100%"></stop></linearGradient><path d="M372.77 542.69C372.77 542.69 343.55 536.31 336.77 527.45C336.31 526.85 337.1 526.15 338.7 525.79C351.1 524.62 366.31 532.26 374.26 536.93C375.45 537.63 376.04 539.04 375.7 540.38C375.4 541.75 374.18 542.72 372.77 542.69Z" id="brhJ7E86r"></path><linearGradient id="gradientb11Lv0bCY5" gradientUnits="userSpaceOnUse" x1="336.65" y1="534.21" x2="375.79" y2="534.21"><stop style="stop-color: #ffffff;stop-opacity: 0.3" offset="22%"></stop><stop style="stop-color: #8dd5ef;stop-opacity: 0.4" offset="100%"></stop></linearGradient><path d="M372.7 543.57L371.35 534.78L375.75 537.72L375.85 543L375.85 543L372.7 543.57Z" id="e5NYrj68H"></path><path d="M369.34 537.18C371.03 537.16 374.57 538.06 376.07 539.18C376.24 539.75 375.56 541.4 374.38 542.78C372.91 543.37 367.89 542.97 366.03 542.68C365.42 542.19 365.39 540.22 365.85 538.87C366.07 538.54 367.66 537.19 369.34 537.18Z" id="b27LkAK6pd"></path><path d="M366.21 538.93C366.26 538.6 367.46 537.69 368.37 537.34C367.41 537.62 366.54 538.15 365.85 538.88C365.39 540.24 365.42 542.19 366.03 542.7C367.89 542.98 372.91 543.38 374.39 542.79C374.7 542.42 374.99 542.03 375.24 541.61C372.5 541.64 366.86 541.34 366.18 541.04C366.15 540.34 366.15 539.63 366.21 538.93Z" id="dKxVi5Q1q"></path><path d="M300.82 545.54C298.97 545.54 297.47 547.03 297.47 548.88C297.47 550.73 298.97 552.23 300.82 552.23C302.67 552.23 304.16 550.73 304.16 548.88C304.16 547.03 302.67 545.54 300.82 545.54Z" id="aWsqlCJoO"></path><path d="M298.59 548.66C298.59 549.34 298.06 549.54 297.54 549.54C297.19 549.35 297.26 548.31 297.47 548.04C297.85 548.04 298.59 548.07 298.59 548.66Z" id="a1Bu79IFpk"></path><path d="M291.89 569.15C291.68 575.47 296.62 580.77 302.94 580.98C309.26 581.2 314.56 576.25 314.78 569.93C314.99 563.62 310.05 558.32 303.73 558.1C297.41 557.89 292.11 562.83 291.89 569.15Z" id="a9oQ6ev4w"></path><path d="M295.36 569.27C295.21 573.67 298.66 577.36 303.06 577.51C307.46 577.67 311.16 574.22 311.31 569.82C311.46 565.41 308.01 561.72 303.61 561.57C299.21 561.42 295.51 564.87 295.36 569.27Z" id="j1wgSEYkA"></path><path d="M306.75 563.37L307.69 563.99L308.51 564.75L309.22 565.63L309.23 565.65L309.24 565.66L309.25 565.68L309.25 565.69L309.33 565.96L309.29 566.22L309.17 566.45L308.95 566.62L305.15 568.5L305.02 568.55L304.89 568.58L304.75 568.59L304.61 568.57L304.3 568.44L304.06 568.21L303.94 567.91L303.93 567.57L304.81 563.42L304.82 563.4L304.82 563.38L304.83 563.35L304.84 563.33L304.98 563.1L305.19 562.94L305.45 562.87L305.72 562.91L306.75 563.37Z" id="b3TPybLsKz"></path><path d="M302.76 569.52C302.75 569.84 303 570.11 303.32 570.12C303.63 570.13 303.9 569.88 303.91 569.56C303.92 569.25 303.67 568.98 303.35 568.97C303.04 568.96 302.77 569.21 302.76 569.52Z" id="n11YVCPboz"></path><path d="M303.03 570.57C303.03 570.72 303.14 570.84 303.29 570.85C303.44 570.85 303.56 570.74 303.57 570.59C303.57 570.44 303.46 570.32 303.31 570.31C303.16 570.31 303.04 570.42 303.03 570.57Z" id="a4FNC515R"></path><path d="M304.09 569.85C304.04 569.98 304.11 570.14 304.25 570.19C304.39 570.24 304.55 570.17 304.6 570.03C304.65 569.89 304.57 569.74 304.44 569.68C304.3 569.63 304.14 569.71 304.09 569.85Z" id="aqWK9v1a1"></path><path d="M303.78 568.59C303.69 568.71 303.71 568.88 303.83 568.97C303.95 569.06 304.11 569.04 304.2 568.92C304.3 568.81 304.27 568.64 304.16 568.55C304.04 568.46 303.87 568.48 303.78 568.59Z" id="a8xMQ1Ld"></path><path d="M302.62 568.48C302.5 568.56 302.47 568.73 302.55 568.85C302.63 568.97 302.8 569 302.92 568.92C303.04 568.83 303.08 568.67 302.99 568.55C302.91 568.42 302.74 568.39 302.62 568.48Z" id="b1gTCXVDgy"></path><path d="M302.28 569.6C302.14 569.64 302.06 569.79 302.1 569.93C302.14 570.07 302.29 570.15 302.44 570.11C302.58 570.07 302.66 569.92 302.62 569.78C302.57 569.64 302.43 569.55 302.28 569.6Z" id="ab5HdAjMY"></path><path d="M313.15 559.12C312.75 559.12 311.39 559.59 311.69 559.85C314.81 562.65 315.55 565.71 315.7 566.37C315.96 567.61 316.08 568.87 316.05 570.14C316.05 570.49 316.63 570.97 316.99 570.98C322.93 571.14 335.67 571.04 342.63 571.04C350.33 571.04 368.28 571 374.91 571C375.41 570.91 375.81 570.52 375.9 570.01C375.9 569.82 375.93 568.32 375.93 568.13C375.96 566.85 376.64 564.56 377.66 562.74C377.86 562.41 377.57 562.21 375.54 562.04C363.95 561.13 323.65 559.24 313.15 559.12Z" id="bhCiSZ7qq"></path><linearGradient id="gradientahYQZYBLS" gradientUnits="userSpaceOnUse" x1="344.11" y1="552.66" x2="345.29" y2="570.48"><stop style="stop-color: #c3c4c7;stop-opacity: 1" offset="0%"></stop><stop style="stop-color: #02c0af;stop-opacity: 0" offset="100%"></stop></linearGradient><path d="M303.77 555.24C296 555.24 289.46 562.07 289.74 570.62C290.46 570.7 290.28 570.39 290.53 569.71C290.39 567.82 291.04 563.89 293.39 561.36C295.51 558.38 300.11 556.79 302.9 556.79C309.27 556.59 313.14 560.54 314.82 563.91C316.12 566.51 315.93 570.16 316.07 570.26C316.16 570.51 316.33 570.72 316.56 570.87C316.82 571.1 317.41 571.04 317.83 571.03C318.5 562.8 311.55 555.24 303.77 555.24Z" id="fYnPlvdAq"></path><path d="M389.24 555.34C381.48 555.34 374.86 562.41 375.14 570.96C375.62 570.81 375.94 570.34 375.9 569.83C375.76 567.94 376.5 563.98 378.88 561.45C381 558.48 385.6 556.88 388.39 556.88C394.76 556.68 398.58 560.67 400.28 564.03C401.58 566.63 401.27 570.87 401.38 571.05C401.44 571.38 401.66 571.66 401.95 571.81C402.36 571.97 402.8 572.02 403.24 571.96C403.91 563.72 397 555.34 389.24 555.34Z" id="h7y21ZbWht"></path><path d="M412.01 551.51C412.61 550.91 411.68 549.23 410.88 548.17C410.08 547.11 408.95 546.62 408.35 547.08C407.74 547.53 407.88 548.76 408.67 549.82C409.46 550.88 411.42 552.11 412.01 551.51Z" id="ayN95yBU6"></path><path d="M411.84 546.8C412.36 546.49 415.2 548.24 415.95 551.38C416.18 552.36 415.95 553.7 415.22 553.52C414.49 553.33 413.77 552.04 413.26 551.14C411.68 548.37 411.31 547.11 411.84 546.8Z" id="b8Fbwsf7H0"></path><path d="M408.28 547.36C408.96 546.94 410.16 547.63 410.95 548.9C411.61 549.94 411.78 551.05 411.45 551.66C410.62 551.58 409.29 550.66 408.67 549.82C408.11 549.08 407.88 548.25 408 547.67C408.07 547.54 408.16 547.44 408.28 547.36Z" id="gXN5h8iBe"></path><path d="M411.61 547.26C412.78 547.51 414.55 549.42 414.98 550.97C415.27 552.03 415.06 552.86 414.74 553.26C414.19 552.8 413.66 551.84 413.26 551.14C412.1 549.1 411.61 547.89 411.61 547.26Z" id="b4xBK2Rxe"></path><path d="M380.97 536.22C382.13 536.92 383.44 537.32 384.79 537.41C385.41 537.41 386.44 537.17 386.6 536.9C384 535.91 381.8 535.01 381.56 534.94C381.47 535.43 380.49 535.86 380.97 536.22Z" id="a7WaL7UO1I"></path><path d="M380 535.76C378.02 537.31 376.92 538.18 376.7 538.35C376.67 538.38 376.62 538.38 376.59 538.35C376.59 538.35 376.59 538.35 376.59 538.35C376.59 538.35 376.59 538.35 376.59 538.35C376.56 538.32 376.56 538.27 376.59 538.24C376.59 538.24 376.59 538.24 376.59 538.24C376.81 538.07 377.88 537.22 379.81 535.69L380 535.76Z" id="hg0mYY6iu"></path><path d="M382.43 535.46C382.15 535.46 381.93 535.69 381.93 535.97C381.93 536.25 382.15 536.48 382.43 536.48C382.71 536.48 382.94 536.25 382.94 535.97C382.94 535.69 382.71 535.46 382.43 535.46Z" id="gFAIxDOca"></path><path d="M382.04 536.14C382.04 536.2 382.05 536.27 382.08 536.33C382.23 536.58 382.94 536.94 383.12 536.85C383.31 536.77 382.96 535.81 382.43 535.81C382.24 535.79 382.06 535.94 382.04 536.14Z" id="cBXtmFcFF"></path><path d="M162.43 570.89C162.6 570.98 162.78 570.67 162.93 570.56C163.8 569.85 166.55 567.14 165.54 561.78C164.34 555.43 158.76 550.27 149.06 551.13C139.51 551.97 131.4 559.43 135.01 570.17C135.09 570.45 135.42 570.72 135.67 570.56C139.79 567.88 151.69 565.07 162.43 570.89Z" id="bv3MdOZtp"></path><path d="M247.76 571.86C247.95 571.93 247.89 571.88 248.04 571.77C248.97 571.14 251.92 568.65 251.35 563.22C250.66 556.81 245.5 551.22 235.77 551.3C226.19 551.38 217.5 558.17 220.25 569.17C220.31 569.45 220.64 571.1 220.87 570.95C225.42 567.9 237.52 565.19 247.76 571.86Z" id="cGIwWAwAd"></path><path d="M222.98 569.15C222.76 575.47 227.71 580.77 234.03 580.98C240.34 581.2 245.64 576.25 245.86 569.93C246.07 563.61 241.13 558.32 234.81 558.1C228.49 557.88 223.19 562.83 222.98 569.15Z" id="aykmOkI66"></path><path d="M226.45 569.27C226.29 573.67 229.74 577.36 234.14 577.51C238.55 577.66 242.24 574.22 242.39 569.81C242.54 565.41 239.09 561.72 234.69 561.57C230.29 561.42 226.6 564.87 226.45 569.27Z" id="ac6zfBFSQ"></path><path d="M237.82 563.37L238.76 563.99L239.59 564.75L240.3 565.63L240.3 565.65L240.31 565.66L240.32 565.68L240.33 565.69L240.4 565.96L240.37 566.22L240.24 566.45L240.03 566.62L236.23 568.5L236.1 568.55L235.97 568.58L235.83 568.59L235.69 568.57L235.37 568.44L235.14 568.21L235.01 567.91L235.01 567.57L235.89 563.42L235.89 563.4L235.9 563.38L235.91 563.35L235.91 563.33L236.05 563.1L236.27 562.94L236.52 562.87L236.79 562.91L237.82 563.37Z" id="a1cuF70wRx"></path><path d="M233.84 569.52C233.83 569.84 234.08 570.11 234.4 570.12C234.71 570.13 234.98 569.88 234.99 569.56C235 569.24 234.75 568.98 234.44 568.97C234.12 568.96 233.85 569.21 233.84 569.52Z" id="a2uIkW8lI"></path><path d="M234.11 570.57C234.11 570.72 234.23 570.84 234.37 570.85C234.52 570.85 234.64 570.74 234.65 570.59C234.65 570.44 234.54 570.32 234.39 570.31C234.24 570.31 234.12 570.42 234.11 570.57Z" id="d1j6Ytgeea"></path><path d="M235.17 569.84C235.12 569.98 235.19 570.13 235.33 570.18C235.47 570.23 235.62 570.16 235.67 570.02C235.72 569.88 235.65 569.73 235.51 569.68C235.37 569.63 235.22 569.7 235.17 569.84Z" id="bLgo4jlO"></path><path d="M234.86 568.59C234.77 568.71 234.79 568.88 234.9 568.97C235.02 569.06 235.19 569.04 235.28 568.92C235.37 568.8 235.35 568.63 235.23 568.54C235.11 568.45 234.95 568.47 234.86 568.59Z" id="d7IDSqdIcG"></path><path d="M233.7 568.48C233.58 568.56 233.54 568.73 233.63 568.85C233.71 568.97 233.88 569 234 568.92C234.12 568.84 234.15 568.67 234.07 568.55C233.99 568.42 233.82 568.39 233.7 568.48Z" id="b1yRjGYZZo"></path><path d="M232.85 570.47C232.7 570.51 232.62 570.66 232.66 570.8C232.71 570.94 232.85 571.02 233 570.98C233.14 570.94 233.22 570.79 233.18 570.65C233.14 570.51 232.99 570.43 232.85 570.47Z" id="e3DM2QmmnF"></path><path d="M261.64 547.24C258.47 543.15 252.75 542.02 247.7 541.02C246.38 540.76 245.11 540.51 243.97 540.22C237.66 538.62 230.99 536.82 225.01 533.91C223.29 533.06 221.54 532.16 219.86 531.28C215.79 529.17 211.6 526.99 207.1 525.43C195.65 521.55 183.36 520.81 171.53 523.31C165.13 524.66 158.98 526.97 153.06 529.19C148.54 530.89 143.87 532.64 139.15 533.95C137.72 534.34 136.2 534.67 134.73 534.98C132.1 535.54 129.39 536.12 126.86 537.15C123.65 538.47 121.36 540.57 120.55 542.96C120.55 542.96 120.55 542.98 120.55 543C120.53 543.03 120.52 543.06 120.52 543.06C120.5 543.13 120.5 543.15 120.49 543.19C120.49 543.19 120.49 543.19 120.49 543.19C119.92 545.09 120.25 547.03 120.61 548.7C120.98 550.36 121.45 552.05 121.97 553.7C121.97 553.71 121.97 553.74 121.97 553.75C122.6 555.72 123.34 557.65 124.19 559.54C126.42 564.49 131.01 568.45 134.55 570.53C135.1 570.84 135.8 570.65 136.11 570.11C136.25 569.89 136.3 569.63 136.26 569.38C136.26 569.33 136.26 569.28 136.26 569.22C136.26 562.33 141.98 556.73 149.01 556.73C156.03 556.73 161.75 562.34 161.75 569.22C161.75 569.29 161.75 569.82 161.75 569.88C161.76 570.51 162.27 571.02 162.89 571.01C168.05 571.03 173.33 571.04 178.64 571.04C184.35 571.04 190.1 571.04 195.74 571.02C203.97 571.02 212.26 571 220.49 571.02C220.5 571.02 220.55 571.02 220.63 571.02C220.7 571.01 220.74 571 220.75 571C220.8 571 220.93 570.94 220.93 570.94C221.38 570.77 221.67 570.33 221.65 569.85C221.65 569.54 221.65 569.3 221.65 569.23C221.65 562.34 227.36 556.74 234.39 556.74C241.42 556.74 247.14 562.35 247.14 569.23C247.14 569.66 247.12 570.39 247.08 570.74C247.03 571.36 247.49 571.9 248.11 571.95C248.12 571.95 248.12 571.95 248.12 571.95C248.25 571.95 249.26 571.95 249.39 571.95C252.5 571.95 255.66 571.85 257.29 570.68C259.05 569.42 259.39 566.49 259.65 564.14C259.74 563.43 259.81 562.75 259.92 562.29C260.48 559.77 261.16 557.24 261.94 554.78C261.94 554.76 262 554.58 262.01 554.56C262.73 552.29 263.55 549.71 261.64 547.24C261.64 547.24 261.64 547.24 261.64 547.24Z" id="j2cQ2y4kS5"></path><path d="M227.37 534.96C225.42 534.07 221.91 532.4 220.33 531.59C216.18 529.45 212 526.93 207.28 525.53C203.52 524.4 202.3 523.87 200.08 523.38C198.49 523.02 198.03 522.95 197.77 522.98C197.61 523.01 197.75 523.31 197.7 523.58C197.68 523.7 197.74 523.81 197.84 523.86C205.11 526.25 209.87 527.74 226.68 536.18C226.93 535.79 227.16 535.38 227.37 534.96Z" id="c1Ika4jNVQ"></path><path d="M220.54 544.22C216.67 544.13 185.68 543.44 181.8 543.35C179.96 543.31 178.5 541.57 178.53 539.48C178.55 538.3 178.71 528.86 178.73 527.68C178.76 525.51 163.15 524.14 182.11 523.52C196.18 523.06 213.26 531.41 222.23 537.13C223.6 538.06 224.25 539.75 223.85 541.35C223.46 543.1 222.13 544.26 220.54 544.22Z" id="bZhlYwve1"></path><path d="M180.24 539.16C180.2 541.51 196.84 543.8 175.72 543.33C173.49 543.28 155.66 542.88 153.43 542.83C151.61 542.82 149.98 541.69 149.32 539.99C148.78 538.58 149.05 536.99 150.03 535.84C153.95 531.2 161.53 525.35 175.46 523.87C176.86 523.73 178.25 524.23 179.24 525.23C180.02 526.03 180.45 527.11 180.44 528.23C180.4 530.42 180.28 536.97 180.24 539.16Z" id="b5X2yKsyx"></path><path d="M229.71 537.28C230.25 538.46 231.97 540.51 232.72 541C233.48 541.49 236.03 542.18 237.97 542.78C239.91 543.39 250.85 546.34 251.74 547.1" id="a3h7kt1LAN"></path><path d="M146.84 538.31C146.13 539.33 144.15 540.99 143.34 541.34C142.54 541.68 139.95 541.94 137.95 542.2C135.95 542.47 124.82 543.55 123.83 544.13" id="b1pEI3azc"></path><path d="M179.55 542.79C178.36 545.31 176.97 548.95 177.51 559.12C178.05 569.28 178.98 570.48 180.55 570.61C182.12 570.74 217.95 570.52 218.5 570.5C218.93 569.63 219.69 565.19 219.91 558.01C220.12 550.83 219.83 545.38 219.4 544.07C211.43 543.82 187.52 543.04 179.55 542.79Z" id="d68v8j7OG"></path><path d="M256.46 561.02C257 561.07 257.32 562.24 257.19 563.63C257.06 565.02 256.52 566.11 255.99 566.06C255.45 566.01 255.12 564.84 255.25 563.45C255.38 562.06 255.92 560.97 256.46 561.02Z" id="eYtFKGLLT"></path><path d="M255.85 561.44C255.5 562.05 255.29 562.74 255.25 563.45C255.15 564.19 255.24 564.94 255.51 565.64C256.06 565.64 256.58 564.77 256.68 563.64C256.79 562.5 256.43 561.49 255.87 561.44C255.87 561.44 255.85 561.44 255.85 561.44Z" id="k6m281udvw"></path><path d="M253.65 567.53C253.42 568.09 253.25 568.68 253.12 569.27C253.94 569.22 256.95 568.89 258.21 568.45C258.21 568.45 258.21 568.45 258.21 568.45C257.71 567.72 257.68 566.94 257.85 566.06C257.09 566.41 254.28 567.28 253.65 567.53Z" id="f3F3s3O0KL"></path><path d="M178.57 538.27C178.54 540.19 176.83 541.73 174.76 541.68C172.88 541.64 157.85 541.3 155.97 541.26C154.45 541.26 153.08 540.35 152.5 538.95C152.04 537.8 152.27 536.49 153.09 535.56C156.4 531.78 162.79 527 174.52 525.81C175.7 525.68 176.86 526.09 177.71 526.91C178.37 527.56 178.73 528.45 178.72 529.37C178.69 531.15 178.6 536.49 178.57 538.27Z" id="b4BDpwKmAE"></path><path d="M218.53 542.69C215.1 542.61 187.65 541.99 184.22 541.92C182.55 541.84 181.25 540.43 181.31 538.76C181.33 537.8 181.46 530.12 181.47 529.16C181.46 527.44 182.75 525.98 184.47 525.78C196.86 524.6 212.07 532.25 220.02 536.91C221.22 537.62 221.8 539.03 221.45 540.38C221.16 541.75 219.93 542.72 218.53 542.69Z" id="aBZcWg6w"></path><path d="M190.96 546.79C193.81 546.79 194.18 548.71 194.15 549.72C194.12 550.73 193.57 552.75 190.91 552.51C188.24 552.27 187.37 551.13 187.37 549.66C187.37 548.55 188.1 546.79 190.96 546.79Z" id="j9KfSpVbQ"></path><path d="M185.82 550.42C187.8 550.25 193.63 550.61 194.64 550.81C195.59 551 196.39 549.44 195.17 549.07C193.96 548.7 190.33 548.64 188.53 548.64C185.63 548.6 184.56 548.48 184.47 549.55C184.43 549.98 184.71 550.52 185.82 550.42Z" id="ahBZuULv"></path><path d="M124.25 549.25C124.89 551.77 124.1 554.32 123.09 554.56C122.56 554.68 121.6 554.2 121.27 553.28C120.96 552.41 120.64 551.33 120.36 550.16" id="a1lIQvvTZ5"></path><linearGradient id="gradientb3RfDYMipR" gradientUnits="userSpaceOnUse" x1="59.91" y1="296.87" x2="64.11" y2="296.87"><stop style="stop-color: #83181e;stop-opacity: 1" offset="18%"></stop><stop style="stop-color: #ac1e1d;stop-opacity: 1" offset="100%"></stop></linearGradient><path d="M120.36 550.17C120.07 548.99 119.66 547.4 119.75 546.52C119.86 545.49 120.64 544.83 121.19 544.81C122.05 544.77 123.6 546.67 124.25 549.27" id="anqAPFmV6"></path><path d="M178.62 538.35C178.6 539.74 156.09 531.88 160.22 529.9C163.64 528.25 165.57 526.9 174.54 525.76C175.73 525.62 176.91 526.03 177.75 526.87C178.42 527.52 178.79 528.42 178.77 529.35C178.74 531.15 178.65 536.55 178.62 538.35Z" id="a2y2Wphdq"></path><linearGradient id="gradientbLlPavVz" gradientUnits="userSpaceOnUse" x1="159.72" y1="532.12" x2="178.77" y2="532.12"><stop style="stop-color: #ffffff;stop-opacity: 0.3" offset="24%"></stop><stop style="stop-color: #8dd5ef;stop-opacity: 0.4" offset="100%"></stop></linearGradient><path d="M218.53 542.69C218.53 542.69 189.31 536.31 182.53 527.45C182.07 526.85 182.86 526.15 184.46 525.79C196.86 524.62 212.06 532.26 220.02 536.93C221.21 537.63 221.79 539.04 221.45 540.38C221.16 541.75 219.93 542.72 218.53 542.69Z" id="aRHHnMBvC"></path><linearGradient id="gradientd2ysnM3yiM" gradientUnits="userSpaceOnUse" x1="182.4" y1="534.21" x2="221.54" y2="534.21"><stop style="stop-color: #ffffff;stop-opacity: 0.3" offset="22%"></stop><stop style="stop-color: #8dd5ef;stop-opacity: 0.4" offset="100%"></stop></linearGradient><path d="M218.46 543.57L217.11 534.78L221.51 537.72L221.61 543L221.61 543L218.46 543.57Z" id="jsLwAIWAm"></path><path d="M215.1 537.18C216.78 537.16 220.33 538.06 221.83 539.18C222 539.75 221.32 541.4 220.14 542.78C218.67 543.37 213.65 542.97 211.79 542.68C211.17 542.19 211.15 540.22 211.61 538.87C211.83 538.54 213.42 537.19 215.1 537.18Z" id="h1AHj3oe6b"></path><path d="M211.96 538.93C212.01 538.6 213.22 537.69 214.13 537.34C213.16 537.62 212.3 538.15 211.61 538.88C211.15 540.24 211.17 542.19 211.79 542.7C213.65 542.98 218.67 543.38 220.14 542.79C220.46 542.42 220.74 542.03 221 541.61C218.26 541.64 212.62 541.34 211.94 541.04C211.9 540.34 211.91 539.63 211.96 538.93Z" id="apTWCsxOZ"></path><path d="M146.57 545.54C144.73 545.54 143.23 547.03 143.23 548.88C143.23 550.73 144.73 552.23 146.57 552.23C148.42 552.23 149.92 550.73 149.92 548.88C149.92 547.03 148.42 545.54 146.57 545.54Z" id="b2XZCDf4R3"></path><path d="M144.34 548.66C144.34 549.34 143.82 549.54 143.29 549.54C142.95 549.35 143.03 548.31 143.23 548.04C143.61 548.04 144.34 548.07 144.34 548.66Z" id="b3OqRt9uem"></path><path d="M137.66 569.15C137.44 575.47 142.39 580.77 148.71 580.98C155.03 581.2 160.33 576.25 160.54 569.93C160.76 563.61 155.81 558.32 149.49 558.1C143.17 557.88 137.88 562.83 137.66 569.15Z" id="cenw3ghnv"></path><path d="M141.13 569.27C140.98 573.67 144.42 577.36 148.83 577.51C153.23 577.66 156.92 574.22 157.07 569.81C157.22 565.41 153.78 561.72 149.37 561.57C144.97 561.42 141.28 564.87 141.13 569.27Z" id="b6wLfdL1z"></path><path d="M152.5 563.37L153.44 563.99L154.27 564.75L154.97 565.63L154.98 565.65L154.99 565.66L155 565.68L155.01 565.69L155.08 565.96L155.05 566.22L154.92 566.45L154.71 566.62L150.91 568.5L150.78 568.55L150.65 568.58L150.51 568.59L150.37 568.57L150.05 568.44L149.82 568.21L149.69 567.91L149.69 567.57L150.57 563.42L150.57 563.4L150.58 563.38L150.58 563.35L150.59 563.33L150.73 563.1L150.95 562.94L151.2 562.87L151.47 562.91L152.5 563.37Z" id="b14DsbCG19"></path><path d="M148.53 569.52C148.52 569.84 148.76 570.11 149.08 570.12C149.4 570.13 149.66 569.88 149.67 569.56C149.69 569.24 149.44 568.98 149.12 568.97C148.8 568.96 148.54 569.2 148.53 569.52Z" id="d1SfUgZbLj"></path><path d="M148.8 570.57C148.8 570.71 148.91 570.84 149.06 570.84C149.21 570.85 149.33 570.73 149.34 570.58C149.34 570.44 149.23 570.31 149.08 570.31C148.93 570.3 148.81 570.42 148.8 570.57Z" id="d1sjyy2Rrb"></path><path d="M149.84 569.84C149.79 569.98 149.86 570.13 150 570.18C150.14 570.23 150.29 570.16 150.34 570.02C150.39 569.88 150.32 569.73 150.18 569.68C150.04 569.63 149.89 569.7 149.84 569.84Z" id="ayATstrpp"></path><path d="M149.53 568.59C149.44 568.71 149.46 568.87 149.58 568.97C149.7 569.06 149.86 569.03 149.95 568.92C150.05 568.8 150.02 568.63 149.91 568.54C149.79 568.45 149.62 568.47 149.53 568.59Z" id="boIPJM1e5"></path><path d="M148.38 568.48C148.25 568.56 148.22 568.73 148.31 568.85C148.39 568.97 148.56 569 148.68 568.92C148.8 568.84 148.83 568.67 148.75 568.55C148.66 568.43 148.5 568.39 148.38 568.48Z" id="c5iXdJKqX"></path><path d="M148.04 569.6C147.9 569.64 147.82 569.79 147.86 569.93C147.9 570.07 148.05 570.15 148.19 570.11C148.33 570.07 148.41 569.92 148.37 569.78C148.33 569.63 148.18 569.55 148.04 569.6Z" id="cFVD7XrO"></path><path d="M158.9 559.12C158.5 559.12 157.15 559.59 157.44 559.85C160.56 562.65 161.3 565.71 161.46 566.37C161.71 567.61 161.83 568.87 161.81 570.14C161.81 570.49 162.39 570.97 162.74 570.98C168.68 571.14 181.42 571.04 188.38 571.04C196.08 571.04 214.03 571 220.66 571C221.16 570.91 221.56 570.52 221.65 570.01C221.65 569.82 221.68 568.32 221.69 568.13C221.71 566.85 222.39 564.56 223.41 562.74C223.61 562.41 223.32 562.21 221.3 562.04C209.7 561.13 169.4 559.24 158.9 559.12Z" id="e2jTL8XPC1"></path><linearGradient id="gradientdIqzKMv3N" gradientUnits="userSpaceOnUse" x1="189.86" y1="552.66" x2="191.05" y2="570.48"><stop style="stop-color: #c3c4c7;stop-opacity: 1" offset="0%"></stop><stop style="stop-color: #02c0af;stop-opacity: 0" offset="100%"></stop></linearGradient><path d="M149.53 555.24C141.76 555.24 135.21 562.07 135.49 570.62C136.21 570.7 136.03 570.39 136.29 569.71C136.14 567.82 136.79 563.89 139.15 561.36C141.27 558.38 145.87 556.79 148.66 556.79C155.03 556.59 158.9 560.54 160.58 563.91C161.88 566.51 161.69 570.16 161.83 570.26C161.92 570.51 162.09 570.72 162.31 570.87C162.58 571.1 163.17 571.04 163.58 571.03C164.26 562.8 157.31 555.24 149.53 555.24Z" id="cl6ZlpeFN"></path><path d="M235 555.34C227.24 555.34 220.62 562.41 220.89 570.96C221.38 570.81 221.69 570.34 221.66 569.83C221.51 567.94 222.26 563.98 224.63 561.45C226.75 558.48 231.35 556.88 234.14 556.88C240.51 556.68 244.33 560.67 246.03 564.03C247.33 566.63 247.02 570.87 247.13 571.05C247.2 571.38 247.41 571.66 247.71 571.81C248.12 571.97 248.56 572.02 248.99 571.96C249.67 563.72 242.76 555.34 235 555.34Z" id="d3F2bmjtZA"></path><path d="M257.77 551.51C258.37 550.91 257.44 549.23 256.64 548.17C255.84 547.11 254.71 546.62 254.1 547.08C253.49 547.53 253.64 548.76 254.43 549.82C255.22 550.88 257.18 552.11 257.77 551.51Z" id="a3rPYpvjha"></path><path d="M257.6 546.8C258.12 546.49 260.95 548.24 261.7 551.38C261.93 552.36 261.7 553.7 260.97 553.52C260.25 553.33 259.53 552.04 259.02 551.14C257.44 548.37 257.07 547.11 257.6 546.8Z" id="d16Kz9yUvi"></path><path d="M254.04 547.36C254.72 546.94 255.91 547.63 256.71 548.9C257.37 549.94 257.54 551.05 257.21 551.66C256.37 551.58 255.05 550.66 254.43 549.82C253.87 549.08 253.64 548.25 253.75 547.67C253.82 547.54 253.92 547.44 254.04 547.36Z" id="a8DwpWw8z"></path><path d="M257.36 547.26C258.53 547.51 260.3 549.42 260.73 550.97C261.03 552.03 260.82 552.86 260.49 553.26C259.94 552.8 259.42 551.84 259.02 551.14C257.85 549.1 257.36 547.89 257.36 547.26Z" id="c6UQ4Q4O6H"></path><path d="M226.73 536.22C227.89 536.91 229.2 537.32 230.54 537.41C231.17 537.41 232.2 537.17 232.35 536.9C229.76 535.91 227.56 535.01 227.32 534.94C227.23 535.43 226.25 535.86 226.73 536.22Z" id="awWGy46Wr"></path><path d="M225.76 535.76C223.78 537.31 222.68 538.18 222.46 538.35C222.43 538.38 222.38 538.38 222.35 538.35C222.35 538.35 222.35 538.35 222.35 538.35C222.35 538.35 222.35 538.35 222.35 538.35C222.32 538.32 222.32 538.27 222.35 538.24C222.35 538.24 222.35 538.24 222.35 538.24C222.56 538.07 223.64 537.22 225.57 535.69L225.76 535.76Z" id="e4oquQ933d"></path><path d="M228.19 535.46C227.91 535.46 227.68 535.69 227.68 535.97C227.68 536.25 227.91 536.48 228.19 536.48C228.47 536.48 228.7 536.25 228.7 535.97C228.7 535.69 228.47 535.46 228.19 535.46Z" id="c4JwdrERYr"></path><path d="M227.8 536.14C227.8 536.2 227.81 536.27 227.84 536.33C227.99 536.58 228.7 536.94 228.88 536.85C229.07 536.77 228.72 535.81 228.19 535.81C228 535.79 227.82 535.94 227.8 536.14Z" id="dO41Zp72n"></path><path d="M289.42 594.33C289.59 594.43 289.79 594.1 289.95 593.98C290.86 593.23 293.74 590.39 292.68 584.75C291.43 578.09 285.57 572.67 275.38 573.56C265.34 574.45 256.83 582.28 260.62 593.57C260.71 593.86 261.05 594.13 261.31 593.97C265.64 591.16 278.14 588.2 289.42 594.33Z" id="d1PzOTkSLJ"></path><path d="M379.04 595.33C379.23 595.4 379.17 595.36 379.34 595.24C380.31 594.58 383.41 591.96 382.8 586.26C382.07 579.53 376.66 573.66 366.44 573.74C356.36 573.82 347.25 580.96 350.13 592.51C350.2 592.8 350.54 594.55 350.8 594.38C355.57 591.17 368.28 588.32 379.04 595.33Z" id="bshDSryYE"></path><path d="M352.99 592.49C352.77 599.12 357.96 604.69 364.6 604.92C371.24 605.14 376.8 599.95 377.03 593.31C377.26 586.67 372.06 581.11 365.42 580.88C358.79 580.65 353.22 585.85 352.99 592.49Z" id="a2iK29w13x"></path><path d="M356.64 592.61C356.48 597.23 360.1 601.11 364.73 601.27C369.35 601.43 373.23 597.81 373.38 593.18C373.54 588.56 369.92 584.68 365.3 584.53C360.68 584.37 356.8 587.99 356.64 592.61Z" id="d2uv68rARw"></path><path d="M368.6 586.4L369.58 587.05L370.46 587.84L371.19 588.77L371.21 588.79L371.22 588.81L371.23 588.83L371.24 588.85L371.32 589.13L371.28 589.41L371.14 589.65L370.91 589.82L366.93 591.8L366.78 591.86L366.63 591.89L366.48 591.9L366.32 591.88L366 591.74L365.76 591.49L365.63 591.17L365.64 590.81L366.57 586.45L366.57 586.43L366.58 586.4L366.58 586.38L366.59 586.36L366.74 586.11L366.96 585.94L367.23 585.87L367.52 585.91L368.6 586.4Z" id="m1ooMZcHI9"></path><path d="M364.41 592.88C364.4 593.21 364.66 593.49 364.99 593.5C365.32 593.51 365.6 593.25 365.61 592.92C365.62 592.59 365.36 592.31 365.03 592.3C364.7 592.29 364.42 592.54 364.41 592.88Z" id="c1bhBE0cO"></path><path d="M364.69 593.98C364.69 594.13 364.81 594.26 364.96 594.27C365.12 594.27 365.25 594.15 365.25 593.99C365.26 593.84 365.14 593.71 364.98 593.7C364.83 593.7 364.7 593.82 364.69 593.98Z" id="a12LZRZ958"></path><path d="M365.82 593.22C365.76 593.36 365.84 593.52 365.99 593.58C366.13 593.63 366.29 593.55 366.34 593.41C366.4 593.26 366.32 593.1 366.18 593.05C366.03 592.99 365.87 593.07 365.82 593.22Z" id="j2obpS9tCX"></path><path d="M365.49 591.9C365.39 592.03 365.42 592.2 365.54 592.3C365.66 592.39 365.84 592.37 365.93 592.25C366.03 592.13 366 591.95 365.88 591.85C365.76 591.76 365.58 591.78 365.49 591.9Z" id="fq7digB0s"></path><path d="M364.27 591.78C364.14 591.87 364.11 592.04 364.19 592.17C364.28 592.3 364.46 592.33 364.58 592.24C364.71 592.16 364.74 591.98 364.66 591.85C364.57 591.72 364.39 591.69 364.27 591.78Z" id="cKrk3ek28"></path><path d="M363.91 592.96C363.76 593 363.68 593.16 363.72 593.3C363.77 593.45 363.92 593.54 364.07 593.49C364.22 593.45 364.3 593.29 364.26 593.15C364.22 593 364.06 592.91 363.91 592.96Z" id="a34E8aeC"></path><path d="M393.62 569.47C390.29 565.18 384.27 563.99 378.97 562.94C377.57 562.67 376.25 562.41 375.05 562.1C368.43 560.42 361.43 558.53 355.14 555.47C353.33 554.59 351.51 553.63 349.73 552.71C345.46 550.49 341.04 548.19 336.33 546.57C324.3 542.49 311.39 541.72 298.96 544.34C292.24 545.77 285.8 548.19 279.57 550.53C274.82 552.31 269.91 554.16 264.95 555.52C263.45 555.93 261.85 556.27 260.31 556.6C257.56 557.19 254.7 557.8 252.06 558.88C248.68 560.26 246.28 562.48 245.43 564.99C245.43 564.99 245.43 565 245.43 565.02C245.41 565.06 245.4 565.08 245.4 565.09C245.38 565.16 245.38 565.18 245.37 565.22C245.37 565.22 245.37 565.22 245.37 565.22C244.76 567.22 245.11 569.25 245.5 571.01C245.88 572.76 246.37 574.53 246.93 576.27C246.93 576.27 246.93 576.31 246.93 576.32C247.58 578.38 248.36 580.4 249.24 582.38C251.58 587.58 256.4 591.76 260.12 593.92C260.69 594.25 261.43 594.07 261.77 593.51C261.91 593.28 261.97 593.01 261.93 592.74C261.93 592.69 261.93 592.63 261.93 592.58C261.93 585.34 267.93 579.45 275.31 579.45C282.69 579.45 288.72 585.33 288.72 592.57C288.72 592.64 288.72 593.2 288.72 593.27C288.72 593.93 289.26 594.46 289.92 594.46C295.33 594.48 300.87 594.49 306.45 594.49C312.45 594.49 318.49 594.49 324.41 594.47C333.06 594.47 341.75 594.45 350.41 594.47C350.42 594.47 350.47 594.47 350.56 594.47C350.63 594.46 350.67 594.45 350.68 594.45C350.74 594.45 350.87 594.39 350.87 594.39C351.34 594.21 351.64 593.75 351.62 593.24C351.62 592.91 351.62 592.65 351.62 592.58C351.62 585.34 357.63 579.45 365.01 579.45C372.39 579.45 378.38 585.33 378.38 592.57C378.38 593.01 378.36 593.77 378.32 594.14C378.27 594.79 378.75 595.36 379.4 595.42C379.41 595.42 379.41 595.42 379.41 595.42C379.55 595.42 380.6 595.42 380.74 595.42C384 595.42 387.34 595.31 389.04 594.1C390.89 592.78 391.24 589.7 391.52 587.22C391.61 586.48 391.69 585.77 391.8 585.29C392.39 582.64 393.12 579.98 393.92 577.4C393.93 577.37 393.98 577.19 393.99 577.17C394.76 574.78 395.62 572.06 393.62 569.47C393.62 569.47 393.62 569.47 393.62 569.47Z" id="cruvT1NTY"></path><path d="M357.62 556.58C355.57 555.65 351.89 553.89 350.23 553.04C345.86 550.79 341.47 548.15 336.52 546.67C332.56 545.49 331.29 544.93 328.96 544.42C327.28 544.04 326.81 543.96 326.54 544C326.38 544.03 326.52 544.33 326.47 544.63C326.44 544.75 326.51 544.87 326.62 544.92C334.23 547.43 339.23 549 356.9 557.86C357.16 557.45 357.4 557.02 357.62 556.58Z" id="k1eDNo0A7m"></path><path d="M350.45 566.3C346.38 566.21 313.83 565.48 309.76 565.39C307.83 565.34 306.28 563.52 306.32 561.32C306.34 560.08 306.51 550.16 306.53 548.92C306.57 546.64 290.17 545.2 310.08 544.56C324.86 544.08 342.8 552.84 352.23 558.85C353.66 559.83 354.34 561.6 353.92 563.29C353.52 565.13 352.12 566.34 350.45 566.3Z" id="awl5pEiWt"></path><path d="M308.12 560.98C308.08 563.46 325.55 565.86 303.37 565.37C301.03 565.32 282.31 564.89 279.97 564.84C278.05 564.83 276.34 563.65 275.65 561.87C275.08 560.39 275.36 558.72 276.39 557.51C280.51 552.64 288.48 546.5 303.09 544.94C304.56 544.79 306.02 545.31 307.06 546.37C307.88 547.21 308.34 548.35 308.32 549.53C308.28 551.82 308.16 558.69 308.12 560.98Z" id="ddMl7l9Un"></path><path d="M360.08 559.01C360.65 560.25 362.45 562.41 363.24 562.92C364.03 563.44 366.71 564.16 368.75 564.79C370.79 565.43 382.28 568.53 383.22 569.33" id="c1T47rW84t"></path><path d="M273.03 560.1C272.3 561.17 270.21 562.92 269.37 563.28C268.52 563.64 265.8 563.9 263.7 564.18C261.6 564.46 249.91 565.6 248.88 566.21" id="a36edsbrV5"></path><path d="M307.4 564.8C306.14 567.44 304.68 571.27 305.25 581.95C305.83 592.63 306.79 593.88 308.44 594.03C310.1 594.17 347.72 593.93 348.3 593.9C348.75 593 349.55 588.33 349.78 580.79C350.01 573.25 349.7 567.52 349.25 566.15C340.88 565.88 315.77 565.07 307.4 564.8Z" id="abVE9D5jz"></path><path d="M388.17 583.95C388.73 584 389.08 585.23 388.94 586.69C388.8 588.15 388.23 589.29 387.67 589.24C387.11 589.19 386.76 587.96 386.9 586.5C387.04 585.03 387.61 583.89 388.17 583.95Z" id="b3xQIHGhfx"></path><path d="M387.53 584.39C387.17 585.03 386.95 585.75 386.91 586.49C386.8 587.28 386.89 588.07 387.18 588.81C387.75 588.81 388.3 587.89 388.41 586.7C388.52 585.51 388.14 584.44 387.56 584.39C387.55 584.39 387.54 584.39 387.53 584.39Z" id="fkEHciQne"></path><path d="M385.22 590.78C384.99 591.37 384.8 591.99 384.66 592.61C385.53 592.56 388.69 592.21 390.01 591.75C390.01 591.75 390.01 591.75 390.01 591.75C389.49 590.99 389.45 590.16 389.64 589.24C388.83 589.61 385.89 590.52 385.22 590.78Z" id="j1FXOlk8Hk"></path><path d="M306.37 560.05C306.33 562.08 304.54 563.69 302.36 563.64C300.39 563.59 284.6 563.23 282.63 563.19C281.03 563.18 279.6 562.22 278.99 560.75C278.51 559.54 278.76 558.17 279.62 557.19C283.09 553.21 289.8 548.2 302.13 546.96C303.36 546.83 304.59 547.25 305.48 548.12C306.17 548.8 306.55 549.73 306.54 550.7C306.5 552.57 306.4 558.18 306.37 560.05Z" id="d3qxurc1PV"></path><path d="M348.33 564.73C344.73 564.64 315.9 563.99 312.3 563.91C310.55 563.83 309.19 562.36 309.24 560.61C309.26 559.6 309.4 551.53 309.41 550.52C309.41 548.71 310.76 547.18 312.56 546.97C325.58 545.74 341.55 553.77 349.9 558.67C351.15 559.41 351.76 560.88 351.41 562.28C351.11 563.73 349.81 564.76 348.33 564.73Z" id="c23cqs5h0M"></path><path d="M319.37 569C322.38 569 322.76 571.01 322.73 572.08C322.7 573.14 322.13 575.26 319.32 575C316.52 574.75 315.61 573.56 315.61 572.01C315.61 570.85 316.37 569 319.37 569Z" id="aexPkOXrf"></path><path d="M313.98 572.81C316.06 572.63 322.18 573.01 323.23 573.22C324.22 573.43 325.06 571.78 323.79 571.39C322.51 571 318.7 570.95 316.81 570.93C313.78 570.91 312.66 570.77 312.56 571.9C312.51 572.36 312.81 572.92 313.98 572.81Z" id="bakJ7Yq9zF"></path><path d="M249.31 571.58C249.97 574.22 249.16 576.91 248.1 577.16C247.54 577.29 246.52 576.79 246.18 575.81C245.85 574.9 245.52 573.77 245.22 572.54" id="arlgS9DHL"></path><linearGradient id="gradientcecNpTq3C" gradientUnits="userSpaceOnUse" x1="186.67" y1="327.35" x2="191.08" y2="327.35"><stop style="stop-color: #83181e;stop-opacity: 1" offset="18%"></stop><stop style="stop-color: #ac1e1d;stop-opacity: 1" offset="100%"></stop></linearGradient><path d="M245.22 572.55C244.91 571.31 244.48 569.64 244.58 568.71C244.7 567.64 245.52 566.95 246.1 566.92C247 566.88 248.62 568.88 249.31 571.6" id="e33UgP65Ye"></path><path d="M306.42 560.14C306.4 561.6 282.75 553.34 287.09 551.27C290.69 549.54 292.71 548.11 302.13 546.91C303.38 546.76 304.63 547.19 305.52 548.09C306.22 548.77 306.61 549.71 306.59 550.69C306.56 552.58 306.45 558.25 306.42 560.14Z" id="e1SpxVyf5P"></path><linearGradient id="gradientb1FnCpM4AK" gradientUnits="userSpaceOnUse" x1="286.56" y1="553.59" x2="306.58" y2="553.59"><stop style="stop-color: #ffffff;stop-opacity: 0.3" offset="24%"></stop><stop style="stop-color: #8dd5ef;stop-opacity: 0.4" offset="100%"></stop></linearGradient><path d="M348.33 564.73C348.33 564.73 317.64 558.03 310.53 548.71C310.05 548.09 310.88 547.36 312.56 546.97C325.58 545.73 341.55 553.76 349.9 558.66C351.15 559.4 351.76 560.87 351.41 562.28C351.11 563.73 349.81 564.76 348.33 564.73Z" id="auUZiUw8c"></path><linearGradient id="gradienta6rQShoLO" gradientUnits="userSpaceOnUse" x1="310.39" y1="555.78" x2="351.5" y2="555.78"><stop style="stop-color: #ffffff;stop-opacity: 0.3" offset="22%"></stop><stop style="stop-color: #8dd5ef;stop-opacity: 0.4" offset="100%"></stop></linearGradient><path d="M348.26 565.62L346.84 556.39L351.46 559.48L351.57 565.02L351.57 565.02L348.26 565.62Z" id="f1E7wZAZkX"></path><path d="M344.73 558.9C346.5 558.88 350.22 559.84 351.8 561.01C351.97 561.6 351.27 563.34 350.03 564.79C348.48 565.41 343.21 564.99 341.25 564.69C340.61 564.16 340.58 562.11 341.06 560.68C341.3 560.33 342.97 558.92 344.73 558.9Z" id="e8eqf8S70"></path><path d="M341.44 560.73C341.49 560.37 342.76 559.43 343.71 559.06C342.7 559.36 341.79 559.92 341.07 560.69C340.59 562.11 340.61 564.17 341.26 564.69C343.21 564.99 348.48 565.41 350.03 564.79C350.36 564.4 350.66 563.99 350.93 563.56C348.05 563.59 342.13 563.28 341.41 562.95C341.37 562.21 341.38 561.47 341.44 560.73Z" id="d6pmCzHC5M"></path><path d="M272.76 567.68C270.82 567.68 269.25 569.25 269.25 571.2C269.25 573.14 270.82 574.71 272.76 574.71C274.7 574.71 276.27 573.14 276.27 571.2C276.27 569.25 274.7 567.68 272.76 567.68Z" id="aBFrBtdvk"></path><path d="M270.41 570.97C270.41 571.69 269.86 571.89 269.31 571.89C268.95 571.69 269.04 570.6 269.25 570.31C269.65 570.31 270.41 570.35 270.41 570.97Z" id="dBlOsfukk"></path><path d="M263.39 592.48C263.16 599.12 268.36 604.69 275 604.91C281.63 605.14 287.2 599.94 287.43 593.31C287.65 586.67 282.46 581.1 275.82 580.88C269.18 580.65 263.62 585.85 263.39 592.48Z" id="d2SdjLVSq6"></path><path d="M267.04 592.61C266.88 597.23 270.5 601.11 275.12 601.27C279.74 601.42 283.62 597.8 283.78 593.18C283.94 588.56 280.32 584.68 275.69 584.52C271.07 584.36 267.19 587.98 267.04 592.61Z" id="b2GW51XEd6"></path><path d="M278.99 586.4L279.97 587.05L280.84 587.84L281.58 588.77L281.6 588.79L281.61 588.81L281.62 588.83L281.63 588.85L281.7 589.13L281.67 589.41L281.53 589.65L281.3 589.82L277.31 591.8L277.17 591.86L277.02 591.89L276.87 591.9L276.72 591.88L276.39 591.73L276.15 591.48L276.03 591.16L276.03 590.8L276.95 586.45L276.96 586.43L276.97 586.4L276.97 586.38L276.98 586.36L277.13 586.11L277.35 585.94L277.62 585.87L277.91 585.91L278.99 586.4Z" id="i2fnvE2TMJ"></path><path d="M274.81 592.87C274.8 593.21 275.06 593.48 275.39 593.5C275.72 593.51 276 593.25 276.01 592.91C276.02 592.58 275.76 592.3 275.43 592.29C275.1 592.28 274.82 592.54 274.81 592.87Z" id="a2c4EMAJWB"></path><path d="M275.09 593.98C275.08 594.13 275.2 594.26 275.36 594.27C275.51 594.27 275.64 594.15 275.65 593.99C275.66 593.84 275.53 593.71 275.38 593.7C275.22 593.7 275.09 593.82 275.09 593.98Z" id="bxlJHxVI"></path><path d="M276.2 593.21C276.14 593.36 276.22 593.52 276.36 593.57C276.51 593.62 276.67 593.55 276.72 593.4C276.78 593.26 276.7 593.1 276.56 593.04C276.41 592.99 276.25 593.07 276.2 593.21Z" id="bA26TWEZj"></path><path d="M275.87 591.9C275.77 592.02 275.8 592.2 275.92 592.3C276.04 592.39 276.22 592.37 276.31 592.25C276.41 592.12 276.39 591.95 276.26 591.85C276.14 591.76 275.96 591.78 275.87 591.9Z" id="a2NkGBo9aF"></path><path d="M274.66 591.78C274.53 591.87 274.49 592.04 274.58 592.17C274.67 592.3 274.84 592.33 274.97 592.25C275.1 592.16 275.13 591.98 275.05 591.86C274.96 591.73 274.78 591.69 274.66 591.78Z" id="ee7eCoGJM"></path><path d="M274.3 592.96C274.15 593 274.07 593.16 274.11 593.31C274.15 593.45 274.31 593.54 274.46 593.5C274.61 593.45 274.69 593.3 274.65 593.15C274.6 593 274.45 592.91 274.3 592.96Z" id="aInRV7xTy"></path><path d="M285.7 581.95C285.28 581.95 283.86 582.44 284.17 582.72C287.44 585.65 288.22 588.87 288.39 589.57C288.66 590.87 288.78 592.2 288.76 593.53C288.76 593.9 289.36 594.41 289.75 594.42C295.99 594.59 309.37 594.48 316.68 594.48C324.76 594.48 343.62 594.44 350.58 594.44C351.12 594.35 351.54 593.93 351.63 593.4C351.64 593.2 351.67 591.61 351.67 591.42C351.7 590.08 352.42 587.66 353.49 585.76C353.66 585.41 353.37 585.19 351.23 585.02C339.05 584.06 296.74 582.08 285.7 581.95Z" id="eUFFo3792"></path><linearGradient id="gradienth1tgZ2O07Y" gradientUnits="userSpaceOnUse" x1="318.22" y1="575.17" x2="319.47" y2="593.88"><stop style="stop-color: #c3c4c7;stop-opacity: 1" offset="0%"></stop><stop style="stop-color: #02c0af;stop-opacity: 0" offset="100%"></stop></linearGradient><path d="M275.86 577.87C267.71 577.87 260.83 585.05 261.12 594.03C261.88 594.12 261.69 593.78 261.96 593.07C261.8 591.09 262.49 586.96 264.96 584.3C267.19 581.16 272.02 579.51 274.95 579.51C281.64 579.29 285.7 583.45 287.47 586.99C288.83 589.72 288.63 593.55 288.79 593.66C288.88 593.92 289.06 594.14 289.3 594.29C289.57 594.52 290.19 594.47 290.62 594.46C291.34 585.81 284.02 577.87 275.86 577.87Z" id="agBbrzGNq"></path><path d="M365.63 577.98C357.48 577.98 350.53 585.41 350.82 594.39C351.33 594.23 351.66 593.74 351.62 593.2C351.47 591.22 352.25 587.06 354.73 584.4C356.95 581.27 361.79 579.61 364.71 579.61C371.41 579.4 375.42 583.57 377.19 587.12C378.55 589.85 378.23 594.29 378.34 594.49C378.41 594.83 378.63 595.13 378.94 595.29C379.4 595.52 379.89 595.44 380.33 595.43C381.04 586.78 373.78 577.98 365.63 577.98Z" id="a6z5f9PRe"></path><path d="M389.55 573.96C390.18 573.33 389.19 571.57 388.36 570.46C387.53 569.34 386.33 568.82 385.69 569.3C385.05 569.78 385.21 571.07 386.04 572.19C386.87 573.3 388.93 574.59 389.55 573.96Z" id="c4PVqv7Lsa"></path><path d="M389.37 569.02C389.92 568.69 392.89 570.53 393.68 573.83C393.92 574.85 393.68 576.24 392.92 576.06C392.15 575.89 391.4 574.52 390.86 573.57C389.21 570.66 388.82 569.34 389.37 569.02Z" id="dFhgrWBcX"></path><path d="M385.63 569.59C386.34 569.14 387.61 569.87 388.44 571.21C389.12 572.31 389.31 573.47 388.96 574.1C388.09 574.02 386.69 573.05 386.04 572.17C385.45 571.4 385.21 570.54 385.33 569.92C385.4 569.79 385.51 569.67 385.63 569.59Z" id="cXWLBFoLf"></path><path d="M389.14 569.49C390.36 569.76 392.22 571.76 392.67 573.39C392.98 574.5 392.76 575.37 392.42 575.8C391.83 575.31 391.28 574.31 390.86 573.57C389.64 571.43 389.11 570.15 389.14 569.49Z" id="aakuYXCv"></path><path d="M356.94 557.91C357.5 558.34 359.58 559.16 360.96 559.15C361.63 559.15 362.7 558.9 362.86 558.62C360.13 557.58 357.81 556.63 357.56 556.56C357.47 557.08 356.44 557.53 356.94 557.91Z" id="agVinMJRZ"></path><path d="M355.93 557.4C353.85 559.03 352.7 559.94 352.47 560.12C352.44 560.15 352.39 560.15 352.36 560.12C352.36 560.12 352.36 560.12 352.36 560.12C352.33 560.09 352.33 560.04 352.36 560.01C352.58 559.83 353.71 558.94 355.74 557.33L355.93 557.4Z" id="dxMEkfMF7"></path><path d="M358.48 557.1C358.19 557.1 357.95 557.34 357.95 557.63C357.95 557.93 358.19 558.17 358.48 558.17C358.78 558.17 359.02 557.93 359.02 557.63C359.02 557.34 358.78 557.1 358.48 557.1Z" id="c9FaMCOnv"></path><path d="M358.07 557.8C358.06 557.87 358.08 557.95 358.11 558.01C358.27 558.28 359.02 558.65 359.21 558.56C359.4 558.47 359.03 557.47 358.48 557.47C358.28 557.45 358.09 557.6 358.07 557.8Z" id="b1a8THtLB"></path></defs><g><g><g><use xlink:href="#ckdmMg22y" opacity="1" fill="#6d6c6c" fill-opacity="1"></use><g><use xlink:href="#ckdmMg22y" opacity="1" fill-opacity="0" stroke="#000000" stroke-width="1" stroke-opacity="0"></use></g></g><g><use xlink:href="#bMFbrTxWt" opacity="1" fill="#595b5b" fill-opacity="1"></use><g><use xlink:href="#bMFbrTxWt" opacity="1" fill-opacity="0" stroke="#000000" stroke-width="1" stroke-opacity="0"></use></g></g><g><use xlink:href="#d2htZLU1e2" opacity="1" fill="#ffffff" fill-opacity="1"></use><g><use xlink:href="#d2htZLU1e2" opacity="1" fill-opacity="0" stroke="#000000" stroke-width="1" stroke-opacity="0"></use></g></g><g><use xlink:href="#dhwvzDzIO" opacity="1" fill="#c4c4c4" fill-opacity="1"></use><g><use xlink:href="#dhwvzDzIO" opacity="1" fill-opacity="0" stroke="#000000" stroke-width="1" stroke-opacity="0"></use></g></g><g><use xlink:href="#b1DGpRPaX7" opacity="1" fill="#ffffff" fill-opacity="1"></use><g><use xlink:href="#b1DGpRPaX7" opacity="1" fill-opacity="0" stroke="#000000" stroke-width="1" stroke-opacity="0"></use></g></g><g><use xlink:href="#d2glclqKG" opacity="1" fill="#ffffff" fill-opacity="1"></use><g><use xlink:href="#d2glclqKG" opacity="1" fill-opacity="0" stroke="#000000" stroke-width="1" stroke-opacity="0"></use></g></g><g><use xlink:href="#a1gvdHttZY" opacity="1" fill="#f4d5c1" fill-opacity="1"></use><g><use xlink:href="#a1gvdHttZY" opacity="1" fill-opacity="0" stroke="#000000" stroke-width="1" stroke-opacity="0"></use></g></g><g><use xlink:href="#c1FFKl3Smk" opacity="1" fill="#f0c2a2" fill-opacity="1"></use><g><use xlink:href="#c1FFKl3Smk" opacity="1" fill-opacity="0" stroke="#000000" stroke-width="1" stroke-opacity="0"></use></g></g><g><use xlink:href="#a1f77Sosju" opacity="1" fill="#c4c4c4" fill-opacity="1"></use><g><use xlink:href="#a1f77Sosju" opacity="1" fill-opacity="0" stroke="#000000" stroke-width="1" stroke-opacity="0"></use></g></g><g><use xlink:href="#aa6WobBrf" opacity="1" fill="#d9f9f3" fill-opacity="1"></use><g><use xlink:href="#aa6WobBrf" opacity="1" fill-opacity="0" stroke="#000000" stroke-width="1" stroke-opacity="0"></use></g></g><g><use xlink:href="#c1vRK9Lsyj" opacity="1" fill="#fafffe" fill-opacity="1"></use><g><use xlink:href="#c1vRK9Lsyj" opacity="1" fill-opacity="0" stroke="#000000" stroke-width="1" stroke-opacity="0"></use></g></g><g><use xlink:href="#hFI4byVJo" opacity="1" fill="#c4c4c4" fill-opacity="1"></use><g><use xlink:href="#hFI4byVJo" opacity="1" fill-opacity="0" stroke="#000000" stroke-width="1" stroke-opacity="0"></use></g></g><g><use xlink:href="#b2h09Z4KBs" opacity="1" fill="#d9f9f3" fill-opacity="1"></use><g><use xlink:href="#b2h09Z4KBs" opacity="1" fill-opacity="0" stroke="#000000" stroke-width="1" stroke-opacity="0"></use></g></g><g><use xlink:href="#bsftOvap3" opacity="1" fill="#fafffe" fill-opacity="1"></use><g><use xlink:href="#bsftOvap3" opacity="1" fill-opacity="0" stroke="#000000" stroke-width="1" stroke-opacity="0"></use></g></g><g><use xlink:href="#a2ow6hooU" opacity="1" fill="#c4c4c4" fill-opacity="1"></use><g><use xlink:href="#a2ow6hooU" opacity="1" fill-opacity="0" stroke="#000000" stroke-width="1" stroke-opacity="0"></use></g></g><g><use xlink:href="#d6av0LxH04" opacity="1" fill="#d9f9f3" fill-opacity="1"></use><g><use xlink:href="#d6av0LxH04" opacity="1" fill-opacity="0" stroke="#000000" stroke-width="1" stroke-opacity="0"></use></g></g><g><use xlink:href="#a75WXX7qL" opacity="1" fill="#fafffe" fill-opacity="1"></use><g><use xlink:href="#a75WXX7qL" opacity="1" fill-opacity="0" stroke="#000000" stroke-width="1" stroke-opacity="0"></use></g></g><g><use xlink:href="#d4aeOQKUTi" opacity="1" fill="#c4c4c4" fill-opacity="1"></use><g><use xlink:href="#d4aeOQKUTi" opacity="1" fill-opacity="0" stroke="#000000" stroke-width="1" stroke-opacity="0"></use></g></g><g><use xlink:href="#cj1eDsHdK" opacity="1" fill="#d9f9f3" fill-opacity="1"></use><g><use xlink:href="#cj1eDsHdK" opacity="1" fill-opacity="0" stroke="#000000" stroke-width="1" stroke-opacity="0"></use></g></g><g><use xlink:href="#b2PfoX0KDm" opacity="1" fill="#fafffe" fill-opacity="1"></use><g><use xlink:href="#b2PfoX0KDm" opacity="1" fill-opacity="0" stroke="#000000" stroke-width="1" stroke-opacity="0"></use></g></g><g><use xlink:href="#b6uhcHsDMP" opacity="1" fill="#c4c4c4" fill-opacity="1"></use><g><use xlink:href="#b6uhcHsDMP" opacity="1" fill-opacity="0" stroke="#000000" stroke-width="1" stroke-opacity="0"></use></g></g><g><use xlink:href="#aauSHvF997" opacity="1" fill="#d9f9f3" fill-opacity="1"></use><g><use xlink:href="#aauSHvF997" opacity="1" fill-opacity="0" stroke="#000000" stroke-width="1" stroke-opacity="0"></use></g></g><g><use xlink:href="#a1jOF4eZTt" opacity="1" fill="#fafffe" fill-opacity="1"></use><g><use xlink:href="#a1jOF4eZTt" opacity="1" fill-opacity="0" stroke="#000000" stroke-width="1" stroke-opacity="0"></use></g></g><g><use xlink:href="#h6qPMRZum" opacity="1" fill="#c4c4c4" fill-opacity="1"></use><g><use xlink:href="#h6qPMRZum" opacity="1" fill-opacity="0" stroke="#000000" stroke-width="1" stroke-opacity="0"></use></g></g><g><use xlink:href="#a6yyuJB06E" opacity="1" fill="#d9f9f3" fill-opacity="1"></use><g><use xlink:href="#a6yyuJB06E" opacity="1" fill-opacity="0" stroke="#000000" stroke-width="1" stroke-opacity="0"></use></g></g><g><use xlink:href="#a7OrF2Qks" opacity="1" fill="#fafffe" fill-opacity="1"></use><g><use xlink:href="#a7OrF2Qks" opacity="1" fill-opacity="0" stroke="#000000" stroke-width="1" stroke-opacity="0"></use></g></g><g><use xlink:href="#c2bPZwljb" opacity="1" fill="#515759" fill-opacity="1"></use><g><use xlink:href="#c2bPZwljb" opacity="1" fill-opacity="0" stroke="#000000" stroke-width="1" stroke-opacity="0"></use></g></g><g><use xlink:href="#ahujfc2PG" opacity="1" fill="#515759" fill-opacity="1"></use><g><use xlink:href="#ahujfc2PG" opacity="1" fill-opacity="0" stroke="#000000" stroke-width="1" stroke-opacity="0"></use></g></g><g><use xlink:href="#a3ebjLL3tl" opacity="1" fill="#373a35" fill-opacity="1"></use><g><use xlink:href="#a3ebjLL3tl" opacity="1" fill-opacity="0" stroke="#000000" stroke-width="1" stroke-opacity="0"></use></g></g><g><use xlink:href="#c1LKrFCh1" opacity="1" fill="#c3c4c7" fill-opacity="1"></use><g><use xlink:href="#c1LKrFCh1" opacity="1" fill-opacity="0" stroke="#000000" stroke-width="1" stroke-opacity="0"></use></g></g><g><use xlink:href="#c4eCLrM6Bq" opacity="1" fill="#85898c" fill-opacity="1"></use><g><use xlink:href="#c4eCLrM6Bq" opacity="1" fill-opacity="0" stroke="#000000" stroke-width="1" stroke-opacity="0"></use></g></g><g><use xlink:href="#b1lsV7FgZO" opacity="1" fill="#acb1b5" fill-opacity="1"></use><g><use xlink:href="#b1lsV7FgZO" opacity="1" fill-opacity="0" stroke="#000000" stroke-width="1" stroke-opacity="0"></use></g></g><g><use xlink:href="#a2z6jgePy" opacity="1" fill="#8b9298" fill-opacity="1"></use><g><use xlink:href="#a2z6jgePy" opacity="1" fill-opacity="0" stroke="#000000" stroke-width="1" stroke-opacity="0"></use></g></g><g><use xlink:href="#gV8uv66Hu" opacity="1" fill="#8b9298" fill-opacity="1"></use><g><use xlink:href="#gV8uv66Hu" opacity="1" fill-opacity="0" stroke="#000000" stroke-width="1" stroke-opacity="0"></use></g></g><g><use xlink:href="#a1X1qHBuux" opacity="1" fill="#8b9298" fill-opacity="1"></use><g><use xlink:href="#a1X1qHBuux" opacity="1" fill-opacity="0" stroke="#000000" stroke-width="1" stroke-opacity="0"></use></g></g><g><use xlink:href="#baQ6oCbXZ" opacity="1" fill="#8b9298" fill-opacity="1"></use><g><use xlink:href="#baQ6oCbXZ" opacity="1" fill-opacity="0" stroke="#000000" stroke-width="1" stroke-opacity="0"></use></g></g><g><use xlink:href="#a1SZ7H2Zpt" opacity="1" fill="#8b9298" fill-opacity="1"></use><g><use xlink:href="#a1SZ7H2Zpt" opacity="1" fill-opacity="0" stroke="#000000" stroke-width="1" stroke-opacity="0"></use></g></g><g><use xlink:href="#a4z2f2XE3" opacity="1" fill="#02c0af" fill-opacity="1"></use><g><use xlink:href="#a4z2f2XE3" opacity="1" fill-opacity="0" stroke="#000000" stroke-width="1" stroke-opacity="0"></use></g></g><g><use xlink:href="#a18b6ui3QL" opacity="1" fill="#8dd5ef" fill-opacity="1"></use><g><use xlink:href="#a18b6ui3QL" opacity="1" fill-opacity="0" stroke="#000000" stroke-width="1" stroke-opacity="0"></use></g></g><g><use xlink:href="#a2yNCxckS2" opacity="1" fill="#4f5858" fill-opacity="1"></use><g><use xlink:href="#a2yNCxckS2" opacity="1" fill-opacity="0" stroke="#000000" stroke-width="1" stroke-opacity="0"></use></g></g><g><use xlink:href="#g4rKrWZqup" opacity="1" fill="#4f5858" fill-opacity="1"></use><g><use xlink:href="#g4rKrWZqup" opacity="1" fill-opacity="0" stroke="#000000" stroke-width="1" stroke-opacity="0"></use></g></g><g><use xlink:href="#c1hwxGSwsO" opacity="1" fill="#000000" fill-opacity="0"></use><g><use xlink:href="#c1hwxGSwsO" opacity="1" fill-opacity="0" stroke="#4f5858" stroke-width="0.5" stroke-opacity="1"></use></g></g><g><use xlink:href="#bsKufShSC" opacity="1" fill="#000000" fill-opacity="0"></use><g><use xlink:href="#bsKufShSC" opacity="1" fill-opacity="0" stroke="#4f5858" stroke-width="0.5" stroke-opacity="1"></use></g></g><g><use xlink:href="#erAOPrKQ5" opacity="1" fill="#000000" fill-opacity="0"></use><g><use xlink:href="#erAOPrKQ5" opacity="1" fill-opacity="0" stroke="#4f5858" stroke-width="0.7" stroke-opacity="1"></use></g></g><g><use xlink:href="#g33N4FPb8i" opacity="1" fill="#474e4b" fill-opacity="1"></use><g><use xlink:href="#g33N4FPb8i" opacity="1" fill-opacity="0" stroke="#000000" stroke-width="1" stroke-opacity="0"></use></g></g><g><use xlink:href="#b3wSpy8yVu" opacity="1" fill="#ffffff" fill-opacity="1"></use><g><use xlink:href="#b3wSpy8yVu" opacity="1" fill-opacity="0" stroke="#000000" stroke-width="1" stroke-opacity="0"></use></g></g><g><use xlink:href="#bDuVHodio" opacity="1" fill="#474e4b" fill-opacity="1"></use><g><use xlink:href="#bDuVHodio" opacity="1" fill-opacity="0" stroke="#000000" stroke-width="1" stroke-opacity="0"></use></g></g><g><use xlink:href="#a5uKTNBoSq" opacity="1" fill="#8dd5ef" fill-opacity="1"></use><g><use xlink:href="#a5uKTNBoSq" opacity="1" fill-opacity="0" stroke="#000000" stroke-width="1" stroke-opacity="0"></use></g></g><g><use xlink:href="#b1bfcfceMs" opacity="1" fill="#8dd5ef" fill-opacity="1"></use><g><use xlink:href="#b1bfcfceMs" opacity="1" fill-opacity="0" stroke="#000000" stroke-width="1" stroke-opacity="0"></use></g></g><g><use xlink:href="#l6kM2fsfUU" opacity="1" fill="#00a68e" fill-opacity="1"></use><g><use xlink:href="#l6kM2fsfUU" opacity="1" fill-opacity="0" stroke="#000000" stroke-width="1" stroke-opacity="0"></use></g></g><g><use xlink:href="#c1OsaarmJF" opacity="1" fill="#00b39e" fill-opacity="1"></use><g><use xlink:href="#c1OsaarmJF" opacity="1" fill-opacity="0" stroke="#000000" stroke-width="1" stroke-opacity="0"></use></g></g><g><use xlink:href="#b2Sm5t4nIB" opacity="1" fill="url(#gradientj1tEVgOvZp)"></use><g><use xlink:href="#b2Sm5t4nIB" opacity="1" fill-opacity="0" stroke="#000000" stroke-width="1" stroke-opacity="0"></use></g></g><g><use xlink:href="#c1BGorMVkM" opacity="1" fill="#d92828" fill-opacity="1"></use><g><use xlink:href="#c1BGorMVkM" opacity="1" fill-opacity="0" stroke="#000000" stroke-width="1" stroke-opacity="0"></use></g></g><g><use xlink:href="#b4ksjzz92m" opacity="1" fill="url(#gradiente2BbP8d6Tg)"></use><g><use xlink:href="#b4ksjzz92m" opacity="1" fill-opacity="0" stroke="#000000" stroke-width="1" stroke-opacity="0"></use></g></g><g><use xlink:href="#brhJ7E86r" opacity="1" fill="url(#gradientb11Lv0bCY5)"></use><g><use xlink:href="#brhJ7E86r" opacity="1" fill-opacity="0" stroke="#000000" stroke-width="1" stroke-opacity="0"></use></g></g><g><use xlink:href="#e5NYrj68H" opacity="1" fill="#4f5858" fill-opacity="1"></use><g><use xlink:href="#e5NYrj68H" opacity="1" fill-opacity="0" stroke="#000000" stroke-width="1" stroke-opacity="0"></use></g></g><g><use xlink:href="#b27LkAK6pd" opacity="1" fill="#02c0af" fill-opacity="1"></use><g><use xlink:href="#b27LkAK6pd" opacity="1" fill-opacity="0" stroke="#000000" stroke-width="1" stroke-opacity="0"></use></g></g><g><use xlink:href="#dKxVi5Q1q" opacity="1" fill="#3d4642" fill-opacity="1"></use><g><use xlink:href="#dKxVi5Q1q" opacity="1" fill-opacity="0" stroke="#000000" stroke-width="1" stroke-opacity="0"></use></g></g><g><use xlink:href="#aWsqlCJoO" opacity="1" fill="#000000" fill-opacity="0"></use><g><use xlink:href="#aWsqlCJoO" opacity="1" fill-opacity="0" stroke="#4f5858" stroke-width="0.5" stroke-opacity="1"></use></g></g><g><use xlink:href="#a1Bu79IFpk" opacity="1" fill="#00a68e" fill-opacity="1"></use><g><use xlink:href="#a1Bu79IFpk" opacity="1" fill-opacity="0" stroke="#000000" stroke-width="1" stroke-opacity="0"></use></g></g><g><use xlink:href="#a9oQ6ev4w" opacity="1" fill="#373a35" fill-opacity="1"></use><g><use xlink:href="#a9oQ6ev4w" opacity="1" fill-opacity="0" stroke="#000000" stroke-width="1" stroke-opacity="0"></use></g></g><g><use xlink:href="#j1wgSEYkA" opacity="1" fill="#c3c4c7" fill-opacity="1"></use><g><use xlink:href="#j1wgSEYkA" opacity="1" fill-opacity="0" stroke="#000000" stroke-width="1" stroke-opacity="0"></use></g></g><g><use xlink:href="#b3TPybLsKz" opacity="1" fill="#85898c" fill-opacity="1"></use><g><use xlink:href="#b3TPybLsKz" opacity="1" fill-opacity="0" stroke="#000000" stroke-width="1" stroke-opacity="0"></use></g></g><g><use xlink:href="#n11YVCPboz" opacity="1" fill="#acb1b5" fill-opacity="1"></use><g><use xlink:href="#n11YVCPboz" opacity="1" fill-opacity="0" stroke="#000000" stroke-width="1" stroke-opacity="0"></use></g></g><g><use xlink:href="#a4FNC515R" opacity="1" fill="#8b9298" fill-opacity="1"></use><g><use xlink:href="#a4FNC515R" opacity="1" fill-opacity="0" stroke="#000000" stroke-width="1" stroke-opacity="0"></use></g></g><g><use xlink:href="#aqWK9v1a1" opacity="1" fill="#8b9298" fill-opacity="1"></use><g><use xlink:href="#aqWK9v1a1" opacity="1" fill-opacity="0" stroke="#000000" stroke-width="1" stroke-opacity="0"></use></g></g><g><use xlink:href="#a8xMQ1Ld" opacity="1" fill="#8b9298" fill-opacity="1"></use><g><use xlink:href="#a8xMQ1Ld" opacity="1" fill-opacity="0" stroke="#000000" stroke-width="1" stroke-opacity="0"></use></g></g><g><use xlink:href="#b1gTCXVDgy" opacity="1" fill="#8b9298" fill-opacity="1"></use><g><use xlink:href="#b1gTCXVDgy" opacity="1" fill-opacity="0" stroke="#000000" stroke-width="1" stroke-opacity="0"></use></g></g><g><use xlink:href="#ab5HdAjMY" opacity="1" fill="#8b9298" fill-opacity="1"></use><g><use xlink:href="#ab5HdAjMY" opacity="1" fill-opacity="0" stroke="#000000" stroke-width="1" stroke-opacity="0"></use></g></g><g><use xlink:href="#bhCiSZ7qq" opacity="1" fill="url(#gradientahYQZYBLS)"></use><g><use xlink:href="#bhCiSZ7qq" opacity="1" fill-opacity="0" stroke="#000000" stroke-width="1" stroke-opacity="0"></use></g></g><g><use xlink:href="#fYnPlvdAq" opacity="1" fill="#515759" fill-opacity="1"></use><g><use xlink:href="#fYnPlvdAq" opacity="1" fill-opacity="0" stroke="#000000" stroke-width="1" stroke-opacity="0"></use></g></g><g><use xlink:href="#h7y21ZbWht" opacity="1" fill="#515759" fill-opacity="1"></use><g><use xlink:href="#h7y21ZbWht" opacity="1" fill-opacity="0" stroke="#000000" stroke-width="1" stroke-opacity="0"></use></g></g><g><use xlink:href="#ayN95yBU6" opacity="1" fill="#b4eeff" fill-opacity="1"></use><g><use xlink:href="#ayN95yBU6" opacity="1" fill-opacity="0" stroke="#000000" stroke-width="1" stroke-opacity="0"></use></g></g><g><use xlink:href="#b8Fbwsf7H0" opacity="1" fill="#b4eeff" fill-opacity="1"></use><g><use xlink:href="#b8Fbwsf7H0" opacity="1" fill-opacity="0" stroke="#000000" stroke-width="1" stroke-opacity="0"></use></g></g><g><use xlink:href="#gXN5h8iBe" opacity="1" fill="#ffffff" fill-opacity="1"></use><g><use xlink:href="#gXN5h8iBe" opacity="1" fill-opacity="0" stroke="#000000" stroke-width="1" stroke-opacity="0"></use></g></g><g><use xlink:href="#b4xBK2Rxe" opacity="1" fill="#ffffff" fill-opacity="1"></use><g><use xlink:href="#b4xBK2Rxe" opacity="1" fill-opacity="0" stroke="#000000" stroke-width="1" stroke-opacity="0"></use></g></g><g><use xlink:href="#a7WaL7UO1I" opacity="1" fill="#4f5858" fill-opacity="1"></use><g><use xlink:href="#a7WaL7UO1I" opacity="1" fill-opacity="0" stroke="#000000" stroke-width="1" stroke-opacity="0"></use></g></g><g><use xlink:href="#hg0mYY6iu" opacity="1" fill="#4f5858" fill-opacity="1"></use><g><use xlink:href="#hg0mYY6iu" opacity="1" fill-opacity="0" stroke="#000000" stroke-width="1" stroke-opacity="0"></use></g></g><g><use xlink:href="#gFAIxDOca" opacity="1" fill="#474e4b" fill-opacity="1"></use><g><use xlink:href="#gFAIxDOca" opacity="1" fill-opacity="0" stroke="#000000" stroke-width="1" stroke-opacity="0"></use></g></g><g><use xlink:href="#cBXtmFcFF" opacity="1" fill="#3d4642" fill-opacity="1"></use><g><use xlink:href="#cBXtmFcFF" opacity="1" fill-opacity="0" stroke="#000000" stroke-width="1" stroke-opacity="0"></use></g></g><g><use xlink:href="#bv3MdOZtp" opacity="1" fill="#515759" fill-opacity="1"></use><g><use xlink:href="#bv3MdOZtp" opacity="1" fill-opacity="0" stroke="#000000" stroke-width="1" stroke-opacity="0"></use></g></g><g><use xlink:href="#cGIwWAwAd" opacity="1" fill="#515759" fill-opacity="1"></use><g><use xlink:href="#cGIwWAwAd" opacity="1" fill-opacity="0" stroke="#000000" stroke-width="1" stroke-opacity="0"></use></g></g><g><use xlink:href="#aykmOkI66" opacity="1" fill="#373a35" fill-opacity="1"></use><g><use xlink:href="#aykmOkI66" opacity="1" fill-opacity="0" stroke="#000000" stroke-width="1" stroke-opacity="0"></use></g></g><g><use xlink:href="#ac6zfBFSQ" opacity="1" fill="#c3c4c7" fill-opacity="1"></use><g><use xlink:href="#ac6zfBFSQ" opacity="1" fill-opacity="0" stroke="#000000" stroke-width="1" stroke-opacity="0"></use></g></g><g><use xlink:href="#a1cuF70wRx" opacity="1" fill="#85898c" fill-opacity="1"></use><g><use xlink:href="#a1cuF70wRx" opacity="1" fill-opacity="0" stroke="#000000" stroke-width="1" stroke-opacity="0"></use></g></g><g><use xlink:href="#a2uIkW8lI" opacity="1" fill="#acb1b5" fill-opacity="1"></use><g><use xlink:href="#a2uIkW8lI" opacity="1" fill-opacity="0" stroke="#000000" stroke-width="1" stroke-opacity="0"></use></g></g><g><use xlink:href="#d1j6Ytgeea" opacity="1" fill="#8b9298" fill-opacity="1"></use><g><use xlink:href="#d1j6Ytgeea" opacity="1" fill-opacity="0" stroke="#000000" stroke-width="1" stroke-opacity="0"></use></g></g><g><use xlink:href="#bLgo4jlO" opacity="1" fill="#8b9298" fill-opacity="1"></use><g><use xlink:href="#bLgo4jlO" opacity="1" fill-opacity="0" stroke="#000000" stroke-width="1" stroke-opacity="0"></use></g></g><g><use xlink:href="#d7IDSqdIcG" opacity="1" fill="#8b9298" fill-opacity="1"></use><g><use xlink:href="#d7IDSqdIcG" opacity="1" fill-opacity="0" stroke="#000000" stroke-width="1" stroke-opacity="0"></use></g></g><g><use xlink:href="#b1yRjGYZZo" opacity="1" fill="#8b9298" fill-opacity="1"></use><g><use xlink:href="#b1yRjGYZZo" opacity="1" fill-opacity="0" stroke="#000000" stroke-width="1" stroke-opacity="0"></use></g></g><g><use xlink:href="#e3DM2QmmnF" opacity="1" fill="#8b9298" fill-opacity="1"></use><g><use xlink:href="#e3DM2QmmnF" opacity="1" fill-opacity="0" stroke="#000000" stroke-width="1" stroke-opacity="0"></use></g></g><g><use xlink:href="#j2cQ2y4kS5" opacity="1" fill="#02c0af" fill-opacity="1"></use><g><use xlink:href="#j2cQ2y4kS5" opacity="1" fill-opacity="0" stroke="#000000" stroke-width="1" stroke-opacity="0"></use></g></g><g><use xlink:href="#c1Ika4jNVQ" opacity="1" fill="#8dd5ef" fill-opacity="1"></use><g><use xlink:href="#c1Ika4jNVQ" opacity="1" fill-opacity="0" stroke="#000000" stroke-width="1" stroke-opacity="0"></use></g></g><g><use xlink:href="#bZhlYwve1" opacity="1" fill="#4f5858" fill-opacity="1"></use><g><use xlink:href="#bZhlYwve1" opacity="1" fill-opacity="0" stroke="#000000" stroke-width="1" stroke-opacity="0"></use></g></g><g><use xlink:href="#b5X2yKsyx" opacity="1" fill="#4f5858" fill-opacity="1"></use><g><use xlink:href="#b5X2yKsyx" opacity="1" fill-opacity="0" stroke="#000000" stroke-width="1" stroke-opacity="0"></use></g></g><g><use xlink:href="#a3h7kt1LAN" opacity="1" fill="#000000" fill-opacity="0"></use><g><use xlink:href="#a3h7kt1LAN" opacity="1" fill-opacity="0" stroke="#4f5858" stroke-width="0.5" stroke-opacity="1"></use></g></g><g><use xlink:href="#b1pEI3azc" opacity="1" fill="#000000" fill-opacity="0"></use><g><use xlink:href="#b1pEI3azc" opacity="1" fill-opacity="0" stroke="#4f5858" stroke-width="0.5" stroke-opacity="1"></use></g></g><g><use xlink:href="#d68v8j7OG" opacity="1" fill="#000000" fill-opacity="0"></use><g><use xlink:href="#d68v8j7OG" opacity="1" fill-opacity="0" stroke="#4f5858" stroke-width="0.7" stroke-opacity="1"></use></g></g><g><use xlink:href="#eYtFKGLLT" opacity="1" fill="#474e4b" fill-opacity="1"></use><g><use xlink:href="#eYtFKGLLT" opacity="1" fill-opacity="0" stroke="#000000" stroke-width="1" stroke-opacity="0"></use></g></g><g><use xlink:href="#k6m281udvw" opacity="1" fill="#ffffff" fill-opacity="1"></use><g><use xlink:href="#k6m281udvw" opacity="1" fill-opacity="0" stroke="#000000" stroke-width="1" stroke-opacity="0"></use></g></g><g><use xlink:href="#f3F3s3O0KL" opacity="1" fill="#474e4b" fill-opacity="1"></use><g><use xlink:href="#f3F3s3O0KL" opacity="1" fill-opacity="0" stroke="#000000" stroke-width="1" stroke-opacity="0"></use></g></g><g><use xlink:href="#b4BDpwKmAE" opacity="1" fill="#8dd5ef" fill-opacity="1"></use><g><use xlink:href="#b4BDpwKmAE" opacity="1" fill-opacity="0" stroke="#000000" stroke-width="1" stroke-opacity="0"></use></g></g><g><use xlink:href="#aBZcWg6w" opacity="1" fill="#8dd5ef" fill-opacity="1"></use><g><use xlink:href="#aBZcWg6w" opacity="1" fill-opacity="0" stroke="#000000" stroke-width="1" stroke-opacity="0"></use></g></g><g><use xlink:href="#j9KfSpVbQ" opacity="1" fill="#00a68e" fill-opacity="1"></use><g><use xlink:href="#j9KfSpVbQ" opacity="1" fill-opacity="0" stroke="#000000" stroke-width="1" stroke-opacity="0"></use></g></g><g><use xlink:href="#ahBZuULv" opacity="1" fill="#00b39e" fill-opacity="1"></use><g><use xlink:href="#ahBZuULv" opacity="1" fill-opacity="0" stroke="#000000" stroke-width="1" stroke-opacity="0"></use></g></g><g><use xlink:href="#a1lIQvvTZ5" opacity="1" fill="url(#gradientb3RfDYMipR)"></use><g><use xlink:href="#a1lIQvvTZ5" opacity="1" fill-opacity="0" stroke="#000000" stroke-width="1" stroke-opacity="0"></use></g></g><g><use xlink:href="#anqAPFmV6" opacity="1" fill="#d92828" fill-opacity="1"></use><g><use xlink:href="#anqAPFmV6" opacity="1" fill-opacity="0" stroke="#000000" stroke-width="1" stroke-opacity="0"></use></g></g><g><use xlink:href="#a2y2Wphdq" opacity="1" fill="url(#gradientbLlPavVz)"></use><g><use xlink:href="#a2y2Wphdq" opacity="1" fill-opacity="0" stroke="#000000" stroke-width="1" stroke-opacity="0"></use></g></g><g><use xlink:href="#aRHHnMBvC" opacity="1" fill="url(#gradientd2ysnM3yiM)"></use><g><use xlink:href="#aRHHnMBvC" opacity="1" fill-opacity="0" stroke="#000000" stroke-width="1" stroke-opacity="0"></use></g></g><g><use xlink:href="#jsLwAIWAm" opacity="1" fill="#4f5858" fill-opacity="1"></use><g><use xlink:href="#jsLwAIWAm" opacity="1" fill-opacity="0" stroke="#000000" stroke-width="1" stroke-opacity="0"></use></g></g><g><use xlink:href="#h1AHj3oe6b" opacity="1" fill="#02c0af" fill-opacity="1"></use><g><use xlink:href="#h1AHj3oe6b" opacity="1" fill-opacity="0" stroke="#000000" stroke-width="1" stroke-opacity="0"></use></g></g><g><use xlink:href="#apTWCsxOZ" opacity="1" fill="#3d4642" fill-opacity="1"></use><g><use xlink:href="#apTWCsxOZ" opacity="1" fill-opacity="0" stroke="#000000" stroke-width="1" stroke-opacity="0"></use></g></g><g><use xlink:href="#b2XZCDf4R3" opacity="1" fill="#000000" fill-opacity="0"></use><g><use xlink:href="#b2XZCDf4R3" opacity="1" fill-opacity="0" stroke="#4f5858" stroke-width="0.5" stroke-opacity="1"></use></g></g><g><use xlink:href="#b3OqRt9uem" opacity="1" fill="#00a68e" fill-opacity="1"></use><g><use xlink:href="#b3OqRt9uem" opacity="1" fill-opacity="0" stroke="#000000" stroke-width="1" stroke-opacity="0"></use></g></g><g><use xlink:href="#cenw3ghnv" opacity="1" fill="#373a35" fill-opacity="1"></use><g><use xlink:href="#cenw3ghnv" opacity="1" fill-opacity="0" stroke="#000000" stroke-width="1" stroke-opacity="0"></use></g></g><g><use xlink:href="#b6wLfdL1z" opacity="1" fill="#c3c4c7" fill-opacity="1"></use><g><use xlink:href="#b6wLfdL1z" opacity="1" fill-opacity="0" stroke="#000000" stroke-width="1" stroke-opacity="0"></use></g></g><g><use xlink:href="#b14DsbCG19" opacity="1" fill="#85898c" fill-opacity="1"></use><g><use xlink:href="#b14DsbCG19" opacity="1" fill-opacity="0" stroke="#000000" stroke-width="1" stroke-opacity="0"></use></g></g><g><use xlink:href="#d1SfUgZbLj" opacity="1" fill="#acb1b5" fill-opacity="1"></use><g><use xlink:href="#d1SfUgZbLj" opacity="1" fill-opacity="0" stroke="#000000" stroke-width="1" stroke-opacity="0"></use></g></g><g><use xlink:href="#d1sjyy2Rrb" opacity="1" fill="#8b9298" fill-opacity="1"></use><g><use xlink:href="#d1sjyy2Rrb" opacity="1" fill-opacity="0" stroke="#000000" stroke-width="1" stroke-opacity="0"></use></g></g><g><use xlink:href="#ayATstrpp" opacity="1" fill="#8b9298" fill-opacity="1"></use><g><use xlink:href="#ayATstrpp" opacity="1" fill-opacity="0" stroke="#000000" stroke-width="1" stroke-opacity="0"></use></g></g><g><use xlink:href="#boIPJM1e5" opacity="1" fill="#8b9298" fill-opacity="1"></use><g><use xlink:href="#boIPJM1e5" opacity="1" fill-opacity="0" stroke="#000000" stroke-width="1" stroke-opacity="0"></use></g></g><g><use xlink:href="#c5iXdJKqX" opacity="1" fill="#8b9298" fill-opacity="1"></use><g><use xlink:href="#c5iXdJKqX" opacity="1" fill-opacity="0" stroke="#000000" stroke-width="1" stroke-opacity="0"></use></g></g><g><use xlink:href="#cFVD7XrO" opacity="1" fill="#8b9298" fill-opacity="1"></use><g><use xlink:href="#cFVD7XrO" opacity="1" fill-opacity="0" stroke="#000000" stroke-width="1" stroke-opacity="0"></use></g></g><g><use xlink:href="#e2jTL8XPC1" opacity="1" fill="url(#gradientdIqzKMv3N)"></use><g><use xlink:href="#e2jTL8XPC1" opacity="1" fill-opacity="0" stroke="#000000" stroke-width="1" stroke-opacity="0"></use></g></g><g><use xlink:href="#cl6ZlpeFN" opacity="1" fill="#515759" fill-opacity="1"></use><g><use xlink:href="#cl6ZlpeFN" opacity="1" fill-opacity="0" stroke="#000000" stroke-width="1" stroke-opacity="0"></use></g></g><g><use xlink:href="#d3F2bmjtZA" opacity="1" fill="#515759" fill-opacity="1"></use><g><use xlink:href="#d3F2bmjtZA" opacity="1" fill-opacity="0" stroke="#000000" stroke-width="1" stroke-opacity="0"></use></g></g><g><use xlink:href="#a3rPYpvjha" opacity="1" fill="#b4eeff" fill-opacity="1"></use><g><use xlink:href="#a3rPYpvjha" opacity="1" fill-opacity="0" stroke="#000000" stroke-width="1" stroke-opacity="0"></use></g></g><g><use xlink:href="#d16Kz9yUvi" opacity="1" fill="#b4eeff" fill-opacity="1"></use><g><use xlink:href="#d16Kz9yUvi" opacity="1" fill-opacity="0" stroke="#000000" stroke-width="1" stroke-opacity="0"></use></g></g><g><use xlink:href="#a8DwpWw8z" opacity="1" fill="#ffffff" fill-opacity="1"></use><g><use xlink:href="#a8DwpWw8z" opacity="1" fill-opacity="0" stroke="#000000" stroke-width="1" stroke-opacity="0"></use></g></g><g><use xlink:href="#c6UQ4Q4O6H" opacity="1" fill="#ffffff" fill-opacity="1"></use><g><use xlink:href="#c6UQ4Q4O6H" opacity="1" fill-opacity="0" stroke="#000000" stroke-width="1" stroke-opacity="0"></use></g></g><g><use xlink:href="#awWGy46Wr" opacity="1" fill="#4f5858" fill-opacity="1"></use><g><use xlink:href="#awWGy46Wr" opacity="1" fill-opacity="0" stroke="#000000" stroke-width="1" stroke-opacity="0"></use></g></g><g><use xlink:href="#e4oquQ933d" opacity="1" fill="#4f5858" fill-opacity="1"></use><g><use xlink:href="#e4oquQ933d" opacity="1" fill-opacity="0" stroke="#000000" stroke-width="1" stroke-opacity="0"></use></g></g><g><use xlink:href="#c4JwdrERYr" opacity="1" fill="#474e4b" fill-opacity="1"></use><g><use xlink:href="#c4JwdrERYr" opacity="1" fill-opacity="0" stroke="#000000" stroke-width="1" stroke-opacity="0"></use></g></g><g><use xlink:href="#dO41Zp72n" opacity="1" fill="#3d4642" fill-opacity="1"></use><g><use xlink:href="#dO41Zp72n" opacity="1" fill-opacity="0" stroke="#000000" stroke-width="1" stroke-opacity="0"></use></g></g><g><use xlink:href="#d1PzOTkSLJ" opacity="1" fill="#515759" fill-opacity="1"></use><g><use xlink:href="#d1PzOTkSLJ" opacity="1" fill-opacity="0" stroke="#000000" stroke-width="1" stroke-opacity="0"></use></g></g><g><use xlink:href="#bshDSryYE" opacity="1" fill="#515759" fill-opacity="1"></use><g><use xlink:href="#bshDSryYE" opacity="1" fill-opacity="0" stroke="#000000" stroke-width="1" stroke-opacity="0"></use></g></g><g><use xlink:href="#a2iK29w13x" opacity="1" fill="#373a35" fill-opacity="1"></use><g><use xlink:href="#a2iK29w13x" opacity="1" fill-opacity="0" stroke="#000000" stroke-width="1" stroke-opacity="0"></use></g></g><g><use xlink:href="#d2uv68rARw" opacity="1" fill="#c3c4c7" fill-opacity="1"></use><g><use xlink:href="#d2uv68rARw" opacity="1" fill-opacity="0" stroke="#000000" stroke-width="1" stroke-opacity="0"></use></g></g><g><use xlink:href="#m1ooMZcHI9" opacity="1" fill="#85898c" fill-opacity="1"></use><g><use xlink:href="#m1ooMZcHI9" opacity="1" fill-opacity="0" stroke="#000000" stroke-width="1" stroke-opacity="0"></use></g></g><g><use xlink:href="#c1bhBE0cO" opacity="1" fill="#acb1b5" fill-opacity="1"></use><g><use xlink:href="#c1bhBE0cO" opacity="1" fill-opacity="0" stroke="#000000" stroke-width="1" stroke-opacity="0"></use></g></g><g><use xlink:href="#a12LZRZ958" opacity="1" fill="#8b9298" fill-opacity="1"></use><g><use xlink:href="#a12LZRZ958" opacity="1" fill-opacity="0" stroke="#000000" stroke-width="1" stroke-opacity="0"></use></g></g><g><use xlink:href="#j2obpS9tCX" opacity="1" fill="#8b9298" fill-opacity="1"></use><g><use xlink:href="#j2obpS9tCX" opacity="1" fill-opacity="0" stroke="#000000" stroke-width="1" stroke-opacity="0"></use></g></g><g><use xlink:href="#fq7digB0s" opacity="1" fill="#8b9298" fill-opacity="1"></use><g><use xlink:href="#fq7digB0s" opacity="1" fill-opacity="0" stroke="#000000" stroke-width="1" stroke-opacity="0"></use></g></g><g><use xlink:href="#cKrk3ek28" opacity="1" fill="#8b9298" fill-opacity="1"></use><g><use xlink:href="#cKrk3ek28" opacity="1" fill-opacity="0" stroke="#000000" stroke-width="1" stroke-opacity="0"></use></g></g><g><use xlink:href="#a34E8aeC" opacity="1" fill="#8b9298" fill-opacity="1"></use><g><use xlink:href="#a34E8aeC" opacity="1" fill-opacity="0" stroke="#000000" stroke-width="1" stroke-opacity="0"></use></g></g><g><use xlink:href="#cruvT1NTY" opacity="1" fill="#02c0af" fill-opacity="1"></use><g><use xlink:href="#cruvT1NTY" opacity="1" fill-opacity="0" stroke="#000000" stroke-width="1" stroke-opacity="0"></use></g></g><g><use xlink:href="#k1eDNo0A7m" opacity="1" fill="#8dd5ef" fill-opacity="1"></use><g><use xlink:href="#k1eDNo0A7m" opacity="1" fill-opacity="0" stroke="#000000" stroke-width="1" stroke-opacity="0"></use></g></g><g><use xlink:href="#awl5pEiWt" opacity="1" fill="#4f5858" fill-opacity="1"></use><g><use xlink:href="#awl5pEiWt" opacity="1" fill-opacity="0" stroke="#000000" stroke-width="1" stroke-opacity="0"></use></g></g><g><use xlink:href="#ddMl7l9Un" opacity="1" fill="#4f5858" fill-opacity="1"></use><g><use xlink:href="#ddMl7l9Un" opacity="1" fill-opacity="0" stroke="#000000" stroke-width="1" stroke-opacity="0"></use></g></g><g><use xlink:href="#c1T47rW84t" opacity="1" fill="#000000" fill-opacity="0"></use><g><use xlink:href="#c1T47rW84t" opacity="1" fill-opacity="0" stroke="#4f5858" stroke-width="0.5" stroke-opacity="1"></use></g></g><g><use xlink:href="#a36edsbrV5" opacity="1" fill="#000000" fill-opacity="0"></use><g><use xlink:href="#a36edsbrV5" opacity="1" fill-opacity="0" stroke="#4f5858" stroke-width="0.5" stroke-opacity="1"></use></g></g><g><use xlink:href="#abVE9D5jz" opacity="1" fill="#000000" fill-opacity="0"></use><g><use xlink:href="#abVE9D5jz" opacity="1" fill-opacity="0" stroke="#4f5858" stroke-width="0.7" stroke-opacity="1"></use></g></g><g><use xlink:href="#b3xQIHGhfx" opacity="1" fill="#474e4b" fill-opacity="1"></use><g><use xlink:href="#b3xQIHGhfx" opacity="1" fill-opacity="0" stroke="#000000" stroke-width="1" stroke-opacity="0"></use></g></g><g><use xlink:href="#fkEHciQne" opacity="1" fill="#ffffff" fill-opacity="1"></use><g><use xlink:href="#fkEHciQne" opacity="1" fill-opacity="0" stroke="#000000" stroke-width="1" stroke-opacity="0"></use></g></g><g><use xlink:href="#j1FXOlk8Hk" opacity="1" fill="#474e4b" fill-opacity="1"></use><g><use xlink:href="#j1FXOlk8Hk" opacity="1" fill-opacity="0" stroke="#000000" stroke-width="1" stroke-opacity="0"></use></g></g><g><use xlink:href="#d3qxurc1PV" opacity="1" fill="#8dd5ef" fill-opacity="1"></use><g><use xlink:href="#d3qxurc1PV" opacity="1" fill-opacity="0" stroke="#000000" stroke-width="1" stroke-opacity="0"></use></g></g><g><use xlink:href="#c23cqs5h0M" opacity="1" fill="#8dd5ef" fill-opacity="1"></use><g><use xlink:href="#c23cqs5h0M" opacity="1" fill-opacity="0" stroke="#000000" stroke-width="1" stroke-opacity="0"></use></g></g><g><use xlink:href="#aexPkOXrf" opacity="1" fill="#00a68e" fill-opacity="1"></use><g><use xlink:href="#aexPkOXrf" opacity="1" fill-opacity="0" stroke="#000000" stroke-width="1" stroke-opacity="0"></use></g></g><g><use xlink:href="#bakJ7Yq9zF" opacity="1" fill="#00b39e" fill-opacity="1"></use><g><use xlink:href="#bakJ7Yq9zF" opacity="1" fill-opacity="0" stroke="#000000" stroke-width="1" stroke-opacity="0"></use></g></g><g><use xlink:href="#arlgS9DHL" opacity="1" fill="url(#gradientcecNpTq3C)"></use><g><use xlink:href="#arlgS9DHL" opacity="1" fill-opacity="0" stroke="#000000" stroke-width="1" stroke-opacity="0"></use></g></g><g><use xlink:href="#e33UgP65Ye" opacity="1" fill="#d92828" fill-opacity="1"></use><g><use xlink:href="#e33UgP65Ye" opacity="1" fill-opacity="0" stroke="#000000" stroke-width="1" stroke-opacity="0"></use></g></g><g><use xlink:href="#e1SpxVyf5P" opacity="1" fill="url(#gradientb1FnCpM4AK)"></use><g><use xlink:href="#e1SpxVyf5P" opacity="1" fill-opacity="0" stroke="#000000" stroke-width="1" stroke-opacity="0"></use></g></g><g><use xlink:href="#auUZiUw8c" opacity="1" fill="url(#gradienta6rQShoLO)"></use><g><use xlink:href="#auUZiUw8c" opacity="1" fill-opacity="0" stroke="#000000" stroke-width="1" stroke-opacity="0"></use></g></g><g><use xlink:href="#f1E7wZAZkX" opacity="1" fill="#4f5858" fill-opacity="1"></use><g><use xlink:href="#f1E7wZAZkX" opacity="1" fill-opacity="0" stroke="#000000" stroke-width="1" stroke-opacity="0"></use></g></g><g><use xlink:href="#e8eqf8S70" opacity="1" fill="#02c0af" fill-opacity="1"></use><g><use xlink:href="#e8eqf8S70" opacity="1" fill-opacity="0" stroke="#000000" stroke-width="1" stroke-opacity="0"></use></g></g><g><use xlink:href="#d6pmCzHC5M" opacity="1" fill="#3d4642" fill-opacity="1"></use><g><use xlink:href="#d6pmCzHC5M" opacity="1" fill-opacity="0" stroke="#000000" stroke-width="1" stroke-opacity="0"></use></g></g><g><use xlink:href="#aBFrBtdvk" opacity="1" fill="#000000" fill-opacity="0"></use><g><use xlink:href="#aBFrBtdvk" opacity="1" fill-opacity="0" stroke="#4f5858" stroke-width="0.5" stroke-opacity="1"></use></g></g><g><use xlink:href="#dBlOsfukk" opacity="1" fill="#00a68e" fill-opacity="1"></use><g><use xlink:href="#dBlOsfukk" opacity="1" fill-opacity="0" stroke="#000000" stroke-width="1" stroke-opacity="0"></use></g></g><g><use xlink:href="#d2SdjLVSq6" opacity="1" fill="#373a35" fill-opacity="1"></use><g><use xlink:href="#d2SdjLVSq6" opacity="1" fill-opacity="0" stroke="#000000" stroke-width="1" stroke-opacity="0"></use></g></g><g><use xlink:href="#b2GW51XEd6" opacity="1" fill="#c3c4c7" fill-opacity="1"></use><g><use xlink:href="#b2GW51XEd6" opacity="1" fill-opacity="0" stroke="#000000" stroke-width="1" stroke-opacity="0"></use></g></g><g><use xlink:href="#i2fnvE2TMJ" opacity="1" fill="#85898c" fill-opacity="1"></use><g><use xlink:href="#i2fnvE2TMJ" opacity="1" fill-opacity="0" stroke="#000000" stroke-width="1" stroke-opacity="0"></use></g></g><g><use xlink:href="#a2c4EMAJWB" opacity="1" fill="#acb1b5" fill-opacity="1"></use><g><use xlink:href="#a2c4EMAJWB" opacity="1" fill-opacity="0" stroke="#000000" stroke-width="1" stroke-opacity="0"></use></g></g><g><use xlink:href="#bxlJHxVI" opacity="1" fill="#8b9298" fill-opacity="1"></use><g><use xlink:href="#bxlJHxVI" opacity="1" fill-opacity="0" stroke="#000000" stroke-width="1" stroke-opacity="0"></use></g></g><g><use xlink:href="#bA26TWEZj" opacity="1" fill="#8b9298" fill-opacity="1"></use><g><use xlink:href="#bA26TWEZj" opacity="1" fill-opacity="0" stroke="#000000" stroke-width="1" stroke-opacity="0"></use></g></g><g><use xlink:href="#a2NkGBo9aF" opacity="1" fill="#8b9298" fill-opacity="1"></use><g><use xlink:href="#a2NkGBo9aF" opacity="1" fill-opacity="0" stroke="#000000" stroke-width="1" stroke-opacity="0"></use></g></g><g><use xlink:href="#ee7eCoGJM" opacity="1" fill="#8b9298" fill-opacity="1"></use><g><use xlink:href="#ee7eCoGJM" opacity="1" fill-opacity="0" stroke="#000000" stroke-width="1" stroke-opacity="0"></use></g></g><g><use xlink:href="#aInRV7xTy" opacity="1" fill="#8b9298" fill-opacity="1"></use><g><use xlink:href="#aInRV7xTy" opacity="1" fill-opacity="0" stroke="#000000" stroke-width="1" stroke-opacity="0"></use></g></g><g><use xlink:href="#eUFFo3792" opacity="1" fill="url(#gradienth1tgZ2O07Y)"></use><g><use xlink:href="#eUFFo3792" opacity="1" fill-opacity="0" stroke="#000000" stroke-width="1" stroke-opacity="0"></use></g></g><g><use xlink:href="#agBbrzGNq" opacity="1" fill="#515759" fill-opacity="1"></use><g><use xlink:href="#agBbrzGNq" opacity="1" fill-opacity="0" stroke="#000000" stroke-width="1" stroke-opacity="0"></use></g></g><g><use xlink:href="#a6z5f9PRe" opacity="1" fill="#515759" fill-opacity="1"></use><g><use xlink:href="#a6z5f9PRe" opacity="1" fill-opacity="0" stroke="#000000" stroke-width="1" stroke-opacity="0"></use></g></g><g><use xlink:href="#c4PVqv7Lsa" opacity="1" fill="#b4eeff" fill-opacity="1"></use><g><use xlink:href="#c4PVqv7Lsa" opacity="1" fill-opacity="0" stroke="#000000" stroke-width="1" stroke-opacity="0"></use></g></g><g><use xlink:href="#dFhgrWBcX" opacity="1" fill="#b4eeff" fill-opacity="1"></use><g><use xlink:href="#dFhgrWBcX" opacity="1" fill-opacity="0" stroke="#000000" stroke-width="1" stroke-opacity="0"></use></g></g><g><use xlink:href="#cXWLBFoLf" opacity="1" fill="#ffffff" fill-opacity="1"></use><g><use xlink:href="#cXWLBFoLf" opacity="1" fill-opacity="0" stroke="#000000" stroke-width="1" stroke-opacity="0"></use></g></g><g><use xlink:href="#aakuYXCv" opacity="1" fill="#ffffff" fill-opacity="1"></use><g><use xlink:href="#aakuYXCv" opacity="1" fill-opacity="0" stroke="#000000" stroke-width="1" stroke-opacity="0"></use></g></g><g><use xlink:href="#agVinMJRZ" opacity="1" fill="#4f5858" fill-opacity="1"></use><g><use xlink:href="#agVinMJRZ" opacity="1" fill-opacity="0" stroke="#000000" stroke-width="1" stroke-opacity="0"></use></g></g><g><use xlink:href="#dxMEkfMF7" opacity="1" fill="#4f5858" fill-opacity="1"></use><g><use xlink:href="#dxMEkfMF7" opacity="1" fill-opacity="0" stroke="#000000" stroke-width="1" stroke-opacity="0"></use></g></g><g><use xlink:href="#c9FaMCOnv" opacity="1" fill="#474e4b" fill-opacity="1"></use><g><use xlink:href="#c9FaMCOnv" opacity="1" fill-opacity="0" stroke="#000000" stroke-width="1" stroke-opacity="0"></use></g></g><g><use xlink:href="#b1a8THtLB" opacity="1" fill="#3d4642" fill-opacity="1"></use><g><use xlink:href="#b1a8THtLB" opacity="1" fill-opacity="0" stroke="#000000" stroke-width="1" stroke-opacity="0"></use></g></g></g></g></svg>