<?xml version="1.0" encoding="utf-8"?>
<!-- Generator: Adobe Illustrator 16.0.2, SVG Export Plug-In . SVG Version: 6.00 Build 0)  -->
<!DOCTYPE svg PUBLIC "-//W3C//DTD SVG 1.1//EN" "http://www.w3.org/Graphics/SVG/1.1/DTD/svg11.dtd">
<svg version="1.1" id="Layer_1" xmlns="http://www.w3.org/2000/svg" xmlns:xlink="http://www.w3.org/1999/xlink" x="0px" y="0px"
	 width="17.35px" height="16.146px" viewBox="0 0 17.35 16.146" enable-background="new 0 0 17.35 16.146" xml:space="preserve">
<g>
	<defs>
		<path id="SVGID_1_" d="M-3.45,23.854c-3.491,0-6.322,2.828-6.322,6.321v29.355c0,3.491,2.831,6.322,6.322,6.322h63.92V23.854
			H-3.45z"/>
	</defs>
	<clipPath id="SVGID_2_">
		<use xlink:href="#SVGID_1_"  overflow="visible"/>
	</clipPath>
	
		<linearGradient id="SVGID_3_" gradientUnits="userSpaceOnUse" x1="-1040.3057" y1="556.4087" x2="-1039.3047" y2="556.4087" gradientTransform="matrix(108.2856 106.7841 106.7841 -108.2856 53216.0703 171340.7813)">
		<stop  offset="0" style="stop-color:#2FB29B"/>
		<stop  offset="0.3459" style="stop-color:#2FB29B"/>
		<stop  offset="1" style="stop-color:#19A0DB"/>
	</linearGradient>
	<polygon clip-path="url(#SVGID_2_)" fill="url(#SVGID_3_)" points="24.858,-11.264 81.467,44.56 25.839,100.971 -30.771,45.147 	
		"/>
</g>
<circle fill="none" stroke="#FFFFFF" stroke-miterlimit="10" cx="8.715" cy="5.105" r="3.611"/>
<path fill="none" stroke="#FFFFFF" stroke-miterlimit="10" d="M8.675,14.646c0,0,2.898,0.236,5.298-2.359
	c0,0,0.197-2.529-1.674-3.281l-1.306-0.619c0,0-0.144-0.25-0.09-0.449"/>
<path fill="none" stroke="#FFFFFF" stroke-miterlimit="10" d="M8.78,14.646c0,0-2.898,0.236-5.298-2.359
	c0,0-0.197-2.529,1.674-3.281l1.306-0.619c0,0,0.145-0.25,0.092-0.449"/>
<path fill="#FFFFFF" d="M77.418,41.585h-6.362v-2.858c0.954-0.02,3.116-0.02,4.071,0v1.681c0,0.293,0.239,0.53,0.533,0.53
	c0.295,0,0.532-0.237,0.532-0.53v-2.187c0-0.544-0.389-0.549-1.327-0.563c-0.967-0.013-2.578-0.013-3.547,0
	c-0.939,0.014-1.328,0.019-1.328,0.563v3.364h-1.226c-1.056,0-1.913,0.859-1.913,1.914v6.646c0,1.055,0.857,1.913,1.913,1.913h8.653
	c1.057,0,1.914-0.858,1.914-1.913V43.5C79.332,42.445,78.475,41.585,77.418,41.585 M78.269,50.146c0,0.467-0.381,0.848-0.851,0.848
	h-8.653c-0.468,0-0.849-0.381-0.849-0.848V43.5c0-0.467,0.381-0.848,0.849-0.848h8.653c0.47,0,0.851,0.381,0.851,0.848V50.146z"/>
<path fill="#FFFFFF" d="M72.378,48.684c0,0.472,0.385,0.856,0.856,0.856c0.473,0,0.857-0.385,0.857-0.856
	c0-0.474-0.385-0.856-0.857-0.856C72.763,47.828,72.378,48.21,72.378,48.684"/>
</svg>
