<svg width="22" height="16" viewBox="0 0 22 16" fill="none" xmlns="http://www.w3.org/2000/svg">
<mask id="path-1-outside-1_1536_813" maskUnits="userSpaceOnUse" x="6" y="-0.899414" width="17" height="17" fill="black">
<rect fill="white" x="6" y="-0.899414" width="17" height="17"/>
<path fill-rule="evenodd" clip-rule="evenodd" d="M11.8954 0.100586H17.0133C17.4854 0.100586 17.9382 0.288136 18.2721 0.621977C18.6059 0.955819 18.7934 1.40861 18.7934 1.88073V2.54828C19.2656 2.54828 19.7184 2.73583 20.0522 3.06967C20.386 3.40351 20.5736 3.8563 20.5736 4.32842V5.18289C20.9702 5.356 21.3078 5.64102 21.5449 6.00304C21.7821 6.36507 21.9085 6.78838 21.9087 7.22115V13.6742C21.9087 14.2643 21.6743 14.8303 21.257 15.2476C20.8397 15.6649 20.2737 15.8993 19.6835 15.8993H9.22518C8.63502 15.8993 8.06904 15.6649 7.65174 15.2476C7.23444 14.8303 7 14.2643 7 13.6742V12.1006H7.89007V13.6742C7.89007 14.0283 8.03073 14.3679 8.28111 14.6182C8.5315 14.8686 8.87109 15.0093 9.22518 15.0093H19.6835C20.0376 15.0093 20.3772 14.8686 20.6276 14.6182C20.878 14.3679 21.0186 14.0283 21.0186 13.6742V7.22115C21.0186 6.86706 20.878 6.52747 20.6276 6.27709C20.3772 6.02671 20.0376 5.88605 19.6835 5.88605H9.22518C8.87109 5.88605 8.5315 6.02671 8.28111 6.27709C8.03073 6.52747 7.89007 6.86706 7.89007 7.22115V9.10059H7V7.22115C7.00022 6.78838 7.12664 6.36507 7.36377 6.00304C7.60091 5.64102 7.93846 5.356 8.33511 5.18289V4.32842C8.33511 3.8563 8.52266 3.40351 8.8565 3.06967C9.19034 2.73583 9.64313 2.54828 10.1152 2.54828V1.88073C10.1152 1.40861 10.3028 0.955819 10.6366 0.621977C10.9705 0.288136 11.4233 0.100586 11.8954 0.100586ZM19.6835 4.99598V4.32842C19.6835 4.09236 19.5897 3.86597 19.4228 3.69905C19.2559 3.53213 19.0295 3.43835 18.7934 3.43835H10.1152C9.87919 3.43835 9.65279 3.53213 9.48587 3.69905C9.31895 3.86597 9.22518 4.09236 9.22518 4.32842V4.99598H19.6835ZM11.0053 1.88073V2.54828H17.9034V1.88073C17.9034 1.64467 17.8096 1.41827 17.6427 1.25135C17.4758 1.08443 17.2494 0.990657 17.0133 0.990657H11.8954C11.6593 0.990657 11.4329 1.08443 11.266 1.25135C11.0991 1.41827 11.0053 1.64467 11.0053 1.88073Z"/>
</mask>
<path fill-rule="evenodd" clip-rule="evenodd" d="M11.8954 0.100586H17.0133C17.4854 0.100586 17.9382 0.288136 18.2721 0.621977C18.6059 0.955819 18.7934 1.40861 18.7934 1.88073V2.54828C19.2656 2.54828 19.7184 2.73583 20.0522 3.06967C20.386 3.40351 20.5736 3.8563 20.5736 4.32842V5.18289C20.9702 5.356 21.3078 5.64102 21.5449 6.00304C21.7821 6.36507 21.9085 6.78838 21.9087 7.22115V13.6742C21.9087 14.2643 21.6743 14.8303 21.257 15.2476C20.8397 15.6649 20.2737 15.8993 19.6835 15.8993H9.22518C8.63502 15.8993 8.06904 15.6649 7.65174 15.2476C7.23444 14.8303 7 14.2643 7 13.6742V12.1006H7.89007V13.6742C7.89007 14.0283 8.03073 14.3679 8.28111 14.6182C8.5315 14.8686 8.87109 15.0093 9.22518 15.0093H19.6835C20.0376 15.0093 20.3772 14.8686 20.6276 14.6182C20.878 14.3679 21.0186 14.0283 21.0186 13.6742V7.22115C21.0186 6.86706 20.878 6.52747 20.6276 6.27709C20.3772 6.02671 20.0376 5.88605 19.6835 5.88605H9.22518C8.87109 5.88605 8.5315 6.02671 8.28111 6.27709C8.03073 6.52747 7.89007 6.86706 7.89007 7.22115V9.10059H7V7.22115C7.00022 6.78838 7.12664 6.36507 7.36377 6.00304C7.60091 5.64102 7.93846 5.356 8.33511 5.18289V4.32842C8.33511 3.8563 8.52266 3.40351 8.8565 3.06967C9.19034 2.73583 9.64313 2.54828 10.1152 2.54828V1.88073C10.1152 1.40861 10.3028 0.955819 10.6366 0.621977C10.9705 0.288136 11.4233 0.100586 11.8954 0.100586ZM19.6835 4.99598V4.32842C19.6835 4.09236 19.5897 3.86597 19.4228 3.69905C19.2559 3.53213 19.0295 3.43835 18.7934 3.43835H10.1152C9.87919 3.43835 9.65279 3.53213 9.48587 3.69905C9.31895 3.86597 9.22518 4.09236 9.22518 4.32842V4.99598H19.6835ZM11.0053 1.88073V2.54828H17.9034V1.88073C17.9034 1.64467 17.8096 1.41827 17.6427 1.25135C17.4758 1.08443 17.2494 0.990657 17.0133 0.990657H11.8954C11.6593 0.990657 11.4329 1.08443 11.266 1.25135C11.0991 1.41827 11.0053 1.64467 11.0053 1.88073Z" fill="#323232"/>
<path d="M18.2721 0.621977L18.2013 0.692688L18.2721 0.621977ZM18.7934 2.54828H18.6934V2.64828H18.7934V2.54828ZM20.0522 3.06967L19.9815 3.14038H19.9815L20.0522 3.06967ZM20.5736 5.18289H20.4736V5.24836L20.5336 5.27454L20.5736 5.18289ZM21.9087 7.22115H22.0087V7.2211L21.9087 7.22115ZM21.257 15.2476L21.1862 15.1769H21.1862L21.257 15.2476ZM7.65174 15.2476L7.72245 15.1769L7.72245 15.1769L7.65174 15.2476ZM7 12.1006V12.0006H6.9V12.1006H7ZM7.89007 12.1006H7.99007V12.0006H7.89007V12.1006ZM8.28111 14.6182L8.2104 14.6889L8.2104 14.6889L8.28111 14.6182ZM20.6276 6.27709L20.5569 6.3478H20.5569L20.6276 6.27709ZM7.89007 9.10059V9.20059H7.99007V9.10059H7.89007ZM7 9.10059H6.9V9.20059H7V9.10059ZM7 7.22115L6.9 7.2211V7.22115H7ZM8.33511 5.18289L8.37511 5.27454L8.43511 5.24836V5.18289H8.33511ZM8.8565 3.06967L8.78579 2.99896L8.8565 3.06967ZM10.1152 2.54828V2.64828H10.2152V2.54828H10.1152ZM10.6366 0.621977L10.7074 0.692688V0.692688L10.6366 0.621977ZM19.6835 4.99598V5.09598H19.7835V4.99598H19.6835ZM9.48587 3.69905L9.55658 3.76976L9.48587 3.69905ZM9.22518 4.99598H9.12518V5.09598H9.22518V4.99598ZM11.0053 2.54828H10.9053V2.64828H11.0053V2.54828ZM17.9034 2.54828V2.64828H18.0034V2.54828H17.9034ZM17.6427 1.25135L17.572 1.32206L17.6427 1.25135ZM11.266 1.25135L11.3367 1.32206L11.266 1.25135ZM17.0133 0.000585936H11.8954V0.200586H17.0133V0.000585936ZM18.3428 0.551267C17.9902 0.198672 17.5119 0.000585936 17.0133 0.000585936V0.200586C17.4589 0.200586 17.8863 0.3776 18.2013 0.692688L18.3428 0.551267ZM18.8934 1.88073C18.8934 1.38208 18.6954 0.903862 18.3428 0.551267L18.2013 0.692688C18.5164 1.00778 18.6934 1.43513 18.6934 1.88073H18.8934ZM18.8934 2.54828V1.88073H18.6934V2.54828H18.8934ZM20.1229 2.99896C19.7703 2.64637 19.2921 2.44828 18.7934 2.44828V2.64828C19.239 2.64828 19.6664 2.8253 19.9815 3.14038L20.1229 2.99896ZM20.6736 4.32842C20.6736 3.82978 20.4755 3.35156 20.1229 2.99896L19.9815 3.14038C20.2966 3.45547 20.4736 3.88282 20.4736 4.32842H20.6736ZM20.6736 5.18289V4.32842H20.4736V5.18289H20.6736ZM21.6286 5.94825C21.3808 5.56996 21.0281 5.27213 20.6136 5.09124L20.5336 5.27454C20.9124 5.43987 21.2348 5.71208 21.4613 6.05784L21.6286 5.94825ZM22.0087 7.2211C22.0085 6.76888 21.8764 6.32654 21.6286 5.94825L21.4613 6.05784C21.6877 6.40359 21.8085 6.80788 21.8087 7.22121L22.0087 7.2211ZM22.0087 13.6742V7.22115H21.8087V13.6742H22.0087ZM21.3277 15.3183C21.7637 14.8823 22.0087 14.2908 22.0087 13.6742H21.8087C21.8087 14.2378 21.5848 14.7783 21.1862 15.1769L21.3277 15.3183ZM19.6835 15.9993C20.3002 15.9993 20.8916 15.7544 21.3277 15.3183L21.1862 15.1769C20.7877 15.5754 20.2471 15.7993 19.6835 15.7993V15.9993ZM9.22518 15.9993H19.6835V15.7993H9.22518V15.9993ZM7.58103 15.3183C8.01708 15.7544 8.6085 15.9993 9.22518 15.9993V15.7993C8.66155 15.7993 8.121 15.5754 7.72245 15.1769L7.58103 15.3183ZM6.9 13.6742C6.9 14.2908 7.14497 14.8823 7.58103 15.3183L7.72245 15.1769C7.3239 14.7783 7.1 14.2378 7.1 13.6742H6.9ZM6.9 12.1006V13.6742H7.1V12.1006H6.9ZM7.89007 12.0006H7V12.2006H7.89007V12.0006ZM7.99007 13.6742V12.1006H7.79007V13.6742H7.99007ZM8.35183 14.5475C8.1202 14.3159 7.99007 14.0017 7.99007 13.6742H7.79007C7.79007 14.0548 7.94127 14.4198 8.2104 14.6889L8.35183 14.5475ZM9.22518 14.9093C8.89761 14.9093 8.58345 14.7791 8.35183 14.5475L8.2104 14.6889C8.47954 14.9581 8.84456 15.1093 9.22518 15.1093V14.9093ZM19.6835 14.9093H9.22518V15.1093H19.6835V14.9093ZM20.5569 14.5475C20.3252 14.7791 20.0111 14.9093 19.6835 14.9093V15.1093C20.0641 15.1093 20.4292 14.9581 20.6983 14.6889L20.5569 14.5475ZM20.9186 13.6742C20.9186 14.0017 20.7885 14.3159 20.5569 14.5475L20.6983 14.6889C20.9674 14.4198 21.1186 14.0548 21.1186 13.6742H20.9186ZM20.9186 7.22115V13.6742H21.1186V7.22115H20.9186ZM20.5569 6.3478C20.7885 6.57943 20.9186 6.89358 20.9186 7.22115H21.1186C21.1186 6.84054 20.9674 6.47552 20.6983 6.20638L20.5569 6.3478ZM19.6835 5.98605C20.0111 5.98605 20.3252 6.11617 20.5569 6.3478L20.6983 6.20638C20.4292 5.93725 20.0641 5.78605 19.6835 5.78605V5.98605ZM9.22518 5.98605H19.6835V5.78605H9.22518V5.98605ZM8.35183 6.3478C8.58345 6.11617 8.89761 5.98605 9.22518 5.98605V5.78605C8.84456 5.78605 8.47954 5.93725 8.2104 6.20638L8.35183 6.3478ZM7.99007 7.22115C7.99007 6.89358 8.1202 6.57943 8.35183 6.3478L8.2104 6.20638C7.94127 6.47552 7.79007 6.84054 7.79007 7.22115H7.99007ZM7.99007 9.10059V7.22115H7.79007V9.10059H7.99007ZM7 9.20059H7.89007V9.00059H7V9.20059ZM6.9 7.22115V9.10059H7.1V7.22115H6.9ZM7.28012 5.94825C7.03233 6.32654 6.90023 6.76888 6.9 7.2211L7.1 7.22121C7.10021 6.80788 7.22095 6.40359 7.44743 6.05784L7.28012 5.94825ZM8.29511 5.09124C7.88064 5.27213 7.52791 5.56996 7.28012 5.94825L7.44743 6.05784C7.6739 5.71208 7.99629 5.43987 8.37511 5.27454L8.29511 5.09124ZM8.23511 4.32842V5.18289H8.43511V4.32842H8.23511ZM8.78579 2.99896C8.43319 3.35156 8.23511 3.82978 8.23511 4.32842H8.43511C8.43511 3.88282 8.61212 3.45547 8.92721 3.14038L8.78579 2.99896ZM10.1152 2.44828C9.6166 2.44828 9.13838 2.64637 8.78579 2.99896L8.92721 3.14038C9.2423 2.8253 9.66965 2.64828 10.1152 2.64828V2.44828ZM10.0152 1.88073V2.54828H10.2152V1.88073H10.0152ZM10.5659 0.551267C10.2133 0.903862 10.0152 1.38208 10.0152 1.88073H10.2152C10.2152 1.43513 10.3923 1.00778 10.7074 0.692688L10.5659 0.551267ZM11.8954 0.000585936C11.3967 0.000585936 10.9185 0.198672 10.5659 0.551267L10.7074 0.692688C11.0224 0.3776 11.4498 0.200586 11.8954 0.200586V0.000585936ZM19.5835 4.32842V4.99598H19.7835V4.32842H19.5835ZM19.3521 3.76976C19.5003 3.91793 19.5835 4.11888 19.5835 4.32842H19.7835C19.7835 4.06584 19.6792 3.81401 19.4935 3.62834L19.3521 3.76976ZM18.7934 3.53835C19.003 3.53835 19.2039 3.62159 19.3521 3.76976L19.4935 3.62834C19.3079 3.44266 19.056 3.33835 18.7934 3.33835V3.53835ZM10.1152 3.53835H18.7934V3.33835H10.1152V3.53835ZM9.55658 3.76976C9.70475 3.62159 9.90571 3.53835 10.1152 3.53835V3.33835C9.85267 3.33835 9.60084 3.44266 9.41516 3.62834L9.55658 3.76976ZM9.32518 4.32842C9.32518 4.11888 9.40842 3.91793 9.55658 3.76976L9.41516 3.62834C9.22949 3.81401 9.12518 4.06584 9.12518 4.32842H9.32518ZM9.32518 4.99598V4.32842H9.12518V4.99598H9.32518ZM19.6835 4.89598H9.22518V5.09598H19.6835V4.89598ZM11.1053 2.54828V1.88073H10.9053V2.54828H11.1053ZM17.9034 2.44828H11.0053V2.64828H17.9034V2.44828ZM17.8034 1.88073V2.54828H18.0034V1.88073H17.8034ZM17.572 1.32206C17.7201 1.47023 17.8034 1.67119 17.8034 1.88073H18.0034C18.0034 1.61814 17.8991 1.36632 17.7134 1.18064L17.572 1.32206ZM17.0133 1.09066C17.2228 1.09066 17.4238 1.1739 17.572 1.32206L17.7134 1.18064C17.5277 0.994968 17.2759 0.890657 17.0133 0.890657V1.09066ZM11.8954 1.09066H17.0133V0.890657H11.8954V1.09066ZM11.3367 1.32206C11.4849 1.1739 11.6859 1.09066 11.8954 1.09066V0.890657C11.6328 0.890657 11.381 0.994968 11.1953 1.18064L11.3367 1.32206ZM11.1053 1.88073C11.1053 1.67119 11.1886 1.47023 11.3367 1.32206L11.1953 1.18064C11.0096 1.36632 10.9053 1.61814 10.9053 1.88073H11.1053Z" fill="#323232" mask="url(#path-1-outside-1_1536_813)"/>
<path d="M4 8L1 10.6706L4 13.5" stroke="#323232" stroke-miterlimit="10" stroke-linecap="round" stroke-linejoin="round"/>
<path d="M10.9985 10.6707H1.1001" stroke="#323232" stroke-miterlimit="10" stroke-linecap="round" stroke-linejoin="round"/>
</svg>
