<svg width="16" height="16" viewBox="0 0 16 16" fill="none" xmlns="http://www.w3.org/2000/svg">
<path d="M0.95 7.22113V7.22115V13.6742C0.95 14.2776 1.18971 14.8563 1.61638 15.283C2.04306 15.7096 2.62176 15.9493 3.22518 15.9493H13.6835C14.2869 15.9493 14.8656 15.7096 15.2923 15.283C15.719 14.8563 15.9587 14.2776 15.9587 13.6742V7.22115V7.22113C15.9585 6.77863 15.8292 6.3458 15.5867 5.97565C15.3503 5.61465 15.0162 5.32854 14.6236 5.15042V4.32842C14.6236 3.84304 14.4308 3.37754 14.0875 3.03432C13.7561 2.7029 13.3107 2.51172 12.8434 2.49896V1.88073C12.8434 1.39534 12.6506 0.92984 12.3074 0.586622C11.9642 0.243404 11.4987 0.0505859 11.0133 0.0505859H5.89539C5.41001 0.0505859 4.9445 0.243404 4.60129 0.586622C4.25807 0.92984 4.06525 1.39534 4.06525 1.88073V2.49896C3.59799 2.51172 3.15256 2.7029 2.82114 3.03432C2.47792 3.37754 2.28511 3.84304 2.28511 4.32842V5.15042C1.89253 5.32854 1.55841 5.61465 1.32195 5.97565C1.07949 6.3458 0.950228 6.77863 0.95 7.22113ZM14.9686 7.22115V13.6742C14.9686 14.015 14.8332 14.3419 14.5922 14.5829C14.3512 14.8239 14.0243 14.9593 13.6835 14.9593H3.22518C2.88435 14.9593 2.55747 14.8239 2.31647 14.5829C2.07547 14.3419 1.94007 14.015 1.94007 13.6742V7.22115C1.94007 6.88032 2.07547 6.55345 2.31647 6.31245C2.55747 6.07144 2.88435 5.93605 3.22518 5.93605H13.6835C14.0243 5.93605 14.3512 6.07144 14.5922 6.31245C14.8332 6.55345 14.9686 6.88032 14.9686 7.22115ZM13.6335 4.32842V4.94598H3.27518V4.32842C3.27518 4.10562 3.36369 3.89195 3.52123 3.7344C3.67877 3.57686 3.89245 3.48835 4.11525 3.48835H12.7934C13.0162 3.48835 13.2299 3.57686 13.3875 3.7344C13.545 3.89195 13.6335 4.10562 13.6335 4.32842ZM5.05532 2.49828V1.88073C5.05532 1.65793 5.14383 1.44425 5.30137 1.28671C5.45892 1.12916 5.67259 1.04066 5.89539 1.04066H11.0133C11.2361 1.04066 11.4498 1.12916 11.6073 1.28671C11.7649 1.44425 11.8534 1.65793 11.8534 1.88073V2.49828H5.05532Z" fill="#323232" stroke="#323232" stroke-width="0.1"/>
<path d="M10.5679 8.95122H6.34006C6.20876 8.95122 6.08285 9.00338 5.99001 9.09621C5.89717 9.18905 5.84502 9.31496 5.84502 9.44626C5.84502 9.57755 5.89717 9.70346 5.99001 9.7963C6.08285 9.88914 6.20876 9.94129 6.34006 9.94129H10.5679C10.6992 9.94129 10.8251 9.88914 10.9179 9.7963C11.0108 9.70346 11.0629 9.57755 11.0629 9.44626C11.0629 9.31496 11.0108 9.18905 10.9179 9.09621C10.8251 9.00338 10.6992 8.95122 10.5679 8.95122Z" fill="#323232" stroke="#323232" stroke-width="0.1"/>
</svg>
