<svg width="80" height="80" viewBox="0 0 80 80" fill="none" xmlns="http://www.w3.org/2000/svg">
<path d="M41.2034 39.9647L41.1681 40L41.2034 40.0353L47.718 46.5527C48.0273 46.8621 48.0273 47.3729 47.718 47.6823L47.6824 47.7179C47.3731 48.0274 46.8626 48.0274 46.5533 47.7179L40.0387 41.2006L40.0034 41.1652L39.968 41.2006L33.4534 47.7179C33.1441 48.0274 32.6335 48.0274 32.3243 47.7179L32.2887 47.6823C31.9794 47.3729 31.9794 46.8621 32.2887 46.5527L38.8033 40.0353L38.8386 40L38.8033 39.9647L32.2887 33.4473L32.2887 33.4473L32.2882 33.4469C31.9706 33.1375 31.9706 32.6274 32.2882 32.3181L32.2882 32.3181L32.2887 32.3177L32.3243 32.2821C32.3243 32.2821 32.3243 32.2821 32.3243 32.2821C32.6336 31.9726 33.1441 31.9726 33.4534 32.2821L39.968 38.8083L40.0034 38.8437L40.0387 38.8083L46.5533 32.2821C46.8626 31.9726 47.3732 31.9726 47.6824 32.2821L47.718 32.3177C48.0273 32.6271 48.0273 33.1379 47.718 33.4473L41.2034 39.9647Z" fill="#717171" stroke="#717171" stroke-width="0.1"/>
</svg>
