<?xml version="1.0" encoding="utf-8"?>
<!-- Generator: Adobe Illustrator 16.0.2, SVG Export Plug-In . SVG Version: 6.00 Build 0)  -->
<!DOCTYPE svg PUBLIC "-//W3C//DTD SVG 1.1//EN" "http://www.w3.org/Graphics/SVG/1.1/DTD/svg11.dtd">
<svg version="1.1" id="Layer_1" xmlns="http://www.w3.org/2000/svg" xmlns:xlink="http://www.w3.org/1999/xlink" x="0px" y="0px"
	 width="851.082px" height="741.726px" viewBox="-411.491 -357.54 851.082 741.726"
	 enable-background="new -411.491 -357.54 851.082 741.726" xml:space="preserve">
<g opacity="0.14">
	<g>
		<defs>
			<rect id="SVGID_1_" x="-408.631" y="-357.54" width="848.221" height="741.726"/>
		</defs>
		<clipPath id="SVGID_2_">
			<use xlink:href="#SVGID_1_"  overflow="visible"/>
		</clipPath>
		<path clip-path="url(#SVGID_2_)" fill="#999999" d="M405.65,92.525c0,1.074,0.872,1.949,1.947,1.949h31.992v-3.899h-31.992
			C406.522,90.575,405.65,91.447,405.65,92.525 M258.5-105.499h109.487c1.075,0,1.947-0.874,1.947-1.949
			c0-1.078-0.872-1.952-1.947-1.952H258.5c-1.075,0-1.948,0.874-1.948,1.952C256.552-106.373,257.425-105.499,258.5-105.499
			 M409.544-69.776v-170.056c0-1.077-0.872-1.949-1.947-1.949h-29.934v-42.226c0-1.078-0.872-1.952-1.947-1.952h-56.077v-69.632
			c0-1.078-0.872-1.95-1.947-1.95c-1.076,0-1.948,0.872-1.948,1.95v69.632H258.5c-1.075,0-1.948,0.874-1.948,1.952v42.226h-28.767
			c-1.075,0-1.947,0.872-1.947,1.949v508.88c-0.596-0.029-1.194-0.046-1.797-0.046c-4.523,0-8.902,0.823-13.137,2.467
			c-4.111,1.604-7.812,3.968-11.101,7.092c-3.249,3.043-5.798,6.621-7.647,10.731c-1.851,4.071-2.775,8.511-2.775,13.322
			c0,6.414,1.604,12.19,4.811,17.33c3.124,5.14,7.38,9.188,12.767,12.148c5.262,2.919,10.956,4.379,17.083,4.379
			c4.522,0,8.881-0.822,13.075-2.467c3.124-1.274,6.207-3.145,9.25-5.612l-10.607-15.171l-0.123,0.186l-0.186,0.185l-0.185,0.246
			l-0.123,0.123c-3.125,3.126-6.826,4.688-11.102,4.688c-4.235,0-7.936-1.563-11.102-4.688c-2.508-2.507-4.008-5.488-4.502-8.942
			h42.432v-0.124h7.647l0.123-1.048c0.04-0.247,0.062-0.472,0.062-0.678v-0.555c0-4.729-0.925-9.168-2.776-13.322
			c-1.849-4.193-4.398-7.791-7.646-10.793c-3.29-3.083-7.011-5.427-11.162-7.03c-2.406-0.942-4.869-1.606-7.384-2.009v-507.342
			H405.65v168.105h-47.322c-1.077,0-1.947,0.872-1.947,1.95v1.004H258.5c-1.075,0-1.948,0.875-1.948,1.952
			c0,1.076,0.873,1.95,1.948,1.95h97.88v38.68H258.5c-1.075,0-1.948,0.872-1.948,1.95c0,1.077,0.873,1.95,1.948,1.95h97.88v38.682
			H258.5c-1.075,0-1.948,0.872-1.948,1.95c0,1.075,0.873,1.95,1.948,1.95h97.88v38.68H258.5c-1.075,0-1.948,0.872-1.948,1.949
			c0,1.078,0.873,1.95,1.948,1.95h97.88v38.68H258.5c-1.075,0-1.948,0.874-1.948,1.95c0,1.077,0.873,1.952,1.948,1.952h97.88v38.68
			H258.5c-1.075,0-1.948,0.872-1.948,1.95c0,1.077,0.873,1.949,1.948,1.949h97.88v26.845h-81.33c-1.075,0-1.947,0.875-1.947,1.95
			v98.937c0,0.014,0.002,0.021,0.002,0.035c-0.301,0.267-0.603,0.533-0.896,0.812c-3.249,3.043-5.798,6.621-7.647,10.731
			c-1.851,4.071-2.775,8.511-2.775,13.322c0,6.414,1.604,12.19,4.811,17.33c3.124,5.14,7.38,9.188,12.767,12.148
			c5.262,2.919,10.956,4.379,17.083,4.379c4.522,0,8.881-0.822,13.075-2.467c3.124-1.274,6.207-3.145,9.25-5.612l-10.607-15.171
			l-0.123,0.186l-0.186,0.185l-0.185,0.246l-0.123,0.123c-3.125,3.126-6.826,4.688-11.102,4.688c-4.235,0-7.937-1.563-11.103-4.688
			c-2.507-2.507-4.007-5.488-4.502-8.942h42.433v-0.124h7.647l0.123-1.048c0.04-0.247,0.062-0.472,0.062-0.678v-0.555
			c0-4.729-0.925-9.168-2.775-13.322c-1.85-4.193-4.399-7.791-7.647-10.793c-3.29-3.083-7.011-5.427-11.162-7.03
			c-4.194-1.644-8.553-2.467-13.075-2.467c-4.523,0-8.902,0.823-13.137,2.467c-2.226,0.868-4.326,1.967-6.312,3.281v-94.024h79.383
			v66.439l-9.179-0.057v24.299h-8.572l-4.44,16.898h13.013v22.448c0,5.881,1.007,10.711,3.022,14.493
			c2.014,3.824,4.994,6.683,8.942,8.573c3.905,1.891,8.798,2.837,14.677,2.837c0.988,0,1.995-0.083,3.023-0.246l5.674-19.613
			c-1.193,0.535-2.92,0.802-5.181,0.802c-6.99,0-10.484-2.795-10.484-8.387v-20.907h8.696l4.379-16.898h-13.075v-24.176
			l-8.491-0.054l1.892,0.009V-65.876h79.313v-3.899H409.544z M231.812,288.923c1.48,0.905,2.919,2.18,4.317,3.824h-24.176
			c1.397-1.645,2.837-2.919,4.317-3.824c2.425-1.396,5.016-2.096,7.771-2.096C226.795,286.827,229.386,287.526,231.812,288.923
			 M373.769-241.781H260.449v-40.276h113.319V-241.781z M273.874,277.085c0.303-0.406,0.672-0.805,1.074-0.87
			C274.585,276.496,274.229,276.788,273.874,277.085 M288.675,288.923c2.425-1.396,5.016-2.096,7.771-2.096
			c2.754,0,5.345,0.699,7.771,2.096c1.48,0.905,2.918,2.18,4.317,3.824h-24.176C285.755,291.102,287.195,289.828,288.675,288.923
			 M258.5-190.66h109.487c1.075,0,1.947-0.874,1.947-1.949c0-1.078-0.872-1.953-1.947-1.953H258.5c-1.075,0-1.948,0.875-1.948,1.953
			C256.552-191.534,257.425-190.66,258.5-190.66 M258.5-148.08h109.487c1.075,0,1.947-0.875,1.947-1.95
			c0-1.077-0.872-1.952-1.947-1.952H258.5c-1.075,0-1.948,0.875-1.948,1.952C256.552-148.955,257.425-148.08,258.5-148.08
			 M415.019,43.407v-71.274c0-1.075-0.872-1.95-1.947-1.95c-1.077,0-1.949,0.875-1.949,1.95v71.274c0,1.077,0.872,1.948,1.949,1.948
			C414.147,45.355,415.019,44.484,415.019,43.407 M405.65,140.333c0,1.078,0.872,1.952,1.947,1.952h31.992v-3.902h-31.992
			C406.522,138.383,405.65,139.257,405.65,140.333 M-77.297,282.01l9.352,3.676l3.676-9.352l-9.352-3.676L-77.297,282.01z
			 M19.904,334.746h19.674v-63.214l-19.674,0.061V334.746z M-50.362,254.888l-2.769-4.796l-9.11,5.26l2.769,4.796L-50.362,254.888z
			 M-61.52,276.084l9.841,1.834l1.834-9.84l-9.841-1.835L-61.52,276.084z M-69.111,259.717l-9.882-1.842l-1.377,7.383l9.881,1.842
			L-69.111,259.717z M-89.789,262.488h-10.053v7.511h10.053V262.488z M12.009,296.879c-1.356-1.891-2.898-3.515-4.625-4.872
			c-1.81-1.396-3.762-2.508-5.859-3.33v-0.309c3.659-1.563,6.558-3.947,8.696-7.154c2.138-3.165,3.206-6.886,3.206-11.163
			c0-5.632-1.625-10.134-4.871-13.506c-3.33-3.454-7.627-5.879-12.89-7.278c-5.387-1.438-11.308-2.157-17.762-2.157h-25.718v5.043
			h13.587v10.01h-6.28v8.536h5.184v8.355h-3.908v14.786h7.677v13.24H-41.2v16.024h5.398v11.519h18.948
			c11.06,0,19.324-2.24,24.792-6.722c5.428-4.441,8.142-10.32,8.142-17.64c0-2.549-0.351-4.974-1.049-7.276
			C14.291,300.723,13.283,298.688,12.009,296.879 M-16.01,251.768l2.769,4.795l-9.11,5.262l-2.769-4.796L-16.01,251.768z
			 M-25.302,264.254h4.872c3.084,0,5.756,0.658,8.018,1.973c2.22,1.357,3.33,3.578,3.33,6.661c0,2.92-0.885,5.141-2.651,6.661
			c-1.769,1.604-4.4,2.405-7.895,2.405h-5.674V264.254z M-32.765,324.83l-3.006-10.081l5.428-1.618l3.006,10.081L-32.765,324.83z
			 M-27.877,287.833l6.021-0.654l0.653,6.021l-6.02,0.653L-27.877,287.833z M-19.32,317.416h-5.982v-18.255h5.674
			c4.234,0,7.482,0.617,9.744,1.85c2.303,1.234,3.454,3.723,3.454,7.463C-6.43,314.434-10.727,317.416-19.32,317.416
			 M-146.077,321.775c-13.565,0-24.597,11.03-24.597,24.597c0,13.556,11.031,24.587,24.597,24.587
			c13.557,0,24.586-11.031,24.586-24.587C-121.491,332.805-132.52,321.775-146.077,321.775 M-89.789,283.555h10.012v-10.01h-10.012
			V283.555z M-343.05,321.775c-13.556,0-24.586,11.03-24.586,24.597c0,13.556,11.03,24.587,24.586,24.587
			c13.565,0,24.598-11.031,24.598-24.587C-318.452,332.805-329.484,321.775-343.05,321.775 M-86.567,311.984h10.01v-10.011h-10.01
			V311.984z M-73.589,300.117l9.645,2.68l2.681-9.645l-9.646-2.681L-73.589,300.117z M-71.804,311.03l5.656,8.87l4.775-3.046
			l-5.656-8.869L-71.804,311.03z M-91.731,297.438h10.169v-10.423h-10.398v-10.318h-10.364v-8.318
			c-3.576-1.015-7.203-1.836-10.768-2.614c-3.381-0.736-6.892-1.496-10.196-2.427c-10.879-3.078-21.672-7.196-32.096-11.183
			c-13.686-5.234-27.848-10.652-42.606-13.849c-27.11-5.873-56.259-4.106-82.07,4.995c-10.348,3.642-20.046,8.788-29.43,13.761
			c-3.89,2.06-7.91,4.194-11.897,6.178c-13.794,6.858-29.17,11.096-43.733,14.855c-2.633,0.684-5.526,1.269-8.604,1.885
			c-11.648,2.342-24.857,5.008-32.172,14.618l-0.012,0.012l-0.01,0.011c-4.4,5.808-2.514,11.886-0.846,17.239l0.163,0.51
			c1.788,5.786,3.358,11.734,4.659,17.673c0.238,1.083,0.412,2.676,0.607,4.345c0.617,5.537,1.397,12.418,5.45,15.398
			c3.738,2.752,11.063,2.979,18.236,2.99h1.452c0.238,0,0.466-0.043,0.693-0.098c0.174,0.043,0.346,0.098,0.542,0.098
			c0.075,0,0.238-0.011,0.238-0.011c1.452-0.13,2.524-1.409,2.396-2.86c-0.076-0.824-0.131-2.525-0.131-3.533
			c0-16.221,13.198-29.408,29.408-29.408c16.222,0,29.408,13.188,29.408,29.408c0,0.488-0.011,0.976-0.032,1.463
			c-0.054,1.149,0.64,2.146,1.647,2.568h0.033c0.129,0.054,0.259,0.098,0.399,0.13c0.087,0.021,0.174,0.033,0.261,0.044l0.161,0.021
			h0.099l0.076,0.012c19.017-0.032,38.109,0,57.094,0.021c13.024,0.021,26.275,0.043,39.464,0.043
			c12.244,0,24.424-0.021,36.321-0.064c1.452-0.012,2.633-1.192,2.633-2.655c0-0.271-0.064-0.542-0.141-0.791
			c0.087-0.249,0.141-0.521,0.141-0.791c0-16.221,13.188-29.408,29.408-29.408c16.211,0,29.408,13.188,29.408,29.408
			c0,0.12,0.012,0.249,0.033,0.369c-0.076,0.573,0.011,1.17,0.336,1.712c0.737,1.257,2.362,1.668,3.619,0.921
			c8.17-4.844,18.757-14.185,23.904-25.855c0.03-0.067,0.055-0.14,0.085-0.21h-3.04V297.438z M-233.63,293.049
			c-0.217,0.109-3.781,1.799-8.582,1.799c-2.46,0-5.255-0.443-8.083-1.788c-1.323-0.628-1.886-2.199-1.257-3.521
			c0.617-1.312,2.188-1.874,3.511-1.246c5.981,2.829,11.995,0.055,12.114,0c1.311-0.628,2.881-0.087,3.521,1.225
			C-231.765,290.828-232.318,292.41-233.63,293.049 M-220.886,273.166c0,3.597-3.066,6.522-6.826,6.522h-79.178
			c-3.251,0-5.927-2.036-6.653-5.061c-0.704-2.914,0.683-5.808,3.436-7.216c18.528-9.481,53.896-24.912,82.449-21.834
			c3.857,0.422,6.772,3.543,6.772,7.281V273.166z M-156.847,274.898c-1.289,2.905-4.465,4.79-8.094,4.79h-43.365
			c-4.778,0-8.657-3.348-8.657-7.454v-19.039c0-1.961,0.866-3.804,2.427-5.19c1.896-1.701,4.659-2.514,7.39-2.211
			c27.024,3.121,41.588,13.61,49.054,21.856C-156.219,269.73-155.753,272.438-156.847,274.898 M-131.051,291.975l-2.965-9.561
			l9.561-2.965l2.964,9.561L-131.051,291.975z M-120.836,307.609l-0.655-6.021l6.021-0.654l0.653,6.021L-120.836,307.609z
			 M-108.839,297.684l-3.006-10.081l5.427-1.618l3.007,10.081L-108.839,297.684z M-49.263,296.334l0.654,6.02l6.02-0.653
			l-0.653-6.021L-49.263,296.334z M-58.279,302.747l3.006,10.082l5.428-1.619l-3.006-10.081L-58.279,302.747z M132.025,299.222
			h22.326l-4.996-18.439h-17.33v-15.11h31.516v-18.563h-52.978v87.39l21.462,0.062V299.222z M-51.255,289.891l7.948,1.482
			l1.835-9.84l-7.948-1.482L-51.255,289.891z M151.33,356.728c-0.22-0.214-0.477-0.384-0.771-0.512
			c-0.296-0.127-0.611-0.19-0.947-0.19c-0.326,0-0.635,0.063-0.925,0.19c-0.29,0.128-0.542,0.298-0.756,0.512
			c-0.215,0.215-0.385,0.47-0.512,0.765c-0.128,0.295-0.191,0.61-0.191,0.946c0,0.327,0.063,0.633,0.191,0.917
			c0.127,0.285,0.297,0.535,0.512,0.749c0.214,0.215,0.466,0.386,0.756,0.513s0.599,0.189,0.925,0.189
			c0.336,0,0.651-0.063,0.947-0.189c0.295-0.127,0.552-0.298,0.771-0.513c0.218-0.214,0.395-0.464,0.527-0.749
			c0.132-0.284,0.198-0.59,0.198-0.917c0-0.336-0.066-0.651-0.198-0.946C151.725,357.198,151.548,356.943,151.33,356.728
			 M339.606,375.454c-0.071-0.057-0.163-0.084-0.274-0.084c-0.092,0-0.184,0.027-0.275,0.084c-0.092,0.056-0.196,0.114-0.313,0.176
			s-0.255,0.119-0.412,0.175c-0.158,0.057-0.354,0.085-0.589,0.085c-0.407,0-0.734-0.138-0.978-0.413
			c-0.244-0.274-0.366-0.656-0.366-1.146v-8.496h4.125v-2.689h-4.125v-4.935h-1.956c-0.226,0-0.41,0.056-0.558,0.168
			c-0.147,0.113-0.242,0.27-0.283,0.474l-0.794,4.278l-2.521,0.413v1.497c0,0.265,0.074,0.464,0.222,0.596s0.323,0.198,0.527,0.198
			h1.589v8.756c0,1.354,0.367,2.416,1.101,3.186c0.733,0.769,1.777,1.153,3.132,1.153c0.764,0,1.502-0.117,2.216-0.351
			c0.713-0.235,1.344-0.581,1.895-1.04l-1.131-1.833C339.753,375.594,339.677,375.51,339.606,375.454 M34.581,244.704
			c-1.563-0.904-3.29-1.357-5.181-1.357c-1.892,0-3.599,0.453-5.118,1.357c-1.521,0.905-2.775,2.158-3.763,3.762
			c-0.904,1.563-1.356,3.29-1.356,5.18c0,1.851,0.473,3.6,1.419,5.243c0.903,1.563,2.136,2.816,3.7,3.763
			c1.52,0.904,3.227,1.355,5.118,1.355c1.891,0,3.618-0.472,5.181-1.418s2.796-2.179,3.7-3.7c0.904-1.521,1.357-3.269,1.357-5.243
			c0-1.89-0.453-3.616-1.357-5.18C37.335,246.862,36.102,245.609,34.581,244.704 M288.131,375.454
			c-0.071-0.057-0.163-0.084-0.274-0.084c-0.092,0-0.184,0.027-0.275,0.084c-0.092,0.056-0.197,0.114-0.313,0.176
			c-0.117,0.062-0.255,0.119-0.412,0.175c-0.158,0.057-0.354,0.085-0.589,0.085c-0.407,0-0.733-0.138-0.978-0.413
			c-0.244-0.274-0.366-0.656-0.366-1.146v-8.496h4.125v-2.689h-4.125v-4.935h-1.957c-0.224,0-0.409,0.056-0.557,0.168
			c-0.148,0.113-0.242,0.27-0.283,0.474l-0.794,4.278l-2.521,0.413v1.497c0,0.265,0.073,0.464,0.222,0.596
			c0.147,0.132,0.323,0.198,0.527,0.198h1.589v8.756c0,1.354,0.367,2.416,1.101,3.186c0.733,0.769,1.777,1.153,3.132,1.153
			c0.764,0,1.501-0.117,2.216-0.351c0.713-0.235,1.344-0.581,1.895-1.04l-1.131-1.833
			C288.279,375.594,288.202,375.51,288.131,375.454 M310.813,364.827c-0.515-0.672-1.125-1.185-1.833-1.536s-1.49-0.526-2.346-0.526
			c-1.049,0-1.966,0.196-2.75,0.587c-0.784,0.394-1.487,0.92-2.108,1.582v-8.954h-3.774v22.705h2.491
			c0.254,0,0.455-0.055,0.604-0.168c0.147-0.111,0.252-0.3,0.313-0.564l0.168-1.055c0.255,0.307,0.522,0.583,0.803,0.832
			c0.28,0.25,0.583,0.462,0.909,0.636c0.325,0.173,0.688,0.308,1.085,0.403c0.396,0.098,0.835,0.146,1.313,0.146
			c1.029,0,1.958-0.206,2.789-0.618c0.83-0.413,1.537-0.986,2.123-1.719c0.586-0.733,1.037-1.6,1.353-2.599
			c0.315-0.998,0.474-2.083,0.474-3.254c0-1.283-0.14-2.419-0.42-3.406C311.725,366.33,311.327,365.499,310.813,364.827
			 M308.269,373.085c-0.173,0.668-0.42,1.221-0.741,1.659c-0.32,0.438-0.71,0.763-1.168,0.977c-0.459,0.214-0.974,0.321-1.544,0.321
			c-0.591,0-1.139-0.104-1.643-0.313s-0.97-0.577-1.397-1.107v-7.028c0.479-0.601,0.995-1.066,1.551-1.397s1.224-0.497,2.009-0.497
			c0.499,0,0.945,0.092,1.337,0.274c0.393,0.185,0.727,0.475,1.001,0.871c0.275,0.397,0.486,0.914,0.634,1.551
			c0.148,0.638,0.222,1.413,0.222,2.33C308.529,371.632,308.443,372.418,308.269,373.085 M264.081,367.271
			c0.683-0.234,1.271-0.52,1.765-0.855c0.495-0.336,0.902-0.711,1.223-1.123c0.321-0.412,0.558-0.856,0.711-1.329
			c0.152-0.474,0.228-0.97,0.228-1.49c0-0.905-0.151-1.721-0.457-2.444s-0.787-1.34-1.444-1.849
			c-0.656-0.51-1.497-0.901-2.521-1.177s-2.259-0.412-3.705-0.412h-7.625v22.093h8.343c1.283,0,2.424-0.162,3.423-0.487
			c0.998-0.326,1.838-0.777,2.521-1.354c0.683-0.575,1.202-1.26,1.559-2.055c0.356-0.794,0.534-1.66,0.534-2.597
			C268.634,369.594,267.117,367.954,264.081,367.271 M256.365,359.768h3.515c1.385,0,2.403,0.245,3.056,0.734
			c0.651,0.489,0.978,1.309,0.978,2.46c0,1.111-0.361,1.92-1.085,2.429c-0.723,0.511-1.782,0.766-3.178,0.766h-3.285V359.768z
			 M264.365,373.398c-0.138,0.408-0.362,0.765-0.673,1.069c-0.311,0.306-0.724,0.55-1.237,0.734
			c-0.515,0.183-1.154,0.274-1.918,0.274h-4.171v-6.479h4.156c0.723,0,1.339,0.072,1.849,0.214c0.509,0.143,0.927,0.349,1.253,0.619
			c0.326,0.27,0.565,0.596,0.718,0.978c0.153,0.383,0.229,0.813,0.229,1.291C264.571,372.557,264.502,372.992,264.365,373.398
			 M272.196,378.684h3.772v-15.677h-3.772V378.684z M275.809,356.728c-0.22-0.214-0.477-0.384-0.771-0.512
			c-0.296-0.127-0.612-0.19-0.946-0.19c-0.327,0-0.636,0.063-0.926,0.19c-0.29,0.128-0.542,0.298-0.756,0.512
			c-0.214,0.215-0.385,0.47-0.512,0.765c-0.128,0.295-0.191,0.61-0.191,0.946c0,0.327,0.063,0.633,0.191,0.917
			c0.127,0.285,0.298,0.535,0.512,0.749c0.214,0.215,0.466,0.386,0.756,0.513s0.599,0.189,0.926,0.189
			c0.334,0,0.65-0.063,0.946-0.189c0.295-0.127,0.552-0.298,0.771-0.513c0.219-0.214,0.395-0.464,0.527-0.749
			c0.132-0.284,0.198-0.59,0.198-0.917c0-0.336-0.066-0.651-0.198-0.946C276.203,357.198,276.028,356.943,275.809,356.728
			 M381.685,363.253c-0.51-0.356-1.151-0.534-1.926-0.534c-0.937,0-1.782,0.28-2.536,0.84c-0.755,0.561-1.411,1.324-1.971,2.292
			l-0.229-1.895c-0.051-0.346-0.152-0.59-0.307-0.733c-0.151-0.143-0.422-0.214-0.809-0.214h-2.216v15.676h3.774v-9.763
			c0.387-0.835,0.86-1.469,1.42-1.902c0.561-0.433,1.233-0.648,2.018-0.648c0.438,0,0.789,0.035,1.055,0.105
			c0.265,0.072,0.474,0.107,0.626,0.107c0.173,0,0.311-0.038,0.413-0.114c0.102-0.077,0.168-0.206,0.198-0.39L381.685,363.253z
			 M351.432,375.454c-0.071-0.057-0.163-0.084-0.274-0.084c-0.092,0-0.184,0.027-0.275,0.084c-0.092,0.056-0.196,0.114-0.313,0.176
			s-0.255,0.119-0.412,0.175c-0.158,0.057-0.354,0.085-0.589,0.085c-0.407,0-0.733-0.138-0.979-0.413
			c-0.243-0.274-0.365-0.656-0.365-1.146v-8.496h4.125v-2.689h-4.125v-4.935h-1.956c-0.225,0-0.41,0.056-0.558,0.168
			c-0.147,0.113-0.242,0.27-0.283,0.474l-0.795,4.278l-2.521,0.413v1.497c0,0.265,0.074,0.464,0.222,0.596s0.323,0.198,0.527,0.198
			h1.589v8.756c0,1.354,0.367,2.416,1.101,3.186c0.733,0.769,1.777,1.153,3.132,1.153c0.764,0,1.502-0.117,2.216-0.351
			c0.713-0.235,1.344-0.581,1.895-1.04l-1.131-1.833C351.579,375.594,351.503,375.51,351.432,375.454 M385.153,374.972
			c-0.203-0.204-0.448-0.367-0.733-0.488c-0.285-0.123-0.585-0.185-0.901-0.185c-0.326,0-0.632,0.062-0.916,0.185
			c-0.286,0.121-0.533,0.284-0.741,0.488c-0.209,0.204-0.372,0.448-0.489,0.733s-0.176,0.586-0.176,0.9
			c0,0.326,0.059,0.631,0.176,0.91c0.117,0.28,0.28,0.521,0.489,0.727c0.208,0.203,0.455,0.363,0.741,0.48
			c0.284,0.117,0.59,0.175,0.916,0.175c0.316,0,0.616-0.058,0.901-0.175s0.53-0.277,0.733-0.48c0.204-0.205,0.367-0.446,0.489-0.727
			c0.122-0.279,0.184-0.584,0.184-0.91c0-0.314-0.062-0.615-0.184-0.9S385.357,375.177,385.153,374.972 M398.903,374.972
			c-0.203-0.204-0.448-0.367-0.733-0.488c-0.285-0.123-0.585-0.185-0.901-0.185c-0.326,0-0.632,0.062-0.916,0.185
			c-0.286,0.121-0.533,0.284-0.741,0.488c-0.209,0.204-0.372,0.448-0.489,0.733s-0.176,0.586-0.176,0.9
			c0,0.326,0.059,0.631,0.176,0.91c0.117,0.28,0.28,0.521,0.489,0.727c0.208,0.203,0.455,0.363,0.741,0.48
			c0.284,0.117,0.59,0.175,0.916,0.175c0.316,0,0.616-0.058,0.901-0.175s0.53-0.277,0.733-0.48c0.204-0.205,0.367-0.446,0.489-0.727
			c0.122-0.279,0.184-0.584,0.184-0.91c0-0.314-0.062-0.615-0.184-0.9S399.107,375.177,398.903,374.972 M392.028,374.972
			c-0.203-0.204-0.448-0.367-0.733-0.488c-0.285-0.123-0.585-0.185-0.901-0.185c-0.326,0-0.632,0.062-0.916,0.185
			c-0.286,0.121-0.533,0.284-0.741,0.488c-0.209,0.204-0.372,0.448-0.489,0.733s-0.176,0.586-0.176,0.9
			c0,0.326,0.059,0.631,0.176,0.91c0.117,0.28,0.28,0.521,0.489,0.727c0.208,0.203,0.455,0.363,0.741,0.48
			c0.284,0.117,0.59,0.175,0.916,0.175c0.316,0,0.616-0.058,0.901-0.175s0.53-0.277,0.733-0.48c0.204-0.205,0.367-0.446,0.489-0.727
			c0.122-0.279,0.184-0.584,0.184-0.91c0-0.314-0.062-0.615-0.184-0.9S392.232,375.177,392.028,374.972 M366.711,364.621
			c-0.601-0.606-1.316-1.067-2.146-1.383c-0.83-0.316-1.739-0.474-2.728-0.474c-1.171,0-2.223,0.203-3.155,0.61
			c-0.932,0.408-1.722,0.961-2.368,1.659c-0.646,0.696-1.144,1.517-1.489,2.46c-0.347,0.94-0.52,1.947-0.52,3.017
			c0,1.375,0.198,2.585,0.596,3.629s0.942,1.92,1.635,2.628s1.508,1.243,2.444,1.604c0.938,0.362,1.951,0.542,3.041,0.542
			c0.55,0,1.118-0.04,1.703-0.122c0.586-0.081,1.162-0.221,1.727-0.42c0.565-0.198,1.108-0.463,1.628-0.794s0.987-0.741,1.405-1.23
			l-1.1-1.375c-0.082-0.111-0.179-0.199-0.291-0.26c-0.111-0.061-0.244-0.092-0.396-0.092c-0.234,0-0.477,0.072-0.727,0.214
			c-0.249,0.143-0.54,0.301-0.87,0.473c-0.331,0.174-0.718,0.332-1.161,0.476c-0.443,0.142-0.971,0.213-1.582,0.213
			c-1.243,0-2.241-0.376-2.994-1.13c-0.755-0.754-1.188-1.936-1.299-3.545h9.687c0.173,0,0.315-0.023,0.427-0.069
			c0.113-0.046,0.202-0.122,0.269-0.229c0.065-0.106,0.112-0.255,0.138-0.442c0.025-0.188,0.038-0.425,0.038-0.71
			c0-1.131-0.168-2.137-0.504-3.02C367.781,365.97,367.313,365.226,366.711,364.621 M358.14,369.044
			c0.173-1.14,0.57-2.022,1.191-2.643c0.621-0.621,1.482-0.933,2.582-0.933c0.561,0,1.05,0.094,1.467,0.282
			c0.418,0.188,0.765,0.446,1.039,0.771c0.275,0.326,0.479,0.705,0.611,1.14c0.133,0.433,0.199,0.893,0.199,1.382H358.14z
			 M240.904,364.422c-0.499-0.534-1.107-0.952-1.826-1.253c-0.718-0.3-1.535-0.45-2.452-0.45c-2.547,0-4.721,0.825-6.524,2.476
			l0.688,1.207c0.112,0.193,0.26,0.356,0.443,0.488s0.402,0.198,0.657,0.198c0.306,0,0.586-0.071,0.84-0.214
			c0.255-0.143,0.532-0.302,0.833-0.481c0.301-0.178,0.654-0.338,1.063-0.48c0.407-0.144,0.916-0.214,1.527-0.214
			c0.846,0,1.49,0.254,1.933,0.762c0.443,0.508,0.665,1.291,0.665,2.348v0.924c-1.783,0-3.275,0.153-4.477,0.461
			c-1.202,0.306-2.165,0.691-2.889,1.156c-0.723,0.465-1.239,0.986-1.55,1.563c-0.312,0.578-0.467,1.164-0.467,1.756
			c0,0.705,0.112,1.324,0.337,1.854c0.223,0.532,0.537,0.977,0.939,1.334c0.402,0.358,0.884,0.627,1.443,0.806
			c0.561,0.178,1.172,0.268,1.834,0.268c0.56,0,1.069-0.046,1.527-0.138c0.459-0.091,0.893-0.229,1.299-0.412
			c0.407-0.183,0.803-0.41,1.185-0.68c0.382-0.271,0.771-0.583,1.169-0.94l0.336,1.116c0.102,0.326,0.255,0.542,0.458,0.649
			c0.204,0.106,0.484,0.159,0.841,0.159h1.696v-9.899c0-0.888-0.13-1.702-0.39-2.445
			C241.782,365.595,241.403,364.957,240.904,364.422 M238.749,374.663c-0.275,0.281-0.548,0.523-0.817,0.729
			c-0.271,0.206-0.551,0.379-0.841,0.521c-0.291,0.14-0.598,0.245-0.924,0.314c-0.326,0.07-0.683,0.105-1.069,0.105
			c-0.632,0-1.144-0.144-1.536-0.431s-0.588-0.765-0.588-1.432c0-0.338,0.094-0.65,0.282-0.938s0.507-0.539,0.955-0.754
			c0.448-0.217,1.041-0.394,1.78-0.532c0.738-0.138,1.657-0.207,2.758-0.207V374.663z M326.726,364.621
			c-0.601-0.606-1.316-1.067-2.146-1.383c-0.83-0.316-1.74-0.474-2.728-0.474c-1.171,0-2.223,0.203-3.155,0.61
			c-0.932,0.408-1.722,0.961-2.368,1.659c-0.646,0.696-1.144,1.517-1.489,2.46c-0.347,0.94-0.52,1.947-0.52,3.017
			c0,1.375,0.198,2.585,0.596,3.629s0.942,1.92,1.635,2.628s1.508,1.243,2.444,1.604c0.938,0.362,1.951,0.542,3.041,0.542
			c0.55,0,1.118-0.04,1.703-0.122c0.586-0.081,1.162-0.221,1.726-0.42c0.566-0.198,1.109-0.463,1.629-0.794s0.987-0.741,1.405-1.23
			l-1.1-1.375c-0.082-0.111-0.179-0.199-0.291-0.26c-0.111-0.061-0.244-0.092-0.396-0.092c-0.234,0-0.477,0.072-0.727,0.214
			c-0.249,0.143-0.54,0.301-0.87,0.473c-0.331,0.174-0.719,0.332-1.161,0.476c-0.444,0.142-0.971,0.213-1.582,0.213
			c-1.243,0-2.241-0.376-2.994-1.13c-0.755-0.754-1.188-1.936-1.299-3.545h9.687c0.173,0,0.315-0.023,0.428-0.069
			s0.201-0.122,0.268-0.229c0.066-0.106,0.112-0.255,0.138-0.442c0.025-0.188,0.038-0.425,0.038-0.71
			c0-1.131-0.168-2.137-0.504-3.02C327.795,365.97,327.327,365.226,326.726,364.621 M318.155,369.044
			c0.173-1.14,0.57-2.022,1.191-2.643c0.62-0.621,1.482-0.933,2.581-0.933c0.562,0,1.051,0.094,1.468,0.282
			c0.418,0.188,0.765,0.446,1.039,0.771c0.275,0.326,0.479,0.705,0.611,1.14c0.132,0.433,0.199,0.893,0.199,1.382H318.155z
			 M95.906,364.621c-0.601-0.606-1.316-1.067-2.146-1.383c-0.83-0.316-1.739-0.474-2.728-0.474c-1.171,0-2.223,0.203-3.155,0.61
			c-0.932,0.408-1.722,0.961-2.369,1.659c-0.646,0.696-1.143,1.517-1.488,2.46c-0.347,0.94-0.52,1.947-0.52,3.017
			c0,1.375,0.198,2.585,0.596,3.629s0.942,1.92,1.635,2.628s1.508,1.243,2.443,1.604c0.938,0.362,1.952,0.542,3.041,0.542
			c0.551,0,1.119-0.04,1.704-0.122c0.586-0.081,1.162-0.221,1.727-0.42c0.565-0.198,1.108-0.463,1.628-0.794s0.986-0.741,1.404-1.23
			l-1.099-1.375c-0.082-0.111-0.179-0.199-0.291-0.26s-0.244-0.092-0.396-0.092c-0.234,0-0.477,0.072-0.727,0.214
			c-0.249,0.143-0.54,0.301-0.87,0.473c-0.331,0.174-0.719,0.332-1.162,0.476c-0.442,0.142-0.97,0.213-1.582,0.213
			c-1.242,0-2.24-0.376-2.993-1.13c-0.755-0.754-1.188-1.936-1.3-3.545h9.688c0.173,0,0.314-0.023,0.428-0.069
			c0.112-0.046,0.201-0.122,0.268-0.229c0.066-0.106,0.112-0.255,0.138-0.442c0.024-0.188,0.038-0.425,0.038-0.71
			c0-1.131-0.168-2.137-0.504-3.02C96.975,365.97,96.506,365.226,95.906,364.621 M87.334,369.044c0.172-1.14,0.57-2.022,1.191-2.643
			c0.621-0.621,1.481-0.933,2.582-0.933c0.561,0,1.05,0.094,1.467,0.282c0.418,0.188,0.765,0.446,1.039,0.771
			c0.275,0.326,0.479,0.705,0.611,1.14c0.133,0.433,0.198,0.893,0.198,1.382H87.334z M147.716,378.684h3.773v-15.677h-3.773V378.684
			z M220.323,375.454c-0.071-0.057-0.163-0.084-0.274-0.084c-0.092,0-0.184,0.027-0.275,0.084c-0.092,0.056-0.196,0.114-0.313,0.176
			c-0.118,0.062-0.255,0.119-0.412,0.175c-0.158,0.057-0.354,0.085-0.589,0.085c-0.408,0-0.733-0.138-0.978-0.413
			c-0.244-0.274-0.366-0.656-0.366-1.146v-8.496h4.125v-2.689h-4.125v-4.935h-1.956c-0.225,0-0.41,0.056-0.558,0.168
			c-0.147,0.113-0.242,0.27-0.283,0.474l-0.794,4.278l-2.521,0.413v1.497c0,0.265,0.074,0.464,0.222,0.596s0.323,0.198,0.527,0.198
			h1.59v8.756c0,1.354,0.366,2.416,1.1,3.186c0.732,0.769,1.777,1.153,3.132,1.153c0.764,0,1.502-0.117,2.216-0.351
			c0.713-0.235,1.343-0.581,1.895-1.04l-1.131-1.833C220.47,375.594,220.394,375.51,220.323,375.454 M116.349,364.261
			c-0.489-0.469-1.045-0.843-1.666-1.123c-0.621-0.279-1.37-0.42-2.246-0.42c-1.028,0-1.955,0.206-2.78,0.618
			c-0.825,0.413-1.533,0.986-2.124,1.72s-1.044,1.6-1.36,2.598c-0.315,0.998-0.474,2.077-0.474,3.238
			c0,1.284,0.141,2.425,0.421,3.422c0.279,0.999,0.677,1.838,1.191,2.515c0.515,0.678,1.128,1.193,1.841,1.551
			c0.713,0.356,1.498,0.534,2.354,0.534c0.55,0,1.062-0.059,1.535-0.175c0.474-0.117,0.917-0.283,1.33-0.496
			c0.412-0.215,0.797-0.47,1.153-0.766c0.356-0.295,0.697-0.626,1.023-0.992l0.306,1.513c0.152,0.458,0.474,0.687,0.963,0.687h2.307
			v-22.705h-3.773V364.261z M116.349,374.04c-0.489,0.602-1.01,1.064-1.559,1.391c-0.55,0.326-1.218,0.489-2.002,0.489
			c-0.49,0-0.932-0.089-1.329-0.267c-0.397-0.179-0.733-0.47-1.009-0.871c-0.275-0.403-0.486-0.922-0.634-1.56
			c-0.147-0.636-0.222-1.413-0.222-2.33c0-0.905,0.087-1.692,0.26-2.36c0.173-0.667,0.42-1.218,0.741-1.65s0.713-0.756,1.177-0.97
			c0.463-0.214,0.979-0.321,1.551-0.321c0.58,0,1.123,0.107,1.627,0.321s0.971,0.581,1.398,1.1V374.04z M78.869,356.867
			c-0.245,0.183-0.403,0.401-0.474,0.656l-3.76,13.217c-0.081,0.315-0.16,0.656-0.236,1.023s-0.15,0.749-0.223,1.146
			c-0.162-0.795-0.355-1.519-0.579-2.17l-4.309-13.217c-0.092-0.284-0.255-0.512-0.489-0.68s-0.53-0.252-0.887-0.252h-1.207
			c-0.346,0-0.639,0.096-0.878,0.29c-0.24,0.194-0.401,0.407-0.481,0.642l-4.341,13.217c-0.111,0.326-0.215,0.68-0.312,1.062
			c-0.098,0.382-0.188,0.787-0.268,1.215c-0.071-0.428-0.146-0.833-0.222-1.215s-0.16-0.735-0.252-1.062l-3.759-13.217
			c-0.082-0.284-0.242-0.512-0.481-0.68s-0.538-0.252-0.894-0.252h-3.453l6.86,22.093h3.713l4.874-15.096
			c0.061-0.193,0.124-0.402,0.19-0.626s0.13-0.464,0.191-0.718c0.061,0.254,0.125,0.494,0.19,0.718
			c0.066,0.224,0.131,0.433,0.191,0.626l4.828,15.096h3.713l6.86-22.093h-3.224C79.408,356.592,79.114,356.682,78.869,356.867
			 M55.736,310.755c0,5.881,1.007,10.711,3.021,14.493c2.015,3.824,4.996,6.683,8.943,8.573c3.905,1.891,8.798,2.837,14.678,2.837
			c0.987,0,1.994-0.083,3.022-0.246l5.674-19.613c-1.193,0.535-2.92,0.802-5.181,0.802c-6.99,0-10.484-2.795-10.484-8.387v-20.907
			h8.696l4.379-16.898H75.409v-24.176l-19.674-0.123v24.299h-8.572l-4.44,16.898h13.013V310.755z M136.517,364.933
			c-0.672-0.691-1.484-1.227-2.438-1.604c-0.952-0.377-2.014-0.565-3.186-0.565c-1.171,0-2.235,0.188-3.193,0.565
			c-0.957,0.377-1.775,0.912-2.452,1.604c-0.678,0.693-1.202,1.538-1.575,2.537c-0.371,0.998-0.557,2.113-0.557,3.347
			c0,1.241,0.186,2.362,0.557,3.36c0.373,0.999,0.897,1.85,1.575,2.552c0.677,0.703,1.495,1.243,2.452,1.62
			c0.958,0.376,2.022,0.564,3.193,0.564c1.172,0,2.233-0.188,3.186-0.564c0.953-0.377,1.766-0.917,2.438-1.62
			c0.672-0.702,1.191-1.553,1.559-2.552c0.366-0.998,0.55-2.119,0.55-3.36c0-1.233-0.184-2.349-0.55-3.347
			C137.708,366.471,137.189,365.627,136.517,364.933 M133.789,374.698c-0.626,0.876-1.592,1.313-2.896,1.313
			c-1.324,0-2.303-0.44-2.934-1.322c-0.632-0.881-0.947-2.161-0.947-3.843c0-1.681,0.315-2.966,0.947-3.857
			c0.631-0.892,1.609-1.337,2.934-1.337c1.304,0,2.27,0.442,2.896,1.328c0.627,0.888,0.939,2.177,0.939,3.866
			C134.729,372.538,134.416,373.822,133.789,374.698 M191.261,374.345c-0.509,0.509-1.049,0.909-1.619,1.199
			c-0.57,0.291-1.182,0.436-1.833,0.436c-0.887,0-1.552-0.262-1.994-0.786c-0.443-0.524-0.665-1.266-0.665-2.224v-9.962h-3.773
			v9.962c0,0.876,0.114,1.678,0.344,2.406c0.229,0.729,0.567,1.358,1.016,1.888s1.001,0.939,1.658,1.23
			c0.656,0.29,1.413,0.435,2.269,0.435c0.52,0,1.006-0.054,1.459-0.161c0.453-0.106,0.876-0.254,1.269-0.441
			c0.392-0.189,0.762-0.418,1.107-0.688c0.346-0.27,0.683-0.567,1.009-0.894l0.26,1.253c0.152,0.458,0.474,0.687,0.963,0.687h2.307
			v-15.676h-3.774V374.345z M208.198,370.947c-0.362-0.322-0.771-0.586-1.23-0.795s-0.927-0.396-1.405-0.559
			c-0.479-0.162-0.947-0.313-1.406-0.451c-0.458-0.137-0.868-0.292-1.229-0.465c-0.361-0.174-0.652-0.375-0.871-0.604
			c-0.219-0.229-0.328-0.513-0.328-0.849c0-0.509,0.214-0.922,0.642-1.237s1.013-0.474,1.757-0.474c0.479,0,0.894,0.052,1.245,0.152
			c0.352,0.102,0.665,0.217,0.939,0.344c0.275,0.128,0.518,0.242,0.727,0.344c0.208,0.103,0.404,0.153,0.588,0.153
			c0.173,0,0.315-0.033,0.427-0.099c0.113-0.067,0.22-0.182,0.322-0.345l0.855-1.359c-0.591-0.581-1.329-1.049-2.216-1.406
			c-0.886-0.355-1.869-0.534-2.948-0.534c-0.969,0-1.821,0.129-2.56,0.39c-0.739,0.26-1.355,0.605-1.849,1.039
			c-0.494,0.433-0.869,0.939-1.123,1.52c-0.255,0.581-0.382,1.192-0.382,1.834c0,0.693,0.108,1.283,0.328,1.772
			c0.219,0.488,0.509,0.901,0.871,1.237c0.361,0.336,0.773,0.614,1.237,0.833c0.463,0.22,0.938,0.41,1.42,0.573
			c0.484,0.162,0.957,0.313,1.422,0.45c0.464,0.138,0.876,0.293,1.238,0.466c0.361,0.174,0.651,0.377,0.87,0.612
			c0.22,0.233,0.329,0.534,0.329,0.9c0,0.245-0.049,0.481-0.146,0.71c-0.097,0.229-0.25,0.432-0.458,0.604
			c-0.209,0.173-0.474,0.313-0.795,0.42c-0.32,0.107-0.705,0.161-1.153,0.161c-0.57,0-1.042-0.066-1.413-0.199
			c-0.372-0.133-0.695-0.275-0.971-0.428c-0.275-0.153-0.517-0.295-0.726-0.429c-0.209-0.132-0.431-0.197-0.665-0.197
			s-0.428,0.045-0.58,0.137c-0.153,0.092-0.285,0.224-0.397,0.397l-0.871,1.437c0.306,0.275,0.659,0.53,1.063,0.763
			c0.401,0.235,0.84,0.439,1.313,0.612s0.968,0.308,1.482,0.405c0.514,0.096,1.041,0.145,1.58,0.145c1.01,0,1.903-0.13,2.683-0.39
			c0.778-0.259,1.434-0.621,1.963-1.085c0.53-0.463,0.933-1.013,1.208-1.65c0.273-0.636,0.412-1.331,0.412-2.085
			c0-0.632-0.109-1.172-0.328-1.62C208.85,371.652,208.56,371.266,208.198,370.947 M177.335,356.728
			c-0.22-0.214-0.477-0.384-0.771-0.512c-0.296-0.127-0.611-0.19-0.947-0.19c-0.326,0-0.635,0.063-0.925,0.19
			c-0.29,0.128-0.542,0.298-0.756,0.512c-0.214,0.215-0.386,0.47-0.513,0.765s-0.19,0.61-0.19,0.946c0,0.327,0.063,0.633,0.19,0.917
			c0.127,0.285,0.299,0.535,0.513,0.749c0.214,0.215,0.466,0.386,0.756,0.513s0.599,0.189,0.925,0.189
			c0.336,0,0.651-0.063,0.947-0.189c0.295-0.127,0.552-0.298,0.771-0.513c0.219-0.214,0.395-0.464,0.527-0.749
			c0.132-0.284,0.198-0.59,0.198-0.917c0-0.336-0.066-0.651-0.198-0.946C177.73,357.198,177.554,356.943,177.335,356.728
			 M173.722,379.219c0,0.407-0.033,0.749-0.1,1.024c-0.066,0.274-0.179,0.497-0.336,0.665c-0.158,0.168-0.367,0.29-0.627,0.366
			c-0.26,0.075-0.578,0.114-0.955,0.114c-0.376,0-0.631,0.028-0.764,0.084c-0.132,0.057-0.214,0.187-0.244,0.391l-0.122,2.031
			c0.315,0.102,0.626,0.176,0.932,0.222s0.637,0.068,0.993,0.068c0.917,0,1.693-0.13,2.33-0.39c0.637-0.259,1.151-0.616,1.543-1.069
			c0.393-0.454,0.678-0.98,0.855-1.582c0.179-0.601,0.268-1.241,0.268-1.925v-16.211h-3.773V379.219z M186.297,247.047
			l-19.674,0.063v87.637l19.674-0.247V247.047z M163.653,375.454c-0.071-0.057-0.163-0.084-0.274-0.084
			c-0.092,0-0.184,0.027-0.275,0.084c-0.092,0.056-0.196,0.114-0.313,0.176s-0.255,0.119-0.412,0.175
			c-0.159,0.057-0.354,0.085-0.589,0.085c-0.407,0-0.733-0.138-0.978-0.413c-0.244-0.274-0.366-0.656-0.366-1.146v-8.496h4.125
			v-2.689h-4.125v-4.935h-1.956c-0.225,0-0.41,0.056-0.558,0.168c-0.147,0.113-0.242,0.27-0.283,0.474l-0.794,4.278l-2.521,0.413
			v1.497c0,0.265,0.074,0.464,0.222,0.596s0.323,0.198,0.527,0.198h1.589v8.756c0,1.354,0.367,2.416,1.101,3.186
			c0.733,0.769,1.777,1.153,3.132,1.153c0.764,0,1.502-0.117,2.216-0.351c0.713-0.235,1.344-0.581,1.895-1.04l-1.132-1.833
			C163.8,375.594,163.724,375.51,163.653,375.454"/>
	</g>
</g>
</svg>
