<svg width="26" height="28" viewBox="0 0 26 28" fill="none" xmlns="http://www.w3.org/2000/svg">
<path d="M19.8571 16.9848C21.2491 16.9848 22.4133 15.978 22.6978 14.637H24.4286C24.773 14.637 25.05 14.3505 25.05 14C25.05 13.6495 24.773 13.363 24.4286 13.363H22.6978C22.4134 12.0226 21.2499 11.0152 19.8571 11.0152C18.4652 11.0152 17.301 12.022 17.0165 13.363L1.57143 13.363C1.22697 13.363 0.949999 13.6495 0.949999 14C0.949999 14.3505 1.22697 14.637 1.57143 14.637L17.0165 14.637C17.3009 15.9774 18.4644 16.9848 19.8571 16.9848ZM18.1929 14C18.1929 13.0549 18.9408 12.2891 19.8571 12.2891C20.7741 12.2891 21.5214 13.0555 21.5214 14C21.5214 14.9451 20.7735 15.7109 19.8571 15.7109C18.9402 15.7109 18.1929 14.9445 18.1929 14ZM6.14286 6.41957C7.53483 6.41957 8.69905 5.41277 8.98351 4.07174L24.4286 4.07174C24.773 4.07174 25.05 3.78529 25.05 3.43478C25.05 3.08427 24.773 2.79783 24.4286 2.79783L8.9835 2.79783C8.6991 1.45743 7.5356 0.45 6.14286 0.45C4.75089 0.45 3.58667 1.4568 3.3022 2.79783H1.57143C1.22697 2.79783 0.949999 3.08427 0.949999 3.43478C0.949999 3.78529 1.22697 4.07174 1.57143 4.07174H3.30222C3.58661 5.41214 4.75011 6.41957 6.14286 6.41957ZM4.47857 3.43478C4.47857 2.48965 5.22652 1.72391 6.14286 1.72391C7.05976 1.72391 7.80714 2.49024 7.80714 3.43478C7.80714 4.37992 7.05919 5.14565 6.14286 5.14565C5.22595 5.14565 4.47857 4.37933 4.47857 3.43478ZM11.2857 27.55C12.6777 27.55 13.8419 26.5432 14.1264 25.2022H24.4286C24.773 25.2022 25.05 24.9157 25.05 24.5652C25.05 24.2147 24.773 23.9283 24.4286 23.9283H14.1264C13.842 22.5879 12.6785 21.5804 11.2857 21.5804C9.89374 21.5804 8.72952 22.5872 8.44506 23.9283H1.57143C1.22697 23.9283 0.949999 24.2147 0.949999 24.5652C0.949999 24.9157 1.22697 25.2022 1.57143 25.2022H8.44507C8.72947 26.5426 9.89297 27.55 11.2857 27.55ZM9.62143 24.5652C9.62143 23.6201 10.3694 22.8543 11.2857 22.8543C12.2026 22.8543 12.95 23.6207 12.95 24.5652C12.95 25.5104 12.202 26.2761 11.2857 26.2761C10.3688 26.2761 9.62143 25.5098 9.62143 24.5652Z" fill="#323232" stroke="#323232" stroke-width="0.1"/>
</svg>
