<svg width="30" height="27" viewBox="0 0 30 27" fill="none" xmlns="http://www.w3.org/2000/svg">
<path d="M28.7899 11.8964V22.7927C28.7899 24.5122 27.4179 25.906 25.7254 25.906H4.27439C2.58195 25.906 1.20996 24.5122 1.20996 22.7927V8.78312C1.20996 7.06372 2.58195 5.66987 4.27439 5.66987H6.57272C7.53727 5.66987 8.44553 5.2085 9.02427 4.42457L10.6331 2.2453C11.2118 1.46137 12.1201 1 13.0846 1H16.9152" stroke="#717171" stroke-width="2" stroke-linecap="round" stroke-linejoin="round"/>
<path d="M24.9594 1V4.89156M24.9594 4.89156V8.78312M24.9594 4.89156H21.1289M24.9594 4.89156H28.79" stroke="#717171" stroke-width="2" stroke-linecap="round" stroke-linejoin="round"/>
<path d="M15 21.236C18.3848 21.236 21.1288 18.4483 21.1288 15.0095C21.1288 11.5707 18.3848 8.78296 15 8.78296C11.6151 8.78296 8.87109 11.5707 8.87109 15.0095C8.87109 18.4483 11.6151 21.236 15 21.236Z" stroke="#717171" stroke-width="2" stroke-linecap="round" stroke-linejoin="round"/>
</svg>
