<svg width="40" height="40" viewBox="0 0 40 40" fill="none" xmlns="http://www.w3.org/2000/svg">
<path d="M13 15.4903V16.5398C13 16.7996 13.2225 17.0105 13.4977 17.0105H14.3786V26.1645C14.3786 27.1764 15.2496 28 16.3196 28H23.6804C24.7504 28 25.6209 27.1764 25.6209 26.1645V17.0105H26.5023C26.7775 17.0105 27 16.7996 27 16.5398V15.4903C27 14.7716 26.3794 14.1866 25.6164 14.1866H23.1718V13.4119C23.1718 12.6335 22.5019 12 21.6787 12H18.3218C17.4986 12 16.8287 12.6335 16.8287 13.4119V14.1866H14.3831C13.6206 14.1866 13 14.7716 13 15.4903ZM24.6255 26.1645C24.6255 26.6577 24.201 27.0587 23.6804 27.0587H16.3196C15.798 27.0587 15.374 26.6577 15.374 26.1645V17.0105H24.626L24.6255 26.1645ZM26.0046 15.4903V16.0692H13.9954V15.4903C13.9954 15.287 14.1661 15.1279 14.3831 15.1279H25.6159C25.8339 15.1279 26.0046 15.287 26.0046 15.4903ZM17.8236 13.4119C17.8236 13.1526 18.0466 12.9413 18.3213 12.9413H21.6782C21.9529 12.9413 22.1759 13.1526 22.1759 13.4119V14.1866H17.8236V13.4119Z" fill="#B83A37"/>
<path d="M19.9999 25.6466C20.2751 25.6466 20.4975 25.4358 20.4975 25.176V18.8924C20.4975 18.6326 20.2751 18.4218 19.9999 18.4218C19.7246 18.4218 19.5022 18.6326 19.5022 18.8924V25.176C19.5022 25.4358 19.7246 25.6466 19.9999 25.6466Z" fill="#B83A37"/>
<path d="M22.635 25.6466C22.9102 25.6466 23.1327 25.4358 23.1327 25.176V18.8924C23.1327 18.6326 22.9102 18.4218 22.635 18.4218C22.3598 18.4218 22.1373 18.6326 22.1373 18.8924V25.176C22.1373 25.4358 22.3603 25.6466 22.635 25.6466Z" fill="#B83A37"/>
<path d="M17.364 25.6466C17.6392 25.6466 17.8617 25.4358 17.8617 25.176V18.8924C17.8617 18.6326 17.6392 18.4218 17.364 18.4218C17.0888 18.4218 16.8663 18.6326 16.8663 18.8924V25.176C16.8663 25.4358 17.0888 25.6466 17.364 25.6466Z" fill="#B83A37"/>
</svg>
