<svg width="32" height="32" viewBox="0 0 32 32" fill="none" xmlns="http://www.w3.org/2000/svg">
<path d="M18.5218 16.3154C17.5866 16.3154 16.6725 16.0381 15.8949 15.5185C15.1174 14.9991 14.5114 14.2606 14.1536 13.3966C13.7956 12.5326 13.702 11.582 13.8845 10.6648C14.0669 9.74759 14.5172 8.90512 15.1785 8.24387C15.8397 7.58261 16.6822 7.1323 17.5993 6.94987C18.5165 6.76742 19.4672 6.86105 20.3312 7.21892C21.1952 7.57679 21.9336 8.18281 22.4531 8.96036C22.9727 9.73791 23.25 10.6521 23.25 11.5872C23.25 12.8412 22.7518 14.0438 21.8652 14.9306C20.9784 15.8172 19.7758 16.3154 18.5218 16.3154ZM18.5218 8.75029C17.9607 8.75029 17.4122 8.91667 16.9457 9.22839C16.4792 9.54012 16.1156 9.98318 15.9008 10.5016C15.6861 11.0199 15.6299 11.5904 15.7393 12.1407C15.8489 12.691 16.119 13.1964 16.5158 13.5932C16.9126 13.99 17.418 14.2602 17.9683 14.3696C18.5186 14.4791 19.089 14.4229 19.6074 14.2081C20.1258 13.9934 20.5689 13.6298 20.8806 13.1633C21.1923 12.6968 21.3587 12.1483 21.3587 11.5872C21.3587 10.8348 21.0597 10.1132 20.5278 9.5812C19.9957 9.04917 19.2741 8.75029 18.5218 8.75029Z" fill="#590C13"/>
<path d="M27.3476 25.1411C27.0979 25.1378 26.8592 25.0372 26.6825 24.8605C26.5059 24.6839 26.4053 24.4452 26.402 24.1954C26.402 21.7368 25.0655 20.0977 18.5217 20.0977C11.9779 20.0977 10.6414 21.7368 10.6414 24.1954C10.6414 24.4462 10.5417 24.6868 10.3644 24.8641C10.1871 25.0415 9.94653 25.1411 9.69574 25.1411C9.44494 25.1411 9.20441 25.0415 9.02707 24.8641C8.84973 24.6868 8.7501 24.4462 8.7501 24.1954C8.7501 18.2064 15.5965 18.2064 18.5217 18.2064C21.4469 18.2064 28.2933 18.2064 28.2933 24.1954C28.29 24.4452 28.1894 24.6839 28.0127 24.8605C27.8361 25.0372 27.5974 25.1378 27.3476 25.1411Z" fill="#590C13"/>
<path d="M11.3602 17.3366H10.9567C9.95351 17.2397 9.02993 16.7482 8.38913 15.9703C7.74834 15.1923 7.44283 14.1917 7.5398 13.1885C7.63678 12.1853 8.1283 11.2617 8.90623 10.6209C9.68418 9.9801 10.6848 9.67458 11.688 9.77155C11.8166 9.77709 11.9428 9.80882 12.0587 9.86483C12.1746 9.92083 12.2779 9.99992 12.3622 10.0972C12.4465 10.1946 12.51 10.3081 12.5489 10.4308C12.5878 10.5536 12.6012 10.6829 12.5883 10.811C12.5754 10.9392 12.5365 11.0633 12.4739 11.1758C12.4113 11.2883 12.3265 11.3869 12.2245 11.4655C12.1225 11.544 12.0055 11.6009 11.8807 11.6327C11.756 11.6645 11.626 11.6704 11.4989 11.6502C11.2528 11.6257 11.0042 11.651 10.7681 11.7246C10.5319 11.7983 10.3131 11.9188 10.1245 12.0789C9.93306 12.2334 9.77424 12.4244 9.65735 12.6409C9.54044 12.8574 9.46781 13.0949 9.44368 13.3398C9.41762 13.5876 9.44114 13.8383 9.51289 14.077C9.58463 14.3158 9.70318 14.5378 9.86159 14.7302C10.02 14.9227 10.2152 15.0817 10.4356 15.198C10.6561 15.3142 10.8975 15.3855 11.1458 15.4075C11.5563 15.4427 11.9672 15.3455 12.3184 15.1302C12.5324 14.9981 12.7902 14.9564 13.0349 15.0144C13.2796 15.0723 13.4913 15.2251 13.6234 15.4391C13.7556 15.6532 13.7972 15.9109 13.7393 16.1556C13.6813 16.4003 13.5285 16.612 13.3145 16.744C12.7297 17.117 12.0536 17.322 11.3602 17.3366Z" fill="#590C13"/>
<path d="M4.65243 24.1954C4.40264 24.1921 4.16401 24.0915 3.98736 23.9148C3.81073 23.7382 3.71005 23.4995 3.70679 23.2497C3.70679 19.8454 4.6146 17.5759 9.0654 17.5759C9.3162 17.5759 9.55673 17.6755 9.73407 17.8529C9.91141 18.0302 10.011 18.2708 10.011 18.5215C10.011 18.7723 9.91141 19.0129 9.73407 19.1902C9.55673 19.3676 9.3162 19.4672 9.0654 19.4672C6.1024 19.4672 5.59806 20.4128 5.59806 23.2497C5.5948 23.4995 5.49412 23.7382 5.31749 23.9148C5.14084 24.0915 4.90221 24.1921 4.65243 24.1954Z" fill="#590C13"/>
</svg>
