<?xml version="1.0" encoding="utf-8"?>
<!-- Generator: Adobe Illustrator 16.0.2, SVG Export Plug-In . SVG Version: 6.00 Build 0)  -->
<!DOCTYPE svg PUBLIC "-//W3C//DTD SVG 1.1//EN" "http://www.w3.org/Graphics/SVG/1.1/DTD/svg11.dtd">
<svg version="1.1" id="Layer_1" xmlns="http://www.w3.org/2000/svg" xmlns:xlink="http://www.w3.org/1999/xlink" x="0px" y="0px"
	 width="27.057px" height="22.5px" viewBox="1.951 2.073 27.057 22.5" enable-background="new 1.951 2.073 27.057 22.5"
	 xml:space="preserve">
<g opacity="0.5">
	<g>
		<defs>
			<rect id="SVGID_1_" x="211.66" y="-308.038" width="91.82" height="14.403"/>
		</defs>
		<clipPath id="SVGID_2_">
			<use xlink:href="#SVGID_1_"  overflow="visible"/>
		</clipPath>
		<g clip-path="url(#SVGID_2_)">
			<text transform="matrix(1 0 0 1 211.6614 -298.5183)"><tspan x="0" y="0" fill="#666666" font-family="'Montserrat-SemiBold'" font-size="11.2">Pri</tspan><tspan x="15.635" y="0" fill="#666666" font-family="'Montserrat-SemiBold'" font-size="11.2">v</tspan><tspan x="21.694" y="0" fill="#666666" font-family="'Montserrat-SemiBold'" font-size="11.2">atni </tspan><tspan x="46.647" y="0" fill="#666666" font-family="'Montserrat-SemiBold'" font-size="11.2">k</tspan><tspan x="53.289" y="0" fill="#666666" font-family="'Montserrat-SemiBold'" font-size="11.2">orisnik</tspan></text>
		</g>
	</g>
</g>
<path fill="#676767" d="M1192.805-83.161h0.009c0.139,0.003,0.31,0.073,0.476,0.141l0.219,0.09l0.491,0.201
	c0.201,0.083,0.41,0.168,0.521,0.295c0.09,0.103,0.124,0.261,0.085,0.392c-0.013,0.042-0.034,0.094-0.057,0.149
	c-0.085,0.208-0.214,0.521-0.077,0.866c0.07,0.177,0.191,0.298,0.27,0.378l0.617,0.619c0.099,0.098,0.246,0.246,0.469,0.316
	c0.082,0.025,0.168,0.038,0.257,0.038c0.216,0,0.398-0.076,0.545-0.138c0.052-0.022,0.102-0.043,0.142-0.055
	c0.036-0.011,0.076-0.017,0.117-0.017c0.105,0,0.212,0.039,0.285,0.104c0.13,0.114,0.219,0.338,0.297,0.536
	c0.045,0.112,0.089,0.224,0.134,0.336c0.088,0.22,0.179,0.448,0.265,0.672c0.052,0.131,0.063,0.217-0.06,0.44
	c-0.003,0.005-0.008,0.012-0.02,0.024c-0.046,0.043-0.143,0.088-0.236,0.133c-0.253,0.119-0.676,0.319-0.763,0.853
	c-0.034,0.208-0.022,0.405-0.012,0.579c0.004,0.076,0.01,0.148,0.01,0.215c0,0.037-0.004,0.084-0.008,0.133
	c-0.015,0.188-0.037,0.472,0.129,0.748c0.203,0.336,0.561,0.459,0.82,0.549c0.048,0.016,0.093,0.031,0.133,0.046
	c0.038,0.121,0.063,0.383,0.047,0.495c-0.041,0.288-0.187,0.576-0.342,0.88c-0.024,0.05-0.05,0.099-0.074,0.148
	c-0.193,0.388-0.396,0.585-0.602,0.585c-0.007,0-0.013-0.001-0.013-0.001c-0.047-0.002-0.139-0.044-0.212-0.078
	c-0.158-0.073-0.355-0.165-0.599-0.165h-0.014c-0.695,0.01-1.534,1.053-1.636,1.542c-0.076,0.363,0.074,0.684,0.186,0.919
	c0.022,0.046,0.043,0.09,0.06,0.13c-0.068,0.135-0.307,0.379-0.408,0.438c-0.15,0.084-0.331,0.143-0.522,0.205
	c-0.158,0.05-0.324,0.104-0.488,0.176c-0.15,0.067-0.288,0.101-0.398,0.101c-0.115,0-0.169-0.037-0.207-0.073
	c-0.072-0.069-0.133-0.175-0.203-0.297c-0.111-0.193-0.249-0.433-0.496-0.616c-0.24-0.179-0.504-0.179-0.617-0.179
	c-0.021,0-0.042,0-0.063,0c-0.017,0.001-0.034,0.001-0.052,0.001h-0.246h-0.292c-0.02,0-0.04,0-0.061,0
	c-0.025-0.001-0.05-0.001-0.075-0.001c-0.192,0-0.419,0.017-0.629,0.138c-0.207,0.118-0.323,0.315-0.392,0.452
	c-0.202,0.402-0.335,0.606-0.498,0.606c-0.052,0-0.116-0.014-0.19-0.041c-0.102-0.038-0.211-0.075-0.327-0.114
	c-0.345-0.115-0.735-0.246-1.022-0.432c-0.318-0.207-0.354-0.386-0.35-0.519c0.004-0.103,0.035-0.189,0.074-0.297
	c0.094-0.259,0.236-0.652-0.141-1.175c-0.392-0.544-0.78-0.854-1.191-0.948c-0.067-0.015-0.137-0.023-0.205-0.023
	c-0.256,0-0.453,0.104-0.598,0.181c-0.047,0.024-0.117,0.062-0.146,0.068c-0.006-0.001-0.016-0.004-0.033-0.01
	c-0.16-0.054-0.367-0.151-0.441-0.307c-0.153-0.32-0.298-0.623-0.416-0.936c-0.078-0.206-0.153-0.445-0.13-0.652
	c0.013-0.113,0.054-0.232,0.263-0.342c0.035-0.018,0.073-0.036,0.113-0.054c0.219-0.104,0.586-0.275,0.693-0.744
	c0.066-0.287,0.049-0.598,0.033-0.872c-0.006-0.109-0.012-0.213-0.012-0.303c0-0.108,0-0.27-0.07-0.439
	c-0.15-0.359-0.48-0.482-0.699-0.562c-0.067-0.025-0.138-0.051-0.178-0.075c-0.092-0.054-0.155-0.203-0.154-0.362
	c0.002-0.194,0.077-0.648,0.552-1.517c0.084-0.153,0.179-0.231,0.47-0.231c0.14,0,0.298,0.019,0.466,0.038l0.032,0.004
	c0.071,0.008,0.141,0.013,0.208,0.013c0.409,0,0.776-0.149,1.063-0.429c0.204-0.201,0.851-0.912,0.578-1.641
	c-0.03-0.081-0.06-0.145-0.083-0.195c-0.012-0.026-0.028-0.06-0.033-0.076c0-0.006,0.002-0.017,0.006-0.034
	c0.038-0.172,0.095-0.284,0.178-0.353c0.12-0.1,0.292-0.171,0.476-0.245l0.699-0.285c0.163-0.067,0.333-0.137,0.471-0.14h0.01
	c0.162,0,0.33,0.105,0.401,0.249c0.016,0.034,0.033,0.078,0.052,0.124c0.082,0.205,0.205,0.515,0.544,0.658
	c0.166,0.07,0.324,0.07,0.43,0.07l0.974,0.001h0.005c0.095,0,0.253,0,0.416-0.067c0.345-0.143,0.469-0.455,0.552-0.662
	c0.019-0.047,0.037-0.092,0.054-0.126C1192.476-83.057,1192.644-83.161,1192.805-83.161 M1190.887-71.836
	c2.407,0,4.365-1.956,4.365-4.359c0-2.404-1.958-4.359-4.365-4.359c-2.406,0-4.365,1.955-4.365,4.359
	C1186.522-73.792,1188.481-71.836,1190.887-71.836 M1192.805-83.637c-0.341,0-0.675,0.207-0.826,0.513
	c-0.101,0.204-0.149,0.471-0.36,0.558c-0.073,0.03-0.155,0.031-0.234,0.031h-0.004h-0.975c-0.083,0-0.168-0.001-0.244-0.033
	c-0.209-0.087-0.256-0.351-0.354-0.553c-0.15-0.308-0.485-0.516-0.828-0.516c0,0-0.015,0.001-0.021,0.001
	c-0.222,0.005-0.433,0.091-0.639,0.174c-0.232,0.095-0.466,0.191-0.7,0.286c-0.211,0.086-0.424,0.174-0.6,0.32
	c-0.189,0.157-0.285,0.38-0.337,0.614c-0.059,0.258,0.037,0.33,0.129,0.575c0.146,0.393-0.203,0.877-0.466,1.135
	c-0.205,0.201-0.455,0.293-0.729,0.293c-0.049,0-0.1-0.003-0.151-0.009c-0.188-0.022-0.376-0.045-0.555-0.045
	c-0.356,0-0.676,0.093-0.887,0.478c-0.259,0.474-0.604,1.192-0.609,1.74c-0.004,0.303,0.126,0.623,0.388,0.777
	c0.233,0.138,0.574,0.159,0.68,0.41c0.033,0.079,0.033,0.169,0.033,0.255c0,0.332,0.065,0.748-0.009,1.069
	c-0.068,0.298-0.325,0.359-0.563,0.484c-0.288,0.151-0.478,0.375-0.516,0.709c-0.033,0.297,0.053,0.594,0.157,0.873
	c0.126,0.333,0.279,0.654,0.433,0.974c0.137,0.287,0.426,0.454,0.718,0.552c0.041,0.014,0.083,0.027,0.126,0.033
	c0.02,0.002,0.039,0.003,0.059,0.003c0.269,0,0.473-0.25,0.745-0.25c0.032,0,0.065,0.004,0.1,0.012
	c0.369,0.084,0.701,0.469,0.911,0.762c0.357,0.496-0.005,0.676-0.022,1.177c-0.036,0.973,1.312,1.27,2.008,1.527
	c0.134,0.049,0.25,0.071,0.356,0.071c0.472,0,0.705-0.436,0.923-0.868c0.046-0.092,0.111-0.2,0.203-0.253
	c0.115-0.066,0.257-0.074,0.393-0.074c0.046,0,0.092,0.001,0.136,0.001h0.002c0.179,0,0.357-0.001,0.537-0.001
	c0.038,0,0.075-0.001,0.114-0.001c0.118,0,0.232,0.01,0.334,0.085c0.306,0.227,0.386,0.618,0.652,0.874
	c0.155,0.15,0.343,0.207,0.537,0.207c0.198,0,0.404-0.06,0.59-0.142c0.343-0.15,0.723-0.217,1.052-0.401
	c0.208-0.117,0.749-0.647,0.653-0.936c-0.089-0.267-0.319-0.572-0.258-0.869c0.076-0.365,0.783-1.158,1.178-1.163h0.007
	c0.271,0,0.507,0.229,0.781,0.242c0.014,0.001,0.028,0.001,0.042,0.001c0.502,0,0.821-0.436,1.027-0.848
	c0.188-0.375,0.402-0.754,0.461-1.175c0.027-0.204-0.005-0.839-0.233-0.954c-0.252-0.127-0.667-0.177-0.83-0.447
	c-0.119-0.198-0.053-0.422-0.053-0.636c-0.001-0.238-0.043-0.481-0.005-0.717c0.073-0.45,0.577-0.452,0.856-0.718
	c0.042-0.039,0.08-0.085,0.109-0.139c0.164-0.299,0.207-0.534,0.088-0.842c-0.132-0.337-0.268-0.673-0.401-1.01
	c-0.103-0.261-0.213-0.532-0.423-0.718c-0.165-0.144-0.383-0.223-0.601-0.223c-0.088,0-0.175,0.013-0.258,0.039
	c-0.183,0.056-0.364,0.172-0.546,0.172c-0.038,0-0.076-0.006-0.115-0.017c-0.108-0.034-0.193-0.118-0.273-0.198
	c-0.205-0.206-0.411-0.412-0.616-0.618c-0.065-0.066-0.132-0.133-0.166-0.219c-0.091-0.228,0.077-0.468,0.148-0.704
	c0.085-0.286,0.014-0.614-0.184-0.84c-0.181-0.207-0.444-0.317-0.698-0.421c-0.237-0.098-0.474-0.195-0.711-0.292
	c-0.207-0.085-0.42-0.171-0.644-0.177H1192.805z M1190.887-72.312c-2.146,0-3.89-1.742-3.89-3.883c0-2.142,1.744-3.884,3.89-3.884
	c2.145,0,3.89,1.742,3.89,3.884C1194.777-74.054,1193.031-72.312,1190.887-72.312"/>
<path fill="#676767" d="M15.48,5.823c-4.144,0-7.5,3.357-7.5,7.5s3.356,7.5,7.5,7.5c4.143,0,7.5-3.357,7.5-7.5
	S19.622,5.823,15.48,5.823 M15.48,20.221c-3.805,0-6.899-3.094-6.899-6.898s3.095-6.9,6.899-6.9s6.899,3.095,6.899,6.9
	S19.284,20.221,15.48,20.221"/>
<polygon fill="#676767" points="19.98,11.759 19.559,11.337 15.49,15.407 11.42,11.337 11,11.759 15.49,16.249 "/>
<g opacity="0.66">
	<g>
		<defs>
			<rect id="SVGID_3_" x="-76.643" y="-485.237" width="197.853" height="30.87"/>
		</defs>
		<clipPath id="SVGID_4_">
			<use xlink:href="#SVGID_3_"  overflow="visible"/>
		</clipPath>
		<path clip-path="url(#SVGID_4_)" fill="#999999" d="M-62.315-464.835l-1.32-3.264h-7.776l-1.32,3.264h-3.912l7.296-16.8h3.912
			l7.176,16.8H-62.315z M-70.163-471.147h5.304l-2.64-6.528L-70.163-471.147z M-44.891-477.747v12.912h-3.672v-2.28
			c-0.88,1.617-2.32,2.424-4.32,2.424c-1.424,0-2.556-0.444-3.396-1.332s-1.26-2.092-1.26-3.612v-8.112h3.696v7.056
			c0,0.816,0.216,1.456,0.648,1.92c0.432,0.464,1.024,0.696,1.776,0.696c0.88-0.016,1.576-0.328,2.088-0.936
			c0.512-0.608,0.768-1.392,0.768-2.352v-6.384H-44.891z M-33.323-465.555c-0.48,0.288-1.012,0.508-1.596,0.66
			c-0.584,0.152-1.172,0.228-1.764,0.228c-1.2,0-2.176-0.344-2.928-1.032c-0.752-0.688-1.128-1.671-1.128-2.952v-5.976h-1.8v-2.544
			h1.8v-3.552h3.672v3.552h3.504v2.568h-3.504v5.328c0,0.992,0.392,1.488,1.176,1.488c0.543,0,1.144-0.16,1.8-0.48L-33.323-465.555z
			 M-25.355-477.867c1.36,0,2.564,0.272,3.612,0.816c1.048,0.544,1.86,1.312,2.436,2.304c0.576,0.992,0.864,2.145,0.864,3.456
			c0,1.296-0.288,2.444-0.864,3.444c-0.576,1-1.388,1.776-2.436,2.328c-1.048,0.552-2.252,0.828-3.612,0.828
			c-1.376,0-2.588-0.276-3.636-0.828c-1.048-0.552-1.86-1.328-2.436-2.328s-0.864-2.148-0.864-3.444
			c0-1.312,0.288-2.464,0.864-3.456c0.576-0.992,1.388-1.76,2.436-2.304C-27.943-477.595-26.731-477.867-25.355-477.867
			L-25.355-477.867z M-25.355-474.795c-0.96,0-1.74,0.328-2.34,0.984c-0.6,0.656-0.9,1.512-0.9,2.568c0,1.056,0.3,1.912,0.9,2.568
			s1.38,0.984,2.34,0.984c0.944,0,1.716-0.328,2.316-0.984c0.6-0.656,0.9-1.512,0.9-2.568c0-1.056-0.3-1.912-0.9-2.568
			C-23.639-474.467-24.411-474.795-25.355-474.795L-25.355-474.795z M-10.307-481.635h4.224l5.232,10.32l5.184-10.32h4.2v16.8H5.125
			v-11.352l-4.776,9.648h-2.448l-4.8-9.648v11.352h-3.408V-481.635z M18.013-477.867c1.359,0,2.563,0.272,3.611,0.816
			s1.86,1.312,2.437,2.304c0.576,0.992,0.864,2.145,0.864,3.456c0,1.296-0.288,2.444-0.864,3.444s-1.389,1.776-2.437,2.328
			c-1.048,0.552-2.252,0.828-3.611,0.828c-1.377,0-2.588-0.276-3.637-0.828c-1.047-0.552-1.859-1.328-2.436-2.328
			s-0.863-2.148-0.863-3.444c0-1.312,0.287-2.464,0.863-3.456c0.576-0.992,1.389-1.76,2.436-2.304
			C15.425-477.595,16.636-477.867,18.013-477.867L18.013-477.867z M18.013-474.795c-0.96,0-1.74,0.328-2.34,0.984
			c-0.6,0.656-0.9,1.512-0.9,2.568c0,1.056,0.301,1.912,0.9,2.568s1.38,0.984,2.34,0.984c0.943,0,1.716-0.328,2.316-0.984
			c0.6-0.656,0.899-1.512,0.899-2.568c0-1.056-0.3-1.912-0.899-2.568C19.729-474.467,18.956-474.795,18.013-474.795L18.013-474.795z
			 M35.365-465.555c-0.479,0.288-1.012,0.508-1.596,0.66s-1.172,0.228-1.764,0.228c-1.2,0-2.177-0.344-2.929-1.032
			c-0.752-0.688-1.128-1.671-1.128-2.952v-5.976h-1.8v-2.544h1.8v-3.552h3.672v3.552h3.504v2.568H31.62v5.328
			c0,0.992,0.393,1.488,1.177,1.488c0.543,0,1.144-0.16,1.8-0.48L35.365-465.555z M43.332-477.867c1.36,0,2.564,0.272,3.612,0.816
			s1.86,1.312,2.436,2.304c0.576,0.992,0.864,2.145,0.864,3.456c0,1.296-0.288,2.444-0.864,3.444c-0.575,1-1.388,1.776-2.436,2.328
			c-1.048,0.552-2.252,0.828-3.612,0.828c-1.376,0-2.588-0.276-3.636-0.828c-1.048-0.552-1.86-1.328-2.436-2.328
			c-0.576-1-0.864-2.148-0.864-3.444c0-1.312,0.288-2.464,0.864-3.456c0.575-0.992,1.388-1.76,2.436-2.304
			S41.956-477.867,43.332-477.867L43.332-477.867z M43.332-474.795c-0.96,0-1.739,0.328-2.34,0.984
			c-0.6,0.656-0.899,1.512-0.899,2.568c0,1.056,0.3,1.912,0.899,2.568c0.601,0.656,1.38,0.984,2.34,0.984
			c0.944,0,1.716-0.328,2.316-0.984c0.6-0.656,0.899-1.512,0.899-2.568c0-1.056-0.3-1.912-0.899-2.568
			C45.048-474.467,44.277-474.795,43.332-474.795L43.332-474.795z M58.38-481.635h4.225l5.231,10.32l5.185-10.32h4.199v16.8h-3.407
			v-11.352l-4.776,9.648h-2.448l-4.8-9.648v11.352H58.38V-481.635z M88.357-464.835v-1.512c-0.433,0.544-0.992,0.96-1.681,1.248
			c-0.688,0.288-1.479,0.432-2.376,0.432c-1.359,0-2.439-0.372-3.239-1.116c-0.801-0.744-1.2-1.716-1.2-2.916
			c0-1.215,0.428-2.164,1.284-2.844c0.855-0.68,2.067-1.028,3.636-1.044h3.552v-0.24c0-0.688-0.228-1.22-0.684-1.596
			s-1.124-0.564-2.004-0.564c-1.2,0-2.48,0.376-3.841,1.128l-1.151-2.544c1.023-0.512,1.983-0.888,2.88-1.128
			c0.896-0.24,1.88-0.36,2.952-0.36c1.728,0,3.067,0.408,4.02,1.224s1.437,1.952,1.452,3.408l0.024,8.424H88.357z M85.332-467.307
			c0.769,0,1.432-0.184,1.992-0.552c0.56-0.368,0.896-0.832,1.008-1.392v-1.152h-2.904c-0.72,0-1.252,0.116-1.596,0.348
			s-0.516,0.604-0.516,1.116c0,0.496,0.18,0.892,0.54,1.188C84.216-467.455,84.708-467.307,85.332-467.307L85.332-467.307z
			 M107.437-477.747v12.912h-3.673v-2.28c-0.88,1.617-2.319,2.424-4.319,2.424c-1.425,0-2.557-0.444-3.396-1.332
			s-1.26-2.092-1.26-3.612v-8.112h3.696v7.056c0,0.816,0.216,1.456,0.647,1.92c0.432,0.464,1.023,0.696,1.776,0.696
			c0.88-0.016,1.575-0.328,2.088-0.936c0.512-0.608,0.768-1.392,0.768-2.352v-6.384H107.437z M119.149-473.955
			c-0.704-0.399-1.4-0.708-2.089-0.924c-0.688-0.216-1.304-0.324-1.848-0.324c-0.448,0-0.808,0.081-1.08,0.24
			c-0.271,0.16-0.408,0.4-0.408,0.72c0,0.353,0.185,0.624,0.553,0.816c0.367,0.192,0.968,0.408,1.8,0.648
			c0.912,0.272,1.664,0.54,2.256,0.804s1.104,0.656,1.536,1.176s0.648,1.204,0.648,2.052c0,1.28-0.492,2.276-1.477,2.988
			s-2.244,1.068-3.78,1.068c-1.056,0-2.072-0.156-3.048-0.468c-0.976-0.312-1.824-0.756-2.544-1.332l1.2-2.496
			c0.656,0.512,1.388,0.908,2.196,1.188c0.808,0.28,1.571,0.42,2.292,0.42c0.495,0,0.892-0.084,1.188-0.252s0.444-0.42,0.444-0.756
			c0-0.368-0.188-0.656-0.564-0.864s-0.979-0.432-1.812-0.672c-0.881-0.256-1.612-0.512-2.196-0.768
			c-0.584-0.256-1.084-0.644-1.5-1.164s-0.624-1.196-0.624-2.028c0-1.28,0.48-2.272,1.44-2.976s2.176-1.056,3.647-1.056
			c0.88,0,1.76,0.124,2.641,0.372c0.879,0.248,1.68,0.604,2.399,1.068L119.149-473.955L119.149-473.955z"/>
	</g>
</g>
<rect x="-1867.067" y="3.698" fill="none" width="1920" height="1080"/>
</svg>
