<?xml version="1.0" encoding="utf-8"?>
<!-- Generator: Adobe Illustrator 16.0.2, SVG Export Plug-In . SVG Version: 6.00 Build 0)  -->
<!DOCTYPE svg PUBLIC "-//W3C//DTD SVG 1.1//EN" "http://www.w3.org/Graphics/SVG/1.1/DTD/svg11.dtd">
<svg version="1.1" id="Layer_1" xmlns="http://www.w3.org/2000/svg" xmlns:xlink="http://www.w3.org/1999/xlink" x="0px" y="0px"
	 width="35px" height="34.5px" viewBox="-8.825 -9.927 35 34.5" enable-background="new -8.825 -9.927 35 34.5"
	 xml:space="preserve">
<g opacity="0.5">
	<g>
		<defs>
			<rect id="SVGID_1_" x="211.66" y="-308.038" width="91.82" height="14.403"/>
		</defs>
		<clipPath id="SVGID_2_">
			<use xlink:href="#SVGID_1_"  overflow="visible"/>
		</clipPath>
		<g clip-path="url(#SVGID_2_)">
			<text transform="matrix(1 0 0 1 211.6614 -298.5183)"><tspan x="0" y="0" fill="#666666" font-family="'Montserrat-SemiBold'" font-size="11.2">Pri</tspan><tspan x="15.635" y="0" fill="#666666" font-family="'Montserrat-SemiBold'" font-size="11.2">v</tspan><tspan x="21.694" y="0" fill="#666666" font-family="'Montserrat-SemiBold'" font-size="11.2">atni </tspan><tspan x="46.647" y="0" fill="#666666" font-family="'Montserrat-SemiBold'" font-size="11.2">k</tspan><tspan x="53.289" y="0" fill="#666666" font-family="'Montserrat-SemiBold'" font-size="11.2">orisnik</tspan></text>
		</g>
	</g>
</g>
<path fill="#FFFFFF" d="M15.527,12.147c-2.599,0-2.94-2.428-3.283-4.768c-0.37-2.541-0.713-4.91-3.568-4.91
	c-2.854,0-3.196,2.398-3.567,4.91c-0.343,2.34-0.686,4.768-3.282,4.768v-0.742c1.826,0,2.169-1.541,2.54-4.111
	c0.343-2.482,0.799-5.564,4.309-5.564c3.512,0,3.969,3.082,4.311,5.564c0.371,2.57,0.713,4.111,2.541,4.111V12.147"/>
<path fill="#FFFFFF" d="M8.676,13.745c-1.085,0-1.998-0.885-1.998-1.998H7.42c0,0.686,0.542,1.227,1.228,1.227
	c0.684,0,1.227-0.541,1.227-1.227h0.742C10.673,12.86,9.761,13.745,8.676,13.745"/>
<rect x="1.826" y="11.376" fill="#FFFFFF" width="13.701" height="0.799"/>
<path fill="#FFFFFF" d="M9.474,1.7c0,0.457-0.37,0.6-0.798,0.6c-0.428,0-0.799-0.172-0.799-0.6s0.371-0.799,0.799-0.799
	C9.104,0.901,9.474,1.243,9.474,1.7"/>
<path fill="#FFFFFF" d="M23.205,6.296c-1.313-1.143-1.532-2.168-0.782-3.654c0.183-0.359,0.196-0.777,0.041-1.146
	c-0.156-0.367-0.468-0.646-0.851-0.764c-1.565-0.484-2.117-1.303-1.972-2.916c0.035-0.396-0.106-0.785-0.389-1.068
	c-0.283-0.285-0.67-0.428-1.07-0.391c-1.615,0.145-2.432-0.406-2.914-1.971c-0.12-0.385-0.399-0.695-0.768-0.852
	c-0.367-0.156-0.783-0.143-1.145,0.041c-1.486,0.75-2.51,0.531-3.654-0.783C9.445-7.505,9.07-7.677,8.676-7.677
	S7.906-7.505,7.648-7.208C6.506-5.894,5.482-5.675,3.993-6.425C3.635-6.609,3.217-6.622,2.849-6.466
	C2.483-6.31,2.201-5.999,2.084-5.615C1.599-4.05,0.782-3.499-0.832-3.644c-0.398-0.035-0.786,0.105-1.07,0.391
	C-2.184-2.97-2.327-2.581-2.291-2.185c0.146,1.613-0.406,2.432-1.97,2.916c-0.385,0.117-0.695,0.396-0.852,0.764
	c-0.155,0.369-0.142,0.787,0.04,1.146c0.752,1.486,0.532,2.512-0.781,3.652c-0.299,0.26-0.47,0.635-0.47,1.029
	c0,0.393,0.171,0.768,0.469,1.027c1.314,1.143,1.534,2.166,0.782,3.652c-0.182,0.361-0.195,0.779-0.04,1.146
	c0.157,0.367,0.467,0.646,0.852,0.766c1.564,0.484,2.117,1.301,1.97,2.916c-0.036,0.396,0.107,0.785,0.389,1.068
	c0.284,0.283,0.67,0.428,1.07,0.391c1.614-0.145,2.432,0.406,2.916,1.971c0.118,0.385,0.399,0.695,0.766,0.85
	c0.368,0.156,0.785,0.143,1.144-0.039c1.487-0.752,2.512-0.531,3.654,0.783c0.259,0.297,0.634,0.469,1.028,0.469
	s0.769-0.172,1.027-0.469c1.145-1.314,2.167-1.535,3.654-0.783c0.359,0.182,0.775,0.195,1.145,0.039
	c0.368-0.154,0.647-0.465,0.766-0.852c0.484-1.563,1.298-2.117,2.916-1.969c0.396,0.035,0.787-0.107,1.07-0.391
	c0.282-0.283,0.424-0.672,0.389-1.068c-0.146-1.615,0.406-2.432,1.972-2.916c0.383-0.119,0.694-0.398,0.851-0.766
	c0.155-0.367,0.142-0.785-0.041-1.146c-0.75-1.486-0.531-2.51,0.782-3.652c0.3-0.26,0.47-0.635,0.47-1.027
	C23.675,6.928,23.505,6.553,23.205,6.296 M22.47,7.503h-0.002c-1.695,1.475-2.028,3.066-1.047,5.008
	c0.043,0.086,0.023,0.162,0.008,0.199s-0.057,0.104-0.148,0.131c-2.076,0.641-2.952,1.941-2.757,4.09
	c0.008,0.088-0.038,0.146-0.066,0.176c-0.026,0.025-0.087,0.072-0.174,0.064c-2.146-0.197-3.448,0.682-4.091,2.756
	c-0.028,0.094-0.094,0.135-0.131,0.15c-0.036,0.014-0.112,0.035-0.198-0.01c-1.942-0.98-3.534-0.648-5.008,1.049
	c-0.064,0.072-0.14,0.082-0.18,0.082c-0.041,0-0.117-0.01-0.179-0.082c-0.928-1.068-1.902-1.594-2.982-1.594
	c-0.635,0-1.308,0.182-2.027,0.545c-0.087,0.045-0.163,0.023-0.199,0.01c-0.036-0.016-0.103-0.057-0.131-0.15
	c-0.642-2.074-1.94-2.953-4.091-2.756c-0.089,0.008-0.146-0.039-0.174-0.064c-0.027-0.029-0.072-0.088-0.065-0.176
	c0.196-2.148-0.681-3.449-2.757-4.09c-0.093-0.027-0.133-0.094-0.148-0.131c-0.016-0.037-0.037-0.113,0.008-0.199
	c0.981-1.941,0.647-3.533-1.048-5.008C-5.19,7.44-5.199,7.362-5.199,7.323s0.01-0.117,0.082-0.178
	c1.695-1.477,2.029-3.068,1.048-5.01c-0.045-0.088-0.024-0.164-0.008-0.199c0.015-0.037,0.055-0.104,0.148-0.133
	c2.075-0.641,2.953-1.941,2.757-4.09C-1.179-2.372-1.135-2.431-1.108-2.46c0.028-0.027,0.086-0.072,0.174-0.066
	c2.151,0.197,3.449-0.68,4.09-2.756c0.029-0.094,0.096-0.133,0.132-0.148c0.036-0.016,0.112-0.035,0.199,0.008
	C5.429-4.443,7.02-4.775,8.496-6.47c0.062-0.072,0.138-0.084,0.179-0.084c0.04,0,0.116,0.012,0.18,0.084
	c1.474,1.695,3.065,2.027,5.008,1.047c0.088-0.043,0.162-0.023,0.198-0.008c0.037,0.016,0.103,0.055,0.133,0.148
	c0.641,2.076,1.943,2.951,4.089,2.758c0.088-0.01,0.147,0.037,0.174,0.064c0.028,0.029,0.074,0.088,0.066,0.174
	c-0.195,2.148,0.681,3.449,2.757,4.09c0.092,0.029,0.133,0.096,0.148,0.133c0.016,0.035,0.035,0.111-0.008,0.197
	c-0.981,1.943-0.648,3.535,1.049,5.012c0.07,0.061,0.082,0.139,0.082,0.178S22.54,7.44,22.47,7.503"/>
<path fill="#FFFFFF" d="M8.676-4.07C2.392-4.07-2.719,1.04-2.719,7.323c0,6.281,5.111,11.395,11.394,11.395
	c6.282,0,11.394-5.113,11.394-11.395C20.07,1.04,14.957-4.07,8.676-4.07 M8.676,17.593c-5.663,0-10.269-4.607-10.269-10.27
	S3.012-2.947,8.676-2.947c5.662,0,10.27,4.607,10.27,10.27S14.337,17.593,8.676,17.593"/>
<polygon fill="#FFFFFF" points="-213.136,178.01 -212.653,178.616 -220.487,185.014 -223.298,181.571 -222.693,181.089 
	-220.379,183.928 "/>
<path fill="#FFFFFF" d="M-220.51,185.249l-3.024-3.703l0.867-0.691l2.311,2.84l7.245-5.92l0.691,0.865L-220.51,185.249z
	 M-223.062,181.596l2.599,3.184l7.577-6.189l-0.275-0.346l-7.242,5.918l-2.315-2.842L-223.062,181.596z"/>
<path fill="#FFFFFF" d="M-209.333,181.239c0-4.814-3.918-8.73-8.73-8.73c-2.924,0-5.514,1.445-7.1,3.656h-8.92
	c-1.907,0-3.459,1.553-3.459,3.461v19.424c0,1.906,1.552,3.459,3.459,3.459h13.454c1.908,0,3.46-1.553,3.46-3.459v-9.125
	C-212.774,189.475-209.333,185.753-209.333,181.239 M-220.629,201.393h-13.454c-1.291,0-2.341-1.053-2.341-2.344v-19.424
	c0-1.293,1.05-2.344,2.341-2.344h8.24c-0.608,1.188-0.951,2.531-0.951,3.957c0,4.74,3.796,8.607,8.507,8.727v9.084
	C-218.287,200.341-219.337,201.393-220.629,201.393 M-218.063,188.852c-4.199,0-7.614-3.416-7.614-7.613
	c0-4.199,3.415-7.615,7.614-7.615c4.198,0,7.614,3.416,7.614,7.615C-210.449,185.436-213.865,188.852-218.063,188.852"/>
<path fill="#FFFFFF" d="M-234.894,181.76h7.016c0.308,0,0.558-0.25,0.558-0.559s-0.25-0.559-0.558-0.559h-7.016
	c-0.308,0-0.558,0.25-0.558,0.559S-235.202,181.76-234.894,181.76"/>
<path fill="#FFFFFF" d="M-234.894,185.014h7.612c0.309,0,0.559-0.25,0.559-0.559s-0.25-0.559-0.559-0.559h-7.612
	c-0.308,0-0.558,0.25-0.558,0.559S-235.202,185.014-234.894,185.014"/>
<path fill="#FFFFFF" d="M-234.894,188.268h9.403c0.309,0,0.559-0.25,0.559-0.559s-0.25-0.559-0.559-0.559h-9.403
	c-0.308,0-0.558,0.25-0.558,0.559S-235.202,188.268-234.894,188.268"/>
<path fill="#FFFFFF" d="M-220.115,190.405h-14.778c-0.308,0-0.558,0.25-0.558,0.561c0,0.307,0.25,0.557,0.558,0.557h14.778
	c0.308,0,0.559-0.25,0.559-0.557C-219.556,190.655-219.807,190.405-220.115,190.405"/>
<path fill="#FFFFFF" d="M-220.191,193.659h-14.703c-0.308,0-0.558,0.25-0.558,0.561c0,0.307,0.25,0.557,0.558,0.557h14.703
	c0.309,0,0.559-0.25,0.559-0.557C-219.632,193.909-219.882,193.659-220.191,193.659"/>
<path fill="#FFFFFF" d="M-220.191,196.915h-14.703c-0.308,0-0.558,0.248-0.558,0.557s0.25,0.559,0.558,0.559h14.703
	c0.309,0,0.559-0.25,0.559-0.559S-219.882,196.915-220.191,196.915"/>
<path fill="#FFFFFF" d="M-219.629,216.755h0.018c0.278,0.008,0.62,0.146,0.95,0.283l0.438,0.18l0.983,0.402
	c0.403,0.166,0.821,0.336,1.043,0.59c0.179,0.207,0.248,0.52,0.169,0.783c-0.024,0.084-0.068,0.189-0.113,0.299
	c-0.171,0.416-0.428,1.043-0.155,1.73c0.142,0.355,0.383,0.598,0.542,0.758l1.233,1.236c0.196,0.197,0.492,0.494,0.939,0.631
	c0.165,0.053,0.337,0.078,0.512,0.078c0.432,0,0.796-0.154,1.088-0.275c0.106-0.045,0.205-0.086,0.284-0.111
	c0.073-0.023,0.152-0.033,0.234-0.033c0.211,0,0.425,0.078,0.571,0.207c0.26,0.23,0.438,0.678,0.594,1.072
	c0.089,0.225,0.179,0.449,0.268,0.672c0.175,0.441,0.357,0.896,0.532,1.344c0.101,0.262,0.122,0.436-0.123,0.881
	c-0.006,0.012-0.015,0.025-0.038,0.047c-0.092,0.088-0.285,0.178-0.473,0.268c-0.506,0.238-1.352,0.637-1.526,1.705
	c-0.068,0.418-0.043,0.811-0.022,1.158c0.01,0.152,0.019,0.297,0.019,0.43c0,0.076-0.007,0.168-0.015,0.268
	c-0.03,0.375-0.075,0.943,0.258,1.494c0.405,0.672,1.119,0.918,1.641,1.098c0.094,0.033,0.185,0.064,0.263,0.094
	c0.078,0.242,0.126,0.766,0.095,0.988c-0.081,0.576-0.373,1.152-0.683,1.762c-0.049,0.1-0.099,0.197-0.148,0.295
	c-0.388,0.775-0.793,1.17-1.204,1.17c-0.013,0-0.027,0-0.039,0c-0.081-0.004-0.263-0.09-0.409-0.158
	c-0.318-0.145-0.711-0.328-1.199-0.328h-0.027c-1.39,0.02-3.068,2.105-3.273,3.084c-0.15,0.727,0.153,1.367,0.374,1.836
	c0.042,0.094,0.084,0.182,0.119,0.262c-0.137,0.27-0.614,0.758-0.819,0.877c-0.3,0.168-0.661,0.283-1.044,0.406
	c-0.317,0.104-0.645,0.209-0.976,0.355c-0.302,0.133-0.577,0.203-0.797,0.203c-0.231,0-0.339-0.076-0.414-0.148
	c-0.144-0.139-0.266-0.35-0.406-0.594c-0.222-0.387-0.498-0.867-0.993-1.234c-0.479-0.355-1.008-0.355-1.234-0.355
	c-0.042,0-0.084,0-0.127,0c-0.034,0.002-0.068,0.002-0.102,0.002h-0.494h-0.584c-0.04,0-0.08,0-0.121,0
	c-0.049,0-0.1-0.002-0.151-0.002c-0.385,0-0.835,0.033-1.256,0.273c-0.416,0.238-0.647,0.633-0.785,0.906
	c-0.403,0.803-0.668,1.211-0.994,1.211c-0.106,0-0.234-0.027-0.382-0.082c-0.202-0.074-0.422-0.148-0.654-0.225
	c-0.69-0.232-1.471-0.494-2.044-0.865c-0.638-0.416-0.709-0.773-0.7-1.039c0.008-0.207,0.07-0.377,0.148-0.594
	c0.188-0.52,0.473-1.305-0.28-2.352c-0.784-1.086-1.563-1.705-2.382-1.895c-0.136-0.031-0.275-0.047-0.413-0.047
	c-0.509,0-0.905,0.209-1.194,0.363c-0.094,0.049-0.234,0.123-0.294,0.137c-0.01-0.004-0.031-0.01-0.066-0.021
	c-0.321-0.107-0.734-0.303-0.883-0.613c-0.306-0.641-0.595-1.246-0.832-1.873c-0.155-0.412-0.306-0.889-0.26-1.305
	c0.026-0.225,0.107-0.463,0.528-0.684c0.068-0.035,0.143-0.07,0.224-0.109c0.438-0.205,1.171-0.547,1.388-1.484
	c0.133-0.574,0.097-1.197,0.066-1.744c-0.012-0.221-0.025-0.428-0.024-0.607c0-0.215,0-0.541-0.141-0.879
	c-0.299-0.717-0.96-0.963-1.398-1.125c-0.135-0.049-0.274-0.1-0.355-0.148c-0.185-0.107-0.312-0.406-0.308-0.725
	c0.004-0.387,0.153-1.297,1.103-3.033c0.168-0.307,0.359-0.463,0.938-0.463c0.281,0,0.598,0.037,0.933,0.078l0.066,0.008
	c0.14,0.016,0.28,0.025,0.416,0.025c0.816,0,1.551-0.297,2.123-0.859c0.409-0.4,1.7-1.822,1.156-3.281
	c-0.06-0.16-0.119-0.289-0.166-0.391c-0.024-0.051-0.055-0.119-0.067-0.15c0.002-0.012,0.004-0.033,0.012-0.068
	c0.078-0.344,0.191-0.568,0.356-0.707c0.24-0.199,0.586-0.34,0.951-0.49l1.4-0.57c0.327-0.133,0.666-0.271,0.941-0.279h0.019
	c0.324,0,0.661,0.211,0.801,0.498c0.034,0.066,0.069,0.156,0.106,0.25c0.162,0.41,0.408,1.029,1.088,1.314
	c0.332,0.141,0.648,0.141,0.857,0.141l1.947,0.002h0.01c0.191,0,0.508,0,0.834-0.135c0.688-0.285,0.938-0.91,1.103-1.324
	c0.038-0.094,0.073-0.184,0.106-0.25C-220.287,216.964-219.95,216.755-219.629,216.755 M-223.465,239.403
	c4.814,0,8.73-3.908,8.73-8.717c0-4.807-3.916-8.717-8.73-8.717c-4.813,0-8.729,3.91-8.729,8.717
	C-232.194,235.495-228.278,239.403-223.465,239.403 M-219.629,215.803c-0.683,0-1.351,0.414-1.652,1.025
	c-0.202,0.408-0.299,0.943-0.719,1.115c-0.148,0.063-0.312,0.064-0.472,0.064h-0.007l-1.95-0.002c-0.165,0-0.336,0-0.488-0.064
	c-0.414-0.176-0.51-0.701-0.708-1.107c-0.301-0.615-0.972-1.029-1.656-1.031c-0.014,0-0.029,0.002-0.043,0.002
	c-0.444,0.01-0.866,0.18-1.277,0.348c-0.467,0.191-0.932,0.381-1.398,0.57c-0.422,0.172-0.852,0.35-1.201,0.641
	c-0.38,0.316-0.571,0.762-0.676,1.23c-0.115,0.514,0.075,0.658,0.259,1.15c0.293,0.783-0.407,1.754-0.931,2.27
	c-0.41,0.402-0.91,0.586-1.458,0.586c-0.1,0-0.201-0.006-0.305-0.02c-0.377-0.043-0.753-0.09-1.11-0.09
	c-0.712,0-1.351,0.188-1.772,0.955c-0.519,0.949-1.209,2.385-1.22,3.48c-0.007,0.607,0.253,1.246,0.775,1.555
	c0.469,0.275,1.151,0.318,1.36,0.82c0.066,0.158,0.067,0.338,0.067,0.51c-0.001,0.662,0.131,1.496-0.018,2.139
	c-0.137,0.596-0.65,0.717-1.127,0.967c-0.576,0.303-0.955,0.752-1.031,1.418c-0.067,0.594,0.106,1.188,0.316,1.748
	c0.25,0.664,0.556,1.307,0.863,1.947c0.274,0.574,0.853,0.906,1.436,1.104c0.082,0.029,0.166,0.053,0.251,0.066
	c0.04,0.004,0.079,0.006,0.118,0.006c0.539,0,0.945-0.5,1.49-0.5c0.065,0,0.132,0.008,0.201,0.021
	c0.737,0.17,1.401,0.941,1.822,1.525c0.713,0.992-0.01,1.352-0.046,2.355c-0.07,1.945,2.623,2.539,4.019,3.055
	c0.264,0.098,0.499,0.141,0.711,0.141c0.943,0,1.41-0.873,1.844-1.736c0.092-0.184,0.223-0.4,0.408-0.506
	c0.228-0.131,0.512-0.148,0.783-0.148c0.094,0,0.185,0.002,0.272,0.002h0.004c0.358,0,0.716,0,1.074,0
	c0.077,0,0.153-0.002,0.229-0.002c0.235,0,0.465,0.018,0.667,0.168c0.612,0.455,0.773,1.236,1.307,1.75
	c0.31,0.299,0.684,0.414,1.073,0.414c0.396,0,0.808-0.121,1.18-0.285c0.685-0.301,1.446-0.434,2.103-0.803
	c0.417-0.234,1.498-1.293,1.306-1.871c-0.176-0.533-0.637-1.145-0.514-1.738c0.151-0.73,1.565-2.316,2.355-2.326h0.013
	c0.542,0,1.015,0.459,1.563,0.484c0.028,0.002,0.055,0.002,0.084,0.002c1.004,0,1.643-0.873,2.054-1.697
	c0.374-0.748,0.805-1.506,0.922-2.35c0.058-0.406-0.008-1.678-0.465-1.906c-0.505-0.256-1.335-0.355-1.662-0.895
	c-0.238-0.396-0.104-0.844-0.105-1.273c-0.001-0.475-0.087-0.961-0.01-1.434c0.148-0.898,1.154-0.904,1.715-1.434
	c0.084-0.08,0.158-0.172,0.218-0.281c0.328-0.598,0.414-1.066,0.175-1.682c-0.263-0.676-0.535-1.348-0.802-2.021
	c-0.206-0.521-0.427-1.064-0.848-1.436c-0.327-0.289-0.764-0.445-1.201-0.445c-0.174,0-0.349,0.025-0.516,0.076
	c-0.363,0.113-0.726,0.344-1.09,0.344c-0.077,0-0.154-0.01-0.23-0.033c-0.218-0.068-0.387-0.234-0.548-0.396
	c-0.41-0.412-0.821-0.824-1.232-1.236c-0.13-0.131-0.264-0.266-0.332-0.438c-0.181-0.455,0.155-0.936,0.296-1.406
	c0.171-0.574,0.028-1.229-0.366-1.68c-0.362-0.414-0.889-0.635-1.397-0.844c-0.474-0.195-0.947-0.391-1.421-0.582
	c-0.415-0.172-0.841-0.344-1.289-0.355C-219.602,215.803-219.615,215.803-219.629,215.803 M-223.465,238.454
	c-4.289,0-7.778-3.484-7.778-7.768s3.489-7.766,7.778-7.766c4.29,0,7.779,3.482,7.779,7.766S-219.175,238.454-223.465,238.454"/>
<path fill="#FFFFFF" d="M-228.806,101.897c-2.114,0.244-3.267,1.078-3.862,1.735c-0.228,0.253-0.285,0.599-0.15,0.902
	c0.15,0.339,0.507,0.558,0.911,0.558h3.226c0.542,0,0.983-0.4,0.983-0.893v-1.417c0-0.243-0.105-0.47-0.293-0.638
	C-228.202,101.957-228.506,101.864-228.806,101.897 M-228.373,104.2c0,0.115-0.144,0.218-0.308,0.218h-3.226
	c-0.135,0-0.253-0.063-0.295-0.155c-0.026-0.063-0.015-0.121,0.035-0.177c0.517-0.571,1.533-1.298,3.438-1.519
	c0.015-0.002,0.031-0.002,0.046-0.002c0.093,0,0.183,0.031,0.243,0.084c0.03,0.027,0.067,0.072,0.067,0.134V104.2z"/>
<path fill="#FFFFFF" d="M-225.105,105.643c-0.11-0.04-0.229-0.034-0.335,0.017c-0.336,0.159-0.694,0-0.694,0
	c-0.216-0.103-0.478-0.013-0.583,0.203c-0.106,0.218-0.015,0.479,0.2,0.585c0.014,0.006,0.325,0.159,0.746,0.159
	c0.25,0,0.487-0.054,0.705-0.157c0.219-0.103,0.312-0.365,0.209-0.582C-224.907,105.762-224.995,105.682-225.105,105.643"/>
<path fill="#FFFFFF" d="M-208.243,99.329c0-4.051-3.294-7.344-7.344-7.344c-4.049,0-7.343,3.293-7.343,7.344
	c0,0.691,0.103,1.359,0.282,1.996c-0.065-0.026-0.127-0.055-0.194-0.078c-1.977-0.698-4.213-0.834-6.292-0.385
	c-1.122,0.244-2.187,0.65-3.22,1.046c-0.764,0.293-1.556,0.596-2.359,0.823c-0.229,0.064-0.478,0.119-0.718,0.17l-0.022,0.006
	c-0.466,0.101-0.946,0.205-1.408,0.398c-0.626,0.26-1.084,0.693-1.263,1.191l-0.042,0.044v0.088
	c-0.098,0.376-0.044,0.742,0.029,1.082c0.064,0.293,0.145,0.599,0.24,0.903l0.004,0.012c0.115,0.361,0.247,0.713,0.394,1.045
	c0.415,0.941,1.262,1.691,1.915,2.078c0.071,0.042,0.148,0.063,0.228,0.068c0.264,1.1,1.25,1.924,2.43,1.924
	c1.154,0,2.119-0.789,2.408-1.852c1.832,0.006,3.756,0.004,5.618,0h0.62c1.2-0.002,2.404-0.004,3.605,0
	c0.29,1.063,1.254,1.852,2.409,1.852c1.095,0,2.018-0.711,2.358-1.692c0.008,0,0.011,0.001,0.011,0.001
	c0.022,0,0.037-0.001,0.05-0.003c0.015,0.002,0.031,0.003,0.049,0.003h0.107c0.616-0.001,1.198-0.023,1.557-0.288
	c0.422-0.311,0.49-0.93,0.541-1.379l0.004-0.034c0.011-0.099,0.023-0.199,0.035-0.256c0.095-0.432,0.209-0.865,0.339-1.285
	l0.013-0.039c0.051-0.162,0.094-0.351,0.122-0.547C-210.264,105.194-208.243,102.496-208.243,99.329 M-220.868,104.418h-5.789
	c-0.092,0-0.171-0.067-0.171-0.147v-1.513c0-0.104,0.088-0.192,0.203-0.206c0.178-0.019,0.359-0.027,0.543-0.027
	c1.6,0,3.404,0.677,4.677,1.267C-221.237,104.009-221.06,104.219-220.868,104.418 M-232.926,111.065c-1.009,0-1.83-0.82-1.83-1.83
	s0.821-1.83,1.83-1.83c1.01,0,1.831,0.82,1.831,1.83S-231.916,111.065-232.926,111.065 M-218.266,111.065
	c-1.01,0-1.831-0.82-1.831-1.83s0.821-1.83,1.831-1.83c1.008,0,1.829,0.82,1.829,1.83S-217.258,111.065-218.266,111.065
	 M-213.845,106.563l-0.013,0.041c-0.136,0.441-0.255,0.894-0.354,1.344c-0.02,0.09-0.033,0.201-0.047,0.322l-0.004,0.035
	c-0.035,0.311-0.087,0.776-0.27,0.912c-0.211,0.155-0.827,0.156-1.157,0.156h-0.052c0.002-0.049,0.003-0.1,0.003-0.139
	c0-1.393-1.133-2.526-2.526-2.526c-1.385,0-2.514,1.122-2.526,2.504c-1.162-0.002-2.328,0-3.489,0.001l-0.62,0.001
	c-1.822,0.003-3.703,0.005-5.497-0.001l-0.002-0.007c-0.015-1.38-1.142-2.498-2.526-2.498c-1.326,0-2.417,1.028-2.518,2.329
	c-0.526-0.357-1.128-0.938-1.438-1.641c-0.137-0.31-0.261-0.638-0.366-0.971l-0.003-0.012c-0.091-0.289-0.167-0.574-0.227-0.848
	c-0.05-0.238-0.099-0.513-0.036-0.765l0.019-0.061c0.109-0.326,0.434-0.622,0.893-0.813c0.406-0.169,0.856-0.267,1.293-0.363
	l0.021-0.004c0.25-0.055,0.51-0.11,0.759-0.182c0.832-0.234,1.673-0.557,2.42-0.842c1.005-0.385,2.045-0.783,3.119-1.016
	c1.958-0.424,4.062-0.295,5.924,0.36c0.243,0.086,0.477,0.192,0.712,0.298c0.086,0.202,0.183,0.399,0.286,0.592
	c-1.398-0.56-3.122-1.055-4.63-0.892c-0.458,0.05-0.804,0.429-0.804,0.877v1.513c0,0.453,0.379,0.822,0.845,0.822h5.892
	c0.172,0,0.328-0.057,0.462-0.143c1.278,1.072,2.922,1.722,4.716,1.722c0.611,0,1.202-0.084,1.771-0.226
	C-213.828,106.487-213.832,106.52-213.845,106.563 M-215.587,105.665c-1.766,0-3.361-0.725-4.511-1.891
	c-0.028-0.035-0.057-0.068-0.091-0.1c-1.072-1.135-1.734-2.662-1.734-4.346c0-3.5,2.837-6.337,6.336-6.337
	c3.5,0,6.337,2.837,6.337,6.337C-209.25,102.828-212.087,105.665-215.587,105.665"/>
<path fill="#FFFFFF" d="M-215.581,101.634c-0.52,0-0.943,0.414-0.943,0.943c0,0.53,0.423,0.943,0.943,0.943
	c0.541,0,0.954-0.413,0.954-0.943C-214.627,102.048-215.04,101.634-215.581,101.634"/>
<path fill="#FFFFFF" d="M-215.592,95.135c-0.551,0-1.089,0.486-1.089,1.068l0.283,3.86c0,0.562,0.265,0.827,0.795,0.827
	c0.563,0,0.827-0.266,0.827-0.827l0.284-3.86C-214.491,95.622-215.04,95.135-215.592,95.135"/>
<path fill="#FFFFFF" d="M-221.319,129.455c1.355,0,2.454,0.997,2.454,2.228v9.672c0.032-0.001,0.064-0.001,0.096-0.001
	c0.282,0,0.564,0.026,0.839,0.081c0.415,0.107,1.111,0.468,1.111,1.697v11.854c-0.002,0.17,0.062,0.334,0.181,0.465
	c0.168,0.128,0.381,0.198,0.599,0.198c0.029,0,0.059-0.001,0.089-0.004c0.03,0.004,0.06,0.006,0.09,0.006
	c0.161,0,0.316-0.058,0.43-0.162c0.147-0.219,0.201-0.478,0.155-0.731v-0.088v-15.23h-0.059c-0.232,0-0.419-0.17-0.419-0.381v-1.188
	c0-0.21,0.187-0.381,0.419-0.381c-0.132-0.252-0.322-0.475-0.558-0.654l0.214-0.195l-2.252-2.053l0.419-0.379l2.253,2.051
	l0.243-0.221c0.68,0.617,0.889,1.021,0.944,1.443h0.087c0.221,0.008,0.397,0.17,0.404,0.37v1.194c0,0.211-0.189,0.381-0.42,0.381
	h-0.075v15.179c0.094,0.555-0.056,1.122-0.42,1.575c-0.346,0.354-0.84,0.555-1.358,0.555c-0.032,0-0.065,0-0.097-0.002
	c-0.038,0.002-0.077,0.003-0.115,0.003c-0.552,0-1.085-0.199-1.479-0.556c-0.341-0.35-0.521-0.805-0.503-1.271v-11.777
	c0-0.213-0.029-0.574-0.218-0.625c-0.171-0.027-0.344-0.043-0.517-0.043c-0.028,0-0.055,0.002-0.083,0.002v12.877v0.009
	c-0.002,1.229-1.1,2.224-2.454,2.224h-0.002h-12.072c-1.355,0-2.454-0.998-2.454-2.229v-23.664c0-1.23,1.099-2.228,2.454-2.228
	H-221.319 M-221.319,128.514h-12.074c-1.872,0-3.393,1.422-3.393,3.168v23.664c0,1.748,1.521,3.168,3.393,3.168h12.071
	c1.327,0,2.478-0.713,3.037-1.75c0.022,0.025,0.045,0.049,0.068,0.072l0.021,0.021l0.022,0.02c0.568,0.516,1.318,0.799,2.109,0.799
	c0.038,0,0.077-0.002,0.116-0.002c0.032,0,0.064,0,0.096,0c0.77,0,1.51-0.305,2.031-0.836l0.032-0.033l0.029-0.037
	c0.51-0.637,0.735-1.447,0.625-2.235v-14.468c0.303-0.243,0.495-0.609,0.495-1.02v-1.194v-0.017v-0.014
	c-0.014-0.465-0.278-0.87-0.666-1.094c-0.188-0.456-0.529-0.889-1.076-1.385l-0.632-0.573l-0.242,0.219l-1.62-1.476l-0.632-0.576
	l-0.416,0.377v-1.631C-217.925,129.936-219.447,128.514-221.319,128.514 M-217.925,140.48v-4.616l0.851,0.775l-0.285,0.258
	l0.734,0.561c-0.044,0.129-0.069,0.269-0.069,0.412v1.188c0,0.402,0.186,0.763,0.479,1.006v1.607
	c-0.308-0.572-0.816-0.977-1.481-1.147l-0.027-0.006l-0.026-0.007C-217.807,140.501-217.865,140.489-217.925,140.48"/>
<path fill="#FFFFFF" d="M-223.058,131.878c1.024,0,1.855,0.83,1.855,1.854v2.315h-12.308v-2.315c0-1.024,0.83-1.854,1.854-1.854
	H-223.058 M-233.511,133.725v0.007V133.725 M-223.058,130.937h-8.599c-1.539,0-2.791,1.25-2.795,2.788v0.007v2.315v0.939h0.941
	h12.308h0.94v-0.939v-2.315C-220.263,132.191-221.517,130.937-223.058,130.937"/>
<path fill="#FFFFFF" d="M-221.202,139.069v2.637c-0.003,1.023-0.832,1.852-1.856,1.852h-8.599c-1.024,0-1.854-0.831-1.854-1.855
	v-2.633H-221.202 M-220.263,138.129h-0.939h-12.309h-0.94v0.94v2.633c0,1.541,1.253,2.795,2.794,2.795h8.599
	c1.538,0,2.792-1.25,2.795-2.788v-2.64V138.129z"/>
<path fill="#676767" d="M1192.805-83.161h0.009c0.139,0.003,0.31,0.073,0.476,0.141l0.219,0.09l0.491,0.201
	c0.201,0.083,0.41,0.168,0.521,0.295c0.09,0.103,0.124,0.261,0.085,0.392c-0.013,0.042-0.034,0.094-0.057,0.149
	c-0.085,0.208-0.214,0.521-0.077,0.866c0.07,0.177,0.191,0.298,0.27,0.378l0.617,0.619c0.099,0.098,0.246,0.246,0.469,0.316
	c0.082,0.025,0.168,0.038,0.257,0.038c0.216,0,0.398-0.076,0.545-0.138c0.052-0.022,0.102-0.043,0.142-0.055
	c0.036-0.011,0.076-0.017,0.117-0.017c0.105,0,0.212,0.039,0.285,0.104c0.13,0.114,0.219,0.338,0.297,0.536
	c0.045,0.112,0.089,0.224,0.134,0.336c0.088,0.22,0.179,0.448,0.265,0.672c0.052,0.131,0.063,0.217-0.06,0.44
	c-0.003,0.005-0.008,0.012-0.02,0.024c-0.046,0.043-0.143,0.088-0.236,0.133c-0.253,0.119-0.676,0.319-0.763,0.853
	c-0.034,0.208-0.022,0.405-0.012,0.579c0.004,0.076,0.01,0.148,0.01,0.215c0,0.037-0.004,0.084-0.008,0.133
	c-0.015,0.188-0.037,0.472,0.129,0.748c0.203,0.336,0.561,0.459,0.82,0.549c0.048,0.016,0.093,0.031,0.133,0.046
	c0.038,0.121,0.063,0.383,0.047,0.495c-0.041,0.288-0.187,0.576-0.342,0.88c-0.024,0.05-0.05,0.099-0.074,0.148
	c-0.193,0.388-0.396,0.585-0.602,0.585c-0.007,0-0.013-0.001-0.013-0.001c-0.047-0.002-0.139-0.044-0.212-0.078
	c-0.158-0.073-0.355-0.165-0.599-0.165h-0.014c-0.695,0.01-1.534,1.053-1.636,1.542c-0.076,0.363,0.074,0.684,0.186,0.919
	c0.022,0.046,0.043,0.09,0.06,0.13c-0.068,0.135-0.307,0.379-0.408,0.438c-0.15,0.084-0.331,0.143-0.522,0.205
	c-0.158,0.05-0.324,0.104-0.488,0.176c-0.15,0.067-0.288,0.101-0.398,0.101c-0.115,0-0.169-0.037-0.207-0.073
	c-0.072-0.069-0.133-0.175-0.203-0.297c-0.111-0.193-0.249-0.433-0.496-0.616c-0.24-0.179-0.504-0.179-0.617-0.179
	c-0.021,0-0.042,0-0.063,0c-0.017,0.001-0.034,0.001-0.052,0.001h-0.246h-0.292c-0.02,0-0.04,0-0.061,0
	c-0.025-0.001-0.05-0.001-0.075-0.001c-0.192,0-0.419,0.017-0.629,0.138c-0.207,0.118-0.323,0.315-0.392,0.452
	c-0.202,0.402-0.335,0.606-0.498,0.606c-0.052,0-0.116-0.014-0.19-0.041c-0.102-0.038-0.211-0.075-0.327-0.114
	c-0.345-0.115-0.735-0.246-1.022-0.432c-0.318-0.207-0.354-0.386-0.35-0.519c0.004-0.103,0.035-0.189,0.074-0.297
	c0.094-0.259,0.236-0.652-0.141-1.175c-0.392-0.544-0.78-0.854-1.191-0.948c-0.067-0.015-0.137-0.023-0.205-0.023
	c-0.256,0-0.453,0.104-0.598,0.181c-0.047,0.024-0.117,0.062-0.146,0.068c-0.006-0.001-0.016-0.004-0.033-0.01
	c-0.16-0.054-0.367-0.151-0.441-0.307c-0.153-0.32-0.298-0.623-0.416-0.936c-0.078-0.206-0.153-0.445-0.13-0.652
	c0.013-0.113,0.054-0.232,0.263-0.342c0.035-0.018,0.073-0.036,0.113-0.054c0.219-0.104,0.586-0.275,0.693-0.744
	c0.066-0.287,0.049-0.598,0.033-0.872c-0.006-0.109-0.012-0.213-0.012-0.303c0-0.108,0-0.27-0.07-0.439
	c-0.15-0.359-0.48-0.482-0.699-0.562c-0.067-0.025-0.138-0.051-0.178-0.075c-0.092-0.054-0.155-0.203-0.154-0.362
	c0.002-0.194,0.077-0.648,0.552-1.517c0.084-0.153,0.179-0.231,0.47-0.231c0.14,0,0.298,0.019,0.466,0.038l0.032,0.004
	c0.071,0.008,0.141,0.013,0.208,0.013c0.409,0,0.776-0.149,1.063-0.429c0.204-0.201,0.851-0.912,0.578-1.641
	c-0.03-0.081-0.06-0.145-0.083-0.195c-0.012-0.026-0.028-0.06-0.033-0.076c0-0.006,0.002-0.017,0.006-0.034
	c0.038-0.172,0.095-0.284,0.178-0.353c0.12-0.1,0.292-0.171,0.476-0.245l0.699-0.285c0.163-0.067,0.333-0.137,0.471-0.14h0.01
	c0.162,0,0.33,0.105,0.401,0.249c0.016,0.034,0.033,0.078,0.052,0.124c0.082,0.205,0.205,0.515,0.544,0.658
	c0.166,0.07,0.324,0.07,0.43,0.07l0.974,0.001h0.005c0.095,0,0.253,0,0.416-0.067c0.345-0.143,0.469-0.455,0.552-0.662
	c0.019-0.047,0.037-0.092,0.054-0.126C1192.476-83.057,1192.644-83.161,1192.805-83.161 M1190.887-71.836
	c2.407,0,4.365-1.956,4.365-4.359c0-2.404-1.958-4.359-4.365-4.359c-2.406,0-4.365,1.955-4.365,4.359
	C1186.522-73.792,1188.481-71.836,1190.887-71.836 M1192.805-83.637c-0.341,0-0.675,0.207-0.826,0.513
	c-0.101,0.204-0.149,0.471-0.36,0.558c-0.073,0.03-0.155,0.031-0.234,0.031h-0.004h-0.975c-0.083,0-0.168-0.001-0.244-0.033
	c-0.209-0.087-0.256-0.351-0.354-0.553c-0.15-0.308-0.485-0.516-0.828-0.516c0,0-0.015,0.001-0.021,0.001
	c-0.222,0.005-0.433,0.091-0.639,0.174c-0.232,0.095-0.466,0.191-0.7,0.286c-0.211,0.086-0.424,0.174-0.6,0.32
	c-0.189,0.157-0.285,0.38-0.337,0.614c-0.059,0.258,0.037,0.33,0.129,0.575c0.146,0.393-0.203,0.877-0.466,1.135
	c-0.205,0.201-0.455,0.293-0.729,0.293c-0.049,0-0.1-0.003-0.151-0.009c-0.188-0.022-0.376-0.045-0.555-0.045
	c-0.356,0-0.676,0.093-0.887,0.478c-0.259,0.474-0.604,1.192-0.609,1.74c-0.004,0.303,0.126,0.623,0.388,0.777
	c0.233,0.138,0.574,0.159,0.68,0.41c0.033,0.079,0.033,0.169,0.033,0.255c0,0.332,0.065,0.748-0.009,1.069
	c-0.068,0.298-0.325,0.359-0.563,0.484c-0.288,0.151-0.478,0.375-0.516,0.709c-0.033,0.297,0.053,0.594,0.157,0.873
	c0.126,0.333,0.279,0.654,0.433,0.974c0.137,0.287,0.426,0.454,0.718,0.552c0.041,0.014,0.083,0.027,0.126,0.033
	c0.02,0.002,0.039,0.003,0.059,0.003c0.269,0,0.473-0.25,0.745-0.25c0.032,0,0.065,0.004,0.1,0.012
	c0.369,0.084,0.701,0.469,0.911,0.762c0.357,0.496-0.005,0.676-0.022,1.177c-0.036,0.973,1.312,1.27,2.008,1.527
	c0.134,0.049,0.25,0.071,0.356,0.071c0.472,0,0.705-0.436,0.923-0.868c0.046-0.092,0.111-0.2,0.203-0.253
	c0.115-0.066,0.257-0.074,0.393-0.074c0.046,0,0.092,0.001,0.136,0.001h0.002c0.179,0,0.357-0.001,0.537-0.001
	c0.038,0,0.075-0.001,0.114-0.001c0.118,0,0.232,0.01,0.334,0.085c0.306,0.227,0.386,0.618,0.652,0.874
	c0.155,0.15,0.343,0.207,0.537,0.207c0.198,0,0.404-0.06,0.59-0.142c0.343-0.15,0.723-0.217,1.052-0.401
	c0.208-0.117,0.749-0.647,0.653-0.936c-0.089-0.267-0.319-0.572-0.258-0.869c0.076-0.365,0.783-1.158,1.178-1.163h0.007
	c0.271,0,0.507,0.229,0.781,0.242c0.014,0.001,0.028,0.001,0.042,0.001c0.502,0,0.821-0.436,1.027-0.848
	c0.188-0.375,0.402-0.754,0.461-1.175c0.027-0.204-0.005-0.839-0.233-0.954c-0.252-0.127-0.667-0.177-0.83-0.447
	c-0.119-0.198-0.053-0.422-0.053-0.636c-0.001-0.238-0.043-0.481-0.005-0.717c0.073-0.45,0.577-0.452,0.856-0.718
	c0.042-0.039,0.08-0.085,0.109-0.139c0.164-0.299,0.207-0.534,0.088-0.842c-0.132-0.337-0.268-0.673-0.401-1.01
	c-0.103-0.261-0.213-0.532-0.423-0.718c-0.165-0.144-0.383-0.223-0.601-0.223c-0.088,0-0.175,0.013-0.258,0.039
	c-0.183,0.056-0.364,0.172-0.546,0.172c-0.038,0-0.076-0.006-0.115-0.017c-0.108-0.034-0.193-0.118-0.273-0.198
	c-0.205-0.206-0.411-0.412-0.616-0.618c-0.065-0.066-0.132-0.133-0.166-0.219c-0.091-0.228,0.077-0.468,0.148-0.704
	c0.085-0.286,0.014-0.614-0.184-0.84c-0.181-0.207-0.444-0.317-0.698-0.421c-0.237-0.098-0.474-0.195-0.711-0.292
	c-0.207-0.085-0.42-0.171-0.644-0.177H1192.805z M1190.887-72.312c-2.146,0-3.89-1.742-3.89-3.883c0-2.142,1.744-3.884,3.89-3.884
	c2.145,0,3.89,1.742,3.89,3.884C1194.777-74.054,1193.031-72.312,1190.887-72.312"/>
</svg>
