<?xml version="1.0" encoding="utf-8"?>
<!-- Generator: Adobe Illustrator 16.0.2, SVG Export Plug-In . SVG Version: 6.00 Build 0)  -->
<!DOCTYPE svg PUBLIC "-//W3C//DTD SVG 1.1//EN" "http://www.w3.org/Graphics/SVG/1.1/DTD/svg11.dtd">
<svg version="1.1" id="Layer_1" xmlns="http://www.w3.org/2000/svg" xmlns:xlink="http://www.w3.org/1999/xlink" x="0px" y="0px"
	 width="35px" height="34.5px" viewBox="-8.825 -9.927 35 34.5" enable-background="new -8.825 -9.927 35 34.5"
	 xml:space="preserve">
<g opacity="0.5">
	<g>
		<defs>
			<rect id="SVGID_1_" x="211.66" y="-308.038" width="91.82" height="14.403"/>
		</defs>
		<clipPath id="SVGID_2_">
			<use xlink:href="#SVGID_1_"  overflow="visible"/>
		</clipPath>
		<g clip-path="url(#SVGID_2_)">
			<text transform="matrix(1 0 0 1 211.6614 -298.5183)"><tspan x="0" y="0" fill="#666666" font-family="'Montserrat-SemiBold'" font-size="11.2">Pri</tspan><tspan x="15.635" y="0" fill="#666666" font-family="'Montserrat-SemiBold'" font-size="11.2">v</tspan><tspan x="21.694" y="0" fill="#666666" font-family="'Montserrat-SemiBold'" font-size="11.2">atni </tspan><tspan x="46.647" y="0" fill="#666666" font-family="'Montserrat-SemiBold'" font-size="11.2">k</tspan><tspan x="53.289" y="0" fill="#666666" font-family="'Montserrat-SemiBold'" font-size="11.2">orisnik</tspan></text>
		</g>
	</g>
</g>
<path fill="#FFFFFF" d="M12.483-6.726h0.019c0.277,0.008,0.619,0.146,0.949,0.283l0.438,0.18l0.983,0.402
	c0.402,0.166,0.82,0.336,1.043,0.59c0.179,0.207,0.248,0.52,0.168,0.783c-0.023,0.084-0.067,0.189-0.112,0.299
	c-0.171,0.416-0.429,1.043-0.155,1.73c0.143,0.355,0.383,0.598,0.542,0.758l1.233,1.236c0.195,0.197,0.492,0.494,0.938,0.631
	c0.165,0.053,0.337,0.078,0.513,0.078c0.432,0,0.795-0.154,1.088-0.275c0.105-0.045,0.205-0.086,0.283-0.111
	c0.073-0.023,0.152-0.033,0.234-0.033c0.211,0,0.426,0.078,0.571,0.207c0.26,0.23,0.438,0.678,0.594,1.072
	c0.089,0.225,0.179,0.449,0.269,0.672c0.174,0.441,0.356,0.896,0.531,1.344c0.102,0.262,0.122,0.436-0.123,0.881
	c-0.006,0.012-0.015,0.025-0.037,0.047c-0.093,0.088-0.285,0.178-0.474,0.268c-0.506,0.238-1.353,0.637-1.526,1.705
	c-0.067,0.418-0.043,0.811-0.021,1.158c0.01,0.152,0.02,0.297,0.02,0.43c0,0.076-0.008,0.168-0.016,0.268
	c-0.03,0.375-0.075,0.943,0.258,1.494c0.405,0.672,1.119,0.918,1.641,1.098c0.095,0.033,0.186,0.064,0.264,0.094
	c0.078,0.242,0.126,0.766,0.095,0.988c-0.081,0.576-0.373,1.152-0.683,1.762c-0.049,0.1-0.1,0.197-0.148,0.295
	c-0.388,0.775-0.793,1.17-1.203,1.17c-0.014,0-0.027,0-0.039,0c-0.082-0.004-0.264-0.09-0.41-0.158
	c-0.317-0.145-0.711-0.328-1.198-0.328h-0.027c-1.39,0.02-3.067,2.105-3.272,3.084c-0.15,0.727,0.152,1.367,0.373,1.836
	c0.043,0.094,0.084,0.182,0.119,0.262c-0.137,0.27-0.613,0.758-0.818,0.877c-0.301,0.168-0.661,0.283-1.045,0.406
	c-0.316,0.104-0.645,0.209-0.976,0.355c-0.302,0.133-0.577,0.203-0.797,0.203c-0.231,0-0.339-0.076-0.414-0.148
	c-0.144-0.139-0.266-0.35-0.405-0.594c-0.223-0.387-0.498-0.867-0.994-1.234c-0.479-0.355-1.008-0.355-1.233-0.355
	c-0.042,0-0.084,0-0.127,0c-0.034,0.002-0.067,0.002-0.103,0.002H8.797H8.213c-0.04,0-0.08,0-0.121,0
	c-0.049,0-0.1-0.002-0.151-0.002c-0.385,0-0.835,0.033-1.256,0.273c-0.416,0.238-0.647,0.633-0.785,0.906
	c-0.403,0.803-0.668,1.211-0.994,1.211c-0.106,0-0.234-0.027-0.382-0.082c-0.202-0.074-0.422-0.148-0.654-0.225
	c-0.69-0.232-1.471-0.494-2.044-0.865c-0.638-0.416-0.709-0.773-0.7-1.039c0.008-0.207,0.07-0.377,0.148-0.594
	c0.188-0.52,0.473-1.305-0.28-2.352C0.21,15.13-0.569,14.51-1.388,14.321c-0.136-0.031-0.275-0.047-0.413-0.047
	c-0.509,0-0.905,0.209-1.194,0.363c-0.094,0.049-0.234,0.123-0.294,0.137c-0.01-0.004-0.031-0.01-0.066-0.021
	c-0.321-0.107-0.734-0.303-0.883-0.613c-0.306-0.641-0.595-1.246-0.832-1.873c-0.155-0.412-0.306-0.889-0.26-1.305
	c0.026-0.225,0.107-0.463,0.528-0.684c0.068-0.035,0.143-0.07,0.224-0.109C-4.14,9.964-3.407,9.622-3.19,8.684
	C-3.057,8.11-3.093,7.487-3.124,6.94c-0.012-0.221-0.025-0.428-0.024-0.607c0-0.215,0-0.541-0.141-0.879
	c-0.299-0.717-0.96-0.963-1.398-1.125c-0.135-0.049-0.274-0.1-0.355-0.148C-5.227,4.073-5.354,3.774-5.35,3.456
	c0.004-0.387,0.153-1.297,1.103-3.033C-4.079,0.116-3.888-0.04-3.309-0.04c0.281,0,0.598,0.037,0.933,0.078l0.066,0.008
	c0.14,0.016,0.28,0.025,0.416,0.025c0.816,0,1.551-0.297,2.123-0.859c0.409-0.4,1.7-1.822,1.156-3.281
	C1.325-4.23,1.266-4.359,1.219-4.46c-0.024-0.051-0.055-0.119-0.067-0.15c0.002-0.012,0.004-0.033,0.012-0.068
	C1.242-5.023,1.355-5.247,1.52-5.386c0.24-0.199,0.586-0.34,0.951-0.49l1.4-0.57c0.327-0.133,0.666-0.271,0.941-0.279h0.019
	c0.324,0,0.661,0.211,0.801,0.498c0.034,0.066,0.069,0.156,0.106,0.25C5.9-5.568,6.146-4.948,6.826-4.663
	c0.332,0.141,0.648,0.141,0.857,0.141L9.63-4.521h0.01c0.191,0,0.508,0,0.834-0.135c0.688-0.285,0.938-0.91,1.104-1.324
	c0.037-0.094,0.072-0.184,0.105-0.25C11.825-6.517,12.161-6.726,12.483-6.726 M8.647,15.923c4.813,0,8.729-3.908,8.729-8.717
	c0-4.807-3.916-8.717-8.729-8.717c-4.813,0-8.729,3.91-8.729,8.717C-0.082,12.014,3.834,15.923,8.647,15.923 M12.483-7.677
	c-0.683,0-1.351,0.414-1.651,1.025c-0.203,0.408-0.299,0.943-0.72,1.115C9.964-5.474,9.8-5.472,9.64-5.472H9.632L7.683-5.474
	c-0.165,0-0.336,0-0.488-0.064C6.781-5.714,6.685-6.24,6.487-6.646C6.186-7.261,5.515-7.675,4.831-7.677
	c-0.014,0-0.029,0.002-0.043,0.002c-0.444,0.01-0.866,0.18-1.277,0.348c-0.467,0.191-0.932,0.381-1.398,0.57
	c-0.422,0.172-0.852,0.35-1.201,0.641C0.532-5.8,0.341-5.355,0.236-4.886c-0.115,0.514,0.075,0.658,0.259,1.15
	c0.293,0.783-0.407,1.754-0.931,2.27c-0.41,0.402-0.91,0.586-1.458,0.586c-0.1,0-0.201-0.006-0.305-0.02
	c-0.377-0.043-0.753-0.09-1.11-0.09c-0.712,0-1.351,0.188-1.772,0.955C-5.6,0.915-6.29,2.35-6.301,3.446
	c-0.007,0.607,0.253,1.246,0.775,1.555c0.469,0.275,1.151,0.318,1.36,0.82c0.066,0.158,0.067,0.338,0.067,0.51
	C-4.1,6.993-3.968,7.827-4.117,8.469c-0.137,0.596-0.65,0.717-1.127,0.967c-0.576,0.303-0.955,0.752-1.031,1.418
	c-0.067,0.594,0.106,1.188,0.316,1.748c0.25,0.664,0.556,1.307,0.863,1.947c0.274,0.574,0.853,0.906,1.436,1.104
	c0.082,0.029,0.166,0.053,0.251,0.066c0.04,0.004,0.079,0.006,0.118,0.006c0.539,0,0.945-0.5,1.49-0.5
	c0.065,0,0.132,0.008,0.201,0.021c0.737,0.17,1.401,0.941,1.822,1.525c0.713,0.992-0.01,1.352-0.046,2.355
	c-0.07,1.945,2.623,2.539,4.019,3.055c0.264,0.098,0.499,0.141,0.711,0.141c0.943,0,1.41-0.873,1.844-1.736
	c0.092-0.184,0.223-0.4,0.408-0.506c0.228-0.131,0.512-0.148,0.783-0.148c0.094,0,0.185,0.002,0.272,0.002h0.004
	c0.358,0,0.716,0,1.074,0c0.078,0,0.153-0.002,0.229-0.002c0.235,0,0.465,0.018,0.667,0.168c0.611,0.455,0.773,1.236,1.307,1.75
	c0.311,0.299,0.685,0.414,1.073,0.414c0.396,0,0.808-0.121,1.181-0.285c0.685-0.301,1.445-0.434,2.103-0.803
	c0.417-0.234,1.498-1.293,1.306-1.871c-0.176-0.533-0.637-1.145-0.514-1.738c0.15-0.73,1.564-2.316,2.355-2.326h0.013
	c0.542,0,1.015,0.459,1.563,0.484c0.027,0.002,0.055,0.002,0.084,0.002c1.004,0,1.643-0.873,2.053-1.697
	c0.375-0.748,0.806-1.506,0.922-2.35c0.059-0.406-0.008-1.678-0.465-1.906c-0.504-0.256-1.334-0.355-1.662-0.895
	c-0.237-0.396-0.104-0.844-0.104-1.273c-0.001-0.475-0.087-0.961-0.01-1.434c0.147-0.898,1.153-0.904,1.715-1.434
	c0.084-0.08,0.158-0.172,0.218-0.281c0.328-0.598,0.414-1.066,0.176-1.682c-0.264-0.676-0.535-1.348-0.803-2.021
	c-0.205-0.521-0.427-1.064-0.848-1.436c-0.327-0.289-0.764-0.445-1.201-0.445c-0.174,0-0.35,0.025-0.516,0.076
	c-0.363,0.113-0.727,0.344-1.09,0.344c-0.078,0-0.154-0.01-0.23-0.033c-0.218-0.068-0.387-0.234-0.548-0.396
	c-0.41-0.412-0.821-0.824-1.231-1.236C16.902-2.503,16.768-2.638,16.7-2.81c-0.182-0.455,0.154-0.936,0.295-1.406
	c0.172-0.574,0.028-1.229-0.365-1.68c-0.362-0.414-0.889-0.635-1.397-0.844c-0.474-0.195-0.946-0.391-1.421-0.582
	c-0.415-0.172-0.841-0.344-1.289-0.355C12.51-7.677,12.497-7.677,12.483-7.677 M8.647,14.973c-4.289,0-7.778-3.484-7.778-7.768
	S4.358-0.56,8.647-0.56c4.29,0,7.778,3.482,7.778,7.766S12.937,14.973,8.647,14.973"/>
<path fill="#676767" d="M1192.805-83.161h0.009c0.139,0.003,0.31,0.073,0.476,0.141l0.219,0.09l0.491,0.201
	c0.201,0.083,0.41,0.168,0.521,0.295c0.09,0.103,0.124,0.261,0.085,0.392c-0.013,0.042-0.034,0.094-0.057,0.149
	c-0.085,0.208-0.214,0.521-0.077,0.866c0.07,0.177,0.191,0.298,0.27,0.378l0.617,0.619c0.099,0.098,0.246,0.246,0.469,0.316
	c0.082,0.025,0.168,0.038,0.257,0.038c0.216,0,0.398-0.076,0.545-0.138c0.052-0.022,0.102-0.043,0.142-0.055
	c0.036-0.011,0.076-0.017,0.117-0.017c0.105,0,0.212,0.039,0.285,0.104c0.13,0.114,0.219,0.338,0.297,0.536
	c0.045,0.112,0.089,0.224,0.134,0.336c0.088,0.22,0.179,0.448,0.265,0.672c0.052,0.131,0.063,0.217-0.06,0.44
	c-0.003,0.005-0.008,0.012-0.02,0.024c-0.046,0.043-0.143,0.088-0.236,0.133c-0.253,0.119-0.676,0.319-0.763,0.853
	c-0.034,0.208-0.022,0.405-0.012,0.579c0.004,0.076,0.01,0.148,0.01,0.215c0,0.037-0.004,0.084-0.008,0.133
	c-0.015,0.188-0.037,0.472,0.129,0.748c0.203,0.336,0.561,0.459,0.82,0.549c0.048,0.016,0.093,0.031,0.133,0.046
	c0.038,0.121,0.063,0.383,0.047,0.495c-0.041,0.288-0.187,0.576-0.342,0.88c-0.024,0.05-0.05,0.099-0.074,0.148
	c-0.193,0.388-0.396,0.585-0.602,0.585c-0.007,0-0.013-0.001-0.013-0.001c-0.047-0.002-0.139-0.044-0.212-0.078
	c-0.158-0.073-0.355-0.165-0.599-0.165h-0.014c-0.695,0.01-1.534,1.053-1.636,1.542c-0.076,0.363,0.074,0.684,0.186,0.919
	c0.022,0.046,0.043,0.09,0.06,0.13c-0.068,0.135-0.307,0.379-0.408,0.438c-0.15,0.084-0.331,0.143-0.522,0.205
	c-0.158,0.05-0.324,0.104-0.488,0.176c-0.15,0.067-0.288,0.101-0.398,0.101c-0.115,0-0.169-0.037-0.207-0.073
	c-0.072-0.069-0.133-0.175-0.203-0.297c-0.111-0.193-0.249-0.433-0.496-0.616c-0.24-0.179-0.504-0.179-0.617-0.179
	c-0.021,0-0.042,0-0.063,0c-0.017,0.001-0.034,0.001-0.052,0.001h-0.246h-0.292c-0.02,0-0.04,0-0.061,0
	c-0.025-0.001-0.05-0.001-0.075-0.001c-0.192,0-0.419,0.017-0.629,0.138c-0.207,0.118-0.323,0.315-0.392,0.452
	c-0.202,0.402-0.335,0.606-0.498,0.606c-0.052,0-0.116-0.014-0.19-0.041c-0.102-0.038-0.211-0.075-0.327-0.114
	c-0.345-0.115-0.735-0.246-1.022-0.432c-0.318-0.207-0.354-0.386-0.35-0.519c0.004-0.103,0.035-0.189,0.074-0.297
	c0.094-0.259,0.236-0.652-0.141-1.175c-0.392-0.544-0.78-0.854-1.191-0.948c-0.067-0.015-0.137-0.023-0.205-0.023
	c-0.256,0-0.453,0.104-0.598,0.181c-0.047,0.024-0.117,0.062-0.146,0.068c-0.006-0.001-0.016-0.004-0.033-0.01
	c-0.16-0.054-0.367-0.151-0.441-0.307c-0.153-0.32-0.298-0.623-0.416-0.936c-0.078-0.206-0.153-0.445-0.13-0.652
	c0.013-0.113,0.054-0.232,0.263-0.342c0.035-0.018,0.073-0.036,0.113-0.054c0.219-0.104,0.586-0.275,0.693-0.744
	c0.066-0.287,0.049-0.598,0.033-0.872c-0.006-0.109-0.012-0.213-0.012-0.303c0-0.108,0-0.27-0.07-0.439
	c-0.15-0.359-0.48-0.482-0.699-0.562c-0.067-0.025-0.138-0.051-0.178-0.075c-0.092-0.054-0.155-0.203-0.154-0.362
	c0.002-0.194,0.077-0.648,0.552-1.517c0.084-0.153,0.179-0.231,0.47-0.231c0.14,0,0.298,0.019,0.466,0.038l0.032,0.004
	c0.071,0.008,0.141,0.013,0.208,0.013c0.409,0,0.776-0.149,1.063-0.429c0.204-0.201,0.851-0.912,0.578-1.641
	c-0.03-0.081-0.06-0.145-0.083-0.195c-0.012-0.026-0.028-0.06-0.033-0.076c0-0.006,0.002-0.017,0.006-0.034
	c0.038-0.172,0.095-0.284,0.178-0.353c0.12-0.1,0.292-0.171,0.476-0.245l0.699-0.285c0.163-0.067,0.333-0.137,0.471-0.14h0.01
	c0.162,0,0.33,0.105,0.401,0.249c0.016,0.034,0.033,0.078,0.052,0.124c0.082,0.205,0.205,0.515,0.544,0.658
	c0.166,0.07,0.324,0.07,0.43,0.07l0.974,0.001h0.005c0.095,0,0.253,0,0.416-0.067c0.345-0.143,0.469-0.455,0.552-0.662
	c0.019-0.047,0.037-0.092,0.054-0.126C1192.476-83.057,1192.644-83.161,1192.805-83.161 M1190.887-71.836
	c2.407,0,4.365-1.956,4.365-4.359c0-2.404-1.958-4.359-4.365-4.359c-2.406,0-4.365,1.955-4.365,4.359
	C1186.522-73.792,1188.481-71.836,1190.887-71.836 M1192.805-83.637c-0.341,0-0.675,0.207-0.826,0.513
	c-0.101,0.204-0.149,0.471-0.36,0.558c-0.073,0.03-0.155,0.031-0.234,0.031h-0.004h-0.975c-0.083,0-0.168-0.001-0.244-0.033
	c-0.209-0.087-0.256-0.351-0.354-0.553c-0.15-0.308-0.485-0.516-0.828-0.516c0,0-0.015,0.001-0.021,0.001
	c-0.222,0.005-0.433,0.091-0.639,0.174c-0.232,0.095-0.466,0.191-0.7,0.286c-0.211,0.086-0.424,0.174-0.6,0.32
	c-0.189,0.157-0.285,0.38-0.337,0.614c-0.059,0.258,0.037,0.33,0.129,0.575c0.146,0.393-0.203,0.877-0.466,1.135
	c-0.205,0.201-0.455,0.293-0.729,0.293c-0.049,0-0.1-0.003-0.151-0.009c-0.188-0.022-0.376-0.045-0.555-0.045
	c-0.356,0-0.676,0.093-0.887,0.478c-0.259,0.474-0.604,1.192-0.609,1.74c-0.004,0.303,0.126,0.623,0.388,0.777
	c0.233,0.138,0.574,0.159,0.68,0.41c0.033,0.079,0.033,0.169,0.033,0.255c0,0.332,0.065,0.748-0.009,1.069
	c-0.068,0.298-0.325,0.359-0.563,0.484c-0.288,0.151-0.478,0.375-0.516,0.709c-0.033,0.297,0.053,0.594,0.157,0.873
	c0.126,0.333,0.279,0.654,0.433,0.974c0.137,0.287,0.426,0.454,0.718,0.552c0.041,0.014,0.083,0.027,0.126,0.033
	c0.02,0.002,0.039,0.003,0.059,0.003c0.269,0,0.473-0.25,0.745-0.25c0.032,0,0.065,0.004,0.1,0.012
	c0.369,0.084,0.701,0.469,0.911,0.762c0.357,0.496-0.005,0.676-0.022,1.177c-0.036,0.973,1.312,1.27,2.008,1.527
	c0.134,0.049,0.25,0.071,0.356,0.071c0.472,0,0.705-0.436,0.923-0.868c0.046-0.092,0.111-0.2,0.203-0.253
	c0.115-0.066,0.257-0.074,0.393-0.074c0.046,0,0.092,0.001,0.136,0.001h0.002c0.179,0,0.357-0.001,0.537-0.001
	c0.038,0,0.075-0.001,0.114-0.001c0.118,0,0.232,0.01,0.334,0.085c0.306,0.227,0.386,0.618,0.652,0.874
	c0.155,0.15,0.343,0.207,0.537,0.207c0.198,0,0.404-0.06,0.59-0.142c0.343-0.15,0.723-0.217,1.052-0.401
	c0.208-0.117,0.749-0.647,0.653-0.936c-0.089-0.267-0.319-0.572-0.258-0.869c0.076-0.365,0.783-1.158,1.178-1.163h0.007
	c0.271,0,0.507,0.229,0.781,0.242c0.014,0.001,0.028,0.001,0.042,0.001c0.502,0,0.821-0.436,1.027-0.848
	c0.188-0.375,0.402-0.754,0.461-1.175c0.027-0.204-0.005-0.839-0.233-0.954c-0.252-0.127-0.667-0.177-0.83-0.447
	c-0.119-0.198-0.053-0.422-0.053-0.636c-0.001-0.238-0.043-0.481-0.005-0.717c0.073-0.45,0.577-0.452,0.856-0.718
	c0.042-0.039,0.08-0.085,0.109-0.139c0.164-0.299,0.207-0.534,0.088-0.842c-0.132-0.337-0.268-0.673-0.401-1.01
	c-0.103-0.261-0.213-0.532-0.423-0.718c-0.165-0.144-0.383-0.223-0.601-0.223c-0.088,0-0.175,0.013-0.258,0.039
	c-0.183,0.056-0.364,0.172-0.546,0.172c-0.038,0-0.076-0.006-0.115-0.017c-0.108-0.034-0.193-0.118-0.273-0.198
	c-0.205-0.206-0.411-0.412-0.616-0.618c-0.065-0.066-0.132-0.133-0.166-0.219c-0.091-0.228,0.077-0.468,0.148-0.704
	c0.085-0.286,0.014-0.614-0.184-0.84c-0.181-0.207-0.444-0.317-0.698-0.421c-0.237-0.098-0.474-0.195-0.711-0.292
	c-0.207-0.085-0.42-0.171-0.644-0.177H1192.805z M1190.887-72.312c-2.146,0-3.89-1.742-3.89-3.883c0-2.142,1.744-3.884,3.89-3.884
	c2.145,0,3.89,1.742,3.89,3.884C1194.777-74.054,1193.031-72.312,1190.887-72.312"/>
</svg>
