<svg width="13" height="13" viewBox="0 0 13 13" fill="none" xmlns="http://www.w3.org/2000/svg">
<path d="M12.3161 3.95747V0.401698C12.3142 0.371515 12.3092 0.341607 12.3012 0.312432V0.223166L12.2715 0.178533V0.148777C12.2397 0.101913 12.1993 0.0615217 12.1524 0.0297556H12.1227L12.0781 0H8.35863C8.24025 0 8.12673 0.0470244 8.04302 0.130728C7.95932 0.214431 7.9123 0.327957 7.9123 0.446332C7.9123 0.564706 7.95932 0.678232 8.04302 0.761936C8.12673 0.845639 8.24025 0.892663 8.35863 0.892663H10.7837L6.81135 4.83526C6.76019 4.87362 6.71787 4.92254 6.68726 4.97868C6.65666 5.03483 6.63847 5.09689 6.63394 5.16068C6.6294 5.22447 6.63863 5.28848 6.66099 5.34839C6.68335 5.4083 6.71832 5.46271 6.76354 5.50793C6.80876 5.55314 6.86316 5.58812 6.92307 5.61048C6.98298 5.63284 7.047 5.64206 7.11078 5.63753C7.17457 5.633 7.23664 5.61481 7.29278 5.5842C7.34893 5.55359 7.39784 5.51128 7.43621 5.46012L11.4234 1.48777V3.95747C11.4234 4.07585 11.4705 4.18937 11.5542 4.27308C11.6379 4.35678 11.7514 4.4038 11.8698 4.4038C11.9881 4.4038 12.1017 4.35678 12.1854 4.27308C12.2691 4.18937 12.3161 4.07585 12.3161 3.95747Z" fill="#323232"/>
<path d="M5.50475 6.76626C5.42132 6.68448 5.30915 6.63867 5.19232 6.63867C5.07549 6.63867 4.96332 6.68448 4.87989 6.76626L0.892663 10.7386V8.26891C0.892663 8.15053 0.845639 8.03701 0.761936 7.9533C0.678232 7.8696 0.564706 7.82258 0.446332 7.82258C0.327957 7.82258 0.214431 7.8696 0.130728 7.9533C0.0470244 8.03701 0 8.15053 0 8.26891V11.8247C0.00192205 11.8549 0.00690747 11.8848 0.0148783 11.9139V12.0032L0.0446329 12.0478V12.0776C0.0763991 12.1245 0.116792 12.1649 0.163655 12.1966H0.19341L0.238044 12.2264H3.95747C4.07585 12.2264 4.18937 12.1794 4.27308 12.0957C4.35678 12.0119 4.4038 11.8984 4.4038 11.78C4.4038 11.6617 4.35678 11.5481 4.27308 11.4644C4.18937 11.3807 4.07585 11.3337 3.95747 11.3337H1.5324L5.50475 7.39112C5.58653 7.30769 5.63234 7.19552 5.63234 7.07869C5.63234 6.96186 5.58653 6.84969 5.50475 6.76626Z" fill="#323232"/>
</svg>
