<svg width="32" height="32" viewBox="0 0 32 32" fill="none" xmlns="http://www.w3.org/2000/svg">
<path d="M25.791 15.4951L24.2463 13.9511C24.112 13.8195 23.9312 13.7462 23.7432 13.7471C23.5551 13.7481 23.3751 13.8232 23.2421 13.9562C23.1091 14.0891 23.034 14.2692 23.0331 14.4572C23.0321 14.6453 23.1054 14.8261 23.237 14.9604L23.5627 15.2859H19.851C19.6845 14.4064 19.2206 13.6109 18.5372 13.0328L20.3994 9.80788L20.5184 10.2524C20.5595 10.4041 20.6494 10.538 20.7741 10.6336C20.8988 10.7292 21.0514 10.7812 21.2085 10.7815C21.2707 10.7815 21.3326 10.7733 21.3926 10.7571C21.4832 10.733 21.5683 10.6913 21.6428 10.6343C21.7173 10.5773 21.7799 10.5062 21.8269 10.425C21.8739 10.3438 21.9044 10.2542 21.9168 10.1611C21.9291 10.0681 21.9229 9.97361 21.8986 9.88299L21.334 7.77368C21.2796 7.64887 21.1986 7.53746 21.0966 7.44721C20.9947 7.35696 20.8743 7.29006 20.7438 7.25118C20.6484 7.23798 20.5514 7.24405 20.4585 7.26905L18.3492 7.83438C18.1663 7.88355 18.0105 8.00335 17.916 8.1674C17.8215 8.33146 17.796 8.52635 17.8452 8.70919C17.8944 8.89202 18.0142 9.04784 18.1782 9.14235C18.3423 9.23687 18.5372 9.26234 18.72 9.21317L19.1643 9.09406L17.3032 12.3169C16.4639 11.9976 15.5366 11.9976 14.6973 12.3168L12.8368 9.09331L13.2815 9.21258C13.4643 9.26176 13.6592 9.23629 13.8233 9.14177C13.9873 9.04726 14.1071 8.89145 14.1563 8.70861C14.2055 8.52577 14.18 8.33088 14.0855 8.16682C13.991 8.00276 13.8352 7.88297 13.6523 7.83379L11.543 7.26765C11.4977 7.26041 11.4519 7.2577 11.4061 7.25955C11.3583 7.25191 11.31 7.24908 11.2617 7.25109C11.1223 7.26977 10.9915 7.3292 10.8858 7.42193C10.7801 7.51466 10.7041 7.63656 10.6674 7.77232L10.1029 9.88163C10.0786 9.97226 10.0724 10.0668 10.0847 10.1598C10.0971 10.2528 10.1276 10.3425 10.1746 10.4237C10.2216 10.5049 10.2842 10.576 10.3587 10.633C10.4332 10.69 10.5183 10.7317 10.6089 10.7558C10.6689 10.7721 10.7308 10.7803 10.793 10.7802C10.9501 10.7798 11.1028 10.7279 11.2275 10.6323C11.3521 10.5367 11.442 10.4027 11.4831 10.2511L11.6018 9.80731L13.4633 13.0325C12.7797 13.6106 12.3157 14.4062 12.1491 15.2859L8.43739 15.2853L8.76318 14.9597C8.89479 14.8254 8.96809 14.6446 8.96714 14.4566C8.96619 14.2685 8.89107 14.0885 8.75811 13.9555C8.62514 13.8225 8.44507 13.7474 8.25703 13.7465C8.069 13.7455 7.88818 13.8188 7.75388 13.9504L6.20909 15.4944C6.1428 15.5606 6.09022 15.6393 6.05434 15.7259C6.01847 15.8125 6 15.9053 6 15.999C6 16.0928 6.01847 16.1856 6.05434 16.2722C6.09022 16.3587 6.1428 16.4374 6.20909 16.5037L7.75373 18.0477C7.81976 18.115 7.89849 18.1687 7.98537 18.2054C8.07224 18.2422 8.16555 18.2613 8.25988 18.2618C8.35421 18.2623 8.4477 18.2441 8.53495 18.2082C8.62219 18.1723 8.70145 18.1195 8.76816 18.0528C8.83486 17.9861 8.88768 17.9068 8.92356 17.8196C8.95944 17.7323 8.97767 17.6388 8.97719 17.5445C8.97672 17.4502 8.95755 17.3569 8.92079 17.27C8.88403 17.1831 8.83041 17.1044 8.76304 17.0384L8.43755 16.7129L12.149 16.7134C12.3155 17.5929 12.7794 18.3885 13.4628 18.9666L11.6006 22.1918L11.4817 21.7478C11.4322 21.5653 11.3124 21.4099 11.1485 21.3156C10.9847 21.2213 10.7901 21.1958 10.6075 21.2447C10.4249 21.2936 10.2691 21.4129 10.1742 21.5764C10.0794 21.74 10.0532 21.9344 10.1015 22.1172L10.6661 24.2258C10.7072 24.3775 10.797 24.5114 10.9217 24.607C11.0464 24.7026 11.1991 24.7546 11.3562 24.7549C11.4184 24.755 11.4802 24.7468 11.5402 24.7305L13.6495 24.1659C13.7401 24.1418 13.8251 24.1 13.8996 24.0431C13.974 23.9861 14.0366 23.9151 14.0835 23.8339C14.1305 23.7528 14.1611 23.6632 14.1734 23.5703C14.1858 23.4773 14.1797 23.3829 14.1555 23.2923C14.1313 23.2017 14.0895 23.1168 14.0325 23.0424C13.9755 22.9679 13.9043 22.9055 13.8232 22.8586C13.742 22.8117 13.6524 22.7812 13.5594 22.7689C13.4665 22.7567 13.372 22.7628 13.2815 22.7871L12.8352 22.9065L14.6969 19.6826C15.5362 20.002 16.4636 20.002 17.303 19.6827L19.1632 22.9063L18.7185 22.7871C18.628 22.7627 18.5335 22.7565 18.4406 22.7686C18.3476 22.7808 18.258 22.8111 18.1767 22.8579C18.0955 22.9047 18.0243 22.967 17.9671 23.0414C17.91 23.1157 17.868 23.2005 17.8437 23.2911C17.8193 23.3816 17.8131 23.476 17.8252 23.569C17.8374 23.662 17.8677 23.7516 17.9145 23.8328C17.9613 23.9141 18.0236 23.9853 18.098 24.0424C18.1723 24.0996 18.2571 24.1415 18.3477 24.1659L20.457 24.7312C20.64 24.7803 20.835 24.7547 20.9992 24.6601C21.1634 24.5654 21.2832 24.4095 21.3325 24.2265L21.8985 22.1172C21.9468 21.9344 21.9206 21.74 21.8258 21.5764C21.7309 21.4129 21.5751 21.2936 21.3925 21.2447C21.2099 21.1958 21.0153 21.2213 20.8515 21.3156C20.6876 21.4099 20.5678 21.5653 20.5183 21.7478L20.3988 22.1932L18.5369 18.9668C19.2204 18.3887 19.6843 17.5932 19.8509 16.7136H23.5626L23.2369 17.0391C23.1695 17.1051 23.1159 17.1838 23.0792 17.2707C23.0424 17.3576 23.0232 17.4509 23.0227 17.5452C23.0223 17.6396 23.0405 17.733 23.0764 17.8203C23.1123 17.9075 23.1651 17.9868 23.2318 18.0535C23.2985 18.1202 23.3777 18.173 23.465 18.2089C23.5522 18.2448 23.6457 18.263 23.7401 18.2625C23.8344 18.2621 23.9277 18.2429 24.0146 18.2061C24.1014 18.1694 24.1802 18.1158 24.2462 18.0484L25.7908 16.5044C25.8571 16.4381 25.9097 16.3595 25.9456 16.2729C25.9815 16.1863 26 16.0935 26 15.9997C26 15.906 25.9816 15.8132 25.9457 15.7266C25.9098 15.64 25.8572 15.5613 25.791 15.4951ZM13.5046 15.9998C13.5045 15.5062 13.6507 15.0236 13.9248 14.6131C14.199 14.2027 14.5887 13.8827 15.0446 13.6937C15.5006 13.5047 16.0024 13.4552 16.4865 13.5514C16.9707 13.6477 17.4154 13.8853 17.7645 14.2343C18.1135 14.5832 18.3513 15.0279 18.4476 15.512C18.5439 15.9961 18.4945 16.4979 18.3057 16.9539C18.1168 17.41 17.7969 17.7997 17.3865 18.074C16.9761 18.3482 16.4936 18.4946 16 18.4945C15.3385 18.4938 14.7043 18.2308 14.2365 17.7631C13.7687 17.2954 13.5055 16.6612 13.5046 15.9998Z" fill="#18B7A0"/>
</svg>
