<svg width="32" height="32" viewBox="0 0 32 32" fill="none" xmlns="http://www.w3.org/2000/svg">
<path d="M8.73019 14.734H13.6265C14.2923 14.734 14.8546 14.2471 14.8546 13.581V8.68486C14.8546 8.01885 14.2923 7.5 13.6265 7.5H8.73019C8.06436 7.5 7.5 8.01885 7.5 8.68486V13.5812C7.5 14.2471 8.06436 14.734 8.73019 14.734ZM8.70575 8.70576H13.649V13.5284H8.70575V8.70576Z" fill="#590C13"/>
<path d="M18.4491 14.734H23.3454C24.0113 14.734 24.5 14.2471 24.5 13.581V8.68486C24.4998 8.01885 24.0113 7.5 23.3453 7.5H18.4489C17.7831 7.5 17.2657 8.01885 17.2657 8.68486V13.5812C17.2659 14.2471 17.7831 14.734 18.4491 14.734ZM18.4714 8.70576H23.2941V13.5284H18.4714V8.70576Z" fill="#590C13"/>
<path d="M8.73019 24.5H13.6265C14.2923 24.5 14.8546 23.9659 14.8546 23.3001V18.4037C14.8546 17.7379 14.2923 17.1454 13.6265 17.1454H8.73019C8.06436 17.1454 7.5 17.7379 7.5 18.4037V23.3001C7.5 23.9659 8.06436 24.5 8.73019 24.5ZM8.70575 18.3511H13.649V23.2944H8.70575V18.3511Z" fill="#590C13"/>
<path d="M18.4491 24.5H23.3454C24.0113 24.5 24.5 23.9659 24.5 23.3001V18.4037C24.5 17.7379 24.0114 17.1454 23.3454 17.1454H18.4491C17.7833 17.1454 17.2659 17.7379 17.2659 18.4037V23.3001C17.2659 23.9659 17.7831 24.5 18.4491 24.5ZM18.4714 18.3511H23.2941V23.2944H18.4714V18.3511Z" fill="#590C13"/>
</svg>
