<?xml version="1.0" encoding="utf-8"?>
<!-- Generator: Adobe Illustrator 16.0.2, SVG Export Plug-In . SVG Version: 6.00 Build 0)  -->
<!DOCTYPE svg PUBLIC "-//W3C//DTD SVG 1.1//EN" "http://www.w3.org/Graphics/SVG/1.1/DTD/svg11.dtd">
<svg version="1.1" id="Layer_1" xmlns="http://www.w3.org/2000/svg" xmlns:xlink="http://www.w3.org/1999/xlink" x="0px" y="0px"
	 width="27.057px" height="22.5px" viewBox="0 0 27.057 22.5" enable-background="new 0 0 27.057 22.5" xml:space="preserve">
<path fill="#676767" d="M1192.805-83.161h0.009c0.139,0.003,0.312,0.073,0.478,0.141l0.219,0.09l0.49,0.201
	c0.2,0.083,0.409,0.168,0.521,0.295c0.09,0.103,0.124,0.261,0.085,0.392c-0.013,0.042-0.034,0.094-0.057,0.149
	c-0.085,0.208-0.214,0.521-0.077,0.866c0.068,0.177,0.189,0.298,0.27,0.378l0.617,0.619c0.1,0.098,0.246,0.246,0.469,0.316
	c0.082,0.025,0.168,0.038,0.258,0.038c0.216,0,0.397-0.076,0.546-0.138c0.052-0.022,0.102-0.043,0.142-0.055
	c0.036-0.011,0.076-0.017,0.117-0.017c0.104,0,0.212,0.039,0.284,0.104c0.131,0.114,0.22,0.338,0.298,0.536
	c0.045,0.112,0.089,0.224,0.134,0.336c0.088,0.22,0.179,0.448,0.265,0.672c0.053,0.131,0.063,0.217-0.06,0.44
	c-0.003,0.005-0.008,0.012-0.021,0.024c-0.046,0.043-0.143,0.088-0.234,0.133c-0.254,0.119-0.677,0.319-0.765,0.853
	c-0.032,0.208-0.021,0.405-0.012,0.579c0.004,0.076,0.01,0.148,0.01,0.215c0,0.037-0.004,0.084-0.008,0.133
	c-0.015,0.188-0.037,0.472,0.129,0.748c0.203,0.336,0.563,0.459,0.82,0.549c0.048,0.016,0.093,0.031,0.133,0.046
	c0.038,0.121,0.063,0.383,0.047,0.495c-0.041,0.288-0.187,0.576-0.342,0.88c-0.024,0.05-0.05,0.099-0.074,0.148
	c-0.191,0.388-0.396,0.585-0.602,0.585c-0.007,0-0.015-0.001-0.015-0.001c-0.047-0.002-0.139-0.044-0.212-0.078
	c-0.156-0.073-0.354-0.165-0.599-0.165h-0.015c-0.694,0.01-1.533,1.053-1.637,1.542c-0.076,0.363,0.074,0.684,0.188,0.919
	c0.021,0.046,0.043,0.09,0.06,0.13c-0.066,0.135-0.307,0.379-0.407,0.438c-0.149,0.084-0.33,0.143-0.521,0.205
	c-0.158,0.05-0.324,0.104-0.488,0.176c-0.148,0.067-0.287,0.101-0.396,0.101c-0.115,0-0.169-0.037-0.207-0.073
	c-0.072-0.069-0.133-0.175-0.203-0.297c-0.111-0.193-0.249-0.433-0.496-0.616c-0.24-0.179-0.504-0.179-0.617-0.179
	c-0.021,0-0.042,0-0.063,0c-0.018,0.001-0.034,0.001-0.053,0.001h-0.245h-0.292c-0.021,0-0.04,0-0.063,0
	c-0.023-0.001-0.05-0.001-0.074-0.001c-0.191,0-0.42,0.017-0.63,0.138c-0.207,0.118-0.321,0.315-0.392,0.452
	c-0.202,0.402-0.335,0.606-0.498,0.606c-0.052,0-0.116-0.014-0.189-0.041c-0.103-0.038-0.212-0.075-0.326-0.114
	c-0.347-0.115-0.735-0.246-1.022-0.432c-0.318-0.207-0.354-0.386-0.35-0.519c0.004-0.103,0.034-0.189,0.073-0.297
	c0.095-0.259,0.235-0.652-0.142-1.175c-0.392-0.544-0.78-0.854-1.19-0.948c-0.066-0.015-0.138-0.023-0.204-0.023
	c-0.257,0-0.453,0.104-0.6,0.181c-0.047,0.024-0.116,0.062-0.146,0.068c-0.006-0.001-0.018-0.004-0.033-0.01
	c-0.16-0.054-0.367-0.151-0.441-0.307c-0.151-0.32-0.298-0.623-0.416-0.936c-0.078-0.206-0.151-0.445-0.13-0.652
	c0.013-0.113,0.054-0.232,0.263-0.342c0.035-0.018,0.073-0.036,0.113-0.054c0.219-0.104,0.586-0.275,0.693-0.744
	c0.066-0.287,0.049-0.598,0.033-0.872c-0.006-0.109-0.014-0.213-0.014-0.303c0-0.108,0-0.27-0.068-0.439
	c-0.15-0.359-0.48-0.482-0.699-0.562c-0.067-0.025-0.138-0.051-0.178-0.075c-0.092-0.054-0.155-0.203-0.154-0.362
	c0.002-0.194,0.077-0.648,0.552-1.517c0.084-0.153,0.179-0.231,0.47-0.231c0.142,0,0.3,0.019,0.468,0.038l0.03,0.004
	c0.071,0.008,0.143,0.013,0.209,0.013c0.408,0,0.775-0.149,1.063-0.429c0.204-0.201,0.851-0.912,0.578-1.641
	c-0.03-0.081-0.062-0.145-0.083-0.195c-0.013-0.026-0.028-0.06-0.033-0.076c0-0.006,0.002-0.017,0.006-0.034
	c0.038-0.172,0.095-0.284,0.179-0.353c0.119-0.1,0.291-0.171,0.477-0.245l0.698-0.285c0.163-0.067,0.334-0.137,0.472-0.14h0.01
	c0.162,0,0.33,0.105,0.401,0.249c0.016,0.034,0.032,0.078,0.052,0.124c0.082,0.205,0.205,0.515,0.544,0.658
	c0.166,0.07,0.324,0.07,0.431,0.07l0.975,0.001h0.005c0.095,0,0.253,0,0.416-0.067c0.345-0.143,0.469-0.455,0.552-0.662
	c0.021-0.047,0.037-0.092,0.055-0.126C1192.476-83.057,1192.644-83.161,1192.805-83.161 M1190.887-71.836
	c2.407,0,4.364-1.956,4.364-4.359c0-2.404-1.957-4.359-4.364-4.359c-2.406,0-4.365,1.955-4.365,4.359
	C1186.522-73.792,1188.481-71.836,1190.887-71.836 M1192.805-83.637c-0.341,0-0.675,0.207-0.826,0.513
	c-0.101,0.204-0.149,0.471-0.36,0.558c-0.071,0.03-0.153,0.031-0.232,0.031h-0.004h-0.977c-0.083,0-0.168-0.001-0.244-0.033
	c-0.209-0.087-0.256-0.351-0.354-0.553c-0.15-0.308-0.485-0.516-0.828-0.516c0,0-0.015,0.001-0.021,0.001
	c-0.222,0.005-0.433,0.091-0.639,0.174c-0.232,0.095-0.466,0.191-0.7,0.286c-0.211,0.086-0.424,0.174-0.6,0.32
	c-0.188,0.157-0.285,0.38-0.337,0.614c-0.059,0.258,0.037,0.33,0.129,0.575c0.146,0.393-0.203,0.877-0.466,1.135
	c-0.205,0.201-0.455,0.293-0.729,0.293c-0.049,0-0.1-0.003-0.149-0.009c-0.188-0.022-0.376-0.045-0.557-0.045
	c-0.354,0-0.676,0.093-0.887,0.478c-0.259,0.474-0.604,1.192-0.608,1.74c-0.005,0.303,0.125,0.623,0.389,0.777
	c0.231,0.138,0.572,0.159,0.68,0.41c0.033,0.079,0.033,0.169,0.033,0.255c0,0.332,0.063,0.748-0.009,1.069
	c-0.068,0.298-0.325,0.359-0.563,0.484c-0.288,0.151-0.478,0.375-0.516,0.709c-0.033,0.297,0.053,0.594,0.156,0.873
	c0.125,0.333,0.278,0.654,0.434,0.974c0.137,0.287,0.426,0.454,0.718,0.552c0.041,0.014,0.083,0.027,0.126,0.033
	c0.021,0.002,0.039,0.003,0.061,0.003c0.269,0,0.473-0.25,0.744-0.25c0.031,0,0.064,0.004,0.101,0.012
	c0.369,0.084,0.701,0.469,0.911,0.762c0.355,0.496-0.006,0.676-0.022,1.177c-0.036,0.973,1.313,1.27,2.009,1.527
	c0.135,0.049,0.25,0.071,0.355,0.071c0.472,0,0.705-0.436,0.923-0.868c0.046-0.092,0.111-0.2,0.203-0.253
	c0.115-0.066,0.257-0.074,0.393-0.074c0.046,0,0.094,0.001,0.137,0.001h0.002c0.18,0,0.356-0.001,0.536-0.001
	c0.038,0,0.075-0.001,0.114-0.001c0.118,0,0.232,0.01,0.334,0.085c0.307,0.227,0.386,0.618,0.652,0.874
	c0.155,0.15,0.343,0.207,0.537,0.207c0.196,0,0.402-0.06,0.59-0.142c0.343-0.15,0.723-0.217,1.052-0.401
	c0.208-0.117,0.749-0.647,0.653-0.936c-0.089-0.267-0.319-0.572-0.259-0.869c0.075-0.365,0.782-1.158,1.179-1.163h0.007
	c0.271,0,0.507,0.229,0.781,0.242c0.014,0.001,0.026,0.001,0.041,0.001c0.502,0,0.82-0.436,1.026-0.848
	c0.188-0.375,0.402-0.754,0.461-1.175c0.027-0.204-0.005-0.839-0.231-0.954c-0.252-0.127-0.667-0.177-0.83-0.447
	c-0.119-0.198-0.053-0.422-0.053-0.636c-0.002-0.238-0.043-0.481-0.006-0.717c0.072-0.45,0.576-0.452,0.855-0.718
	c0.042-0.039,0.08-0.085,0.108-0.139c0.163-0.299,0.207-0.534,0.089-0.842c-0.132-0.337-0.27-0.673-0.401-1.01
	c-0.104-0.261-0.213-0.532-0.423-0.718c-0.165-0.144-0.383-0.223-0.601-0.223c-0.089,0-0.177,0.013-0.26,0.039
	c-0.183,0.056-0.363,0.172-0.546,0.172c-0.038,0-0.076-0.006-0.115-0.017c-0.106-0.034-0.191-0.118-0.271-0.198
	c-0.205-0.206-0.411-0.412-0.616-0.618c-0.063-0.066-0.132-0.133-0.166-0.219c-0.091-0.228,0.077-0.468,0.148-0.704
	c0.085-0.286,0.014-0.614-0.186-0.84c-0.181-0.207-0.442-0.317-0.698-0.421c-0.235-0.098-0.474-0.195-0.711-0.292
	c-0.207-0.085-0.42-0.171-0.644-0.177H1192.805z M1190.887-72.312c-2.146,0-3.892-1.742-3.892-3.883
	c0-2.142,1.744-3.884,3.892-3.884c2.145,0,3.89,1.742,3.89,3.884C1194.777-74.054,1193.031-72.312,1190.887-72.312"/>
<path fill="#676767" d="M-234.691-398.614c-4.143,0-7.5,3.357-7.5,7.5c0,4.142,3.357,7.499,7.5,7.499c4.145,0,7.5-3.357,7.5-7.499
	C-227.191-395.256-230.548-398.614-234.691-398.614 M-234.691-384.214c-3.805,0-6.898-3.095-6.898-6.899
	c0-3.805,3.095-6.899,6.898-6.899s6.9,3.096,6.9,6.899C-227.791-387.309-230.886-384.214-234.691-384.214"/>
<polygon fill="#676767" points="-234.391,-395.614 -234.991,-395.614 -234.991,-391.414 -239.172,-391.414 -239.172,-390.814 
	-234.991,-390.814 -234.991,-386.634 -234.391,-386.634 -234.391,-390.814 -230.191,-390.814 -230.191,-391.414 -234.391,-391.414 
	"/>
<path fill="#FF0000" d="M13.529,3.75c-4.146,0-7.5,3.357-7.5,7.5c0,4.142,3.354,7.499,7.5,7.499c4.144,0,7.5-3.357,7.5-7.499
	C21.029,7.107,17.672,3.75,13.529,3.75 M13.529,18.147c-3.808,0-6.9-3.095-6.9-6.896c0-3.805,3.094-6.901,6.9-6.901
	c3.806,0,6.897,3.097,6.897,6.901C20.428,15.054,17.334,18.147,13.529,18.147"/>
<polyline fill="#FF0000" points="18.029,11.549 18.029,10.948 9.048,10.948 9.048,11.549 "/>
<path fill="#676767" d="M-184.65,418.634c-4.143,0-7.5,3.357-7.5,7.5c0,4.145,3.357,7.5,7.5,7.5c4.145,0,7.5-3.355,7.5-7.5
	C-177.15,421.991-180.507,418.634-184.65,418.634 M-184.65,433.033c-3.805,0-6.898-3.097-6.898-6.899s3.095-6.899,6.898-6.899
	s6.9,3.097,6.9,6.899S-180.845,433.033-184.65,433.033"/>
<polygon fill="#676767" points="-180.15,424.569 -180.571,424.148 -184.64,428.218 -188.709,424.148 -189.13,424.569 
	-184.64,429.059 "/>
</svg>
