<svg width="20" height="18" viewBox="0 0 20 18" fill="none" xmlns="http://www.w3.org/2000/svg">
<path d="M17.3161 6.75024C17.8503 7.22826 18.3002 7.69221 18.6376 8.05775C18.8708 8.31609 18.9999 8.65172 18.9999 8.99971C18.9999 9.34771 18.8708 9.68334 18.6376 9.94168C17.1614 11.5304 13.8013 14.6234 9.87877 14.6234H9.31641" stroke="#717171" stroke-linecap="round" stroke-linejoin="round"/>
<path d="M5.47692 13.4002C3.84835 12.4881 2.37683 11.3204 1.11857 9.94162C0.885409 9.68328 0.756348 9.34765 0.756348 8.99965C0.756348 8.65166 0.885409 8.31603 1.11857 8.05769C2.59478 6.469 5.95493 3.37598 9.87744 3.37598C11.4236 3.40829 12.9369 3.82891 14.278 4.59913" stroke="#717171" stroke-linecap="round" stroke-linejoin="round"/>
<path d="M17.6087 1.26733L2.14355 16.7324" stroke="#717171" stroke-linecap="round" stroke-linejoin="round"/>
<path d="M7.89395 10.9822C7.3659 10.4573 7.06759 9.74437 7.06445 8.99983C7.06445 8.25408 7.3607 7.53888 7.88802 7.01156C8.41534 6.48423 9.13055 6.18799 9.87629 6.18799C10.6208 6.19113 11.3337 6.48943 11.8586 7.01748" stroke="#717171" stroke-linecap="round" stroke-linejoin="round"/>
<path d="M12.3236 10.406C12.0733 10.8338 11.7144 11.1879 11.2832 11.4323" stroke="#717171" stroke-linecap="round" stroke-linejoin="round"/>
</svg>
