<svg width="29" height="28" viewBox="0 0 29 28" fill="none" xmlns="http://www.w3.org/2000/svg">
<path d="M16.1875 19.8062H15.4438V12.3648C15.4438 12.3535 15.4424 12.3435 15.4417 12.3387C15.4424 12.3339 15.4438 12.3238 15.4438 12.3125C15.4438 11.7915 15.021 11.3687 14.5 11.3687H12.8125C12.2915 11.3687 11.8687 11.7915 11.8687 12.3125C11.8687 12.8335 12.2915 13.2563 12.8125 13.2563H13.5562V19.8062H12.8125C12.2915 19.8062 11.8687 20.229 11.8687 20.75C11.8687 21.271 12.2915 21.6938 12.8125 21.6938H16.1875C16.7085 21.6938 17.1313 21.271 17.1313 20.75C17.1313 20.229 16.7085 19.8062 16.1875 19.8062ZM14.5 9.88125C15.4876 9.88125 16.2875 9.08045 16.2875 8.09375C16.2875 7.10705 15.4876 6.30625 14.5 6.30625C13.5124 6.30625 12.7125 7.10705 12.7125 8.09375C12.7125 9.08048 13.5133 9.88125 14.5 9.88125ZM14.5 0.4C6.9894 0.4 0.9 6.48855 0.9 14C0.9 21.5114 6.98855 27.6 14.5 27.6C22.0114 27.6 28.1 21.5114 28.1 14C28.1 6.48855 22.0114 0.4 14.5 0.4ZM14.5 25.7387C8.04178 25.7387 2.7875 20.458 2.7875 13.9992C2.7875 7.54063 8.04148 2.28666 14.5 2.28666C20.9585 2.28666 26.2125 7.54063 26.2125 13.9992C26.2125 20.458 20.9582 25.7387 14.5 25.7387Z" fill="#18B7A0" stroke="#18B7A0" stroke-width="0.2"/>
</svg>
