<svg width="12" height="12" viewBox="0 0 12 12" fill="none" xmlns="http://www.w3.org/2000/svg">
<path d="M5.68329 10.3188V6.76305C5.68136 6.73286 5.67638 6.70295 5.66841 6.67378V6.58451L5.63865 6.53988V6.51012C5.60689 6.46326 5.56649 6.42287 5.51963 6.3911H5.48988L5.44524 6.36135H1.72581C1.60744 6.36135 1.49391 6.40837 1.41021 6.49207C1.32651 6.57578 1.27948 6.6893 1.27948 6.80768C1.27948 6.92605 1.32651 7.03958 1.41021 7.12328C1.49391 7.20699 1.60744 7.25401 1.72581 7.25401H4.15088L0.178533 11.1966C0.127375 11.235 0.0850595 11.2839 0.0544511 11.34C0.0238426 11.3962 0.00565605 11.4582 0.00112292 11.522C-0.0034102 11.5858 0.0058159 11.6498 0.0281765 11.7097C0.0505372 11.7696 0.0855102 11.8241 0.130727 11.8693C0.175945 11.9145 0.23035 11.9495 0.29026 11.9718C0.35017 11.9942 0.414185 12.0034 0.477971 11.9989C0.541757 11.9943 0.603825 11.9762 0.65997 11.9455C0.716116 11.9149 0.765028 11.8726 0.803396 11.8215L4.79062 7.84912V10.3188C4.79062 10.4372 4.83765 10.5507 4.92135 10.6344C5.00505 10.7181 5.11858 10.7651 5.23695 10.7651C5.35533 10.7651 5.46885 10.7181 5.55256 10.6344C5.63626 10.5507 5.68329 10.4372 5.68329 10.3188Z" fill="#323232"/>
<path d="M11.8724 0.127587C11.789 0.0458071 11.6768 0 11.56 0C11.4432 0 11.331 0.0458071 11.2475 0.127587L7.26032 4.09994V1.63024C7.26032 1.51186 7.2133 1.39834 7.12959 1.31463C7.04589 1.23093 6.93236 1.1839 6.81399 1.1839C6.69562 1.1839 6.58209 1.23093 6.49839 1.31463C6.41468 1.39834 6.36766 1.51186 6.36766 1.63024V5.18601C6.36958 5.21619 6.37457 5.2461 6.38254 5.27528V5.36454L6.41229 5.40917V5.43893C6.44406 5.48579 6.48445 5.52619 6.53131 5.55795H6.56107L6.6057 5.58771H10.3251C10.4435 5.58771 10.557 5.54068 10.6407 5.45698C10.7244 5.37328 10.7715 5.25975 10.7715 5.14138C10.7715 5.023 10.7244 4.90947 10.6407 4.82577C10.557 4.74207 10.4435 4.69504 10.3251 4.69504H7.90006L11.8724 0.752451C11.9542 0.669019 12 0.556847 12 0.440019C12 0.323191 11.9542 0.211019 11.8724 0.127587Z" fill="#323232"/>
</svg>
