<svg width="40" height="40" viewBox="0 0 40 40" fill="none" xmlns="http://www.w3.org/2000/svg">
<path fill-rule="evenodd" clip-rule="evenodd" d="M22.6701 11.8803C23.5688 11.7654 24.4746 12.1338 25.3902 12.9953L25.3913 12.9964C26.31 13.8651 26.7326 14.7509 26.6693 15.6566C26.6082 16.5308 26.1017 17.2682 25.529 17.8732L24.5652 18.8933C24.5242 18.9576 24.4714 19.0133 24.4101 19.0575L19.2919 24.475C19.113 24.6697 18.8732 24.8337 18.6471 24.9546C18.4179 25.0771 18.1518 25.1825 17.901 25.2271L17.897 25.2279L15.4503 25.6457C14.8494 25.7491 14.27 25.5991 13.8571 25.2076C13.4447 24.8165 13.2635 24.2471 13.3306 23.6428L13.3309 23.641L13.6134 21.167C13.6467 20.917 13.7393 20.6477 13.8478 20.415C13.9559 20.1832 14.104 19.9361 14.2802 19.7485L14.2814 19.7473L19.4724 14.2527C19.4778 14.2468 19.4832 14.241 19.4888 14.2354L20.5219 13.1419C21.0948 12.5367 21.8028 11.9912 22.6701 11.8803ZM24.6569 17.0489L23.8216 17.933C22.212 17.6513 20.9269 16.4357 20.5633 14.8455L21.3938 13.9664C21.9001 13.4317 22.3671 13.1289 22.8223 13.0707C23.2461 13.0165 23.811 13.1573 24.5673 13.8687C25.3281 14.5883 25.502 15.1467 25.4722 15.5729C25.4402 16.0308 25.1636 16.5137 24.6569 17.0489ZM15.1548 20.5701L19.6183 15.8457C20.1874 17.309 21.3871 18.4417 22.8787 18.931L18.4164 23.6543L18.4092 23.6621C18.3528 23.7239 18.2373 23.8129 18.0813 23.8964C17.9275 23.9785 17.7839 24.0289 17.6926 24.0454L17.691 24.0457L15.2474 24.463C14.967 24.5114 14.7848 24.4336 14.6829 24.3369C14.5804 24.2398 14.4918 24.0607 14.5232 23.7761L14.8036 21.321C14.8167 21.2286 14.8608 21.0821 14.9354 20.9222C15.0114 20.7592 15.0954 20.6336 15.1548 20.5701Z" fill="#323232"/>
<path d="M13.1591 26.9401C12.8277 26.9401 12.5591 27.2087 12.5591 27.5401C12.5591 27.8715 12.8277 28.1401 13.1591 28.1401H26.8412C27.1725 28.1401 27.4412 27.8715 27.4412 27.5401C27.4412 27.2087 27.1725 26.9401 26.8412 26.9401H13.1591Z" fill="#323232"/>
</svg>
