<svg width="22" height="14" viewBox="0 0 22 14" fill="none" xmlns="http://www.w3.org/2000/svg">
<path d="M21.3213 5.85965C18.1887 2.32456 14.824 0.5 11.3434 0.5C11.3434 0.5 11.3434 0.5 11.2854 0.5C6.35441 0.5 2.5837 4.20614 1.19143 5.80263C0.61132 6.42982 0.61132 7.45614 1.19143 8.14035C4.32403 11.6754 7.68867 13.5 11.1693 13.5C11.1693 13.5 11.1693 13.5 11.2273 13.5C16.1583 13.5 19.929 9.79386 21.3213 8.19737C21.9014 7.51316 21.9014 6.48684 21.3213 5.85965ZM20.4511 7.45614C19.1749 8.9386 15.6942 12.3596 11.2273 12.3596C11.2273 12.3596 11.2273 12.3596 11.1693 12.3596C8.03673 12.3596 4.96215 10.7061 2.0616 7.39912C1.88756 7.17105 1.88756 6.77193 2.0616 6.54386C3.33784 5.0614 6.8185 1.64035 11.2854 1.64035C11.2854 1.64035 11.2854 1.64035 11.3434 1.64035C14.476 1.64035 17.5505 3.29386 20.4511 6.60088C20.6251 6.82895 20.6251 7.22807 20.4511 7.45614ZM11.2273 4.0921C9.60303 4.0921 8.26878 5.40351 8.26878 7C8.26878 8.59649 9.60303 9.90789 11.2273 9.90789C12.8517 9.90789 14.1859 8.59649 14.1859 7C14.1859 5.40351 12.8517 4.0921 11.2273 4.0921ZM11.2273 8.76754C10.2412 8.76754 9.429 7.9693 9.429 7C9.429 6.0307 10.2412 5.23246 11.2273 5.23246C12.2135 5.23246 13.0257 6.0307 13.0257 7C13.0257 7.9693 12.2135 8.76754 11.2273 8.76754Z" fill="#717171"/>
</svg>
