<svg width="23" height="28" viewBox="0 0 23 28" fill="none" xmlns="http://www.w3.org/2000/svg">
<path d="M19.5627 23.3841C20.268 23.3777 20.9545 23.1564 21.5308 22.7498C22.1071 22.3433 22.5458 21.7707 22.7884 21.1084C23.031 20.4462 23.0659 19.7257 22.8885 19.0431C22.7112 18.3604 22.3299 17.7481 21.7956 17.2877L21.4633 16.9969C20.9116 16.521 20.5441 15.8669 20.4247 15.1482L19.5004 9.63344C19.2362 8.04201 18.4679 6.57749 17.3087 5.45563C16.1494 4.33377 14.6605 3.61389 13.0613 3.40203V1.57415C13.0613 1.29871 12.9519 1.03454 12.7571 0.839773C12.5623 0.645004 12.2982 0.535583 12.0227 0.535583C11.7473 0.535583 11.4831 0.645004 11.2883 0.839773C11.0936 1.03454 10.9842 1.29871 10.9842 1.57415V3.38126C9.38679 3.59518 7.90022 4.31598 6.74301 5.43767C5.5858 6.55936 4.81902 8.02275 4.55542 9.61267L3.63109 15.169C3.50487 15.8765 3.13796 16.5186 2.59252 16.9865L2.14594 17.3812C1.61415 17.8402 1.23676 18.4519 1.06517 19.1331C0.893579 19.8144 0.936123 20.5319 1.18701 21.1881C1.43789 21.8442 1.88493 22.4071 2.46723 22.8001C3.04953 23.193 3.7388 23.3969 4.44117 23.3841H8.24233C8.24233 23.4983 8.24233 23.6126 8.24233 23.7268C8.25866 24.5689 8.55347 25.3819 9.0807 26.0388C9.60793 26.6957 10.3379 27.1594 11.1565 27.3575C11.9752 27.5556 12.8364 27.477 13.6057 27.134C14.3749 26.7909 15.0089 26.2027 15.4085 25.4612C15.5352 25.2161 15.5593 24.9306 15.4755 24.6677C15.3918 24.4047 15.207 24.1858 14.9619 24.0591C14.7167 23.9324 14.4313 23.9083 14.1683 23.9921C13.9054 24.0758 13.6865 24.2606 13.5598 24.5057C13.3836 24.8526 13.0953 25.1298 12.7417 25.2921C12.388 25.4543 11.9899 25.4922 11.612 25.3996C11.2341 25.3069 10.8987 25.0891 10.6602 24.7816C10.4218 24.4742 10.2944 24.0951 10.2987 23.706C10.2885 23.592 10.2885 23.4773 10.2987 23.3633L19.5627 23.3841ZM3.11181 20.123C3.0815 19.9081 3.10554 19.689 3.18174 19.4858C3.25794 19.2826 3.38387 19.1017 3.54801 18.9598L3.99459 18.5547C4.88638 17.7665 5.48035 16.6959 5.67707 15.5221L6.6014 9.97616C6.81336 8.69215 7.47508 7.52537 8.46826 6.6844C9.46143 5.84344 10.7213 5.38311 12.0227 5.38569C13.3241 5.38311 14.584 5.84344 15.5772 6.6844C16.5704 7.52537 17.2321 8.69215 17.444 9.97616L18.358 15.491C18.553 16.7031 19.1711 17.807 20.1028 18.6067L20.4351 18.8975C20.6082 19.0491 20.7407 19.2416 20.8205 19.4574C20.9003 19.6732 20.9249 19.9056 20.8921 20.1334C20.8516 20.4574 20.6941 20.7554 20.4494 20.9716C20.2046 21.1877 19.8893 21.3069 19.5627 21.3069H4.44117C4.11305 21.3066 3.79645 21.1859 3.55142 20.9677C3.30639 20.7494 3.14996 20.4489 3.11181 20.123Z" fill="#323232"/>
</svg>
