<?xml version="1.0" encoding="utf-8"?>
<!-- Generator: Adobe Illustrator 16.0.2, SVG Export Plug-In . SVG Version: 6.00 Build 0)  -->
<!DOCTYPE svg PUBLIC "-//W3C//DTD SVG 1.1//EN" "http://www.w3.org/Graphics/SVG/1.1/DTD/svg11.dtd">
<svg version="1.1" id="Layer_1" xmlns="http://www.w3.org/2000/svg" xmlns:xlink="http://www.w3.org/1999/xlink" x="0px" y="0px"
	 width="542.174px" height="340.808px" viewBox="0 0 542.174 340.808" enable-background="new 0 0 542.174 340.808"
	 xml:space="preserve">
<g>
	<defs>
		<path id="SVGID_1_" d="M230.489,323.087c0-1.945,1.582-3.528,3.525-3.528c1.946,0,3.529,1.583,3.529,3.528
			c0,1.942-1.583,3.525-3.529,3.525C232.071,326.613,230.489,325.03,230.489,323.087 M228.844,323.087
			c0,2.85,2.321,5.171,5.17,5.171c2.854,0,5.171-2.321,5.171-5.171c0-2.853-2.318-5.17-5.171-5.17
			C231.165,317.917,228.844,320.235,228.844,323.087 M360.022,323.087c0-1.945,1.581-3.528,3.524-3.528
			c1.946,0,3.527,1.583,3.527,3.528c0,1.942-1.581,3.525-3.527,3.525C361.604,326.613,360.022,325.03,360.022,323.087
			 M358.377,323.087c0,2.85,2.321,5.171,5.17,5.171c2.853,0,5.17-2.321,5.17-5.171c0-2.853-2.317-5.17-5.17-5.17
			C360.698,317.917,358.377,320.235,358.377,323.087 M217.939,323.087c0-8.865,7.212-16.076,16.075-16.076
			c8.865,0,16.077,7.211,16.077,16.076c0,8.862-7.212,16.076-16.077,16.076C225.151,339.164,217.939,331.95,217.939,323.087
			 M216.295,323.087c0,9.771,7.948,17.719,17.719,17.719c9.771,0,17.721-7.947,17.721-17.719s-7.95-17.723-17.721-17.723
			C224.243,305.365,216.295,313.316,216.295,323.087 M347.471,323.087c0-8.865,7.211-16.078,16.076-16.078
			s16.078,7.213,16.078,16.078c0,8.864-7.213,16.076-16.078,16.076S347.471,331.952,347.471,323.087 M345.826,323.087
			c0,9.771,7.95,17.721,17.721,17.721s17.722-7.949,17.722-17.721s-7.951-17.723-17.722-17.723S345.826,313.316,345.826,323.087
			 M291.608,286.099c-0.198,0.409-0.028,0.902,0.381,1.101c0.135,0.065,2.305,1.096,5.229,1.096c1.507,0,3.214-0.273,4.945-1.094
			c0.408-0.194,0.585-0.685,0.391-1.094c-0.193-0.411-0.685-0.588-1.097-0.39c-4.343,2.055-8.668,0.042-8.749,0.001
			c-0.116-0.056-0.238-0.083-0.358-0.083C292.045,285.636,291.752,285.807,291.608,286.099 M243.43,275.044
			c-0.302-0.685-0.168-1.396,0.383-2.007c4.612-5.098,13.673-11.586,30.657-13.548c0.159-0.018,0.317-0.026,0.477-0.026
			c0.909,0,1.778,0.303,2.388,0.845c0.335,0.299,0.737,0.803,0.737,1.503v12.521c0,1.293-1.406,2.346-3.133,2.346h-28.522
			C245.042,276.678,243.871,276.036,243.43,275.044 M274.281,257.856c-17.49,2.021-26.886,8.771-31.687,14.079
			c-0.985,1.087-1.235,2.499-0.667,3.778c0.703,1.584,2.465,2.606,4.488,2.606h28.522c2.634,0,4.775-1.789,4.775-3.987v-12.521
			c0-1.021-0.457-1.991-1.286-2.729c-0.911-0.813-2.185-1.262-3.5-1.262C274.713,257.82,274.497,257.833,274.281,257.856
			 M285.77,274.944v-13.354c0-1.144,0.934-2.108,2.173-2.241c1.578-0.172,3.19-0.251,4.832-0.251
			c17.162,0,37.054,8.772,47.949,14.341c0.91,0.465,1.08,1.271,0.936,1.867c-0.151,0.634-0.739,1.373-1.89,1.373h-52.067
			C286.636,276.678,285.77,275.9,285.77,274.944 M287.766,257.711c-2.075,0.224-3.641,1.892-3.641,3.878v13.354
			c0,1.863,1.604,3.376,3.577,3.376h52.067c1.973,0,3.173-1.32,3.489-2.629c0.364-1.517-0.337-2.977-1.787-3.718
			c-11.036-5.639-31.194-14.52-48.72-14.52C291.062,257.454,289.396,257.535,287.766,257.711 M403.392,291.443
			c1.367,2.543,0.518,5.295-0.385,8.192l-0.105,0.337c-0.081,0.266-0.158,0.538-0.239,0.804
			C401.442,295.305,402.603,292.573,403.392,291.443 M193.379,290.779c-0.396-1.851-0.764-3.927-0.509-5.926
			c1.621,1.936,4.322,6.249,1.905,11.451C194.247,294.472,193.776,292.629,193.379,290.779 M198.667,307.027
			c-1.231-2.787-2.305-5.634-3.225-8.52c4.728-7.59-0.553-13.959-2.108-15.574c1.096-2.866,3.99-5.444,8.035-7.127
			c3.62-1.508,7.624-2.38,11.496-3.225c2.264-0.495,4.607-1.006,6.854-1.64c7.269-2.049,14.418-4.781,21.328-7.425
			c8.912-3.408,18.13-6.933,27.649-8.996c17.375-3.763,36.047-2.631,52.576,3.195c6.63,2.334,12.925,5.672,19.014,8.901
			c2.567,1.362,5.226,2.771,7.879,4.09c9.297,4.619,19.552,7.456,29.26,9.961c1.795,0.467,3.737,0.854,5.791,1.269
			c6.977,1.403,14.838,2.996,19.175,8.11c-1.182,1.369-3.276,5.227-0.616,13.764c-0.737,2.646-1.411,5.322-1.994,7.993
			c-0.184,0.845-0.309,1.95-0.44,3.118c-0.335,2.977-0.793,7.053-2.56,8.351c-1.989,1.461-7.516,1.466-10.484,1.468
			c-0.32,0-0.616,0-0.888,0.002c0.023-0.594,0.039-1.249,0.039-1.655c0-12.076-9.824-21.899-21.9-21.899
			c-12.074,0-21.897,9.823-21.897,21.899c0,0.075,0.006,0.151,0.006,0.226c-12.265-0.013-24.734,0.002-36.803,0.019
			c-16.224,0.022-32.991,0.048-48.975-0.014c0.021-0.075,0.036-0.15,0.036-0.23c0-12.076-9.823-21.899-21.9-21.899
			c-11.744,0-21.357,9.294-21.872,20.917C207.312,318.958,201.567,313.585,198.667,307.027 M268.351,252.915
			c-9.644,2.09-18.92,5.639-27.892,9.068c-6.876,2.628-13.988,5.349-21.187,7.378c-2.2,0.619-4.515,1.125-6.758,1.614
			c-3.943,0.86-8.019,1.748-11.778,3.313c-4.701,1.955-8.028,5.091-9.129,8.597v0.003l-0.006,0.018
			c-0.87,2.795-0.366,5.708,0.171,8.22c0.536,2.494,1.196,4.976,1.965,7.43c0.01,0.061,0.029,0.12,0.053,0.178
			c0.957,3.035,2.079,6.032,3.374,8.961c3.302,7.472,10.097,13.465,15.356,16.584c0.39,0.233,0.894,0.104,1.125-0.287
			c0.124-0.208,0.142-0.449,0.074-0.662c0.025-0.076,0.041-0.157,0.041-0.241c0-11.17,9.086-20.254,20.254-20.254
			c11.17,0,20.255,9.084,20.255,20.254c0,0.201,0.074,0.382,0.194,0.523c-0.118,0.143-0.192,0.323-0.194,0.522
			c-0.003,0.455,0.365,0.825,0.82,0.825c7.803,0.031,15.8,0.043,23.834,0.043c8.666,0,17.375-0.015,25.933-0.025
			c12.337-0.018,25.091-0.034,37.614-0.018c0.021,0,0.039-0.002,0.057-0.005h0.012l0.036-0.005c0.026-0.004,0.057-0.007,0.081-0.013
			c0.395-0.078,0.683-0.429,0.662-0.843c-0.017-0.334-0.024-0.669-0.024-1.006c0-11.17,9.086-20.254,20.254-20.254
			c11.17,0,20.254,9.084,20.254,20.254c0,0.685-0.034,1.842-0.085,2.406c-0.041,0.45,0.293,0.851,0.745,0.894
			c0.025,0.001,0.05,0.001,0.075,0.001c0.145,0,0.274-0.049,0.396-0.117c0.121,0.073,0.265,0.117,0.416,0.117h0.006
			c0.284-0.001,0.602-0.001,0.945-0.001c3.378-0.003,9.032-0.008,11.454-1.788c2.348-1.727,2.832-6.031,3.222-9.491
			c0.127-1.128,0.247-2.191,0.412-2.954c0.856-3.925,1.896-7.859,3.085-11.693l0.104-0.334c1.078-3.463,2.19-7.042-0.379-10.476
			l-0.004-0.007l-0.008-0.009l-0.021-0.027c-4.595-6.06-13.111-7.772-20.622-9.282c-2.034-0.409-3.953-0.796-5.709-1.247
			c-9.622-2.486-19.784-5.295-28.936-9.845c-2.636-1.308-5.281-2.712-7.842-4.069c-6.143-3.257-12.493-6.623-19.236-8.998
			c-10.3-3.631-21.417-5.471-32.548-5.471C282.235,250.696,275.194,251.431,268.351,252.915"/>
	</defs>
	<clipPath id="SVGID_2_">
		<use xlink:href="#SVGID_1_"  overflow="visible"/>
	</clipPath>
	
		<linearGradient id="SVGID_3_" gradientUnits="userSpaceOnUse" x1="-687.5" y1="708.4058" x2="-686.4995" y2="708.4058" gradientTransform="matrix(214.6369 0 0 -214.6369 147753.9844 152345.7969)">
		<stop  offset="0" style="stop-color:#2FB29B"/>
		<stop  offset="0.3459" style="stop-color:#2FB29B"/>
		<stop  offset="1" style="stop-color:#19A0DB"/>
	</linearGradient>
	<rect x="190.731" y="250.696" clip-path="url(#SVGID_2_)" fill="url(#SVGID_3_)" width="216.035" height="90.112"/>
</g>
<g>
	<defs>
		<path id="SVGID_4_" d="M497.931,306.46v8.799c0,0.599,0.486,1.085,1.086,1.085c0.597,0,1.082-0.486,1.082-1.085v-8.799
			c0-0.598-0.485-1.083-1.082-1.083C498.417,305.377,497.931,305.863,497.931,306.46 M516.055,296.182
			c-0.599,0-1.082,0.486-1.082,1.083v42.099c0,0.6,0.483,1.085,1.082,1.085s1.082-0.485,1.082-1.085v-41.015h25.037v-2.167H516.055z
			 M497.931,278.752v8.8c0,0.599,0.486,1.085,1.086,1.085c0.597,0,1.082-0.486,1.082-1.085v-8.8c0-0.597-0.485-1.082-1.082-1.082
			C498.417,277.67,497.931,278.156,497.931,278.752 M0,275.713v2.169h17.787c0.599,0,1.085-0.485,1.085-1.084
			c0-0.6-0.486-1.085-1.085-1.085H0z M526.104,271.273v8.799c0,0.6,0.484,1.085,1.083,1.085s1.082-0.485,1.082-1.085v-8.799
			c0-0.599-0.483-1.085-1.082-1.085S526.104,270.674,526.104,271.273 M497.931,251.045v8.8c0,0.599,0.486,1.085,1.086,1.085
			c0.597,0,1.082-0.486,1.082-1.085v-8.8c0-0.599-0.485-1.082-1.082-1.082C498.417,249.963,497.931,250.447,497.931,251.045
			 M0,249.133v2.168h17.787c0.599,0,1.085-0.484,1.085-1.083c0-0.6-0.486-1.085-1.085-1.085H0z M526.104,243.565v8.8
			c0,0.6,0.484,1.082,1.083,1.082s1.082-0.482,1.082-1.082v-8.8c0-0.596-0.483-1.082-1.082-1.082S526.104,242.969,526.104,243.565
			 M497.931,223.339v8.799c0,0.598,0.486,1.084,1.086,1.084c0.597,0,1.082-0.486,1.082-1.084v-8.799
			c0-0.601-0.485-1.086-1.082-1.086C498.417,222.253,497.931,222.739,497.931,223.339 M526.104,215.859v8.799
			c0,0.599,0.484,1.084,1.083,1.084s1.082-0.485,1.082-1.084v-8.799c0-0.597-0.483-1.083-1.082-1.083
			S526.104,215.262,526.104,215.859 M497.931,195.633v8.797c0,0.6,0.486,1.085,1.086,1.085c0.597,0,1.082-0.485,1.082-1.085v-8.797
			c0-0.6-0.485-1.085-1.082-1.085C498.417,194.548,497.931,195.034,497.931,195.633 M526.104,188.151v8.8
			c0,0.6,0.484,1.084,1.083,1.084s1.082-0.484,1.082-1.084v-8.8c0-0.599-0.483-1.083-1.082-1.083S526.104,187.552,526.104,188.151
			 M13.661,183.286v39.623c0,0.6,0.485,1.085,1.084,1.085c0.597,0,1.083-0.485,1.083-1.085v-39.623c0-0.599-0.486-1.085-1.083-1.085
			C14.146,182.201,13.661,182.687,13.661,183.286 M497.931,167.926v8.797c0,0.599,0.486,1.085,1.086,1.085
			c0.597,0,1.082-0.486,1.082-1.085v-8.797c0-0.6-0.485-1.085-1.082-1.085C498.417,166.841,497.931,167.327,497.931,167.926
			 M526.104,160.444v8.799c0,0.601,0.484,1.086,1.083,1.086s1.082-0.485,1.082-1.086v-8.799c0-0.599-0.483-1.085-1.082-1.085
			S526.104,159.845,526.104,160.444 M497.931,140.216v8.8c0,0.599,0.486,1.085,1.086,1.085c0.597,0,1.082-0.486,1.082-1.085v-8.8
			c0-0.597-0.485-1.081-1.082-1.081C498.417,139.135,497.931,139.62,497.931,140.216 M39.809,137.958
			c-0.599,0-1.083,0.483-1.083,1.082s0.484,1.085,1.083,1.085h60.869c0.599,0,1.085-0.486,1.085-1.085s-0.486-1.082-1.085-1.082
			H39.809z M526.104,132.739v8.799c0,0.598,0.484,1.084,1.083,1.084s1.082-0.486,1.082-1.084v-8.799
			c0-0.598-0.483-1.084-1.082-1.084S526.104,132.141,526.104,132.739 M39.809,114.284c-0.599,0-1.083,0.483-1.083,1.082
			c0,0.6,0.484,1.085,1.083,1.085h60.869c0.599,0,1.085-0.485,1.085-1.085c0-0.599-0.486-1.082-1.085-1.082H39.809z M39.809,90.61
			c-0.599,0-1.083,0.486-1.083,1.085c0,0.599,0.484,1.084,1.083,1.084h60.869c0.599,0,1.085-0.485,1.085-1.084
			c0-0.599-0.486-1.085-1.085-1.085H39.809z M527.187,47.988c-0.599,0-1.083,0.486-1.083,1.085v64.538h-51.992
			c-0.599,0-1.083,0.485-1.083,1.084v224.669c0,0.6,0.484,1.085,1.083,1.085s1.083-0.485,1.083-1.085V115.779h66.979v-2.168h-13.905
			V50.158h13.905v-2.17H527.187z M36.596,41.966h63v22.392h-63V41.966z M66.688,1.084v38.713H35.513
			c-0.599,0-1.085,0.485-1.085,1.085v23.476H17.787c-0.597,0-1.082,0.486-1.082,1.083v94.544H0v2.17h44.096v177.209
			c0,0.6,0.485,1.085,1.084,1.085c0.597,0,1.083-0.485,1.083-1.085v-40.108h44.134v40.108c0,0.6,0.483,1.085,1.082,1.085
			c0.598,0,1.082-0.485,1.082-1.085v-41.192c0-0.6-0.484-1.085-1.082-1.085H46.263v-14.923h54.415c0.599,0,1.085-0.487,1.085-1.085
			c0-0.6-0.486-1.086-1.085-1.086H46.263v-21.504h54.415c0.599,0,1.085-0.485,1.085-1.085c0-0.598-0.486-1.084-1.085-1.084H46.263
			v-21.505h54.415c0.599,0,1.085-0.486,1.085-1.084c0-0.597-0.486-1.083-1.085-1.083H46.263v-21.504h54.415
			c0.599,0,1.085-0.486,1.085-1.084c0-0.599-0.486-1.085-1.085-1.085H46.263v-21.504h54.415c0.599,0,1.085-0.486,1.085-1.085
			s-0.486-1.084-1.085-1.084H46.263v-21.505h54.415c0.599,0,1.085-0.486,1.085-1.084c0-0.6-0.486-1.085-1.085-1.085H46.263v-0.559
			c0-0.599-0.486-1.085-1.083-1.085H18.872v-93.46h97.801v272.839c0,0.6,0.484,1.085,1.082,1.085c0.6,0,1.083-0.485,1.083-1.085
			V65.441c0-0.597-0.483-1.083-1.083-1.083h-15.992V40.882c0-0.6-0.486-1.085-1.085-1.085H68.854V1.084
			C68.854,0.486,68.37,0,67.772,0C67.172,0,66.688,0.486,66.688,1.084"/>
	</defs>
	<clipPath id="SVGID_5_">
		<use xlink:href="#SVGID_4_"  overflow="visible"/>
	</clipPath>
	
		<linearGradient id="SVGID_6_" gradientUnits="userSpaceOnUse" x1="-687.4956" y1="708.2466" x2="-686.4956" y2="708.2466" gradientTransform="matrix(542.173 0 0 -542.173 372741.6563 384162.25)">
		<stop  offset="0" style="stop-color:#2FB29B"/>
		<stop  offset="0.3459" style="stop-color:#2FB29B"/>
		<stop  offset="1" style="stop-color:#19A0DB"/>
	</linearGradient>
	<rect clip-path="url(#SVGID_5_)" fill="url(#SVGID_6_)" width="542.174" height="340.449"/>
</g>
<g>
	<defs>
		<path id="SVGID_7_" d="M425.997,288.573c-0.447,0-0.807,0.362-0.807,0.81c0,0.448,0.359,0.809,0.807,0.809h20.218
			c0.446,0,0.81-0.36,0.81-0.809c0-0.447-0.363-0.81-0.81-0.81H425.997z"/>
	</defs>
	<clipPath id="SVGID_8_">
		<use xlink:href="#SVGID_7_"  overflow="visible"/>
	</clipPath>
	
		<linearGradient id="SVGID_9_" gradientUnits="userSpaceOnUse" x1="-687.5581" y1="710.7456" x2="-686.5581" y2="710.7456" gradientTransform="matrix(21.8342 0 0 -21.8342 15437.4736 15807.9629)">
		<stop  offset="0" style="stop-color:#2FB29B"/>
		<stop  offset="0.3459" style="stop-color:#2FB29B"/>
		<stop  offset="1" style="stop-color:#19A0DB"/>
	</linearGradient>
	<rect x="425.19" y="288.573" clip-path="url(#SVGID_8_)" fill="url(#SVGID_9_)" width="21.834" height="1.618"/>
</g>
<g>
	<defs>
		<path id="SVGID_10_" d="M410.179,309.594c-0.445,0-0.807,0.361-0.807,0.809s0.361,0.81,0.807,0.81h10.11
			c0.448,0,0.808-0.362,0.808-0.81s-0.359-0.809-0.808-0.809H410.179z"/>
	</defs>
	<clipPath id="SVGID_11_">
		<use xlink:href="#SVGID_10_"  overflow="visible"/>
	</clipPath>
	
		<linearGradient id="SVGID_12_" gradientUnits="userSpaceOnUse" x1="-687.6152" y1="712.9907" x2="-686.6152" y2="712.9907" gradientTransform="matrix(11.7242 0 0 -11.7242 8471.1094 8669.6738)">
		<stop  offset="0" style="stop-color:#2FB29B"/>
		<stop  offset="0.3459" style="stop-color:#2FB29B"/>
		<stop  offset="1" style="stop-color:#19A0DB"/>
	</linearGradient>
	<rect x="409.372" y="309.594" clip-path="url(#SVGID_11_)" fill="url(#SVGID_12_)" width="11.725" height="1.618"/>
</g>
<g>
	<defs>
		<path id="SVGID_13_" d="M171.548,300.612c-0.446,0-0.809,0.363-0.809,0.811c0,0.444,0.363,0.808,0.809,0.808h20.216
			c0.447,0,0.809-0.363,0.809-0.808c0-0.447-0.362-0.811-0.809-0.811H171.548z"/>
	</defs>
	<clipPath id="SVGID_14_">
		<use xlink:href="#SVGID_13_"  overflow="visible"/>
	</clipPath>
	
		<linearGradient id="SVGID_15_" gradientUnits="userSpaceOnUse" x1="-687.5581" y1="710.7456" x2="-686.5581" y2="710.7456" gradientTransform="matrix(21.8342 0 0 -21.8342 15183.0205 15819.9941)">
		<stop  offset="0" style="stop-color:#2FB29B"/>
		<stop  offset="0.3459" style="stop-color:#2FB29B"/>
		<stop  offset="1" style="stop-color:#19A0DB"/>
	</linearGradient>
	<rect x="170.739" y="300.612" clip-path="url(#SVGID_14_)" fill="url(#SVGID_15_)" width="21.834" height="1.618"/>
</g>
<g>
	<defs>
		<path id="SVGID_16_" d="M163.152,268.25c-0.447,0-0.809,0.362-0.809,0.81s0.362,0.809,0.809,0.809h43.565
			c0.446,0,0.809-0.361,0.809-0.809s-0.363-0.81-0.809-0.81H163.152z"/>
	</defs>
	<clipPath id="SVGID_17_">
		<use xlink:href="#SVGID_16_"  overflow="visible"/>
	</clipPath>
	
		<linearGradient id="SVGID_18_" gradientUnits="userSpaceOnUse" x1="-687.5244" y1="709.3989" x2="-686.5244" y2="709.3989" gradientTransform="matrix(45.1826 0 0 -45.1826 31226.4766 32321.5645)">
		<stop  offset="0" style="stop-color:#2FB29B"/>
		<stop  offset="0.3459" style="stop-color:#2FB29B"/>
		<stop  offset="1" style="stop-color:#19A0DB"/>
	</linearGradient>
	<rect x="162.343" y="268.25" clip-path="url(#SVGID_17_)" fill="url(#SVGID_18_)" width="45.183" height="1.619"/>
</g>
<g>
	<defs>
		<path id="SVGID_19_" d="M126.25,294.994c-0.447,0-0.808,0.363-0.808,0.811c0,0.446,0.361,0.809,0.808,0.809h20.218
			c0.447,0,0.809-0.362,0.809-0.809c0-0.447-0.362-0.811-0.809-0.811H126.25z"/>
	</defs>
	<clipPath id="SVGID_20_">
		<use xlink:href="#SVGID_19_"  overflow="visible"/>
	</clipPath>
	
		<linearGradient id="SVGID_21_" gradientUnits="userSpaceOnUse" x1="-687.5581" y1="710.7456" x2="-686.5581" y2="710.7456" gradientTransform="matrix(21.8342 0 0 -21.8342 15137.7236 15814.3848)">
		<stop  offset="0" style="stop-color:#2FB29B"/>
		<stop  offset="0.3459" style="stop-color:#2FB29B"/>
		<stop  offset="1" style="stop-color:#19A0DB"/>
	</linearGradient>
	<rect x="125.442" y="294.994" clip-path="url(#SVGID_20_)" fill="url(#SVGID_21_)" width="21.835" height="1.619"/>
</g>
<g>
	<defs>
		<path id="SVGID_22_" d="M174.825,284.946c-0.446,0-0.808,0.363-0.808,0.809c0,0.446,0.362,0.809,0.808,0.809h10.109
			c0.446,0,0.808-0.362,0.808-0.809c0-0.445-0.362-0.809-0.808-0.809H174.825z"/>
	</defs>
	<clipPath id="SVGID_23_">
		<use xlink:href="#SVGID_22_"  overflow="visible"/>
	</clipPath>
	
		<linearGradient id="SVGID_24_" gradientUnits="userSpaceOnUse" x1="-687.6138" y1="712.9907" x2="-686.6138" y2="712.9907" gradientTransform="matrix(11.7264 0 0 -11.7264 8237.2773 8646.6035)">
		<stop  offset="0" style="stop-color:#2FB29B"/>
		<stop  offset="0.3459" style="stop-color:#2FB29B"/>
		<stop  offset="1" style="stop-color:#19A0DB"/>
	</linearGradient>
	<rect x="174.017" y="284.946" clip-path="url(#SVGID_23_)" fill="url(#SVGID_24_)" width="11.725" height="1.617"/>
</g>
<g>
	<defs>
		<path id="SVGID_25_" d="M405.125,140.685c-0.446,0-0.806,0.363-0.806,0.809c0,0.448,0.359,0.81,0.806,0.81h20.218
			c0.447,0,0.811-0.361,0.811-0.81c0-0.445-0.363-0.809-0.811-0.809H405.125z"/>
	</defs>
	<clipPath id="SVGID_26_">
		<use xlink:href="#SVGID_25_"  overflow="visible"/>
	</clipPath>
	
		<linearGradient id="SVGID_27_" gradientUnits="userSpaceOnUse" x1="-687.5581" y1="710.7456" x2="-686.5581" y2="710.7456" gradientTransform="matrix(21.8342 0 0 -21.8342 15416.5986 15660.0723)">
		<stop  offset="0" style="stop-color:#2FB29B"/>
		<stop  offset="0.3459" style="stop-color:#2FB29B"/>
		<stop  offset="1" style="stop-color:#19A0DB"/>
	</linearGradient>
	<rect x="404.319" y="140.685" clip-path="url(#SVGID_26_)" fill="url(#SVGID_27_)" width="21.834" height="1.618"/>
</g>
<g>
	<defs>
		<path id="SVGID_28_" d="M208.335,166.733c-0.448,0-0.809,0.362-0.809,0.81c0,0.446,0.361,0.809,0.809,0.809h43.564
			c0.447,0,0.809-0.362,0.809-0.809c0-0.447-0.362-0.81-0.809-0.81H208.335z"/>
	</defs>
	<clipPath id="SVGID_29_">
		<use xlink:href="#SVGID_28_"  overflow="visible"/>
	</clipPath>
	
		<linearGradient id="SVGID_30_" gradientUnits="userSpaceOnUse" x1="-687.5244" y1="709.4009" x2="-686.5244" y2="709.4009" gradientTransform="matrix(45.1826 0 0 -45.1826 31271.6641 32220.0645)">
		<stop  offset="0" style="stop-color:#2FB29B"/>
		<stop  offset="0.3459" style="stop-color:#2FB29B"/>
		<stop  offset="1" style="stop-color:#19A0DB"/>
	</linearGradient>
	<rect x="207.526" y="166.733" clip-path="url(#SVGID_29_)" fill="url(#SVGID_30_)" width="45.182" height="1.618"/>
</g>
<g>
	<defs>
		<path id="SVGID_31_" d="M152.235,123.827c-0.447,0-0.809,0.362-0.809,0.81c0,0.448,0.362,0.81,0.809,0.81h20.216
			c0.446,0,0.809-0.361,0.809-0.81c0-0.447-0.363-0.81-0.809-0.81H152.235z"/>
	</defs>
	<clipPath id="SVGID_32_">
		<use xlink:href="#SVGID_31_"  overflow="visible"/>
	</clipPath>
	
		<linearGradient id="SVGID_33_" gradientUnits="userSpaceOnUse" x1="-687.5586" y1="710.7456" x2="-686.5586" y2="710.7456" gradientTransform="matrix(21.8342 0 0 -21.8342 15163.708 15643.2129)">
		<stop  offset="0" style="stop-color:#2FB29B"/>
		<stop  offset="0.3459" style="stop-color:#2FB29B"/>
		<stop  offset="1" style="stop-color:#19A0DB"/>
	</linearGradient>
	<rect x="151.426" y="123.827" clip-path="url(#SVGID_32_)" fill="url(#SVGID_33_)" width="21.834" height="1.619"/>
</g>
<g>
	<defs>
		<path id="SVGID_34_" d="M328.389,109.102c-0.445,0-0.809,0.361-0.809,0.806c0,0.447,0.363,0.81,0.809,0.81h10.109
			c0.447,0,0.808-0.363,0.808-0.81c0-0.445-0.36-0.806-0.808-0.806H328.389z"/>
	</defs>
	<clipPath id="SVGID_35_">
		<use xlink:href="#SVGID_34_"  overflow="visible"/>
	</clipPath>
	
		<linearGradient id="SVGID_36_" gradientUnits="userSpaceOnUse" x1="-687.6143" y1="712.9927" x2="-686.6143" y2="712.9927" gradientTransform="matrix(11.7264 0 0 -11.7264 8390.8477 8470.7598)">
		<stop  offset="0" style="stop-color:#2FB29B"/>
		<stop  offset="0.3459" style="stop-color:#2FB29B"/>
		<stop  offset="1" style="stop-color:#19A0DB"/>
	</linearGradient>
	<rect x="327.58" y="109.102" clip-path="url(#SVGID_35_)" fill="url(#SVGID_36_)" width="11.726" height="1.616"/>
</g>
<g>
	<defs>
		<path id="SVGID_37_" d="M154.374,327.65c-0.446,0-0.807,0.362-0.807,0.81c0,0.446,0.361,0.81,0.807,0.81h10.11
			c0.447,0,0.807-0.363,0.807-0.81c0-0.447-0.36-0.81-0.807-0.81H154.374z"/>
	</defs>
	<clipPath id="SVGID_38_">
		<use xlink:href="#SVGID_37_"  overflow="visible"/>
	</clipPath>
	
		<linearGradient id="SVGID_39_" gradientUnits="userSpaceOnUse" x1="-687.6147" y1="712.9907" x2="-686.6147" y2="712.9907" gradientTransform="matrix(11.7242 0 0 -11.7242 8215.3047 8687.7285)">
		<stop  offset="0" style="stop-color:#2FB29B"/>
		<stop  offset="0.3459" style="stop-color:#2FB29B"/>
		<stop  offset="1" style="stop-color:#19A0DB"/>
	</linearGradient>
	<rect x="153.567" y="327.65" clip-path="url(#SVGID_38_)" fill="url(#SVGID_39_)" width="11.724" height="1.619"/>
</g>
<g>
	<defs>
		<path id="SVGID_40_" d="M399.038,274.834c-0.447,0-0.811,0.362-0.811,0.807c0,0.447,0.363,0.81,0.811,0.81h11.141
			c0.447,0,0.811-0.362,0.811-0.81c0-0.444-0.363-0.807-0.811-0.807H399.038z"/>
	</defs>
	<clipPath id="SVGID_41_">
		<use xlink:href="#SVGID_40_"  overflow="visible"/>
	</clipPath>
	
		<linearGradient id="SVGID_42_" gradientUnits="userSpaceOnUse" x1="-687.6045" y1="712.5981" x2="-686.6045" y2="712.5981" gradientTransform="matrix(12.7603 0 0 -12.7603 9172.29 9368.6387)">
		<stop  offset="0" style="stop-color:#2FB29B"/>
		<stop  offset="0.3459" style="stop-color:#2FB29B"/>
		<stop  offset="1" style="stop-color:#19A0DB"/>
	</linearGradient>
	<rect x="398.228" y="274.834" clip-path="url(#SVGID_41_)" fill="url(#SVGID_42_)" width="12.762" height="1.616"/>
</g>
<g>
	<defs>
		<path id="SVGID_43_" d="M441.986,338.639c-0.599,0-1.082,0.484-1.082,1.082c0,0.6,0.483,1.085,1.082,1.085h100.188v-2.167H441.986
			z"/>
	</defs>
	<clipPath id="SVGID_44_">
		<use xlink:href="#SVGID_43_"  overflow="visible"/>
	</clipPath>
	
		<linearGradient id="SVGID_45_" gradientUnits="userSpaceOnUse" x1="-687.5068" y1="708.7036" x2="-686.5068" y2="708.7036" gradientTransform="matrix(101.2697 0 0 -101.2697 70064.5625 72109.875)">
		<stop  offset="0" style="stop-color:#2FB29B"/>
		<stop  offset="0.3459" style="stop-color:#2FB29B"/>
		<stop  offset="1" style="stop-color:#19A0DB"/>
	</linearGradient>
	<rect x="440.904" y="338.639" clip-path="url(#SVGID_44_)" fill="url(#SVGID_45_)" width="101.27" height="2.167"/>
</g>
<g>
	<defs>
		<path id="SVGID_46_" d="M134.227,338.639c-0.599,0-1.085,0.484-1.085,1.082c0,0.6,0.486,1.085,1.085,1.085h295.039
			c0.599,0,1.084-0.485,1.084-1.085c0-0.598-0.485-1.082-1.084-1.082H134.227z"/>
	</defs>
	<clipPath id="SVGID_47_">
		<use xlink:href="#SVGID_46_"  overflow="visible"/>
	</clipPath>
	
		<linearGradient id="SVGID_48_" gradientUnits="userSpaceOnUse" x1="-687.498" y1="708.3325" x2="-686.498" y2="708.3325" gradientTransform="matrix(297.2084 0 0 -297.2084 204463.4219 210862.0938)">
		<stop  offset="0" style="stop-color:#2FB29B"/>
		<stop  offset="0.3459" style="stop-color:#2FB29B"/>
		<stop  offset="1" style="stop-color:#19A0DB"/>
	</linearGradient>
	<rect x="133.142" y="338.639" clip-path="url(#SVGID_47_)" fill="url(#SVGID_48_)" width="297.208" height="2.167"/>
</g>
<g>
	<defs>
		<path id="SVGID_49_" d="M27.961,338.639c-0.6,0-1.083,0.484-1.083,1.082c0,0.6,0.483,1.085,1.083,1.085h113.074
			c0.6,0,1.085-0.485,1.085-1.085c0-0.598-0.485-1.082-1.085-1.082H27.961z"/>
	</defs>
	<clipPath id="SVGID_50_">
		<use xlink:href="#SVGID_49_"  overflow="visible"/>
	</clipPath>
	
		<linearGradient id="SVGID_51_" gradientUnits="userSpaceOnUse" x1="-687.5054" y1="708.6353" x2="-686.5054" y2="708.6353" gradientTransform="matrix(115.2421 0 0 -115.2421 79256.4375 82004.2656)">
		<stop  offset="0" style="stop-color:#2FB29B"/>
		<stop  offset="0.3459" style="stop-color:#2FB29B"/>
		<stop  offset="1" style="stop-color:#19A0DB"/>
	</linearGradient>
	<rect x="26.878" y="338.639" clip-path="url(#SVGID_50_)" fill="url(#SVGID_51_)" width="115.242" height="2.167"/>
</g>
<g>
	<defs>
		<path id="SVGID_52_" d="M0,338.639v2.167h14.949c0.599,0,1.085-0.485,1.085-1.085c0-0.598-0.486-1.082-1.085-1.082H0z"/>
	</defs>
	<clipPath id="SVGID_53_">
		<use xlink:href="#SVGID_52_"  overflow="visible"/>
	</clipPath>
	
		<linearGradient id="SVGID_54_" gradientUnits="userSpaceOnUse" x1="-687.5815" y1="711.688" x2="-686.5815" y2="711.688" gradientTransform="matrix(16.0331 0 0 -16.0331 11024.0869 11750.3145)">
		<stop  offset="0" style="stop-color:#2FB29B"/>
		<stop  offset="0.3459" style="stop-color:#2FB29B"/>
		<stop  offset="1" style="stop-color:#19A0DB"/>
	</linearGradient>
	<rect y="338.639" clip-path="url(#SVGID_53_)" fill="url(#SVGID_54_)" width="16.034" height="2.167"/>
</g>
<g opacity="0.15">
	<g>
		<defs>
			<rect id="SVGID_55_" x="195.282" y="271.867" width="206.335" height="67.297"/>
		</defs>
		<clipPath id="SVGID_56_">
			<use xlink:href="#SVGID_55_"  overflow="visible"/>
		</clipPath>
		<g clip-path="url(#SVGID_56_)">
			<defs>
				<path id="SVGID_57_" d="M400.809,300.713c0.199,0.958,0.461,1.985,0.807,3.098c-0.739,2.646-1.412,5.322-1.995,7.993
					c-0.184,0.845-0.308,1.95-0.44,3.118c-0.335,2.977-0.794,7.053-2.561,8.35c-1.989,1.462-7.513,1.467-10.483,1.469
					c-0.32,0-0.617,0-0.888,0.003c0.024-0.595,0.038-1.25,0.038-1.656c0-12.076-9.823-21.899-21.899-21.899
					c-12.074,0-21.897,9.823-21.897,21.899c0,0.075,0.005,0.151,0.005,0.226c-12.264-0.013-24.733,0.002-36.801,0.019
					c-16.226,0.022-32.993,0.048-48.977-0.014c0.02-0.075,0.036-0.151,0.036-0.23c0-12.076-9.823-21.899-21.899-21.899
					c-11.745,0-21.357,9.294-21.872,20.916c-4.83-3.146-10.577-8.519-13.476-15.077c-1.232-2.787-2.305-5.634-3.225-8.52
					c0.538-0.861,0.941-1.706,1.239-2.53c0.61,1.66,1.27,3.308,1.986,4.93c2.899,6.559,8.646,11.933,13.476,15.075
					c0.515-11.619,10.127-20.914,21.872-20.914c12.076,0,21.899,9.823,21.899,21.897c0,0.082-0.016,0.159-0.036,0.232
					c15.983,0.062,32.751,0.036,48.977,0.015c12.067-0.019,24.537-0.032,36.801-0.019c0-0.075-0.005-0.151-0.005-0.229
					c0-12.074,9.823-21.897,21.897-21.897c12.076,0,21.899,9.823,21.899,21.897c0,0.409-0.014,1.064-0.038,1.659
					c0.271-0.002,0.567-0.002,0.888-0.002c2.971-0.004,8.494-0.008,10.483-1.47c1.767-1.3,2.226-5.374,2.561-8.35
					c0.133-1.171,0.257-2.273,0.44-3.118C399.983,304.026,400.384,302.367,400.809,300.713 M233.854,335.636
					c-8.269,0-15.095-6.276-15.977-14.313c-0.063,0.579-0.1,1.166-0.1,1.764c0,8.862,7.214,16.076,16.077,16.076
					c8.865,0,16.076-7.214,16.076-16.076c0-0.598-0.034-1.185-0.097-1.764C248.951,329.36,242.122,335.636,233.854,335.636
					 M363.387,335.638c-8.269,0-15.096-6.275-15.977-14.314c-0.063,0.579-0.1,1.166-0.1,1.764c0,8.864,7.212,16.076,16.076,16.076
					c8.865,0,16.078-7.212,16.078-16.076c0-0.598-0.036-1.185-0.1-1.764C378.483,329.363,371.657,335.638,363.387,335.638
					 M274.778,274.21h-28.522c-1.112,0-2.086-0.425-2.651-1.112c-0.508,0.595-0.628,1.284-0.334,1.946
					c0.44,0.991,1.611,1.634,2.985,1.634h28.522c1.727,0,3.132-1.053,3.132-2.346v-2.466
					C277.91,273.16,276.505,274.21,274.778,274.21 M340.972,273.718c-0.312,0.287-0.757,0.492-1.363,0.492h-52.066
					c-1.067,0-1.934-0.777-1.934-1.731v2.466c0,0.956,0.866,1.733,1.934,1.733h52.066c1.151,0,1.738-0.739,1.89-1.374
					C341.618,274.814,341.517,274.185,340.972,273.718 M233.854,325.333c-1.724,0-3.163-1.247-3.464-2.887
					c-0.038,0.208-0.061,0.421-0.061,0.641c0,1.942,1.581,3.524,3.525,3.524c1.946,0,3.527-1.582,3.527-3.524
					c0-0.22-0.023-0.433-0.061-0.641C237.018,324.086,235.58,325.333,233.854,325.333 M363.387,325.333
					c-1.725,0-3.161-1.247-3.465-2.887c-0.038,0.208-0.061,0.421-0.061,0.641c0,1.942,1.581,3.524,3.525,3.524
					c1.945,0,3.527-1.582,3.527-3.524c0-0.22-0.022-0.433-0.061-0.641C366.55,324.086,365.113,325.333,363.387,325.333"/>
			</defs>
			<clipPath id="SVGID_58_">
				<use xlink:href="#SVGID_57_"  overflow="visible"/>
			</clipPath>
			
				<linearGradient id="SVGID_59_" gradientUnits="userSpaceOnUse" x1="-687.5" y1="708.4165" x2="-686.5" y2="708.4165" gradientTransform="matrix(206.3337 0 0 -206.3337 142049.6719 146475.6875)">
				<stop  offset="0" style="stop-color:#2FB29B"/>
				<stop  offset="0.3459" style="stop-color:#2FB29B"/>
				<stop  offset="1" style="stop-color:#19A0DB"/>
			</linearGradient>
			<rect x="195.281" y="271.867" clip-path="url(#SVGID_58_)" fill="url(#SVGID_59_)" width="206.333" height="67.297"/>
		</g>
	</g>
</g>
</svg>
