<?xml version="1.0" encoding="utf-8"?>
<!-- Generator: Adobe Illustrator 16.0.2, SVG Export Plug-In . SVG Version: 6.00 Build 0)  -->
<!DOCTYPE svg PUBLIC "-//W3C//DTD SVG 1.1//EN" "http://www.w3.org/Graphics/SVG/1.1/DTD/svg11.dtd">
<svg version="1.1" id="Layer_1" xmlns="http://www.w3.org/2000/svg" xmlns:xlink="http://www.w3.org/1999/xlink" x="0px" y="0px"
	 width="17.35px" height="16.146px" viewBox="0 0 17.35 16.146" enable-background="new 0 0 17.35 16.146" xml:space="preserve">
<g>
	<defs>
		<path id="SVGID_1_" d="M-3.45,23.854c-3.491,0-6.322,2.828-6.322,6.321v29.355c0,3.491,2.831,6.322,6.322,6.322h63.92V23.854
			H-3.45z"/>
	</defs>
	<clipPath id="SVGID_2_">
		<use xlink:href="#SVGID_1_"  overflow="visible"/>
	</clipPath>
	
		<linearGradient id="SVGID_3_" gradientUnits="userSpaceOnUse" x1="-1040.3057" y1="556.4087" x2="-1039.3047" y2="556.4087" gradientTransform="matrix(108.2856 106.7841 106.7841 -108.2856 53216.0703 171340.7813)">
		<stop  offset="0" style="stop-color:#2FB29B"/>
		<stop  offset="0.3459" style="stop-color:#2FB29B"/>
		<stop  offset="1" style="stop-color:#19A0DB"/>
	</linearGradient>
	<polygon clip-path="url(#SVGID_2_)" fill="url(#SVGID_3_)" points="24.858,-11.264 81.467,44.56 25.839,100.971 -30.771,45.147 	
		"/>
</g>
<circle fill="none" stroke="#FFFFFF" stroke-miterlimit="10" cx="38.782" cy="-1.473" r="3.611"/>
<path fill="none" stroke="#FFFFFF" stroke-miterlimit="10" d="M38.742,8.067c0,0,2.898,0.237,5.298-2.359
	c0,0,0.197-2.529-1.674-3.281l-1.306-0.619c0,0-0.144-0.25-0.09-0.448"/>
<path fill="none" stroke="#FFFFFF" stroke-miterlimit="10" d="M38.848,8.067c0,0-2.898,0.237-5.298-2.359
	c0,0-0.197-2.529,1.674-3.281l1.306-0.619c0,0,0.145-0.25,0.092-0.448"/>
<path fill="#FFFFFF" d="M13.001,4.804H6.639V1.946c0.954-0.02,3.116-0.02,4.071,0v1.681c0,0.293,0.239,0.53,0.533,0.53
	c0.295,0,0.532-0.237,0.532-0.53V1.44c0-0.544-0.389-0.549-1.327-0.562c-0.967-0.013-2.578-0.013-3.547,0
	C5.962,0.891,5.573,0.896,5.573,1.44v3.364H4.348c-1.056,0-1.913,0.859-1.913,1.914v6.646c0,1.055,0.857,1.913,1.913,1.913h8.653
	c1.057,0,1.914-0.858,1.914-1.913V6.718C14.915,5.664,14.058,4.804,13.001,4.804 M13.852,13.365c0,0.467-0.381,0.848-0.851,0.848
	H4.348c-0.468,0-0.849-0.381-0.849-0.848V6.718c0-0.467,0.381-0.848,0.849-0.848h8.653c0.47,0,0.851,0.381,0.851,0.848V13.365z"/>
<path fill="#FFFFFF" d="M7.961,11.903c0,0.472,0.385,0.856,0.856,0.856c0.473,0,0.857-0.385,0.857-0.856
	c0-0.474-0.385-0.856-0.857-0.856C8.346,11.046,7.961,11.429,7.961,11.903"/>
</svg>
