<?xml version="1.0" encoding="utf-8"?>
<!-- Generator: Adobe Illustrator 16.0.2, SVG Export Plug-In . SVG Version: 6.00 Build 0)  -->
<!DOCTYPE svg PUBLIC "-//W3C//DTD SVG 1.1//EN" "http://www.w3.org/Graphics/SVG/1.1/DTD/svg11.dtd">
<svg version="1.1" id="Layer_1" xmlns="http://www.w3.org/2000/svg" xmlns:xlink="http://www.w3.org/1999/xlink" x="0px" y="0px"
	 width="542.174px" height="480.745px" viewBox="0 -145.203 542.174 480.745" enable-background="new 0 -145.203 542.174 480.745"
	 xml:space="preserve">
<g>
	<defs>
		<path id="SVGID_1_" d="M516.786,243.362c-0.843,0-1.526,0.685-1.526,1.526c0,0.845,0.684,1.53,1.526,1.53h25.067v-3.057H516.786z
			 M516.786,205.904c-0.843,0-1.526,0.683-1.526,1.526c0,0.843,0.684,1.528,1.526,1.528h25.067v-3.055H516.786z M519.548,113.101
			v55.845c0,0.844,0.683,1.526,1.527,1.526c0.843,0,1.526-0.683,1.526-1.526v-55.845c0-0.842-0.684-1.526-1.526-1.526
			C520.23,111.575,519.548,112.26,519.548,113.101 M399.966,49.219c-0.843,0-1.526,0.685-1.526,1.529
			c0,0.843,0.684,1.528,1.526,1.528h85.785c0.843,0,1.526-0.685,1.526-1.528c0-0.844-0.684-1.529-1.526-1.529H399.966z
			 M399.966,15.855c-0.843,0-1.526,0.686-1.526,1.53c0,0.843,0.684,1.528,1.526,1.528h85.785c0.843,0,1.526-0.685,1.526-1.528
			c0-0.844-0.684-1.53-1.526-1.53H399.966z M399.966-17.506c-0.843,0-1.526,0.685-1.526,1.529c0,0.843,0.684,1.528,1.526,1.528
			h85.785c0.843,0,1.526-0.685,1.526-1.528c0-0.844-0.684-1.529-1.526-1.529H399.966z M401.493-86.06h88.788v31.557h-88.788V-86.06z
			 M444.817-143.674v54.557h-44.852c-0.843,0-1.526,0.686-1.526,1.53v33.084h-22.538c-0.844,0-1.526,0.683-1.526,1.528v386.042
			c0,0.845,0.683,1.528,1.526,1.528s1.525-0.684,1.525-1.528V-51.448H515.26V80.266h-37.077c-0.844,0-1.525,0.684-1.525,1.528v0.787
			h-76.691c-0.843,0-1.526,0.685-1.526,1.529c0,0.843,0.684,1.528,1.526,1.528h76.691v30.307h-76.691
			c-0.843,0-1.526,0.683-1.526,1.526c0,0.846,0.684,1.528,1.526,1.528h76.691v30.308h-76.691c-0.843,0-1.526,0.684-1.526,1.527
			s0.684,1.529,1.526,1.529h76.691v30.306h-76.691c-0.843,0-1.526,0.683-1.526,1.528c0,0.844,0.684,1.527,1.526,1.527h76.691v30.306
			h-76.691c-0.843,0-1.526,0.686-1.526,1.528c0,0.845,0.684,1.529,1.526,1.529h76.691v30.306h-76.691
			c-0.843,0-1.526,0.684-1.526,1.528s0.684,1.528,1.526,1.528h76.691v21.033h-63.724c-0.843,0-1.526,0.685-1.526,1.527v58.055
			c0,0.845,0.684,1.528,1.526,1.528c0.842,0,1.525-0.684,1.525-1.528v-56.527h62.198v56.527c0,0.845,0.682,1.528,1.525,1.528
			c0.843,0,1.526-0.684,1.526-1.528V83.322h62.145v-3.056h-23.543V-52.975c0-0.845-0.682-1.528-1.524-1.528h-23.453v-33.084
			c0-0.844-0.683-1.53-1.527-1.53h-43.937v-54.557c0-0.845-0.684-1.529-1.525-1.529
			C445.501-145.203,444.817-144.519,444.817-143.674"/>
	</defs>
	<clipPath id="SVGID_2_">
		<use xlink:href="#SVGID_1_"  overflow="visible"/>
	</clipPath>
	
		<linearGradient id="SVGID_3_" gradientUnits="userSpaceOnUse" x1="-688.5371" y1="709.6892" x2="-687.5367" y2="709.6892" gradientTransform="matrix(256.6638 253.1049 -253.1049 256.6638 356680.25 -7909.458)">
		<stop  offset="0" style="stop-color:#18B89E"/>
		<stop  offset="0.3459" style="stop-color:#18B89E"/>
		<stop  offset="1" style="stop-color:#16A0DB"/>
	</linearGradient>
	<polygon clip-path="url(#SVGID_2_)" fill="url(#SVGID_3_)" points="134.5,98.045 459.283,418.326 781.729,91.346 456.945,-228.934 
			"/>
</g>
<g>
	<defs>
		<path id="SVGID_4_" d="M120.333,317.82c0-1.945,1.582-3.527,3.525-3.527c1.945,0,3.527,1.582,3.527,3.527
			c0,1.943-1.582,3.525-3.527,3.525C121.915,321.345,120.333,319.763,120.333,317.82 M118.688,317.82c0,2.85,2.321,5.171,5.17,5.171
			c2.852,0,5.17-2.321,5.17-5.171c0-2.853-2.318-5.17-5.17-5.17C121.009,312.65,118.688,314.968,118.688,317.82 M249.866,317.82
			c0-1.945,1.581-3.527,3.525-3.527c1.946,0,3.527,1.582,3.527,3.527c0,1.943-1.581,3.525-3.527,3.525
			C251.447,321.345,249.866,319.763,249.866,317.82 M248.22,317.82c0,2.85,2.321,5.171,5.171,5.171c2.852,0,5.17-2.321,5.17-5.171
			c0-2.853-2.318-5.17-5.17-5.17C250.541,312.65,248.22,314.968,248.22,317.82 M107.783,317.82c0-8.864,7.212-16.076,16.075-16.076
			c8.865,0,16.076,7.212,16.076,16.076c0,8.862-7.211,16.076-16.076,16.076C114.995,333.896,107.783,326.682,107.783,317.82
			 M106.138,317.82c0,9.771,7.949,17.72,17.72,17.72s17.721-7.948,17.721-17.72s-7.95-17.721-17.721-17.721
			S106.138,308.049,106.138,317.82 M237.314,317.82c0-8.864,7.211-16.078,16.077-16.078c8.865,0,16.078,7.214,16.078,16.078
			c0,8.865-7.213,16.076-16.078,16.076C244.525,333.896,237.314,326.685,237.314,317.82 M235.67,317.82
			c0,9.771,7.949,17.722,17.721,17.722c9.771,0,17.721-7.95,17.721-17.722s-7.95-17.721-17.721-17.721
			C243.619,300.099,235.67,308.049,235.67,317.82 M191.301,280.45c-4.343,2.057-8.668,0.043-8.749,0.003
			c-0.41-0.199-0.9-0.027-1.099,0.379c-0.199,0.409-0.029,0.902,0.38,1.101c0.136,0.066,2.305,1.097,5.229,1.097
			c1.507,0,3.214-0.273,4.943-1.095c0.41-0.194,0.586-0.684,0.392-1.094c-0.14-0.297-0.435-0.471-0.743-0.471
			C191.536,280.37,191.415,280.394,191.301,280.45 M133.274,269.778c-0.302-0.686-0.169-1.397,0.382-2.007
			c4.612-5.099,13.674-11.587,30.658-13.548c0.159-0.018,0.317-0.027,0.475-0.027c0.911,0,1.779,0.303,2.389,0.846
			c0.335,0.298,0.737,0.802,0.737,1.503v12.521c0,1.292-1.407,2.345-3.132,2.345h-28.524
			C134.886,271.411,133.715,270.768,133.274,269.778 M164.125,252.59c-17.49,2.021-26.886,8.771-31.687,14.078
			c-0.985,1.087-1.233,2.499-0.667,3.778c0.704,1.584,2.466,2.608,4.488,2.608h28.524c2.632,0,4.775-1.791,4.775-3.988v-12.521
			c0-1.021-0.457-1.992-1.286-2.73c-0.91-0.812-2.185-1.261-3.498-1.261C164.559,252.553,164.342,252.566,164.125,252.59
			 M175.614,269.678v-13.355c0-1.144,0.933-2.108,2.171-2.242c1.58-0.172,3.192-0.25,4.833-0.25c17.163,0,37.053,8.771,47.95,14.34
			c0.91,0.465,1.08,1.271,0.935,1.867c-0.151,0.634-0.739,1.373-1.89,1.373h-52.067C176.48,271.411,175.614,270.634,175.614,269.678
			 M177.609,252.445c-2.074,0.224-3.64,1.891-3.64,3.878v13.355c0,1.861,1.604,3.376,3.577,3.376h52.067
			c1.973,0,3.173-1.322,3.489-2.631c0.365-1.516-0.336-2.976-1.786-3.717c-11.036-5.639-31.195-14.521-48.721-14.521
			C180.905,252.185,179.24,252.267,177.609,252.445 M293.236,286.177c1.367,2.542,0.517,5.294-0.386,8.191l-0.105,0.337
			c-0.081,0.266-0.158,0.538-0.239,0.805C291.287,290.038,292.446,287.306,293.236,286.177 M83.222,285.511
			c-0.395-1.85-0.763-3.927-0.508-5.924c1.621,1.935,4.321,6.247,1.905,11.449C84.091,289.205,83.62,287.364,83.222,285.511
			 M88.511,301.76c-1.23-2.786-2.305-5.633-3.225-8.519c4.728-7.591-0.553-13.958-2.109-15.575c1.097-2.865,3.991-5.443,8.036-7.127
			c3.62-1.508,7.623-2.38,11.496-3.225c2.264-0.495,4.607-1.006,6.854-1.64c7.269-2.049,14.418-4.78,21.328-7.425
			c8.912-3.407,18.13-6.932,27.65-8.996c17.373-3.762,36.046-2.63,52.576,3.196c6.628,2.334,12.924,5.672,19.012,8.9
			c2.569,1.363,5.227,2.771,7.88,4.091c9.297,4.618,19.552,7.455,29.26,9.961c1.795,0.466,3.737,0.854,5.791,1.268
			c6.977,1.403,14.839,2.997,19.175,8.111c-1.183,1.369-3.276,5.226-0.615,13.763c-0.739,2.647-1.412,5.322-1.995,7.993
			c-0.183,0.845-0.308,1.951-0.44,3.119c-0.336,2.976-0.793,7.052-2.561,8.35c-1.989,1.461-7.514,1.466-10.484,1.469
			c-0.319,0-0.614,0-0.887,0.002c0.024-0.594,0.038-1.25,0.038-1.656c0-12.076-9.823-21.899-21.899-21.899
			c-12.075,0-21.898,9.823-21.898,21.899c0,0.074,0.005,0.151,0.005,0.226c-12.264-0.013-24.733,0.003-36.801,0.019
			c-16.225,0.022-32.992,0.048-48.975-0.014c0.02-0.075,0.036-0.15,0.036-0.23c0-12.076-9.823-21.899-21.9-21.899
			c-11.744,0-21.357,9.294-21.872,20.917C97.156,313.692,91.41,308.318,88.511,301.76 M158.193,247.647
			c-9.642,2.091-18.919,5.639-27.891,9.068c-6.876,2.628-13.987,5.35-21.187,7.378c-2.198,0.619-4.515,1.126-6.757,1.614
			c-3.943,0.861-8.02,1.749-11.777,3.313c-4.703,1.955-8.029,5.091-9.13,8.598v0.002l-0.007,0.018
			c-0.87,2.796-0.366,5.709,0.172,8.22c0.535,2.494,1.195,4.976,1.964,7.43c0.011,0.062,0.029,0.12,0.054,0.178
			c0.956,3.035,2.079,6.032,3.374,8.961c3.302,7.472,10.096,13.466,15.356,16.584c0.39,0.233,0.893,0.105,1.125-0.287
			c0.123-0.208,0.142-0.449,0.074-0.661c0.025-0.077,0.041-0.158,0.041-0.242c0-11.169,9.086-20.254,20.254-20.254
			c11.17,0,20.254,9.085,20.254,20.254c0,0.201,0.076,0.382,0.194,0.524c-0.117,0.143-0.192,0.323-0.194,0.521
			c-0.002,0.455,0.366,0.826,0.821,0.826c7.802,0.03,15.8,0.043,23.834,0.043c8.666,0,17.376-0.016,25.933-0.025
			c12.336-0.018,25.09-0.035,37.614-0.018c0.02,0,0.038-0.002,0.056-0.005h0.012l0.036-0.005c0.027-0.005,0.057-0.008,0.081-0.014
			c0.395-0.076,0.682-0.429,0.662-0.843c-0.016-0.334-0.025-0.669-0.025-1.006c0-11.169,9.087-20.254,20.255-20.254
			c11.17,0,20.253,9.085,20.253,20.254c0,0.685-0.033,1.842-0.085,2.406c-0.042,0.45,0.294,0.851,0.745,0.894
			c0.025,0.002,0.051,0.002,0.075,0.002c0.146,0,0.275-0.05,0.396-0.117c0.12,0.072,0.264,0.117,0.416,0.117h0.006
			c0.284-0.002,0.601-0.002,0.944-0.002c3.379-0.003,9.031-0.007,11.453-1.787c2.35-1.727,2.833-6.032,3.224-9.492
			c0.127-1.128,0.248-2.191,0.411-2.954c0.856-3.925,1.896-7.857,3.086-11.692l0.104-0.335c1.077-3.462,2.19-7.042-0.38-10.475
			l-0.005-0.007l-0.006-0.01l-0.021-0.027c-4.596-6.059-13.111-7.772-20.623-9.282c-2.034-0.409-3.952-0.796-5.708-1.248
			c-9.622-2.484-19.784-5.294-28.935-9.843c-2.637-1.308-5.283-2.713-7.843-4.069c-6.142-3.258-12.492-6.624-19.237-8.999
			c-10.299-3.631-21.417-5.47-32.547-5.47C172.078,245.429,165.037,246.165,158.193,247.647"/>
	</defs>
	<clipPath id="SVGID_5_">
		<use xlink:href="#SVGID_4_"  overflow="visible"/>
	</clipPath>
	
		<linearGradient id="SVGID_6_" gradientUnits="userSpaceOnUse" x1="-688.416" y1="710.197" x2="-687.416" y2="710.197" gradientTransform="matrix(214.6369 0 0 -214.6369 147840.3906 152724.9688)">
		<stop  offset="0" style="stop-color:#18B89E"/>
		<stop  offset="0.3459" style="stop-color:#18B89E"/>
		<stop  offset="1" style="stop-color:#16A0DB"/>
	</linearGradient>
	<rect x="80.574" y="245.429" clip-path="url(#SVGID_5_)" fill="url(#SVGID_6_)" width="216.036" height="90.112"/>
</g>
<g>
	<defs>
		<rect id="SVGID_7_" x="-689" y="-433" width="1920" height="1080"/>
	</defs>
	<clipPath id="SVGID_8_">
		<use xlink:href="#SVGID_7_"  overflow="visible"/>
	</clipPath>
	<g opacity="0.15" clip-path="url(#SVGID_8_)">
		<g>
			<defs>
				<rect id="SVGID_9_" x="85.125" y="266.599" width="206.334" height="67.298"/>
			</defs>
			<clipPath id="SVGID_10_">
				<use xlink:href="#SVGID_9_"  overflow="visible"/>
			</clipPath>
			<g clip-path="url(#SVGID_10_)">
				<defs>
					<path id="SVGID_11_" d="M290.652,295.446c0.199,0.958,0.461,1.986,0.807,3.098c-0.739,2.647-1.412,5.322-1.995,7.993
						c-0.184,0.845-0.308,1.95-0.44,3.119c-0.336,2.976-0.795,7.053-2.561,8.35c-1.989,1.462-7.514,1.466-10.484,1.469
						c-0.319,0-0.616,0-0.887,0.002c0.024-0.595,0.038-1.25,0.038-1.656c0-12.076-9.823-21.899-21.9-21.899
						c-12.074,0-21.897,9.823-21.897,21.899c0,0.074,0.005,0.151,0.005,0.226c-12.264-0.013-24.734,0.003-36.801,0.019
						c-16.225,0.022-32.993,0.048-48.976-0.014c0.02-0.074,0.036-0.151,0.036-0.23c0-12.076-9.824-21.899-21.9-21.899
						c-11.744,0-21.356,9.294-21.872,20.916c-4.829-3.145-10.576-8.519-13.474-15.077c-1.233-2.786-2.306-5.634-3.226-8.519
						c0.538-0.861,0.94-1.706,1.239-2.531c0.61,1.661,1.27,3.308,1.987,4.931c2.898,6.559,8.645,11.932,13.474,15.075
						c0.516-11.62,10.128-20.915,21.872-20.915c12.076,0,21.9,9.824,21.9,21.898c0,0.081-0.016,0.158-0.036,0.232
						c15.983,0.062,32.751,0.036,48.976,0.014c12.067-0.019,24.537-0.031,36.801-0.019c0-0.074-0.005-0.151-0.005-0.228
						c0-12.074,9.823-21.898,21.897-21.898c12.077,0,21.9,9.824,21.9,21.898c0,0.409-0.014,1.063-0.038,1.658
						c0.271-0.002,0.567-0.002,0.887-0.002c2.971-0.003,8.495-0.008,10.484-1.47c1.766-1.299,2.225-5.373,2.561-8.35
						c0.133-1.17,0.257-2.273,0.44-3.118C289.827,298.759,290.229,297.1,290.652,295.446 M123.697,330.369
						c-8.268,0-15.094-6.275-15.976-14.312c-0.064,0.578-0.1,1.166-0.1,1.763c0,8.862,7.214,16.077,16.076,16.077
						c8.865,0,16.076-7.215,16.076-16.077c0-0.597-0.033-1.185-0.096-1.763C138.795,324.094,131.966,330.369,123.697,330.369
						 M253.23,330.371c-8.268,0-15.095-6.275-15.976-14.313c-0.064,0.578-0.1,1.166-0.1,1.763c0,8.865,7.211,16.077,16.076,16.077
						c8.866,0,16.079-7.212,16.079-16.077c0-0.597-0.037-1.185-0.1-1.763C268.328,324.095,261.501,330.371,253.23,330.371
						 M164.622,268.944H136.1c-1.113,0-2.086-0.426-2.652-1.112c-0.508,0.594-0.628,1.283-0.334,1.945
						c0.441,0.992,1.612,1.634,2.986,1.634h28.522c1.727,0,3.132-1.053,3.132-2.346v-2.466
						C167.754,267.892,166.349,268.944,164.622,268.944 M230.815,268.451c-0.311,0.287-0.756,0.493-1.362,0.493h-52.067
						c-1.068,0-1.933-0.777-1.933-1.731v2.465c0,0.956,0.865,1.733,1.933,1.733h52.067c1.151,0,1.737-0.739,1.889-1.373
						C231.462,269.547,231.36,268.919,230.815,268.451 M123.697,320.066c-1.723,0-3.163-1.247-3.464-2.886
						c-0.038,0.208-0.06,0.42-0.06,0.64c0,1.943,1.581,3.525,3.524,3.525c1.947,0,3.529-1.582,3.529-3.525
						c0-0.22-0.024-0.432-0.062-0.64C126.861,318.819,125.424,320.066,123.697,320.066 M253.23,320.066
						c-1.724,0-3.161-1.247-3.463-2.886c-0.039,0.208-0.062,0.42-0.062,0.64c0,1.943,1.582,3.525,3.525,3.525
						c1.946,0,3.528-1.582,3.528-3.525c0-0.22-0.023-0.432-0.061-0.64C256.395,318.819,254.957,320.066,253.23,320.066"/>
				</defs>
				<clipPath id="SVGID_12_">
					<use xlink:href="#SVGID_11_"  overflow="visible"/>
				</clipPath>
				
					<linearGradient id="SVGID_13_" gradientUnits="userSpaceOnUse" x1="-688.4165" y1="710.2097" x2="-687.4165" y2="710.2097" gradientTransform="matrix(206.3337 0 0 -206.3337 142128.5625 146840.2969)">
					<stop  offset="0" style="stop-color:#18B89E"/>
					<stop  offset="0.3459" style="stop-color:#18B89E"/>
					<stop  offset="1" style="stop-color:#16A0DB"/>
				</linearGradient>
				<rect x="85.125" y="266.599" clip-path="url(#SVGID_12_)" fill="url(#SVGID_13_)" width="206.334" height="67.298"/>
			</g>
		</g>
	</g>
</g>
<g>
	<defs>
		<path id="SVGID_14_" d="M315.841,283.305c-0.447,0-0.808,0.362-0.808,0.811c0,0.446,0.36,0.809,0.808,0.809h20.218
			c0.446,0,0.809-0.362,0.809-0.809c0-0.448-0.362-0.811-0.809-0.811H315.841z"/>
	</defs>
	<clipPath id="SVGID_15_">
		<use xlink:href="#SVGID_14_"  overflow="visible"/>
	</clipPath>
	
		<linearGradient id="SVGID_16_" gradientUnits="userSpaceOnUse" x1="-688.4404" y1="712.7849" x2="-687.4404" y2="712.7849" gradientTransform="matrix(21.8342 0 0 -21.8342 15346.5771 15847.208)">
		<stop  offset="0" style="stop-color:#18B89E"/>
		<stop  offset="0.3459" style="stop-color:#18B89E"/>
		<stop  offset="1" style="stop-color:#16A0DB"/>
	</linearGradient>
	<rect x="315.033" y="283.305" clip-path="url(#SVGID_15_)" fill="url(#SVGID_16_)" width="21.834" height="1.619"/>
</g>
<g>
	<defs>
		<path id="SVGID_17_" d="M300.023,304.327c-0.445,0-0.808,0.362-0.808,0.809c0,0.447,0.362,0.81,0.808,0.81h10.109
			c0.448,0,0.808-0.362,0.808-0.81c0-0.446-0.359-0.809-0.808-0.809H300.023z"/>
	</defs>
	<clipPath id="SVGID_18_">
		<use xlink:href="#SVGID_17_"  overflow="visible"/>
	</clipPath>
	
		<linearGradient id="SVGID_19_" gradientUnits="userSpaceOnUse" x1="-688.4639" y1="715.2693" x2="-687.4639" y2="715.2693" gradientTransform="matrix(11.7242 0 0 -11.7242 8370.9053 8691.1035)">
		<stop  offset="0" style="stop-color:#18B89E"/>
		<stop  offset="0.3459" style="stop-color:#18B89E"/>
		<stop  offset="1" style="stop-color:#16A0DB"/>
	</linearGradient>
	<rect x="299.216" y="304.327" clip-path="url(#SVGID_18_)" fill="url(#SVGID_19_)" width="11.724" height="1.618"/>
</g>
<g>
	<defs>
		<path id="SVGID_20_" d="M61.391,295.346c-0.445,0-0.808,0.361-0.808,0.81c0,0.443,0.363,0.806,0.808,0.806h20.216
			c0.447,0,0.81-0.362,0.81-0.806c0-0.448-0.363-0.81-0.81-0.81H61.391z"/>
	</defs>
	<clipPath id="SVGID_21_">
		<use xlink:href="#SVGID_20_"  overflow="visible"/>
	</clipPath>
	
		<linearGradient id="SVGID_22_" gradientUnits="userSpaceOnUse" x1="-688.4399" y1="712.7849" x2="-687.4399" y2="712.7849" gradientTransform="matrix(21.8342 0 0 -21.8342 15092.124 15859.2549)">
		<stop  offset="0" style="stop-color:#18B89E"/>
		<stop  offset="0.3459" style="stop-color:#18B89E"/>
		<stop  offset="1" style="stop-color:#16A0DB"/>
	</linearGradient>
	<rect x="60.583" y="295.346" clip-path="url(#SVGID_21_)" fill="url(#SVGID_22_)" width="21.834" height="1.615"/>
</g>
<g>
	<defs>
		<path id="SVGID_23_" d="M52.996,262.984c-0.446,0-0.809,0.361-0.809,0.81c0,0.446,0.363,0.809,0.809,0.809H96.56
			c0.447,0,0.809-0.362,0.809-0.809c0-0.448-0.362-0.81-0.809-0.81H52.996z"/>
	</defs>
	<clipPath id="SVGID_24_">
		<use xlink:href="#SVGID_23_"  overflow="visible"/>
	</clipPath>
	
		<linearGradient id="SVGID_25_" gradientUnits="userSpaceOnUse" x1="-688.4258" y1="711.2966" x2="-687.4258" y2="711.2966" gradientTransform="matrix(45.1826 0 0 -45.1826 31157.0586 32401.9766)">
		<stop  offset="0" style="stop-color:#18B89E"/>
		<stop  offset="0.3459" style="stop-color:#18B89E"/>
		<stop  offset="1" style="stop-color:#16A0DB"/>
	</linearGradient>
	<rect x="52.187" y="262.984" clip-path="url(#SVGID_24_)" fill="url(#SVGID_25_)" width="45.182" height="1.619"/>
</g>
<g>
	<defs>
		<path id="SVGID_26_" d="M16.093,289.727c-0.446,0-0.806,0.362-0.806,0.81s0.36,0.809,0.806,0.809h20.219
			c0.447,0,0.809-0.361,0.809-0.809s-0.362-0.81-0.809-0.81H16.093z"/>
	</defs>
	<clipPath id="SVGID_27_">
		<use xlink:href="#SVGID_26_"  overflow="visible"/>
	</clipPath>
	
		<linearGradient id="SVGID_28_" gradientUnits="userSpaceOnUse" x1="-688.4404" y1="712.7849" x2="-687.4404" y2="712.7849" gradientTransform="matrix(21.8342 0 0 -21.8342 15046.8271 15853.6299)">
		<stop  offset="0" style="stop-color:#18B89E"/>
		<stop  offset="0.3459" style="stop-color:#18B89E"/>
		<stop  offset="1" style="stop-color:#16A0DB"/>
	</linearGradient>
	<rect x="15.287" y="289.727" clip-path="url(#SVGID_27_)" fill="url(#SVGID_28_)" width="21.834" height="1.618"/>
</g>
<g>
	<defs>
		<path id="SVGID_29_" d="M64.669,279.678c-0.446,0-0.809,0.363-0.809,0.809c0,0.446,0.363,0.81,0.809,0.81h10.108
			c0.446,0,0.809-0.363,0.809-0.81c0-0.445-0.363-0.809-0.809-0.809H64.669z"/>
	</defs>
	<clipPath id="SVGID_30_">
		<use xlink:href="#SVGID_29_"  overflow="visible"/>
	</clipPath>
	
		<linearGradient id="SVGID_31_" gradientUnits="userSpaceOnUse" x1="-688.4629" y1="715.2693" x2="-687.4629" y2="715.2693" gradientTransform="matrix(11.7264 0 0 -11.7264 8137.0747 8668.0381)">
		<stop  offset="0" style="stop-color:#18B89E"/>
		<stop  offset="0.3459" style="stop-color:#18B89E"/>
		<stop  offset="1" style="stop-color:#16A0DB"/>
	</linearGradient>
	<rect x="63.86" y="279.678" clip-path="url(#SVGID_30_)" fill="url(#SVGID_31_)" width="11.726" height="1.618"/>
</g>
<g>
	<defs>
		<path id="SVGID_32_" d="M294.969,235.481c-0.445,0-0.807,0.362-0.807,0.809c0,0.448,0.361,0.81,0.807,0.81h20.219
			c0.446,0,0.809-0.361,0.809-0.81c0-0.446-0.362-0.809-0.809-0.809H294.969z"/>
	</defs>
	<clipPath id="SVGID_33_">
		<use xlink:href="#SVGID_32_"  overflow="visible"/>
	</clipPath>
	
		<linearGradient id="SVGID_34_" gradientUnits="userSpaceOnUse" x1="-688.4404" y1="712.7849" x2="-687.4404" y2="712.7849" gradientTransform="matrix(21.8342 0 0 -21.8342 15325.7021 15799.3799)">
		<stop  offset="0" style="stop-color:#18B89E"/>
		<stop  offset="0.3459" style="stop-color:#18B89E"/>
		<stop  offset="1" style="stop-color:#16A0DB"/>
	</linearGradient>
	<rect x="294.162" y="235.481" clip-path="url(#SVGID_33_)" fill="url(#SVGID_34_)" width="21.834" height="1.618"/>
</g>
<g>
	<defs>
		<path id="SVGID_35_" d="M98.179,231.51c-0.448,0-0.81,0.362-0.81,0.811c0,0.446,0.362,0.809,0.81,0.809h43.564
			c0.447,0,0.808-0.362,0.808-0.809c0-0.448-0.361-0.811-0.808-0.811H98.179z"/>
	</defs>
	<clipPath id="SVGID_36_">
		<use xlink:href="#SVGID_35_"  overflow="visible"/>
	</clipPath>
	
		<linearGradient id="SVGID_37_" gradientUnits="userSpaceOnUse" x1="-688.4263" y1="711.2966" x2="-687.4263" y2="711.2966" gradientTransform="matrix(45.1826 0 0 -45.1826 31202.2461 32370.5078)">
		<stop  offset="0" style="stop-color:#18B89E"/>
		<stop  offset="0.3459" style="stop-color:#18B89E"/>
		<stop  offset="1" style="stop-color:#16A0DB"/>
	</linearGradient>
	<rect x="97.369" y="231.51" clip-path="url(#SVGID_36_)" fill="url(#SVGID_37_)" width="45.182" height="1.619"/>
</g>
<g>
	<defs>
		<path id="SVGID_38_" d="M42.079,218.623c-0.447,0-0.809,0.362-0.809,0.809c0,0.448,0.362,0.811,0.809,0.811h20.216
			c0.446,0,0.81-0.362,0.81-0.811c0-0.446-0.364-0.809-0.81-0.809H42.079z"/>
	</defs>
	<clipPath id="SVGID_39_">
		<use xlink:href="#SVGID_38_"  overflow="visible"/>
	</clipPath>
	
		<linearGradient id="SVGID_40_" gradientUnits="userSpaceOnUse" x1="-688.4404" y1="712.7839" x2="-687.4404" y2="712.7839" gradientTransform="matrix(21.8342 0 0 -21.8342 15072.8115 15782.5205)">
		<stop  offset="0" style="stop-color:#18B89E"/>
		<stop  offset="0.3459" style="stop-color:#18B89E"/>
		<stop  offset="1" style="stop-color:#16A0DB"/>
	</linearGradient>
	<rect x="41.27" y="218.623" clip-path="url(#SVGID_39_)" fill="url(#SVGID_40_)" width="21.835" height="1.619"/>
</g>
<g>
	<defs>
		<path id="SVGID_41_" d="M218.233,213.904c-0.446,0-0.809,0.362-0.809,0.807c0,0.447,0.363,0.809,0.809,0.809h10.109
			c0.447,0,0.808-0.361,0.808-0.809c0-0.444-0.361-0.807-0.808-0.807H218.233z"/>
	</defs>
	<clipPath id="SVGID_42_">
		<use xlink:href="#SVGID_41_"  overflow="visible"/>
	</clipPath>
	
		<linearGradient id="SVGID_43_" gradientUnits="userSpaceOnUse" x1="-688.4629" y1="715.2673" x2="-687.4629" y2="715.2673" gradientTransform="matrix(11.7264 0 0 -11.7264 8290.6445 8602.2568)">
		<stop  offset="0" style="stop-color:#18B89E"/>
		<stop  offset="0.3459" style="stop-color:#18B89E"/>
		<stop  offset="1" style="stop-color:#16A0DB"/>
	</linearGradient>
	<rect x="217.424" y="213.904" clip-path="url(#SVGID_42_)" fill="url(#SVGID_43_)" width="11.726" height="1.615"/>
</g>
<g>
	<defs>
		<path id="SVGID_44_" d="M44.217,322.384c-0.445,0-0.806,0.361-0.806,0.81c0,0.446,0.361,0.809,0.806,0.809h10.111
			c0.447,0,0.806-0.362,0.806-0.809c0-0.448-0.359-0.81-0.806-0.81H44.217z"/>
	</defs>
	<clipPath id="SVGID_45_">
		<use xlink:href="#SVGID_44_"  overflow="visible"/>
	</clipPath>
	
		<linearGradient id="SVGID_46_" gradientUnits="userSpaceOnUse" x1="-688.4634" y1="715.2693" x2="-687.4639" y2="715.2693" gradientTransform="matrix(11.7242 0 0 -11.7242 8115.1006 8709.166)">
		<stop  offset="0" style="stop-color:#18B89E"/>
		<stop  offset="0.3459" style="stop-color:#18B89E"/>
		<stop  offset="1" style="stop-color:#16A0DB"/>
	</linearGradient>
	<rect x="43.411" y="322.384" clip-path="url(#SVGID_45_)" fill="url(#SVGID_46_)" width="11.723" height="1.618"/>
</g>
<g>
	<defs>
		<path id="SVGID_47_" d="M288.881,269.567c-0.447,0-0.809,0.363-0.809,0.807c0,0.448,0.361,0.81,0.809,0.81h11.143
			c0.446,0,0.809-0.361,0.809-0.81c0-0.443-0.362-0.807-0.809-0.807H288.881z"/>
	</defs>
	<clipPath id="SVGID_48_">
		<use xlink:href="#SVGID_47_"  overflow="visible"/>
	</clipPath>
	
		<linearGradient id="SVGID_49_" gradientUnits="userSpaceOnUse" x1="-688.459" y1="714.8337" x2="-687.459" y2="714.8337" gradientTransform="matrix(12.7603 0 0 -12.7603 9073.0391 9391.8926)">
		<stop  offset="0" style="stop-color:#18B89E"/>
		<stop  offset="0.3459" style="stop-color:#18B89E"/>
		<stop  offset="1" style="stop-color:#16A0DB"/>
	</linearGradient>
	<rect x="288.072" y="269.567" clip-path="url(#SVGID_48_)" fill="url(#SVGID_49_)" width="12.76" height="1.616"/>
</g>
<g>
	<defs>
		<path id="SVGID_50_" d="M441.899,333.372c-0.599,0-1.082,0.484-1.082,1.082c0,0.6,0.483,1.086,1.082,1.086h100.188v-2.168H441.899
			z"/>
	</defs>
	<clipPath id="SVGID_51_">
		<use xlink:href="#SVGID_50_"  overflow="visible"/>
	</clipPath>
	
		<linearGradient id="SVGID_52_" gradientUnits="userSpaceOnUse" x1="-688.4185" y1="710.5261" x2="-687.4185" y2="710.5261" gradientTransform="matrix(101.2697 0 0 -101.2697 70156.7969 72289.1875)">
		<stop  offset="0" style="stop-color:#18B89E"/>
		<stop  offset="0.3459" style="stop-color:#18B89E"/>
		<stop  offset="1" style="stop-color:#16A0DB"/>
	</linearGradient>
	<rect x="440.817" y="333.372" clip-path="url(#SVGID_51_)" fill="url(#SVGID_52_)" width="101.27" height="2.168"/>
</g>
<g>
	<defs>
		<path id="SVGID_53_" d="M134.14,333.372c-0.599,0-1.085,0.484-1.085,1.082c0,0.6,0.486,1.086,1.085,1.086h295.039
			c0.599,0,1.084-0.486,1.084-1.086c0-0.598-0.485-1.082-1.084-1.082H134.14z"/>
	</defs>
	<clipPath id="SVGID_54_">
		<use xlink:href="#SVGID_53_"  overflow="visible"/>
	</clipPath>
	
		<linearGradient id="SVGID_55_" gradientUnits="userSpaceOnUse" x1="-688.415" y1="710.116" x2="-687.415" y2="710.116" gradientTransform="matrix(297.2084 0 0 -297.2084 204735.9219 211386.7813)">
		<stop  offset="0" style="stop-color:#18B89E"/>
		<stop  offset="0.3459" style="stop-color:#18B89E"/>
		<stop  offset="1" style="stop-color:#16A0DB"/>
	</linearGradient>
	<rect x="133.055" y="333.372" clip-path="url(#SVGID_54_)" fill="url(#SVGID_55_)" width="297.208" height="2.168"/>
</g>
<g>
	<defs>
		<path id="SVGID_56_" d="M27.874,333.372c-0.6,0-1.083,0.484-1.083,1.082c0,0.6,0.483,1.086,1.083,1.086h113.074
			c0.6,0,1.085-0.486,1.085-1.086c0-0.598-0.485-1.082-1.085-1.082H27.874z"/>
	</defs>
	<clipPath id="SVGID_57_">
		<use xlink:href="#SVGID_56_"  overflow="visible"/>
	</clipPath>
	
		<linearGradient id="SVGID_58_" gradientUnits="userSpaceOnUse" x1="-688.418" y1="710.449" x2="-687.418" y2="710.449" gradientTransform="matrix(115.2421 0 0 -115.2421 79361.5234 82208.1875)">
		<stop  offset="0" style="stop-color:#18B89E"/>
		<stop  offset="0.3459" style="stop-color:#18B89E"/>
		<stop  offset="1" style="stop-color:#16A0DB"/>
	</linearGradient>
	<rect x="26.791" y="333.372" clip-path="url(#SVGID_57_)" fill="url(#SVGID_58_)" width="115.242" height="2.168"/>
</g>
<g>
	<defs>
		<path id="SVGID_59_" d="M-0.087,333.372v2.168h14.949c0.599,0,1.085-0.486,1.085-1.086c0-0.598-0.486-1.082-1.085-1.082H-0.087z"
			/>
	</defs>
	<clipPath id="SVGID_60_">
		<use xlink:href="#SVGID_59_"  overflow="visible"/>
	</clipPath>
	
		<linearGradient id="SVGID_61_" gradientUnits="userSpaceOnUse" x1="-688.4492" y1="713.8279" x2="-687.4492" y2="713.8279" gradientTransform="matrix(16.0331 0 0 -16.0331 11037.916 11779.3447)">
		<stop  offset="0" style="stop-color:#18B89E"/>
		<stop  offset="0.3459" style="stop-color:#18B89E"/>
		<stop  offset="1" style="stop-color:#16A0DB"/>
	</linearGradient>
	<rect x="-0.087" y="333.372" clip-path="url(#SVGID_60_)" fill="url(#SVGID_61_)" width="16.034" height="2.168"/>
</g>
<g>
	<defs>
		<rect id="SVGID_62_" x="-689" y="-369" width="1920" height="1080"/>
	</defs>
	<clipPath id="SVGID_63_">
		<use xlink:href="#SVGID_62_"  overflow="visible"/>
	</clipPath>
	<path clip-path="url(#SVGID_63_)" fill="#FFFFFF" d="M779.224-70.244h0.521c0.063,0,0.115,0.052,0.115,0.115"/>
	<line clip-path="url(#SVGID_63_)" fill="#FFFFFF" x1="779.671" y1="-70.446" x2="779.671" y2="-70.315"/>
	<path clip-path="url(#SVGID_63_)" fill="#FFFFFF" d="M779.493-69.869c0.028,0,0.051,0.023,0.051,0.052
		c0,0.028-0.022,0.051-0.051,0.051"/>
</g>
<rect x="-689" y="-369" fill="none" width="1920" height="1080"/>
</svg>
