<?xml version="1.0" encoding="utf-8"?>
<!-- Generator: Adobe Illustrator 16.0.2, SVG Export Plug-In . SVG Version: 6.00 Build 0)  -->
<!DOCTYPE svg PUBLIC "-//W3C//DTD SVG 1.1//EN" "http://www.w3.org/Graphics/SVG/1.1/DTD/svg11.dtd">
<svg version="1.1" id="Layer_1" xmlns="http://www.w3.org/2000/svg" xmlns:xlink="http://www.w3.org/1999/xlink" x="0px" y="0px"
	 width="17.35px" height="16.146px" viewBox="0 0 17.35 16.146" enable-background="new 0 0 17.35 16.146" xml:space="preserve">
<path fill="#FFFFFF" d="M48.376,12.01h-6.362V9.151c0.954-0.021,3.116-0.021,4.071,0v1.681c0,0.293,0.239,0.53,0.533,0.53
	c0.295,0,0.531-0.237,0.531-0.53V8.645c0-0.544-0.389-0.549-1.326-0.563c-0.968-0.013-2.578-0.013-3.548,0
	c-0.938,0.014-1.327,0.019-1.327,0.563v3.364h-1.226c-1.056,0-1.913,0.858-1.913,1.913v6.646c0,1.055,0.857,1.913,1.913,1.913h8.653
	c1.057,0,1.914-0.858,1.914-1.913v-6.646C50.29,12.869,49.433,12.01,48.376,12.01 M49.227,20.57c0,0.467-0.381,0.848-0.851,0.848
	h-8.653c-0.468,0-0.849-0.381-0.849-0.848v-6.647c0-0.467,0.381-0.848,0.849-0.848h8.653c0.47,0,0.851,0.381,0.851,0.848V20.57z"/>
<path fill="#FFFFFF" d="M43.336,19.108c0,0.472,0.385,0.855,0.855,0.855c0.474,0,0.857-0.385,0.857-0.855
	c0-0.474-0.385-0.856-0.857-0.856C43.721,18.251,43.336,18.635,43.336,19.108"/>
<path fill="#FFFFFF" d="M14.561,2.924H2.788c-1.082,0-1.961,0.879-1.961,1.962v6.376c0,1.083,0.879,1.962,1.961,1.962h11.772
	c1.083,0,1.962-0.879,1.962-1.962V4.885C16.523,3.802,15.644,2.924,14.561,2.924 M1.809,5.499l3.433,2.575l-3.433,2.574V5.499z
	 M15.542,11.261c0,0.541-0.44,0.981-0.981,0.981H2.788c-0.541,0-0.979-0.44-0.979-0.981L5.65,8.38l2.143,1.607
	c0.262,0.195,0.572,0.295,0.883,0.295s0.621-0.1,0.883-0.295L11.7,8.38L15.542,11.261z M15.542,10.647l-3.434-2.574l3.434-2.575
	V10.647z M9.263,9.594C9.092,9.723,8.889,9.791,8.675,9.791c-0.215,0-0.417-0.067-0.59-0.196L6.059,8.073L5.65,7.767L1.809,4.885
	c0-0.541,0.438-0.981,0.979-0.981h11.772c0.541,0,0.981,0.44,0.981,0.981L9.263,9.594z"/>
<path fill="#FFFFFF" d="M52.942-41.001H52.2c-0.181,0-0.329,0.148-0.329,0.329v3.128h-2.909c-0.137,0-0.306,0.031-0.468,0.081
	c-0.161,0.05-0.319,0.118-0.429,0.194l-1.955,1.342c-0.109,0.076-0.165,0.176-0.165,0.276c0,0.099,0.056,0.199,0.165,0.275
	l1.955,1.342c0.109,0.075,0.268,0.145,0.429,0.195c0.162,0.05,0.331,0.081,0.468,0.081h2.909v7.242c0,0.181,0.148,0.328,0.329,0.328
	h0.741c0.181,0,0.329-0.147,0.329-0.328v-14.156C53.271-40.853,53.122-41.001,52.942-41.001"/>
<path fill="#FFFFFF" d="M62.24-37.573l-1.955-1.342c-0.11-0.076-0.267-0.145-0.429-0.195c-0.162-0.05-0.331-0.081-0.467-0.081
	h-5.627l0.66,3.786h4.967c0.136,0,0.305-0.031,0.467-0.081c0.162-0.05,0.318-0.118,0.429-0.194l1.955-1.342
	c0.11-0.076,0.165-0.176,0.165-0.276C62.406-37.397,62.351-37.497,62.24-37.573"/>
<rect x="-819.065" y="-523.854" fill="none" width="1920" height="1080"/>
</svg>
