<?xml version="1.0" encoding="utf-8"?>
<!-- Generator: Adobe Illustrator 16.0.2, SVG Export Plug-In . SVG Version: 6.00 Build 0)  -->
<!DOCTYPE svg PUBLIC "-//W3C//DTD SVG 1.1//EN" "http://www.w3.org/Graphics/SVG/1.1/DTD/svg11.dtd">
<svg version="1.1" id="Layer_1" xmlns="http://www.w3.org/2000/svg" xmlns:xlink="http://www.w3.org/1999/xlink" x="0px" y="0px"
	 width="17.35px" height="16.146px" viewBox="0 0 17.35 16.146" enable-background="new 0 0 17.35 16.146" xml:space="preserve">
<path fill="#FFFFFF" d="M48.376,12.01h-6.362V9.151c0.954-0.021,3.116-0.021,4.071,0v1.681c0,0.293,0.239,0.53,0.533,0.53
	c0.295,0,0.531-0.237,0.531-0.53V8.645c0-0.544-0.389-0.549-1.326-0.563c-0.968-0.013-2.578-0.013-3.548,0
	c-0.938,0.014-1.327,0.019-1.327,0.563v3.364h-1.226c-1.056,0-1.913,0.858-1.913,1.913v6.646c0,1.055,0.857,1.913,1.913,1.913h8.653
	c1.057,0,1.914-0.858,1.914-1.913v-6.646C50.29,12.869,49.433,12.01,48.376,12.01 M49.227,20.57c0,0.467-0.381,0.848-0.851,0.848
	h-8.653c-0.468,0-0.849-0.381-0.849-0.848v-6.647c0-0.467,0.381-0.848,0.849-0.848h8.653c0.47,0,0.851,0.381,0.851,0.848V20.57z"/>
<path fill="#FFFFFF" d="M43.336,19.108c0,0.472,0.385,0.855,0.855,0.855c0.474,0,0.857-0.385,0.857-0.855
	c0-0.474-0.385-0.856-0.857-0.856C43.721,18.251,43.336,18.635,43.336,19.108"/>
<path fill="#FFFFFF" d="M79.311-15.408H67.538c-1.082,0-1.961,0.879-1.961,1.962v6.376c0,1.083,0.879,1.962,1.961,1.962h11.772
	c1.083,0,1.962-0.879,1.962-1.962v-6.376C81.273-14.529,80.394-15.408,79.311-15.408 M66.559-12.833l3.433,2.575l-3.433,2.574
	V-12.833z M80.292-7.07c0,0.541-0.44,0.981-0.981,0.981H67.538c-0.541,0-0.979-0.44-0.979-0.981L70.4-9.952l2.143,1.607
	c0.262,0.195,0.572,0.295,0.883,0.295s0.621-0.1,0.883-0.295l2.143-1.607L80.292-7.07z M80.292-7.684l-3.434-2.574l3.434-2.575
	V-7.684z M74.013-8.737c-0.171,0.129-0.374,0.196-0.588,0.196c-0.215,0-0.417-0.067-0.59-0.196l-2.026-1.521L70.4-10.565
	l-3.841-2.881c0-0.541,0.438-0.981,0.979-0.981h11.772c0.541,0,0.981,0.44,0.981,0.981L74.013-8.737z"/>
<path fill="#FFFFFF" d="M52.942-41.001H52.2c-0.181,0-0.329,0.148-0.329,0.329v3.128h-2.909c-0.137,0-0.306,0.031-0.468,0.081
	c-0.161,0.05-0.319,0.118-0.429,0.194l-1.955,1.342c-0.109,0.076-0.165,0.176-0.165,0.276c0,0.099,0.056,0.199,0.165,0.275
	l1.955,1.342c0.109,0.075,0.268,0.145,0.429,0.195c0.162,0.05,0.331,0.081,0.468,0.081h2.909v7.242c0,0.181,0.148,0.328,0.329,0.328
	h0.741c0.181,0,0.329-0.147,0.329-0.328v-14.156C53.271-40.853,53.122-41.001,52.942-41.001"/>
<path fill="#FFFFFF" d="M62.24-37.573l-1.955-1.342c-0.11-0.076-0.267-0.145-0.429-0.195c-0.162-0.05-0.331-0.081-0.467-0.081
	h-5.627l0.66,3.786h4.967c0.136,0,0.305-0.031,0.467-0.081c0.162-0.05,0.318-0.118,0.429-0.194l1.955-1.342
	c0.11-0.076,0.165-0.176,0.165-0.276C62.406-37.397,62.351-37.497,62.24-37.573"/>
<rect x="-819.065" y="-523.854" fill="none" width="1920" height="1080"/>
<path fill="#FFFFFF" d="M-49.462-147.984h-11.772c-1.083,0-1.962,0.879-1.962,1.962v6.376c0,1.083,0.879,1.961,1.962,1.961h11.772
	c1.083,0,1.962-0.878,1.962-1.961v-6.376C-47.5-147.104-48.379-147.984-49.462-147.984 M-62.214-145.408l3.433,2.575l-3.433,2.574
	V-145.408z M-48.481-139.645c0,0.541-0.44,0.98-0.981,0.98h-11.772c-0.541,0-0.98-0.439-0.98-0.98l3.841-2.882l2.142,1.607
	c0.262,0.196,0.573,0.295,0.883,0.295c0.311,0,0.621-0.099,0.883-0.295l2.143-1.607L-48.481-139.645z M-48.481-140.26l-3.433-2.574
	l3.433-2.575V-140.26z M-54.76-141.312c-0.171,0.128-0.374,0.196-0.588,0.196c-0.214,0-0.417-0.068-0.589-0.196l-2.027-1.521
	l-0.409-0.307l-3.841-2.881c0-0.541,0.439-0.981,0.98-0.981h11.772c0.541,0,0.981,0.44,0.981,0.981L-54.76-141.312z"/>
<path fill="#FFFFFF" d="M3.582,6.222H4.51V5.296H3.582V6.222z M7.286,5.296h0.926V4.37H7.286V5.296z M9.137,5.296h0.926V4.37H9.137
	V5.296z M10.99,5.296h0.927V4.37H10.99V5.296z M7.286,3.445h0.926V2.519H7.286V3.445z M9.137,3.445h0.926V2.519H9.137V3.445z
	 M10.99,3.445h0.927V2.519H10.99V3.445z M7.286,9h0.926V8.074H7.286V9z M9.137,9h0.926V8.074H9.137V9z M10.99,9h0.927V8.074H10.99V9
	z M7.286,10.852h0.926V9.926H7.286V10.852z M10.99,10.852h0.927V9.926H10.99V10.852z M7.286,12.704h0.926v-0.926H7.286V12.704z
	 M10.99,12.704h0.927v-0.926H10.99V12.704z M13.767,11.778h0.927v-0.926h-0.927V11.778z M13.767,9.926h0.927V9h-0.927V9.926z
	 M13.767,13.63h0.927v-0.926h-0.927V13.63z M7.286,7.148h0.926V6.222H7.286V7.148z M9.137,7.148h0.926V6.222H9.137V7.148z
	 M10.99,7.148h0.927V6.222H10.99V7.148z M3.582,8.074H4.51V7.148H3.582V8.074z M3.582,9.926H4.51V9H3.582V9.926z M3.582,11.778H4.51
	v-0.926H3.582V11.778z M3.582,13.63H4.51v-0.926H3.582V13.63z M9.137,10.852h0.926V9.926H9.137V10.852z"/>
<path fill="#FFFFFF" d="M15.619,14.555c0,0.512-0.414,0.926-0.926,0.926H2.656c-0.512,0-0.926-0.414-0.926-0.926V4.371
	c0-0.512,0.414-0.926,0.926-0.926h2.778V1.593c0-0.512,0.414-0.926,0.926-0.926h6.482c0.511,0,0.924,0.414,0.924,0.926v5.555h0.927
	c0.512,0,0.926,0.414,0.926,0.926V14.555z M5.434,4.371H2.656v10.185h2.778V4.371z M12.843,1.593H6.361v12.962h2.777v-2.777h0.926
	v2.777h2.779V1.593z M14.694,8.074h-0.927v6.481h0.927V8.074z"/>
<path fill="#FFFFFF" d="M-57.243-90.913h-0.741c-0.181,0-0.329,0.148-0.329,0.329v3.128h-2.91c-0.136,0-0.305,0.031-0.467,0.081
	c-0.162,0.049-0.319,0.118-0.429,0.194l-1.955,1.342c-0.11,0.076-0.165,0.176-0.165,0.276c0,0.099,0.055,0.199,0.165,0.275
	l1.955,1.342c0.11,0.075,0.267,0.145,0.429,0.195c0.162,0.05,0.331,0.081,0.467,0.081h2.91v7.242c0,0.181,0.148,0.329,0.329,0.329
	h0.741c0.181,0,0.329-0.148,0.329-0.329v-14.156C-56.914-90.765-57.062-90.913-57.243-90.913"/>
<path fill="#FFFFFF" d="M-47.944-87.485l-1.955-1.342c-0.11-0.076-0.267-0.145-0.429-0.195c-0.162-0.05-0.331-0.081-0.467-0.081
	h-5.626l0.66,3.786h4.966c0.136,0,0.305-0.031,0.467-0.081c0.162-0.05,0.319-0.118,0.429-0.194l1.955-1.342
	c0.11-0.076,0.165-0.176,0.165-0.276C-47.779-87.309-47.834-87.408-47.944-87.485"/>
<g opacity="0.5">
	<g>
		<defs>
			<rect id="SVGID_1_" x="211.66" y="-308.038" width="91.82" height="14.403"/>
		</defs>
		<clipPath id="SVGID_2_">
			<use xlink:href="#SVGID_1_"  overflow="visible"/>
		</clipPath>
		<g clip-path="url(#SVGID_2_)">
			<text transform="matrix(1 0 0 1 211.6614 -298.5183)"><tspan x="0" y="0" fill="#666666" font-family="'Montserrat-SemiBold'" font-size="11.2">Pri</tspan><tspan x="15.635" y="0" fill="#666666" font-family="'Montserrat-SemiBold'" font-size="11.2">v</tspan><tspan x="21.694" y="0" fill="#666666" font-family="'Montserrat-SemiBold'" font-size="11.2">atni </tspan><tspan x="46.647" y="0" fill="#666666" font-family="'Montserrat-SemiBold'" font-size="11.2">k</tspan><tspan x="53.289" y="0" fill="#666666" font-family="'Montserrat-SemiBold'" font-size="11.2">orisnik</tspan></text>
		</g>
	</g>
</g>
<rect x="-915" y="-538" fill="none" width="1920" height="1080"/>
</svg>
