<?xml version="1.0" encoding="utf-8"?>
<!-- Generator: Adobe Illustrator 16.0.2, SVG Export Plug-In . SVG Version: 6.00 Build 0)  -->
<!DOCTYPE svg PUBLIC "-//W3C//DTD SVG 1.1//EN" "http://www.w3.org/Graphics/SVG/1.1/DTD/svg11.dtd">
<svg version="1.1" id="Layer_1" xmlns="http://www.w3.org/2000/svg" xmlns:xlink="http://www.w3.org/1999/xlink" x="0px" y="0px"
	 width="17.35px" height="16.146px" viewBox="0 0 17.35 16.146" enable-background="new 0 0 17.35 16.146" xml:space="preserve">
<path fill="#FFFFFF" d="M48.376,12.01h-6.362V9.151c0.954-0.021,3.116-0.021,4.071,0v1.681c0,0.293,0.239,0.53,0.533,0.53
	c0.295,0,0.531-0.237,0.531-0.53V8.645c0-0.544-0.389-0.549-1.326-0.563c-0.968-0.013-2.578-0.013-3.548,0
	c-0.938,0.014-1.327,0.019-1.327,0.563v3.364h-1.226c-1.056,0-1.913,0.858-1.913,1.913v6.646c0,1.055,0.857,1.913,1.913,1.913h8.653
	c1.057,0,1.914-0.858,1.914-1.913v-6.646C50.29,12.869,49.433,12.01,48.376,12.01 M49.227,20.57c0,0.467-0.381,0.848-0.851,0.848
	h-8.653c-0.468,0-0.849-0.381-0.849-0.848v-6.647c0-0.467,0.381-0.848,0.849-0.848h8.653c0.47,0,0.851,0.381,0.851,0.848V20.57z"/>
<path fill="#FFFFFF" d="M43.336,19.108c0,0.472,0.385,0.855,0.855,0.855c0.474,0,0.857-0.385,0.857-0.855
	c0-0.474-0.385-0.856-0.857-0.856C43.721,18.251,43.336,18.635,43.336,19.108"/>
<path fill="#FFFFFF" d="M46.473-133.837H34.7c-1.082,0-1.961,0.879-1.961,1.962v6.376c0,1.083,0.879,1.961,1.961,1.961h11.772
	c1.083,0,1.962-0.878,1.962-1.961v-6.376C48.435-132.958,47.556-133.837,46.473-133.837 M33.721-131.262l3.433,2.575l-3.433,2.574
	V-131.262z M47.454-125.499c0,0.541-0.44,0.981-0.981,0.981H34.7c-0.541,0-0.979-0.44-0.979-0.981l3.841-2.882l2.143,1.607
	c0.262,0.196,0.572,0.295,0.883,0.295s0.621-0.099,0.883-0.295l2.143-1.607L47.454-125.499z M47.454-126.113l-3.434-2.574
	l3.434-2.575V-126.113z M41.175-127.166c-0.171,0.129-0.374,0.196-0.588,0.196c-0.215,0-0.417-0.068-0.59-0.196l-2.026-1.521
	l-0.409-0.307l-3.841-2.881c0-0.541,0.438-0.981,0.979-0.981h11.772c0.541,0,0.981,0.44,0.981,0.981L41.175-127.166z"/>
<path fill="#FFFFFF" d="M7.442,0.666H6.7c-0.181,0-0.329,0.148-0.329,0.329v3.128H3.462c-0.137,0-0.306,0.031-0.468,0.081
	c-0.161,0.05-0.319,0.118-0.429,0.194L0.611,5.74C0.501,5.816,0.446,5.916,0.446,6.016c0,0.099,0.056,0.199,0.165,0.275l1.955,1.342
	c0.109,0.075,0.268,0.145,0.429,0.195c0.162,0.05,0.331,0.081,0.468,0.081h2.909v7.242c0,0.181,0.148,0.328,0.329,0.328h0.741
	c0.181,0,0.329-0.147,0.329-0.328V0.995C7.771,0.814,7.622,0.666,7.442,0.666"/>
<path fill="#FFFFFF" d="M16.74,4.094l-1.955-1.342c-0.11-0.076-0.267-0.145-0.429-0.195c-0.162-0.05-0.331-0.081-0.467-0.081H8.263
	l0.66,3.786h4.967c0.136,0,0.305-0.031,0.467-0.081c0.162-0.05,0.318-0.118,0.429-0.194l1.955-1.342
	c0.11-0.076,0.165-0.176,0.165-0.276C16.906,4.27,16.851,4.17,16.74,4.094"/>
<rect x="-819.065" y="-523.854" fill="none" width="1920" height="1080"/>
</svg>
